<svg width="40" height="40" viewBox="0 0 40 40" fill="none" xmlns="http://www.w3.org/2000/svg">
<path d="M20 40C31 40 40 31 40 20C40 9 31 0 20 0C9 0 0 9 0 20C0 31 9 40 20 40Z" fill="#78BACD"/>
<path d="M15.8809 5.7888C15.331 5.7888 14.979 6.58856 15.331 6.88436C15.683 7.18016 17.0633 8.41266 17.0633 8.41266V12.2471C17.0633 12.2471 9.83154 25.9087 9.03412 27.5849C8.2367 29.2611 9.55107 31.2057 10.9204 31.2057C12.2898 31.2057 26.9018 31.0852 28.9476 31.0852C30.9934 31.0852 31.4884 28.434 31.0704 27.6452L22.8212 12.0335V8.58795L24.3721 7.04321C24.6746 6.80767 24.7295 6.36945 24.4931 6.06817C24.3611 5.90383 24.1686 5.80523 23.9541 5.79976L15.9139 5.77237" fill="white"/>
<path d="M15.221 15.6379C13.0652 19.7298 9.49058 26.4839 9.01763 27.4918C8.22571 29.1735 9.53457 31.1126 10.9039 31.1126C12.2733 31.1126 26.8853 30.9921 28.9311 30.9921C30.9769 30.9921 31.4719 28.3408 31.0539 27.552C30.8449 27.1522 26.5829 19.2422 24.5481 15.3968C19.6756 11.2173 18.3667 17.3853 15.199 15.6379" fill="#78BACD"/>
<path d="M12.9607 19.9105C10.8049 24.0024 9.49608 26.6044 9.01763 27.6123C8.22571 29.294 9.53457 31.2331 10.9039 31.2331C12.2733 31.2331 26.8853 31.1126 28.9311 31.1126C30.9769 31.1126 31.4719 28.4613 31.0539 27.6725C30.8449 27.2727 30.504 26.9604 28.4802 23.1096C22.0623 23.5971 20.1155 18.4589 12.9607 19.9105Z" fill="#373737"/>
<path d="M10.9204 32C10.013 32 9.13311 31.4577 8.56117 30.5593C7.91224 29.535 7.81875 28.3025 8.3192 27.2508C9.07812 25.6622 15.3915 13.7152 16.2714 12.0554V8.76872C15.8589 8.4017 15.0725 7.70055 14.8195 7.49239C14.4181 7.15277 14.2916 6.58308 14.4896 6.02982C14.7151 5.41631 15.276 5 15.8809 5L23.9541 5.01096C24.4216 5.01643 24.8395 5.22459 25.1145 5.58065C25.6095 6.21059 25.5105 7.1199 24.9055 7.62934L23.6132 8.91662V11.8363L31.7688 27.2727C32.1813 28.045 32.0273 29.4364 31.4224 30.4334C30.8614 31.3591 29.9815 31.874 28.9476 31.874C27.8257 31.874 22.8542 31.9124 18.4657 31.9452C14.836 31.9726 11.5364 31.9945 10.9204 31.9945V32ZM16.1944 6.58308C16.7388 7.05965 17.5968 7.82654 17.5968 7.82654L17.8607 8.06208V12.4443L17.7672 12.6196C17.6958 12.7565 10.5355 26.2867 9.75455 27.9245C9.49058 28.4778 9.54557 29.1461 9.90304 29.7103C10.178 30.1376 10.574 30.4169 10.9204 30.4169C11.5364 30.4169 14.8305 30.395 18.4547 30.3676C22.8432 30.3348 27.8202 30.2964 28.9476 30.2964C29.4096 30.2964 29.7725 30.0883 30.042 29.6555C30.4545 29.0091 30.4545 28.1984 30.3665 28.0122L22.0293 12.2307V8.26476L23.7066 6.59404L16.1944 6.58308Z" fill="white"/>
<path d="M19.857 18.5027L15.9084 26.3195H17.2393L20.1155 20.7212L21.6389 23.6519L19.4336 23.6628L18.8836 24.8679L22.1448 24.8296L22.9422 26.3414L24.3391 26.3195L20.396 18.4973L19.857 18.5027Z" fill="white"/>
<path d="M21.1164 17.1114C20.286 17.1114 19.6096 16.4376 19.6096 15.6105C19.6096 14.7833 20.286 14.1096 21.1164 14.1096C21.9468 14.1096 22.6233 14.7833 22.6233 15.6105C22.6233 16.4376 21.9468 17.1114 21.1164 17.1114ZM21.1164 14.8984C20.7205 14.8984 20.4015 15.2161 20.4015 15.6105C20.4015 16.0049 20.7205 16.3226 21.1164 16.3226C21.5124 16.3226 21.8313 16.0049 21.8313 15.6105C21.8313 15.2161 21.5124 14.8984 21.1164 14.8984Z" fill="#373737"/>
<path d="M20.638 8.944C20.253 8.944 19.945 8.63177 19.945 8.2538C19.945 7.87584 20.2585 7.5636 20.638 7.5636C21.0174 7.5636 21.3309 7.87584 21.3309 8.2538C21.3309 8.63177 21.0174 8.944 20.638 8.944ZM20.638 7.958C20.473 7.958 20.341 8.08947 20.341 8.2538C20.341 8.41814 20.473 8.5496 20.638 8.5496C20.8029 8.5496 20.9349 8.41814 20.9349 8.2538C20.9349 8.08947 20.8029 7.958 20.638 7.958Z" fill="#B1B2B1"/>
<path d="M19.5271 13.2386C18.9551 13.2386 18.4932 12.7785 18.4932 12.2088C18.4932 11.6391 18.9551 11.1789 19.5271 11.1789C20.099 11.1789 20.561 11.6391 20.561 12.2088C20.561 12.7785 20.099 13.2386 19.5271 13.2386ZM19.5271 11.6939C19.2411 11.6939 19.0101 11.9239 19.0101 12.2088C19.0101 12.4936 19.2411 12.7237 19.5271 12.7237C19.813 12.7237 20.044 12.4936 20.044 12.2088C20.044 11.9239 19.813 11.6939 19.5271 11.6939Z" fill="#78BACD"/>
<path d="M39.5 20C39.5 23.8567 38.3563 27.6269 36.2137 30.8336C34.071 34.0404 31.0255 36.5397 27.4623 38.0156C23.8992 39.4916 19.9784 39.8777 16.1957 39.1253C12.4131 38.3729 8.93855 36.5157 6.21143 33.7886C3.4843 31.0615 1.62711 27.5869 0.874696 23.8043C0.122284 20.0216 0.508449 16.1008 1.98436 12.5377C3.46027 8.97451 5.95963 5.92903 9.16639 3.78634C12.3731 1.64365 16.1433 0.5 20 0.5C25.1717 0.5 30.1316 2.55446 33.7886 6.21142C37.4455 9.86837 39.5 14.8283 39.5 20Z" stroke="black" stroke-opacity="0.02"/>
</svg>
