<svg width="40" height="40" viewBox="0 0 40 40" fill="none" xmlns="http://www.w3.org/2000/svg">
<g clip-path="url(#clip0_1584_565)">
<path d="M20 40C23.9556 40 27.8224 38.827 31.1114 36.6294C34.4004 34.4318 36.9638 31.3082 38.4776 27.6537C39.9913 23.9992 40.3874 19.9778 39.6157 16.0982C38.844 12.2186 36.9392 8.65492 34.1421 5.85787C31.3451 3.06082 27.7814 1.15601 23.9018 0.384303C20.0222 -0.387401 16.0009 0.00866568 12.3463 1.52242C8.69181 3.03617 5.56824 5.59962 3.37061 8.8886C1.17298 12.1776 0 16.0444 0 20C0 25.3043 2.10714 30.3914 5.85786 34.1421C9.60859 37.8929 14.6957 40 20 40Z" fill="#F3F3F3"/>
<path d="M13.32 21.22L14 16.15L8.14001 12.09L13.49 13.9L14.75 12L19.36 9.09999L29.53 14.7L30.05 23.25L25.53 29.54L22 30.09L23.8 26.7V23.44L22.45 20.89L21.09 20L19 22.15V24.45L17.34 26L15.25 26.25L14.33 26.77L12.82 26.29L12.18 24L13.32 22.41V21.22Z" fill="white"/>
<path d="M22.67 12.05C21.8985 11.9084 21.1139 11.8514 20.33 11.88C20.1272 12.5065 19.7472 13.0608 19.2362 13.476C18.7251 13.8913 18.1047 14.1497 17.45 14.22C18.4369 14.5151 19.4954 14.4604 20.4466 14.0649C21.3978 13.6695 22.1832 12.9578 22.67 12.05Z" fill="#94A6C3"/>
<path d="M23.68 28.84C25.0313 27.7902 26.0179 26.3418 26.5 24.7C26.5 24.64 26.71 24.53 26.83 24.45C26.95 24.37 27.25 24.21 27.29 24.04C27.3792 23.5484 27.4227 23.0496 27.42 22.55C27.42 22.36 27.23 22.17 27.04 21.98C26.85 21.79 26.75 21.71 26.75 21.61C26.5424 19.6955 25.6512 17.9202 24.24 16.61L24.09 16.76C25.4658 18.04 26.3354 19.772 26.54 21.64C26.6017 21.8391 26.7241 22.0139 26.89 22.14C27.04 22.27 27.21 22.46 27.21 22.54C27.2107 23.0291 27.1706 23.5175 27.09 24C27.09 24.09 26.88 24.17 26.73 24.26C26.58 24.35 26.33 24.47 26.29 24.63C25.7764 26.4206 24.642 27.9697 23.09 29C23.36 28.41 24.22 26.5 24.69 25.53L24.6 22.41L21.93 19.8L20.41 20L18.75 22.7C18.9727 23.0343 19.0633 23.4393 19.0041 23.8366C18.945 24.2339 18.7404 24.595 18.43 24.85C17.9151 25.461 17.2597 25.9379 16.52 26.24L15.74 25.82C16.0432 25.4578 16.3778 25.1231 16.74 24.82C17.35 24.32 17.96 24.28 17.96 23.73C17.96 22.59 16.76 22.9 16.76 22.9L16.32 23.33L16.13 24.89L15.26 26H15.15L13.64 25.67C13.64 25.67 14.57 25.18 14.71 24.67C14.7195 23.8693 14.6151 23.0713 14.4 22.3C14.6921 22.5739 14.909 22.9182 15.03 23.3C15.2434 22.6323 15.5461 21.9965 15.93 21.41L17.76 20.41L17.2 21.9L17.62 21.67L18.62 19.19C19.1599 18.9281 19.7425 18.7655 20.34 18.71C21.67 18.71 23.63 17.07 22.74 14.16C22.99 14.27 27.37 16.46 28.13 20.75C28.71 24 26.83 27.05 23.68 28.84Z" fill="#94A6C3"/>
<path d="M18.67 12.51C18.8196 12.3106 18.9262 12.0823 18.9831 11.8396C19.0399 11.5969 19.0456 11.345 19 11.1L17.59 13.18C17.8061 13.1474 18.0132 13.0713 18.1989 12.9561C18.3846 12.8409 18.5449 12.6891 18.67 12.51Z" fill="#1B314F"/>
<path d="M13.93 23.9L14.1 23.06C14.1 23.06 13.4 24.28 13.34 24.45C13.28 24.62 13.39 24.97 13.66 24.95C13.8207 24.9055 13.9644 24.8143 14.0731 24.6878C14.1817 24.5614 14.2503 24.4055 14.27 24.24C14.2767 24.1938 14.2726 24.1466 14.2578 24.1023C14.2431 24.058 14.2183 24.0178 14.1853 23.9847C14.1522 23.9517 14.112 23.9269 14.0677 23.9122C14.0234 23.8974 13.9762 23.8933 13.93 23.9Z" fill="#1B314F"/>
<path d="M26.43 10.51C26.43 10.51 27.49 10.51 28.58 10.68C26.7034 9.10292 24.341 8.22011 21.89 8.17998C20.3216 8.16905 18.7764 8.55796 17.4 9.30999L18.22 7.99998C17.2327 7.94527 16.2561 8.227 15.4496 8.79916C14.6431 9.37131 14.0545 10.2001 13.78 11.15C13.5611 10.5571 13.3742 9.9529 13.22 9.33998C12.7026 9.85046 12.342 10.4983 12.1807 11.2071C12.0195 11.9158 12.0643 12.6559 12.31 13.34C10.31 12.63 7.56001 11.64 7.45001 11.62C7.34001 11.6 7.26001 11.62 7.26001 11.62C7.26001 11.62 7.26001 11.68 7.34001 11.79C7.42001 11.9 12 15.27 13 15.9C12.79 16.66 12.79 17.02 13 17.37C13.1173 17.5256 13.2024 17.703 13.2505 17.8919C13.2985 18.0807 13.3086 18.2772 13.28 18.47C13.23 18.82 12.86 21.92 12.77 22.3C12.68 22.68 11.77 24.02 11.85 24.42C11.93 24.82 12.43 26.53 12.92 26.72C13.5093 26.9347 14.1248 27.0692 14.75 27.12C14.9206 27.1378 15.0917 27.0915 15.23 26.99C15.59 26.68 15.7 26.61 15.95 26.61H16C16.1 26.61 16.23 26.61 16.38 26.61C16.7752 26.628 17.1632 26.4998 17.47 26.25C17.93 25.79 18.73 25.15 18.99 24.86C19.152 24.6505 19.2708 24.4109 19.3395 24.1551C19.4081 23.8993 19.4253 23.6325 19.39 23.37C19.3755 22.868 19.5505 22.3789 19.88 22C20.28 21.47 21.02 20.52 21.02 20.52C21.7454 21.0514 22.3365 21.7449 22.7463 22.5453C23.156 23.3457 23.373 24.2308 23.38 25.13C23.3201 26.7632 22.6146 28.3059 21.4185 29.4195C20.2224 30.5331 18.6333 31.1267 17 31.07C16.4616 31.0705 15.9248 31.0101 15.4 30.89C16.7185 31.3677 18.1077 31.6212 19.51 31.64C20.7797 31.6971 22.0401 31.3993 23.15 30.78C22.8 31.2169 22.4155 31.6248 22 32C23.1866 31.8105 24.3207 31.3756 25.3297 30.723C26.3387 30.0704 27.2005 29.2145 27.86 28.21C27.86 28.21 27.71 29.27 27.52 29.98C32.76 26.04 31.87 21.12 31.85 20.98C31.85 21.04 32.42 21.68 32.69 21.98C33.0278 19.6482 32.6002 17.2699 31.4715 15.2017C30.3428 13.1336 28.5738 11.4874 26.43 10.51ZM18.37 24.36C18.29 24.47 17.93 24.78 17.68 25.02C17.43 25.26 17.15 25.48 16.94 25.69C16.7948 25.7928 16.617 25.839 16.44 25.82H15.81C16.2708 25.232 16.7938 24.6955 17.37 24.22C17.74 23.97 17.94 23.71 17.7 23.27C17.46 22.83 16.86 22.94 16.86 22.94C17.0767 22.8525 17.3066 22.8018 17.54 22.79C17.3468 22.7336 17.143 22.7233 16.9451 22.7597C16.7471 22.7962 16.5605 22.8785 16.4 23C16.15 23.23 16.19 24.05 16.08 24.58C15.97 25.11 15.62 25.4 15.08 25.9C14.9128 26.1035 14.672 26.2329 14.41 26.26C14.0409 26.1998 13.6766 26.1129 13.32 26C13.0518 25.5088 12.8501 24.9843 12.72 24.44C12.8479 24.1279 12.9949 23.824 13.16 23.53C13.3548 23.22 13.5031 22.8831 13.6 22.53C13.68 22.18 13.96 19.96 14.06 19.04C14.33 19.4 14.71 19.99 14.63 20.37C14.8257 20.071 14.9258 19.7194 14.9168 19.3622C14.9079 19.0049 14.7904 18.6589 14.58 18.37C14.2851 17.8439 14.2028 17.2249 14.35 16.64C14.56 15.93 15.35 13.95 15.35 13.95C15.35 13.95 15.6 14.39 15.96 14.3C16.32 14.21 19.2 9.87998 19.2 9.87998C19.4195 10.3407 19.5334 10.8446 19.5334 11.355C19.5334 11.8653 19.4195 12.3692 19.2 12.83C18.8204 13.4905 18.2333 14.0072 17.53 14.3C18.3186 14.3981 19.1152 14.1945 19.76 13.73C20.2 14.73 20.62 15.84 20.65 15.98C20.68 16.12 19.74 18.15 19.65 18.28C19.4747 18.36 19.2899 18.4171 19.1 18.45C18.8741 18.4975 18.6555 18.5748 18.45 18.68C18.0057 19.6133 17.6249 20.5755 17.31 21.56C16.8973 21.6758 16.5415 21.9392 16.31 22.3C16.628 22.1705 16.9668 22.0994 17.31 22.09C17.6513 22.1648 17.9653 22.3322 18.2176 22.5739C18.4699 22.8156 18.6507 23.1222 18.74 23.46C18.74 23.797 18.607 24.1204 18.37 24.36ZM16.37 24.61C16.4978 24.3344 16.5627 24.0338 16.56 23.73C16.56 23.58 16.62 23.31 16.79 23.27C16.96 23.23 17.36 23.27 17.36 23.58C17.36 23.89 17.06 23.92 16.85 24.11C16.64 24.3 16.43 24.57 16.4 24.61H16.37ZM24.76 20.61C24.9673 19.7021 25.0481 18.77 25 17.84C25.8177 18.9467 26.3252 20.2516 26.47 21.62C26.5366 21.822 26.662 21.9995 26.83 22.13C26.98 22.26 27.15 22.42 27.15 22.53C27.1409 23.0233 27.0908 23.515 27 24C27 24.06 26.79 24.17 26.64 24.26C26.49 24.35 26.24 24.47 26.2 24.63C25.7363 26.2483 24.7654 27.675 23.43 28.7C25.36 26.64 26.31 23.27 24.79 20.59L24.76 20.61ZM23.44 28.88C24.8231 27.8312 25.8327 26.3659 26.32 24.7C26.32 24.63 26.53 24.53 26.65 24.44C26.77 24.35 27.08 24.21 27.12 24.04C27.2005 23.5474 27.2406 23.0491 27.24 22.55C27.24 22.36 27.05 22.17 26.86 21.98C26.67 21.79 26.59 21.71 26.59 21.6C26.4273 20.0703 25.8421 18.6161 24.9 17.4C24.8295 16.7148 24.5979 16.0559 24.2243 15.4772C23.8506 14.8985 23.3455 14.4163 22.75 14.07C23.0855 14.5799 23.2949 15.1623 23.361 15.7692C23.427 16.376 23.3479 16.9898 23.13 17.56C22.8733 18.1065 22.4485 18.5566 21.9178 18.8444C21.387 19.1323 20.7781 19.2429 20.18 19.16C20.01 19.16 19.36 20 18.54 21.56C18.1961 21.458 17.8332 21.4374 17.48 21.5C17.788 20.5894 18.1418 19.6949 18.54 18.82C18.7246 18.7441 18.9153 18.6839 19.11 18.64C19.51 18.53 19.7 18.47 19.76 18.38C19.82 18.29 20.01 17.84 20.22 17.33C20.4611 17.3265 20.7017 17.3065 20.94 17.27C21.1154 16.8811 21.2625 16.4801 21.38 16.07C21.38 15.96 20.56 13.92 20.24 13.14C20.404 12.9497 20.5512 12.7456 20.68 12.53C22.5432 12.7304 24.2901 13.5331 25.6556 14.8164C27.0212 16.0997 27.9308 17.7935 28.2464 19.6406C28.5619 21.4877 28.2663 23.3874 27.4043 25.0513C26.5423 26.7152 25.161 28.0524 23.47 28.86L23.44 28.88Z" fill="#1B314F"/>
<path d="M17.87 17.5C17.9745 17.376 18.0444 17.2265 18.0726 17.0668C18.1007 16.907 18.0861 16.7427 18.0303 16.5904C17.9745 16.4381 17.8794 16.3033 17.7546 16.1996C17.6299 16.0959 17.4799 16.027 17.32 16C17.51 15.56 17.78 14.67 17.78 14.67C17.78 14.67 15.63 18.04 15.45 18.1C15.27 18.16 15.07 17.43 15.07 17.43C14.67 18.97 15.74 19.18 15.87 18.69C16.6161 18.4452 17.2989 18.0389 17.87 17.5Z" fill="#1B314F"/>
<path d="M16 18.32L17.1 16.45C17.1 16.45 17.73 16.76 17.41 17.27C17.0217 17.7181 16.5406 18.0763 16 18.32Z" fill="#FFD923"/>
<path d="M29.57 27C29.2302 27.4522 28.8628 27.883 28.47 28.29C29.2658 26.7095 29.6802 24.9645 29.6802 23.195C29.6802 21.4254 29.2658 19.6805 28.47 18.1C28.66 18.29 28.84 18.5 29.01 18.69C30.0357 19.8043 30.6503 21.2354 30.7521 22.7465C30.8539 24.2575 30.4369 25.7581 29.57 27Z" fill="#D82122"/>
<path d="M32.09 20.28C31.1616 17.5148 29.3025 15.1575 26.83 13.61C25.0187 12.4291 22.8916 11.8259 20.73 11.88H20.68C20.7841 11.8439 20.8912 11.8172 21 11.8C21.7634 11.5677 22.5468 11.407 23.34 11.32C24.432 11.1567 25.5473 11.2586 26.5916 11.6172C27.6359 11.9757 28.5786 12.5804 29.34 13.38C31.1202 15.2342 32.1068 17.7096 32.09 20.28Z" fill="#D82122"/>
<path d="M26.16 9.85998C23.9771 9.31916 21.6858 9.40581 19.55 10.11C19.463 9.84235 19.356 9.58162 19.23 9.32998C18.79 9.85998 18.33 10.49 18.04 10.89C17.595 11.1867 17.2085 11.563 16.9 12C17.1357 11.2207 17.5829 10.522 18.192 9.9818C18.8011 9.44157 19.5481 9.08092 20.35 8.93998C20.8523 8.85672 21.3608 8.81658 21.87 8.81998C23.3599 8.84039 24.8262 9.19584 26.16 9.85998Z" fill="#D82122"/>
<path d="M14.56 13.9C12.1 13.82 12.92 10.9 12.96 10.79C13 10.81 13.13 13 14.56 13.9Z" fill="#D82122"/>
<path d="M17 8.73998C15.11 9.87998 15.49 12.59 15.49 12.59C13.66 9.83998 16.84 8.80998 17 8.73998Z" fill="#D82122"/>
<path d="M13.87 14.66C13.9587 14.7224 14.019 14.8175 14.0377 14.9243C14.0565 15.0312 14.0321 15.1411 13.97 15.23C13.89 15.37 13.76 15.35 13.57 15.23C13.38 15.11 11.81 14.23 10.44 13.31C12 13.86 13.57 14.45 13.83 14.58L13.87 14.66Z" fill="white"/>
<path d="M39.5 20C39.5 23.8567 38.3563 27.6269 36.2137 30.8336C34.071 34.0404 31.0255 36.5397 27.4623 38.0156C23.8992 39.4916 19.9784 39.8777 16.1957 39.1253C12.4131 38.3729 8.93855 36.5157 6.21143 33.7886C3.4843 31.0615 1.62711 27.5869 0.874696 23.8043C0.122284 20.0216 0.508449 16.1008 1.98436 12.5377C3.46027 8.97451 5.95963 5.92903 9.16639 3.78634C12.3731 1.64365 16.1433 0.5 20 0.5C25.1717 0.5 30.1316 2.55446 33.7886 6.21142C37.4455 9.86837 39.5 14.8283 39.5 20Z" stroke="black" stroke-opacity="0.02"/>
</g>
<defs>
<clipPath id="clip0_1584_565">
<rect width="40" height="40" fill="white"/>
</clipPath>
</defs>
</svg>
