<svg width="40" height="41" viewBox="0 0 40 41" fill="none" xmlns="http://www.w3.org/2000/svg"><path d="M40 20.01C40 8.946 31.055 0 20.01 0 8.966 0 0 8.945 0 20.01c0 11.066 8.945 20.011 20.01 20.011 11.066 0 19.99-8.966 19.99-20.01Z" fill="#9391F7"/><path d="M16.273 20.976a3.142 3.142 0 0 0 2.604-3.611 3.142 3.142 0 0 0-3.612-2.604 3.142 3.142 0 0 0-2.604 3.612 3.165 3.165 0 0 0 3.612 2.603Zm8.23 0a3.142 3.142 0 0 0 2.605-3.611 3.142 3.142 0 0 0-3.612-2.604 3.142 3.142 0 0 0-2.604 3.612 3.142 3.142 0 0 0 3.612 2.603Z" fill="#fff"/><path d="M19.884 4.892C11.34 4.892 4.41 11.947 4.41 20.64h3.948c0-6.53 5.123-11.8 11.506-11.8 6.405 0 11.507 5.291 11.507 11.8h3.948c.042-8.693-6.887-15.748-15.433-15.748Z" fill="#fff"/><circle cx="20" cy="20" r="19.167" stroke="#000" stroke-opacity=".02" stroke-width="1.667"/></svg>