<svg width="40" height="40" viewBox="0 0 40 40" fill="none" xmlns="http://www.w3.org/2000/svg">
<path d="M20 40C31 40 40 31 40 20C40 9 31 0 20 0C9 0 0 9 0 20C0 31 9 40 20 40Z" fill="#F3F3F3"/>
<path fill-rule="evenodd" clip-rule="evenodd" d="M16.5738 25.0014C16.1859 25.6601 15.9869 26.6579 15.9869 27.4566C15.9869 28.0202 16.0829 28.5367 16.2625 29H24.0392V23.1995C23.2093 22.6472 22.1756 22.3248 21.0327 22.3248C19.0483 22.3248 17.4469 23.5189 16.5738 25.0014ZM15.9739 11.9325V21.373H15.9839C16.6916 20.6824 18.5475 19.8062 20.4943 19.623C21.8705 19.5224 23.1248 19.7286 24.0392 20.0798V11.9325L19.9869 5L15.9739 11.9325ZM26.9804 16.9614V29H34L26.9804 16.9614ZM13.0196 29V16.9614L6 29H13.0196Z" fill="#070E62"/>
<path d="M39.5 20C39.5 23.8567 38.3563 27.6269 36.2137 30.8336C34.071 34.0404 31.0255 36.5397 27.4623 38.0156C23.8992 39.4916 19.9784 39.8777 16.1957 39.1253C12.4131 38.3729 8.93855 36.5157 6.21143 33.7886C3.4843 31.0615 1.62711 27.5869 0.874696 23.8043C0.122284 20.0216 0.508449 16.1008 1.98436 12.5377C3.46027 8.97451 5.95963 5.92903 9.16639 3.78634C12.3731 1.64365 16.1433 0.5 20 0.5C25.1717 0.5 30.1316 2.55446 33.7886 6.21142C37.4455 9.86837 39.5 14.8283 39.5 20Z" stroke="black" stroke-opacity="0.02"/>
</svg>
