<svg width="40" height="40" viewBox="0 0 40 40" fill="none" xmlns="http://www.w3.org/2000/svg"><path fill-rule="evenodd" clip-rule="evenodd" d="M40 20c0 11.046-8.954 20-20 20S0 31.046 0 20 8.954 0 20 0s20 8.954 20 20" fill="#fff"/><path d="M12.772 19.887a2.155 2.155 0 0 0 2.031 2.27h.128a2.143 2.143 0 0 0 2.15-2.159 2.143 2.143 0 0 0-2.158-2.15 2.153 2.153 0 0 0-2.15 2.04Zm-8.038-.554a.697.697 0 1 0-.076 1.39.697.697 0 0 0 .076-1.39Zm7.902-11.956a.704.704 0 0 0 .307-.938.704.704 0 0 0-.939-.307.694.694 0 0 0-.307.93.69.69 0 0 0 .939.315Zm2.184 3.815c.53-.265.743-.913.478-1.442a1.077 1.077 0 0 0-1.442-.478c-.53.264-.742.913-.478 1.442.265.53.913.742 1.442.478Zm-7.355 2.62a.893.893 0 0 0 1.228-.256.892.892 0 0 0-.256-1.23.893.893 0 0 0-1.228.257.883.883 0 0 0 .256 1.229Zm1.305 5.137a1.072 1.072 0 0 0-1.135 1.015c-.034.598.418 1.1 1.016 1.135a1.077 1.077 0 0 0 .12-2.15Zm-1.186 7.227a.89.89 0 0 0 .802 1.588.89.89 0 0 0-.802-1.588Zm4.181-9.455a1.256 1.256 0 0 0 1.75-.366 1.256 1.256 0 0 0-.367-1.75 1.256 1.256 0 0 0-1.75.367 1.26 1.26 0 0 0 .367 1.75Zm13.27-5.614a1.083 1.083 0 0 0 1.493-.308 1.083 1.083 0 0 0-.307-1.493 1.083 1.083 0 0 0-1.494.307 1.066 1.066 0 0 0 .308 1.494Zm2.201-3.797a.694.694 0 0 0 .965-.206.693.693 0 0 0-.205-.964.698.698 0 0 0-.964.196.719.719 0 0 0 .204.973Zm-2.039 10.52a2.15 2.15 0 0 0-2.27 2.032 2.15 2.15 0 0 0 2.03 2.27h.12c1.186 0 2.15-.965 2.15-2.16a2.138 2.138 0 0 0-2.03-2.141Zm-9.669-1.262a2.154 2.154 0 0 0 4.079-.973 2.15 2.15 0 0 0-3.123-1.929 2.163 2.163 0 0 0-.955 2.902Zm16.888-2.756a.89.89 0 0 0 .384-1.195.89.89 0 0 0-1.587.802c.23.435.76.614 1.203.393Zm-5.461.682a1.265 1.265 0 1 0 1.698.563 1.273 1.273 0 0 0-1.698-.563Zm-7.04-7.509a.9.9 0 0 0 .938-.836c.034-.487-.35-.905-.836-.939a.892.892 0 0 0-.939.828.902.902 0 0 0 .837.947Zm-.009 5.572c.7.043 1.297-.495 1.331-1.194a1.257 1.257 0 0 0-1.194-1.332 1.257 1.257 0 0 0-1.331 1.195 1.26 1.26 0 0 0 1.194 1.331Zm-6.861 12.937a1.265 1.265 0 1 0-1.135-2.262 1.265 1.265 0 0 0 1.135 2.262Zm7.68-11.085a2.149 2.149 0 0 0 .623 2.978c.999.649 2.33.375 2.978-.623a2.148 2.148 0 0 0-1.8-3.328c-.726 0-1.4.367-1.8.973Zm3.746 9.011a2.15 2.15 0 0 0-2.892-.956 2.15 2.15 0 0 0-.956 2.893 2.15 2.15 0 0 0 2.893.956 2.144 2.144 0 0 0 .964-2.876c0-.008 0-.008-.009-.017Zm3.764-.153a1.256 1.256 0 0 0-1.75.367 1.256 1.256 0 0 0 .367 1.749 1.256 1.256 0 0 0 1.75-.367 1.26 1.26 0 0 0-.367-1.75Zm4.13-3.235a1.072 1.072 0 0 0-1.016-1.134 1.072 1.072 0 0 0-1.135 1.015c-.034.597.419 1.1 1.016 1.135.589.034 1.1-.427 1.135-1.016Zm2.978-.768a.697.697 0 1 0 .657.734.702.702 0 0 0-.657-.734Zm-2.808 6.912a.893.893 0 0 0-1.228.256.892.892 0 0 0 .256 1.23.893.893 0 0 0 1.229-.257.883.883 0 0 0-.257-1.229Zm-19.78 6.503a.698.698 0 0 0-.964.196.698.698 0 0 0 .196.964c.325.214.751.12.964-.196a.685.685 0 0 0-.196-.964Zm14.609-.069a.704.704 0 0 0-.307.94c.17.34.597.477.939.306a.694.694 0 0 0 .307-.93.69.69 0 0 0-.939-.316Zm-8.089-7.03a2.16 2.16 0 0 0-.623-2.988 2.16 2.16 0 0 0-2.987.623 2.153 2.153 0 0 0 1.8 3.337 2.124 2.124 0 0 0 1.81-.973Zm-4.31 3.301a1.083 1.083 0 0 0-1.493.308 1.083 1.083 0 0 0 .307 1.493c.495.324 1.17.188 1.494-.307a1.068 1.068 0 0 0-.308-1.494Zm5.026 4.122a.9.9 0 0 0-.938.836c-.034.487.35.905.836.939a.892.892 0 0 0 .939-.828.902.902 0 0 0-.837-.947ZM20 27.43a1.256 1.256 0 0 0-1.331 1.195c-.043.7.495 1.297 1.194 1.332.7.034 1.297-.495 1.332-1.195A1.262 1.262 0 0 0 20 27.431Zm5.18 1.366a1.078 1.078 0 0 0 .981 1.92c.53-.264.742-.913.478-1.442a1.089 1.089 0 0 0-1.46-.478Z" fill="#0033AD"/><circle cx="20" cy="20" r="19.167" stroke="#000" stroke-opacity=".02" stroke-width="1.667"/></svg>