<svg width="40" height="40" viewBox="0 0 40 40" fill="none" xmlns="http://www.w3.org/2000/svg">
<path d="M20 40C31 40 40 31 40 20C40 9 31 0 20 0C9 0 0 9 0 20C0 31 9 40 20 40Z" fill="#F3F3F3"/>
<path d="M8.92209 26.798C9.43135 26.798 9.84419 26.3835 9.84419 25.8721C9.84419 25.3608 9.43135 24.9463 8.92209 24.9463C8.41283 24.9463 8 25.3608 8 25.8721C8 26.3835 8.41283 26.798 8.92209 26.798Z" fill="#259ECC"/>
<path d="M31.0779 14.1771C31.5872 14.1771 32 13.7626 32 13.2513C32 12.74 31.5872 12.3255 31.0779 12.3255C30.5686 12.3255 30.1558 12.74 30.1558 13.2513C30.1558 13.7626 30.5686 14.1771 31.0779 14.1771Z" fill="#E30A7D"/>
<path d="M30.7069 9.238C30.5928 9.12311 30.4572 9.03195 30.3079 8.96975C30.1587 8.90755 29.9986 8.87554 29.837 8.87554C29.6754 8.87554 29.5154 8.90755 29.3661 8.96975C29.2169 9.03195 29.0812 9.12311 28.9671 9.238L25.4019 12.8176C25.1708 13.0487 24.8581 13.1784 24.532 13.1784C24.2059 13.1784 23.8931 13.0487 23.6621 12.8176C23.5478 12.7029 23.4571 12.5668 23.3953 12.4169C23.3335 12.2671 23.3016 12.1065 23.3016 11.9442C23.3016 11.782 23.3335 11.6214 23.3953 11.4715C23.4571 11.3217 23.5478 11.1855 23.6621 11.0708L24.6203 10.1087C24.8508 9.87695 24.9802 9.56283 24.9802 9.23532C24.9802 8.90781 24.8508 8.59368 24.6203 8.36191C24.5061 8.24717 24.3705 8.15616 24.2212 8.09406C24.0719 8.03196 23.912 8 23.7504 8C23.5888 8 23.4289 8.03196 23.2796 8.09406C23.1303 8.15616 22.9947 8.24717 22.8805 8.36191L10.7019 20.5897C10.5875 20.7042 10.4967 20.8403 10.4347 20.9903C10.3728 21.1401 10.3409 21.3008 10.3409 21.4631C10.3409 21.6253 10.3728 21.786 10.4347 21.9359C10.4967 22.0857 10.5875 22.2219 10.7019 22.3364C10.8161 22.4512 10.9517 22.5422 11.101 22.6043C11.2503 22.6664 11.4102 22.6984 11.5718 22.6984C11.7334 22.6984 11.8934 22.6664 12.0426 22.6043C12.1919 22.5422 12.3275 22.4512 12.4417 22.3364L13.7867 20.986C14.0175 20.7546 14.3304 20.6247 14.6566 20.6247C14.9828 20.6247 15.2957 20.7546 15.5265 20.986C15.6408 21.1007 15.7314 21.2369 15.7933 21.3867C15.8551 21.5366 15.887 21.6972 15.887 21.8595C15.887 22.0216 15.8551 22.1823 15.7933 22.3322C15.7314 22.482 15.6408 22.6182 15.5265 22.7329L9.3917 28.8924C9.27743 29.0071 9.18677 29.1432 9.12493 29.2931C9.06308 29.443 9.03124 29.6036 9.03124 29.7658C9.03124 29.928 9.06308 30.0887 9.12493 30.2385C9.18677 30.3884 9.27743 30.5245 9.3917 30.6392C9.62272 30.8703 9.93551 31 10.2616 31C10.5877 31 10.9005 30.8703 11.1315 30.6392L13.1938 28.5672C13.4248 28.3361 13.7377 28.2064 14.0637 28.2064C14.3898 28.2064 14.7026 28.3361 14.9336 28.5672C15.0477 28.6821 15.1833 28.7733 15.3326 28.8355C15.4819 28.8977 15.6419 28.9297 15.8035 28.9297C15.9652 28.9297 16.1252 28.8977 16.2744 28.8355C16.4237 28.7733 16.5593 28.6821 16.6735 28.5672L18.4962 26.7385C18.6104 26.6237 18.746 26.5327 18.8953 26.4706C19.0445 26.4085 19.2045 26.3765 19.3661 26.3765C19.5277 26.3765 19.6877 26.4085 19.8369 26.4706C19.9862 26.5327 20.1218 26.6237 20.236 26.7385C20.4669 26.9698 20.7797 27.0998 21.1059 27.0998C21.4321 27.0998 21.745 26.9698 21.9758 26.7385L30.636 18.0406C30.7503 17.926 30.8409 17.7898 30.9028 17.64C30.9646 17.4901 30.9965 17.3294 30.9965 17.1672C30.9965 17.005 30.9646 16.8444 30.9028 16.6945C30.8409 16.5446 30.7503 16.4085 30.636 16.2938C30.5219 16.1789 30.3863 16.0878 30.237 16.0256C30.0877 15.9634 29.9277 15.9314 29.7661 15.9314C29.6045 15.9314 29.4444 15.9634 29.2952 16.0256C29.1459 16.0878 29.0103 16.1789 28.8962 16.2938L28.8052 16.3838L27.5913 17.6039C27.4771 17.7186 27.3415 17.8097 27.1922 17.8718C27.043 17.9339 26.883 17.9658 26.7214 17.9658C26.5599 17.9658 26.3999 17.9339 26.2506 17.8718C26.1014 17.8097 25.9657 17.7186 25.8516 17.6039C25.7373 17.4893 25.6466 17.3531 25.5848 17.2032C25.5229 17.0534 25.4911 16.8927 25.4911 16.7305C25.4911 16.5683 25.5229 16.4077 25.5848 16.2578C25.6466 16.1079 25.7373 15.9718 25.8516 15.8571L30.7109 10.9781C30.9395 10.7464 31.0673 10.4333 31.0666 10.1072C31.0659 9.78114 30.9365 9.46862 30.7069 9.238Z" fill="url(#paint0_linear_2379_10634)"/>
<path d="M39.5 20C39.5 23.8567 38.3563 27.6269 36.2137 30.8336C34.071 34.0404 31.0255 36.5397 27.4623 38.0156C23.8992 39.4916 19.9784 39.8777 16.1957 39.1253C12.4131 38.3729 8.93855 36.5157 6.21143 33.7886C3.4843 31.0615 1.62711 27.5869 0.874696 23.8043C0.122284 20.0216 0.508449 16.1008 1.98436 12.5377C3.46027 8.97451 5.95963 5.92903 9.16639 3.78634C12.3731 1.64365 16.1433 0.5 20 0.5C25.1717 0.5 30.1316 2.55446 33.7886 6.21142C37.4455 9.86837 39.5 14.8283 39.5 20Z" stroke="black" stroke-opacity="0.02"/>
<defs>
<linearGradient id="paint0_linear_2379_10634" x1="5.46698" y1="23.0765" x2="37.0812" y2="13.3485" gradientUnits="userSpaceOnUse">
<stop offset="0.2" stop-color="#279ECC"/>
<stop offset="0.81" stop-color="#E4097D"/>
</linearGradient>
</defs>
</svg>
