<svg width="40" height="40" viewBox="0 0 40 40" fill="none" xmlns="http://www.w3.org/2000/svg">
<path d="M20 0C31.044 0 40 8.956 40 20C40 31.044 31.044 40 20 40C8.956 40 0 31.044 0 20C0 8.956 8.956 0 20 0Z" fill="black"/>
<path d="M6.42305 24.8651C6.2921 24.8651 6.18634 24.8451 6.10576 24.8051C6.03525 24.7751 6 24.7351 6 24.6852C6 24.5952 6.04533 24.5352 6.13598 24.5052C6.23671 24.4653 6.30218 24.4403 6.33239 24.4303C6.72522 24.3503 7.0274 24.2354 7.23893 24.0855C7.45045 23.9255 7.55621 23.6807 7.55621 23.3508V16.3943C7.55621 16.1544 7.53103 15.9795 7.48067 15.8696C7.4303 15.7496 7.33965 15.6647 7.20871 15.6147C7.07776 15.5547 6.88639 15.5047 6.63457 15.4648C6.30218 15.4048 6.13598 15.3048 6.13598 15.1649C6.13598 15.1049 6.17627 15.065 6.25685 15.045C6.33743 15.015 6.44319 15 6.57414 15C6.8461 15 7.06266 15.005 7.22382 15.015C7.39505 15.025 7.55621 15.035 7.7073 15.045C7.85839 15.045 8.04473 15.045 8.26633 15.045C8.51814 15.045 8.7347 15.045 8.91601 15.045C9.09731 15.035 9.28366 15.025 9.47504 15.015C9.66641 15.005 9.89808 15 10.17 15C10.301 15 10.4067 15.015 10.4873 15.045C10.5679 15.065 10.6082 15.1049 10.6082 15.1649C10.6082 15.2349 10.5679 15.2949 10.4873 15.3448C10.4067 15.3948 10.2808 15.4348 10.1096 15.4648C9.73692 15.5347 9.41964 15.6197 9.15775 15.7196C8.89586 15.8096 8.76492 15.9995 8.76492 16.2894V23.3508C8.76492 23.6607 8.83543 23.8906 8.97644 24.0405C9.11746 24.1904 9.43474 24.2654 9.9283 24.2654H11.8018C12.0738 24.2654 12.3105 24.2254 12.5119 24.1454C12.7234 24.0555 12.8796 23.9655 12.9803 23.8756C13.1817 23.7056 13.3278 23.5557 13.4184 23.4258C13.5192 23.2859 13.635 23.081 13.7659 22.8111C13.7861 22.7511 13.8264 22.6612 13.8868 22.5412C13.9573 22.4213 14.0278 22.3613 14.0983 22.3613C14.1588 22.3613 14.2041 22.3913 14.2343 22.4513C14.2645 22.5112 14.2796 22.5712 14.2796 22.6312C14.2796 22.6412 14.2746 22.6562 14.2645 22.6762C14.2645 22.6862 14.2645 22.6962 14.2645 22.7061C14.194 22.966 14.1286 23.2009 14.0681 23.4108C14.0178 23.6207 13.9724 23.8206 13.9321 24.0105C13.9019 24.2004 13.8767 24.4003 13.8566 24.6102C13.8465 24.6802 13.8264 24.7401 13.7962 24.7901C13.776 24.8401 13.7257 24.8651 13.6451 24.8651C13.1414 24.8651 12.658 24.8601 12.1946 24.8501C11.7313 24.8401 11.2831 24.8301 10.8499 24.8201C10.4269 24.8201 10.019 24.8151 9.62612 24.8051C9.23329 24.7951 8.8455 24.7901 8.46274 24.7901C8.21093 24.7901 7.92386 24.7951 7.60154 24.8051C7.28929 24.8151 7.01229 24.8251 6.77055 24.8351C6.53888 24.8551 6.42305 24.8651 6.42305 24.8651Z" fill="white"/>
<path d="M17.9509 25C17.3868 25 16.8781 24.8701 16.4249 24.6102C15.9716 24.3503 15.609 23.9955 15.337 23.5457C15.0751 23.086 14.9442 22.5662 14.9442 21.9865C14.9442 21.5667 15.0248 21.1569 15.1859 20.7571C15.3572 20.3573 15.5939 19.9925 15.8961 19.6627C16.1982 19.3328 16.5508 19.073 16.9537 18.8831C17.3566 18.6832 17.7897 18.5832 18.253 18.5832C18.8372 18.5832 19.361 18.7231 19.8244 19.003C20.2978 19.2829 20.6705 19.6527 20.9424 20.1124C21.2244 20.5622 21.3655 21.057 21.3655 21.5967C21.3655 22.1764 21.2345 22.7261 20.9726 23.2459C20.7208 23.7656 20.3431 24.1904 19.8395 24.5202C19.3358 24.8401 18.7063 25 17.9509 25ZM18.2681 24.5502C18.6106 24.5502 18.9178 24.4853 19.1898 24.3553C19.4617 24.2254 19.6733 24.0155 19.8244 23.7256C19.9452 23.4958 20.0258 23.2159 20.0661 22.8861C20.1064 22.5562 20.1265 22.2464 20.1265 21.9565C20.1265 21.4768 20.0359 21.017 19.8546 20.5772C19.6833 20.1274 19.4366 19.7626 19.1142 19.4828C18.802 19.1929 18.4293 19.048 17.9962 19.048C17.7242 19.048 17.4775 19.093 17.2559 19.1829C17.0443 19.2629 16.8479 19.4178 16.6666 19.6477C16.4652 19.8976 16.3342 20.2024 16.2738 20.5622C16.2133 20.922 16.1831 21.2819 16.1831 21.6417C16.1831 22.1314 16.2738 22.6012 16.4551 23.051C16.6364 23.4908 16.8832 23.8506 17.1954 24.1304C17.5077 24.4103 17.8652 24.5502 18.2681 24.5502Z" fill="white"/>
<path d="M25.4315 25C24.8674 25 24.3588 24.8701 23.9055 24.6102C23.4523 24.3503 23.0896 23.9955 22.8177 23.5457C22.5558 23.086 22.4249 22.5662 22.4249 21.9865C22.4249 21.5667 22.5054 21.1569 22.6666 20.7571C22.8378 20.3573 23.0745 19.9925 23.3767 19.6627C23.6789 19.3328 24.0314 19.073 24.4343 18.8831C24.8372 18.6832 25.2704 18.5832 25.7337 18.5832C26.3179 18.5832 26.8417 18.7231 27.305 19.003C27.7784 19.2829 28.1511 19.6527 28.4231 20.1124C28.7051 20.5622 28.8461 21.057 28.8461 21.5967C28.8461 22.1764 28.7152 22.7261 28.4533 23.2459C28.2015 23.7656 27.8237 24.1904 27.3201 24.5202C26.8165 24.8401 26.187 25 25.4315 25ZM25.7488 24.5502C26.0913 24.5502 26.3985 24.4853 26.6704 24.3553C26.9424 24.2254 27.1539 24.0155 27.305 23.7256C27.4259 23.4958 27.5065 23.2159 27.5468 22.8861C27.587 22.5562 27.6072 22.2464 27.6072 21.9565C27.6072 21.4768 27.5165 21.017 27.3352 20.5772C27.164 20.1274 26.9172 19.7626 26.5949 19.4828C26.2826 19.1929 25.91 19.048 25.4768 19.048C25.2049 19.048 24.9581 19.093 24.7365 19.1829C24.525 19.2629 24.3286 19.4178 24.1473 19.6477C23.9458 19.8976 23.8149 20.2024 23.7544 20.5622C23.694 20.922 23.6638 21.2819 23.6638 21.6417C23.6638 22.1314 23.7544 22.6012 23.9357 23.051C24.117 23.4908 24.3638 23.8506 24.6761 24.1304C24.9883 24.4103 25.3459 24.5502 25.7488 24.5502Z" fill="white"/>
<path d="M32.2323 25C31.7387 25 31.3509 24.8501 31.0689 24.5502C30.7969 24.2504 30.6609 23.8056 30.6609 23.2159V19.7376C30.6609 19.6577 30.6307 19.6027 30.5703 19.5727C30.5099 19.5327 30.3789 19.5127 30.1775 19.5127H30.0868C30.0364 19.5127 29.9911 19.4828 29.9508 19.4228C29.9206 19.3528 29.9055 19.2829 29.9055 19.2129C29.9055 19.1929 29.9206 19.1629 29.9508 19.1229C29.981 19.083 30.0012 19.058 30.0113 19.048C30.2127 18.908 30.394 18.7681 30.5552 18.6282C30.7264 18.4883 30.8775 18.3533 31.0084 18.2234C31.1495 18.0835 31.2653 17.9585 31.356 17.8486C31.4063 17.7986 31.4466 17.7586 31.4768 17.7286C31.5171 17.6887 31.5624 17.6687 31.6128 17.6687C31.6632 17.6687 31.7085 17.6787 31.7488 17.6987C31.7991 17.7186 31.8193 17.7636 31.8092 17.8336L31.7337 18.5082C31.7236 18.6182 31.7488 18.6932 31.8092 18.7331C31.8697 18.7731 31.9653 18.7931 32.0963 18.7931H33.8187C33.859 18.7931 33.8942 18.8281 33.9245 18.8981C33.9547 18.958 33.9698 19.033 33.9698 19.1229C33.9698 19.2129 33.9547 19.3028 33.9245 19.3928C33.8942 19.4728 33.859 19.5127 33.8187 19.5127H32.3229C32.0711 19.5127 31.9049 19.5327 31.8243 19.5727C31.7538 19.6127 31.7186 19.7326 31.7186 19.9325V22.8861C31.7186 23.2859 31.8042 23.6007 31.9754 23.8306C32.1466 24.0605 32.3934 24.1754 32.7157 24.1754C33.0079 24.1754 33.2345 24.1554 33.3956 24.1154C33.5568 24.0655 33.7029 23.9955 33.8338 23.9055C33.8539 23.8856 33.8741 23.8756 33.8942 23.8756C33.9345 23.8756 33.9597 23.9005 33.9698 23.9505C33.9899 23.9905 34 24.0355 34 24.0855C34 24.1354 33.9144 24.2354 33.7431 24.3853C33.582 24.5352 33.3654 24.6752 33.0935 24.8051C32.8316 24.935 32.5445 25 32.2323 25Z" fill="white"/>
<path d="M39.5 20C39.5 23.8567 38.3563 27.6269 36.2137 30.8336C34.071 34.0404 31.0255 36.5397 27.4623 38.0156C23.8992 39.4916 19.9784 39.8777 16.1957 39.1253C12.4131 38.3729 8.93855 36.5157 6.21143 33.7886C3.4843 31.0615 1.62711 27.5869 0.874696 23.8043C0.122284 20.0216 0.508449 16.1008 1.98436 12.5377C3.46027 8.97451 5.95963 5.92903 9.16639 3.78634C12.3731 1.64365 16.1433 0.5 20 0.5C25.1717 0.5 30.1316 2.55446 33.7886 6.21142C37.4455 9.86837 39.5 14.8283 39.5 20Z" stroke="black" stroke-opacity="0.02"/>
</svg>
