<svg width="40" height="40" viewBox="0 0 40 40" fill="none" xmlns="http://www.w3.org/2000/svg">
<path d="M20 40C31 40 40 31 40 20C40 9 31 0 20 0C9 0 0 9 0 20C0 31 9 40 20 40Z" fill="#F3F3F3"/>
<path fill-rule="evenodd" clip-rule="evenodd" d="M20 4.29787C11.328 4.29787 4.29787 11.328 4.29787 20C4.29787 28.672 11.328 35.7021 20 35.7021C28.672 35.7021 35.7021 28.672 35.7021 20C35.7021 11.328 28.672 4.29787 20 4.29787ZM2 20C2 10.0589 10.0589 2 20 2C29.9411 2 38 10.0589 38 20C38 29.9411 29.9411 38 20 38C10.0589 38 2 29.9411 2 20Z" fill="black"/>
<path d="M23.317 16.3992C22.929 16.8125 22.7236 17.0127 22.5405 17.2307C19.7005 20.6234 16.8621 24.0173 14.0252 27.4124C13.9295 27.5304 13.8375 27.6485 13.7347 27.7537C13.2121 28.301 12.6299 28.4623 11.9891 27.968C11.4021 27.5169 11.3395 26.8041 11.871 26.1516C13.2339 24.4857 14.624 22.8447 16.0047 21.1913C18.4206 18.3009 20.8384 15.4128 23.258 12.5271C23.5012 12.2378 23.7994 11.9367 24.1372 11.7979C25.0094 11.4477 25.8733 12.0341 25.8781 12.9943C25.8989 17.6594 25.9001 22.3244 25.8816 26.9896C25.8816 27.8163 25.3738 28.2987 24.6149 28.3052C23.7989 28.3129 23.3288 27.8523 23.3235 26.9317C23.3058 23.822 23.3153 20.7117 23.3147 17.6015L23.317 16.3992Z" fill="black"/>
<path d="M39.5 20C39.5 23.8567 38.3563 27.6269 36.2137 30.8336C34.071 34.0404 31.0255 36.5397 27.4623 38.0156C23.8992 39.4916 19.9784 39.8777 16.1957 39.1253C12.4131 38.3729 8.93855 36.5157 6.21143 33.7886C3.4843 31.0615 1.62711 27.5869 0.874696 23.8043C0.122284 20.0216 0.508449 16.1008 1.98436 12.5377C3.46027 8.97451 5.95963 5.92903 9.16639 3.78634C12.3731 1.64365 16.1433 0.5 20 0.5C25.1717 0.5 30.1316 2.55446 33.7886 6.21142C37.4455 9.86837 39.5 14.8283 39.5 20Z" stroke="black" stroke-opacity="0.02"/>
</svg>
