<svg width="40" height="40" viewBox="0 0 40 40" fill="none" xmlns="http://www.w3.org/2000/svg"><path fill-rule="evenodd" clip-rule="evenodd" d="M20 0c11.047 0 20 8.954 20 20 0 11.047-8.953 20-20 20C8.954 40 0 31.047 0 20 0 8.954 8.954 0 20 0Z" fill="#F0F3FA"/><path d="M24.71 23 29 30h-8.665L16 23h8.71Z" fill="url(#AKT__a)"/><path d="M28.753 30 33 22.668 24.5 8H16l12.753 22Zm-17.42-15H20l-8.663 15L7 22.502 11.333 15Z" fill="#FF414C"/><path d="M39.5 20A19.5 19.5 0 1 1 .499 20 19.5 19.5 0 0 1 39.5 20Z" stroke="#000" stroke-opacity=".02"/><defs><linearGradient id="AKT__a" x1="23.844" y1="27.84" x2="26.755" y2="24.089" gradientUnits="userSpaceOnUse"><stop stop-color="#FF414C"/><stop offset="1" stop-color="#FF414C" stop-opacity="0"/></linearGradient></defs></svg>