<svg width="40" height="40" viewBox="0 0 40 40" fill="none" xmlns="http://www.w3.org/2000/svg">
<g clip-path="url(#clip0_1811_570)">
<path d="M20 40C23.9556 40 27.8224 38.827 31.1114 36.6294C34.4004 34.4318 36.9638 31.3082 38.4776 27.6537C39.9913 23.9992 40.3874 19.9778 39.6157 16.0982C38.844 12.2186 36.9392 8.65492 34.1421 5.85787C31.3451 3.06082 27.7814 1.15601 23.9018 0.384303C20.0222 -0.387401 16.0009 0.00866568 12.3463 1.52242C8.69181 3.03617 5.56824 5.59962 3.37061 8.8886C1.17298 12.1776 0 16.0444 0 20C0 25.3043 2.10714 30.3914 5.85786 34.1421C9.60859 37.8929 14.6957 40 20 40Z" fill="#0F1116"/>
<path fill-rule="evenodd" clip-rule="evenodd" d="M2 20C2 10.0589 10.0589 2 20 2C29.9411 2 38 10.0589 38 20C38 29.9396 29.9436 37.9975 20.0046 38H19.9954C10.0564 37.9975 2 29.9396 2 20ZM2.798 20C2.798 10.633 10.2849 3.01456 19.601 2.80253V5.90837L7.76071 15.2849C7.66702 15.3579 7.60676 15.4718 7.60676 15.5998V24.4594C7.60676 24.5813 7.66249 24.6965 7.75805 24.7722L9.59376 26.2259L7.71926 29.4765C7.64806 29.6 7.64812 29.752 7.71941 29.8754C7.7907 29.9988 7.92239 30.0748 8.0649 30.0748H14.454L19.601 34.1508V37.1975C10.2849 36.9854 2.798 29.3671 2.798 20ZM20.399 34.151V37.1975C29.7151 36.9854 37.202 29.3671 37.202 20C37.202 10.633 29.7151 3.01457 20.399 2.80253V5.90839L32.2419 15.287C32.2685 15.308 32.2919 15.332 32.312 15.3584C32.3642 15.4272 32.3933 15.5118 32.3932 15.6L32.3932 15.6039V24.4594C32.3932 24.5811 32.3377 24.6961 32.2425 24.7718L30.4071 26.2307L32.2806 29.4764C32.3519 29.5998 32.3519 29.7519 32.2806 29.8753C32.2093 29.9988 32.0776 30.0748 31.9351 30.0748H25.5562L20.399 34.151ZM24.2692 30.0748L20.399 33.1338V30.0748H24.2692ZM25.4144 29.2768H25.4201H31.244L20.0002 9.79783L14.1474 19.9486L20.2447 24.7711C20.3385 24.8441 20.3989 24.9579 20.399 25.0859V29.2768H25.4144ZM19.601 33.1329L14.8624 29.3803C14.8491 29.3682 14.835 29.3571 14.8202 29.3469L8.40475 24.2664V16.424L19.601 25.2795V29.6699L19.601 29.6758L19.601 29.6818V33.1329ZM13.4463 29.2768L10.2261 26.7267L8.75558 29.2768H13.4463ZM13.5147 19.4482L19.6543 8.80008C19.7255 8.67655 19.8573 8.60042 19.9999 8.60038C20.1425 8.60035 20.2742 8.67641 20.3455 8.79991L26.4886 19.4422L31.3511 15.5994L20 6.61032L8.6487 15.5996L13.5147 19.4482ZM26.8918 20.1407L30.0037 25.5319L31.5952 24.2669V16.4236L26.8918 20.1407Z" fill="#F5C09A"/>
<path d="M39.5 20C39.5 23.8567 38.3563 27.6269 36.2137 30.8336C34.071 34.0404 31.0255 36.5397 27.4623 38.0156C23.8992 39.4916 19.9784 39.8777 16.1957 39.1253C12.4131 38.3729 8.93855 36.5157 6.21143 33.7886C3.4843 31.0615 1.62711 27.5869 0.874696 23.8043C0.122284 20.0216 0.508449 16.1008 1.98436 12.5377C3.46027 8.97451 5.95963 5.92903 9.16639 3.78634C12.3731 1.64365 16.1433 0.5 20 0.5C25.1717 0.5 30.1316 2.55446 33.7886 6.21142C37.4455 9.86837 39.5 14.8283 39.5 20Z" stroke="black" stroke-opacity="0.02"/>
</g>
<defs>
<clipPath id="clip0_1811_570">
<rect width="40" height="40" fill="white"/>
</clipPath>
</defs>
</svg>
