<svg width="40" height="40" viewBox="0 0 40 40" fill="none" xmlns="http://www.w3.org/2000/svg">
<g clip-path="url(#clip0_1305_610)">
<path d="M20 40C31.0457 40 40 31.0457 40 20C40 8.9543 31.0457 0 20 0C8.9543 0 0 8.9543 0 20C0 31.0457 8.9543 40 20 40Z" fill="black"/>
<path fill-rule="evenodd" clip-rule="evenodd" d="M27.75 17.1666L30.1333 12.975H26.6417L25.1583 7.41663H21.775L9 29.7833H12.8667L22.95 12.1416L24.15 16.6833L16.675 29.7833H20.5417L25.375 21.325L27.625 29.7833H31.0917L27.75 17.1666Z" fill="white"/>
<path d="M20 39.5833C30.8156 39.5833 39.5833 30.8155 39.5833 20C39.5833 9.18438 30.8156 0.416626 20 0.416626C9.18443 0.416626 0.416672 9.18438 0.416672 20C0.416672 30.8155 9.18443 39.5833 20 39.5833Z" stroke="black" stroke-opacity="0.02"/>
</g>
<defs>
<clipPath id="clip0_1305_610">
<rect width="40" height="40" fill="white"/>
</clipPath>
</defs>
</svg>
