<svg width="40" height="40" viewBox="0 0 40 40" fill="none" xmlns="http://www.w3.org/2000/svg">
<path d="M20 40C31 40 40 31 40 20C40 9 31 0 20 0C9 0 0 9 0 20C0 31 9 40 20 40Z" fill="#F3F3F3"/>
<path d="M17.8411 6C13.1348 6 13.4434 11.6775 14.1918 14.524C8.71397 11.2995 5.85162 13.174 6.00593 18.3656C6.12937 22.5234 9.80953 23.9428 11.638 24.1357C10.1721 24.7528 9.86353 32.4514 14.8707 32.9682C18.8749 33.3848 21.2666 29.6049 21.9687 27.6687C24.345 29.628 29.6839 32.6365 32.0293 29.0186C34.3593 25.4008 31.9522 21.4126 30.4631 19.8698C31.821 19.3221 34.0276 17.1313 32.0293 12.8038C30.0234 8.48391 25.1782 10.6207 23.0025 12.2329C23.2494 10.1501 22.5551 6 17.8411 6Z" fill="#EA8397"/>
<path d="M18.5972 16.6453C18.8441 14.2385 17.9259 10.127 17.4399 8.37588C18.7515 9.93412 19.199 14.3311 19.2607 16.3368C18.9366 17.4476 18.3426 19.0598 18.5972 16.6453ZM29.4756 13.6908C26.0655 13.3206 23.2649 16.0436 22.2927 17.4476L22.4702 17.8641C24.2173 15.6644 26.7091 14.18 29.4756 13.6908ZM11.3989 17.4476C10.788 17.3165 10.1531 17.3526 9.56104 17.5522C8.96901 17.7518 8.44181 18.1074 8.03504 18.5815C9.40063 18.165 9.16146 18.2575 10.7122 18.0801C11.9467 17.9336 14.5698 19.0984 15.6345 19.6538L15.9046 19.2989C14.5085 18.445 12.9848 17.82 11.3912 17.4476H11.3989ZM13.5591 28.8952C15.3028 28.2086 17.247 24.7142 17.9954 23.0557L18.4429 23.2871C16.1129 27.9695 14.2226 28.98 13.5668 28.8952H13.5591ZM22.4702 22.022V21.3354C25.1962 22.514 27.7132 24.1266 29.9231 26.1104V26.5578C27.5931 24.421 23.9824 22.6391 22.4702 22.022Z" fill="#D26B7F"/>
<path d="M19.4997 24.5136C21.8433 24.5136 23.7431 22.6141 23.7431 20.2709C23.7431 17.9277 21.8433 16.0282 19.4997 16.0282C17.1562 16.0282 15.2564 17.9277 15.2564 20.2709C15.2564 22.6141 17.1562 24.5136 19.4997 24.5136Z" fill="#977849"/>
<path d="M19.4997 23.7422C21.8433 23.7422 23.7431 21.8427 23.7431 19.4995C23.7431 17.1563 21.8433 15.2568 19.4997 15.2568C17.1562 15.2568 15.2564 17.1563 15.2564 19.4995C15.2564 21.8427 17.1562 23.7422 19.4997 23.7422Z" fill="#FEECAC"/>
<path d="M39.5 20C39.5 23.8567 38.3563 27.6269 36.2137 30.8336C34.071 34.0404 31.0255 36.5397 27.4623 38.0156C23.8992 39.4916 19.9784 39.8777 16.1957 39.1253C12.4131 38.3729 8.93855 36.5157 6.21143 33.7886C3.4843 31.0615 1.62711 27.5869 0.874696 23.8043C0.122284 20.0216 0.508449 16.1008 1.98436 12.5377C3.46027 8.97451 5.95963 5.92903 9.16639 3.78634C12.3731 1.64365 16.1433 0.5 20 0.5C25.1717 0.5 30.1316 2.55446 33.7886 6.21142C37.4455 9.86837 39.5 14.8283 39.5 20Z" stroke="black" stroke-opacity="0.02"/>
</svg>
