<svg width="40" height="40" viewBox="0 0 40 40" fill="none" xmlns="http://www.w3.org/2000/svg">
<g clip-path="url(#clip0_2494_170)">
<path fill-rule="evenodd" clip-rule="evenodd" d="M20 0C31.0465 0 40 8.95353 40 20C40 31.0465 31.0465 40 20 40C8.95353 40 0 31.0465 0 20C0 8.95353 8.95353 0 20 0Z" fill="#F0F3FA"/>
<path d="M17.7143 9.76435C17.6275 9.60245 17.4937 9.47069 17.3304 9.38652C17.1672 9.30234 16.9822 9.2697 16.8 9.29292L12.5643 10.0072C12.2071 10.0644 12.05 10.3644 12.2 10.6858L21.5714 30.2358C21.7214 30.5501 22.1357 30.7644 22.4929 30.7072L26.7214 29.9929C27.0786 29.9358 27.2357 29.6358 27.0857 29.3144L17.7143 9.76435ZM17.1429 23.8858C17.1429 23.5786 16.8857 23.3644 16.5643 23.4144L12.7286 24.0286C12.5705 24.0546 12.4261 24.134 12.3195 24.2536C12.2129 24.3732 12.1505 24.5258 12.1429 24.6858V31.5786C12.1429 31.8858 12.4071 32.1001 12.7286 32.0501L16.5643 31.4358C16.7211 31.4083 16.8638 31.3283 16.969 31.2088C17.0742 31.0894 17.1355 30.9376 17.1429 30.7786V23.8858Z" fill="#080515"/>
<path d="M27.8571 8.42868C27.8571 8.1144 27.6 7.90011 27.2786 7.95011L23.4357 8.5644C23.2789 8.59184 23.1362 8.67189 23.031 8.79135C22.9258 8.91081 22.8645 9.06255 22.8571 9.22154V16.1144C22.8571 16.4215 23.1143 16.6358 23.4357 16.5858L27.2786 15.9715C27.4354 15.9441 27.5781 15.8641 27.6833 15.7446C27.7885 15.6251 27.8498 15.4734 27.8571 15.3144V8.42154V8.42868Z" fill="#E95B4D"/>
<path d="M39.5 20C39.5 23.8567 38.3563 27.6269 36.2137 30.8336C34.071 34.0404 31.0255 36.5397 27.4623 38.0156C23.8992 39.4916 19.9784 39.8777 16.1957 39.1253C12.4131 38.3729 8.93855 36.5157 6.21143 33.7886C3.4843 31.0615 1.62711 27.5869 0.874696 23.8043C0.122284 20.0216 0.508449 16.1008 1.98436 12.5377C3.46027 8.97451 5.95963 5.92903 9.16639 3.78634C12.3731 1.64365 16.1433 0.5 20 0.5C25.1717 0.5 30.1316 2.55446 33.7886 6.21142C37.4455 9.86837 39.5 14.8283 39.5 20Z" stroke="black" stroke-opacity="0.02"/>
</g>
<defs>
<clipPath id="clip0_2494_170">
<rect width="40" height="40" fill="white"/>
</clipPath>
</defs>
</svg>
