<svg width="40" height="40" viewBox="0 0 40 40" fill="none" xmlns="http://www.w3.org/2000/svg">
<path d="M20 40C31 40 40 31 40 20C40 9 31 0 20 0C9 0 0 9 0 20C0 31 9 40 20 40Z" fill="#000749"/>
<path d="M20 7.88757V15.8226L21.4385 19.3957L20 18.1892V21.9943C20 21.9943 20 21.9943 20.0464 22.0407C22.3666 24.9177 25.2436 27.3307 28.4919 29.0941L20 7.88757Z" fill="url(#paint0_linear_2058_641)"/>
<path d="M19.9997 7.88757V15.8226L18.5612 19.3957L19.9997 18.1892V21.9943C19.9997 21.9943 19.9997 21.9943 19.9533 22.0407C17.6331 24.9177 14.7561 27.3307 11.5078 29.0941L19.9997 7.88757Z" fill="url(#paint1_linear_2058_641)"/>
<path d="M20.0007 26.9123C21.0771 26.9123 21.9497 26.0398 21.9497 24.9634C21.9497 23.887 21.0771 23.0144 20.0007 23.0144C18.9244 23.0144 18.0518 23.887 18.0518 24.9634C18.0518 26.0398 18.9244 26.9123 20.0007 26.9123Z" fill="#F5CC02"/>
<path d="M39.5 20C39.5 23.8567 38.3563 27.6269 36.2137 30.8336C34.071 34.0404 31.0255 36.5397 27.4623 38.0156C23.8992 39.4916 19.9784 39.8777 16.1957 39.1253C12.4131 38.3729 8.93855 36.5157 6.21143 33.7886C3.4843 31.0615 1.62711 27.5869 0.874696 23.8043C0.122284 20.0216 0.508449 16.1008 1.98436 12.5377C3.46027 8.97451 5.95963 5.92903 9.16639 3.78634C12.3731 1.64365 16.1433 0.5 20 0.5C25.1717 0.5 30.1316 2.55446 33.7886 6.21142C37.4455 9.86838 39.5 14.8283 39.5 20Z" stroke="black" stroke-opacity="0.02"/>
<defs>
<linearGradient id="paint0_linear_2058_641" x1="24.23" y1="7.82789" x2="24.23" y2="29.342" gradientUnits="userSpaceOnUse">
<stop stop-color="white"/>
<stop offset="1" stop-color="white" stop-opacity="0.6"/>
</linearGradient>
<linearGradient id="paint1_linear_2058_641" x1="15.7417" y1="29.1921" x2="15.7417" y2="8.07853" gradientUnits="userSpaceOnUse">
<stop stop-color="white"/>
<stop offset="1" stop-color="white" stop-opacity="0.6"/>
</linearGradient>
</defs>
</svg>
