<svg width="40" height="40" viewBox="0 0 40 40" fill="none" xmlns="http://www.w3.org/2000/svg">
<path d="M20 0C31.044 0 40 8.956 40 20C40 31.044 31.044 40 20 40C8.956 40 0 31.044 0 20C0 8.956 8.956 0 20 0Z" fill="#D9327C"/>
<path fill-rule="evenodd" clip-rule="evenodd" d="M19.2102 10.5399C19.0491 10.6688 18.8557 10.8944 18.7267 11.3134C18.5978 11.7325 17.8887 13.7953 16.9862 16.3739H23.0136C22.1111 13.7953 21.402 11.7325 21.2731 11.3134C21.1441 10.8944 20.9507 10.6688 20.7896 10.5399C20.6284 10.411 20.4028 10.3143 19.9838 10.3143C19.5648 10.3143 19.3714 10.411 19.2102 10.5399ZM10.3142 16.3739H14.4076C15.4068 13.4408 16.2771 10.9911 16.406 10.5399C16.6639 9.76631 17.0829 9.08944 17.7275 8.60596C18.3722 8.12248 19.1458 7.89685 19.9516 7.89685C20.7574 7.89685 21.5309 8.09024 22.1756 8.60596C22.8202 9.08944 23.2392 9.76631 23.4971 10.5399C23.6582 10.9911 24.4963 13.4085 25.4955 16.3739H29.6534C30.3303 16.3739 30.8782 16.9218 30.8782 17.5987C30.8782 18.2756 30.3303 18.8235 29.6534 18.8235H26.398H23.8516H16.1482H13.6018H10.3142C9.6373 18.8235 9.12158 18.2756 9.12158 17.5987C9.12158 16.9218 9.66953 16.3739 10.3142 16.3739ZM10.3142 21.2087C9.6373 21.2087 9.12158 21.7566 9.12158 22.4335C9.12158 23.1104 9.66953 23.6583 10.3142 23.6583H11.9258L11.2811 25.5278L10.6365 27.3973L10.3786 28.1064C10.153 28.751 10.5076 29.4279 11.12 29.6535C11.7646 29.8791 12.4415 29.5246 12.6671 28.9122L12.925 28.2031L13.5696 26.3336C13.8275 25.56 14.1498 24.6575 14.5043 23.6583H25.5277C25.85 24.6253 26.1723 25.56 26.4624 26.3336L27.1071 28.2031L27.3649 28.9122C27.5906 29.5568 28.2674 29.8791 28.9121 29.6535C29.5567 29.4279 29.879 28.751 29.6534 28.1064L29.3955 27.3973L28.7509 25.5278L28.1063 23.6583H29.7179C30.3947 23.6583 30.9427 23.1104 30.9427 22.4335C30.9427 21.7566 30.3947 21.2087 29.7179 21.2087H27.2682H24.7219H15.3746H12.8283H10.3142ZM28.4608 28.4609L29.5889 28.0741C29.5889 28.0741 29.5889 28.0741 28.4608 28.4609ZM28.4608 28.4609C27.3327 28.8477 27.3327 28.8477 27.3327 28.8477L28.4608 28.4609ZM11.539 28.4609L12.6671 28.8477C12.6671 28.8477 12.6671 28.8477 11.539 28.4609ZM11.539 28.4609C10.4109 28.0741 10.4109 28.0741 10.4109 28.0741L11.539 28.4609Z" fill="white"/>
<path d="M39.5 20C39.5 23.8567 38.3563 27.6269 36.2137 30.8336C34.071 34.0404 31.0255 36.5397 27.4623 38.0156C23.8992 39.4916 19.9784 39.8777 16.1957 39.1253C12.4131 38.3729 8.93855 36.5157 6.21143 33.7886C3.4843 31.0615 1.62711 27.5869 0.874696 23.8043C0.122284 20.0216 0.508449 16.1008 1.98436 12.5377C3.46027 8.97451 5.95963 5.92903 9.16639 3.78634C12.3731 1.64365 16.1433 0.5 20 0.5C25.1717 0.5 30.1316 2.55446 33.7886 6.21142C37.4455 9.86838 39.5 14.8283 39.5 20Z" stroke="black" stroke-opacity="0.02"/>
</svg>
