<svg width="40" height="40" viewBox="0 0 40 40" fill="none" xmlns="http://www.w3.org/2000/svg">
<path d="M20 40C31 40 40 31 40 20C40 9 31 0 20 0C9 0 0 9 0 20C0 31 9 40 20 40Z" fill="#F3F3F3"/>
<path fill-rule="evenodd" clip-rule="evenodd" d="M21.6596 7.375L30.0213 11.5625C31.234 12.1875 32 13.375 32 14.75V16.6875H28.9362V14.75C28.9362 14.5625 28.8085 14.375 28.617 14.25L20.2553 10.0625C20.1277 10 19.9362 10 19.7447 10.0625L11.383 14.25C11.1915 14.3125 11.0638 14.5 11.0638 14.75V16.6875H8V14.75C8 13.4375 8.76596 12.1875 9.97872 11.5625L18.3404 7.375C19.3617 6.875 20.5745 6.875 21.6596 7.375ZM22.617 19.375C22.617 17.9375 21.4043 16.8125 20 16.8125C18.5319 16.8125 17.383 17.9375 17.383 19.375C17.383 20.8125 18.5957 21.9375 20 21.9375C21.4043 21.9375 22.617 20.8125 22.617 19.375ZM28.5532 24.75C28.7447 24.6875 28.8723 24.5 28.8723 24.25V22.3125H31.9362V24.25C31.9362 25.5625 31.1702 26.8125 29.9574 27.4375L21.5957 31.625C21.0851 31.875 20.5106 32 19.9362 32C19.3617 32 18.7872 31.875 18.2766 31.625L9.97872 27.4375C8.76596 26.8125 8 25.625 8 24.25V22.3125H11.0638V24.25C11.0638 24.4375 11.1915 24.625 11.383 24.75L18.4681 28.25V24.75C16.0426 24.0625 14.3191 21.9375 14.3191 19.375C14.3191 16.3125 16.8723 13.75 20.0638 13.75C23.1915 13.75 25.8085 16.25 25.8085 19.375C25.8085 21.9375 24.0213 24.125 21.6596 24.75V28.25L28.5532 24.75Z" fill="#245AE5" fill-opacity="0.9"/>
<path d="M39.5 20C39.5 23.8567 38.3563 27.6269 36.2137 30.8336C34.071 34.0404 31.0255 36.5397 27.4623 38.0156C23.8992 39.4916 19.9784 39.8777 16.1957 39.1253C12.4131 38.3729 8.93855 36.5157 6.21143 33.7886C3.4843 31.0615 1.62711 27.5869 0.874696 23.8043C0.122284 20.0216 0.508449 16.1008 1.98436 12.5377C3.46027 8.97451 5.95963 5.92903 9.16639 3.78634C12.3731 1.64365 16.1433 0.5 20 0.5C25.1717 0.5 30.1316 2.55446 33.7886 6.21142C37.4455 9.86837 39.5 14.8283 39.5 20Z" stroke="black" stroke-opacity="0.02"/>
</svg>
