<svg width="40" height="40" viewBox="0 0 40 40" fill="none" xmlns="http://www.w3.org/2000/svg">
<g clip-path="url(#clip0_1761_690)">
<path d="M20 40C23.9556 40 27.8224 38.827 31.1114 36.6294C34.4004 34.4318 36.9638 31.3082 38.4776 27.6537C39.9913 23.9992 40.3874 19.9778 39.6157 16.0982C38.844 12.2186 36.9392 8.65492 34.1421 5.85787C31.3451 3.06082 27.7814 1.15601 23.9018 0.384303C20.0222 -0.387401 16.0009 0.00866568 12.3463 1.52242C8.69181 3.03617 5.56824 5.59962 3.37061 8.8886C1.17298 12.1776 0 16.0444 0 20C0 25.3043 2.10714 30.3914 5.85786 34.1421C9.60859 37.8929 14.6957 40 20 40Z" fill="url(#paint0_radial_1761_690)"/>
<path d="M33.7006 13.4145C33.6168 13.9041 33.5188 14.1414 33.404 14.4162C33.2802 14.714 33.1395 15.0527 33.0122 15.7233C32.9616 15.9917 32.9363 16.1886 32.9142 16.3622L32.9129 16.3729L32.9115 16.383C32.8761 16.661 32.8524 16.8483 32.7395 17.1814C32.6478 17.4536 32.4946 17.9077 32.1254 18.3968C31.8274 18.7925 31.3284 19.455 30.6625 19.5345C30.6048 19.5383 30.4837 19.5444 30.4345 19.5192C28.5455 18.5545 26.9225 17.8418 26.3607 17.6818C25.7072 17.4967 25.7908 16.072 25.8648 14.8151C25.898 14.2533 25.9294 13.7221 25.903 13.2673C25.8112 11.6805 25.5302 9.94362 24.1483 9.0969C23.3233 8.59157 22.2591 8.44335 21.2422 8.44126C21.4307 8.3516 21.6409 8.22977 21.8698 8.09644L21.8768 8.09241C22.4756 7.74567 23.2188 7.3153 23.9573 7.23954C24.1988 7.21573 24.4362 7.18776 24.6701 7.16188C26.1589 6.99328 27.4451 6.84844 28.8018 7.31299C29.4168 7.52395 30.6783 8.22768 31.004 8.88123C31.2331 9.34237 31.6201 9.70207 32.392 10.4197C32.7939 10.7935 33.0587 11.0109 33.2524 11.17L33.2614 11.1772C33.5335 11.401 33.5871 11.4478 33.668 11.6133C33.9183 12.1231 33.8271 12.6644 33.7006 13.4145Z" fill="white"/>
<path d="M26.7901 19.9246C26.8989 19.9617 26.9397 20.0939 26.8772 20.1903C26.6807 20.4933 26.4565 20.9011 26.1896 21.3958C26.0597 21.6379 25.9366 21.8663 25.8333 22.0446C25.4673 22.6731 25.4375 23.2022 25.4142 23.6267C25.3892 24.0709 25.3667 24.2748 25.1013 24.4518C24.8822 24.5987 24.658 24.6476 23.1025 24.8844C22.8312 24.9265 22.7107 24.979 22.6048 25.0253C22.5878 25.0326 22.5709 25.0399 22.5532 25.0472C22.4455 25.0915 22.3383 24.9987 22.3442 24.8823C22.3553 24.6654 22.3623 24.3983 22.3633 24.0677V24.0003C22.3714 23.6955 22.3585 23.4482 22.3476 23.2487C22.3272 22.8516 22.3246 22.6843 22.4304 22.5115C22.5604 22.3026 22.6618 22.2389 22.8283 22.1333C23.061 21.9871 23.3799 21.7858 23.852 21.137C24.103 20.7935 24.1587 20.6071 24.1934 20.4461C24.2083 20.3794 24.2138 20.3543 24.407 20.2079C24.6112 20.0529 25.2333 19.5816 26.0299 19.7154C26.2407 19.7511 26.5067 19.8279 26.7901 19.9246Z" fill="white"/>
<path d="M20.6403 27.1084C20.6063 27.1525 20.5668 27.1729 20.5096 27.1759C20.347 27.1824 20.2327 27.1424 20.1572 27.0512C19.9967 26.856 20.0184 26.4636 20.0558 26.2344L20.7135 26.059C20.765 26.4072 20.7893 26.9144 20.6403 27.1084Z" fill="white"/>
<path d="M20.6934 24.7354C20.6824 24.8313 20.6704 24.9393 20.6709 25.0522C20.6717 25.0943 20.6722 25.1366 20.6735 25.1779C20.6748 25.2854 20.679 25.4561 20.6641 25.5337C20.4587 25.6085 20.2832 25.6085 20.0527 25.6046C20.0493 25.5379 20.0535 25.4386 20.0561 25.3714C20.0574 25.3196 20.0603 25.2681 20.0608 25.219C20.0616 25.1646 20.0608 25.1107 20.0608 25.0572C20.06 24.9306 20.0582 24.7233 20.0893 24.6622C20.1512 24.6533 20.2145 24.6397 20.2824 24.624C20.4184 24.5947 20.5959 24.5573 20.7088 24.5743C20.707 24.6183 20.7002 24.6836 20.6934 24.7354Z" fill="white"/>
<path d="M19.4765 26.9057C19.4446 27.2428 19.3406 27.6597 19.0243 27.7231C18.8821 27.7522 18.8133 27.7095 18.7699 27.6686C18.5563 27.4708 18.5223 26.873 18.5521 26.4452C18.6944 26.4478 18.8808 26.4159 19.1017 26.3731C19.2363 26.3464 19.3704 26.3166 19.477 26.292C19.4893 26.4504 19.4982 26.6763 19.4765 26.9057Z" fill="white"/>
<path d="M19.3273 25.6957L18.6139 25.9458C18.65 25.669 18.6983 25.2792 18.7153 25.0202C18.7276 24.838 18.7773 24.782 18.7914 24.77C18.7961 24.7658 18.8058 24.7572 18.8322 24.7572C18.8364 24.7572 18.8403 24.7579 18.845 24.7579L18.8599 24.76L19.3108 24.7355C19.3299 24.9475 19.3299 25.4128 19.3273 25.6957Z" fill="white"/>
<path d="M18.1744 25.4737C18.1341 25.5811 18.0865 25.8852 18.0567 26.0993L17.163 26.0721C17.2134 25.7952 17.2832 25.5137 17.3601 25.2891C17.4377 25.0661 17.5214 24.8988 17.5982 24.8518C17.6879 24.7979 17.8852 24.7859 18.0063 24.8892C18.2029 25.0567 18.2572 25.2486 18.1744 25.4737Z" fill="white"/>
<path d="M17.8408 28.2093C17.7715 28.304 17.6947 28.3522 17.5993 28.3623C17.502 28.3732 17.4265 28.3514 17.3661 28.2948C17.0853 28.0357 17.1083 27.187 17.1185 26.7789C17.4892 26.6944 17.8892 26.6225 18.079 26.6116C18.1074 26.9533 18.1156 27.8352 17.8408 28.2093Z" fill="white"/>
<path d="M16.6744 26.0482C16.6307 26.1646 16.5886 26.2746 16.5567 26.3719C16.4527 26.4046 16.1351 26.376 15.8107 26.3044L16.0336 24.898C16.4001 24.8007 16.8252 24.7694 16.9279 24.8784C17.0633 25.0222 16.7915 25.7416 16.6744 26.0482Z" fill="white"/>
<path d="M16.2696 28.4243C16.0963 28.6379 15.8364 28.7378 15.4738 28.734C15.2229 28.7296 15.1332 28.6344 15.0883 28.5631C14.887 28.2442 15.0841 27.4926 15.2815 27.0123L16.4921 27.085C16.5043 27.1696 16.5145 27.2719 16.5192 27.3838C16.5326 27.7253 16.4897 28.1508 16.2696 28.4243Z" fill="white"/>
<path d="M26.274 18.2161C25.1842 17.9074 25.278 16.3137 25.3687 14.7735C25.4009 14.2284 25.4312 13.7132 25.4064 13.2918C25.3227 11.8501 25.0804 10.28 23.9207 9.56923C22.6736 8.80651 20.6332 8.98036 19.3744 9.14055C19.3732 9.14068 19.3721 9.14142 19.371 9.14153C19.3705 9.14155 19.37 9.14161 19.3695 9.14177C18.9084 9.2815 18.4771 9.37211 18.1426 9.35434C17.4 9.3159 16.822 9.00324 16.313 8.72877C15.9159 8.51361 15.5695 8.32776 15.2433 8.32776C15.226 8.32776 15.208 8.32776 15.1902 8.32855C14.2143 8.39181 13.7658 8.63021 13.3582 8.99385C13.2557 9.08455 13.1308 9.34727 12.7217 10.5263C12.5152 11.122 12.477 11.448 12.4386 11.7648C12.4041 12.0542 12.369 12.352 12.2151 12.7961C12.1079 13.1025 12.0289 13.3668 11.9523 13.6217C11.7505 14.2988 11.5911 14.8321 11.1119 15.4662C11.0556 15.5413 10.9859 15.6516 10.9053 15.7773C10.7966 15.9485 10.6622 16.1613 10.4847 16.4076C10.3595 16.5812 10.0719 17.2308 10.0876 17.4287C10.1112 17.7437 10.2136 17.9392 10.3308 18.1675C10.4474 18.3925 10.5801 18.6474 10.6045 18.9993L10.6084 19.0563C10.6512 19.6144 10.5715 19.8944 9.50991 20.8428C8.83116 21.4501 8.34893 22.0353 8.0237 22.4647C7.995 22.5025 8.03233 22.5588 8.0797 22.5551C8.09067 22.5535 8.10166 22.5527 8.11187 22.5527C8.13225 22.5511 8.15263 22.5504 8.17277 22.5504C8.19315 22.5504 8.21355 22.5511 8.23366 22.5519C8.25407 22.5527 8.27366 22.5543 8.2938 22.5574C8.55053 22.5867 8.80079 22.6952 8.98147 22.8824C9.01287 22.9149 9.06169 22.9237 9.10368 22.9069C9.27647 22.8351 9.46651 22.8468 9.64795 22.8638C9.86381 22.8838 10.0818 22.9468 10.2305 23.0808C10.2872 23.1318 10.3649 23.1588 10.4395 23.1435C10.6085 23.1088 10.7846 23.1146 10.9482 23.1741C11.0696 23.2193 11.1737 23.288 11.259 23.3741C11.3393 23.4553 11.4754 23.4714 11.5747 23.4149C11.6143 23.3923 11.6571 23.3728 11.7035 23.3571C11.934 23.2789 12.1889 23.3234 12.4127 23.4039C12.523 23.4436 12.6385 23.4789 12.7379 23.5453C12.9019 23.6545 13.0086 23.8093 13.0802 23.9836C13.1352 24.1174 13.3182 24.1632 13.4357 24.0786C13.5768 23.9771 13.6933 23.964 13.8107 24.0161C13.8593 24.038 13.8972 24.0659 13.9263 24.0994C14.0105 24.1964 14.1456 24.2931 14.2706 24.2635C14.6187 24.1812 15.0402 24.2358 15.3494 24.4014C15.4636 24.4615 15.5759 24.553 15.658 24.6913C15.6579 24.6912 15.6581 24.6915 15.658 24.6913C15.6581 24.6919 15.659 24.692 15.6591 24.6915L15.6685 24.63C15.6727 24.6021 15.6925 24.5791 15.7194 24.5708L15.7943 24.5476C15.9711 24.4914 16.8716 24.2318 17.2219 24.6007C17.2371 24.6158 17.2635 24.6173 17.278 24.6015C17.3258 24.5493 17.3645 24.5205 17.3893 24.5063C17.6175 24.368 18.0085 24.3593 18.2689 24.5821C18.3213 24.6261 18.4062 24.6101 18.4457 24.5542C18.47 24.5198 18.4976 24.4895 18.5285 24.4634C18.62 24.3845 18.7358 24.3468 18.8639 24.3546L19.3588 24.328C19.4832 24.3211 19.8698 24.2949 19.9917 24.2691C20.001 24.2671 20.0104 24.2654 20.0201 24.2639C20.0716 24.2561 20.1328 24.2428 20.1969 24.2294C20.4368 24.1771 20.709 24.1183 20.9325 24.2216C21.1474 24.3209 21.1202 24.5656 21.0943 24.7813C21.0841 24.8688 21.0731 24.9604 21.0739 25.0472C21.0755 25.0877 21.0763 25.1284 21.077 25.17C21.0802 25.3559 21.0841 25.5278 21.0474 25.6598C21.0474 25.6595 21.0473 25.66 21.0474 25.6598C21.0474 25.66 21.0473 25.6611 21.0473 25.6613L21.07 25.7634C21.0936 25.8639 21.2009 25.9205 21.2887 25.8663C21.4558 25.763 21.6279 25.6327 21.6829 25.5555C21.6879 25.5484 21.6918 25.5406 21.6949 25.5324C21.7025 25.5117 21.7159 25.4687 21.7309 25.382C21.7614 25.1982 21.7957 24.8247 21.7988 24.066C21.7988 24.026 21.7988 23.9973 21.7996 23.984C21.8059 23.7024 21.7949 23.4765 21.7839 23.2771C21.7635 22.8659 21.7471 22.5423 21.9512 22.2129C22.1499 21.8924 22.3428 21.7711 22.5282 21.6537C22.7438 21.5186 22.9872 21.3651 23.3968 20.8031C23.5979 20.5262 23.6227 20.4146 23.6423 20.3254C23.6868 20.1166 23.7558 19.9908 24.0661 19.7563C24.3186 19.5655 25.0872 18.9831 26.1239 19.1574C26.464 19.2152 27.0151 19.3965 27.5591 19.6108C27.5588 19.6108 27.5594 19.6109 27.5591 19.6108C27.5594 19.6108 27.5602 19.611 27.5604 19.6111C27.58 19.6168 27.6002 19.6236 27.6187 19.633C27.6271 19.6374 27.6358 19.6418 27.6448 19.6454C28.115 19.8331 28.5727 20.0421 28.8755 20.2122C28.9618 20.2606 29.0715 20.2317 29.1343 20.1554C29.2279 20.0419 29.3294 19.9727 29.4383 19.9074C29.4818 19.8808 29.5155 19.8607 29.5476 19.8332C29.6497 19.7465 29.6486 19.5648 29.5297 19.5036C28.0821 18.76 26.7252 18.3444 26.274 18.2161ZM15.8885 18.5515C15.5515 20.0269 13.2659 21.6485 12.2271 21.6485H12.2067C12.1902 21.6477 12.1722 21.6461 12.1528 21.643C12.1332 21.6398 12.1121 21.6351 12.0896 21.6289C12.0786 21.6257 12.0668 21.6218 12.0551 21.6187C11.8666 21.5593 11.6054 21.4145 11.4078 21.22C11.2718 21.0864 11.1647 20.9291 11.1309 20.7594C11.1247 20.7296 11.1184 20.7001 11.1121 20.6703C11.0559 20.4193 10.9861 20.1059 11.2075 19.593C11.2381 19.5242 11.2653 19.4599 11.2904 19.4013C11.2983 19.3817 11.3069 19.3621 11.3147 19.3436C11.3383 19.2881 11.3592 19.2372 11.378 19.1912C11.4094 19.113 11.435 19.0466 11.4561 18.9901C11.4648 18.9682 11.4726 18.947 11.4797 18.9276C11.5429 18.7502 11.5508 18.6838 11.5594 18.615C11.5672 18.5611 11.5751 18.4953 11.5971 18.4014C11.6619 18.1246 11.6956 17.8901 11.7254 17.6812C11.7785 17.3058 11.8247 16.9814 12.0271 16.6837C12.0616 16.633 12.0998 16.5867 12.1429 16.5462C12.1578 16.532 12.1719 16.5187 12.1873 16.5054C12.203 16.492 12.2187 16.4803 12.2341 16.4685C12.2833 16.434 12.3358 16.4037 12.3928 16.3778C12.4124 16.3692 12.432 16.3605 12.4513 16.3535C12.4913 16.3386 12.5334 16.326 12.5774 16.3151C12.7635 16.2698 12.9831 16.2628 13.2356 16.2947C13.5117 16.3166 13.7673 16.3689 13.994 16.4322C14.1832 16.4845 14.3521 16.5456 14.4951 16.6026C14.51 16.6081 14.5241 16.6136 14.5382 16.6199C14.5657 16.6309 14.5921 16.6418 14.618 16.6536C14.6572 16.6701 14.693 16.6857 14.7267 16.7004C14.7712 16.7208 14.8119 16.7388 14.848 16.755L14.8817 16.7707C15.0412 16.8434 15.1782 16.9231 15.2953 17.0068C15.3531 17.0491 15.4072 17.092 15.4556 17.1356C15.472 17.1498 15.4877 17.1647 15.5023 17.1804C15.518 17.1952 15.5329 17.2102 15.5468 17.2251C15.986 17.6875 15.9643 18.2223 15.8885 18.5515ZM16.9477 12.9595L16.9033 13.2269C16.8008 13.8298 16.5655 14.6561 15.6976 14.8689C14.8627 15.0731 14.6648 15.1167 14.0706 15.1434C14.0572 15.145 14.0431 15.145 14.029 15.145C13.5951 15.145 12.7601 14.8713 12.6121 14.1911C12.5175 13.7532 12.7107 13.4358 13.0288 12.9096C13.0819 12.8228 13.1392 12.7297 13.2001 12.6257C13.6207 11.9173 13.7864 11.4044 13.9195 10.9931C14.0491 10.5914 14.1571 10.2591 14.4347 9.98381C14.4988 9.91979 14.5715 9.85938 14.6559 9.80161C14.7097 9.76477 14.7662 9.73209 14.8256 9.7015C14.9045 9.66229 14.9874 9.62803 15.0742 9.6006C15.2673 9.53889 15.4759 9.50751 15.6848 9.50751C16.0897 9.50751 16.4942 9.62411 16.7825 9.85546C16.9122 9.95951 17.0967 10.1673 17.2039 10.7804C17.2591 11.0961 17.1652 11.6765 16.9477 12.9595ZM23.1394 14.6749C22.8406 15.1878 22.6772 15.4702 22.4192 15.6819C21.907 16.1025 21.3097 16.2089 20.818 16.2089C20.4645 16.2089 20.1644 16.1543 19.9877 16.1221C19.4795 16.0291 18.5335 15.8571 18.2185 15.1105C18.1568 14.9628 18.156 14.8689 18.156 14.75C18.156 14.6326 18.156 14.435 18.1014 13.9649L18.0982 13.9336C18.0731 13.7208 18.0451 13.48 18.106 13.1713L18.1131 13.1344C18.2914 12.2276 18.3398 12.089 18.3798 12.0108C18.472 11.8325 18.6908 11.7622 18.8691 11.8537C19.0419 11.9436 19.1138 12.1531 19.0325 12.329C19.0145 12.3805 18.9638 12.5737 18.826 13.2751L18.8189 13.3119C18.7797 13.5098 18.797 13.6599 18.8197 13.8499L18.8229 13.8821C18.8822 14.3926 18.8822 14.6239 18.8822 14.7492C18.8822 14.7712 18.8822 14.7955 18.8829 14.8099C18.8832 14.8155 18.8859 14.8229 18.8877 14.8281C18.9406 14.9536 19.0528 15.0519 19.1922 15.1297C19.3121 15.1967 19.4411 15.0792 19.4154 14.9443C19.2652 14.158 19.2807 13.2555 19.5789 12.6929C19.6789 12.5015 19.8638 12.1887 20.0395 11.8965C20.04 11.8957 20.0406 11.895 20.0411 11.8941C20.0415 11.8933 20.0421 11.8925 20.0426 11.8917C20.0604 11.8623 20.0782 11.8332 20.0957 11.8038C20.1106 11.7787 20.1255 11.7547 20.1393 11.7311C20.2167 11.6028 20.2894 11.4849 20.3474 11.391C20.3553 11.3777 20.3631 11.3644 20.371 11.3518C20.3765 11.3424 20.3819 11.3338 20.3874 11.3259C20.4 11.3056 20.411 11.2867 20.4211 11.2705C20.4259 11.2627 20.4306 11.2556 20.4345 11.2485C20.4368 11.2454 20.4384 11.2423 20.44 11.2399C20.4455 11.2305 20.451 11.2219 20.4557 11.2148C20.4651 11.1999 20.4721 11.189 20.4761 11.1819C20.4763 11.1813 20.4766 11.1808 20.4769 11.1802C20.4778 11.1786 20.4795 11.1764 20.4804 11.1748C20.481 11.1737 20.4811 11.1735 20.4818 11.1725C20.525 11.1095 20.5679 11.0488 20.6101 10.9906C20.7052 10.8593 20.594 10.6915 20.4463 10.7582C20.1927 10.8726 20.0218 11.0029 19.9843 11.0326C19.8272 11.1579 19.5988 11.132 19.4746 10.9749C19.3501 10.8177 19.376 10.5887 19.5331 10.4635C19.72 10.3166 20.7105 9.59404 21.8968 9.93336C22.7514 10.1765 23.1995 10.8295 23.3684 11.075C23.5043 11.2744 23.9213 11.8796 23.9079 12.7248C23.898 13.3692 23.629 13.8329 23.1394 14.6749Z" fill="white"/>
<path d="M15.4351 10.2552C15.3745 10.4022 15.3018 10.5844 15.2236 10.7823C15.0414 11.2405 14.8346 11.7597 14.7353 11.9479C14.5638 12.2731 14.4305 12.4783 14.3238 12.6438C14.202 12.8336 14.1047 12.9839 14.0313 13.1933C13.9027 13.5598 13.8797 13.9695 13.9633 14.4149C13.7361 14.3898 13.3642 14.2332 13.3221 14.0361C13.2907 13.8892 13.3819 13.7287 13.6507 13.2866C13.7045 13.1983 13.7623 13.1023 13.8256 12.9957C14.2875 12.2177 14.4744 11.6389 14.6119 11.2157C14.7601 10.7553 14.8302 10.5621 15.0662 10.4009C15.1718 10.3274 15.3005 10.2806 15.4351 10.2552Z" fill="white"/>
<path d="M14.9844 26.5715C14.7327 27.0857 14.4193 27.5603 14.224 27.7957C14.0622 27.3584 13.7811 26.3566 13.8554 25.5506C13.8575 25.5273 13.8601 25.5044 13.8635 25.4818C13.8933 25.233 13.9594 25.0045 14.0771 24.8215C14.1547 24.7013 14.3696 24.6278 14.6138 24.6278C14.7939 24.6278 14.9899 24.6673 15.1585 24.7577H15.1599C15.2503 24.8061 15.3734 24.9039 15.3862 25.1883C15.4048 25.5723 15.2218 26.0886 14.9844 26.5715Z" fill="white"/>
<path d="M28.779 20.8079C28.7986 20.8236 28.8108 20.8473 28.7997 20.8698C28.7246 21.0209 28.6342 21.1268 28.5278 21.2518C28.3994 21.4047 28.2525 21.5783 28.1156 21.8489C27.921 22.2323 27.8587 22.5821 27.8261 23.4777C27.7874 24.5299 27.828 25.121 27.8587 25.5521C27.8878 25.9682 27.9058 26.2192 27.8315 26.6252C27.6819 27.4439 27.3316 27.9862 26.888 28.6724C26.3331 29.5307 25.759 30.4175 24.8082 30.7005C24.7198 30.7277 24.717 30.7277 24.4689 30.7285C24.2532 30.7285 23.8943 30.729 23.2149 30.7544C21.9729 30.7992 21.3499 30.8216 20.8169 30.9241C20.2577 31.0324 19.966 31.1514 19.6832 31.2656C19.428 31.3688 19.1867 31.467 18.7243 31.562C18.4487 31.6178 18.0367 31.6784 16.633 31.6803C15.174 31.6831 14.2933 31.6839 13.1302 31.5514C11.5345 31.369 10.7336 31.2779 10.2016 30.9938C8.94678 30.3244 8.4169 29.1206 7.54035 27.1266C7.53886 27.1231 7.53733 27.1195 7.53584 27.116C7.52501 27.0912 7.55524 27.0673 7.57853 27.0812C7.62011 27.107 7.66348 27.1282 7.70925 27.1435C7.7474 27.1571 7.7874 27.1674 7.82767 27.1742C7.90792 27.1878 7.99157 27.1886 8.07652 27.1742C8.09143 27.1715 8.10503 27.1682 8.1181 27.1625C8.1206 27.1617 8.12308 27.1603 8.12555 27.1593C8.14038 27.1519 8.15888 27.1582 8.16514 27.1734C8.22084 27.3271 8.30944 27.4637 8.4582 27.5427C8.60721 27.6205 8.7766 27.6265 8.94234 27.6251C9.11303 27.6224 9.28506 27.6129 9.45524 27.5924C9.54542 27.5829 9.63763 27.627 9.67219 27.7108C9.82789 28.0885 10.021 28.362 10.3109 28.4022C10.3265 28.4044 10.3469 28.4069 10.3728 28.4069C10.4293 28.4069 10.5123 28.3927 10.6257 28.3258C10.7655 28.2433 10.9762 28.2953 11.0824 28.418C11.1449 28.4904 11.2135 28.5462 11.2739 28.5946C11.5724 28.9013 12.2982 29.0482 12.9075 29.0482C13.24 29.0482 13.538 29.0047 13.7134 28.919C13.9644 28.7973 13.9644 28.6104 13.9521 28.5348C13.9308 28.3993 13.9115 28.2648 13.895 28.1315C13.893 28.1157 13.9172 28.1095 13.9236 28.1241C13.9602 28.2036 14.0047 28.3029 14.1236 28.322C14.1364 28.3233 14.1508 28.3263 14.1673 28.3263C14.3372 28.3263 14.6013 28.3816 14.6469 28.5451C14.6701 28.6284 14.703 28.7065 14.7476 28.7772C14.8496 28.9386 15.0571 29.1309 15.4686 29.1378H15.5005C15.9731 29.1378 16.3378 28.9832 16.5838 28.6779C16.5998 28.658 16.615 28.6379 16.6296 28.6172C16.718 28.4929 16.9805 28.4874 17.093 28.5908C17.2196 28.7078 17.3788 28.7682 17.5563 28.7682C17.5848 28.7682 17.6135 28.7669 17.6433 28.7636C17.8548 28.741 18.0378 28.6289 18.1745 28.4379C18.2639 28.313 18.3292 28.1595 18.3769 27.9935C18.391 27.9446 18.4581 27.9301 18.4955 27.9644C18.586 28.048 18.7308 28.1364 18.9397 28.1364C18.9906 28.1364 19.0458 28.131 19.1044 28.1187C19.5147 28.0363 19.7192 27.6964 19.8159 27.313C19.8192 27.3002 19.8378 27.2967 19.8463 27.3067C19.9503 27.4333 20.1422 27.5794 20.476 27.5794C20.493 27.5794 20.5108 27.5794 20.5283 27.5786C20.705 27.5704 20.854 27.4929 20.9615 27.3541C21.0878 27.1895 21.1401 26.9484 21.1543 26.7032C21.1596 26.613 21.2176 26.5337 21.3004 26.4976C21.6476 26.3462 22.0573 26.0389 22.1794 25.8279C22.1803 25.8264 22.1811 25.8249 22.182 25.8234C22.2195 25.7573 22.2785 25.7034 22.3531 25.6888C22.6109 25.6384 22.7264 25.5886 22.8316 25.5427C22.92 25.504 22.9909 25.4734 23.1893 25.4425C24.7672 25.2018 25.0751 25.1487 25.4165 24.921C25.9273 24.5804 25.9532 24.1117 25.9783 23.6581C26 23.2746 26.0246 22.8394 26.3223 22.3286C26.4306 22.1422 26.5555 21.9095 26.6883 21.6635C26.9153 21.2422 27.2307 20.6564 27.4617 20.3347C27.5142 20.2617 27.6106 20.2388 27.6933 20.2741C28.228 20.5022 28.6802 20.7284 28.779 20.8079Z" fill="white"/>
<path d="M13.4552 25.501C13.3927 26.0466 13.3545 26.7754 13.4429 27.725C13.468 27.9927 13.5028 28.2711 13.5462 28.5524C13.4714 28.5933 13.2481 28.6507 12.851 28.6441C12.2804 28.6327 11.7249 28.4893 11.5581 28.3089L11.5322 28.2855C11.3934 28.1739 11.3024 28.1005 11.2893 27.9013C11.2852 27.8341 11.3139 27.7674 11.3756 27.6733C11.4096 27.6202 11.4546 27.5592 11.5102 27.4836C11.6062 27.3549 11.7251 27.1943 11.8469 26.9878C12.204 26.3843 12.3395 26.1979 12.5115 25.9627C12.5251 25.9436 12.5394 25.9245 12.5543 25.9049C12.6558 25.7661 12.7747 25.6001 12.9535 25.3274C13.0868 25.1248 13.1977 24.9662 13.2889 24.8417C13.4413 24.6344 13.5412 24.522 13.6052 24.4608C13.5958 24.5547 13.5746 24.6867 13.5543 24.8085C13.5239 24.9957 13.4858 25.225 13.4552 25.501Z" fill="white"/>
<path d="M13.1938 17.0202C13.1905 17.0249 13.1863 17.0296 13.1829 17.0346C13.1086 17.1373 13.0237 17.2537 12.9225 17.48C12.6503 18.0847 12.6451 18.4269 12.641 18.7022C12.6383 18.8465 12.6368 18.9612 12.5973 19.0953C12.5701 19.1837 12.5259 19.2851 12.4749 19.402C12.3144 19.7693 12.105 20.2508 12.1989 20.8988C12.069 20.8364 11.8703 20.6934 11.8426 20.6173C11.8358 20.582 11.8282 20.5473 11.8201 20.5125C11.7751 20.3104 11.7453 20.1787 11.874 19.8827C12.212 19.1032 12.2535 18.9184 12.2799 18.7061C12.2854 18.6598 12.2909 18.6237 12.3045 18.5652C12.3759 18.2578 12.4133 17.9945 12.4438 17.783C12.4893 17.462 12.5199 17.2498 12.6281 17.09C12.6676 17.031 12.7792 17.0004 12.939 17.0004C13.0022 17.0004 13.0736 17.005 13.1512 17.016L13.1695 17.0173C13.1774 17.0181 13.1857 17.0189 13.1938 17.0202Z" fill="white"/>
<path d="M12.7479 24.7093C12.7296 24.5224 12.6969 24.3352 12.6289 24.1591C12.6242 24.1502 12.6038 24.1052 12.5996 24.0966C12.5874 24.0741 12.5732 24.0529 12.5602 24.0307C12.5594 24.0299 12.5588 24.0299 12.5588 24.0294C12.5581 24.0281 12.5575 24.0281 12.5575 24.0273C12.55 24.0192 12.5432 24.0111 12.5359 24.0035C12.5249 23.9925 12.5128 23.9818 12.5011 23.9721C12.499 23.9695 12.4969 23.9674 12.4951 23.9666C12.4896 23.9619 12.4815 23.9557 12.4726 23.9505C12.4582 23.9429 12.4446 23.9348 12.4305 23.9274C12.4263 23.9248 12.4161 23.9206 12.4067 23.9173C12.4067 23.9173 12.4059 23.9173 12.4059 23.9165C12.4038 23.9157 12.4017 23.9152 12.3999 23.9144C12.3978 23.9131 12.3965 23.9123 12.3952 23.9118C12.3931 23.911 12.3918 23.9105 12.3905 23.9105C12.3892 23.9105 12.3892 23.9097 12.3892 23.9097C12.385 23.9076 12.3824 23.9071 12.3803 23.9063C12.2716 23.8663 12.1612 23.8226 12.0457 23.8056C12.0449 23.8056 12.0431 23.8048 12.0415 23.8048H12.0389C12.0261 23.8048 11.9994 23.8022 11.9981 23.8022C11.9819 23.8014 11.9662 23.8014 11.9505 23.8022C11.943 23.8022 11.9356 23.8022 11.9288 23.803H11.9228C11.9202 23.803 11.9168 23.8038 11.9134 23.8038C11.9121 23.8051 11.91 23.8051 11.9092 23.8051C11.9084 23.8051 11.9079 23.8051 11.9079 23.8051C11.8821 23.8127 11.8548 23.8195 11.829 23.8276C11.818 23.8331 11.806 23.8386 11.795 23.8454C11.7856 23.8508 11.7759 23.8576 11.7665 23.8623C11.7657 23.8631 11.7644 23.8644 11.7631 23.8644L11.761 23.8665C11.7487 23.8788 11.7359 23.8903 11.7236 23.9026C11.7194 23.9068 11.7079 23.9209 11.6999 23.9311C11.6978 23.9324 11.6964 23.9337 11.6964 23.935C11.6957 23.9358 11.6957 23.9358 11.6951 23.9363C11.6944 23.9371 11.6944 23.9376 11.693 23.9384C11.6923 23.9392 11.6923 23.9397 11.6917 23.9397C11.6883 23.9457 11.6849 23.9507 11.6836 23.9533C11.64 24.0213 11.5958 24.0887 11.5503 24.1559C11.4455 24.3164 11.338 24.4761 11.2293 24.6348C11.1299 24.7783 11.0306 24.9219 10.9321 25.0654C10.8769 25.1456 10.8225 25.2251 10.7682 25.3054C10.7587 25.3189 10.7499 25.3325 10.741 25.3462C10.8055 25.3584 10.8701 25.3712 10.9355 25.3835C11.0816 25.4102 11.2272 25.4358 11.3754 25.4562C11.6807 25.4978 11.9911 25.5168 12.3003 25.5059C12.3152 25.5051 12.3301 25.5059 12.344 25.5085C12.4182 25.4023 12.5058 25.2758 12.6174 25.1064C12.6794 25.0118 12.7384 24.9242 12.7941 24.8432C12.769 24.8045 12.7533 24.7582 12.7479 24.7093Z" fill="white"/>
<path d="M11.6609 25.9711C11.6345 26.2064 11.3712 26.8157 10.9603 27.3959C10.6163 27.8808 10.4074 27.9984 10.3658 28.0025C10.1998 27.9796 10.0359 27.5687 9.906 27.1614C9.85372 26.9962 9.80668 26.8314 9.76719 26.6934C9.67805 26.3833 9.66183 25.9677 9.67753 25.7065C10.0244 25.8989 10.6338 25.9507 11.4894 25.9541H11.492C11.5485 25.9601 11.6044 25.9664 11.6609 25.9711Z" fill="white"/>
<path d="M11.052 24.034V24.0353C11.0478 24.0408 11.0444 24.0468 11.0404 24.0522C10.8935 24.2684 10.7453 24.4836 10.5971 24.699C10.5202 24.8098 10.4442 24.9207 10.3686 25.0323C10.3271 25.0929 10.2714 25.1596 10.223 25.2315C10.1012 25.203 9.97963 25.175 9.85912 25.1411C9.76056 25.1126 9.66331 25.082 9.5679 25.0438C9.5488 25.037 9.53052 25.0294 9.51275 25.0208C9.49705 24.9889 9.47457 24.9602 9.44739 24.9384C9.44818 24.9377 9.44818 24.9358 9.44869 24.935C9.48347 24.8642 9.51876 24.7928 9.55351 24.7222C9.61939 24.5923 9.68554 24.4632 9.75898 24.338C9.8897 24.1121 10.0473 23.8823 10.2685 23.7359C10.2795 23.7278 10.2915 23.7202 10.3033 23.7129C10.389 23.6591 10.4748 23.6212 10.5801 23.6081C10.5924 23.6068 10.6664 23.6073 10.7011 23.6102C10.7071 23.6102 10.7121 23.611 10.7155 23.611C10.7182 23.6118 10.7239 23.6131 10.7312 23.6157C10.7571 23.6238 10.783 23.6293 10.8088 23.6382C10.8177 23.6424 10.8258 23.6463 10.8347 23.651C10.8572 23.6646 10.8802 23.6769 10.9014 23.6938C10.8674 23.668 10.9484 23.7516 10.9484 23.7456C11.0138 23.836 11.0336 23.9116 11.052 24.034Z" fill="white"/>
<path d="M9.88823 23.4192C9.61609 23.6429 9.41821 23.9409 9.25299 24.251C9.16044 24.423 9.0768 24.5984 8.98975 24.7733C8.98085 24.7911 8.97195 24.8081 8.96178 24.8256C8.87944 24.8078 8.79707 24.784 8.71682 24.7584C8.63108 24.7312 8.54613 24.6998 8.46455 24.6619C8.42717 24.6441 8.3898 24.6259 8.35242 24.6062C8.43397 24.4517 8.53122 24.3035 8.62376 24.1595C8.75446 23.9561 8.8959 23.7561 9.04961 23.5684C9.10738 23.4971 9.16855 23.4189 9.24959 23.3718C9.33247 23.3229 9.43258 23.3345 9.52774 23.34C9.62839 23.3462 9.73661 23.3488 9.83176 23.387C9.85138 23.3954 9.87255 23.4084 9.88823 23.4192Z" fill="white"/>
<path d="M9.4561 27.0708C9.44249 27.0822 9.43098 27.0947 9.4208 27.1089C9.41139 27.1116 9.4017 27.1138 9.39569 27.1151C9.33035 27.1219 9.26369 27.1268 9.19781 27.1309C9.07128 27.1391 8.94265 27.1445 8.81482 27.1399C8.74347 27.1372 8.6789 27.1263 8.64962 27.0808C8.60257 27.0093 8.58845 26.8849 8.57144 26.7903C8.4878 26.3258 8.47683 25.8416 8.53615 25.3716C8.77901 25.4586 9.02867 25.5261 9.28486 25.5682C9.2297 25.9919 9.32355 26.6141 9.37871 26.8047C9.40431 26.8934 9.43019 26.9829 9.4561 27.0708Z" fill="white"/>
<path d="M8.67496 23.2654C8.46007 23.5291 8.26426 23.8102 8.08859 24.1011C8.01776 24.2195 7.93749 24.3419 7.87841 24.4684C7.79346 24.4446 7.71659 24.4106 7.63504 24.3602C7.57256 24.3215 7.51191 24.2786 7.45283 24.2337C7.43792 24.2214 7.39713 24.1895 7.3718 24.1691C7.36579 24.1644 7.36029 24.1597 7.354 24.1563C7.37362 24.1006 7.4097 24.0386 7.42957 23.9971C7.47452 23.8985 7.52472 23.8018 7.57727 23.7074C7.67713 23.5307 7.78875 23.3579 7.91528 23.1987C7.96233 23.1402 8.00704 23.0646 8.07996 23.0429C8.14663 23.0238 8.23447 23.0327 8.28804 23.0421C8.44726 23.073 8.57169 23.1451 8.67496 23.2654Z" fill="white"/>
<path d="M7.01764 24.4153C7.02115 24.4015 7.03878 24.3998 7.04706 24.4113C7.10327 24.4896 7.18047 24.5578 7.26317 24.6223C7.30023 24.6505 7.33707 24.6786 7.37451 24.7052C7.38034 24.7093 7.38308 24.7165 7.38142 24.7235C7.29487 25.0826 7.23508 25.4631 7.2331 25.8388C7.23299 25.8596 7.20167 25.864 7.19683 25.8439C7.08964 25.3954 6.95038 24.6786 7.01764 24.4153Z" fill="white"/>
<path d="M8.07158 25.2119C8.02794 25.5329 8.00701 25.8547 8.02114 26.1783C8.02794 26.3558 8.04701 26.5321 8.0708 26.7075C8.0708 26.7088 8.0708 26.7101 8.07158 26.7109C8.03341 26.702 7.99344 26.7014 7.95265 26.7075C7.96075 26.7048 7.93983 26.7062 7.93096 26.7062H7.92832C7.92233 26.7054 7.91343 26.7048 7.91055 26.7041C7.8656 26.6931 7.86168 26.6884 7.82612 26.6659C7.77986 26.6361 7.73096 26.5814 7.69828 26.5258C7.61202 26.3762 7.59294 26.1946 7.58614 26.0252C7.57333 25.6926 7.60182 25.3606 7.66378 25.0349C7.71684 25.0566 7.76312 25.0765 7.83997 25.1097C7.91605 25.1429 7.99471 25.1764 8.07158 25.2119Z" fill="white"/>
<path d="M39.5 20C39.5 23.8567 38.3563 27.6269 36.2137 30.8336C34.071 34.0404 31.0255 36.5397 27.4623 38.0156C23.8992 39.4916 19.9784 39.8777 16.1957 39.1253C12.4131 38.3729 8.93855 36.5157 6.21143 33.7886C3.4843 31.0615 1.62711 27.5869 0.874696 23.8043C0.122284 20.0216 0.508449 16.1008 1.98436 12.5377C3.46027 8.97451 5.95963 5.92903 9.16639 3.78634C12.3731 1.64365 16.1433 0.5 20 0.5C25.1717 0.5 30.1316 2.55446 33.7886 6.21142C37.4455 9.86837 39.5 14.8283 39.5 20Z" stroke="black" stroke-opacity="0.02"/>
</g>
<defs>
<radialGradient id="paint0_radial_1761_690" cx="0" cy="0" r="1" gradientUnits="userSpaceOnUse" gradientTransform="translate(20 22.0959) rotate(90) scale(22.4696)">
<stop offset="0.166667" stop-color="#163A81"/>
<stop offset="1" stop-color="#0054F9"/>
</radialGradient>
<clipPath id="clip0_1761_690">
<rect width="40" height="40" fill="white"/>
</clipPath>
</defs>
</svg>
