<svg width="40" height="40" viewBox="0 0 40 40" fill="none" xmlns="http://www.w3.org/2000/svg">
<g clip-path="url(#clip0_1811_564)">
<path d="M20 40C23.9556 40 27.8224 38.827 31.1114 36.6294C34.4004 34.4318 36.9638 31.3082 38.4776 27.6537C39.9913 23.9992 40.3874 19.9778 39.6157 16.0982C38.844 12.2186 36.9392 8.65492 34.1421 5.85787C31.3451 3.06082 27.7814 1.15601 23.9018 0.384303C20.0222 -0.387401 16.0009 0.00866568 12.3463 1.52242C8.69181 3.03617 5.56824 5.59962 3.37061 8.8886C1.17298 12.1776 0 16.0444 0 20C0 25.3043 2.10714 30.3914 5.85786 34.1421C9.60859 37.8929 14.6957 40 20 40Z" fill="#F3F3F3"/>
<path d="M24.4692 14.1935C25.1064 15.2859 25.7513 16.3784 26.3885 17.4708C27.4582 19.3067 28.5203 21.1503 29.5824 22.9862C29.6583 23.1151 29.719 23.2517 29.7873 23.3807C29.5369 23.4869 29.4231 23.282 29.2942 23.1531C28.839 22.7206 28.4065 22.2655 27.9589 21.8254C27.6403 21.4992 27.3217 21.1806 27.0182 20.8468C26.9044 20.7709 26.7982 20.6875 26.6996 20.5889C25.683 19.5267 24.6209 18.5253 23.5891 17.4708C23.4146 17.2963 23.2098 17.137 23.1567 16.8715C23.3615 15.9383 23.8167 15.1114 24.2567 14.2769C24.2947 14.201 24.3857 14.1631 24.4692 14.1935Z" fill="#626362"/>
<path d="M11.4661 19.9439C13.1731 16.9321 14.8876 13.9127 16.5946 10.9009C16.6097 10.8781 16.6477 10.8629 16.6704 10.8478C16.8525 11.0147 16.7842 11.2195 16.7387 11.4092C16.6325 11.8644 16.5263 12.3195 16.3897 12.7672C16.2152 13.2679 16.1469 13.7989 15.9725 14.2996C15.5931 15.9155 15.1379 17.5087 14.7283 19.117C14.6676 19.3446 14.6297 19.5798 14.4248 19.7391C14.0986 19.9667 13.7117 19.8605 13.3551 19.9288C12.8999 20.0198 12.4296 20.0122 11.9668 20.0805C11.7999 20.1033 11.6102 20.1033 11.4661 19.9439Z" fill="#626362"/>
<path d="M23.0506 28.0994H12.4447C12.5054 27.8415 12.7406 27.8566 12.9151 27.8111C13.4461 27.6746 13.9848 27.538 14.5158 27.3863C14.9862 27.2877 15.4565 27.1587 15.9193 27.007C16.1014 26.9159 16.2835 26.8097 16.4959 26.7945C17.4518 26.7111 18.347 26.3394 19.2801 26.1421C20.0463 25.9828 20.7898 25.7097 21.5712 25.6035C22.0719 25.9145 22.5195 26.4152 22.5878 26.8932C22.6561 27.3711 23.0809 27.6442 23.0506 28.0994Z" fill="#626362"/>
<path d="M16.9208 10.3698C17.687 9.01186 18.4457 7.64629 19.2119 6.28831C19.4319 5.90899 19.6899 5.9014 19.9175 6.28073C20.183 6.72074 20.4182 7.17593 20.6685 7.62353C20.1906 8.90565 19.5761 10.1347 19.0374 11.3864C18.9085 11.6747 18.825 11.9858 18.6581 12.2589C18.4305 12.3954 18.3395 12.1906 18.2105 12.0844C18.0891 11.9706 17.9526 11.8264 17.8236 11.6975C17.6112 11.5154 17.4139 11.3181 17.2167 11.1285C17.027 10.9085 16.8677 10.6809 16.9208 10.3698Z" fill="#464646"/>
<path d="M22.4741 10.7491C23.1114 11.7657 23.7335 12.8051 24.2721 13.8748C24.2721 13.8975 24.2645 13.9203 24.2645 13.943C23.9838 14.8838 23.4755 15.7259 23.1341 16.6438C23.1114 16.6818 23.0734 16.7197 23.0279 16.7349C22.6789 16.6818 22.5196 16.3707 22.292 16.1659C21.9127 15.8169 21.5562 15.4376 21.2072 15.0583C21.1389 14.99 21.0934 14.9141 21.0706 14.8231C20.9948 14.5727 20.9037 14.3224 21.0706 14.0644C21.1541 13.943 21.1085 13.8141 21.0479 13.6927C21.0023 13.6017 20.9796 13.503 20.972 13.4044C20.9568 12.9947 21.0479 12.934 21.4727 13.0554C21.5486 12.8658 21.4044 12.7064 21.3817 12.532C21.3361 12.1071 21.4651 12.0161 21.8748 12.1678C21.9431 11.9933 21.7989 11.8492 21.7989 11.6899C21.7989 11.4623 21.6396 11.0981 22.1327 11.2043C22.1707 11.2119 22.2086 11.2195 22.201 11.1967C22.1858 11.1512 22.1782 11.0981 22.1782 11.0526C22.2238 10.9009 22.2162 10.696 22.4741 10.7491Z" fill="#606160"/>
<path d="M11.4661 19.9439C12.4675 19.906 13.4688 19.8074 14.4627 19.6405C14.493 19.7771 14.4323 19.8605 14.2958 19.8909C13.4006 20.0047 12.4978 20.0578 11.6026 20.2019C12.5054 20.0502 13.4157 20.0047 14.3185 19.906C14.4854 20.0122 14.4399 20.164 14.402 20.3081C14.2578 20.915 14.1137 21.5219 13.8937 22.1137C13.7799 22.2654 13.8558 22.4854 13.7116 22.6296C13.4082 23.062 12.915 22.9254 12.5054 22.9937C12.0578 23.0696 11.5798 22.933 11.1474 23.153C10.935 23.4793 10.6012 23.5551 10.2522 23.6082C9.90321 23.6613 9.66044 23.5855 9.6301 23.1834L11.4661 19.9439Z" fill="#606160"/>
<path d="M23.0506 28.0994C22.914 27.9098 22.7774 27.7278 22.6332 27.5457C22.5042 27.3712 22.5042 27.3712 22.6029 27.1208C22.6408 27.0298 22.5498 26.9767 22.5042 26.9084C22.216 26.5063 21.9277 26.0967 21.6318 25.6946C21.7228 25.467 21.9428 25.4518 22.1325 25.4063C22.6863 25.2622 23.2401 25.1256 23.7939 24.989C23.9684 24.9587 24.1353 24.898 24.3174 24.9208C24.5754 25.027 24.7878 25.2242 24.9167 25.467C25.2126 25.998 25.683 26.4229 25.994 26.9615C26.0623 27.0753 26.1837 27.0753 26.3051 27.0601C26.6465 27.3333 27.003 27.5912 26.9879 28.0995L23.0506 28.0994Z" fill="#606160"/>
<path d="M22.4741 10.7491C22.072 10.916 22.4741 11.2499 22.33 11.4851C22.1631 11.4547 22.1555 11.1816 21.9582 11.2271C21.632 11.6065 22.3755 12.0313 21.8975 12.403C21.7761 12.3272 21.7534 12.1299 21.5637 12.1299C21.2299 12.5092 21.9582 12.9341 21.4954 13.3058C21.3741 13.2375 21.3361 13.0555 21.1389 13.0251C21.0403 13.2451 21.0934 13.4651 21.1313 13.6851C20.7975 13.8672 20.9037 14.2162 20.843 14.4969C20.3499 14.459 20.1982 13.981 19.8568 13.7458C19.6671 13.5334 19.4243 13.3665 19.3105 13.0858C19.1967 12.4865 19.5685 12.0389 19.8264 11.5685C19.9175 11.394 20.0313 11.2575 20.0388 11.0526C20.0464 10.8857 20.1147 10.6961 20.2589 10.6202C20.4485 10.5216 20.3802 10.3395 20.4485 10.2257C20.7596 9.71742 20.7596 9.0574 21.2299 8.62497C21.6927 9.31534 22.11 10.0208 22.4741 10.7491Z" fill="#565756"/>
<path d="M9.63011 23.1758C9.9715 23.631 10.4722 23.593 11.1246 23.0696C11.6329 23.2517 12.1488 23.1379 12.6571 23.0923C12.9682 23.062 13.2716 22.9406 13.5902 22.9634C13.7951 23.1985 13.5827 23.4034 13.5371 23.6158C13.484 23.8889 13.3551 24.1544 13.2944 24.4276C13.264 24.6248 13.2413 24.8221 13.0971 24.9738C12.3157 25.0572 11.5495 25.2621 10.7529 25.2545C10.275 25.2545 9.78943 25.3379 9.31148 25.4062C8.6287 25.5048 8.56801 25.4669 8.71215 24.7841C9.0232 24.2531 9.32665 23.7144 9.63011 23.1758Z" fill="#565756"/>
<path d="M26.9957 28.0994L26.2901 27.1132C25.9032 26.7263 25.6074 26.2711 25.3191 25.8235C25.2432 25.7021 25.2053 25.558 25.0687 25.4669C24.826 25.3152 24.7729 25.0876 24.8411 24.8221C25.0839 24.5793 25.4253 24.6173 25.7136 24.4883C25.9336 24.3821 26.1612 24.2986 26.4039 24.3973C26.4646 24.4352 26.3964 24.4124 26.4495 24.4048C26.7377 24.3821 26.6315 24.7993 26.9502 24.8069C27.2233 24.8069 27.3219 25.1635 27.4736 25.3759C28.0426 26.127 28.5888 26.8932 29.1351 27.6518C29.2337 27.7884 29.3551 27.9098 29.3096 28.107L26.9957 28.0994Z" fill="#565756"/>
<path d="M7.21772 27.4166C7.42256 27.0297 7.61222 26.6276 7.88533 26.2786C8.10534 26.4304 8.37845 26.3166 8.56053 26.2786C9.304 26.1117 10.0702 26.1117 10.8213 26.0207C11.3675 25.9524 11.9213 25.7628 12.4903 25.9297C12.5889 25.96 12.6952 25.6565 12.8848 25.831C12.9607 26.1952 12.7103 26.4911 12.68 26.8324C12.6648 26.9842 12.6117 27.1283 12.5131 27.2421C12.2096 27.4849 11.8531 27.2952 11.5344 27.3256C10.8896 27.3711 10.2751 27.5304 9.63781 27.6063C9.19779 27.6518 8.75019 27.667 8.31017 27.6518C8.15844 27.6366 8.00671 27.6518 7.87016 27.6973C7.57429 27.8035 7.34669 27.7125 7.21772 27.4166Z" fill="#4A4A4A"/>
<path d="M32.0406 28.0994H30.6295C30.1364 28.0463 29.9846 27.5911 29.7722 27.2725C29.097 26.2711 28.3156 25.3455 27.648 24.3365C27.6025 24.2683 27.5418 24.2076 27.5721 24.1165C27.7846 23.8738 28.1108 23.9041 28.3763 23.8055C28.4749 23.7827 28.5735 23.7827 28.6722 23.7979C29.1805 24.1241 29.6736 24.4427 29.8708 25.08C29.9619 25.3683 30.2577 25.5655 30.455 25.8007C30.6447 26.0131 30.8116 26.2104 30.9329 26.4835C31.1302 26.9615 31.4867 27.3484 31.8661 27.7049C31.9723 27.8111 32.0861 27.9249 32.0406 28.0994Z" fill="#4A4A4A"/>
<path d="M21.2374 8.63256C21.1236 8.93602 20.8505 9.17878 20.9946 9.56569C21.0477 9.70984 20.7443 9.75535 20.7443 9.77811C20.6381 10.294 20.2815 10.7037 20.1677 11.2044C20.1222 11.3789 20.0539 11.4623 19.9781 11.5837C19.7125 12.0389 19.3332 12.4941 19.4167 13.0934C19.1284 13.1465 19.0373 12.8734 18.8553 12.752C18.749 12.6079 18.5442 12.5168 18.6049 12.2892C18.6201 11.7658 18.9387 11.3561 19.1284 10.9009C19.5456 9.89191 20.0084 8.8905 20.456 7.89667C20.5015 7.79046 20.547 7.67666 20.676 7.63873C20.8884 7.94219 21.1008 8.26841 21.2374 8.63256Z" fill="#4F5150"/>
<path d="M12.8468 25.8007C12.4674 26.1725 11.944 26.0283 11.5191 26.0814C10.8136 26.1649 10.0929 26.2483 9.37974 26.3014C8.94731 26.3318 8.50729 26.3697 8.08245 26.4304C7.93072 26.4532 7.90796 26.4001 7.89279 26.2863C8.1128 25.7552 8.43143 25.2849 8.71972 24.7993C8.69696 25.3152 8.91696 25.3835 9.41008 25.3076C10.3129 25.1635 11.2308 25.1331 12.1488 25.0497C12.4523 25.0193 12.733 24.7007 13.0592 24.9966C13.1881 25.1635 13.0819 25.3304 13.0592 25.4973C13.0137 25.6111 12.9681 25.7325 12.8468 25.8007Z" fill="#4F5150"/>
<path d="M27.5949 24.1848C27.9439 24.1469 27.9818 24.5489 28.0425 24.6703C28.2853 25.1407 28.6494 25.5428 28.9605 25.9449C29.3701 26.4759 29.6812 27.0828 30.1591 27.5684C30.3184 27.7353 30.4019 27.978 30.6219 28.0994H29.3094C28.5811 27.0904 27.8604 26.0738 27.1094 25.0876C26.9197 24.8448 26.6238 24.6855 26.3811 24.4883C26.5556 24.071 26.988 24.2379 27.2839 24.1013C27.3977 24.071 27.519 24.1089 27.5949 24.1848Z" fill="#4F5150"/>
<path d="M32.0406 28.0994C31.8357 27.7884 31.593 27.5001 31.3123 27.2573C30.9254 26.9083 30.933 26.3469 30.5385 26.0738C30.2274 25.8538 30.2199 25.3304 29.7343 25.3228C29.7191 25.3228 29.6812 25.2393 29.6888 25.2014C29.8026 24.6779 29.4233 24.3972 29.0743 24.2758C28.8088 24.1848 28.9984 23.851 28.7253 23.8813C28.7557 23.5931 29.0212 23.6613 29.1881 23.5779C29.4005 23.5324 29.6129 23.4641 29.8405 23.4641C30.6523 24.8524 31.464 26.2483 32.2758 27.6366C32.3972 27.887 32.4199 28.0918 32.0406 28.0994Z" fill="#3F403F"/>
<path d="M7.21772 27.4166C7.55153 27.7125 7.90804 27.538 8.27219 27.4925C8.83359 27.4166 9.3874 27.5608 9.97156 27.3408C10.2978 27.2194 10.7985 27.0828 11.0868 27.1359C11.5495 27.2118 12.0047 27.098 12.4447 27.2194C12.5737 27.356 12.5206 27.5001 12.4827 27.6518C12.4296 27.8187 12.3765 27.9856 12.2475 28.1146C10.624 28.1222 9.00049 28.1298 7.37699 28.1298C6.9218 28.1146 6.8915 27.9552 7.21772 27.4166Z" fill="#3F403F"/>
<path d="M16.9208 10.3698C17.027 10.6126 17.118 10.8629 17.3001 11.0678C17.209 11.7126 16.8373 12.2513 16.5945 12.8354C16.5035 13.0554 16.329 13.1009 16.2835 12.7823C16.3518 12.1223 16.678 11.523 16.678 10.8478C16.7538 10.6885 16.8373 10.5292 16.9208 10.3698Z" fill="#2F302F"/>
<path d="M29.8254 23.4716C29.6509 23.631 29.4385 23.6689 29.2185 23.6765C28.7557 23.1985 28.4219 22.6371 28.0274 22.1061C27.9515 21.9999 27.8908 21.8709 28.0046 21.7419C28.4598 22.1819 28.9074 22.622 29.3626 23.0544C29.4916 23.1758 29.59 23.3503 29.7873 23.3807C29.81 23.411 29.8254 23.4413 29.8254 23.4716Z" fill="#303130"/>
<path d="M12.2399 28.107L12.3385 27.6215C12.9834 27.3635 13.6662 27.3939 14.3338 27.3256C14.4324 27.318 14.5841 27.3332 14.5538 27.5152L12.4372 28.1146L12.2399 28.107Z" fill="#2F302F"/>
<path d="M24.4692 14.1935C23.9381 15.0431 23.5362 15.9611 23.2555 16.917C23.0962 16.9473 23.0279 16.879 23.0507 16.7121C23.43 15.7638 23.9079 14.861 24.2569 13.8975L24.2721 13.8748C24.3935 13.9506 24.4236 14.0797 24.4692 14.1935Z" fill="#606160"/>
<path d="M23.0506 16.7197C23.0885 16.8108 23.1568 16.8867 23.2554 16.9246C24.3023 17.9867 25.3493 19.0488 26.3962 20.1109C26.5328 20.255 26.6617 20.4144 26.7907 20.5661C26.6086 20.6875 26.4797 20.5509 26.3431 20.475C25.9486 20.2778 25.5769 20.0274 25.1824 19.8302C25.0306 19.724 24.8789 19.6102 24.6892 19.5647C24.4692 19.4812 24.2189 19.4661 24.0216 19.3143C23.3692 18.6391 22.4437 18.3964 21.6774 17.8881C21.2071 17.577 20.7215 17.2811 20.2739 16.9246C20.0994 16.1735 20.5774 15.6197 20.8505 15.0052C20.9491 14.7776 21.1008 15.0052 21.2298 15.0052C21.6774 15.4376 22.125 15.8701 22.5726 16.2949C22.7319 16.439 22.8913 16.5756 23.0506 16.7197Z" fill="#565756"/>
<path d="M28.0046 21.7419C28.1336 22.2351 28.5431 22.5385 28.7934 22.9482C28.9376 23.191 29.1654 23.3882 29.2185 23.6765C29.0743 23.8055 28.8465 23.7144 28.71 23.8813H28.4065C27.8982 23.4944 27.7541 22.8572 27.352 22.3944C27.1548 22.1668 27.003 21.9088 26.7451 21.7268C26.5858 21.6206 26.4796 21.4688 26.4341 21.2868C26.4341 21.2412 26.4416 21.1957 26.4568 21.1502C26.6389 20.9681 26.8817 20.8923 27.0941 20.7709L28.0046 21.7419Z" fill="#343434"/>
<path d="M27.0867 20.7709C26.988 21.0592 26.7225 21.0819 26.4873 21.1578C26.3052 21.2261 26.2066 21.0895 26.108 20.9909C25.797 20.695 25.4859 20.3991 25.2052 20.0805C25.1369 19.9971 24.9018 19.8681 25.1824 19.7391C25.7666 19.9212 26.2142 20.3536 26.7832 20.5585L27.0867 20.7709Z" fill="#292929"/>
<path d="M13.7573 22.1668L14.3642 19.9439C14.3262 19.9212 14.3187 19.8984 14.3262 19.8757C14.3338 19.8529 14.349 19.8453 14.3642 19.8453C14.3945 19.777 14.4323 19.7088 14.4627 19.6405C14.9255 17.8577 15.3959 16.0748 15.8587 14.292L15.927 14.3527C16.0863 14.7017 15.9725 15.081 16.0256 15.4452C16.0332 16.0748 15.9953 16.6969 16.0256 17.3266C16.0256 18.7832 16.0408 20.2322 16.0332 21.6888C16.0408 21.8709 16.0256 22.053 16.0029 22.235C15.9725 22.4323 15.8587 22.5157 15.6539 22.5233C15.267 22.5385 14.8876 22.5992 14.5007 22.6447C14.0683 22.7054 13.8407 22.5916 13.7573 22.1668Z" fill="#565756"/>
<path d="M16.2834 12.7747C16.3745 12.9265 16.42 12.9872 16.5186 12.7596C16.7614 12.183 16.9662 11.5913 17.3076 11.0602L17.9069 11.5685C17.8918 11.9251 17.7552 12.2665 17.5352 12.5472C17.429 12.6989 17.3607 12.881 17.338 13.063C17.2697 13.5106 16.9662 13.852 16.86 14.2693C16.7993 14.5045 16.6097 14.5652 16.4124 14.6258C16.2986 14.641 16.1772 14.6183 16.071 14.5652C15.942 14.5196 15.9496 14.3831 15.8965 14.2845L15.8662 14.2769C15.9952 13.7913 16.0634 13.2603 16.2834 12.7747Z" fill="#343434"/>
<path d="M23.8624 25.0952L21.6395 25.7021C20.1298 26.089 18.6201 26.4759 17.1104 26.8553C16.9056 26.9084 16.7007 27.007 16.4807 26.9084C16.5111 26.5973 16.7993 26.5518 17.0042 26.4304C17.2242 26.3014 17.429 26.1649 17.6566 26.0511C17.8994 25.9297 18.1573 25.8311 18.3622 25.6338C18.5063 25.5049 18.6353 25.3683 18.8173 25.2924C19.4319 25.0269 20.016 24.7007 20.5622 24.3214C21.2147 23.8965 21.9354 23.5779 22.6637 23.3124C23.2327 23.7827 23.7865 24.2759 23.8624 25.0952Z" fill="#565756"/>
<path d="M14.5614 27.5077C14.2503 27.2876 13.9317 27.4849 13.613 27.4925C13.1882 27.5001 12.7634 27.5683 12.3385 27.6139C12.4144 27.4925 12.4447 27.3483 12.4371 27.2118C12.513 27.0904 12.5509 26.9538 12.5434 26.8097C13.0517 26.5745 13.6131 26.6731 14.1365 26.5518C14.5386 26.4531 14.9483 26.5973 15.3276 26.4304C15.5324 26.3393 15.7221 26.3924 15.9042 26.4911C15.9345 26.529 15.9573 26.5669 15.9724 26.6124C16.0104 26.7794 16.0104 26.9463 15.9876 27.1132C15.5248 27.2952 15.0469 27.4242 14.5614 27.5077Z" fill="#343434"/>
<path d="M15.9876 27.1132C15.8131 26.969 15.9042 26.7794 15.8814 26.6049C15.9421 26.5442 15.9118 26.4304 15.9952 26.3925C16.4883 26.1876 16.9966 26.0359 17.5201 25.9524C17.6035 25.9373 17.7325 25.9449 17.7022 26.1042L16.4807 26.9008L15.9876 27.1132Z" fill="#292929"/>
<path d="M16.3821 14.5955C16.8525 14.3527 16.898 13.8217 17.1104 13.4196C17.3228 13.0175 17.2621 12.4864 17.7097 12.1906C17.5277 11.9099 17.8311 11.7809 17.8918 11.5761L18.5973 12.2816L18.9008 12.6837C18.8477 12.7444 18.7187 12.7671 18.7187 12.843C18.7187 13.3437 18.2256 13.6472 18.2256 14.1479C18.2256 14.3831 17.9373 14.4665 17.8766 14.7169C17.7932 15.0582 17.8008 15.2934 18.1346 15.4679C18.3394 15.5817 18.5367 15.7107 18.7187 15.8472C18.7794 15.8928 18.8249 15.9383 18.8705 15.999C19.0146 16.219 19.1436 16.4542 18.916 16.6818C18.6732 16.9169 18.7567 17.6301 19.0829 17.759C19.8188 18.0321 20.5698 18.2673 21.3361 18.457C21.6471 18.5328 21.9506 18.6239 22.254 18.7301C22.3602 18.768 22.5499 18.806 22.3982 18.9956C22.1099 19.1246 21.7913 19.0411 21.4954 19.1398C21.3209 19.1701 21.154 19.2232 20.9795 19.2156C20.1298 19.0942 19.2725 19.117 18.4153 19.026C18.1422 18.9956 17.8235 18.9653 17.8994 18.5784C17.998 18.0928 17.869 17.7439 17.4442 17.5845C16.8904 17.3797 16.8449 17.2963 16.9814 16.7273C17.0497 16.4314 17.0801 16.1204 17.209 15.8548C17.4139 15.43 17.2545 15.1948 16.8752 15.0279C16.7387 14.9672 16.678 14.8155 16.5414 14.7548C16.4731 14.732 16.4049 14.6713 16.3821 14.5955Z" fill="#3F403F"/>
<path d="M18.8098 16.0142L18.7112 15.9156C18.8098 15.5969 18.7643 15.21 18.9919 14.9672C19.1436 14.8231 19.2347 14.6259 19.2499 14.421C19.2878 14.0114 19.5912 13.8369 19.925 13.7003L20.8354 14.5045C21.0099 14.5348 21.0706 14.679 21.1389 14.8079L21.2451 15.0052C20.8658 15.1645 20.3651 16.0597 20.3651 16.5832C20.3651 16.697 20.3423 16.8108 20.3347 16.9246C19.705 16.7956 19.2423 16.4239 18.8098 16.0142Z" fill="#4F5150"/>
<path d="M24.257 13.9052C24.2267 14.4893 23.8701 14.9597 23.6501 15.4756C23.468 15.8928 23.3694 16.3632 23.0432 16.7197C23.1494 16.0369 23.5363 15.4604 23.8018 14.8383C23.9384 14.5197 24.0067 14.1631 24.257 13.9052Z" fill="#626362"/>
<path d="M21.1313 14.8003C20.9947 14.7396 20.8885 14.6334 20.8278 14.4968C20.714 14.1479 20.5395 13.7761 21.1313 13.6927C21.2299 13.761 21.3285 13.9051 21.2603 13.9658C20.9947 14.2237 21.1313 14.5196 21.1313 14.8003Z" fill="#5A5B5A"/>
<path d="M13.7573 22.1668C14.1062 22.8192 14.6979 22.4854 15.1759 22.4778C15.4035 22.4778 15.6387 22.402 15.8739 22.4703C16.1242 22.8116 15.9876 23.2061 16.0104 23.5779C16.0104 23.6537 15.9952 23.7372 15.9725 23.8131C15.889 24.0558 15.7449 24.1089 15.4718 24.162C14.7359 24.2986 13.9848 24.3214 13.2489 24.4883C13.211 24.4958 13.1731 24.4276 13.1427 24.3896C13.302 23.9269 13.522 23.4793 13.5448 22.9785C13.4841 22.8192 13.6358 22.713 13.6434 22.5765C13.78 22.4551 13.6738 22.2882 13.7573 22.1668Z" fill="#505150"/>
<path d="M13.651 22.5689C13.78 22.7434 13.6055 22.842 13.5524 22.971C13.0972 23.2137 12.5813 23.2441 12.0882 23.2896C11.9516 23.3048 11.8151 23.2137 11.6482 23.2896C11.4282 23.3958 11.2385 23.3048 11.1323 23.0696C11.3219 22.9862 11.4661 22.8572 11.724 22.8724C12.2778 22.9027 12.8468 22.842 13.4082 22.7889C13.4917 22.7889 13.5675 22.6523 13.651 22.5689Z" fill="#5A5B5A"/>
<path d="M14.3642 19.8453V19.9439L11.5496 20.255C12.4675 19.9819 13.4159 19.906 14.3642 19.8453Z" fill="#626362"/>
<path d="M23.8624 25.0952C23.6044 24.42 23.1416 23.8889 22.6485 23.3806C22.603 23.1227 22.8306 23.0999 22.9747 23.024C23.2554 22.8799 23.5589 22.7889 23.7789 22.5461C23.9306 22.3716 24.0596 22.144 24.3479 22.3564C24.841 22.6978 25.3113 23.0544 25.3948 23.7296C25.41 23.9268 25.5389 24.1013 25.721 24.1848C25.941 24.2758 25.9865 24.4275 25.7817 24.5944C25.4934 24.7538 25.1444 24.7006 24.8713 24.8979C24.7424 25.0345 24.5375 25.0724 24.363 25.0041L23.8624 25.0952Z" fill="#505150"/>
<path d="M24.3631 24.9965C24.5148 24.9055 24.6969 24.8752 24.8714 24.8903C24.8789 25.2014 25.2203 25.3152 25.2962 25.5048C25.5238 26.1117 26.1005 26.4911 26.2901 27.1132C26.1536 27.3939 25.9866 27.227 25.9259 27.0904C25.63 26.438 24.9776 26.0283 24.7424 25.3379C24.6817 25.1786 24.4086 25.1938 24.3631 24.9965Z" fill="#5B5C5B"/>
<path d="M19.9174 13.6927C19.6822 13.9961 19.2271 14.1555 19.3484 14.6789C19.3636 14.7548 19.3257 15.0127 19.0905 14.99C19.0222 14.9824 19.007 15.0203 18.9995 15.0658C18.9615 15.3693 18.9388 15.6728 18.7036 15.9079C18.3622 15.8397 18.127 15.5741 17.8387 15.4072C17.5808 15.2555 17.6946 14.4134 17.9905 14.2996C18.1498 14.2389 18.1346 14.1706 18.127 14.0796C18.0891 13.5561 18.6732 13.2375 18.5898 12.6761C18.5746 12.5775 18.7946 12.7064 18.9008 12.6761L19.4015 13.0782L19.9174 13.6927Z" fill="#4A4A4A"/>
<path d="M13.1503 24.3896C13.4234 24.3365 13.6662 24.1772 13.9772 24.2379C14.1821 24.2758 14.4097 24.2227 14.6221 24.1772C14.9787 24.0937 15.3125 23.942 15.6918 24.0937C15.7221 24.1013 15.8132 23.9572 15.8815 23.8813C16.1622 23.8586 16.1166 24.0482 16.0787 24.2075C15.9952 24.5641 15.9877 24.9283 15.9649 25.2848C15.9497 25.3303 15.9346 25.3683 15.8966 25.4062C15.0849 25.5276 14.2504 25.5124 13.4386 25.6945C13.2338 25.74 13.0972 25.5959 12.9455 25.4972C12.9758 25.3303 13.0138 25.1634 13.0441 24.989C13.082 24.7917 13.1883 24.602 13.1503 24.3896Z" fill="#4A4A4A"/>
<path d="M25.7817 24.5869C25.7969 24.5566 25.8197 24.5035 25.8197 24.4959C25.1369 23.9496 25.2658 22.7813 24.272 22.4703C24.2189 22.2351 24.4162 22.2048 24.5603 22.1365C24.8638 21.9847 25.1672 21.8558 25.4783 21.7344C25.5238 21.7268 25.5693 21.7344 25.6148 21.7496C25.7362 21.9165 25.7969 22.0985 26.0397 22.1896C26.3583 22.3034 26.419 22.6979 26.5404 22.9558C26.6997 23.3124 26.9349 23.6234 27.2232 23.8814C27.3218 23.9572 27.3521 24.0862 27.299 24.1924C27.0259 24.3897 26.6542 24.2683 26.3886 24.4959C26.1686 24.4276 25.9714 24.5035 25.7817 24.5869Z" fill="#4A4A4A"/>
<path d="M12.9455 25.4972C13.6662 25.5655 14.4021 25.4973 15.1 25.2849C15.3125 25.6339 15.6539 25.1104 15.8815 25.3987C16.1697 25.5656 15.9421 25.8236 16.0028 26.036C15.9877 26.1953 15.9497 26.3546 15.8815 26.5063C15.4414 26.567 14.9711 26.7339 14.5614 26.6429C14.3414 26.5974 14.0835 26.9843 13.9393 26.5974C13.6586 27.045 13.0896 26.4912 12.8013 26.9312C12.7179 26.9008 12.6269 26.8629 12.551 26.8174L12.8545 25.8084L12.9455 25.4972Z" fill="#3F403F"/>
<path d="M27.2915 24.1848C27.2535 23.8813 26.9273 23.851 26.7756 23.6234C26.5328 23.2592 26.3356 22.8647 26.1687 22.4626C26.1231 22.3488 26.0473 22.2047 25.9335 22.2275C25.4404 22.3413 25.6149 21.9771 25.5769 21.7647C25.6149 21.4309 25.9487 21.4461 26.1459 21.3019C26.2597 21.2564 26.3659 21.2109 26.4873 21.264C26.6163 21.5902 27.0487 21.6736 27.1094 22.053C27.5115 21.9771 27.3294 22.5992 27.7087 22.5537C27.6253 22.933 28.1639 23.0468 28.0805 23.4565C28.0577 23.5778 28.5888 23.5096 28.4067 23.8889C28.1791 24.0937 27.8301 23.9875 27.6025 24.1924L27.2915 24.1848Z" fill="#3F403F"/>
<path d="M18.8098 16.0142L20.327 16.9245C21.1387 17.4177 21.9581 17.9108 22.7698 18.4039C23.2099 18.6694 23.7485 18.7756 24.0671 19.2384C24.014 19.2991 23.9306 19.3219 23.8547 19.3143C23.4981 19.2536 23.1643 19.1322 22.8078 19.0791C22.6788 19.0639 22.5422 19.0487 22.4512 18.9274L19.6442 18.0777C19.538 18.0473 19.4242 18.017 19.3104 17.9791C19.098 17.9108 18.8856 17.8349 18.6731 17.759C18.8552 17.4404 18.5745 17.1521 18.6276 16.8487C18.6428 16.7804 18.529 16.4618 18.8932 16.5756C18.9918 16.6059 18.825 16.2114 18.8098 16.0142Z" fill="#4A4A4A"/>
<path d="M22.8458 18.9426C23.1872 19.0336 23.5437 19.0564 23.8624 19.2384C24.1127 19.5115 24.401 19.6481 24.7576 19.4584C24.9169 19.5191 25.0838 19.5722 25.1748 19.7391C25.0914 19.9743 25.319 20.035 25.4328 20.1488C25.7742 20.4978 26.1308 20.824 26.4873 21.1578L26.4873 21.2564L26.1838 21.3626C25.7514 21.3475 25.5921 20.915 25.2659 20.7405C25.1217 20.6647 25.0231 20.5205 24.9017 20.3992C24.4541 19.9591 24.4162 19.9591 23.9382 20.4143C23.8851 20.4674 23.8244 20.4978 23.7486 20.5054C23.4375 20.4523 23.2024 20.2398 22.9748 20.0578C22.6485 19.7922 22.4437 19.8833 22.2616 20.2095C22.1934 20.3385 22.1023 20.4674 22.0416 20.604C21.8899 20.8695 21.7533 21.1502 21.503 21.3475C21.0857 21.5371 20.9719 21.4764 20.9492 21.044C20.9416 20.915 20.9795 20.7785 20.9416 20.6495C20.9643 20.1412 21.0706 19.6557 21.3513 19.2233C21.5182 19.2005 21.5106 19.3598 21.5788 19.4433C21.8064 19.724 22.1402 19.7391 22.3906 19.4736C22.5499 19.3067 22.6561 19.0867 22.8458 18.9426Z" fill="#2C2D2C"/>
<path d="M24.7576 19.4584C24.6438 19.6253 24.4466 19.8074 24.2873 19.6708C24.1431 19.5495 23.7334 19.6253 23.8624 19.2384L24.0597 19.2384L24.7576 19.4584Z" fill="#212121"/>
<path d="M15.8816 23.684C15.8816 23.2819 15.8816 22.8723 15.8816 22.4702C15.8816 20.7556 15.8816 19.0411 15.8891 17.319C16.1243 17.3266 16.1092 17.539 16.1623 17.6831C16.314 18.108 16.405 18.5556 16.5719 18.9804C16.6326 19.117 16.6781 19.2611 16.7161 19.3977C17.0195 20.528 17.3306 21.6584 17.5885 22.804C17.6416 22.9785 17.6644 23.1681 17.6568 23.3502C17.6416 23.5323 17.4975 23.7599 17.3685 23.6764C17.0575 23.4716 16.9133 23.8661 16.6706 23.7978C16.4126 23.7219 16.1471 23.684 15.8816 23.684Z" fill="#4A4A4A"/>
<path d="M16.4733 19.0487C16.1698 18.5101 16.1547 17.8652 15.8816 17.319C15.8816 16.6817 15.8816 16.0445 15.8816 15.3996C15.9954 15.1113 15.8664 14.7624 16.0788 14.4968L16.3821 14.5955L16.5795 14.7017C16.6478 15.3389 16.3367 15.9079 16.2305 16.5148C16.1926 16.7576 16.1319 16.9852 16.4581 17.0686C16.9437 17.2507 16.9285 17.668 16.9209 18.0776C16.9133 18.3659 16.9057 18.6466 16.7616 18.9046C16.7009 18.9956 16.5871 19.0563 16.4733 19.0487Z" fill="#282828"/>
<path d="M16.0788 14.4968C16.0788 14.8079 16.0105 15.1189 15.8816 15.3996L15.8891 14.2997L16.0788 14.4968Z" fill="#202020"/>
<path d="M23.8624 22.5689C23.7183 22.9482 23.3162 22.9406 23.0431 23.1227C22.9141 23.2061 22.7168 23.1909 22.6485 23.3806C21.8443 23.8737 20.934 24.1468 20.1678 24.731C19.7733 25.0269 19.3257 25.3076 18.8022 25.3986C18.7795 25.3607 18.7719 25.3076 18.7871 25.2621C19.0147 24.9055 19.3864 24.6779 19.614 24.3289C19.7126 24.1696 19.8264 24.0255 19.963 23.8965C20.6989 23.1606 21.4954 22.493 22.2313 21.7647C22.7624 21.2412 23.3617 21.3702 23.6121 22.0681C23.6803 22.2426 23.9686 22.3109 23.8624 22.5689Z" fill="#4A4A4A"/>
<path d="M15.8815 26.5063C15.7828 26.3698 15.8814 26.2407 15.8814 26.1042C16.0938 25.8538 16.4049 25.8311 16.6932 25.7324C17.1559 25.5807 17.6415 25.5124 18.0739 25.2697C18.1422 25.2545 18.2181 25.2772 18.2636 25.3303C18.3546 25.429 18.4153 25.5655 18.4153 25.7021C18.2484 25.9448 17.9753 26.0283 17.7098 26.1117C17.0497 26.089 16.4504 26.2938 15.889 26.6125L15.8815 26.5063Z" fill="#2E2F2E"/>
<path d="M18.4077 25.7021L18.2029 25.3987C18.5215 25.0573 18.6429 25.0421 18.8098 25.3C18.8098 25.3304 18.8022 25.3683 18.8022 25.3986L18.4077 25.7021Z" fill="#222222"/>
<path d="M21.4347 19.2384C21.2222 19.724 21.1236 20.2399 21.0098 20.7481C20.9795 21.3702 20.7974 21.9544 20.6305 22.5461C20.5243 22.7661 20.5546 23.0544 20.3043 23.1986C20.107 23.2137 20.016 23.0544 19.887 22.9482C19.7808 22.8344 19.667 22.7206 19.5532 22.6144C19.2953 22.3641 18.9842 22.182 18.749 21.9165C18.347 21.5068 17.9449 21.1047 17.5352 20.7026C17.4062 20.513 17.1255 20.4219 17.2014 20.1185C17.3152 20.0198 17.4669 19.9819 17.6035 19.9288C17.8463 19.8529 18.089 19.7923 18.3318 19.724C19.2042 19.5267 20.0312 19.155 20.9339 19.1171L21.4347 19.0336C21.4878 19.0715 21.5029 19.155 21.4574 19.2081C21.4498 19.2233 21.4422 19.2309 21.4347 19.2384Z" fill="#FEFEFE"/>
<path d="M20.9264 19.1246C20.0692 19.4129 19.1891 19.6481 18.3015 19.8378C18.3394 19.3826 18.127 19.155 17.6794 19.1095C17.4973 19.0867 17.3153 19.0715 17.1256 19.0715C16.9663 19.064 16.807 19.0715 16.6856 18.935C16.7235 18.6088 16.7842 18.2901 16.7994 17.9639C16.8146 17.5846 16.7387 17.2963 16.3821 17.1218C16.3442 17.0687 16.2911 17.008 16.3063 16.9397C16.4428 16.2418 16.5035 15.5287 16.8904 14.899C16.9966 14.9521 17.118 14.99 17.1939 15.0659C17.3608 15.2252 17.5808 15.3011 17.376 15.6728C17.1939 16.0066 17.1711 16.4542 17.0497 16.8487C16.9435 17.2053 17.1104 17.3798 17.467 17.4632C17.687 17.5163 18.1346 17.5846 18.036 17.8198C17.8994 18.1536 18.2029 18.2598 18.1877 18.4798C18.1498 18.8895 18.1422 18.8288 18.6201 18.897C19.3864 19.0336 20.1678 18.9122 20.9264 19.1246Z" fill="#333333"/>
<path d="M21.4347 19.2384L21.4271 19.0412C21.7533 18.8591 22.1099 18.9729 22.4437 18.9274L22.8382 18.9425C22.7775 19.2156 22.6106 19.4281 22.4133 19.6026C22.2995 19.7088 22.2313 19.9743 21.9961 19.8377C21.7609 19.7012 21.3057 19.7316 21.4347 19.2384Z" fill="#1F2020"/>
<path d="M16.8904 14.899L16.3822 17.1142C16.0863 17.1218 15.9573 17.0383 16.0635 16.6969C16.2608 16.0369 16.4125 15.3617 16.587 14.6941C16.7691 14.641 16.7311 14.9142 16.8904 14.899Z" fill="#2E2F2E"/>
<path d="M17.2091 20.1639C17.3457 20.3233 17.4822 20.4826 17.6112 20.6495C17.9374 21.2943 18.3091 21.9164 18.6657 22.5461C18.7264 22.6447 18.7719 22.7585 18.7947 22.8799C18.7719 23.0089 18.8326 23.0999 18.5822 23.1606C18.0815 23.282 17.9071 23.7599 17.9677 24.2075C17.9981 24.3896 17.9981 24.5717 17.8767 24.731C17.4443 25.0648 16.9967 25.3455 16.4125 25.2317C16.2304 25.1938 16.0711 25.3683 15.8815 25.3C15.8208 24.9131 15.8587 24.5186 15.9877 24.1468C16.0484 23.9875 15.9952 23.942 15.8815 23.8813C15.8815 23.813 15.8816 23.7447 15.8816 23.684C16.056 23.5323 16.2911 23.4868 16.4656 23.593C16.8905 23.8434 17.0422 23.6385 17.1029 23.2668C17.376 23.2668 17.1181 23.7068 17.3912 23.6082C17.6643 23.5096 17.5581 23.2516 17.505 23.0392C17.2015 21.8406 16.9056 20.6343 16.6022 19.4356C16.9815 19.5191 17.0422 19.8832 17.2091 20.1639Z" fill="#3F403F"/>
<path d="M20.2209 23.1758C20.4788 23.0544 20.3347 22.7282 20.5243 22.5689C20.8733 22.1668 21.0402 21.6358 21.4347 21.2564C21.6775 21.0744 21.8064 20.8088 21.9354 20.5509C22.0947 20.4143 22.2616 20.3688 22.4133 20.5661C22.7244 20.9606 23.0506 20.9378 23.392 20.604C23.4982 20.5054 23.6348 20.5054 23.7561 20.4523L23.8548 20.3537C23.9913 20.2702 24.1658 20.1261 24.2644 20.3612C24.4238 20.733 24.7803 20.8468 25.061 21.0668C25.2734 21.2413 25.5921 21.3854 25.4707 21.7647C25.2127 22.0075 24.8714 22.0985 24.5603 22.2503C24.4389 22.311 24.31 22.3337 24.2569 22.4703C24.0444 22.1972 23.9913 22.5613 23.8548 22.5689C23.7486 22.311 23.3237 22.2199 23.4906 21.8178C23.521 21.742 23.4072 21.6889 23.3161 21.7496C23.2403 21.8027 23.1568 21.8482 23.0961 21.7571C22.7547 21.2489 22.5347 21.6282 22.292 21.8634C21.5333 22.5689 20.7747 23.282 20.016 23.9876C19.887 23.6614 20.1602 23.4489 20.2209 23.1758Z" fill="#3F403F"/>
<path d="M15.8814 25.2924C16.1393 25.1786 16.3517 24.951 16.7007 25.1938C16.8297 25.2849 17.1104 24.8979 17.3987 24.9662C17.429 24.731 17.6945 24.8221 17.7931 24.6855C17.8614 24.7614 17.9676 24.7462 18.0435 24.7993C18.1042 24.8676 18.1497 24.9435 18.1649 25.0345C18.1876 25.1255 18.1573 25.2242 18.089 25.2924C17.8918 25.6945 17.4518 25.5883 17.1407 25.7325C16.7462 25.9145 16.291 25.9828 15.8662 26.1042C15.8662 25.869 15.8662 25.6338 15.8662 25.3986C15.8814 25.3607 15.8814 25.3304 15.8814 25.2924Z" fill="#343434"/>
<path d="M25.4784 21.7647C25.395 21.2489 24.8563 21.1654 24.568 20.8468C24.4315 20.7026 24.1887 20.7102 24.1963 20.3916C24.2039 20.1943 23.9763 20.384 23.8701 20.3461C24.386 19.7392 24.4163 19.7467 24.9701 20.2778C25.3646 20.6495 25.7895 20.9985 26.1915 21.3551L25.5846 21.7572L25.4784 21.7647Z" fill="#343434"/>
<path d="M23.7561 20.4523C23.612 20.5737 23.4755 20.6874 23.3389 20.8088C22.99 21.1123 22.6486 21.0591 22.3982 20.7102C22.2541 20.5129 22.1327 20.4977 21.943 20.5509C22.4589 19.5874 22.4589 19.5874 23.3465 20.1791C23.4831 20.2702 23.6196 20.3612 23.7561 20.4523Z" fill="#343434"/>
<path d="M21.4347 21.2564C21.1843 21.7116 20.9491 22.1744 20.6912 22.6296C20.6077 22.7737 20.5471 22.6979 20.5243 22.5689C20.6229 21.9468 20.8126 21.3475 21.0098 20.7481C21.1691 20.8468 21.0402 20.9985 21.0478 21.1123C21.0705 21.4992 21.2223 21.4233 21.4347 21.2564Z" fill="#363636"/>
<path d="M17.2091 20.1639C16.8601 20.0426 16.8828 19.6102 16.587 19.4357C16.549 19.3067 16.5111 19.1777 16.4656 19.0488C16.5111 18.9729 16.5946 18.9274 16.678 18.935H17.1787C17.8236 19.2081 17.9525 19.5647 17.5884 20.0274L17.2091 20.1639Z" fill="#202020"/>
<path d="M20.2209 23.1758C20.4409 23.5172 19.9856 23.6917 20.016 23.9799L19.7125 24.382C19.5153 24.511 19.447 24.3441 19.356 24.2303C19.2953 24.1241 19.2498 24.0103 19.227 23.8889C19.2649 23.1758 19.3636 23.0316 19.9098 22.8723L20.2209 23.1758Z" fill="#212121"/>
<path d="M19.4166 24.1848C19.5228 24.2455 19.5608 24.4048 19.7125 24.382C19.4546 24.7234 19.1511 25.0345 18.8097 25.2924C18.5518 25.0193 18.4001 25.3228 18.2028 25.3911L18.1042 25.2849C18.1042 25.1862 18.1042 25.08 18.1042 24.9814C18.0511 24.7993 18.2028 24.7538 18.309 24.7007C18.6732 24.5338 19.0146 24.2986 19.4166 24.1848Z" fill="#292929"/>
<path d="M17.596 20.035C17.8691 19.5191 17.5201 19.2309 17.1863 18.9426C17.4973 18.8895 17.778 19.026 18.0815 19.0564C18.385 19.0867 18.476 19.5191 18.3015 19.8454C18.0815 19.9516 17.8463 20.0199 17.596 20.035Z" fill="#292929"/>
<path d="M19.9098 22.8723C19.538 23.1075 19.2878 23.411 19.3105 23.8814C19.2726 23.9117 19.2119 23.9117 19.174 23.8814C18.9843 23.6386 18.8326 23.3731 18.8174 23.0544C19.0146 22.4399 19.136 22.3641 19.6064 22.5689C19.7354 22.6372 19.8415 22.7433 19.9098 22.8723Z" fill="#2A2A2A"/>
<path d="M19.6064 22.5689C19.1512 22.4323 19.0071 22.7206 18.9084 23.0696C18.7112 23.1303 18.7946 22.9103 18.7112 22.8647C18.6808 22.7661 18.6429 22.6675 18.605 22.5613C18.5367 22.4627 18.4836 22.364 18.4381 22.2578C18.3698 22.0985 18.3091 21.9392 18.4457 21.795C18.5822 21.6509 18.7188 21.8406 18.8553 21.8406L19.6064 22.5689Z" fill="#303130"/>
<path d="M18.8477 21.8482C18.4229 21.7647 18.3622 21.9468 18.5139 22.2958C18.5519 22.3868 18.5746 22.4854 18.605 22.5765C18.1422 22.0302 17.907 21.3551 17.5277 20.7557C17.5201 20.7405 17.5808 20.6874 17.6112 20.6495C18.0815 20.9833 18.4684 21.4233 18.8477 21.8482Z" fill="#343434"/>
<path d="M18.7112 22.8723L18.9084 23.0771L19.2119 23.8813C19.1284 24.1165 18.9009 24.1696 18.7112 24.2606C18.4381 24.3744 18.1877 24.5565 17.9981 24.7917C17.8919 24.8448 17.7932 24.8676 17.7932 24.6931C17.8387 24.5869 17.9374 24.4731 17.8691 24.3668C17.6036 23.9572 18.1043 23.6158 17.9601 23.2137C17.9298 23.1378 18.0588 23.153 18.1422 23.1682C18.3926 23.1985 18.6429 23.1985 18.7112 22.8723Z" fill="#343434"/>
<path d="M17.9981 24.7917C17.9677 24.5641 18.0891 24.4351 18.2864 24.3365C18.5974 24.1924 18.9009 24.033 19.2043 23.8813H19.303L19.4092 24.1848C19.0678 24.6096 18.476 24.6324 18.0967 24.9889C18.0284 24.951 17.9905 24.8751 17.9981 24.7917Z" fill="#2E2F2E"/>
<path d="M39.5 20C39.5 23.8567 38.3563 27.6269 36.2137 30.8336C34.071 34.0404 31.0255 36.5397 27.4623 38.0156C23.8992 39.4916 19.9784 39.8777 16.1957 39.1253C12.4131 38.3729 8.93855 36.5157 6.21143 33.7886C3.4843 31.0615 1.62711 27.5869 0.874696 23.8043C0.122284 20.0216 0.508449 16.1008 1.98436 12.5377C3.46027 8.97451 5.95963 5.92903 9.16639 3.78634C12.3731 1.64365 16.1433 0.5 20 0.5C25.1717 0.5 30.1316 2.55446 33.7886 6.21142C37.4455 9.86838 39.5 14.8283 39.5 20Z" stroke="black" stroke-opacity="0.02"/>
</g>
<defs>
<clipPath id="clip0_1811_564">
<rect width="40" height="40" fill="white"/>
</clipPath>
</defs>
</svg>
