<svg width="40" height="40" viewBox="0 0 40 40" fill="none" xmlns="http://www.w3.org/2000/svg">
<g clip-path="url(#clip0_2732_581)">
<path d="M20 40C31 40 40 31 40 20C40 9 31 0 20 0C9 0 0 9 0 20C0 31 9 40 20 40Z" fill="black"/>
<path d="M28.1964 15.0464H25.5446C25.25 15.0464 24.9554 14.9127 24.7411 14.6986L23.6696 13.4948C23.3482 13.1471 22.8393 13.1203 22.4643 13.4146L22.3839 13.4948L21.4732 14.5381C21.1786 14.8859 20.7232 15.0732 20.2679 15.0732H5.77679C5.375 16.2502 5.10714 17.5076 5 18.7649H18.7143C18.9554 18.7649 19.1964 18.6579 19.3571 18.4974L20.6429 17.1598C20.8036 16.9993 21.0179 16.8923 21.2589 16.8923H21.3125C21.5536 16.8923 21.7946 16.9993 21.9554 17.1865L23.0268 18.3904C23.2411 18.6311 23.5357 18.7649 23.8304 18.7649H35C34.8929 17.5076 34.625 16.2502 34.2232 15.0732H28.1964V15.0464ZM19.4107 22.4298L18.3393 21.226C18.0179 20.8782 17.5089 20.8515 17.1339 21.1458L17.0536 21.226L16.1161 22.2693C15.8214 22.6171 15.3929 22.8043 14.9375 22.8043H5.21429C5.45536 24.0884 5.88393 25.3457 6.44643 26.5496H13.2768C13.5179 26.5496 13.7321 26.4426 13.9196 26.282L15.2054 24.9445C15.3661 24.784 15.5804 24.677 15.8214 24.677H15.875C16.1161 24.677 16.3571 24.784 16.5179 24.9712L17.5893 26.175C17.8036 26.4158 18.0982 26.5496 18.3929 26.5496H33.5536C34.1161 25.3725 34.5446 24.1152 34.7857 22.8043H20.2143C19.8929 22.8043 19.5982 22.6706 19.4107 22.4298ZM24.6607 10.7662L25.9464 9.42859C26.1071 9.26809 26.3214 9.16108 26.5625 9.16108H26.6161C26.8571 9.16108 27.0982 9.26809 27.2589 9.42859L28.3304 10.6324C28.5446 10.8732 28.8393 10.9802 29.1339 10.9802H32.0268C26.9911 4.34581 17.5357 3.03498 10.8661 8.03752C9.76786 8.86681 8.77679 9.85662 7.91964 10.9802H24.0179C24.2857 11.0337 24.5 10.9267 24.6607 10.7662ZM14.2946 30.2413C13.9732 30.2413 13.6786 30.1075 13.4911 29.8935L12.4196 28.6897C12.0982 28.3419 11.5625 28.3152 11.2143 28.6362L11.1607 28.6897L10.2232 29.733C9.92857 30.0808 9.5 30.268 9.04464 30.268H8.99107C14.6429 36.3139 24.2054 36.6081 30.2857 30.9101C30.5268 30.696 30.7411 30.4553 30.9821 30.2145H14.2946V30.2413Z" fill="white"/>
<path d="M39.5 20C39.5 23.8567 38.3563 27.6269 36.2137 30.8336C34.071 34.0404 31.0255 36.5397 27.4623 38.0156C23.8992 39.4916 19.9784 39.8777 16.1957 39.1253C12.4131 38.3729 8.93855 36.5157 6.21143 33.7886C3.4843 31.0615 1.62711 27.5869 0.874696 23.8043C0.122284 20.0216 0.508449 16.1008 1.98436 12.5377C3.46027 8.97451 5.95963 5.92903 9.16639 3.78634C12.3731 1.64365 16.1433 0.5 20 0.5C25.1717 0.5 30.1316 2.55446 33.7886 6.21142C37.4455 9.86837 39.5 14.8283 39.5 20Z" stroke="black" stroke-opacity="0.02"/>
</g>
<defs>
<clipPath id="clip0_2732_581">
<rect width="40" height="40" fill="white"/>
</clipPath>
</defs>
</svg>
