<svg width="40" height="40" viewBox="0 0 40 40" fill="none" xmlns="http://www.w3.org/2000/svg">
<path d="M20 40C31.0457 40 40 31.0457 40 20C40 8.9543 31.0457 0 20 0C8.9543 0 0 8.9543 0 20C0 31.0457 8.9543 40 20 40Z" fill="#F3F3F3"/>
<path fill-rule="evenodd" clip-rule="evenodd" d="M37.5 20C37.5 29.665 29.665 37.5 20 37.5C10.335 37.5 2.5 29.665 2.5 20C2.5 10.335 10.335 2.5 20 2.5C29.665 2.5 37.5 10.335 37.5 20ZM20 40C31.0457 40 40 31.0457 40 20C40 8.9543 31.0457 0 20 0C8.9543 0 0 8.9543 0 20C0 31.0457 8.9543 40 20 40ZM23.1917 26.0501C23.2489 26.2628 23.327 26.4694 23.425 26.6667H27.1917V26.4001C26.9854 25.9869 26.8394 25.5463 26.7583 25.0917C26.6553 24.4554 26.6079 23.8113 26.6167 23.1667V17.0084C26.6302 16.2491 26.4706 15.4968 26.15 14.8084C25.8478 14.183 25.4025 13.6377 24.85 13.2167C24.2612 12.7823 23.5973 12.4603 22.8917 12.2667C22.0987 12.0511 21.2801 11.9445 20.4583 11.9501C19.58 11.9367 18.7052 12.0633 17.8667 12.3251C17.1764 12.5349 16.5299 12.8681 15.9583 13.3084C15.4625 13.7048 15.0564 14.2019 14.7667 14.7667C14.5011 15.3117 14.3642 15.9104 14.3667 16.5167H18.05C18.038 16.2769 18.0779 16.0373 18.1671 15.8144C18.2563 15.5915 18.3926 15.3904 18.5667 15.2251C19.037 14.8497 19.6341 14.6706 20.2333 14.7251C20.9402 14.6785 21.6389 14.8986 22.1917 15.3417C22.424 15.5499 22.6061 15.808 22.7245 16.0967C22.8428 16.3853 22.8943 16.697 22.875 17.0084V17.8417H20.8083C18.5528 17.8417 16.8556 18.2584 15.7167 19.0917C15.1724 19.4988 14.7361 20.0328 14.4456 20.6472C14.1551 21.2616 14.0193 21.9378 14.05 22.6167C14.0421 23.2061 14.165 23.7898 14.41 24.3259C14.655 24.862 15.0159 25.337 15.4667 25.7167C15.9337 26.1129 16.4707 26.4181 17.05 26.6167C17.709 26.8316 18.3985 26.9385 19.0917 26.9334C19.5204 26.9379 19.9482 26.8932 20.3667 26.8001C20.7326 26.7253 21.09 26.6136 21.4333 26.4667C21.7482 26.3235 22.047 26.1475 22.325 25.9417C22.5833 25.7599 22.8208 25.5503 23.0333 25.3167C23.0833 25.5751 23.1333 25.8251 23.1917 26.0501ZM20.925 23.9251C20.5861 24.0209 20.2355 24.0686 19.8833 24.0667V24.0251C19.3034 24.0652 18.7303 23.8801 18.2833 23.5084C18.1142 23.3494 17.9801 23.1568 17.8897 22.943C17.7993 22.7292 17.7545 22.4988 17.7583 22.2667C17.7566 21.9537 17.822 21.644 17.95 21.3584C18.0754 21.0732 18.2738 20.826 18.525 20.6417C18.8194 20.4136 19.1611 20.2542 19.525 20.1751C20.009 20.0488 20.5082 19.9899 21.0083 20.0001H22.8667V22.5417C22.7458 22.7473 22.5972 22.9351 22.425 23.1C22.2246 23.2893 22.0005 23.4517 21.7583 23.5834C21.4956 23.7309 21.2157 23.8457 20.925 23.9251Z" fill="#222326"/>
<path d="M39.5 20C39.5 30.7696 30.7696 39.5 20 39.5C9.23045 39.5 0.5 30.7696 0.5 20C0.5 9.23045 9.23045 0.5 20 0.5C30.7696 0.5 39.5 9.23045 39.5 20Z" stroke="black" stroke-opacity="0.02"/>
</svg>
