<svg width="40" height="40" viewBox="0 0 40 40" fill="none" xmlns="http://www.w3.org/2000/svg">
<g clip-path="url(#clip0_3229_618)">
<path d="M20 40C31 40 40 31 40 20C40 9 31 0 20 0C9 0 0 9 0 20C0 31 9 40 20 40Z" fill="#213147"/>
<path d="M7.92857 14.7218V26.2782C7.92857 27.0161 8.32285 27.6983 8.96143 28.066L18.9683 33.8454C19.6069 34.2131 20.3931 34.2131 21.0317 33.8454L31.0386 28.066C31.6772 27.6983 32.0714 27.0161 32.0714 26.2782V14.7218C32.0714 13.9839 31.6772 13.3017 31.0386 12.934L21.0317 7.15457C20.3931 6.78686 19.6069 6.78686 18.9683 7.15457L8.95902 12.934C8.32043 13.3017 7.92857 13.9839 7.92857 14.7218Z" fill="#213147"/>
<path d="M22.1757 22.7822L20.7561 26.7651C20.7176 26.8758 20.7176 26.9964 20.7561 27.1072L23.1982 33.9603L26.0228 32.2913L22.6328 22.7822C22.5558 22.5631 22.2526 22.5631 22.1757 22.7822Z" fill="#12AAFF"/>
<path d="M25.0219 16.0841C24.9449 15.865 24.6417 15.865 24.5647 16.0841L23.1452 20.0669C23.1067 20.1777 23.1067 20.2983 23.1452 20.4091L27.1463 31.6291L29.971 29.9601L25.0219 16.0841Z" fill="#12AAFF"/>
<path d="M19.9976 6.92065C20.0674 6.92065 20.1372 6.941 20.1998 6.97661L30.9757 13.5526C31.1009 13.6289 31.1779 13.7714 31.1779 13.9215V27.0709C31.1779 27.2235 31.1009 27.3634 30.9757 27.4398L20.1998 34.0158C20.1396 34.0539 20.0674 34.0717 19.9976 34.0717C19.9278 34.0717 19.858 34.0514 19.7954 34.0158L9.01944 27.4449C8.89428 27.3685 8.81726 27.2261 8.81726 27.076V13.924C8.81726 13.7714 8.89428 13.6315 9.01944 13.5551L19.7954 6.97916C19.858 6.941 19.9278 6.92065 19.9976 6.92065ZM19.9976 5C19.6149 5 19.2298 5.1043 18.8856 5.31544L8.11202 11.8889C7.42363 12.3086 7 13.0845 7 13.924V27.0734C7 27.9129 7.42363 28.6888 8.11202 29.1086L18.888 35.6846C19.2322 35.8932 19.6149 36 20 36C20.3827 36 20.7678 35.8957 21.112 35.6846L31.888 29.1086C32.5764 28.6888 33 27.9129 33 27.0734V13.924C33 13.0845 32.5764 12.3086 31.888 11.8889L21.1096 5.31544C20.7654 5.1043 20.3803 5 19.9976 5Z" fill="#9DCCED"/>
<path d="M13.5 31.5189L14.1166 28.4848L15.3571 30.3381L14.1974 32.2424L13.5 31.5189Z" fill="#213147"/>
<path d="M18.9994 13.2286H16.2166C16.0082 13.2286 15.8219 13.3616 15.7508 13.5623L9.78571 30.2934L12.6641 31.9942L19.2323 13.5698C19.2936 13.4042 19.1734 13.2286 18.9994 13.2286Z" fill="white"/>
<path d="M23.8686 13.2286H21.0858C20.8774 13.2286 20.6911 13.3616 20.62 13.5623L13.8091 32.6664L16.6874 34.3671L24.1015 13.5698C24.1603 13.4042 24.0402 13.2286 23.8686 13.2286Z" fill="white"/>
<path d="M39.5 20C39.5 23.8567 38.3563 27.6269 36.2137 30.8336C34.071 34.0404 31.0255 36.5397 27.4623 38.0156C23.8992 39.4916 19.9784 39.8777 16.1957 39.1253C12.4131 38.3729 8.93855 36.5157 6.21143 33.7886C3.4843 31.0615 1.62711 27.5869 0.874696 23.8043C0.122284 20.0216 0.508449 16.1008 1.98436 12.5377C3.46027 8.97451 5.95963 5.92903 9.16639 3.78634C12.3731 1.64365 16.1433 0.5 20 0.5C25.1717 0.5 30.1316 2.55446 33.7886 6.21142C37.4455 9.86837 39.5 14.8283 39.5 20Z" stroke="black" stroke-opacity="0.02"/>
</g>
<defs>
<clipPath id="clip0_3229_618">
<rect width="40" height="40" fill="white"/>
</clipPath>
</defs>
</svg>
