<svg width="40" height="40" viewBox="0 0 40 40" fill="none" xmlns="http://www.w3.org/2000/svg">
<path d="M20 40C31 40 40 31 40 20C40 9 31 0 20 0C9 0 0 9 0 20C0 31 9 40 20 40Z" fill="#F3F3F3"/>
<path d="M29.6252 30.9983C28.6285 30.9497 27.8758 30.4981 27.4829 29.5442C26.5276 27.2291 25.5867 24.9076 24.6603 22.5798C24.5135 22.2105 24.3191 22.0881 23.9345 22.0902C21.3165 22.105 18.6986 22.1071 16.0828 22.0902C15.7085 22.0881 15.5389 22.2274 15.4025 22.5672C14.474 24.8739 13.5249 27.1721 12.5819 29.4746C12.0587 30.7492 10.7002 31.3317 9.46564 30.8083C8.25594 30.2955 7.67694 28.909 8.18357 27.6575C9.87921 23.4683 11.5852 19.2834 13.287 15.0984C14.3024 12.5997 15.3073 10.0967 16.333 7.60223C17.0733 5.80627 19.228 5.44328 20.4108 6.9058C21.0436 7.68876 21.0994 8.57302 20.7313 9.48472C19.7677 11.8716 18.7876 14.2521 17.8136 16.6348C17.5737 17.2215 17.5841 17.2405 18.2127 17.2426C20.7086 17.2426 23.2066 17.2426 25.7025 17.2426C27.1624 17.2426 27.8014 17.7217 28.3535 19.1061C29.4763 21.9214 30.5702 24.7493 31.7861 27.5245C32.5533 29.2762 31.1223 31.0827 29.6231 30.9962L29.6252 30.9983Z" fill="#5571F5"/>
<path d="M23.4138 15.7222C22.0655 15.7116 21.0141 14.6249 21.0287 13.2558C21.0434 11.9416 22.1345 10.8569 23.441 10.8611C24.7621 10.8653 25.8532 11.9942 25.8281 13.3338C25.8052 14.6691 24.7307 15.7306 23.4138 15.7222Z" fill="#E9C245"/>
<path d="M39.5 20C39.5 23.8567 38.3563 27.6269 36.2137 30.8336C34.071 34.0404 31.0255 36.5397 27.4623 38.0156C23.8992 39.4916 19.9784 39.8777 16.1957 39.1253C12.4131 38.3729 8.93855 36.5157 6.21143 33.7886C3.4843 31.0615 1.62711 27.5869 0.874696 23.8043C0.122284 20.0216 0.508449 16.1008 1.98436 12.5377C3.46027 8.97451 5.95963 5.92903 9.16639 3.78634C12.3731 1.64365 16.1433 0.5 20 0.5C25.1717 0.5 30.1316 2.55446 33.7886 6.21142C37.4455 9.86837 39.5 14.8283 39.5 20Z" stroke="black" stroke-opacity="0.02"/>
</svg>
