<svg width="40" height="40" viewBox="0 0 40 40" fill="none" xmlns="http://www.w3.org/2000/svg">
<path d="M20 40C31 40 40 31 40 20C40 9 31 0 20 0C9 0 0 9 0 20C0 31 9 40 20 40Z" fill="#F3F3F3"/>
<path d="M35.9576 18.9001C35.5132 12.4723 31.2518 6.9067 25.1343 4.84247C19.0168 2.77825 12.2457 4.58118 7.98434 9.44125C7.95819 9.46738 7.95819 9.49352 7.93205 9.51965C5.16087 12.7074 3.74913 16.862 4.03671 21.0689C4.06285 21.4869 4.11514 21.8789 4.16742 22.2969V22.3492C4.19357 22.6105 4.24585 22.8979 4.29814 23.1592C4.35043 23.3944 4.40272 23.6295 4.455 23.8647C6.44189 31.9126 14.2849 37.0862 22.4677 35.8059C30.7028 34.5255 36.5589 27.1831 35.9576 18.9001ZM32.4805 19.1353C32.559 20.2066 32.4805 21.2518 32.2975 22.2969C32.2975 22.2969 32.2975 22.2969 32.2975 22.2708C31.1472 19.4488 28.8466 17.3846 26.8336 16.261C27.2519 11.4794 25.6049 9.46739 23.7748 9.12771C23.7226 9.12771 23.6703 9.10157 23.618 9.10157C22.2063 8.99706 20.9252 10.0161 20.7422 11.4271C20.5592 12.8381 21.5265 14.1446 22.9383 14.4058C23.069 14.432 23.1997 14.432 23.3043 14.432C23.3043 14.5888 23.3304 14.7717 23.3304 14.9546C21.788 14.5626 20.1671 14.432 18.5723 14.5888C18.0233 14.6149 17.4743 14.6933 16.9515 14.7978C17.1345 13.1778 17.7358 11.3487 18.9122 10.0161C20.0886 8.6835 21.8402 8.00414 23.5918 8.18704C23.9578 8.21317 24.2977 8.31769 24.6637 8.42221L24.716 8.44834C29.1342 10.2251 32.1668 14.3797 32.4805 19.1353ZM21.3435 21.5914C20.9514 22.1663 20.4808 22.715 19.9841 23.2115C19.2259 22.4015 18.5723 21.4869 18.0756 20.494C18.0495 20.4418 18.0233 20.3895 17.9972 20.3372C17.7096 19.684 17.4482 19.0308 17.2913 18.3514C18.3632 18.0901 19.4874 17.9856 20.6115 18.0378H20.7684C21.4742 18.0901 22.1801 18.2208 22.8598 18.4037C22.5461 19.475 22.0755 20.494 21.4742 21.4347C21.3958 21.4869 21.3697 21.5392 21.3435 21.5914ZM15.8796 8.21317C13.9973 10.6432 13.3698 13.6481 13.4221 15.9475C9.05621 18.0117 8.11505 20.4418 8.74249 22.1924C8.76863 22.2447 8.76863 22.2969 8.79477 22.3492C9.39607 23.6557 10.9124 24.2566 12.2457 23.7079C13.579 23.1592 14.2326 21.6437 13.7097 20.285C13.6574 20.1805 13.6051 20.0498 13.5267 19.9453C13.6574 19.8669 13.8143 19.7624 13.9711 19.684C14.4156 21.2256 15.0953 22.6889 16.0103 23.9954C16.324 24.4396 16.6377 24.8838 17.0037 25.3018C15.4874 25.9551 13.6313 26.347 11.8797 25.9812C10.1281 25.6415 8.66406 24.4657 7.95819 22.8457C7.80133 22.506 7.69676 22.1663 7.61833 21.8005C7.56604 21.4869 7.5399 21.1995 7.51376 20.886C7.1739 15.242 10.5725 10.0684 15.8796 8.21317ZM20.8729 32.4613C17.605 32.6965 14.3633 31.599 11.8797 29.4825C14.9123 29.9006 17.8403 28.9338 19.8272 27.758C23.7748 30.5016 26.363 30.1096 27.5656 28.6725C27.5918 28.6464 27.644 28.5941 27.6702 28.5419C28.5591 27.3661 28.3238 25.6938 27.1473 24.8054C25.9709 23.917 24.2977 24.1521 23.4088 25.328C23.3304 25.4325 23.252 25.537 23.1997 25.6415C23.0428 25.5631 22.9121 25.4847 22.7553 25.4063C23.8794 24.2566 24.7944 22.924 25.448 21.4869C25.6833 20.9905 25.8924 20.494 26.0754 19.9714C27.3826 20.9382 28.6636 22.3753 29.2126 24.0737C29.7878 25.746 29.5002 27.6012 28.4545 29.0383C28.2453 29.3258 27.9839 29.6132 27.7225 29.8483C25.7617 31.3639 23.3827 32.2784 20.8729 32.4613Z" fill="url(#paint0_linear_2359_6584)"/>
<g style="mix-blend-mode:multiply" opacity="0.9">
<path d="M23.7753 9.12764C23.723 9.12764 23.6707 9.10151 23.6184 9.10151C23.357 9.07538 23.1217 9.07538 22.8602 9.10151C24.4027 9.91152 25.5007 12.2632 24.9256 16.8097C24.7426 18.2991 24.2981 19.7362 23.6184 21.0949C23.0432 22.323 22.3112 23.4727 21.4224 24.5179C21.8407 24.8314 22.2851 25.1188 22.7557 25.3801C23.8798 24.2304 24.7948 22.8978 25.4484 21.4607C26.1281 20.102 26.5464 18.6649 26.7556 17.1755C27.4353 11.7406 25.7099 9.46732 23.7753 9.12764Z" fill="url(#paint1_radial_2359_6584)"/>
</g>
<path opacity="0.8" d="M24.925 16.836C25.5001 12.2633 24.4021 9.93782 22.8596 9.12781L22.6766 9.15393C24.1668 10.0162 25.2387 12.3417 24.6635 16.836C24.4805 18.3254 24.0361 19.7625 23.3564 21.1212C22.8074 22.297 22.1015 23.4206 21.2388 24.4135C21.2911 24.4397 21.3433 24.4919 21.3956 24.518C22.2845 23.499 23.0427 22.3493 23.5917 21.1212C24.2714 19.7886 24.7158 18.3254 24.925 16.836Z" fill="#09F1FF"/>
<g style="mix-blend-mode:multiply" opacity="0.5">
<path d="M19.0952 27.2093C18.9645 27.1048 18.8338 26.9741 18.6769 26.8696C16.4286 27.8103 13.2914 28.4113 10.2065 27.6796C10.7033 28.3329 11.2784 28.9339 11.9059 29.4564C14.9385 29.8745 17.8665 28.9077 19.8534 27.7319C19.592 27.5751 19.3567 27.3922 19.0952 27.2093Z" fill="url(#paint2_radial_2359_6584)"/>
</g>
<path opacity="0.8" d="M18.6762 26.8694L18.467 26.7126C16.1926 27.6272 13.0554 28.1498 9.94434 27.392C10.0228 27.4965 10.1012 27.601 10.1796 27.7056C13.2907 28.4111 16.4279 27.8101 18.6762 26.8694Z" fill="url(#paint3_linear_2359_6584)" fill-opacity="0.5"/>
<g style="mix-blend-mode:multiply" opacity="0.9">
<path d="M8.74261 22.1661C8.76875 22.2184 8.76875 22.2707 8.79489 22.3229C8.89946 22.5581 9.03018 22.7671 9.18704 22.9762C9.13475 21.2516 10.5988 19.109 14.834 17.3322C16.2196 16.7574 17.6836 16.4177 19.1999 16.3132C20.5593 16.1825 21.9188 16.2609 23.226 16.5222C23.2782 15.9996 23.3305 15.477 23.3044 14.9283C21.7619 14.5363 20.1411 14.4057 18.5463 14.5625C17.0562 14.667 15.566 15.0067 14.1804 15.5815C9.1609 17.698 8.06288 20.311 8.74261 22.1661Z" fill="url(#paint4_radial_2359_6584)"/>
</g>
<path opacity="0.8" d="M14.8602 17.3323C10.5989 19.1091 9.161 21.2517 9.21328 22.9763C9.23943 23.0285 9.29171 23.0547 9.344 23.1069C9.344 21.3824 10.808 19.292 15.0171 17.5414C16.4027 16.9665 17.8667 16.6268 19.3569 16.5223C20.664 16.4178 21.9712 16.4701 23.2522 16.7052C23.2522 16.653 23.2522 16.5746 23.2783 16.5223C21.945 16.261 20.5856 16.1826 19.2523 16.3133C17.7098 16.4178 16.2458 16.7575 14.8602 17.3323Z" fill="url(#paint5_linear_2359_6584)"/>
<g style="mix-blend-mode:multiply" opacity="0.4">
<path d="M26.7552 17.1755C26.729 17.3584 26.7029 17.5413 26.6768 17.7242C28.6114 19.2136 30.7028 21.6175 31.6178 24.6747C31.9315 23.9169 32.1668 23.133 32.3237 22.323C31.1473 19.4749 28.8728 17.4368 26.8598 16.3132C26.8075 16.6007 26.7813 16.8619 26.7552 17.1755Z" fill="url(#paint6_radial_2359_6584)"/>
</g>
<path d="M26.6504 17.6982C26.6243 17.7766 26.6243 17.8811 26.5981 17.9595C28.5066 19.475 30.5719 21.9312 31.4346 24.9884C31.4869 24.8577 31.5392 24.7532 31.5915 24.6225C30.6765 21.6177 28.585 19.1876 26.6504 17.6982Z" fill="url(#paint7_linear_2359_6584)"/>
<g style="mix-blend-mode:multiply" opacity="0.9">
<path d="M27.5659 28.6463L27.6705 28.5157C27.8273 28.3066 27.958 28.0976 28.0365 27.8624C26.5463 28.7769 23.9843 28.5679 20.3242 25.7721C19.1216 24.8575 18.102 23.7601 17.2393 22.5059C16.455 21.4084 15.8537 20.1804 15.4093 18.9C14.9126 19.1091 14.442 19.3442 13.9976 19.6055C14.442 21.1472 15.1217 22.6104 16.0367 23.9169C16.8733 25.1711 17.8929 26.2685 19.0955 27.1831C23.4614 30.5276 26.2849 30.1618 27.5659 28.6463Z" fill="url(#paint8_radial_2359_6584)"/>
</g>
<path opacity="0.8" d="M20.2975 25.7983C23.9575 28.5942 26.5196 28.7771 28.0097 27.8887C28.0359 27.8364 28.062 27.7842 28.062 27.7319C26.5718 28.5942 24.036 28.3851 20.402 25.6154C19.1995 24.7009 18.1799 23.6034 17.3433 22.3492C16.5851 21.2779 15.9838 20.1021 15.5656 18.874L15.4087 18.9524C15.8531 20.2328 16.4544 21.4608 17.2387 22.5583C18.0753 23.7864 19.0949 24.8838 20.2975 25.7983Z" fill="#08DFFD"/>
<g style="mix-blend-mode:multiply" opacity="0.3">
<path d="M14.2329 15.5817C14.3897 15.5033 14.5727 15.451 14.7296 15.3988C15.0433 12.9687 16.089 9.96383 18.2851 7.63831C17.4746 7.74282 16.6642 7.95186 15.8799 8.21316C13.9976 10.6432 13.3701 13.6481 13.4224 15.9475C13.6577 15.8168 13.9453 15.7123 14.2329 15.5817Z" fill="url(#paint9_radial_2359_6584)"/>
</g>
<path opacity="0.8" d="M14.7295 15.3988L14.9909 15.2942C15.3308 12.8642 16.4288 9.88545 18.651 7.58606C18.5203 7.58606 18.3895 7.61219 18.285 7.63832C16.0889 9.96384 15.0432 12.9687 14.7295 15.3988Z" fill="url(#paint10_linear_2359_6584)"/>
<g style="mix-blend-mode:multiply" opacity="0.4">
<path d="M18.9382 4.05866C14.7291 4.34608 10.7815 6.27967 8.01029 9.46746L7.95801 9.54584C8.48087 10.0684 10.1802 11.0875 10.886 11.5056C12.2716 10.0162 13.9971 8.89261 15.9055 8.21325C16.0363 8.03034 16.167 7.87356 16.3238 7.69066C18.1277 5.65256 20.5852 4.58125 23.4609 4.58125C23.7747 4.58125 24.4282 4.63351 24.4544 4.63351C22.6505 4.11092 20.7943 3.92801 18.9382 4.05866Z" fill="url(#paint11_linear_2359_6584)"/>
</g>
<g style="mix-blend-mode:multiply" opacity="0.4">
<path d="M20.8725 32.4613C17.6046 32.6965 14.3628 31.5991 11.8792 29.4826C11.6701 29.4564 11.4348 29.4042 11.1995 29.3781C8.53289 28.8293 6.363 27.2354 4.92513 24.7531C4.76827 24.4918 4.63755 24.2044 4.50684 23.917C6.38915 31.4161 13.3694 36.4853 21.0816 35.9365C21.1339 35.1265 20.8986 33.2452 20.8725 32.4613Z" fill="url(#paint12_linear_2359_6584)"/>
</g>
<g style="mix-blend-mode:multiply" opacity="0.4">
<path d="M35.958 18.9C34.8077 18.9 33.6313 18.9784 32.481 19.1352C32.5594 20.2065 32.481 21.2517 32.298 22.2969C32.3764 22.5059 32.4548 22.7149 32.5333 22.924C33.396 25.5108 33.0823 28.176 31.6705 30.6583C31.5137 30.9196 31.3568 31.1809 31.1738 31.4422C34.5202 28.176 36.2979 23.5772 35.958 18.9Z" fill="url(#paint13_linear_2359_6584)"/>
</g>
<g style="mix-blend-mode:multiply" opacity="0.5">
<path d="M23.6181 8.16091C23.9841 8.18704 24.3239 8.29156 24.6899 8.39608L24.7422 8.42221C26.1017 8.97093 27.3827 9.78094 28.4807 10.7739C28.9513 10.3035 29.448 9.88546 30.0232 9.51965C28.9251 8.5006 27.5657 7.76897 26.1017 7.45542C24.4547 7.11573 20.7162 6.77605 18.3633 10.8L18.3894 10.7739C18.5724 10.5126 18.7554 10.2513 18.9646 10.0161C20.0887 8.65737 21.8403 7.97801 23.6181 8.16091Z" fill="url(#paint14_linear_2359_6584)"/>
</g>
<g style="mix-blend-mode:multiply" opacity="0.5">
<path d="M28.4804 29.0122C28.2713 29.2996 28.0098 29.587 27.7484 29.8222L27.6961 29.8483C26.5197 30.7628 25.2125 31.4683 23.8008 31.9125C23.9838 32.5396 24.0884 33.219 24.1145 33.8723C25.5524 33.4281 26.8595 32.618 27.853 31.5206C28.9771 30.2664 31.147 27.1831 28.8464 23.1592V23.1853C29.0033 23.4727 29.1079 23.7602 29.2124 24.0476C29.7876 25.7199 29.5261 27.5751 28.4804 29.0122Z" fill="url(#paint15_linear_2359_6584)"/>
</g>
<g style="mix-blend-mode:multiply" opacity="0.5">
<path d="M7.98443 22.7933C7.82757 22.4536 7.723 22.1139 7.64457 21.7481V21.6958C7.43542 20.2326 7.51385 18.7432 7.82757 17.28C7.17399 17.0971 6.54655 16.8619 5.9714 16.5483C5.63154 18.0116 5.68382 19.5271 6.12826 20.9642C6.65112 22.5581 8.24586 25.9811 12.8994 26.0072H12.8732C12.5595 25.9811 12.2458 25.9549 11.9321 25.9027C10.1805 25.5891 8.71644 24.4133 7.98443 22.7933Z" fill="url(#paint16_linear_2359_6584)"/>
</g>
<g style="mix-blend-mode:multiply" opacity="0.6">
<path d="M22.9384 14.4058C23.0691 14.432 23.1998 14.432 23.3044 14.432C23.2782 13.5958 23.1737 12.7597 23.043 11.9235C22.8338 11.0613 22.5462 10.5125 22.2325 10.199C21.9972 9.96382 21.2391 9.6764 20.6639 11.4532C20.4548 12.8642 21.4744 14.1968 22.9384 14.4058Z" fill="url(#paint17_linear_2359_6584)"/>
</g>
<g style="mix-blend-mode:multiply" opacity="0.5">
<path d="M13.7364 20.2587C13.6841 20.1542 13.6318 20.0236 13.5534 19.9191C12.8475 20.3633 12.1678 20.8859 11.5142 21.4346C10.8868 22.0355 10.5469 22.5843 10.4162 23.0285C10.3378 23.342 10.4685 24.1259 12.2724 23.7601C12.9259 23.4988 13.4488 22.9762 13.7102 22.323C13.9717 21.6697 13.9978 20.912 13.7364 20.2587Z" fill="url(#paint18_linear_2359_6584)"/>
</g>
<g style="mix-blend-mode:multiply" opacity="0.6">
<path d="M23.4089 25.3018C23.3304 25.4063 23.252 25.5108 23.1997 25.6153C23.9579 26.0073 24.716 26.347 25.5265 26.6344C26.363 26.8957 27.0166 26.8957 27.4349 26.7912C27.7748 26.7128 28.4022 26.1902 27.1473 24.8315C26.5722 24.4134 25.8663 24.2043 25.1604 24.3089C24.4546 24.3611 23.8271 24.7269 23.4089 25.3018Z" fill="url(#paint19_linear_2359_6584)"/>
</g>
<g style="mix-blend-mode:multiply" opacity="0.3">
<path d="M22.8335 18.4037C22.5198 19.475 22.0492 20.494 21.4479 21.4347C21.4218 21.487 21.3956 21.5392 21.3433 21.5653C20.9512 22.1402 20.4806 22.6889 19.9839 23.1854C20.3499 23.5773 20.7682 23.9693 21.1865 24.3089C21.6832 24.7009 22.2061 25.0406 22.7551 25.3541C23.8792 24.2044 24.7942 22.8718 25.4478 21.4347C25.6831 20.9382 25.8923 20.4418 26.0753 19.9192C25.5524 19.5272 25.0034 19.2137 24.4282 18.9524C23.9054 18.7434 23.3564 18.5605 22.8335 18.4037Z" fill="url(#paint20_linear_2359_6584)"/>
</g>
<g style="mix-blend-mode:multiply" opacity="0.3">
<path d="M11.8797 29.4565C14.9123 29.8745 17.8404 28.9078 19.8273 27.7319C19.592 27.5752 19.3567 27.3922 19.0953 27.2093C18.3371 26.6345 17.6574 25.9813 17.0299 25.2496C15.5136 25.9029 13.6575 26.2948 11.9059 25.929C10.1543 25.5893 8.69026 24.4135 7.98439 22.7935C7.82753 22.4538 7.72296 22.1141 7.64453 21.7483C8.08897 24.7532 9.57913 27.4968 11.8797 29.4565Z" fill="url(#paint21_linear_2359_6584)"/>
</g>
<g style="mix-blend-mode:multiply" opacity="0.3">
<path d="M19.9846 23.2114C19.2264 22.4014 18.5728 21.4869 18.0761 20.4939C18.05 20.4417 18.0238 20.3894 17.9977 20.3372C17.7101 19.6839 17.4487 19.0307 17.2918 18.3513C16.769 18.482 16.2461 18.6387 15.7232 18.8216C15.1481 19.0568 14.5729 19.3181 14.0239 19.6317C14.4684 21.1733 15.1481 22.6365 16.0631 23.943C16.3768 24.3872 16.6905 24.8314 17.0565 25.2495C17.6317 24.9882 18.2068 24.6746 18.7036 24.3088C19.148 23.9691 19.5663 23.6033 19.9846 23.2114Z" fill="url(#paint22_linear_2359_6584)"/>
</g>
<g style="mix-blend-mode:multiply" opacity="0.3">
<path d="M15.8799 8.21319C13.9976 10.6432 13.3701 13.6481 13.4224 15.9475C13.6839 15.8168 13.9714 15.7123 14.2329 15.5817C15.1217 15.2159 16.0367 14.9284 16.9779 14.7717C17.1609 13.1516 17.7622 11.3226 18.9386 9.98999C20.1151 8.65738 21.8405 7.97802 23.6183 8.16093C23.9843 8.18705 24.3241 8.29157 24.6901 8.39609L24.7424 8.42222C21.8928 7.27252 18.7556 7.19414 15.8799 8.21319Z" fill="url(#paint23_linear_2359_6584)"/>
</g>
<g style="mix-blend-mode:multiply" opacity="0.3">
<path d="M32.2978 22.297C31.1475 19.475 28.8469 17.4108 26.8338 16.2872C26.8077 16.5485 26.7816 16.8621 26.7293 17.1756C26.5985 18.1163 26.3894 19.057 26.0757 19.9454C27.3828 20.9121 28.6639 22.3493 29.2129 24.0477C29.788 25.72 29.5004 27.5751 28.4547 29.0123C28.2456 29.2997 27.9841 29.5871 27.7227 29.8223C30.1279 27.941 31.7488 25.2758 32.2978 22.297C32.3239 22.297 32.3239 22.297 32.2978 22.297Z" fill="url(#paint24_linear_2359_6584)"/>
</g>
<g style="mix-blend-mode:multiply" opacity="0.3">
<path d="M16.9514 16.7052C17.0298 17.2539 17.1344 17.8026 17.2651 18.3513C18.337 18.09 19.4612 17.9855 20.5853 18.0378H20.7422C21.448 18.09 22.1539 18.2207 22.8336 18.4036C22.9905 17.881 23.1212 17.3584 23.1996 16.8097C23.2781 16.2087 23.3303 15.5816 23.3303 14.9545C21.7879 14.5625 20.167 14.4319 18.5723 14.5625C18.0233 14.5887 17.4743 14.6671 16.9514 14.7716C16.873 15.3987 16.873 16.0519 16.9514 16.7052Z" fill="url(#paint25_linear_2359_6584)"/>
</g>
<path d="M39.5 20C39.5 23.8567 38.3563 27.6269 36.2137 30.8336C34.071 34.0404 31.0255 36.5397 27.4623 38.0156C23.8992 39.4916 19.9784 39.8777 16.1957 39.1253C12.4131 38.3729 8.93855 36.5157 6.21143 33.7886C3.4843 31.0615 1.62711 27.5869 0.874696 23.8043C0.122284 20.0216 0.508449 16.1008 1.98436 12.5377C3.46027 8.97451 5.95963 5.92903 9.16639 3.78634C12.3731 1.64365 16.1433 0.5 20 0.5C25.1717 0.5 30.1316 2.55446 33.7886 6.21142C37.4455 9.86837 39.5 14.8283 39.5 20Z" stroke="black" stroke-opacity="0.02"/>
<defs>
<linearGradient id="paint0_linear_2359_6584" x1="32.8883" y1="9.61783" x2="11.5942" y2="33.7987" gradientUnits="userSpaceOnUse">
<stop stop-color="#0AE2FF"/>
<stop offset="0.240681" stop-color="#04D5FE"/>
<stop offset="0.437271" stop-color="#0189F5"/>
<stop offset="1" stop-color="#BE0064"/>
</linearGradient>
<radialGradient id="paint1_radial_2359_6584" cx="0" cy="0" r="1" gradientUnits="userSpaceOnUse" gradientTransform="translate(24.5803 16.7534) scale(6.07963 6.07643)">
<stop stop-color="white"/>
<stop offset="1" stop-color="white" stop-opacity="0"/>
</radialGradient>
<radialGradient id="paint2_radial_2359_6584" cx="0" cy="0" r="1" gradientUnits="userSpaceOnUse" gradientTransform="translate(15.5893 28.026) scale(3.53773 3.53586)">
<stop stop-color="white"/>
<stop offset="1" stop-color="white" stop-opacity="0"/>
</radialGradient>
<linearGradient id="paint3_linear_2359_6584" x1="18.5088" y1="26.7325" x2="9.48951" y2="27.7787" gradientUnits="userSpaceOnUse">
<stop stop-color="#08DFFD"/>
<stop offset="1" stop-color="white" stop-opacity="0"/>
</linearGradient>
<radialGradient id="paint4_radial_2359_6584" cx="0" cy="0" r="1" gradientUnits="userSpaceOnUse" gradientTransform="translate(14.9348 17.6575) rotate(-120.013) scale(6.0769 6.0785)">
<stop stop-color="white"/>
<stop offset="1" stop-color="white" stop-opacity="0"/>
</radialGradient>
<linearGradient id="paint5_linear_2359_6584" x1="19.2939" y1="14.4518" x2="9.62543" y2="23.0795" gradientUnits="userSpaceOnUse">
<stop offset="0.016933" stop-color="#09F1FF"/>
<stop offset="1" stop-color="white" stop-opacity="0.09"/>
</linearGradient>
<radialGradient id="paint6_radial_2359_6584" cx="0" cy="0" r="1" gradientUnits="userSpaceOnUse" gradientTransform="translate(29.1974 19.7987) rotate(-120.013) scale(3.53638 3.53731)">
<stop stop-color="white"/>
<stop offset="1" stop-color="white" stop-opacity="0"/>
</radialGradient>
<linearGradient id="paint7_linear_2359_6584" x1="26.6137" y1="17.4568" x2="31.316" y2="24.6446" gradientUnits="userSpaceOnUse">
<stop stop-color="#08E3FE"/>
<stop offset="1" stop-color="#08E3FE" stop-opacity="0"/>
</linearGradient>
<radialGradient id="paint8_radial_2359_6584" cx="0" cy="0" r="1" gradientUnits="userSpaceOnUse" gradientTransform="translate(20.2564 25.2722) rotate(120.013) scale(6.07754 6.07914)">
<stop stop-color="white"/>
<stop offset="1" stop-color="white" stop-opacity="0"/>
</radialGradient>
<radialGradient id="paint9_radial_2359_6584" cx="0" cy="0" r="1" gradientUnits="userSpaceOnUse" gradientTransform="translate(15.2691 12.139) rotate(120.013) scale(3.53658 3.53752)">
<stop stop-color="white"/>
<stop offset="1" stop-color="white" stop-opacity="0"/>
</radialGradient>
<linearGradient id="paint10_linear_2359_6584" x1="16.6902" y1="7.58606" x2="15.1128" y2="15.4973" gradientUnits="userSpaceOnUse">
<stop stop-color="#08DFFD" stop-opacity="0.04"/>
<stop offset="0.975157" stop-color="#08DFFD"/>
</linearGradient>
<linearGradient id="paint11_linear_2359_6584" x1="19.1985" y1="7.51125" x2="14.3116" y2="8.93384" gradientUnits="userSpaceOnUse">
<stop stop-color="#231F20"/>
<stop offset="1" stop-color="white"/>
</linearGradient>
<linearGradient id="paint12_linear_2359_6584" x1="8.50173" y1="28.744" x2="11.7867" y2="32.177" gradientUnits="userSpaceOnUse">
<stop stop-color="#231F20"/>
<stop offset="1" stop-color="white"/>
</linearGradient>
<linearGradient id="paint13_linear_2359_6584" x1="33.6039" y1="25.5477" x2="34.9924" y2="21.3244" gradientUnits="userSpaceOnUse">
<stop stop-color="#231F20"/>
<stop offset="1" stop-color="white"/>
</linearGradient>
<linearGradient id="paint14_linear_2359_6584" x1="21.5557" y1="9.02049" x2="28.2216" y2="10.5485" gradientUnits="userSpaceOnUse">
<stop stop-color="#231F20"/>
<stop offset="1" stop-color="white"/>
</linearGradient>
<linearGradient id="paint15_linear_2359_6584" x1="27.6578" y1="27.0048" x2="24.3177" y2="30.6017" gradientUnits="userSpaceOnUse">
<stop stop-color="#231F20"/>
<stop offset="1" stop-color="white"/>
</linearGradient>
<linearGradient id="paint16_linear_2359_6584" x1="9.58498" y1="24.1611" x2="7.55815" y2="17.573" gradientUnits="userSpaceOnUse">
<stop stop-color="#231F20"/>
<stop offset="1" stop-color="white"/>
</linearGradient>
<linearGradient id="paint17_linear_2359_6584" x1="22.4545" y1="11.6172" x2="20.9441" y2="13.1304" gradientUnits="userSpaceOnUse">
<stop stop-color="#231F20"/>
<stop offset="1" stop-color="white"/>
</linearGradient>
<linearGradient id="paint18_linear_2359_6584" x1="11.3651" y1="21.5606" x2="13.8274" y2="22.219" gradientUnits="userSpaceOnUse">
<stop stop-color="#231F20"/>
<stop offset="1" stop-color="white"/>
</linearGradient>
<linearGradient id="paint19_linear_2359_6584" x1="25.8161" y1="25.9457" x2="25.5305" y2="24.8821" gradientUnits="userSpaceOnUse">
<stop stop-color="#231F20"/>
<stop offset="1" stop-color="white"/>
</linearGradient>
<linearGradient id="paint20_linear_2359_6584" x1="21.6849" y1="24.2124" x2="22.9044" y2="22.5293" gradientUnits="userSpaceOnUse">
<stop stop-color="#231F20"/>
<stop offset="1" stop-color="white"/>
</linearGradient>
<linearGradient id="paint21_linear_2359_6584" x1="16.5834" y1="24.5769" x2="14.2221" y2="25.7037" gradientUnits="userSpaceOnUse">
<stop stop-color="#231F20"/>
<stop offset="1" stop-color="white"/>
</linearGradient>
<linearGradient id="paint22_linear_2359_6584" x1="16.0782" y1="18.9462" x2="16.8591" y2="20.5689" gradientUnits="userSpaceOnUse">
<stop stop-color="#231F20"/>
<stop offset="1" stop-color="white"/>
</linearGradient>
<linearGradient id="paint23_linear_2359_6584" x1="19.4171" y1="12.8626" x2="19.0812" y2="11.7025" gradientUnits="userSpaceOnUse">
<stop stop-color="#231F20"/>
<stop offset="1" stop-color="white"/>
</linearGradient>
<linearGradient id="paint24_linear_2359_6584" x1="25.9605" y1="19.939" x2="31.52" y2="21.7662" gradientUnits="userSpaceOnUse">
<stop stop-color="#231F20"/>
<stop offset="1" stop-color="white"/>
</linearGradient>
<linearGradient id="paint25_linear_2359_6584" x1="23.05" y1="16.7049" x2="21.0098" y2="16.3347" gradientUnits="userSpaceOnUse">
<stop stop-color="#231F20"/>
<stop offset="1" stop-color="white"/>
</linearGradient>
</defs>
</svg>
