<svg width="40" height="40" viewBox="0 0 40 40" fill="none" xmlns="http://www.w3.org/2000/svg">
<g clip-path="url(#clip0_3390_269)">
<path fill-rule="evenodd" clip-rule="evenodd" d="M20 0C31.0465 0 40 8.95353 40 20C40 31.0465 31.0465 40 20 40C8.95353 40 0 31.0465 0 20C0 8.95353 8.95353 0 20 0Z" fill="#1C2724"/>
<path d="M22.7434 8H17.2553C16.6231 8 16.0471 8.37122 15.7729 8.9547L12.9671 14.925C12.6161 15.6716 13.1468 16.5378 13.9558 16.5378H17.7421C18.2687 16.5378 18.7486 16.2285 18.9777 15.742L19.9993 13.5681L25.2337 24.7044L18.1617 19.4569C17.8806 19.2488 17.5432 19.1362 17.1963 19.1362H12.0196C11.3873 19.1362 10.8114 19.5075 10.5371 20.091L7.11015 27.3872C6.75909 28.1338 7.2898 29 8.09889 29H11.8851C12.4117 29 12.8917 28.6907 13.1207 28.2042L15.9031 22.2845L23.5689 28.2646C24.1805 28.7413 24.9265 29 25.6945 29H31.9011C32.7102 29 33.2409 28.1338 32.8898 27.3872L24.2258 8.9547C23.9515 8.37122 23.3755 8 22.7434 8Z" fill="#D7FE51"/>
<path d="M39.5 20C39.5 23.8567 38.3563 27.6269 36.2137 30.8336C34.071 34.0404 31.0255 36.5397 27.4623 38.0156C23.8992 39.4916 19.9784 39.8777 16.1957 39.1253C12.4131 38.3729 8.93855 36.5157 6.21143 33.7886C3.4843 31.0615 1.62711 27.5869 0.874696 23.8043C0.122284 20.0216 0.508449 16.1008 1.98436 12.5377C3.46027 8.97451 5.95963 5.92903 9.16639 3.78634C12.3731 1.64365 16.1433 0.5 20 0.5C25.1717 0.5 30.1316 2.55446 33.7886 6.21142C37.4455 9.86837 39.5 14.8283 39.5 20Z" stroke="black" stroke-opacity="0.02"/>
</g>
<defs>
<clipPath id="clip0_3390_269">
<rect width="40" height="40" fill="white"/>
</clipPath>
</defs>
</svg>
