<svg width="40" height="40" viewBox="0 0 40 40" fill="none" xmlns="http://www.w3.org/2000/svg">
<g clip-path="url(#clip0_2411_98)">
<path fill-rule="evenodd" clip-rule="evenodd" d="M20 0C31.0465 0 40 8.95353 40 20C40 31.0465 31.0465 40 20 40C8.95353 40 0 31.0465 0 20C0 8.95353 8.95353 0 20 0Z" fill="#F3F3F3"/>
<path d="M20 15.7141L14.9286 27.1926C14.7643 27.5569 14.6714 27.8569 14.3071 27.8569H10.95C10.4714 27.8569 10.2071 27.7212 10.45 27.1926L18.6357 8.39979C18.8 8.08551 18.9071 7.85693 19.2786 7.85693H20.7286C21.0929 7.85693 21.1929 8.08551 21.3714 8.39979L29.5571 27.1855C29.7929 27.7212 29.5214 27.8569 29.0429 27.8569H25.6929C25.3286 27.8569 25.2286 27.5569 25.0714 27.1926L20 15.7069V15.7141Z" fill="#020202"/>
<path d="M20.0071 32.8573L16.6571 26.4287H23.2429L20.0071 32.8573Z" fill="#33FFFF"/>
<path d="M39.5 20C39.5 23.8567 38.3563 27.6269 36.2137 30.8336C34.071 34.0404 31.0255 36.5397 27.4623 38.0156C23.8992 39.4916 19.9784 39.8777 16.1957 39.1253C12.4131 38.3729 8.93855 36.5157 6.21143 33.7886C3.4843 31.0615 1.62711 27.5869 0.874696 23.8043C0.122284 20.0216 0.508449 16.1008 1.98436 12.5377C3.46027 8.97451 5.95963 5.92903 9.16639 3.78634C12.3731 1.64365 16.1433 0.5 20 0.5C25.1717 0.5 30.1316 2.55446 33.7886 6.21142C37.4455 9.86837 39.5 14.8283 39.5 20Z" stroke="black" stroke-opacity="0.02"/>
</g>
<defs>
<clipPath id="clip0_2411_98">
<rect width="40" height="40" fill="white"/>
</clipPath>
</defs>
</svg>
