<svg viewBox="0 0 40 40" xmlns="http://www.w3.org/2000/svg">
  <g fill="none">
    <path d="M20 40C8.954 40 0 31.046 0 20S8.954 0 20 0s20 8.954 20 20-8.954 20-20 20z" fill="#262A4D"/>
    <circle stroke-opacity=".02" stroke="#000" cx="20" cy="20" r="19.5"/>
    <path d="M21.7064 19.8352c0 .9653-.7826 1.7479-1.7479 1.7479s-1.7478-.7826-1.7478-1.7479.7825-1.7478 1.7478-1.7478 1.7479.7825 1.7479 1.7478m10.4513 7.241c-.6949.3181-2.556-.156-2.556-.156-2.4516-.6572-4.6932-1.5484-6.4568-2.3534a61.326 61.326 0 0 0 .1423-2.787 61.248 61.248 0 0 0 2.322-1.4931c5.6387 4.09 6.5501 5.9368 6.694 6.4847a.2622.2622 0 0 1-.1455.3048m-10.2465 1.9876c-.7033 3.9851-1.6884 4.824-1.6884 4.824-.2097.2797-.4195.07-.4195.07-.8445-.9788-1.2668-2.7966-1.2668-2.7966a13.0169 13.0169 0 0 1-.1876-.6697c.3325-.1721.561-.5275.561-.9383 0-.5583-.4219-1.0145-.9538-1.0467-.1754-1.1335-.3-2.368-.3874-3.6034a61.4825 61.4825 0 0 0 2.4153-1.2287 61.2751 61.2751 0 0 0 2.4622 1.2646c-.2306 2.378-.535 4.1248-.535 4.1248M12.9734 26.11c-3.8067 1.3717-5.0246.9347-5.0246.9347-.3496-.044-.2706-.3314-.2706-.3314.4286-1.2193 1.7933-2.4903 1.7933-2.4903 1.1717-1.2606 3.017-2.6559 4.9304-3.9421a61.64 61.64 0 0 0 2.2976 1.4905c.027.9443.0738 1.8609.1385 2.7412-2.1873.9887-3.8646 1.5974-3.8646 1.5974m-1.588-8.9387a1.0728 1.0728 0 0 0 .1136-.4822c0-.5792-.454-1.0487-1.0138-1.0487a.987.987 0 0 0-.604.2065c-1.9627-1.8843-2.131-2.8066-2.131-2.8066l-.0014-.0028c-.1363-.3223.151-.3999.151-.3999 1.2703-.2398 3.0545.3062 3.0545.3062 1.6783.3822 3.811 1.2803 5.8831 2.292a61.4068 61.4068 0 0 0-.1376 2.7247c-.8098.4958-1.585.995-2.3196 1.4916-1.3952-1-2.4893-1.8701-2.9948-2.2808m8.4123-11.4146a.2622.2622 0 0 1 .3363-.0266c.6236.442 1.1466 2.2897 1.1466 2.2897.6624 2.459 1.015 4.8536 1.2016 6.7867a61.3951 61.3951 0 0 0-2.4772 1.2583A61.0989 61.0989 0 0 0 17.5424 14.8c.7121-6.9293 1.852-8.6438 2.2553-9.0433m3.5076 13.0102c.7259.4331 1.1585.704 1.1585.704.207.145.4086.2873.6049.4272a44.8861 44.8861 0 0 1-1.7647 1.1557 67.2255 67.2255 0 0 0 .0013-2.2869m-2.6012-2.3175c.7368-.4102 1.1868-.6482 1.1868-.6482.2224-.1034.44-.2035.6531-.3006.066.8094.1025 1.517.1223 2.0875a67.3194 67.3194 0 0 0-1.9622-1.1387m-3.235-.901a77.717 77.717 0 0 1 1.7846.9256 67.3633 67.3633 0 0 0-1.8711 1.0742c.0108-.8411.0283-1.3485.0283-1.3485a88.172 88.172 0 0 1 .0582-.6512m-.7867 5.4723a54.5202 54.5202 0 0 1-1.6875-1.1338 77.7533 77.7533 0 0 1 1.686-1.0749 67.1994 67.1994 0 0 0 .0015 2.2087m2.6475 2.2943a54.718 54.718 0 0 1-1.8073.883 77.8736 77.8736 0 0 1-.0925-1.9818 67.2422 67.2422 0 0 0 1.8998 1.0988m3.3194-1.1497a55.1032 55.1032 0 0 1-.1419 2.1045 44.983 44.983 0 0 1-1.8791-.9456 67.2442 67.2442 0 0 0 2.021-1.1589m-.6794-.3243c-.6439.3955-1.314.7745-1.9852 1.132-.4568-.2553-.7071-.4091-.7071-.4091-.6292-.3393-1.2572-.7066-1.8698-1.0853a101.701 101.701 0 0 1-.0324-3.093 101.942 101.942 0 0 1 2.5956-1.524c1.0358.5657 1.97 1.1015 2.715 1.5387.006.4722-.0008.7357-.0008.7357.0226.7595.0176 1.5338-.0068 2.298-.4498.2674-.7085.407-.7085.407m4.4526-7.9616c.1822.1812.4295.2927.7022.2927.5045 0 .9227-.3813 1.0006-.8804 2.5912-.813 3.6432-.718 4.0108-.6171a.2622.2622 0 0 1 .1909.2796c-.07.7607-1.4158 2.1338-1.4158 2.1338-1.7956 1.7926-3.6893 3.2862-5.2694 4.4091a61.3467 61.3467 0 0 0-2.3544-1.5299 61.3806 61.3806 0 0 0-.1384-2.739c1.2499-.5564 2.3341-.9986 3.2735-1.3488m-.2241 6.0032c4.5738-3.1794 7.3833-6.1826 6.6816-7.4059-.4531-.7896-2.2844-.6897-4.8843.1102-.177-.3067-.5007-.5122-.871-.5122-.5599 0-1.0138.4695-1.0138 1.0487 0 .0382.0021.0758.006.113-.9485.36-1.9637.7897-3.0246 1.2822-.4802-5.5607-1.6867-9.5052-3.0988-9.5052-1.41 0-2.6148 3.932-3.0966 9.4787-5.041-2.3633-9.051-3.2902-9.7578-2.0678-.4423.765.4882 2.2314 2.3637 4.0052-.0204.083-.0313.17-.0313.2595 0 .5792.4538 1.0487 1.0137 1.0487a.9814.9814 0 0 0 .4016-.0857c.8549.711 1.83 1.453 2.9024 2.2052-4.5742 3.1795-7.384 6.183-6.6822 7.4063.7026 1.2247 4.7242.3086 9.7876-2.042.1076 1.246.2517 2.4107.4263 3.4682-.2649.1891-.4386.5052-.4386.8634 0 .507.3477.93.81 1.0275.5968 2.5675 1.4078 4.1461 2.3012 4.1461 1.41 0 2.615-3.9328 3.0967-9.4806 5.0428 2.3648 9.0506 3.2925 9.7576 2.0698.7075-1.2204-2.0917-4.235-6.6494-7.4333" fill="#FFF"/>
    <circle stroke-opacity=".02" stroke="#000" cx="20" cy="20" r="19.5"/>
  </g>
</svg>
