<svg width="40" height="40" viewBox="0 0 40 40" fill="none" xmlns="http://www.w3.org/2000/svg">
<g clip-path="url(#clip0_1811_567)">
<path d="M20 40C23.9556 40 27.8224 38.827 31.1114 36.6294C34.4004 34.4318 36.9638 31.3082 38.4776 27.6537C39.9913 23.9992 40.3874 19.9778 39.6157 16.0982C38.844 12.2186 36.9392 8.65492 34.1421 5.85787C31.3451 3.06082 27.7814 1.15601 23.9018 0.384303C20.0222 -0.387401 16.0009 0.00866568 12.3463 1.52242C8.69181 3.03617 5.56824 5.59962 3.37061 8.8886C1.17298 12.1776 0 16.0444 0 20C0 25.3043 2.10714 30.3914 5.85786 34.1421C9.60859 37.8929 14.6957 40 20 40Z" fill="black"/>
<path d="M31.9195 28.102L25.8287 17.6993L22.9718 12.8227L19.7374 7.30009C19.6839 7.20886 19.6069 7.13309 19.5143 7.08041C19.4216 7.02773 19.3165 7 19.2095 7C19.1024 7 18.9973 7.02773 18.9046 7.08041C18.812 7.13309 18.735 7.20886 18.6815 7.30009L12.5765 17.6916L10.0819 21.9378C10.0283 22.0291 10 22.1326 10 22.238C9.99995 22.3434 10.0281 22.447 10.0816 22.5383C10.1351 22.6296 10.2121 22.7054 10.3048 22.7582C10.3975 22.8109 10.5027 22.8387 10.6098 22.8387L15.3223 22.8416C15.4293 22.8416 15.5344 22.814 15.6272 22.7614C15.7199 22.7088 15.797 22.6332 15.8507 22.5421L18.2996 18.3724L18.6742 17.7347C18.6889 17.7101 18.7054 17.6865 18.7233 17.664C18.785 17.5869 18.8649 17.5259 18.9561 17.4863C19.0473 17.4466 19.147 17.4296 19.2465 17.4367C19.3459 17.4437 19.4421 17.4747 19.5265 17.5268C19.611 17.5789 19.6812 17.6506 19.731 17.7356L22.2723 22.0747L22.7427 22.8765C22.7683 22.9209 22.7885 22.9682 22.8027 23.0173C22.8275 23.1065 22.8311 23.2002 22.8131 23.291C22.7951 23.3818 22.756 23.4673 22.6989 23.5408C22.6418 23.6142 22.5682 23.6737 22.4839 23.7146C22.3996 23.7555 22.3068 23.7767 22.2128 23.7764L16.6691 23.773C16.5621 23.773 16.457 23.8007 16.3643 23.8533C16.2715 23.9058 16.1944 23.9814 16.1407 24.0725L13.7813 28.0884C13.7277 28.1796 13.6994 28.2831 13.6993 28.3885C13.6992 28.4938 13.7274 28.5973 13.7808 28.6886C13.8343 28.7799 13.9112 28.8557 14.0039 28.9084C14.0965 28.9611 14.2017 28.9888 14.3087 28.9889L19.1942 28.9923L25.286 28.9961L31.3901 29C31.4969 29.0001 31.6019 28.9725 31.6945 28.92C31.7871 28.8676 31.864 28.7921 31.9177 28.7012C31.9713 28.6102 31.9997 28.507 32 28.4018C32.0003 28.2966 31.9725 28.1933 31.9195 28.102Z" fill="white"/>
<path d="M39.5 20C39.5 23.8567 38.3563 27.6269 36.2137 30.8336C34.071 34.0404 31.0255 36.5397 27.4623 38.0156C23.8992 39.4916 19.9784 39.8777 16.1957 39.1253C12.4131 38.3729 8.93855 36.5157 6.21143 33.7886C3.4843 31.0615 1.62711 27.5869 0.874696 23.8043C0.122284 20.0216 0.508449 16.1008 1.98436 12.5377C3.46027 8.97451 5.95963 5.92903 9.16639 3.78634C12.3731 1.64365 16.1433 0.5 20 0.5C25.1717 0.5 30.1316 2.55446 33.7886 6.21142C37.4455 9.86838 39.5 14.8283 39.5 20Z" stroke="black" stroke-opacity="0.02"/>
</g>
<defs>
<clipPath id="clip0_1811_567">
<rect width="40" height="40" fill="white"/>
</clipPath>
</defs>
</svg>
