<svg width="40" height="40" viewBox="0 0 40 40" fill="none" xmlns="http://www.w3.org/2000/svg">
<g clip-path="url(#clip0_2859_570)">
<path d="M20 40C31 40 40 31 40 20C40 9 31 0 20 0C9 0 0 9 0 20C0 31 9 40 20 40Z" fill="#78D64B"/>
<path d="M22.2424 11.3857C22.0361 10.9669 21.7167 10.6141 21.3203 10.3675C20.9239 10.1208 20.4664 9.99008 19.9995 9.99008C19.5326 9.99008 19.0751 10.1208 18.6787 10.3675C18.2823 10.6141 17.9629 10.9669 17.7567 11.3857L10.9852 24.2286C10.7919 24.6106 10.7 25.0359 10.7183 25.4637C10.7365 25.8915 10.8643 26.3074 11.0894 26.6716C11.3146 27.0358 11.6294 27.3361 12.0039 27.5437C12.3784 27.7513 12.7999 27.8592 13.2281 27.8572H26.7709C27.1991 27.8592 27.6206 27.7513 27.9951 27.5437C28.3696 27.3361 28.6845 27.0358 28.9096 26.6716C29.1347 26.3074 29.2625 25.8915 29.2808 25.4637C29.299 25.0359 29.2071 24.6106 29.0138 24.2286L22.2424 11.3857ZM16.4781 10.7429C16.8028 10.0863 17.3046 9.53358 17.9269 9.14714C18.5491 8.76069 19.267 8.55591 19.9995 8.55591C20.732 8.55591 21.4499 8.76069 22.0722 9.14714C22.6944 9.53358 23.1962 10.0863 23.5209 10.7429L30.2924 23.5857C30.5934 24.186 30.7358 24.8534 30.7061 25.5242C30.6764 26.1951 30.4755 26.8472 30.1225 27.4186C29.7696 27.9899 29.2763 28.4614 28.6897 28.7882C28.103 29.115 27.4425 29.2863 26.7709 29.2857H13.2281C12.5565 29.2863 11.896 29.115 11.3094 28.7882C10.7227 28.4614 10.2295 27.9899 9.8765 27.4186C9.52355 26.8472 9.32265 26.1951 9.29292 25.5242C9.26319 24.8534 9.40562 24.186 9.70666 23.5857L16.4781 10.75V10.7429Z" fill="white"/>
<path d="M39.5 20C39.5 23.8567 38.3563 27.6269 36.2137 30.8336C34.071 34.0404 31.0255 36.5397 27.4623 38.0156C23.8992 39.4916 19.9784 39.8777 16.1957 39.1253C12.4131 38.3729 8.93855 36.5157 6.21143 33.7886C3.4843 31.0615 1.62711 27.5869 0.874696 23.8043C0.122284 20.0216 0.508449 16.1008 1.98436 12.5377C3.46027 8.97451 5.95963 5.92903 9.16639 3.78634C12.3731 1.64365 16.1433 0.5 20 0.5C25.1717 0.5 30.1316 2.55446 33.7886 6.21142C37.4455 9.86838 39.5 14.8283 39.5 20Z" stroke="black" stroke-opacity="0.02"/>
</g>
<defs>
<clipPath id="clip0_2859_570">
<rect width="40" height="40" fill="white"/>
</clipPath>
</defs>
</svg>
