<svg width="40" height="40" viewBox="0 0 40 40" fill="none" xmlns="http://www.w3.org/2000/svg">
<g clip-path="url(#clip0_1305_551)">
<path d="M20 40C31.0457 40 40 31.0457 40 20C40 8.9543 31.0457 0 20 0C8.9543 0 0 8.9543 0 20C0 31.0457 8.9543 40 20 40Z" fill="#E84142"/>
<path d="M9.85833 28.3333H14.2917C14.8026 28.3679 15.3158 28.3314 15.8167 28.2249C16.2008 28.1126 16.5523 27.9097 16.8417 27.6333C17.1779 27.2464 17.4584 26.8145 17.675 26.3499L23.5083 16.1833C23.7892 15.7599 24.0107 15.3001 24.1667 14.8166C24.2665 14.4313 24.2665 14.0269 24.1667 13.6416C24.0171 13.1481 23.8012 12.6771 23.525 12.2416L21.2833 8.33327C21.2615 8.29533 21.24 8.25815 21.2191 8.22174C20.7287 7.37049 20.4776 6.93477 20.15 6.77494C19.9715 6.6808 19.7727 6.63159 19.5708 6.63159C19.369 6.63159 19.1702 6.6808 18.9917 6.77494C18.6583 6.94161 18.3917 7.40827 17.8667 8.33327L8.15 25.3916C7.625 26.2999 7.38333 26.7583 7.38333 27.1333C7.39606 27.3338 7.45542 27.5287 7.55669 27.7023C7.65796 27.8759 7.79834 28.0235 7.96667 28.1333C8.57254 28.3485 9.22083 28.4171 9.85833 28.3333Z" fill="white"/>
<path d="M25 28.3334H30.125C30.7795 28.4244 31.4464 28.3528 32.0667 28.125C32.2348 28.0158 32.3746 27.8681 32.4746 27.6943C32.5746 27.5204 32.6318 27.3253 32.6417 27.125C32.6417 26.7809 32.396 26.3666 31.937 25.5923C31.8958 25.5228 31.8529 25.4505 31.8083 25.375L29.2333 20.9667C28.7083 20.0584 28.4417 19.6084 28.1083 19.4417C27.93 19.3516 27.7331 19.3047 27.5333 19.3047C27.3336 19.3047 27.1366 19.3516 26.9583 19.4417C26.626 19.6079 26.3599 20.064 25.838 20.9588L25.8333 20.9667L23.3 25.375C22.7667 26.2917 22.5167 26.75 22.5167 27.125C22.5251 27.3257 22.5818 27.5213 22.6819 27.6953C22.782 27.8694 22.9225 28.0168 23.0917 28.125C23.7014 28.3484 24.3564 28.4199 25 28.3334Z" fill="white"/>
<path d="M20 39.5833C30.8156 39.5833 39.5833 30.8155 39.5833 20C39.5833 9.18438 30.8156 0.416626 20 0.416626C9.18442 0.416626 0.416664 9.18438 0.416664 20C0.416664 30.8155 9.18442 39.5833 20 39.5833Z" stroke="black" stroke-opacity="0.02"/>
</g>
<defs>
<clipPath id="clip0_1305_551">
<rect width="40" height="40" fill="white"/>
</clipPath>
</defs>
</svg>
