<svg width="40" height="40" viewBox="0 0 40 40" fill="none" xmlns="http://www.w3.org/2000/svg">
<g clip-path="url(#clip0_3032_4292)">
<path d="M20 40C31 40 40 31 40 20C40 9 31 0 20 0C9 0 0 9 0 20C0 31 9 40 20 40Z" fill="#F3F3F3"/>
<path d="M21.3284 18.1928L28.307 11.2214L25.6641 8.57141L19.9999 14.2286L14.3499 8.57141L11.707 11.2143L18.6784 18.1928C18.8518 18.368 19.0582 18.507 19.2856 18.6019C19.513 18.6968 19.757 18.7457 20.0034 18.7457C20.2499 18.7457 20.4939 18.6968 20.7213 18.6019C20.9487 18.507 21.1551 18.368 21.3284 18.1928V18.1928ZM31.4284 25.65L25.7784 19.9928L31.4213 14.3428L28.7784 11.7L21.807 18.6714C21.6329 18.8446 21.4948 19.0506 21.4006 19.2773C21.3063 19.5041 21.2578 19.7473 21.2578 19.9928C21.2578 20.2384 21.3063 20.4816 21.4006 20.7084C21.4948 20.9351 21.6329 21.141 21.807 21.3143L28.7784 28.2928L31.4284 25.65V25.65ZM19.9999 25.7714L25.6427 31.4286L28.2927 28.7857L21.3213 21.8071C21.1474 21.6328 20.9409 21.4946 20.7136 21.4002C20.4862 21.3059 20.2425 21.2573 19.9963 21.2573C19.7501 21.2573 19.5064 21.3059 19.279 21.4002C19.0516 21.4946 18.8451 21.6328 18.6713 21.8071L11.6927 28.7786L14.3356 31.4286L19.9999 25.7714ZM18.1927 21.3286C18.3668 21.1553 18.5049 20.9494 18.5992 20.7226C18.6934 20.4959 18.7419 20.2527 18.7419 20.0071C18.7419 19.7615 18.6934 19.5184 18.5992 19.2916C18.5049 19.0648 18.3668 18.8589 18.1927 18.6857L11.2213 11.7071L8.57129 14.35L14.2284 20.0071L8.57129 25.6571L11.2141 28.3L18.1927 21.3286V21.3286Z" fill="black"/>
<path d="M39.5 20C39.5 23.8567 38.3563 27.6269 36.2137 30.8336C34.071 34.0404 31.0255 36.5397 27.4623 38.0156C23.8992 39.4916 19.9784 39.8777 16.1957 39.1253C12.4131 38.3729 8.93855 36.5157 6.21143 33.7886C3.4843 31.0615 1.62711 27.5869 0.874696 23.8043C0.122284 20.0216 0.508449 16.1008 1.98436 12.5377C3.46027 8.97451 5.95963 5.92903 9.16639 3.78634C12.3731 1.64365 16.1433 0.5 20 0.5C25.1717 0.5 30.1316 2.55446 33.7886 6.21142C37.4455 9.86837 39.5 14.8283 39.5 20Z" stroke="black" stroke-opacity="0.02"/>
</g>
<defs>
<clipPath id="clip0_3032_4292">
<rect width="40" height="40" fill="white"/>
</clipPath>
</defs>
</svg>
