<svg width="40" height="40" viewBox="0 0 40 40" fill="none" xmlns="http://www.w3.org/2000/svg">
<g clip-path="url(#clip0)">
<path d="M20 1.02664e-09C16.0405 4.00907e-05 12.1702 1.17533 8.87929 3.37696C5.58838 5.57859 3.02502 8.70749 1.51394 12.3673C0.00287271 16.027 -0.387904 20.053 0.391123 23.935C1.17015 27.8171 3.08392 31.3805 5.88998 34.174C8.69604 36.9674 12.2681 38.8651 16.1536 39.6266C20.0392 40.3881 24.0633 39.9792 27.7162 38.4516C31.3691 36.9241 34.4865 34.3466 36.6732 31.0458C38.86 27.745 40.0178 23.8694 40 19.91C39.9762 14.6213 37.8585 9.55729 34.1104 5.82601C30.3622 2.09472 25.2888 -5.35481e-05 20 1.02664e-09Z" fill="#0055D5"/>
<path fill-rule="evenodd" clip-rule="evenodd" d="M10.4517 12.4975C10.4517 12.4975 8.2217 10.7195 8.0617 15.1098C7.9117 18.5962 7.9117 25.3307 9.5417 28.4992C10.2517 29.6614 11.1017 29.3535 12.8217 28.1119C14.3017 27.0292 19.6017 22.1522 21.8217 19.9868C24.0417 17.8215 28.6717 11.7028 29.6117 15.8846C30.2658 18.2166 30.4393 20.6558 30.1217 23.0561C30.0417 24.2182 29.4917 25.1419 27.1217 23.5229C25.3317 22.3608 23.7017 21.1986 23.7017 21.1986C23.7017 21.1986 23.3817 20.6523 22.6017 21.586C21.9817 22.3608 21.6717 22.5098 22.6817 23.1355C23.6917 23.7613 28.6117 27.1087 30.4817 27.6252C32.0317 28.0821 32.8917 28.0821 32.9717 24.993C32.9717 22.5892 32.8117 15.7058 31.9717 12.7656C31.2817 10.8784 30.3517 10.1434 28.2517 12.1299C26.1517 14.1165 19.4517 20.6225 15.7817 23.5626C13.3617 25.3505 12.3517 26.9696 11.4117 23.95C10.7917 21.7052 9.9317 14.5933 12.5817 15.9044C14.2217 16.6792 15.0817 16.6792 14.3817 17.146C13.6817 17.6129 11.8817 19.3114 11.8817 19.3114C11.7036 19.5072 11.581 19.7465 11.5266 20.0048C11.4721 20.2631 11.4877 20.5311 11.5717 20.7814C11.8017 21.4767 11.8017 21.7747 13.2817 20.4735C14.7617 19.1723 15.7817 18.1492 15.7817 18.1492C15.7817 18.1492 16.0117 17.7619 16.7117 18.4572C17.0011 18.714 17.2625 19.0003 17.4917 19.3114C17.4917 19.3114 17.6517 19.7782 18.4317 18.924C19.2117 18.0698 19.6017 17.5334 18.2717 16.7586C16.7117 15.9839 10.4517 12.4975 10.4517 12.4975Z" fill="white"/>
<path opacity="0.02" d="M20.0043 1C24.3999 1.0023 28.6588 2.52861 32.0552 5.31888C35.4517 8.10914 37.7756 11.9907 38.6311 16.3023C39.4865 20.6139 38.8206 25.0887 36.7467 28.9643C34.6728 32.84 31.3193 35.8766 27.2575 37.5569C23.1957 39.2373 18.677 39.4573 14.4712 38.1795C10.2654 36.9017 6.63272 34.2052 4.19213 30.5494C1.75154 26.8936 0.654029 22.5046 1.08658 18.1303C1.51913 13.756 3.45498 9.66703 6.5643 6.56C8.32962 4.79599 10.4251 3.39704 12.7312 2.44304C15.0373 1.48904 17.5087 0.998694 20.0043 1ZM20.0043 4.56507e-07C15.3771 -0.000987761 10.8928 1.60248 7.31535 4.53718C3.7379 7.47188 1.28871 11.5562 0.385099 16.0943C-0.518514 20.6324 0.179362 25.3434 2.35981 29.4246C4.54027 33.5058 8.06838 36.7047 12.343 38.4762C16.6176 40.2477 21.3742 40.4822 25.8024 39.1398C30.2305 37.7974 34.0562 34.9611 36.6276 31.1142C39.1989 27.2673 40.3568 22.6478 39.904 18.0428C39.4512 13.4379 37.4157 9.13239 34.1443 5.86C30.3944 2.10901 25.3082 0.0011332 20.0043 4.56507e-07Z" fill="black"/>
</g>
<defs>
<clipPath id="clip0">
<rect width="40" height="40" fill="white"/>
</clipPath>
</defs>
</svg>
