<svg width="40" height="40" viewBox="0 0 40 40" fill="none" xmlns="http://www.w3.org/2000/svg">
<path d="M20 40C31 40 40 31 40 20C40 9 31 0 20 0C9 0 0 9 0 20C0 31 9 40 20 40Z" fill="#F3F3F3"/>
<path d="M27.1995 20.0634H30.6857C30.7691 20.0634 30.849 20.0302 30.9079 19.9711C30.9669 19.9121 31 19.832 31 19.7484V17.2284C31 17.1449 30.9669 17.0647 30.9079 17.0057C30.849 16.9466 30.7691 16.9134 30.6857 16.9134H25.8003L21.9514 8.24917C21.9184 8.17499 21.8647 8.11198 21.7968 8.06776C21.7289 8.02354 21.6496 8 21.5686 8H18.4314C18.3504 8 18.2711 8.02354 18.2032 8.06776C18.1353 8.11198 18.0816 8.17499 18.0486 8.24917L14.1998 16.9134H9.31429C9.23093 16.9134 9.15099 16.9466 9.09205 17.0057C9.03311 17.0647 9 17.1449 9 17.2284V19.7484C9 19.832 9.03311 19.9121 9.09205 19.9711C9.15099 20.0302 9.23093 20.0634 9.31429 20.0634H12.8005L9.02756 28.5568C9.00625 28.6048 8.99724 28.6574 9.00135 28.7097C9.00546 28.762 9.02256 28.8125 9.05109 28.8565C9.07962 28.9006 9.11868 28.9368 9.16472 28.9618C9.21075 28.9869 9.26231 29 9.31469 29H12.1205C12.2015 29 12.2807 28.9765 12.3487 28.9322C12.4166 28.888 12.4703 28.825 12.5033 28.7508L20 11.8746L27.4967 28.7508C27.5297 28.825 27.5834 28.888 27.6513 28.9322C27.7193 28.9765 27.7985 29 27.8795 29H30.6854C30.7377 29 30.7893 28.9869 30.8353 28.9618C30.8814 28.9368 30.9204 28.9006 30.9489 28.8566C30.9775 28.8125 30.9946 28.7621 30.9987 28.7097C31.0028 28.6574 30.9938 28.6048 30.9725 28.5569L27.1995 20.0634Z" fill="black"/>
<path d="M39.5 20C39.5 23.8567 38.3563 27.6269 36.2137 30.8336C34.071 34.0404 31.0255 36.5397 27.4623 38.0156C23.8992 39.4916 19.9784 39.8777 16.1957 39.1253C12.4131 38.3729 8.93855 36.5157 6.21143 33.7886C3.4843 31.0615 1.62711 27.5869 0.874696 23.8043C0.122284 20.0216 0.508449 16.1008 1.98436 12.5377C3.46027 8.97451 5.95963 5.92903 9.16639 3.78634C12.3731 1.64365 16.1433 0.5 20 0.5C25.1717 0.5 30.1316 2.55446 33.7886 6.21142C37.4455 9.86837 39.5 14.8283 39.5 20Z" stroke="black" stroke-opacity="0.02"/>
</svg>
