<svg xmlns="http://www.w3.org/2000/svg" viewBox="0 0 40 40">
  <g fill="none">
    <path fill="#2B2B2B" fill-rule="nonzero" d="M20.0047164,0.0458838806 C8.96937313,0.0458838806 0.0307252537,8.98453731 0.0307252537,20.0198806 C0.0307252537,31.0552239 8.96937313,39.9939104 20.0047164,39.9939104 C31.0315821,39.9939104 39.9787463,31.0552239 39.9787463,20.0198806 C39.9787463,8.98453731 31.0315821,0.0458838806 20.0047164,0.0458838806 Z"/>
    <path fill="#FFF" d="M29.1202073,20.9523496 C31.5136442,21.8639212 33,23.134733 33,24.5357693 C33,27.3198798 27.1803109,29.5741112 20,29.5741112 C12.8196891,29.5741112 7,27.4994998 7,24.7198349 C7,23.269448 8.5851468,21.9627123 11.1222798,21.0421596 C13.1025907,22.3129713 16.4255613,22.964094 20.1930915,22.964094 C23.8708117,22.964094 27.1219344,22.1692753 29.1202073,20.9523496 Z M26.4393872,15.6176076 C28.5768656,16.3181257 29.9330003,17.3599668 29.9330003,18.5274971 C29.9374874,20.6334971 25.523325,22.3398874 20.0763475,22.3398874 C14.6338604,22.3398874 10.2196981,20.6334971 10.2196981,18.5274971 C10.2196981,17.3599668 11.5803199,16.3136352 13.7133078,15.6176076 C15.2355876,16.4124263 17.516762,16.9198528 20.0763475,16.9198528 C22.635933,16.9198528 24.9171074,16.4124263 26.4393872,15.6176076 Z M20.0404325,10 C24.2479869,10 27.6607675,11.4100173 27.6607675,13.1433506 C27.6607675,14.8766839 24.2479869,16.2867012 20.0404325,16.2867012 C15.8328332,16.2867012 12.4200525,14.8766839 12.4200525,13.1433506 C12.4200525,11.4100173 15.8328332,10 20.0404325,10 Z"/>
    <circle cx="20" cy="20" r="19.5" stroke="#000" stroke-opacity=".02"/>
  </g>
</svg>
