<svg width="40" height="40" viewBox="0 0 40 40" fill="none" xmlns="http://www.w3.org/2000/svg">
<g clip-path="url(#clip0_1920_598)">
<path d="M20 40C23.9556 40 27.8224 38.827 31.1114 36.6294C34.4004 34.4318 36.9638 31.3082 38.4776 27.6537C39.9913 23.9992 40.3874 19.9778 39.6157 16.0982C38.844 12.2186 36.9392 8.65492 34.1421 5.85787C31.3451 3.06082 27.7814 1.15601 23.9018 0.384303C20.0222 -0.387401 16.0009 0.00866568 12.3463 1.52242C8.69181 3.03617 5.56824 5.59962 3.37061 8.8886C1.17298 12.1776 0 16.0444 0 20C0 25.3043 2.10714 30.3914 5.85786 34.1421C9.60859 37.8929 14.6957 40 20 40Z" fill="#3D2EDD"/>
<path d="M28.616 15.6175C28.616 13.9103 27.7571 12.3993 26.4368 11.4716L30 8L27.8699 8.00956L25.038 10.7687C24.5129 10.5965 23.9534 10.5057 23.3693 10.5057H13.6221V23.957L25.3571 12.5236C26.4123 13.1692 27.119 14.3168 27.119 15.6222C27.119 17.6354 25.4356 19.2756 23.3693 19.2756H23.0601L10 32H12.1202L14.6822 29.5039H23.3693C26.265 29.5039 28.616 27.2086 28.616 24.3921C28.616 22.532 27.5902 20.9062 26.0638 20.012C27.5902 19.1082 28.616 17.4776 28.616 15.6175ZM15.119 20.428V11.9641H23.3693C23.5117 11.9641 23.6491 11.9737 23.7865 11.988L15.119 20.428ZM27.119 24.3825C27.119 26.3957 25.4356 28.0359 23.3693 28.0359H16.1791L23.6491 20.7579C25.5828 20.9014 27.119 22.465 27.119 24.3825Z" fill="white"/>
<path d="M39.5 20C39.5 23.8567 38.3563 27.6269 36.2137 30.8336C34.071 34.0404 31.0255 36.5397 27.4623 38.0156C23.8992 39.4916 19.9784 39.8777 16.1957 39.1253C12.4131 38.3729 8.93855 36.5157 6.21143 33.7886C3.4843 31.0615 1.62711 27.5869 0.874696 23.8043C0.122284 20.0216 0.508449 16.1008 1.98436 12.5377C3.46027 8.97451 5.95963 5.92903 9.16639 3.78634C12.3731 1.64365 16.1433 0.5 20 0.5C25.1717 0.5 30.1316 2.55446 33.7886 6.21142C37.4455 9.86837 39.5 14.8283 39.5 20Z" stroke="black" stroke-opacity="0.02"/>
</g>
<defs>
<clipPath id="clip0_1920_598">
<rect width="40" height="40" fill="white"/>
</clipPath>
</defs>
</svg>
