<svg width="40" height="40" viewBox="0 0 40 40" fill="none" xmlns="http://www.w3.org/2000/svg">
<g clip-path="url(#clip0_4389_65)">
<path fill-rule="evenodd" clip-rule="evenodd" d="M40 20C40 23.9556 38.827 27.8224 36.6294 31.1114C34.4318 34.4004 31.3082 36.9638 27.6537 38.4776C23.9992 39.9913 19.9778 40.3874 16.0982 39.6157C12.2186 38.844 8.65492 36.9392 5.85787 34.1421C3.06082 31.3451 1.15601 27.7814 0.384303 23.9018C-0.387401 20.0222 0.00866568 16.0009 1.52242 12.3463C3.03617 8.69181 5.59962 5.56824 8.8886 3.37061C12.1776 1.17298 16.0444 0 20 0C25.3043 0 30.3914 2.10714 34.1421 5.85786C37.8929 9.60859 40 14.6957 40 20Z" fill="#F1EEE9"/>
<path d="M15.3071 18.0357C11.7143 16.0929 10.75 11.8714 10.7143 10H15.3071C15.2802 11.0351 15.6043 12.0489 16.2269 12.8764C16.8494 13.7038 17.7337 14.2962 18.7357 14.5571L15.3071 18.0357ZM29.2714 10H24.6643C24.7148 10.5619 24.6482 11.1281 24.4687 11.6629C24.2892 12.1978 24.0007 12.6895 23.6214 13.1071L13.2643 23.6929C11.6924 25.4223 10.8016 27.6634 10.7571 30H15.3571C15.3714 28.2143 16.6143 26.6214 17.2357 26.0571L26.7357 16.4C27.5628 15.5555 28.2131 14.5545 28.6485 13.4555C29.0839 12.3566 29.2957 11.1818 29.2714 10ZM29.2857 30C29.25 28.1286 28.2857 23.9071 24.6929 21.9643L21.2643 25.4429C22.2663 25.7038 23.1506 26.2962 23.7731 27.1236C24.3957 27.9511 24.7198 28.9649 24.6929 30H29.2857ZM17.6786 30C17.6786 28.8143 18.7143 27.8571 19.9714 27.8571C21.2286 27.8571 22.2643 28.8143 22.2643 30H17.6786ZM19.9714 12.1429C18.7143 12.1429 17.6786 11.1857 17.6786 10H22.2643C22.2643 11.1857 21.2286 12.1429 19.9786 12.1429H19.9714Z" fill="black"/>
<path opacity="0.02" d="M20 1C24.3957 1.0023 28.6545 2.52861 32.051 5.31888C35.4474 8.10914 37.7714 11.9907 38.6268 16.3023C39.4823 20.6139 38.8163 25.0887 36.7424 28.9643C34.6685 32.84 31.315 35.8766 27.2532 37.557C23.1915 39.2373 18.6727 39.4573 14.4669 38.1795C10.2611 36.9017 6.62844 34.2052 4.18786 30.5494C1.74727 26.8936 0.649757 22.5046 1.08231 18.1303C1.51485 13.756 3.4507 9.66703 6.56003 6.56C8.32534 4.79599 10.4209 3.39704 12.7269 2.44304C15.033 1.48904 17.5044 0.998695 20 1V1ZM20 4.56507e-07C15.3729 -0.000987761 10.8885 1.60248 7.31107 4.53718C3.73363 7.47188 1.28444 11.5562 0.380826 16.0943C-0.522786 20.6324 0.17509 25.3434 2.35554 29.4246C4.53599 33.5058 8.06411 36.7047 12.3387 38.4762C16.6133 40.2477 21.37 40.4822 25.7981 39.1398C30.2263 37.7974 34.0519 34.9611 36.6233 31.1142C39.1947 27.2673 40.3526 22.6478 39.8998 18.0428C39.447 13.4379 37.4114 9.13239 34.14 5.86C30.3902 2.10901 25.3039 0.0011332 20 4.56507e-07V4.56507e-07Z" fill="black"/>
</g>
<defs>
<clipPath id="clip0_4389_65">
<rect width="40" height="40" fill="white"/>
</clipPath>
</defs>
</svg>
