<svg viewBox="0 0 40 40" xmlns="http://www.w3.org/2000/svg">
  <g fill="none">
    <circle fill="#8DC351" cx="20" cy="20" r="20"/>
    <circle stroke-opacity=".02" stroke="#000" cx="20" cy="20" r="19.5"/>
    <path d="M22.7939 15.2676c.692 2.418-3.184 3.225-4.393 3.571l-1.225-4.274c1.208-.346 4.894-1.818 5.618.704v-.001zm2.902 6.362c.763 2.659-3.875 3.661-5.325 4.079l-1.351-4.712c1.45-.417 5.88-2.138 6.675.634l.001-.001zm.813-8.462c-.97-2.465-3.403-2.688-6.235-2.138l-1.009-3.516-2.14.614.982 3.425c-.562.16-1.134.338-1.703.512l-.988-3.447-2.139.612 1.007 3.517c-.46.142-.913.282-1.356.41l-.004-.013-2.953.847.656 2.287s1.573-.485 1.554-.448c.868-.249 1.294.174 1.5.585l1.15 4.005c.059-.016.138-.036.23-.049l-.226.064 1.609 5.613c.04.283.005.765-.6.94.033.016-1.558.445-1.558.445l.309 2.679 2.785-.8c.519-.147 1.031-.284 1.533-.425l1.021 3.556 2.137-.613-1.008-3.518c.573-.152 1.145-.311 1.714-.476l1.003 3.504 2.141-.613-1.018-3.551c3.539-1.238 5.798-2.867 5.142-6.337-.527-2.792-2.155-3.64-4.339-3.545 1.061-.987 1.517-2.322.803-4.125v-.001z" fill="#FFF"/>
  </g>
</svg>
