<svg width="40" height="40" viewBox="0 0 40 40" fill="none" xmlns="http://www.w3.org/2000/svg">
<path d="M20 40C31 40 40 31 40 20C40 9 31 0 20 0C9 0 0 9 0 20C0 31 9 40 20 40Z" fill="black"/>
<path d="M23 9.87995C22.26 9.45995 21.4 9.19995 20.5 9.19995H15.5C16.88 9.19995 18 10.32 18 11.7V16.7V19.2H20.5C21.42 19.2 22.26 18.9599 23 18.5199C23.56 18.1999 24.04 17.78 24.42 17.28C25.1 16.42 25.5 15.36 25.5 14.18C25.5 12.36 24.5 10.74 23 9.87995Z" fill="#D85111"/>
<path d="M24.42 17.3C24.02 17.8 23.54 18.22 23 18.54C22.26 18.96 21.4 19.22 20.5 19.22H18L18 16.7V11.7C18 10.32 16.88 9.19995 15.5 9.19995C14.12 9.19995 13 10.32 13 11.7V29.2H21.74C22.18 29.2 22.58 29.16 22.98 29.08C25.84 28.5 27.98 25.98 27.98 22.96C28 20.46 26.54 18.3 24.42 17.3Z" fill="white"/>
<path d="M39.5 20C39.5 23.8567 38.3563 27.6269 36.2137 30.8336C34.071 34.0404 31.0255 36.5397 27.4623 38.0156C23.8992 39.4916 19.9784 39.8777 16.1957 39.1253C12.4131 38.3729 8.93855 36.5157 6.21143 33.7886C3.4843 31.0615 1.62711 27.5869 0.874696 23.8043C0.122284 20.0216 0.508449 16.1008 1.98436 12.5377C3.46027 8.97451 5.95963 5.92903 9.16639 3.78634C12.3731 1.64365 16.1433 0.5 20 0.5C25.1717 0.5 30.1316 2.55446 33.7886 6.21142C37.4455 9.86837 39.5 14.8283 39.5 20Z" stroke="black" stroke-opacity="0.02"/>
</svg>
