<svg width="40" height="40" viewBox="0 0 40 40" fill="none" xmlns="http://www.w3.org/2000/svg">
<g clip-path="url(#clip0_3757_386)">
<path fill-rule="evenodd" clip-rule="evenodd" d="M20 0C31.0465 0 40 8.95353 40 20C40 31.0465 31.0465 40 20 40C8.95353 40 0 31.0465 0 20C0 8.95353 8.95353 0 20 0Z" fill="#F3F3F3"/>
<path d="M29.2981 19.9018C29.3224 25.8678 24.4326 30.583 18.584 30.2347C14.3313 29.9821 10.6953 26.9766 9.48598 22.667C9.32707 22.1016 9.08871 21.8599 8.51503 21.9064C8.06929 21.9419 7.61816 21.9036 7.16972 21.9241C6.72666 21.9446 6.50312 22.1604 6.63644 22.6397C6.79265 23.2077 6.91789 23.7867 7.10912 24.3425C7.21685 24.6566 7.21012 24.8627 6.98118 25.1331C5.80554 26.526 5.82305 26.5301 6.81689 28.1195C6.97445 28.3708 7.17106 28.4514 7.42558 28.4541C7.55621 28.4541 7.69491 28.4227 7.81881 28.3763C8.76013 28.0199 9.33246 28.3954 10.0637 29.0877C10.9714 29.948 11.3807 30.7209 10.9242 31.898C10.9 31.9594 10.8838 32.04 10.904 32.0987C11.1585 32.8456 11.9409 32.8921 12.4621 33.2853C12.7799 33.5257 13.1583 33.426 13.3738 33.142C14.1347 32.1383 15.0504 32.141 16.0712 32.6313C16.0914 32.6408 16.1129 32.6545 16.1345 32.6545C17.17 32.6449 17.64 33.2457 17.7922 34.2112C17.8865 34.8079 18.2514 35.0633 18.8426 34.9868C18.887 34.9813 18.9328 34.9868 18.9773 34.9868C20.398 34.9868 20.4263 34.9977 20.8707 33.6226C21.0579 33.0436 21.373 32.7719 21.9507 32.7132C22.282 32.6804 22.6469 32.6449 22.9243 32.4824C23.6839 32.0386 24.2212 32.3104 24.7962 32.8538C25.5894 33.6035 25.6285 33.5735 26.5267 33.0027C27.5973 32.3226 27.6242 32.3172 27.3818 31.0404C27.2646 30.4246 27.305 29.9644 27.8841 29.5943C28.2356 29.3704 28.5628 29.0454 28.7877 28.6917C29.119 28.1687 29.5284 28.1018 30.0549 28.2479C30.2919 28.3134 30.5424 28.3326 30.7767 28.4077C31.244 28.5551 31.5645 28.4131 31.7544 27.9598C31.7625 27.9393 31.776 27.9202 31.7867 27.8997C32.5705 26.5246 32.5867 26.5109 31.6009 25.2847C31.2535 24.8532 31.2185 24.4613 31.4272 23.9779C31.5524 23.6898 31.6898 23.3716 31.6898 23.0684C31.6857 22.073 32.2823 21.6838 33.1159 21.5268C33.7906 21.3998 34.0141 21.0311 33.9993 20.336C33.9589 18.4707 34.1151 18.8845 32.5732 18.3137C32.0924 18.1361 31.8204 17.9259 31.7787 17.3865C31.749 17.0068 31.6763 16.6013 31.5066 16.2681C31.1175 15.5061 31.3693 14.9586 31.9026 14.3987C32.65 13.6162 32.6271 13.5958 32.0951 12.6508C31.9847 12.4542 31.8851 12.2507 31.7787 12.0527C31.5726 11.6731 31.275 11.4833 30.836 11.5952C30.7054 11.628 30.5734 11.6553 30.4455 11.6977C29.6711 11.9585 29.1486 11.7482 28.5386 11.1159C27.6983 10.2461 27.002 9.49233 27.5246 8.18142C27.6754 7.8018 27.4586 7.47681 27.0667 7.31704C27.0249 7.30065 26.9872 7.27471 26.9482 7.25286C25.5813 6.49499 25.5665 6.47724 24.3868 7.51914C24.0448 7.82092 23.7647 7.86325 23.3687 7.70075C22.9971 7.54782 22.5998 7.38395 22.2093 7.37029C21.3353 7.34162 20.9717 6.85276 20.7818 6.06621C20.697 5.718 20.6566 5.24962 20.2054 5.14311C19.5496 4.98744 18.8574 4.91371 18.2245 5.1595C17.7639 5.33839 17.7532 5.91191 17.6373 6.33249C17.4838 6.88963 17.2535 7.2433 16.6273 7.28836C16.2328 7.31704 15.8113 7.40853 15.4638 7.59288C14.6895 8.00254 14.1454 7.66661 13.666 7.11221C13.1705 6.53869 12.6641 6.49909 12.0837 6.95654C11.9611 7.05213 11.8171 7.12723 11.6716 7.18322C10.9996 7.4454 10.8071 7.94518 11.0373 8.59791C11.3188 9.39674 11.2326 10.0467 10.4502 10.4933C10.3936 10.526 10.3411 10.5779 10.3048 10.6339C9.64623 11.6553 8.80726 12.1223 7.59796 11.6075C7.2761 11.471 6.98253 11.6157 6.82093 11.9598C6.78322 12.0418 6.72532 12.1142 6.68088 12.192C5.74629 13.8265 5.75841 13.5684 6.81285 14.6622C7.19261 15.0569 7.25725 15.4201 7.04178 15.9294C6.84921 16.3828 6.79534 16.8935 6.6526 17.3701C6.50716 17.8535 6.72532 18.0528 7.1576 18.1129C7.26802 18.128 7.38114 18.1184 7.49292 18.1198C9.16682 18.1293 9.12642 18.1129 9.74454 16.5412C11.3363 12.4979 14.2882 10.1847 18.5665 9.81186C22.5702 9.46365 26.4513 11.7851 28.2383 15.446C28.9197 16.8416 29.3385 18.3205 29.3035 19.9018H29.2981ZM30.2085 19.4238C30.1048 18.3628 29.9149 16.9358 29.2968 15.5703C28.1912 13.1315 26.5307 11.2511 24.1633 10.0577C20.7683 8.34665 17.3801 8.41083 14.0229 10.2106C11.3376 11.6512 9.57351 13.8511 8.69145 16.7884C8.63354 16.9823 8.54601 17.1024 8.34266 17.1475C7.81746 17.2649 7.56294 16.9946 7.85517 16.4347C8.41538 15.3573 8.19318 14.5284 7.32054 13.7869C7.14682 13.6394 6.9758 13.4442 7.1549 13.2025C7.33132 12.9635 7.4175 12.5907 7.83362 12.6399C8.07737 12.6686 8.32919 12.6576 8.56217 12.7232C9.25166 12.9157 9.79571 12.7614 10.166 12.1142C10.3155 11.852 10.5498 11.6867 10.7801 11.501C11.6945 10.765 12.6345 10.0331 11.9638 8.61156C11.8036 8.27291 12.0527 8.08856 12.3207 7.91241C12.5981 7.73079 12.8311 7.65159 13.1031 7.90012C13.3186 8.09676 13.561 8.26335 13.7765 8.45999C14.0956 8.75221 14.4027 8.86419 14.8673 8.73446C15.8099 8.47228 16.727 8.0913 17.7128 8.00527C18.0198 7.97932 18.1154 7.74855 18.2056 7.51504C18.3524 7.13952 18.5154 6.76673 18.6164 6.37755C18.716 5.99521 18.9638 5.96926 19.2762 5.95834C19.6196 5.94741 19.8162 6.06348 19.9065 6.41852C19.9846 6.72303 20.1852 7.0016 20.2351 7.30611C20.3414 7.96703 20.7778 8.11178 21.3299 8.13772C21.8012 8.15957 22.2928 8.20327 22.6981 8.42312C23.6973 8.96387 24.5605 8.92973 25.2837 7.97932C25.6096 7.55191 25.9005 7.78132 26.2466 7.95338C26.6465 8.15138 26.5671 8.41493 26.4822 8.74402C26.3987 9.07038 26.3718 9.41176 26.3287 9.74768C26.2883 10.0563 26.3314 10.3349 26.6129 10.5301C27.1704 10.9207 27.6188 11.4177 28.0363 11.9571C28.5696 12.6453 29.1756 13.1997 30.1303 12.6658C30.2435 12.603 30.3903 12.6071 30.5182 12.5675C30.8899 12.4514 31.0555 12.6918 31.1902 12.969C31.3127 13.2202 31.5417 13.4565 31.2333 13.7569C30.9936 13.9904 30.8279 14.3058 30.5801 14.527C30.1936 14.8698 30.1748 15.2385 30.3458 15.6891C30.5061 16.1111 30.7027 16.5426 30.7458 16.9836C30.8616 18.1826 31.2306 19.1248 32.5826 19.2955C33.0863 19.3583 33.0405 19.7379 33.062 20.1134C33.0849 20.5026 32.9637 20.702 32.5719 20.7552C32.3779 20.7812 32.2002 20.9287 32.0063 20.9573C31.2602 21.0679 30.9262 21.5268 30.9087 22.2519C30.9006 22.5768 30.8239 22.8704 30.7013 23.1695C30.2906 24.1773 29.9364 25.1864 31.034 26.0221C31.1188 26.0863 31.1754 26.1996 31.2252 26.2993C31.4784 26.8168 31.1444 27.3835 30.5774 27.3849C30.3566 27.3849 30.133 27.3467 29.9162 27.2975C29.2604 27.1514 28.6827 27.2019 28.2491 27.8205C27.7939 28.4705 27.2404 29.0304 26.6048 29.5028C26.3328 29.7049 26.2856 29.9849 26.3314 30.2921C26.3826 30.6267 26.4364 30.9612 26.5132 31.2903C26.5873 31.6071 26.6937 31.898 26.3045 32.1083C25.953 32.2981 25.5867 32.4961 25.2999 32.1014C24.5619 31.0882 23.6744 31.0732 22.6644 31.5948C22.5486 31.6549 22.4059 31.6822 22.2739 31.6849C20.9528 31.7204 20.1098 32.3336 19.8728 33.6977C19.8189 34.0104 19.5954 34.0678 19.322 34.0705C19.0177 34.0746 18.7147 34.0664 18.5787 33.7387C18.4426 33.411 18.3241 33.0696 18.2514 32.7227C18.1625 32.2981 17.9807 32.0523 17.5202 31.9799C16.6839 31.8488 15.849 31.689 15.0639 31.3477C14.5508 31.1251 14.1225 31.2029 13.7414 31.6344C13.565 31.8351 13.3388 31.9936 13.1274 32.1588C12.792 32.4182 12.4837 32.2107 12.1901 32.0673C11.9086 31.9294 11.9827 31.6836 12.0244 31.4214C12.085 31.0445 12.0635 30.6594 12.1672 30.2798C12.2466 29.9903 12.182 29.7322 11.8696 29.5301C11.479 29.2761 11.0818 28.9771 10.8057 28.607C10.1135 27.6798 9.41191 26.9029 8.10026 27.3781C7.6801 27.5296 7.41077 27.2593 7.18318 26.8919C6.9354 26.4905 7.23032 26.2037 7.4175 26.0699C8.44501 25.3434 8.27667 24.4777 7.80534 23.5423C7.79457 23.5218 7.77841 23.4999 7.7811 23.4795C7.79995 23.2774 7.44174 22.9701 7.88075 22.895C8.20799 22.839 8.59179 22.7626 8.70087 23.3183C8.88671 24.2578 9.34862 25.0976 9.84823 25.8924C11.1168 27.912 12.8257 29.4264 15.0342 30.3276C16.3701 30.8725 17.7585 31.2739 19.1968 31.1715C20.3374 31.0896 21.4713 30.9762 22.6106 30.6226C25.1463 29.836 27.0303 28.2124 28.478 26.1245C29.7506 24.2906 30.2408 22.0962 30.2071 19.4266L30.2085 19.4238Z" fill="#999999"/>
<path d="M13.4357 18.1171C13.7724 18.1171 14.109 18.102 14.4444 18.1198C15.348 18.1662 16.0927 18.0979 16.7956 17.2554C17.7828 16.0715 19.7691 15.9882 21.0727 16.8007C22.5796 17.7402 23.23 19.4184 22.7344 21.0912C22.2631 22.682 20.8545 23.7212 19.2196 23.7294C18.0103 23.7362 17.0394 23.2528 16.3149 22.3051C16.0698 21.9856 15.8126 21.9078 15.4598 21.9091C14.07 21.916 12.6802 21.9078 11.2905 21.916C10.57 21.9201 10.4138 22.1317 10.6468 22.8513C11.5517 25.6384 13.3765 27.5829 16.0738 28.5866C20.3064 30.161 24.7437 28.4951 27.037 24.5733C29.2254 20.8317 28.4241 16.1097 25.0884 13.0864C21.4888 9.82418 15.6119 10.2134 12.4715 13.9262C11.6339 14.9162 10.9632 16.0059 10.5929 17.2691C10.4205 17.8576 10.5471 18.0856 11.1504 18.102C11.9113 18.1225 12.6749 18.1075 13.4371 18.1075L13.4357 18.1171ZM13.6162 17.1557C13.0775 17.1557 12.5402 17.1557 12.0015 17.1557C11.7214 17.1557 11.6406 17.0492 11.7645 16.7775C12.3759 15.442 13.2068 14.2471 14.3892 13.4087C16.4576 11.9408 18.7443 11.3891 21.2504 12.0787C23.2731 12.6358 24.8756 13.7801 26.0068 15.5635C27.0034 17.1325 27.4289 18.8749 27.2606 20.7334C27.1017 22.4813 26.5442 24.1117 25.3483 25.4022C24.0488 26.8046 22.5082 27.8232 20.5461 28.1127C19.4136 28.2793 18.2837 28.2821 17.2266 27.983C14.7554 27.2839 12.8984 25.749 11.8009 23.3443C11.6298 22.9688 11.7255 22.865 12.1079 22.8691C13.0263 22.8773 13.9488 22.9087 14.8632 22.8363C15.2955 22.8022 15.5634 22.8814 15.8395 23.2146C16.6987 24.2483 17.8918 24.7221 19.1523 24.7303C21.2814 24.7453 23.1142 23.2747 23.7054 21.154C24.2602 19.1658 23.0549 16.7816 21.3918 15.8844C19.6304 14.9326 17.4474 15.3559 16.3661 16.3774C15.7399 16.9686 15.1231 17.2745 14.2868 17.1639C14.066 17.1352 13.8384 17.1598 13.6148 17.1585L13.6162 17.1557Z" fill="#999999"/>
<path d="M30.2085 19.4238C30.2421 22.0948 29.7522 24.2879 28.4796 26.1218C27.0319 28.2097 25.148 29.8333 22.6122 30.6199C21.4729 30.9735 20.339 31.0869 19.1984 31.1688C17.7602 31.2726 16.3717 30.8711 15.0359 30.3249C12.8273 29.4237 11.1184 27.9093 9.84985 25.8897C9.35023 25.0949 8.88833 24.2551 8.70249 23.3156C8.59206 22.7585 8.20961 22.8363 7.88237 22.8923C7.44336 22.9674 7.80157 23.2747 7.78272 23.4768C7.78137 23.4973 7.79753 23.5191 7.80696 23.5396C8.27829 24.475 8.44662 25.3421 7.41912 26.0672C7.23193 26.1996 6.93566 26.4878 7.1848 26.8892C7.41238 27.2566 7.68172 27.5269 8.10188 27.3754C9.41218 26.9002 10.1151 27.6771 10.8073 28.6043C11.0834 28.9744 11.4807 29.2735 11.8712 29.5274C12.1823 29.7309 12.2469 29.9876 12.1688 30.2771C12.0651 30.6567 12.0867 31.0418 12.0261 31.4187C11.9843 31.6809 11.9102 31.9267 12.1917 32.0646C12.4853 32.208 12.7937 32.4169 13.129 32.1561C13.3417 31.9909 13.5666 31.8325 13.7431 31.6317C14.1242 31.2002 14.5524 31.1224 15.0655 31.345C15.8506 31.6863 16.6855 31.8461 17.5218 31.9772C17.981 32.0496 18.1642 32.294 18.253 32.7201C18.3258 33.0669 18.4443 33.4083 18.5803 33.736C18.7163 34.0637 19.0193 34.0719 19.3236 34.0678C19.597 34.0637 19.8206 34.0077 19.8744 33.695C20.1114 32.3322 20.9544 31.7178 22.2755 31.6823C22.4075 31.6782 22.5502 31.6522 22.6661 31.5921C23.6761 31.0705 24.5635 31.0841 25.3015 32.0987C25.5883 32.4934 25.9546 32.2954 26.3061 32.1056C26.6953 31.8966 26.5889 31.6044 26.5148 31.2876C26.4381 30.9585 26.3842 30.624 26.333 30.2894C26.2872 29.9822 26.333 29.7036 26.6064 29.5001C27.242 29.0277 27.7955 28.4678 28.2507 27.8178C28.683 27.1992 29.2607 27.1487 29.9178 27.2948C30.1347 27.3426 30.3582 27.3822 30.5791 27.3822C31.1474 27.3808 31.48 26.8141 31.2268 26.2966C31.177 26.1955 31.1204 26.0836 31.0356 26.0194C29.938 25.1851 30.2922 24.1746 30.703 23.1668C30.8255 22.8677 30.9023 22.5742 30.9103 22.2492C30.9278 21.5254 31.2618 21.0652 32.0079 20.9546C32.2018 20.926 32.3795 20.7799 32.5735 20.7525C32.9653 20.6993 33.0865 20.4986 33.0637 20.1107C33.0421 19.7366 33.0879 19.357 32.5842 19.2928C31.2322 19.1221 30.8632 18.1799 30.7474 16.9809C30.7043 16.5399 30.509 16.1084 30.3474 15.6864C30.1764 15.2358 30.1953 14.8671 30.5818 14.5244C30.8295 14.3031 30.9952 13.9891 31.2349 13.7542C31.5419 13.4538 31.313 13.2175 31.1918 12.9663C31.0571 12.6877 30.8915 12.4487 30.5198 12.5648C30.3919 12.6044 30.2451 12.6003 30.132 12.6631C29.1772 13.1971 28.5712 12.6427 28.0379 11.9544C27.6204 11.415 27.172 10.918 26.6145 10.5274C26.3344 10.3308 26.2899 10.0536 26.3303 9.74499C26.3748 9.40907 26.4004 9.06769 26.4839 8.74133C26.5687 8.41224 26.6481 8.14869 26.2482 7.95069C25.9021 7.77863 25.6112 7.54922 25.2853 7.97663C24.5622 8.92704 23.6989 8.95982 22.6997 8.42043C22.2944 8.20195 21.8028 8.15688 21.3315 8.13503C20.7794 8.10909 20.3431 7.96571 20.2367 7.30343C20.1882 6.99755 19.9862 6.72035 19.9081 6.41583C19.8179 6.06079 19.6212 5.94472 19.2778 5.95565C18.9641 5.96521 18.7163 5.99252 18.618 6.37487C18.517 6.76404 18.354 7.13683 18.2072 7.51235C18.117 7.74586 18.0214 7.97663 17.7144 8.00258C16.7286 8.08724 15.8115 8.46959 14.8689 8.73177C14.4043 8.8615 14.0972 8.74816 13.7781 8.4573C13.5626 8.26066 13.3202 8.09407 13.1047 7.89743C12.8314 7.6489 12.5984 7.72811 12.3223 7.90972C12.0543 8.08588 11.8052 8.27159 11.9655 8.60887C12.6374 10.0304 11.6961 10.7623 10.7817 11.4983C10.5515 11.6841 10.3171 11.8493 10.1677 12.1115C9.79733 12.7587 9.25327 12.913 8.56378 12.7205C8.33081 12.6549 8.07764 12.6659 7.83524 12.6372C7.41912 12.588 7.33293 12.9608 7.15652 13.1998C6.97741 13.4415 7.14844 13.6368 7.32216 13.7842C8.19345 14.5271 8.417 15.3546 7.85678 16.432C7.56456 16.9932 7.81908 17.2622 8.34428 17.1448C8.54762 17.0997 8.63516 16.9796 8.69306 16.7857C9.57513 13.8484 11.3379 11.6485 14.0245 10.2079C17.3831 8.40677 20.77 8.34396 24.1649 10.055C26.5323 11.2484 28.1928 13.1274 29.2984 15.5676C29.9178 16.9345 30.1064 18.3601 30.2101 19.4211L30.2085 19.4238Z" fill="#BCBBBB"/>
<path d="M13.6162 17.1557C13.8397 17.1557 14.0672 17.1338 14.288 17.1625C15.123 17.2731 15.7397 16.9672 16.3673 16.376C17.4487 15.3559 19.6316 14.9326 21.393 15.883C23.0562 16.7802 24.2614 19.1644 23.7066 21.1526C23.1154 23.2733 21.2826 24.7426 19.1535 24.7289C17.893 24.7207 16.6999 24.2469 15.8407 23.2132C15.5647 22.88 15.2967 22.8008 14.8644 22.8349C13.9514 22.9073 13.0276 22.8759 12.1091 22.8677C11.7267 22.8636 11.6297 22.9674 11.8021 23.3429C12.8996 25.7476 14.7567 27.2811 17.2278 27.9816C18.2849 28.2807 19.4161 28.2793 20.5473 28.1113C22.5094 27.8219 24.05 26.8032 25.3495 25.4008C26.5454 24.1103 27.1029 22.4799 27.2618 20.732C27.4301 18.8735 27.0046 17.1311 26.0081 15.5621C24.8769 13.7801 23.2743 12.6344 21.2516 12.0773C18.7455 11.3877 16.4589 11.9394 14.3904 13.4073C13.208 14.2457 12.3771 15.4406 11.7657 16.7761C11.6405 17.0492 11.7226 17.1557 12.0027 17.1543C12.5414 17.153 13.0787 17.1543 13.6174 17.1543L13.6162 17.1557Z" fill="#BCBBBB"/>
<path d="M39.5 20C39.5 23.8567 38.3563 27.6269 36.2137 30.8336C34.071 34.0404 31.0255 36.5397 27.4623 38.0156C23.8992 39.4916 19.9784 39.8777 16.1957 39.1253C12.4131 38.3729 8.93855 36.5157 6.21143 33.7886C3.4843 31.0615 1.62711 27.5869 0.874696 23.8043C0.122284 20.0216 0.508449 16.1008 1.98436 12.5377C3.46027 8.97451 5.95963 5.92903 9.16639 3.78634C12.3731 1.64365 16.1433 0.5 20 0.5C25.1717 0.5 30.1316 2.55446 33.7886 6.21142C37.4455 9.86837 39.5 14.8283 39.5 20Z" stroke="black" stroke-opacity="0.02"/>
</g>
<defs>
<clipPath id="clip0_3757_386">
<rect width="40" height="40" fill="white"/>
</clipPath>
</defs>
</svg>
