<svg width="40" height="40" viewBox="0 0 40 40" fill="none" xmlns="http://www.w3.org/2000/svg">
<g clip-path="url(#clip0_3113_4740)">
<path d="M20 40C31 40 40 31 40 20C40 9 31 0 20 0C9 0 0 9 0 20C0 31 9 40 20 40Z" fill="black"/>
<path fill-rule="evenodd" clip-rule="evenodd" d="M13.1126 9C9.46848 9 9.06024 9.00821 9.03171 9.08223C9.01426 9.12745 9 9.27807 9 9.417C9 9.55588 9.02513 9.68499 9.05585 9.70391C9.08657 9.72278 11.0597 9.74149 13.4405 9.74549C15.8214 9.74949 17.7884 9.73385 17.8116 9.71072C17.8349 9.68759 17.6982 9.5182 17.5078 9.33431L17.1617 9H13.1126ZM22.0209 9.01206C21.0224 9.00057 20.7999 9.01097 20.7771 9.07022C20.7618 9.10988 20.7564 9.2682 20.7653 9.42199L20.7813 9.70168L23.2678 9.72953L23.2368 9.02599L22.0209 9.01206ZM9.05423 10.0395L9.02367 10.1606C9.0069 10.2273 9.00057 10.3851 9.00961 10.5115L9.02612 10.7412L9.36572 10.7707C9.55249 10.7868 11.7603 10.7929 14.2719 10.7841C16.7835 10.7753 18.8505 10.7563 18.8652 10.7417C18.8798 10.7271 18.7389 10.5632 18.5522 10.3774L18.2126 10.0395H9.05423ZM22.0439 10.0395C21.3734 10.0395 20.8091 10.0551 20.79 10.0742C20.7709 10.0932 20.7552 10.2569 20.7552 10.438V10.7672H23.2629V10.0395H22.0439ZM10.2822 11.079C9.61529 11.079 9.05397 11.0946 9.03485 11.1137C9.01567 11.1327 9 11.2855 9 11.4532C9 11.6514 9.02283 11.7652 9.06531 11.7786C9.10125 11.7899 9.61258 11.812 10.2016 11.8275C10.7907 11.8431 11.3229 11.8428 11.3843 11.8268C11.4652 11.8057 11.5046 11.7432 11.5277 11.5996C11.5452 11.4906 11.545 11.329 11.5271 11.2403L11.4947 11.079H10.2822ZM17.7511 11.079C16.9609 11.079 16.3143 11.0937 16.3143 11.1117C16.3143 11.1297 16.3966 11.235 16.4972 11.3458C16.6033 11.4626 16.68 11.6016 16.68 11.6769V11.8067H19.1878V11.079H17.7511ZM22.0439 11.079C21.3734 11.079 20.8091 11.0946 20.79 11.1137C20.7709 11.1327 20.7552 11.2965 20.7552 11.4775V11.8067H23.2629V11.079H22.0439ZM10.3126 12.1227C9.66247 12.1249 9.10125 12.1386 9.06531 12.153C9.0245 12.1693 9 12.2833 9 12.4565C9 12.609 9.01426 12.7708 9.03171 12.816C9.05935 12.8877 9.2188 12.8982 10.2795 12.8982H11.4956L11.5203 12.7697C11.5338 12.6991 11.5336 12.5237 11.5197 12.3799L11.4945 12.1186L10.3126 12.1227ZM17.9567 12.1306C17.2939 12.123 16.7355 12.1327 16.7158 12.1523C16.6961 12.1718 16.68 12.2566 16.68 12.3406C16.68 12.4277 16.6239 12.5597 16.5494 12.6478C16.4776 12.7327 16.4188 12.8242 16.4188 12.8511C16.4188 12.8807 16.9594 12.8945 17.7903 12.8861L19.1617 12.8722V12.1445L17.9567 12.1306ZM21.9773 12.1225C21.0088 12.1145 20.8014 12.1256 20.778 12.1865C20.7623 12.227 20.7567 12.3979 20.7654 12.5662L20.7813 12.8722H23.2368L23.2526 12.5391C23.2626 12.3283 23.2463 12.1924 23.2083 12.1691C23.1753 12.1488 22.6213 12.1278 21.9773 12.1225ZM14.0211 13.1581C9.54852 13.1581 9.06034 13.1661 9.03171 13.2403C9.01426 13.2855 9 13.4367 9 13.5763C9 13.774 9.02231 13.842 9.10104 13.8839C9.16849 13.9198 10.7116 13.9377 13.7392 13.9377H18.2764L18.6276 13.5856C18.8208 13.3919 18.9788 13.2165 18.9788 13.1958C18.9788 13.175 16.7479 13.1581 14.0211 13.1581ZM22.0462 13.1581C21.3744 13.1581 20.8091 13.1737 20.79 13.1927C20.7709 13.2118 20.7552 13.3751 20.7552 13.5556C20.7552 13.8526 20.7664 13.8865 20.8727 13.913C20.9374 13.9291 21.4958 13.9354 22.1136 13.927L23.2368 13.9117L23.2675 13.1581H22.0462ZM13.6991 14.1976C11.1529 14.1976 9.05397 14.2132 9.03485 14.2323C9.01567 14.2513 9 14.4025 9 14.5682C9 14.813 9.01896 14.8797 9.10104 14.9234C9.16865 14.9594 10.818 14.9772 14.0818 14.9772C16.7656 14.9772 18.9778 14.961 18.9978 14.9411C19.0178 14.9212 18.8754 14.7458 18.6814 14.5512L18.3286 14.1976H13.6991ZM22.0318 14.2097C21.369 14.202 20.8106 14.2117 20.791 14.2313C20.7713 14.2509 20.7552 14.4146 20.7552 14.5951C20.7552 14.8923 20.7663 14.926 20.8727 14.952C20.9374 14.9677 21.4958 14.974 22.1136 14.966L23.2368 14.9512V14.2236L22.0318 14.2097ZM10.3323 15.2557C9.70009 15.2516 9.14174 15.2591 9.09143 15.2725C9.01881 15.2917 9 15.3539 9 15.5745C9 15.7273 9.01426 15.8893 9.03171 15.9345C9.05935 16.0063 9.2188 16.0168 10.2795 16.0168C11.3941 16.0168 11.4975 16.0092 11.5184 15.9258C11.531 15.8757 11.5278 15.7062 11.5115 15.549L11.4816 15.2631L10.3323 15.2557ZM17.8259 15.2492C17.0913 15.2416 16.4739 15.2516 16.454 15.2714C16.4341 15.2912 16.4695 15.362 16.5325 15.4287C16.5959 15.4959 16.6602 15.6485 16.6766 15.7704L16.7062 15.9908H19.1617V15.2631L17.8259 15.2492ZM22.0044 15.2371C21.0398 15.2371 20.7988 15.251 20.7769 15.3079C20.7618 15.3468 20.7567 15.5164 20.7654 15.6847L20.7813 15.9908L22.0054 16.0047C22.9075 16.015 23.2395 16.0025 23.2678 15.9569C23.2889 15.923 23.2957 15.7671 23.2829 15.6105C23.2702 15.454 23.2473 15.3059 23.2321 15.2815C23.2169 15.2571 22.6644 15.2371 22.0044 15.2371ZM10.5506 16.286C10.057 16.295 9.512 16.3142 9.33959 16.3285L9.02612 16.3546L9.00961 16.5843C9.00057 16.7107 9.0069 16.8685 9.02367 16.9352L9.05423 17.0563H11.4981L11.5192 16.7574C11.5308 16.5931 11.5195 16.416 11.4942 16.3641C11.4518 16.2773 11.3756 16.271 10.5506 16.286ZM17.9166 16.2807C17.3084 16.283 16.7813 16.2966 16.7454 16.311C16.7095 16.3255 16.68 16.3929 16.68 16.4609C16.68 16.5367 16.5942 16.6707 16.458 16.8074L16.236 17.0303L17.6458 17.0442C18.4212 17.0518 19.0854 17.0467 19.1217 17.0328C19.1655 17.016 19.1878 16.8949 19.1878 16.6736C19.1878 16.4171 19.1686 16.3324 19.1052 16.3082C19.0597 16.2908 18.5249 16.2785 17.9166 16.2807ZM22.2041 16.2924C21.479 16.2869 20.8564 16.2947 20.8205 16.3098C20.7779 16.3277 20.7552 16.4536 20.7552 16.6724C20.7552 16.8938 20.7775 17.0161 20.821 17.0327C20.8571 17.0464 21.6326 17.0516 22.5442 17.044L24.2017 17.0303L23.5223 16.3026L22.2041 16.2924ZM13.8327 17.3311C11.735 17.3359 9.79543 17.352 9.52245 17.3669L9.02612 17.3941L9.01029 17.6392C9.00157 17.7741 9.02001 17.9319 9.0513 17.9901C9.10783 18.0951 9.13641 18.0958 13.6317 18.0958H18.1553L18.8928 17.3807L18.2697 17.3515C17.927 17.3355 15.9303 17.3263 13.8327 17.3311ZM22.5315 17.3498C22.1723 17.3456 21.708 17.349 21.4997 17.3574C21.2913 17.3658 21.1209 17.3914 21.1209 17.4141C21.1209 17.4369 21.2717 17.5996 21.4559 17.7757L21.791 18.0958H30.8342V17.3681L26.5413 17.3628C24.6952 17.3599 22.8907 17.354 22.5315 17.3498ZM9 18.4076L9.00073 18.6285C9.0011 18.75 9.01562 18.902 9.03291 18.9664L9.06442 19.0833H17.1794L17.8525 18.4076H9ZM22.0905 18.4076L22.7636 19.0833H30.8342V18.4076H22.0905Z" fill="#FF8700"/>
<path fill-rule="evenodd" clip-rule="evenodd" d="M10.2766 20.9287C9.61383 20.9211 9.05543 20.9308 9.03579 20.9504C9.01609 20.9699 9 21.1345 9 21.3161V21.6462L11.4816 21.6183V20.9427L10.2766 20.9287ZM17.9427 20.9167C17.2865 20.9167 16.734 20.9323 16.7149 20.9513C16.6957 20.9704 16.6801 21.1341 16.6801 21.3152V21.6443H19.1356V20.9167H17.9427ZM24.9142 20.9167C22.6938 20.9167 20.8614 20.9323 20.8423 20.9513C20.8231 20.9704 20.8074 21.1306 20.8074 21.3074V21.6288L21.4736 21.6598C21.8399 21.6768 23.8179 21.6811 25.8691 21.6693C27.9203 21.6574 29.6077 21.6387 29.6188 21.6276C29.6299 21.6166 29.4843 21.4521 29.2952 21.2621L28.9514 20.9167H24.9142ZM10.2766 21.9682C9.61383 21.9606 9.05543 21.9703 9.03579 21.9899C9.01609 22.0095 9 22.174 9 22.3556V22.6857L11.4816 22.6579V21.9822L10.2766 21.9682ZM16.6801 21.9562V22.677L17.5552 22.6934C18.0364 22.7025 18.5869 22.7021 18.7783 22.6926C19.092 22.6771 19.1294 22.6635 19.1568 22.5548C19.1736 22.4885 19.1724 22.3267 19.1543 22.1952L19.1214 21.9562H16.6801ZM25.4282 21.9562C22.9251 21.9562 20.8614 21.9718 20.8423 21.9909C20.8231 22.0099 20.8074 22.1718 20.8074 22.3505C20.8074 22.663 20.813 22.6768 20.9511 22.7066C21.0301 22.7237 22.811 22.7259 24.9087 22.7116C27.0063 22.6973 29.1686 22.6851 29.7138 22.6847L30.7051 22.6838L29.9793 21.9562H25.4282ZM9 22.9938V23.7252L11.4816 23.6974V23.0217L9 22.9938ZM16.6801 22.9957V23.7234H19.122L19.1482 23.4922C19.1626 23.365 19.1629 23.2013 19.1489 23.1283L19.1234 22.9957H16.6801ZM20.8074 22.9938V23.353C20.8074 23.6326 20.8258 23.7193 20.8901 23.7438C20.9355 23.7612 21.4852 23.7753 22.1114 23.7753C23.0297 23.7753 23.2621 23.7611 23.3115 23.7017C23.3477 23.6583 23.3664 23.5038 23.3571 23.3249L23.3413 23.0217L20.8074 22.9938ZM29.5752 23.0079C28.8085 23.0002 28.1688 23.0141 28.1535 23.0386C28.1383 23.0631 28.2072 23.1617 28.3067 23.2576C28.4282 23.3748 28.4875 23.4797 28.4875 23.5776C28.4875 23.7085 28.5062 23.7239 28.6703 23.7291C28.7709 23.7323 28.9002 23.7349 28.9577 23.7349C29.0152 23.7349 29.4982 23.7323 30.0311 23.7291L31 23.7234L30.9691 23.0217L29.5752 23.0079ZM10.2539 24.0368C9.63608 24.0368 9.1 24.0561 9.06259 24.0797C9.01536 24.1095 8.99943 24.2244 9.01034 24.4558L9.02612 24.7889H11.4816L11.4974 24.4558C11.5083 24.2244 11.4924 24.1095 11.4452 24.0797C11.4078 24.0561 10.8717 24.0368 10.2539 24.0368ZM17.9675 24.0393C17.3312 24.0416 16.7813 24.0552 16.7454 24.0696C16.7019 24.0871 16.6801 24.2164 16.6801 24.4553V24.8149H17.9022C18.9685 24.8149 19.1284 24.8044 19.1561 24.7326C19.1736 24.6874 19.1878 24.549 19.1878 24.425C19.1878 24.3011 19.1736 24.1627 19.1561 24.1174C19.1285 24.0457 18.9767 24.0357 17.9675 24.0393ZM22.0992 24.0473C21.0818 24.0358 20.8521 24.0463 20.8295 24.1051C20.8142 24.1445 20.8089 24.3145 20.8177 24.4828L20.8335 24.7889L23.3127 24.8167L23.3434 24.6954C23.3602 24.6287 23.3666 24.4587 23.3576 24.3177L23.3413 24.0612L22.0992 24.0473ZM29.6587 24.036C29.0528 24.0355 28.5414 24.0508 28.5223 24.0699C28.5031 24.0889 28.4875 24.18 28.4875 24.2723C28.4875 24.3835 28.4437 24.4814 28.3578 24.5625C28.2864 24.6298 28.2277 24.7145 28.2271 24.7508C28.2265 24.8026 28.5181 24.8136 29.5977 24.8028L30.9691 24.7889L30.9844 24.4447C30.9987 24.1237 30.9916 24.0983 30.8799 24.0685C30.8141 24.051 30.2645 24.0363 29.6587 24.036ZM9 25.0729V25.8024L9.27429 25.8121C9.42512 25.8174 9.96706 25.8242 10.4785 25.8273C11.1472 25.8312 11.4232 25.8151 11.4609 25.77C11.4897 25.7355 11.5062 25.5707 11.4974 25.404L11.4816 25.1007L9 25.0729ZM17.9013 25.0747C16.9619 25.0747 16.6788 25.0897 16.6749 25.1397C16.6722 25.1755 16.6697 25.3305 16.6695 25.4842C16.6693 25.6628 16.6948 25.7797 16.74 25.8082C16.7788 25.8327 17.3312 25.8531 17.9675 25.8536C18.9747 25.8543 19.1285 25.8437 19.1561 25.7722C19.1736 25.7269 19.1878 25.6246 19.1878 25.5448C19.1878 25.4649 19.1731 25.3265 19.1552 25.2372L19.1225 25.0747H17.9013ZM25.7945 25.0747H20.8028L20.8335 25.8284L30.0778 25.855L30.432 25.5052C30.6269 25.3129 30.7863 25.1373 30.7863 25.1151C30.7863 25.0929 28.54 25.0747 25.7945 25.0747ZM10.2766 26.1263C9.61383 26.1187 9.05543 26.1284 9.03579 26.148C9.01609 26.1675 9 26.3313 9 26.5118C9 26.809 9.01108 26.8427 9.11755 26.8686C9.18223 26.8844 9.74058 26.8907 10.3584 26.8826L11.4816 26.8679V26.1402L10.2766 26.1263ZM16.6894 26.1124L16.6717 26.4292C16.6619 26.6035 16.6727 26.7793 16.6957 26.82C16.7299 26.8805 16.954 26.8939 17.9341 26.8939H19.1308L19.1631 26.7227C19.1809 26.6285 19.1878 26.459 19.1786 26.3459L19.1617 26.1402L16.6894 26.1124ZM25.4874 26.1143C21.6277 26.1143 20.8518 26.1261 20.8291 26.1851C20.8141 26.224 20.8089 26.3936 20.8177 26.5619L20.8335 26.8679L25.7813 26.88C29.416 26.8888 30.7387 26.8764 30.7655 26.8332C30.7868 26.799 30.6594 26.6367 30.4603 26.4444L30.1185 26.1143H25.4874ZM10.3061 27.167C9.6596 27.16 9.1 27.1738 9.06259 27.1978C9.01541 27.2279 8.99943 27.3432 9.01034 27.5743L9.02612 27.9074H11.4816V27.1798L10.3061 27.167ZM17.9388 27.1538C17.0863 27.1538 16.7356 27.1713 16.6905 27.2162C16.656 27.2505 16.6278 27.3889 16.6278 27.5237C16.6278 27.6586 16.6421 27.806 16.6595 27.8512C16.6872 27.9229 16.8467 27.9334 17.9078 27.9334C18.969 27.9334 19.1285 27.9229 19.1561 27.8512C19.1736 27.806 19.1878 27.6676 19.1878 27.5436C19.1878 27.4196 19.1736 27.2812 19.1561 27.236C19.1285 27.1644 18.9717 27.1538 17.9388 27.1538ZM22.0701 27.1546C21.4475 27.155 20.9074 27.1747 20.87 27.1983C20.8228 27.2281 20.8069 27.343 20.8178 27.5743L20.8335 27.9074L22.0576 27.9214C23.002 27.9322 23.2913 27.9203 23.3238 27.8694C23.3469 27.8332 23.3662 27.6715 23.3667 27.5102C23.3672 27.2902 23.3468 27.209 23.2848 27.1853C23.2393 27.168 22.6927 27.1541 22.0701 27.1546ZM29.5803 27.1546C28.8739 27.1541 28.2799 27.1697 28.2604 27.1892C28.2408 27.2086 28.2823 27.2847 28.3526 27.3581C28.4344 27.4435 28.4864 27.5665 28.497 27.6995L28.5136 27.9074H30.9691L30.9849 27.5743C30.9958 27.343 30.9799 27.2281 30.9327 27.1983C30.8952 27.1747 30.2867 27.155 29.5803 27.1546ZM10.5006 28.2125C9.83331 28.2088 9.22168 28.2163 9.14138 28.2292C8.9966 28.2524 8.99551 28.2555 9.01076 28.5998L9.02612 28.947L10.711 28.9607C11.6377 28.9682 12.3959 28.9558 12.3959 28.9332C12.3959 28.9105 12.2425 28.7406 12.0549 28.5556L11.7139 28.2193L10.5006 28.2125ZM17.8425 28.1966C17.1313 28.1984 16.5024 28.2191 16.4449 28.2425C16.3875 28.2659 16.1994 28.434 16.027 28.616L15.7135 28.947L17.4064 28.9607C18.3375 28.9682 19.1108 28.963 19.1248 28.949C19.1388 28.9351 19.1496 28.8003 19.1487 28.6494C19.1479 28.4986 19.1446 28.3343 19.1414 28.2843C19.136 28.2002 19.0383 28.1936 17.8425 28.1966ZM21.774 28.1944C21.3142 28.1947 20.9074 28.2142 20.87 28.2378C20.8228 28.2676 20.8069 28.3825 20.8178 28.6138L20.8335 28.947L23.3152 28.9748V28.2603L22.9625 28.2272C22.7686 28.2089 22.2337 28.1942 21.774 28.1944ZM29.4679 28.2216C28.987 28.2164 28.5685 28.2276 28.5378 28.2464C28.5048 28.2667 28.4885 28.4167 28.4978 28.6138L28.5136 28.947H30.9691L31 28.2453L30.6711 28.2382C30.4902 28.2343 29.9488 28.2268 29.4679 28.2216ZM14.706 29.2614C12.4728 29.26 10.3414 29.2654 9.96957 29.2734L9.29341 29.2881L10.016 30.0125H18.1544L18.5005 29.6781C18.6908 29.4943 18.8285 29.3258 18.8064 29.3038C18.7843 29.2819 16.9391 29.2628 14.706 29.2614ZM20.8074 29.2848V29.6217C20.8074 29.9278 20.8181 29.9611 20.925 29.9872C20.9896 30.0029 21.548 30.0092 22.1658 30.0012L23.2891 29.9865L23.3199 29.2848H20.8074ZM28.4875 29.2848V29.6217C28.4875 29.9278 28.4982 29.9611 28.605 29.9872C28.6697 30.0029 29.2281 30.0092 29.8459 30.0012L30.9691 29.9865L31 29.2848H28.4875ZM14.0562 30.3243H10.3353L11.0084 31H17.1528L17.465 30.6952C17.6367 30.5275 17.7772 30.3755 17.7772 30.3573C17.7772 30.3392 16.1027 30.3243 14.0562 30.3243ZM20.8074 30.3243V31H23.3152V30.3243H20.8074ZM28.4875 30.3243V31H30.9952V30.3243H28.4875Z" fill="#FF8700"/>
<path d="M39.5 20C39.5 23.8567 38.3563 27.6269 36.2137 30.8336C34.071 34.0404 31.0255 36.5397 27.4623 38.0156C23.8992 39.4916 19.9784 39.8777 16.1957 39.1253C12.4131 38.3729 8.93855 36.5157 6.21143 33.7886C3.4843 31.0615 1.62711 27.5869 0.874696 23.8043C0.122284 20.0216 0.508449 16.1008 1.98436 12.5377C3.46027 8.97451 5.95963 5.92903 9.16639 3.78634C12.3731 1.64365 16.1433 0.5 20 0.5C25.1717 0.5 30.1316 2.55446 33.7886 6.21142C37.4455 9.86838 39.5 14.8283 39.5 20Z" stroke="black" stroke-opacity="0.02"/>
</g>
<defs>
<clipPath id="clip0_3113_4740">
<rect width="40" height="40" fill="white"/>
</clipPath>
</defs>
</svg>
