<svg width="40" height="40" viewBox="0 0 40 40" fill="none" xmlns="http://www.w3.org/2000/svg">
<path d="M20 40C31 40 40 31 40 20C40 9 31 0 20 0C9 0 0 9 0 20C0 31 9 40 20 40Z" fill="#F3F3F3"/>
<path d="M34.9898 22.6195L34.9834 22.6083C34.9898 22.3155 34.9118 22.0447 34.7563 21.7938L34.7528 21.7957C34.7456 21.7627 34.7384 21.7292 34.703 21.7119C34.7046 21.7007 34.7003 21.6922 34.6899 21.6872C34.6792 21.6726 34.6688 21.658 34.6581 21.6438C34.495 21.3833 34.2683 21.1917 33.9872 21.0582C33.6042 20.8743 33.2061 20.8131 32.7873 20.9197C32.2329 21.0278 31.8336 21.3367 31.5587 21.8065C31.5325 21.85 31.4947 21.8904 31.482 21.9369C31.439 22.092 31.3563 22.1189 31.1956 22.0755C30.7597 21.957 30.3175 21.8588 29.878 21.7527C29.6625 21.7006 29.5728 21.5721 29.6092 21.3671C29.7277 20.9108 29.8458 20.4545 29.9643 19.9982C30.0009 19.8624 30.0391 19.7269 30.0741 19.5907C30.2769 18.7981 30.4794 18.0056 30.6818 17.213C30.8795 16.4904 31.0712 15.7663 31.2382 15.0364C31.2768 14.9087 31.3269 14.7825 31.3507 14.6521C31.3698 14.5486 31.4056 14.542 31.507 14.5555C32.2297 14.6509 33.0223 14.2561 33.3449 13.6505C33.7601 13.0049 33.632 12.1539 33.0287 11.546C32.1219 10.6329 30.4662 10.873 29.921 12.0084C29.8315 12.195 29.7508 12.2058 29.5654 12.1608C27.2889 11.6041 25.01 11.0562 22.7312 10.5091C22.6381 10.4867 22.5717 10.4829 22.6059 10.3567C22.7455 9.83997 22.8767 9.32132 23.0076 8.80268C23.0259 8.72996 23.043 8.69841 23.1368 8.70726C23.8233 8.77113 24.3932 8.54605 24.8378 8.03548C25.4447 7.33831 25.4197 6.28794 24.7837 5.61655C24.1327 4.92938 23.0573 4.79933 22.279 5.31375C21.513 5.82008 21.2346 6.70847 21.5726 7.56224C21.5981 7.62687 21.6482 7.68266 21.5372 7.74653C20.5609 8.30635 19.59 8.87462 18.618 9.44175C18.5588 9.47638 18.5099 9.49061 18.4359 9.47253C17.2933 9.19512 16.149 8.92272 15.0052 8.64878C14.9225 8.62877 14.8847 8.60491 14.8975 8.49334C15.0363 7.27175 13.9215 6.29294 12.6746 6.55265C11.9818 6.69693 11.5054 7.11554 11.301 7.77423C11.1081 8.39561 11.2282 8.97158 11.6847 9.4656C11.7003 9.43829 11.6927 9.41636 11.6804 9.39558C11.6927 9.41636 11.7007 9.43829 11.6847 9.4656C11.8589 9.68607 12.084 9.83727 12.3537 9.92923C12.4042 9.89653 12.399 9.86613 12.3823 9.83612C12.399 9.86613 12.4042 9.89653 12.3537 9.92923C12.5001 9.96655 12.5351 10.0377 12.4897 10.1886C12.3927 10.5102 12.3243 10.8403 12.2443 11.1666C12.2459 11.192 12.2471 11.2174 12.2487 11.2435L12.2443 11.1666C12.0618 11.868 11.8792 12.5694 11.6967 13.2708C11.6756 13.4428 11.573 13.5397 11.4183 13.6282C10.5731 14.1111 9.73636 14.607 8.89679 15.0988C8.82043 15.1949 8.68203 15.1876 8.59533 15.2654C8.52215 15.3311 8.47681 15.3046 8.42232 15.2376C8.29148 15.078 8.14552 14.9322 7.95303 14.8394C7.55253 14.5855 7.11624 14.4947 6.64336 14.5736C5.87379 14.6374 5.14757 15.3192 5.04656 16.0733C4.98173 16.293 4.9873 16.5127 5.04656 16.7324C5.14837 17.5288 5.90203 18.1933 6.77739 18.2587C7.65872 18.3245 8.50385 17.7812 8.74367 16.9944C8.73095 16.9829 8.71822 16.9713 8.70549 16.9594C8.68521 16.9667 8.66413 16.9775 8.64385 16.9837C8.66413 16.9775 8.68521 16.9667 8.70549 16.9594C8.71822 16.971 8.73095 16.9825 8.74367 16.9944C8.76913 16.991 8.79697 16.979 8.82003 16.9848C9.38518 17.1191 9.94993 17.2568 10.5155 17.39C10.636 17.4184 10.6042 17.4823 10.5839 17.5616C10.4196 18.206 10.259 18.8516 10.0975 19.4969C10.1102 19.5088 10.1233 19.5207 10.1361 19.533C10.1233 19.5211 10.1102 19.5092 10.0975 19.4969C10.0092 19.8216 9.91652 20.1452 9.8334 20.471C9.68108 21.0678 9.53393 21.6661 9.38439 22.2636C9.37086 22.2994 9.35416 22.334 9.34462 22.3709C9.17877 23.0135 9.01133 23.6552 8.85106 24.2989C8.82322 24.4101 8.79418 24.4482 8.65737 24.4344C7.76451 24.344 6.90188 24.9134 6.68274 25.7225C6.59087 25.8572 6.6016 26.0138 6.58291 26.1638C6.46002 27.1634 7.30158 28.1064 8.34159 28.1353C9.10917 28.1565 9.82505 27.6921 10.1317 26.9645C10.1734 26.8656 10.2017 26.8295 10.323 26.8648C10.5946 26.9437 10.8738 26.9991 11.1494 27.0653C13.2342 27.5678 15.3182 28.0714 17.4038 28.5708C17.5359 28.6024 17.5876 28.632 17.5446 28.7825C17.4026 29.2819 17.2766 29.7855 17.1545 30.2899C17.1238 30.4173 17.0773 30.4419 16.9409 30.4269C15.8742 30.3103 14.9157 31.1371 14.8947 32.154C14.874 33.1594 15.8261 34.099 17.0387 33.9916C18.3186 33.8781 19.0838 32.6465 18.5651 31.51C18.5297 31.4322 18.5238 31.3968 18.6089 31.348C19.5849 30.7851 20.5581 30.2183 21.5309 29.6505C21.604 29.6077 21.6681 29.5985 21.7528 29.6197C22.8222 29.8821 23.8917 30.1433 24.9635 30.3946C25.0979 30.4261 25.1242 30.4707 25.113 30.5966C25.0283 31.5677 25.7148 32.433 26.6884 32.5938C27.6751 32.7566 28.6137 32.1852 28.8825 31.2456C28.9422 31.0363 29.0039 30.8163 28.9064 30.5966C28.9012 30.5723 28.8961 30.5485 28.8909 30.5242C28.9271 30.3734 28.8623 30.2395 28.8153 30.1025C28.6419 29.5981 28.2752 29.2676 27.7877 29.0529C27.687 29.0087 27.6516 28.9818 27.6835 28.8625C27.831 28.315 27.9618 27.7632 28.0991 27.2131C28.2319 26.7206 28.3703 26.2296 28.4928 25.7352C28.5206 25.6225 28.5751 25.5605 28.6718 25.5044C29.5499 24.9961 30.4257 24.484 31.3022 23.9731C31.336 23.9534 31.373 23.9373 31.4032 23.913C31.5412 23.8018 31.6307 23.8192 31.7544 23.9631C32.238 24.5263 33.0096 24.7222 33.702 24.4832C34.4298 24.232 34.962 23.5498 34.9802 22.8438C35.0089 22.773 35.0033 22.7014 34.983 22.6299L34.991 22.6199L34.9898 22.6195ZM33.5059 22.7226C33.2892 22.8461 33.08 22.98 32.8278 23.0139C33.08 22.98 33.2892 22.8461 33.5059 22.7226ZM31.6478 21.9096C31.6506 21.9096 31.6534 21.9096 31.6566 21.9092C31.6538 21.91 31.6506 21.91 31.6478 21.9096ZM31.14 22.3329C31.136 22.3221 31.1296 22.3163 31.1209 22.3163C31.1296 22.3163 31.136 22.3221 31.14 22.3329ZM30.2721 17.8967C30.2749 17.8978 30.2777 17.8974 30.2805 17.8955C30.2777 17.8974 30.2749 17.8974 30.2721 17.8967ZM30.7904 15.8879C30.7737 15.9475 30.747 16.0029 30.6858 16.0433C30.5044 16.637 30.3648 17.2407 30.2169 17.8428C30.2352 17.8459 30.2527 17.8828 30.2674 17.894C30.2523 17.8828 30.2352 17.8459 30.2169 17.8428C30.0184 18.6123 29.82 19.3822 29.6219 20.1517C29.6728 20.119 29.7062 20.0632 29.7511 20.0213C29.7066 20.0632 29.6732 20.1186 29.6219 20.1517C29.5078 20.5838 29.394 21.0162 29.2799 21.4479C29.2612 21.5183 29.2636 21.6118 29.1407 21.5822L25.994 20.8204C25.2268 20.6338 24.4596 20.4476 23.6932 20.259C23.6089 20.2383 23.5071 20.2421 23.4633 20.1428C23.4228 20.144 23.3699 20.1652 23.3337 20.1613C23.3699 20.1652 23.4228 20.1436 23.4633 20.1428C23.4625 20.1344 23.4602 20.1267 23.4554 20.1198C23.4785 20.1128 23.4948 20.1009 23.4924 20.0744C23.5564 19.8073 23.5815 19.5384 23.5401 19.2652C23.5377 19.2279 23.5353 19.1906 23.5329 19.1533C23.5318 19.1379 23.5306 19.1229 23.5294 19.1075C23.5278 19.0829 23.5258 19.0582 23.5242 19.0336C23.5266 18.9678 23.5182 18.9039 23.488 18.8435C23.4633 18.5692 23.3651 18.3134 23.2406 18.0725C23.1667 17.9301 23.21 17.8755 23.3309 17.8232C23.5854 17.6766 23.8412 17.5315 24.0945 17.3826C24.769 16.9867 25.4427 16.5897 26.1165 16.193C27.0773 15.6555 28.0283 15.1022 28.9708 14.5359C29.3288 14.3323 29.6883 14.1319 30.0431 13.9237C30.1262 13.8749 30.1795 13.8741 30.2435 13.9476C30.4344 14.1669 30.675 14.3235 30.9506 14.4227C31.0684 14.4651 31.0684 14.5159 31.0413 14.6186C30.9172 15.0918 30.8039 15.5678 30.687 16.0429C30.7482 16.0025 30.7749 15.9471 30.7916 15.8875C30.7955 15.8725 30.7991 15.8575 30.8027 15.8421C30.7995 15.8575 30.7959 15.8725 30.7916 15.8875L30.7904 15.8879ZM29.7897 19.992C29.7758 20.0005 29.7627 20.0105 29.7511 20.0217C29.7631 20.0105 29.7758 20.0005 29.7897 19.992ZM19.1144 23.6441C19.1152 23.6372 19.1164 23.6302 19.118 23.6241C19.116 23.6302 19.1148 23.6368 19.1144 23.6441C19.114 23.6495 19.1136 23.6552 19.1132 23.6606C19.1136 23.6552 19.114 23.6495 19.1144 23.6441ZM21.0707 15.2288C21.0811 15.2288 21.0914 15.228 21.1009 15.2273C21.091 15.2284 21.0811 15.2288 21.0707 15.2288ZM22.9507 19.0655C22.9495 19.0548 22.9487 19.0436 22.9495 19.0321C22.9491 19.0436 22.9495 19.0548 22.9507 19.0655ZM22.963 19.1125C22.9781 19.1448 23.006 19.171 23.0517 19.1871C23.0434 19.3622 22.8648 19.4965 22.6592 19.4976C22.8652 19.4961 23.0434 19.3622 23.0517 19.1871C23.006 19.1714 22.9781 19.1448 22.963 19.1125ZM18.8793 21.2313C18.8845 21.2263 18.8897 21.2217 18.8948 21.2167C18.8897 21.2217 18.8845 21.2263 18.8793 21.2313ZM18.9195 21.2613L18.9298 21.2721L18.9255 21.2686L18.9298 21.2721L18.9195 21.2613ZM17.3287 20.1479L17.3279 20.1471L17.3287 20.1479ZM22.137 19.6861C22.1378 19.6981 22.1382 19.71 22.1382 19.7219C22.1382 19.71 22.1382 19.6981 22.137 19.6861ZM21.5858 16.4908C21.6033 16.4989 21.6211 16.5073 21.639 16.5158C21.6211 16.5073 21.6033 16.4989 21.5858 16.4908ZM21.6649 16.5277C21.6768 16.5331 21.6888 16.5389 21.7011 16.5443C21.6892 16.5389 21.6768 16.5335 21.6649 16.5277ZM17.3426 18.4542C17.3557 18.4611 17.3684 18.4692 17.3804 18.4776C17.3684 18.4692 17.3557 18.4615 17.3426 18.4542ZM17.2097 18.4184C17.2113 18.3999 17.2093 18.3791 17.2125 18.3614C17.2093 18.3795 17.2113 18.3999 17.2097 18.4184C17.2495 18.4184 17.2877 18.4284 17.3223 18.4442C17.2877 18.4284 17.2495 18.4184 17.2097 18.4184ZM17.3458 20.5899C17.3398 20.5734 17.3346 20.5565 17.3295 20.5399C17.3346 20.5565 17.3402 20.5734 17.3458 20.5899ZM18.1897 21.2217C18.1841 21.2213 18.1798 21.2194 18.1758 21.2171C18.1798 21.2194 18.1841 21.2213 18.1897 21.2217ZM33.0864 13.6105C33.084 13.6178 33.0824 13.6252 33.0828 13.6325C33.0828 13.6252 33.0836 13.6178 33.0864 13.6105ZM33.148 13.6921C33.1727 13.6702 33.1941 13.6444 33.2188 13.6228C33.243 13.6013 33.2709 13.5836 33.3071 13.5774C33.2709 13.5836 33.243 13.6013 33.2188 13.6228C33.1941 13.6448 33.1727 13.6702 33.148 13.6921ZM33.3266 13.5582L33.3457 13.5394C33.3393 13.5455 33.3329 13.5521 33.3266 13.5582ZM33.4769 13.145C33.4801 13.1254 33.4829 13.1057 33.4845 13.0861C33.4829 13.1057 33.4801 13.1254 33.4769 13.145ZM33.4518 13.2527C33.4542 13.2446 33.4566 13.2366 33.4586 13.2285C33.4566 13.2366 33.4542 13.2446 33.4518 13.2527ZM23.0084 10.8803C25.2053 11.4082 27.4023 11.9372 29.6004 12.4624C29.7225 12.4917 29.7683 12.529 29.7468 12.6629C29.7185 12.8391 29.7531 13.018 29.8132 13.1888C29.8359 13.1665 29.8494 13.1388 29.8502 13.1107C29.8494 13.1388 29.8359 13.1665 29.8132 13.1888C29.8275 13.3447 29.9297 13.4693 29.9739 13.6144C29.4298 13.9372 28.8857 14.26 28.3417 14.5828C28.3472 14.5982 28.3397 14.6355 28.3496 14.6459C28.3397 14.6355 28.3472 14.5982 28.3417 14.5828C27.2301 15.2034 26.1348 15.8502 25.0395 16.4969C24.3777 16.8821 23.7159 17.2672 23.0537 17.6524C22.9638 17.6435 22.9507 17.5592 22.9101 17.5069C22.732 17.2768 22.5454 17.0552 22.3048 16.8817C22.2893 16.869 22.2742 16.8559 22.2587 16.8432L22.2571 16.8421C22.2428 16.8313 22.2289 16.8201 22.2145 16.8094H22.2137C22.1915 16.8086 22.1696 16.8078 22.1509 16.8028C22.1386 16.7994 22.1274 16.7944 22.1191 16.7863C22.1278 16.7944 22.1386 16.7997 22.1509 16.8028C22.1696 16.8078 22.1915 16.8086 22.2137 16.809C22.1756 16.7813 22.1374 16.7532 22.0996 16.7255C22.0503 16.6732 21.9934 16.6316 21.9214 16.6128H21.921C21.8757 16.607 21.8315 16.5951 21.7886 16.5797C21.8315 16.5951 21.8757 16.607 21.921 16.6131C21.7246 16.4462 21.4819 16.3611 21.2441 16.273C21.1332 16.2322 21.0934 16.2007 21.1308 16.0729C21.227 15.7436 21.2986 15.4073 21.3805 15.0737C21.4692 14.7475 21.5663 14.4235 21.6442 14.0949C21.7528 13.6363 21.9035 13.1873 21.9811 12.7218C22.139 12.2312 22.2511 11.7295 22.3732 11.2301C22.4345 11.0789 22.3975 10.8457 22.5379 10.7865C22.658 10.7357 22.8493 10.8419 23.0088 10.8803H23.0084ZM21.1153 15.2257C21.1296 15.2234 21.1427 15.2196 21.155 15.2142C21.1427 15.2196 21.1296 15.2234 21.1153 15.2257ZM21.6935 13.0007C21.6983 12.9865 21.7043 12.9726 21.7118 12.9595C21.7043 12.9726 21.6987 12.9861 21.6935 13.0007ZM19.7742 9.10971C20.4022 8.74535 21.0313 8.38407 21.6573 8.01624C21.7436 7.96546 21.7981 7.94391 21.8685 8.03779C22.0602 8.29288 22.3235 8.46102 22.6214 8.57952C22.7073 8.61376 22.7331 8.6457 22.7057 8.74573C22.5649 9.25707 22.4349 9.77148 22.3084 10.2863C22.2869 10.3736 22.2682 10.4017 22.1684 10.3775C21.1061 10.117 20.0422 9.8619 18.9434 9.59642C19.2377 9.42367 19.5049 9.26553 19.7738 9.10932L19.7742 9.10971ZM18.6455 9.82342C19.7976 10.1043 20.9506 10.3825 22.1048 10.6576C22.1899 10.678 22.2046 10.7003 22.1815 10.7826C22.1211 10.9969 22.0745 11.2151 22.0224 11.4317C22.024 11.4629 22.0256 11.494 22.0272 11.5267C22.0256 11.494 22.024 11.4629 22.0224 11.4317C21.8661 12.0311 21.7102 12.6306 21.5539 13.23C21.6188 13.2096 21.6454 13.1677 21.6617 13.1196C21.6454 13.1677 21.6184 13.2096 21.5539 13.23C21.3821 13.8964 21.2107 14.5628 21.0389 15.2292C20.9725 15.4808 20.8981 15.7309 20.8428 15.9848C20.815 16.1126 20.7728 16.1403 20.6332 16.1176C20.1246 16.0352 19.6151 16.0287 19.1144 16.1834C18.9672 16.1911 18.8368 16.2549 18.7023 16.3042C18.5866 16.3469 18.4681 16.4508 18.3635 16.4365C18.2402 16.42 18.2378 16.2318 18.1384 16.1487C18.1237 16.1487 18.107 16.1518 18.0931 16.1503C18.107 16.1518 18.1237 16.1487 18.1384 16.1487C17.8039 15.6074 17.469 15.0657 17.1346 14.5243C17.1207 14.5374 17.1091 14.5451 17.0996 14.5486C17.1091 14.5447 17.1207 14.537 17.1346 14.5243C16.5766 13.6244 16.0206 12.7233 15.4586 11.8257C15.3906 11.7168 15.3576 11.6564 15.5123 11.5879C15.6778 11.5148 15.8241 11.4017 15.9788 11.3059C16.4179 11.0596 16.8637 10.8242 17.2781 10.5387C17.6488 10.3555 18.0024 10.1447 18.3492 9.92307C18.3985 9.8973 18.4474 9.87113 18.4967 9.84535H18.4975C18.5441 9.81958 18.5874 9.80919 18.6459 9.82342H18.6455ZM21.6812 13.0453C21.6788 13.0546 21.6768 13.0642 21.6744 13.0734C21.6768 13.0642 21.6788 13.0546 21.6812 13.0453ZM17.0757 14.5497C17.0713 14.5478 17.0678 14.5447 17.0646 14.5409C17.0678 14.5447 17.0713 14.5478 17.0757 14.5497ZM17.168 10.4321C17.1807 10.4371 17.193 10.4436 17.205 10.4513C17.1934 10.4436 17.1811 10.4375 17.168 10.4321ZM15.2152 9.00275C16.1276 9.21782 17.0387 9.43829 17.9495 9.65875C18.0099 9.67337 18.0835 9.66529 18.1233 9.72993C18.165 9.78149 18.2136 9.80265 18.2688 9.79226C18.2132 9.80265 18.165 9.78149 18.1233 9.72993C17.7403 9.95501 17.3573 10.1801 16.9743 10.4052C16.9894 10.4059 17.0041 10.4063 17.0192 10.4071C17.0041 10.4063 16.9894 10.4059 16.9743 10.4052L16.9727 10.4067C16.8896 10.4471 16.8005 10.4783 16.7337 10.5452C16.3582 10.7626 15.9824 10.9804 15.607 11.1978C15.4781 11.2693 15.3385 11.4109 15.2236 11.3944C15.1019 11.3767 15.0661 11.1689 14.9774 11.0539C14.9698 11.0442 14.9579 11.0381 14.948 11.0304L14.9328 10.9896C14.7062 10.6218 14.483 10.2528 14.2512 9.88845C14.1848 9.78379 14.1653 9.71877 14.283 9.62489C14.5149 9.44021 14.6891 9.20744 14.7837 8.9258C14.7833 8.90887 14.7901 8.89194 14.7964 8.87501C14.7897 8.89194 14.7829 8.90925 14.7837 8.9258C14.9376 8.89848 15.074 8.97004 15.2156 9.00352L15.2152 9.00275ZM14.798 8.86962C14.7996 8.86539 14.8012 8.86154 14.8024 8.85731C14.8008 8.86154 14.7996 8.86539 14.798 8.86962ZM14.8056 8.84808C14.8072 8.84308 14.8084 8.83807 14.8088 8.83307C14.808 8.83807 14.8068 8.84308 14.8056 8.84808ZM12.405 9.22783C12.405 9.22783 12.4034 9.22783 12.4022 9.22783C12.403 9.22783 12.4038 9.22783 12.405 9.22783ZM12.3509 9.78803C12.3569 9.79841 12.364 9.80919 12.3712 9.81958C12.3644 9.80919 12.3569 9.79841 12.3509 9.78803ZM12.6365 10.768C12.5271 10.8415 12.4635 10.9496 12.3955 11.055C12.4635 10.9496 12.5275 10.8415 12.6365 10.768C12.6906 10.5798 12.753 10.3932 12.7956 10.2024C12.8182 10.1004 12.8568 10.0716 12.9646 10.0766C13.2823 10.0912 13.5898 10.0423 13.8714 9.88806C14.0722 10.1058 14.1879 10.3759 14.3534 10.6152C14.4329 10.7303 14.5081 10.8476 14.5852 10.9642C14.6445 11.1043 14.7292 11.2293 14.8227 11.3497C14.934 11.5783 14.9332 11.5771 14.6998 11.7133C13.8137 12.2297 12.9284 12.7468 12.0427 13.2639C11.9858 13.1546 12.0872 13.0638 12.0797 12.9603C12.2742 12.2316 12.4766 11.5048 12.6365 10.768V10.768ZM11.8434 13.891C11.88 13.744 11.9488 13.6502 12.088 13.5763C12.3465 13.4386 12.5919 13.2785 12.8429 13.1277C12.8787 13.1115 12.9165 13.0988 12.9499 13.0792C13.618 12.6925 14.2886 12.3089 14.9515 11.9138C15.08 11.8372 15.1245 11.8511 15.2005 11.9753C15.6467 12.7056 16.1049 13.4293 16.5587 14.1553C16.989 14.8467 17.4197 15.5381 17.8501 16.2295C17.8906 16.3011 17.9201 16.3823 17.9745 16.4427C18.0919 16.5727 18.0445 16.6366 17.9137 16.7313C17.4014 17.1018 16.9966 17.56 16.7667 18.1471C16.7408 18.1983 16.7114 18.2479 16.6899 18.3007C16.5877 18.5511 16.5881 18.5531 16.3049 18.4846C14.5956 18.0717 12.887 17.6558 11.1765 17.248C11.0214 17.211 10.9951 17.1595 11.0373 17.0171C11.1097 16.7728 11.1586 16.522 11.217 16.2738L11.2135 16.273C11.2433 16.2692 11.2345 16.2469 11.2361 16.2292C11.3057 16.0141 11.3658 15.7971 11.404 15.5747C11.5515 15.0141 11.7034 14.4543 11.8434 13.8918V13.891ZM7.57202 14.799C7.58037 14.801 7.58872 14.8033 7.59747 14.8048C7.58912 14.8033 7.58077 14.801 7.57202 14.799ZM6.22656 17.1437C6.17884 17.1191 6.13111 17.0945 6.08299 17.0706C6.13111 17.0948 6.17884 17.1191 6.22656 17.1437ZM8.60209 16.9883C8.61163 16.9898 8.62158 16.9887 8.63192 16.9863C8.62197 16.9887 8.61203 16.9898 8.60209 16.9883ZM8.79816 16.3442C8.79816 16.3561 8.79935 16.3684 8.79896 16.3807C8.79896 16.3684 8.79856 16.3565 8.79816 16.3442ZM10.5083 17.1056C10.2757 16.9987 10.0191 16.9748 9.77454 16.9075C9.45916 16.8209 9.13343 16.7701 8.8264 16.6535C8.85185 16.5223 8.87532 16.3915 8.83356 16.2592C8.80055 16.2826 8.79737 16.3123 8.79776 16.343C8.79737 16.3123 8.80055 16.2826 8.83356 16.2592C8.84589 16.0576 8.78384 15.8694 8.70311 15.6897C8.66413 15.6028 8.66254 15.5635 8.75521 15.5135C8.93537 15.4162 9.10599 15.3031 9.28058 15.1965C9.26786 15.1434 9.25553 15.0899 9.24041 15.0272C9.25513 15.0899 9.26786 15.143 9.28058 15.1961C9.97658 14.7963 10.6722 14.3966 11.3686 13.998C11.4115 13.9734 11.4473 13.931 11.5169 13.9353C11.3542 14.5682 11.1924 15.1976 11.0313 15.8275C11.019 15.8763 11.0138 15.9267 11.0051 15.9768C11.0301 16.0072 11.0476 15.996 11.0528 15.9729C11.0472 15.996 11.0301 16.0068 11.0051 15.9768C10.9005 16.2799 10.8249 16.5897 10.7629 16.9032C10.7541 16.9202 10.7402 16.9363 10.7378 16.954C10.7195 17.0898 10.6654 17.1714 10.5075 17.1052L10.5083 17.1056ZM10.523 18.7978C10.527 18.7801 10.5306 18.762 10.5354 18.7447C10.531 18.7624 10.527 18.7801 10.523 18.7978C10.5191 18.8155 10.5155 18.8335 10.5111 18.8509C10.5155 18.8332 10.5191 18.8155 10.523 18.7978ZM9.13462 24.4101C9.34462 23.5995 9.55302 22.7884 9.76102 21.977C9.77215 21.9339 9.77494 21.8889 9.7817 21.845C9.77931 21.8388 9.77892 21.8308 9.77454 21.8273C9.77892 21.8304 9.77931 21.8388 9.7817 21.845C9.96544 21.1551 10.1496 20.4653 10.3325 19.775C10.383 19.5834 10.4288 19.391 10.4769 19.1987C10.4459 19.2094 10.3906 19.2218 10.3779 19.2314C10.3906 19.2218 10.4459 19.2094 10.4769 19.1987L10.4709 19.1952C10.525 18.9905 10.5791 18.7858 10.6336 18.5808C10.6169 18.5935 10.603 18.6069 10.5914 18.6215C10.5739 18.6435 10.5612 18.6673 10.5517 18.6927C10.5612 18.6677 10.5739 18.6435 10.5914 18.6215C10.603 18.6069 10.6169 18.5931 10.6336 18.5808L10.6356 18.5788C10.6614 18.4773 10.6877 18.3757 10.7135 18.2741L10.7155 18.2714C10.7283 18.2222 10.7414 18.1729 10.7541 18.1233L10.7553 18.1175C10.768 18.0683 10.7811 18.019 10.7939 17.9694L10.7867 17.9709C10.7927 17.9528 10.799 17.9351 10.805 17.9171C10.8623 17.7832 10.8293 17.5716 10.9506 17.5212C11.0623 17.4746 11.2377 17.5658 11.3837 17.6008C12.4989 17.869 13.6136 18.1383 14.7284 18.4069C15.3302 18.5519 15.9323 18.6958 16.534 18.8401C16.5945 18.6639 16.6891 18.5007 16.7567 18.3272C16.6891 18.5007 16.5945 18.6639 16.534 18.8401C16.4744 19.1844 16.4557 19.5296 16.5022 19.877C16.5432 20.2956 16.6744 20.6892 16.8773 21.0578C16.9425 21.1763 16.9134 21.2102 16.8065 21.2713C15.8142 21.8423 14.8259 22.4198 13.8368 22.9962C13.8033 23.0154 13.7739 23.0404 13.7425 23.0627C13.7509 23.0774 13.7548 23.0893 13.7556 23.0993C13.7548 23.0893 13.7509 23.0774 13.7425 23.0627C12.9037 23.5464 12.065 24.03 11.2266 24.514C10.8472 24.7333 10.4677 24.9526 10.0903 25.1746C10.0203 25.2158 9.97936 25.2366 9.91931 25.1496C9.73914 24.8888 9.49177 24.6968 9.19587 24.5721C9.09366 24.529 9.11752 24.4802 9.13582 24.4094L9.13462 24.4101ZM13.721 23.1443C13.7266 23.1416 13.7318 23.1389 13.7365 23.1354C13.7318 23.1389 13.7266 23.1416 13.721 23.1443ZM7.32981 26.8756C7.29283 26.856 7.25624 26.8345 7.22004 26.811C7.25584 26.8345 7.29243 26.856 7.32981 26.8756C7.55253 26.9934 7.79712 27.0399 8.06836 26.988C8.06836 26.958 8.07274 26.9306 8.08626 26.9153C8.07274 26.9306 8.06876 26.958 8.06876 26.988C7.79752 27.0399 7.55333 26.9937 7.33021 26.8756H7.32981ZM10.175 25.8322C10.175 25.8476 10.1762 25.8626 10.179 25.8772C10.1762 25.8626 10.175 25.8476 10.175 25.8322ZM10.1774 25.7564C10.1492 25.7333 10.1396 25.7041 10.1377 25.6721C10.1392 25.7041 10.1492 25.7329 10.1774 25.7564ZM10.1798 25.8826C10.1854 25.9064 10.1969 25.9287 10.2188 25.9491C10.1969 25.9287 10.1854 25.9064 10.1798 25.8826ZM17.469 28.2877C16.1904 27.9764 14.911 27.669 13.6315 27.3604C12.5605 27.1019 11.4903 26.841 10.418 26.5871C10.2932 26.5574 10.247 26.5213 10.2681 26.3866C10.2904 26.2419 10.325 26.085 10.22 25.9488C10.1953 25.8868 10.2761 25.8029 10.1794 25.7556C10.1703 25.7156 10.222 25.6556 10.1412 25.639C10.1369 25.6021 10.1329 25.5652 10.1285 25.5286C10.1178 25.5286 10.1066 25.5282 10.0959 25.5278C10.0955 25.5705 10.1011 25.6113 10.1384 25.6398C10.1011 25.6109 10.0955 25.5705 10.0959 25.5278C10.1066 25.5278 10.1178 25.5286 10.1285 25.5286C10.3922 25.3047 10.7115 25.165 11.0063 24.9888C11.6951 24.5775 12.3899 24.175 13.0823 23.7691C13.0389 23.7591 12.9992 23.7657 12.9614 23.7791C12.9996 23.7653 13.0389 23.7591 13.0823 23.7691L13.0839 23.7672C13.2163 23.6903 13.3488 23.6129 13.4812 23.536C13.5472 23.4979 13.6136 23.4594 13.6797 23.4206C13.7302 23.3921 13.7803 23.3636 13.8308 23.3348C13.8658 23.3182 13.9024 23.304 13.9358 23.2843C14.9503 22.6964 15.9649 22.1082 16.9787 21.5187C17.0526 21.4756 17.0996 21.426 17.1819 21.5318C17.6353 22.1147 18.2219 22.5248 18.945 22.7426C19.0571 22.7765 19.0802 22.8103 19.048 22.9285C18.9167 23.4082 18.8034 23.893 18.6833 24.3759C18.6976 24.3913 18.7071 24.4074 18.7127 24.4236C18.7071 24.4074 18.6976 24.3917 18.6833 24.3759C18.6081 24.6587 18.5305 24.9415 18.4578 25.225C18.2673 25.9668 18.0787 26.7094 17.8898 27.4512C17.827 27.6851 17.7506 27.9164 17.7061 28.1534C17.6763 28.3123 17.6043 28.32 17.4687 28.2869L17.469 28.2877ZM17.9061 28.3573C17.8604 28.3134 17.8294 28.2665 17.8115 28.2161C17.8294 28.2665 17.8604 28.3134 17.9061 28.3573ZM19.1446 30.6943C18.9127 30.8289 18.6789 30.9609 18.4494 31.1002C18.3746 31.1456 18.3353 31.1479 18.2716 31.076C18.0676 30.8443 17.8166 30.6689 17.5208 30.5592C17.4424 30.53 17.411 30.5027 17.4368 30.4065C17.5808 29.8701 17.7156 29.3319 17.8477 28.7925C17.8715 28.6947 17.9181 28.6951 18.0008 28.7151C19.0543 28.971 20.1087 29.2245 21.2151 29.4912C20.4996 29.9071 19.8219 30.3007 19.1442 30.6947L19.1446 30.6943ZM21.1857 29.1818C20.115 28.9163 19.0408 28.6651 17.9682 28.4089C18.0573 27.9248 18.2016 27.4539 18.3221 26.9772C18.6061 25.8537 18.8964 24.7318 19.1844 23.6091C19.1434 23.5941 19.1271 23.6033 19.1203 23.6206C19.1275 23.6033 19.1438 23.5941 19.1844 23.6091C19.2241 23.4552 19.2731 23.3055 19.2922 23.1451C19.3224 22.8877 19.3777 22.8577 19.6354 22.8854C20.3179 22.9596 20.9677 22.8469 21.5778 22.5468C21.711 22.4814 21.7564 22.5187 21.8184 22.6218C22.024 22.9639 22.2352 23.3024 22.4472 23.641C22.8982 24.362 23.3508 25.0823 23.803 25.8029C24.0957 26.2789 24.3797 26.7598 24.6863 27.2273C24.7877 27.3816 24.7551 27.4439 24.6095 27.527C23.7131 28.0395 22.8202 28.5578 21.9266 29.0752C21.8991 29.091 21.8765 29.1153 21.8518 29.1353C21.6402 29.2926 21.4219 29.2403 21.1861 29.1818H21.1857ZM23.008 29.6916C23.0235 29.6993 23.0394 29.7047 23.0557 29.7093C23.0398 29.7047 23.0239 29.6993 23.008 29.6916ZM23.1193 29.7186C23.1193 29.7186 23.1229 29.7189 23.1245 29.7186C23.1229 29.7186 23.1209 29.7186 23.1193 29.7186ZM24.4568 29.9798C24.0599 29.8598 23.6546 29.7709 23.2494 29.6832C23.1428 29.6812 23.0461 29.6024 22.934 29.6451C22.9237 29.6393 22.9125 29.6366 22.901 29.6374C22.8875 29.6243 22.8739 29.6112 22.8604 29.5985C22.5983 29.4966 22.3156 29.4662 22.0145 29.373C22.2794 29.2188 22.5228 29.076 22.7666 28.9344C23.4554 28.5339 24.1462 28.1361 24.8319 27.7313C24.9285 27.674 24.9627 27.6805 25.0208 27.7775C25.2952 28.2342 25.5776 28.6867 25.8647 29.1364C25.9148 29.2149 25.9097 29.2445 25.8337 29.2999C25.5656 29.4966 25.3676 29.7501 25.2443 30.0529C25.2169 30.1202 25.187 30.1464 25.1186 30.1406C25.1298 30.1768 25.1047 30.2126 25.0876 30.248C25.1043 30.213 25.1294 30.1768 25.1186 30.1406C24.8979 30.0871 24.6772 30.0333 24.4564 29.9798H24.4568ZM27.8628 27.3339C27.8783 27.2484 27.893 27.163 27.9086 27.0776C27.893 27.163 27.8783 27.2484 27.8628 27.3339ZM27.9392 26.6825C27.965 26.7029 27.9718 26.7252 27.9706 26.7483C27.9714 26.7252 27.9646 26.7029 27.9392 26.6825C27.759 27.3685 27.5745 28.0533 27.4027 28.7409C27.3681 28.8798 27.3219 28.929 27.1672 28.9113C26.8753 28.8775 26.5866 28.9194 26.3153 29.0333C26.2155 29.0752 26.1658 29.0579 26.1117 28.9691C25.8377 28.5177 25.5609 28.068 25.2773 27.6224C25.2204 27.5332 25.2336 27.5001 25.323 27.4493C25.5784 27.305 25.8273 27.1496 26.0787 26.9984L26.0799 26.9964C26.1964 26.9487 26.3022 26.8841 26.4016 26.8087C26.4016 26.8094 26.4016 26.8098 26.4012 26.8106C26.4136 26.8091 26.4235 26.8037 26.4307 26.7937C26.9922 26.4736 27.5542 26.1538 28.142 25.8187C28.0708 26.1207 28.0048 26.4016 27.9388 26.6821L27.9392 26.6825ZM25.9347 27.0111C25.9284 27.0122 25.922 27.013 25.916 27.0134C25.922 27.0134 25.9284 27.0122 25.9347 27.0111ZM28.3047 25.2343C28.2764 25.3489 28.2223 25.422 28.1178 25.4821C27.6317 25.7622 27.1501 26.0492 26.6669 26.3339C26.1678 26.6194 25.6659 26.9006 25.1711 27.1938C25.0705 27.2535 25.0407 27.2408 24.985 27.1484C24.7953 26.8352 24.594 26.529 24.3972 26.22C24.3502 26.1361 24.3065 26.0499 24.2556 25.9684C23.5286 24.8007 22.8023 23.6325 22.0706 22.4675C22.0022 22.3583 22.0081 22.3063 22.1199 22.2301C22.6401 21.875 23.0104 21.3995 23.2697 20.8412C23.4272 20.5022 23.4248 20.5034 23.8006 20.593C24.7826 20.8281 25.7645 21.0613 26.7468 21.2952C27.481 21.4756 28.214 21.6619 28.9506 21.8327C29.1256 21.8731 29.1613 21.93 29.1152 22.0989C28.9414 22.7399 28.7851 23.3855 28.622 24.0292C28.5151 24.4305 28.4037 24.8311 28.3043 25.2343H28.3047ZM29.0373 23.3297C29.0313 23.3517 29.0253 23.3732 29.0194 23.3955C29.0106 23.4298 29.0023 23.4644 28.9939 23.499C28.9887 23.5198 28.9836 23.5406 28.9784 23.5614C28.9836 23.5406 28.9887 23.5198 28.9939 23.499C29.0023 23.4644 29.0106 23.4298 29.0194 23.3955C29.0249 23.3736 29.0309 23.3517 29.0373 23.3297ZM28.6439 25.1689C28.8301 24.4248 29.0078 23.7149 29.1856 23.005L29.184 23.0031C29.2544 22.8269 29.2866 22.6414 29.3272 22.4579C29.3709 22.2932 29.4147 22.1282 29.458 21.9635C29.491 21.9681 29.5241 21.9723 29.5571 21.9766L29.5634 21.9777C29.7213 22.0158 29.8792 22.0535 30.0371 22.0916L30.0411 22.0932C30.1457 22.1182 30.2507 22.1436 30.3553 22.1686V22.1613H30.3557C30.409 22.1766 30.4623 22.1917 30.5155 22.207L30.5175 22.2082C30.675 22.2463 30.8329 22.2844 30.9904 22.3221L30.9864 22.3179C31.0039 22.3225 31.0214 22.3275 31.0389 22.3321C31.0544 22.3336 31.0704 22.3352 31.0859 22.3363C31.1058 22.3444 31.1252 22.3521 31.1451 22.3602V22.3609H31.1455C31.2748 22.3736 31.334 22.4167 31.3062 22.566C31.2569 22.8307 31.3046 23.0927 31.3893 23.349C31.4124 23.4182 31.4669 23.4848 31.437 23.5664C31.4772 23.5806 31.4828 23.5952 31.476 23.6095C31.4828 23.5948 31.4768 23.5806 31.437 23.5664C31.0779 23.7426 30.7422 23.9573 30.4006 24.1616C29.8247 24.4913 29.2492 24.821 28.6435 25.1681L28.6439 25.1689ZM31.4709 23.6191C31.4724 23.6168 31.474 23.6145 31.4752 23.6122C31.474 23.6145 31.4724 23.6168 31.4709 23.6191ZM30.4448 24.3366C30.4376 24.3443 30.43 24.3524 30.4229 24.3601C30.43 24.3524 30.4376 24.3443 30.4448 24.3366Z" fill="url(#paint0_linear_2130_1607)"/>
<path d="M39.5 20C39.5 23.8567 38.3563 27.6269 36.2137 30.8336C34.071 34.0404 31.0255 36.5397 27.4623 38.0156C23.8992 39.4916 19.9784 39.8777 16.1957 39.1253C12.4131 38.3729 8.93855 36.5157 6.21143 33.7886C3.4843 31.0615 1.62711 27.5869 0.874696 23.8043C0.122284 20.0216 0.508449 16.1008 1.98436 12.5377C3.46027 8.97451 5.95963 5.92903 9.16639 3.78634C12.3731 1.64365 16.1433 0.5 20 0.5C25.1717 0.5 30.1316 2.55446 33.7886 6.21142C37.4455 9.86837 39.5 14.8283 39.5 20Z" stroke="black" stroke-opacity="0.02"/>
<defs>
<linearGradient id="paint0_linear_2130_1607" x1="22.6786" y1="9.83333" x2="17.6756" y2="30.862" gradientUnits="userSpaceOnUse">
<stop stop-color="#FD16FE"/>
<stop offset="0.394609" stop-color="#3F8AFE"/>
<stop offset="1" stop-color="#00D5FE"/>
</linearGradient>
</defs>
</svg>
