<svg width="40" height="40" viewBox="0 0 40 40" fill="none" xmlns="http://www.w3.org/2000/svg">
<g clip-path="url(#clip0_3660_318)">
<path fill-rule="evenodd" clip-rule="evenodd" d="M20 0C31.0465 0 40 8.95353 40 20C40 31.0465 31.0465 40 20 40C8.95353 40 0 31.0465 0 20C0 8.95353 8.95353 0 20 0Z" fill="#F0B90B"/>
<path d="M10.992 20L11.0064 25.2884L15.5 27.9327V31.0288L8.3766 26.8509V18.4535L10.992 20ZM10.992 14.7115V17.7932L8.375 16.2452V13.1634L10.992 11.6154L13.6218 13.1634L10.992 14.7115ZM17.3766 13.1634L19.9936 11.6154L22.6234 13.1634L19.9936 14.7115L17.3766 13.1634Z" fill="#F3F3F3"/>
<path d="M12.8828 24.1923V21.0961L15.4998 22.6442V25.7259L12.8828 24.1923ZM17.3764 29.0416L19.9934 30.5897L22.6232 29.0416V32.1234L19.9934 33.6714L17.3764 32.1234V29.0416ZM26.3764 13.1634L28.9934 11.6154L31.6232 13.1634V16.2452L28.9934 17.7932V14.7115L26.3764 13.1634ZM28.9934 25.2884L29.0078 20L31.6248 18.4519V26.8493L24.5014 31.0272V27.9311L28.9934 25.2884Z" fill="#F3F3F3"/>
<path d="M27.117 24.1923L24.5 25.726V22.6443L27.117 21.0962V24.1923Z" fill="#F3F3F3"/>
<path d="M27.1168 15.8077L27.1312 18.9038L22.6248 21.548V26.8493L20.0078 28.383L17.3908 26.8493V21.548L12.8844 18.9038V15.8077L15.5126 14.2596L19.9918 16.9166L24.4982 14.2596L27.128 15.8077H27.1168ZM12.8828 10.5208L19.9934 6.32849L27.1168 10.5208L24.4998 12.0689L19.9934 9.41182L15.4998 12.0689L12.8828 10.5208Z" fill="#F3F3F3"/>
<path d="M39.5 20C39.5 23.8567 38.3563 27.6269 36.2137 30.8336C34.071 34.0404 31.0255 36.5397 27.4623 38.0156C23.8992 39.4916 19.9784 39.8777 16.1957 39.1253C12.4131 38.3729 8.93855 36.5157 6.21143 33.7886C3.4843 31.0615 1.62711 27.5869 0.874696 23.8043C0.122284 20.0216 0.508449 16.1008 1.98436 12.5377C3.46027 8.97451 5.95963 5.92903 9.16639 3.78634C12.3731 1.64365 16.1433 0.5 20 0.5C25.1717 0.5 30.1316 2.55446 33.7886 6.21142C37.4455 9.86837 39.5 14.8283 39.5 20Z" stroke="black" stroke-opacity="0.02"/>
</g>
<defs>
<clipPath id="clip0_3660_318">
<rect width="40" height="40" fill="white"/>
</clipPath>
</defs>
</svg>
