<svg width="40" height="40" viewBox="0 0 40 40" fill="none" xmlns="http://www.w3.org/2000/svg">
<path d="M20 40C31 40 40 31 40 20C40 9 31 0 20 0C9 0 0 9 0 20C0 31 9 40 20 40Z" fill="black"/>
<path d="M15.1797 25.7891C14.6393 25.7891 14.1829 25.3937 14.092 24.8471L11.016 6.31993C10.9663 6.02116 11.0332 5.72239 11.2047 5.47634C11.3763 5.2303 11.6302 5.06685 11.9201 5.01589C12.5206 4.9122 13.0918 5.32696 13.1948 5.94207L16.2707 24.4693C16.3205 24.768 16.2536 25.0668 16.082 25.3128C15.9105 25.5589 15.6566 25.7223 15.3667 25.7733C15.3066 25.7838 15.2431 25.7891 15.1797 25.7891Z" fill="#CCFF00"/>
<path d="M19.862 31.3024C20.5138 31.3024 21.0423 30.761 21.0423 30.0932C21.0423 29.4254 20.5138 28.8841 19.862 28.8841C19.2101 28.8841 18.6817 29.4254 18.6817 30.0932C18.6817 30.761 19.2101 31.3024 19.862 31.3024Z" fill="#1CD8D2"/>
<path d="M23.5486 29.8946C24.2005 29.8946 24.7289 29.3532 24.7289 28.6854C24.7289 28.0177 24.2005 27.4763 23.5486 27.4763C22.8967 27.4763 22.3683 28.0177 22.3683 28.6854C22.3683 29.3532 22.8967 29.8946 23.5486 29.8946Z" fill="#1CD8D2"/>
<path d="M20.6506 27.3024C21.3025 27.3024 21.8309 26.761 21.8309 26.0933C21.8309 25.4255 21.3025 24.8841 20.6506 24.8841C19.9987 24.8841 19.4703 25.4255 19.4703 26.0933C19.4703 26.761 19.9987 27.3024 20.6506 27.3024Z" fill="#1CD8D2"/>
<path d="M16.9863 28.5379C17.6382 28.5379 18.1666 27.9965 18.1666 27.3287C18.1666 26.6609 17.6382 26.1196 16.9863 26.1196C16.3345 26.1196 15.806 26.6609 15.806 27.3287C15.806 27.9965 16.3345 28.5379 16.9863 28.5379Z" fill="#1CD8D2"/>
<path d="M24.3029 26.0633C24.9547 26.0633 25.4832 25.522 25.4832 24.8542C25.4832 24.1864 24.9547 23.6451 24.3029 23.6451C23.651 23.6451 23.1226 24.1864 23.1226 24.8542C23.1226 25.522 23.651 26.0633 24.3029 26.0633Z" fill="#1CD8D2"/>
<path d="M21.4376 23.3024C22.0895 23.3024 22.6179 22.7611 22.6179 22.0933C22.6179 21.4255 22.0895 20.8842 21.4376 20.8842C20.7858 20.8842 20.2573 21.4255 20.2573 22.0933C20.2573 22.7611 20.7858 23.3024 21.4376 23.3024Z" fill="#1CD8D2"/>
<path d="M17.7398 24.7083C18.3917 24.7083 18.9201 24.1669 18.9201 23.4991C18.9201 22.8313 18.3917 22.29 17.7398 22.29C17.0879 22.29 16.5595 22.8313 16.5595 23.4991C16.5595 24.1669 17.0879 24.7083 17.7398 24.7083Z" fill="#1CD8D2"/>
<path d="M15.1797 25.7891C14.6393 25.7891 14.1829 25.3937 14.092 24.8471L11.016 6.31993C10.9663 6.02116 11.0332 5.72239 11.2047 5.47634C11.3763 5.2303 11.6302 5.06685 11.9201 5.01589C12.5206 4.9122 13.0918 5.32696 13.1948 5.94207L16.2707 24.4693C16.3205 24.768 16.2536 25.0668 16.082 25.3128C15.9105 25.5589 15.6566 25.7223 15.3667 25.7733C15.3066 25.7838 15.2431 25.7891 15.1797 25.7891Z" fill="#CCFF00"/>
<path d="M20.3348 17.2443C18.5764 17.2443 16.9414 17.7839 15.5741 18.7101L15.9464 20.9526C17.1216 19.9034 18.657 19.2654 20.3348 19.2654C24.0249 19.2654 27.0271 22.341 27.0271 26.1213C27.0271 29.9016 24.0249 32.9772 20.3348 32.9772C16.6446 32.9772 13.6424 29.9016 13.6424 26.1213C13.6424 25.6169 13.6973 25.1266 13.7986 24.6538L13.205 21.0844C12.2374 22.5167 11.6696 24.2531 11.6696 26.123C11.6696 31.0176 15.557 35 20.3348 35C25.1126 35 29 31.0176 29 26.123C29 21.2285 25.1143 17.2443 20.3348 17.2443Z" fill="#CCFF00"/>
<path d="M39.5 20C39.5 23.8567 38.3563 27.6269 36.2137 30.8336C34.071 34.0404 31.0255 36.5397 27.4623 38.0156C23.8992 39.4916 19.9784 39.8777 16.1957 39.1253C12.4131 38.3729 8.93855 36.5157 6.21143 33.7886C3.4843 31.0615 1.62711 27.5869 0.874696 23.8043C0.122284 20.0216 0.508449 16.1008 1.98436 12.5377C3.46027 8.97451 5.95963 5.92903 9.16639 3.78634C12.3731 1.64365 16.1433 0.5 20 0.5C25.1717 0.5 30.1316 2.55446 33.7886 6.21142C37.4455 9.86837 39.5 14.8283 39.5 20Z" stroke="black" stroke-opacity="0.02"/>
</svg>
