<svg width="40" height="40" viewBox="0 0 40 40" fill="none" xmlns="http://www.w3.org/2000/svg">
<path fill-rule="evenodd" clip-rule="evenodd" d="M20 0C31.0465 0 40 8.95353 40 20C40 31.0465 31.0465 40 20 40C8.95353 40 0 31.0465 0 20C0 8.95353 8.95353 0 20 0Z" fill="#51843D"/>
<path d="M27.1982 18.8818C25.2498 18.9636 23.2658 18.5245 21.3191 17.9182C20.6311 17.7031 20.1582 17.8276 19.6569 18.3218C18.2471 19.7085 16.6293 20.7947 14.6969 21.2996C11.9822 22.0089 9.61779 21.2818 7.58934 19.3885C5.86668 17.7813 5.86668 17.4649 7.53601 15.808C10.1316 13.2302 12.864 12.8445 16.5458 14.5298C17.6551 15.0365 18.6791 15.696 19.6213 16.4516C20.2258 16.9369 20.5422 16.8053 20.9671 16.2809C22.1298 14.8516 23.4596 13.6 25.0045 12.5831C26.3769 11.6818 27.8329 11.0098 29.4773 10.7609C30.5387 10.6009 31.5378 10.7733 32.5138 11.1431C33.1271 11.376 33.4791 11.8098 33.6231 12.5067C34.4053 16.2916 31.7885 18.7253 28.2862 18.8782C27.9609 18.8925 27.6356 18.88 27.1965 18.88L27.1982 18.8818ZM22.752 15.2907C22.9173 15.3422 23.0382 15.2765 23.136 15.1449C23.408 15.0311 23.6853 14.9298 23.9485 14.8018C26.8267 13.4116 29.7387 12.2453 33.0062 13.4507C33.0951 12.1707 32.8889 11.8525 31.76 11.5396C31.4507 11.4542 31.1236 11.3973 30.8036 11.3831C27.5787 11.2373 25.2036 12.9209 23.0276 15.0222C22.9369 15.1129 22.8445 15.2036 22.7538 15.2942C22.7147 15.3262 22.5636 15.3102 22.7022 15.4169C22.7182 15.3742 22.736 15.3333 22.752 15.2907ZM27.0542 18.0516C29.936 18.4071 31.6978 17.4347 32.7378 15.0578C33.0045 14.4498 32.8533 14.2613 32.32 14.0498C30.336 13.2658 28.4445 13.9538 26.5476 14.4036C26.2542 14.4729 26.2098 14.9369 26.3538 15.1805C26.5138 15.4525 26.7253 15.3476 26.8498 15.0471C26.9725 14.7502 27.1982 14.9387 27.3618 15.0133C28.3449 15.4596 28.5529 16.6222 27.7902 17.4382C27.5805 17.6622 27.3191 17.8347 27.0542 18.0516ZM13.7422 16.0445C11.6071 16.128 9.8809 17.0987 8.38757 18.5689C8.06046 18.8907 8.35023 19.0258 8.52801 19.1911C9.41335 20.0071 10.4516 20.5885 11.632 20.7502C12.9085 20.9262 14.208 20.9156 15.5485 20.2009C14.0302 20.0462 12.7093 19.7511 12.3182 18.2613C12.032 17.1716 12.9049 16.5849 13.7405 16.0445H13.7422ZM17.3013 15.7565C16.5262 15.0862 15.5911 14.7182 14.6347 14.4693C11.3618 13.616 9.20001 14.5653 7.15379 17.1218C6.69335 17.696 7.08979 18.0213 7.45068 18.3893C7.91468 18.8605 8.06757 18.3058 8.25957 18.1173C9.67823 16.7271 11.344 15.8969 13.3191 15.5893C14.6685 15.3778 15.9573 15.6196 17.2996 15.7582L17.3013 15.7565ZM26.6649 17.0613C26.784 16.7165 26.4462 16.5102 26.3431 16.2169C26.2009 15.8151 25.9076 15.7725 25.5805 15.984C25.2711 16.1849 25.1645 16.448 25.3938 16.8018C25.5165 16.9902 25.7671 17.0578 25.792 17.3493C25.8169 17.6391 26.0373 17.8542 26.3449 17.7493C26.6205 17.6551 26.6845 17.3725 26.6667 17.0631L26.6649 17.0613ZM17.0969 16.8978C16.336 16.8693 16.2631 16.96 16.2276 17.9485C16.2205 18.1707 16.1227 18.4569 16.4836 18.4853C16.7947 18.512 16.7129 18.2169 16.7965 18.0516C16.9067 17.8347 16.6756 17.4045 17.1929 17.4293C17.3956 17.4382 17.7565 17.536 17.7067 17.1716C17.6622 16.8498 17.3138 16.8925 17.0951 16.896L17.0969 16.8978ZM18.5422 16.704C18.8853 17.1271 18.8036 17.6782 19.0098 18.1476C19.3422 17.8809 19.6231 17.6782 19.8222 17.3102C19.3867 17.104 18.9636 16.9031 18.5422 16.704ZM18.1369 17.9396C18.144 17.8471 17.9751 17.7476 17.7458 17.744C17.4845 17.7405 17.2782 17.8649 17.2693 18.1422C17.2622 18.3822 17.4418 18.4996 17.6729 18.5085C17.9413 18.5191 18.1298 18.4213 18.1387 17.9396H18.1369Z" fill="#0B110A"/>
<path d="M33.2125 20.9387C33.1591 21.6516 32.8747 22.3076 32.3467 22.8711C31.4365 23.8454 30.2987 24.4569 29.0933 24.9689C28.7805 25.1022 28.4338 25.1396 28.1387 25.0258C26.4391 24.3698 24.6845 24.7662 22.9582 24.7502C21.9076 24.7414 20.9885 25.3298 20.112 25.888C18.4142 26.9671 16.6347 27.9005 14.8569 28.832C12.6329 29.9965 8.51735 29.1894 7.20357 27.3707C6.40535 26.2667 6.43557 24.9369 7.28179 23.936C8.07646 22.9938 9.38135 22.7538 10.5814 23.3031C12.48 24.1742 14.5138 24.256 16.1725 23.0916C18.608 21.3814 21.1858 20.8534 24.0427 21.1378C24.3645 21.1698 24.6951 21.1218 25.0169 21.1538C26.5885 21.3102 27.9734 21.0578 29.0862 19.76C29.6605 19.0916 30.5405 18.8978 31.4489 18.992C32.4427 19.0951 33.1876 19.8827 33.2125 20.9369V20.9387ZM7.28713 25.6356C7.27468 26.8889 8.25779 28.0907 9.72624 28.4142C12.144 28.9476 14.4462 28.7502 16.5671 27.2605C17.7476 26.4302 19.0454 25.7654 20.3129 25.0649C22.6951 23.7494 25.2498 23.9716 27.808 24.2898C28.096 24.3254 28.3662 24.5831 28.6578 24.4676C30.0729 23.904 31.4311 23.2267 32.3022 21.9094C32.6791 21.3387 32.7271 20.6294 32.2827 20.0711C31.8382 19.5129 31.1645 19.4382 30.4942 19.6356C29.9431 19.7974 29.4987 20.1458 29.104 20.5582C28.3076 21.3885 27.392 21.8187 26.1849 21.7351C24.7413 21.6356 23.2836 21.744 21.8347 21.6782C20.3502 21.6125 19.0169 21.9858 17.8329 22.8498C15.4169 24.6116 12.864 24.9458 10.0818 23.7902C8.66668 23.2018 7.30491 24.1547 7.29068 25.6374L7.28713 25.6356Z" fill="#0B110A"/>
<path d="M27.0542 18.0516C27.3173 17.8347 27.5805 17.6605 27.7902 17.4382C28.5529 16.6222 28.3449 15.4596 27.3618 15.0133C27.1982 14.9387 26.9725 14.7502 26.8498 15.0471C26.7253 15.3476 26.5138 15.4525 26.3538 15.1805C26.2098 14.9369 26.2542 14.4729 26.5476 14.4036C28.4462 13.9538 30.3378 13.2676 32.32 14.0498C32.8533 14.2613 33.0045 14.4498 32.7378 15.0578C31.6978 17.4347 29.936 18.4071 27.0542 18.0516Z" fill="#F7F6F6"/>
<path d="M13.7422 16.0445C12.9067 16.5849 12.0338 17.1715 12.32 18.2613C12.7111 19.751 14.032 20.0461 15.5502 20.2008C14.2098 20.9155 12.9102 20.9261 11.6338 20.7501C10.4516 20.5884 9.41335 20.007 8.5298 19.191C8.35202 19.0275 8.06224 18.8924 8.38935 18.5688C9.88269 17.0968 11.6089 16.1279 13.744 16.0444L13.7422 16.0445Z" fill="#F7F6F6"/>
<path d="M17.3013 15.7565C15.9591 15.6178 14.6702 15.3758 13.3209 15.5874C11.3458 15.8967 9.68 16.727 8.26133 18.1154C8.06755 18.3056 7.91466 18.8585 7.45244 18.3874C7.08977 18.0194 6.69511 17.6958 7.15555 17.1198C9.20177 14.5634 11.3636 13.6158 14.6364 14.4674C15.5929 14.7163 16.528 15.0843 17.3031 15.7545L17.3013 15.7565Z" fill="#51843D"/>
<path d="M23.0258 15.0206C25.2036 12.921 27.5787 11.2373 30.8036 11.3831C31.1253 11.3973 31.4507 11.4542 31.76 11.5396C32.8889 11.8525 33.0969 12.1707 33.0062 13.4507C29.7369 12.2453 26.8267 13.4133 23.9485 14.8018C23.6836 14.9298 23.4062 15.0313 23.1342 15.145C23.1005 15.1024 23.0631 15.0597 23.0258 15.0188V15.0206Z" fill="#51843D"/>
<path d="M26.6649 17.0613C26.6827 17.3707 26.6187 17.6533 26.3431 17.7475C26.0356 17.8542 25.8151 17.6373 25.7902 17.3475C25.7653 17.0577 25.5147 16.9884 25.392 16.8C25.1627 16.448 25.2693 16.1831 25.5787 15.9822C25.9058 15.7706 26.1991 15.8133 26.3413 16.2151C26.4445 16.5084 26.7822 16.7129 26.6631 17.0595L26.6649 17.0613Z" fill="#E7E6E5"/>
<path d="M17.0969 16.8978C17.3156 16.8925 17.664 16.8518 17.7084 17.1735C17.7582 17.538 17.3973 17.4402 17.1947 17.4313C16.6773 17.4082 16.9084 17.8366 16.7982 18.0535C16.7147 18.2189 16.7982 18.514 16.4853 18.4873C16.1244 18.4571 16.2222 18.1709 16.2293 17.9504C16.2631 16.962 16.336 16.8713 17.0987 16.8998L17.0969 16.8978Z" fill="#E7E6E5"/>
<path d="M18.5422 16.704C18.9653 16.9049 19.3885 17.104 19.8222 17.3102C19.6231 17.6765 19.3422 17.8809 19.0098 18.1476C18.8036 17.6782 18.8836 17.1271 18.5422 16.704Z" fill="#E7E6E5"/>
<path d="M18.1369 17.9396C18.128 18.4213 17.9396 18.5193 17.6711 18.5086C17.44 18.4979 17.2604 18.3824 17.2675 18.1424C17.2764 17.865 17.4827 17.7406 17.744 17.7442C17.9751 17.7477 18.1422 17.8473 18.1351 17.9397L18.1369 17.9396Z" fill="#E7E6E5"/>
<path d="M22.7538 15.2924C22.8444 15.2018 22.9369 15.1113 23.0258 15.0206C23.0631 15.0597 23.1005 15.1024 23.1342 15.145C23.0382 15.2748 22.9156 15.3404 22.7502 15.2907L22.752 15.2907L22.7538 15.2924Z" fill="#51843D"/>
<path d="M22.752 15.2907C22.736 15.3333 22.7182 15.3742 22.7022 15.4169C22.5636 15.3102 22.7147 15.3262 22.7538 15.2942L22.752 15.2922L22.752 15.2907Z" fill="#51843D"/>
<path d="M7.28713 25.6356C7.30135 24.1529 8.66313 23.1998 10.0782 23.7882C12.8605 24.9456 15.4134 24.6113 17.8294 22.8478C19.0134 21.9838 20.3485 21.6104 21.8311 21.6762C23.28 21.7402 24.736 21.6336 26.1814 21.7331C27.3885 21.8167 28.3058 21.3864 29.1005 20.5562C29.4951 20.1438 29.9396 19.7953 30.4907 19.6336C31.1609 19.4362 31.8347 19.5109 32.2791 20.0691C32.7236 20.6273 32.6756 21.3367 32.2987 21.9073C31.4293 23.2247 30.0711 23.902 28.6542 24.4656C28.3627 24.5811 28.0907 24.3233 27.8045 24.2878C25.248 23.9696 22.6916 23.7473 20.3094 25.0629C19.0418 25.7633 17.744 26.43 16.5636 27.2584C14.4427 28.7482 12.1422 28.9456 9.72269 28.4122C8.25424 28.0887 7.27113 26.8869 7.28358 25.6336L7.28713 25.6356ZM9.08446 24.558C8.85869 25.4771 9.22491 26.1064 10.0587 26.4887C10.9245 26.8869 11.8258 26.9189 12.7467 26.7713C14.5031 26.4904 16.0071 25.5838 17.568 24.8176C18.6827 24.27 19.8116 23.7989 21.0614 23.6051C22.8498 23.3296 24.6614 23.6478 26.4445 23.2976C27.8045 23.0291 29.1858 22.8638 30.3751 22.062C30.9689 21.662 31.3476 21.1216 31.4489 20.4069C31.472 20.2487 31.52 20.0247 31.2729 19.9767C31.0934 19.9411 30.9974 20.0958 30.9707 20.2362C30.7182 21.5589 29.6711 21.9784 28.5814 22.3251C26.7289 22.9118 24.816 22.9687 22.8889 22.9633C21.1289 22.9598 19.4365 23.3011 17.8489 24.1171C16.5636 24.7784 15.2747 25.4362 13.9129 25.9447C13.0045 26.2824 12.0747 26.3784 11.1254 26.2949C10.0694 26.2007 9.48446 25.502 9.08269 24.558H9.08446Z" fill="#83492D"/>
<path d="M9.08446 24.558C9.48446 25.5038 10.0693 26.2026 11.1271 26.295C12.0765 26.3786 13.0062 26.2843 13.9147 25.9448C15.2747 25.4381 16.5636 24.7803 17.8507 24.1172C19.4382 23.2994 21.1307 22.9599 22.8907 22.9634C24.816 22.967 26.7289 22.9119 28.5831 22.3252C29.6729 21.9803 30.72 21.559 30.9725 20.2363C30.9991 20.0959 31.0951 19.9412 31.2747 19.9768C31.5218 20.0248 31.4738 20.2488 31.4507 20.407C31.3493 21.1199 30.9689 21.6621 30.3769 22.0621C29.1876 22.8639 27.8062 23.0292 26.4462 23.2977C24.6631 23.6497 22.8498 23.3297 21.0631 23.6052C19.8133 23.799 18.6845 24.2701 17.5698 24.8177C16.0089 25.5839 14.5049 26.4906 12.7485 26.7714C11.8276 26.919 10.9262 26.887 10.0605 26.4888C9.22668 26.1048 8.86223 25.4772 9.08623 24.5581L9.08446 24.558Z" fill="#0B110A"/>
<path d="M39.5 20C39.5 23.8567 38.3563 27.6269 36.2137 30.8336C34.071 34.0404 31.0255 36.5397 27.4623 38.0156C23.8992 39.4916 19.9784 39.8777 16.1957 39.1253C12.4131 38.3729 8.93855 36.5157 6.21143 33.7886C3.4843 31.0615 1.62711 27.5869 0.874696 23.8043C0.122284 20.0216 0.508449 16.1008 1.98436 12.5377C3.46027 8.97451 5.95963 5.92903 9.16639 3.78634C12.3731 1.64365 16.1433 0.5 20 0.5C25.1717 0.5 30.1316 2.55446 33.7886 6.21142C37.4455 9.86838 39.5 14.8283 39.5 20Z" stroke="black" stroke-opacity="0.02"/>
</svg>
