<svg width="40" height="40" viewBox="0 0 40 40" fill="none" xmlns="http://www.w3.org/2000/svg">
<g clip-path="url(#clip0_2687_4858)">
<path d="M39.5 20C39.5 30.7239 30.7239 39.5 20 39.5C9.27614 39.5 0.5 30.7239 0.5 20C0.5 9.27614 9.27614 0.5 20 0.5C30.7239 0.5 39.5 9.27614 39.5 20Z" fill="url(#paint0_radial_2687_4858)" stroke="#2D1A13"/>
<path d="M31.2045 25.9842C32.6432 26.6458 33.2164 27.6054 32.9273 28.8438C32.7281 29.7008 32.1974 30.2407 31.3449 30.4874C31.0445 30.5739 30.7864 30.6252 30.6672 31.0337C30.2998 32.2929 29.431 32.9769 28.3287 32.9994C27.2183 33.0218 26.4589 32.4547 25.9347 31.2083C25.9119 30.9504 25.889 30.6909 25.8661 30.433C25.9706 30.1126 26.0752 29.7922 26.178 29.4702C26.5994 29.0969 26.3038 28.8342 26.0474 28.5442C25.7224 28.1773 25.5314 28.5202 25.3093 28.6611C23.6909 29.6864 22.0399 30.5787 20.0019 29.9812C19.352 29.9107 18.9356 29.3933 18.3722 29.1578C18.0439 28.8518 17.7173 28.5442 17.3891 28.2382C16.1496 26.162 14.5443 24.4671 12.2646 23.4643C12.0736 23.381 11.9299 23.1951 11.6931 23.2063C11.4759 22.9484 11.2881 22.6569 10.9321 22.5559C10.7443 22.0625 10.2985 21.7918 9.93757 21.4474C9.91471 20.8642 9.33988 20.4685 9.37907 19.863C9.39377 19.6131 9.41173 19.3648 9.2517 19.1453C9.25986 18.9595 9.26639 18.7752 9.27456 18.5894C9.48685 16.9826 10.0192 15.4911 10.9549 14.1471C11.0382 14.0285 11.2064 13.9035 11.0595 13.7321C10.8749 13.5175 10.7263 13.7289 10.5614 13.7866C10.2315 13.9051 9.89838 14.0125 9.56524 14.1246C9.31702 14.1038 9.06716 14.083 8.81894 14.0605C7.03568 13.2243 6.38083 11.342 7.68726 10.2414C8.63115 9.44519 9.46236 8.63938 10.2576 7.69581C11.3665 6.37896 13.2428 7.02617 14.0985 8.83963C14.1165 9.10076 14.1361 9.36188 14.154 9.62301C14.061 9.89855 13.9614 10.1709 13.8764 10.448C13.8209 10.6355 13.5253 10.8069 13.7295 11.0023C13.976 11.2378 14.1671 10.9415 14.35 10.8245C15.8736 9.85209 17.5197 9.27057 19.3569 9.28178C20.1424 9.49325 20.9638 9.6134 21.635 10.1244C21.9648 10.4336 22.2931 10.7444 22.6229 11.0536C22.7568 11.3628 23.0573 11.5054 23.3023 11.7008C24.8569 13.3605 26.4769 14.9545 28.136 16.5116C28.461 16.832 28.786 17.1524 29.1093 17.4728C29.1861 17.5385 29.2645 17.6058 29.3412 17.6714C29.3445 17.7163 29.369 17.7403 29.4147 17.7435C29.7103 18.2882 30.0042 18.8329 30.2998 19.3776C30.8011 21.5242 30.0761 23.373 28.8693 25.1127C28.7027 25.353 28.2732 25.5581 28.6994 25.9682C29.0636 26.319 29.3869 26.4408 29.7968 26.0787C30.0157 26.0275 30.2361 25.9762 30.4549 25.9249C30.7048 25.9426 30.9563 25.9602 31.2061 25.9794L31.2045 25.9842ZM22.3078 14.4386C22.4629 14.2976 22.4515 14.1198 22.4221 13.9388C22.6164 11.8033 21.6627 10.3615 19.7325 10.0283C17.7892 9.6935 16.1202 10.4512 14.5411 11.4653C14.1867 11.6944 14.4415 11.8658 14.5884 12.0324C15.209 12.7373 15.8491 13.4278 16.4615 14.139C17.1507 14.94 17.0837 15.6129 16.2721 16.3706C15.5617 17.0338 14.8905 17.0403 14.1198 16.3754C13.4274 15.7763 12.7415 15.1707 12.0621 14.5588C11.8368 14.3553 11.6539 14.2079 11.4318 14.5668C10.5483 15.9958 9.80529 17.4616 10.0388 19.211C10.0829 21.3288 11.8368 22.6857 14.0985 22.3509C16.8322 21.9456 18.8784 20.4493 20.5245 18.3715C21.4423 17.2117 22.2032 15.9557 22.3094 14.4306L22.3045 14.437L22.3078 14.4386ZM32.3248 28.0252C32.3019 27.9643 32.2807 27.9018 32.2578 27.8409C31.8316 26.657 30.7946 26.2453 29.6972 26.8749C29.3363 27.0816 29.0473 27.1633 28.7762 26.8349C28.2193 26.1636 27.7572 26.2918 27.3016 26.9406C27.166 27.1344 26.9799 27.3091 26.7839 27.4452C26.3511 27.7432 26.3201 28.0268 26.7218 28.3776C27.1823 28.7797 27.3767 29.2122 26.8149 29.7024C26.7284 29.7777 26.7202 29.9411 26.6761 30.0645C26.3642 31.1138 26.8345 32.0446 27.8127 32.3089C28.8464 32.5876 29.8197 31.9148 30.0712 30.7486C30.014 30.127 30.3178 29.8626 30.935 29.9091C31.794 29.8178 32.2382 29.3292 32.3313 28.5042C32.3297 28.344 32.328 28.1854 32.3264 28.0252H32.3248ZM15.9585 15.7186C16.4795 15.3005 16.2868 14.9096 15.9275 14.5043C15.0212 13.4838 14.1279 12.4505 13.2183 11.4333C12.9097 11.0888 12.8574 10.8117 13.1595 10.3936C13.6576 9.70471 13.5972 8.91332 13.1007 8.3302C12.6223 7.7679 11.9919 7.53881 11.2832 7.76149C10.4846 8.0114 10.0241 8.58491 10.0486 9.43237C10.0617 9.90015 9.87715 10.0139 9.4297 10.0219C8.77485 10.0331 8.22615 10.2926 7.93711 10.9238C7.91098 10.9671 7.88648 11.0103 7.86036 11.0536C7.74604 11.1962 7.73461 11.3628 7.74604 11.5358C7.58274 12.2775 7.90118 12.8238 8.51193 13.2083C9.11452 13.5864 9.78406 13.612 10.3377 13.173C10.8178 12.7934 11.1346 12.9103 11.52 13.2515C12.5047 14.1246 13.5139 14.9705 14.4921 15.85C15.0555 16.3578 15.5258 16.361 15.9569 15.7154L15.9585 15.7186ZM23.6289 28.7493C23.8118 28.7012 24.0241 28.698 24.1743 28.6003C26.6843 26.9855 28.7386 24.9846 29.6221 22.0769C30.1202 20.4365 29.7054 18.9931 28.4381 17.7724C26.8117 16.2056 25.2276 14.5972 23.6174 13.0144C23.4835 12.8831 23.4182 12.6187 23.1275 12.686C23.1275 13.0385 23.1422 13.3845 23.1226 13.7289C23.103 14.0734 23.0883 14.4242 23.0067 14.7558C22.1477 18.2498 19.935 20.6656 16.731 22.2836C16.4468 22.4278 16.1023 22.471 15.8932 22.745C14.9706 22.8411 14.0855 23.1871 13.0599 23.0542C13.2983 23.4835 13.6347 23.5668 13.9156 23.6725C15.0816 24.1163 15.9145 24.9253 16.5595 25.9329C17.0347 26.6779 17.6014 27.3523 18.1648 28.0284C19.4859 29.6143 22.0252 29.9427 23.6305 28.7461L23.6289 28.7493Z" fill="#2D1A13"/>
<path d="M15.8932 22.745C16.1039 22.471 16.4468 22.4262 16.731 22.2836C19.935 20.6656 22.1461 18.2514 23.0067 14.7558C23.0883 14.4226 23.103 14.0718 23.1226 13.7289C23.1422 13.3845 23.1275 13.0385 23.1275 12.686C23.4199 12.6187 23.4835 12.8815 23.6174 13.0144C25.2276 14.5972 26.8117 16.2056 28.4381 17.7724C29.7054 18.9931 30.1202 20.4365 29.6221 22.0769C28.7386 24.9846 26.6843 26.9855 24.1743 28.6003C24.0241 28.6964 23.8117 28.7012 23.6288 28.7477C22.1901 28.658 20.8739 28.2575 19.8075 27.2562C19.0465 26.5401 18.3884 25.7375 17.7597 24.9077C17.1849 24.1499 16.7359 23.2816 15.8932 22.745Z" fill="#C64027"/>
<path d="M10.0421 19.2142C9.80853 17.4648 10.5516 15.9974 11.435 14.57C11.6571 14.2111 11.84 14.3585 12.0654 14.562C12.7447 15.1739 13.4306 15.7811 14.123 16.3786C14.8921 17.0435 15.565 17.0371 16.2753 16.3738C17.0869 15.6161 17.1523 14.9432 16.4648 14.1422C15.8524 13.431 15.2122 12.7405 14.5917 12.0356C14.4447 11.8674 14.1899 11.696 14.5443 11.4685C16.1218 10.4528 17.7908 9.6951 19.7357 10.0315C21.6659 10.3647 22.618 11.8065 22.4253 13.942C22.2783 14.0846 22.2718 14.2576 22.311 14.4418L22.3159 14.4354C22.0611 14.586 21.9975 14.8615 21.8848 15.097C20.9686 17.0178 19.494 18.4468 17.7238 19.5986C16.5529 20.3612 15.2432 20.8514 13.847 20.9539C12.2907 21.0693 10.9957 20.4653 10.0453 19.2174L10.0421 19.2142Z" fill="#F07026"/>
<path d="M7.93711 10.9238C8.22779 10.2926 8.77485 10.0331 9.4297 10.0219C9.87715 10.0139 10.0617 9.90015 10.0486 9.43237C10.0241 8.58652 10.4863 8.0114 11.2832 7.76149C11.9919 7.54041 12.6206 7.7679 13.1007 8.3302C13.5972 8.91332 13.6576 9.70631 13.1595 10.3936C12.8574 10.8117 12.9113 11.0888 13.2183 11.4333C14.1279 12.4505 15.0196 13.4838 15.9275 14.5043C16.2868 14.908 16.4795 15.3005 15.9585 15.7186C15.7609 15.7042 15.6026 15.6193 15.4573 15.4879C14.3011 14.4562 13.1269 13.4438 11.992 12.3913C11.6392 12.0644 11.3404 11.9699 10.9305 12.2327C10.1581 12.7261 9.43466 12.4681 8.72592 12.0693C8.40258 11.8866 8.14456 11.5887 7.74774 11.5358C7.73467 11.3644 7.74774 11.1962 7.86205 11.0536C7.88818 11.0103 7.91268 10.9671 7.9388 10.9238L7.93711 10.9238Z" fill="#F8F8F7"/>
<path d="M30.935 29.9091C30.3161 29.861 30.014 30.127 30.0712 30.7486C29.787 30.7325 29.5633 30.8975 29.3118 30.9841C28.3254 31.3237 27.2052 30.9312 26.6761 30.0645C26.7202 29.9411 26.7284 29.7793 26.8149 29.7024C27.375 29.2122 27.1807 28.7797 26.7218 28.3776C26.3201 28.0268 26.3511 27.7432 26.7839 27.4452C26.9815 27.3091 27.166 27.1344 27.3016 26.9406C27.7572 26.2918 28.2193 26.1636 28.7762 26.8349C29.0489 27.1617 29.3363 27.0816 29.6972 26.8749C30.7946 26.2453 31.8316 26.657 32.2578 27.8409C32.2807 27.9018 32.3019 27.9643 32.3248 28.0252C32.3264 28.1854 32.328 28.344 32.3296 28.5042C31.4097 28.5202 30.9443 28.9885 30.9334 29.9091L30.935 29.9091Z" fill="#F8F8F7"/>
<path d="M15.8932 22.745C16.7359 23.2816 17.1832 24.1499 17.7597 24.9077C18.39 25.7375 19.0465 26.5401 19.8075 27.2562C20.8739 28.2575 22.1885 28.658 23.6288 28.7477C22.0235 29.9428 19.4843 29.6159 18.1632 28.03C17.5998 27.3539 17.0347 26.6795 16.5579 25.9345C15.9145 24.9253 15.08 24.1163 13.914 23.6741C13.6331 23.5668 13.2967 23.4851 13.0583 23.0558C14.0839 23.1887 14.969 22.8427 15.8916 22.7466L15.8932 22.745Z" fill="#6E2312"/>
<path d="M10.0421 19.2142C10.9925 20.4621 12.2876 21.0661 13.8438 20.9507C15.2401 20.8482 16.5498 20.3564 17.7207 19.5954C19.4909 18.4436 20.9655 17.0146 21.8816 15.0938C21.9943 14.8583 22.058 14.5828 22.3127 14.4322C22.2049 15.9589 21.4456 17.2133 20.5278 18.3731C18.8817 20.4509 16.8356 21.9472 14.1019 22.3525C11.8418 22.6873 10.0862 21.3304 10.0422 19.2126L10.0421 19.2142Z" fill="#C64027"/>
<path d="M7.74604 11.5358C8.14287 11.5887 8.40085 11.8882 8.72419 12.0693C9.43129 12.4682 10.1564 12.7261 10.9288 12.2327C11.3403 11.9699 11.6375 12.0628 11.9902 12.3913C13.1252 13.4438 14.2994 14.4562 15.4555 15.4879C15.6025 15.6177 15.7593 15.7042 15.9569 15.7186C15.5258 16.3626 15.0554 16.3594 14.492 15.8532C13.5139 14.9737 12.5047 14.1262 11.5199 13.2547C11.1345 12.9135 10.8177 12.7966 10.3376 13.1762C9.78403 13.6136 9.11449 13.5896 8.5119 13.2115C7.89951 12.827 7.58107 12.2807 7.74601 11.539L7.74604 11.5358Z" fill="#E3E3E3"/>
<path d="M26.6761 30.0645C27.2068 30.9296 28.3254 31.3237 29.3118 30.9841C29.5633 30.8975 29.787 30.7325 30.0712 30.7486C29.8197 31.9148 28.8464 32.5876 27.8127 32.3089C26.8345 32.0446 26.3642 31.1138 26.6761 30.0645Z" fill="#E3E3E3"/>
<path d="M30.935 29.9091C30.9459 28.9896 31.4113 28.5212 32.3313 28.5042C32.2382 29.3292 31.794 29.8178 30.935 29.9091Z" fill="#E3E3E3"/>
<path d="M22.3078 14.4386C22.2686 14.2544 22.2751 14.0814 22.4221 13.9388C22.4515 14.1198 22.4629 14.2976 22.3078 14.4386Z" fill="#C64027"/>
<path d="M32.3264 28.0252C32.3035 27.9643 32.2807 27.9018 32.2595 27.8409C32.2823 27.9018 32.3052 27.9643 32.3264 28.0252Z" fill="#E3E3E3"/>
<path d="M29.1078 17.476C29.1845 17.5417 29.2613 17.609 29.3396 17.6746C29.2629 17.609 29.1861 17.5417 29.1078 17.476Z" fill="#EF443A"/>
<path d="M39.5 20C39.5 23.8567 38.3563 27.6269 36.2137 30.8336C34.071 34.0404 31.0255 36.5397 27.4623 38.0156C23.8992 39.4916 19.9784 39.8777 16.1957 39.1253C12.4131 38.3729 8.93855 36.5157 6.21143 33.7886C3.4843 31.0615 1.62711 27.5869 0.874696 23.8043C0.122284 20.0216 0.508449 16.1008 1.98436 12.5377C3.46027 8.97451 5.95963 5.92903 9.16639 3.78634C12.3731 1.64365 16.1433 0.5 20 0.5C25.1717 0.5 30.1316 2.55446 33.7886 6.21142C37.4455 9.86837 39.5 14.8283 39.5 20Z" stroke="black" stroke-opacity="0.02"/>
</g>
<defs>
<radialGradient id="paint0_radial_2687_4858" cx="0" cy="0" r="1" gradientUnits="userSpaceOnUse" gradientTransform="translate(20 20) rotate(90) scale(20)">
<stop offset="0.44789" stop-color="#EC4E43"/>
<stop offset="1" stop-color="#EC1F25"/>
</radialGradient>
<clipPath id="clip0_2687_4858">
<rect width="40" height="40" fill="white"/>
</clipPath>
</defs>
</svg>
