<svg width="40" height="40" viewBox="0 0 40 40" fill="none" xmlns="http://www.w3.org/2000/svg">
<g clip-path="url(#clip0_2994_389)">
<path fill-rule="evenodd" clip-rule="evenodd" d="M20 0C31.0465 0 40 8.95353 40 20C40 31.0465 31.0465 40 20 40C8.95353 40 0 31.0465 0 20C0 8.95353 8.95353 0 20 0Z" fill="#5DDEFE"/>
<path d="M17.1928 13.0381C17.4237 12.9527 17.6546 12.8815 17.8999 12.8388C19.7224 12.4911 21.5624 12.2391 23.412 12.084C23.7584 10.9162 24.2778 9.962 24.9272 9.19297C25.4755 8.58058 26.1248 8.09638 26.8752 7.76882C27.6035 7.45771 28.4168 7.39752 29.184 7.59793C29.5642 7.69167 29.9184 7.86824 30.2205 8.11466C30.5227 8.36109 30.7651 8.67114 30.93 9.02207C31.1753 9.52052 31.2763 10.0475 31.2474 10.6029C31.2041 11.144 31.0454 11.671 30.7568 12.1552C30.4971 12.5824 30.3239 12.9385 30.2085 13.209C30.0353 13.622 29.9632 13.9923 29.9776 14.3484C29.9776 14.3911 29.992 14.4338 30.0209 14.4623C30.194 14.6759 30.3095 14.8895 30.4105 15.1174C30.4393 15.1744 30.4682 15.2028 30.5115 15.2313C30.9444 15.5162 31.2763 15.801 31.4783 16.0858C31.7236 16.4418 31.839 16.8548 31.8102 17.2963C31.8102 17.3533 31.8246 17.396 31.8679 17.4387C32.3874 17.8517 32.7337 18.2932 32.8924 18.8059C33.08 19.3471 33.0223 19.8883 32.7193 20.4437L32.4307 20.814C32.3008 20.9421 32.2286 21.0276 32.1854 21.0988C32.1161 21.1818 32.0668 21.2791 32.0411 21.3836C31.9978 21.6684 31.8535 21.9248 31.6082 22.1811C31.5905 22.2001 31.5775 22.2228 31.57 22.2475C31.5625 22.2721 31.5608 22.2981 31.5649 22.3236C31.6082 22.6226 31.6082 22.9217 31.5504 23.235C31.5504 23.292 31.5504 23.3205 31.6226 23.3347C31.8823 23.4059 32.0988 23.4771 32.2719 23.5768C32.4739 23.6907 32.6182 23.8616 32.7048 24.0468C32.9357 24.5167 32.8058 24.9013 32.3008 25.2146C32.1132 25.3427 31.8679 25.4424 31.6082 25.5279C31.3826 25.6075 31.151 25.6694 30.9155 25.713V25.7557C31.2186 26.1687 31.3196 26.6529 31.233 27.1941C31.0454 28.2765 30.3672 29.0455 29.184 29.5155C29.1415 29.5319 29.1029 29.5569 29.0706 29.5887C29.0383 29.6206 29.0131 29.6587 28.9964 29.7006C28.4576 30.8832 27.5733 31.8799 26.4567 32.5631C25.4034 33.2182 24.1624 33.6312 22.7339 33.7879C21.8681 33.8733 21.1033 33.9303 20.4684 33.973C19.6747 34.0158 18.9532 34.0015 18.3039 33.973C16.8623 33.8846 15.4559 33.4964 14.177 32.8337C12.842 32.1203 11.68 31.129 10.7716 29.9285C9.85501 28.744 9.16994 27.4014 8.75139 25.9694C8.22089 23.9694 8.23582 21.8665 8.79468 19.874L8.98227 19.1477C9.19872 18.2932 9.34301 17.6524 9.42959 17.2251C9.57389 16.5131 9.66047 15.858 9.68933 15.2741C9.68933 15.2028 9.66047 15.1316 9.61718 15.0604C9.13134 14.4789 8.74174 13.8252 8.4628 13.1236C8.1742 12.4115 8.0299 11.6995 8.00104 10.9874C7.98576 10.2485 8.13858 9.5157 8.44824 8.84284C8.7579 8.16999 9.21652 7.57425 9.79034 7.09948C10.4605 6.53163 11.2817 6.1654 12.1564 6.04424C13.0311 5.92307 13.9226 6.05205 14.7253 6.41589C15.4179 6.75768 15.9807 7.3131 16.428 8.06789C17.242 9.57276 17.4875 11.3142 17.1207 12.9812C17.1207 13.0381 17.1351 13.0524 17.1928 13.0381Z" fill="black"/>
<path d="M14.6243 6.61547V7.0712C14.581 7.66934 14.4367 8.23899 14.1626 8.78017C13.6085 8.35449 12.9309 8.11495 12.229 8.09658C11.8805 8.08953 11.5364 8.17421 11.2321 8.34191C10.9277 8.50961 10.6742 8.75427 10.4974 9.05075C10.1828 9.56724 10.0135 10.1572 10.0068 10.7597C10.0068 11.4006 10.1799 11.9702 10.5407 12.426C10.584 12.4687 10.584 12.5114 10.5407 12.5541L10.5118 12.6254C10.3494 12.8489 10.2093 13.0873 10.0934 13.3374C9.97793 13.6222 9.9635 13.8786 10.0356 14.1349C10.1799 14.5907 10.5695 14.8185 11.2333 14.8185C11.2333 14.8755 11.2333 14.9609 11.2766 15.0606V15.203L10.6994 16.8123C10.1053 18.4548 9.8502 20.198 9.94907 21.9392C10.0501 23.8476 10.5263 25.7559 11.4209 27.6501C12.2856 29.5265 13.6156 31.1576 15.2881 32.3924C15.6344 32.6773 15.9519 32.9906 16.226 33.3466C15.1439 33.1112 14.1255 32.6499 13.2391 31.9937C11.1763 30.4794 9.6755 28.3376 8.96784 25.8984C8.69158 24.9451 8.56505 23.9557 8.59267 22.9646C8.6071 21.9962 8.73697 20.9993 8.98227 19.9739C9.18429 19.1337 9.3863 18.2934 9.55946 17.4389C9.70676 16.7441 9.80321 16.0397 9.84806 15.3312H9.89135L10.5695 15.8154L10.5984 15.7869V15.7157C9.25859 14.6215 8.40858 13.0511 8.23192 11.3436C8.1742 10.774 8.21749 10.2328 8.34736 9.70586C8.56167 8.81609 9.04475 8.01155 9.73262 7.39875C10.4215 6.78193 11.2802 6.3805 12.2001 6.24519C13.0948 6.10278 13.8884 6.23095 14.6099 6.60123L14.6243 6.61547Z" fill="#027898"/>
<path d="M14.6243 6.61547C15.1438 6.9003 15.5911 7.299 15.9663 7.81169C16.2982 8.26742 16.5579 8.80859 16.7455 9.44946C17.0892 10.6398 17.1485 11.8927 16.9186 13.1095L16.1683 13.3943L16.1539 13.4086V13.4371C16.1683 13.4798 16.1971 13.494 16.226 13.4798C16.9042 13.2804 17.4814 13.1237 17.9431 13.0383C19.9145 12.654 21.9107 12.4065 23.9171 12.2977C25.0426 12.2408 26.0815 12.3547 27.0051 12.6823C28.0151 13.0098 28.8809 13.551 29.6024 14.3058C29.5073 14.3258 29.4089 14.3258 29.3138 14.3058C28.7642 14.2553 28.2099 14.3134 27.6833 14.4767L26.2691 14.9894C26.1522 15.0239 26.0447 15.0841 25.9548 15.1655C25.8648 15.2469 25.7947 15.3474 25.7497 15.4593C25.4755 15.6017 25.2302 15.7726 25.0137 15.9151C24.7829 16.0575 24.7973 16.1002 25.057 16.0005L26.7309 15.3881C27.4957 15.1175 28.246 15.0178 28.9819 15.0748C29.79 15.146 30.4826 15.4309 31.031 15.9151C31.3917 16.2141 31.6082 16.6271 31.6514 17.1398C31.6514 17.1683 31.6514 17.1825 31.6226 17.1968H31.5649L31.2041 16.9547C31.1689 16.7651 31.0602 16.5965 30.9011 16.4847C30.5259 16.2141 30.1219 16.0005 29.689 15.8723C29.2705 15.7299 28.8232 15.6872 28.3615 15.7299C27.5678 15.8011 26.8463 16.0717 26.1826 16.5274L25.2302 17.0829C24.9416 17.2538 24.6819 17.4674 24.4798 17.6952C24.2778 17.9373 24.1335 18.2079 24.0469 18.4785C23.9604 18.7633 23.9459 19.0482 23.9892 19.3472C24.0325 19.6606 24.1624 19.9596 24.3644 20.2445C24.6963 20.7287 25.0859 21.0989 25.5476 21.341C26.4807 21.8813 27.5389 22.1755 28.6205 22.1955C29.7021 22.2154 30.7707 21.9604 31.7236 21.455C31.7669 21.4407 31.7957 21.455 31.7813 21.5119C31.7303 21.7254 31.6084 21.9159 31.435 22.0531C31.2763 22.1955 31.0743 22.2952 30.8289 22.3807C29.992 22.6655 29.0541 22.8079 28.0007 22.7509C27.0205 22.7123 26.05 22.5446 25.1148 22.2525L25.0715 22.281C26.1104 22.694 27.1494 22.9076 28.2027 22.9646C29.2861 23.0339 30.3703 22.8433 31.3628 22.4091V22.4376L31.3051 23.2352C31.3051 23.2636 31.2907 23.2779 31.2618 23.2921C30.8434 23.3633 30.4393 23.4345 30.0353 23.5485C29.4581 23.6909 28.6645 23.7621 27.6544 23.7621C24.4943 23.7478 21.2476 23.6197 17.9287 23.3776C16.7765 23.2925 15.6207 23.264 14.4656 23.2921C13.7441 23.3348 13.1669 23.4345 12.7196 23.5769C11.4353 24.0042 11.1323 24.8587 11.7961 26.1404C12.7773 28.0203 14.5954 29.2735 17.2505 29.9001C18.7079 30.2419 20.1942 30.4128 21.7238 30.4271C24.0019 30.4534 26.276 30.2337 28.5057 29.772L28.7366 29.7008L28.7799 29.715V29.772C28.1927 30.8871 27.2771 31.8006 26.1537 32.3924C25.0923 33.0924 23.8633 33.5049 22.5895 33.5887C21.7093 33.6599 20.8002 33.7311 19.8767 33.7596C18.5636 33.8023 17.3515 33.6742 16.226 33.3466C15.9374 32.9906 15.6344 32.663 15.2881 32.3924C13.6209 31.1558 12.2959 29.5249 11.4353 27.65C10.5728 25.8633 10.0682 23.929 9.94905 21.9534C9.85018 20.2122 10.1053 18.469 10.6994 16.8265L11.2766 15.203C11.2931 15.157 11.2931 15.1067 11.2766 15.0606C11.2461 14.9835 11.2314 14.9013 11.2333 14.8185C11.7095 14.7473 12.1857 14.6191 12.6474 14.434C13.5439 14.0619 14.4037 13.609 15.2159 13.081H15.1871L15.0139 13.1665C13.9317 13.7504 13.037 14.1634 12.3588 14.3912C11.0746 14.8185 10.3387 14.7188 10.1655 14.1064C10.096 13.8219 10.1371 13.5221 10.2809 13.2662C10.4108 13.0241 10.5695 12.7819 10.786 12.5826C11.1467 12.2265 11.6229 11.899 12.2001 11.5857C12.5464 11.4148 13.0947 11.1869 13.8451 10.8736L14.7975 10.4891C15.1726 10.3182 15.2881 10.1046 15.1293 9.84821C14.8552 9.42097 14.5377 9.06499 14.1626 8.78017C14.506 8.11137 14.6605 7.36354 14.6099 6.61541L14.6243 6.61547Z" fill="#01ACDB"/>
<path d="M29.7323 8.08277C28.8872 8.21904 28.0888 8.55773 27.407 9.06919C26.7253 9.58065 26.181 10.2493 25.8218 11.0165C25.7353 11.1732 25.6198 11.5434 25.4467 12.1131L23.7584 12.0846C23.7295 12.0846 23.7151 12.0704 23.7007 12.0419C24.0505 10.7892 24.7506 9.65898 25.7208 8.7806C26.263 8.30658 26.9105 7.96508 27.6111 7.7837C28.329 7.60675 29.0884 7.70871 29.7323 8.06853V8.08277Z" fill="#027898"/>
<path d="M29.7323 8.08277C30.3961 8.39608 30.8145 8.93679 30.9877 9.73431C31.1326 10.4164 31.0305 11.127 30.6991 11.7424L30.3672 12.3405L30.0498 12.8959C29.8766 13.2377 29.7612 13.608 29.7034 13.9783C29.7034 13.9925 29.7034 14.0067 29.6746 14.021L29.6313 14.0067C28.5071 12.907 27.0245 12.2364 25.4467 12.1131C25.6518 11.0853 26.1736 10.1447 26.9407 9.42076C27.7078 8.6968 28.6828 8.22483 29.7323 8.06853V8.08277Z" fill="#01ACDB"/>
<path d="M10.584 12.2691C10.3175 11.8116 10.1785 11.2925 10.181 10.7648C10.1835 10.237 10.3275 9.71928 10.5984 9.26421C10.887 8.75151 11.3199 8.4382 11.8971 8.32427C12.4887 8.21034 13.0803 8.32427 13.6719 8.66607C14.2104 8.97453 14.6581 9.41633 14.9706 9.9478C14.9995 10.0048 15.0139 10.0617 14.985 10.1187C14.9773 10.1436 14.9643 10.1667 14.9469 10.1863C14.9295 10.2059 14.9081 10.2217 14.884 10.2326L12.2722 11.3435C11.6951 11.5998 11.2044 11.9131 10.8004 12.3119C10.7138 12.3831 10.6561 12.3688 10.5984 12.2691H10.584Z" fill="#DF3490"/>
<path d="M29.6169 14.2917L30.1364 14.9468C30.2229 15.0892 30.1941 15.1177 30.0353 15.0607L29.891 15.0037C29.7474 14.9441 29.5973 14.9011 29.4437 14.8756C28.9035 14.7956 28.3547 14.7908 27.8132 14.8613C27.2648 14.9468 26.5722 15.146 25.7497 15.4593C25.7947 15.3474 25.8648 15.2469 25.9548 15.1655C26.0447 15.0841 26.1522 15.0239 26.2691 14.9894L27.6833 14.4767C28.2099 14.3134 28.7642 14.2553 29.3138 14.3058C29.4293 14.3343 29.5303 14.3343 29.6024 14.3058L29.6169 14.2917ZM20.3241 15.5307C18.9634 14.9079 17.4372 14.7284 15.9663 15.018C15.5334 15.1034 15.2015 15.1319 14.9562 15.1319C15.9052 14.6682 16.9573 14.4478 18.0153 14.491C19.0254 14.5338 19.8046 14.8756 20.3241 15.5307Z" fill="#027898"/>
<path d="M20.3241 15.5307C20.757 15.8155 21.0889 16.1148 21.3053 16.4138C21.4835 16.6543 21.5841 16.9421 21.5939 17.2398L21.6228 17.4392C21.6372 17.5104 21.6805 17.5674 21.7238 17.6101C22.0124 17.8949 22.2433 18.2083 22.3731 18.5358C22.5174 18.9061 22.5174 19.2479 22.4308 19.6039C22.3443 19.9172 22.1855 20.2021 21.9402 20.4584C21.7959 20.6008 21.5362 20.8144 21.1755 21.085C21.0312 21.1847 20.8869 21.2986 20.7714 21.4268C20.1654 22.0392 19.415 22.4522 18.5348 22.6943C17.6826 22.9112 16.7968 22.9692 15.923 22.8652C15.1871 22.794 14.4945 22.5804 13.874 22.2528C13.5514 22.0762 13.2592 21.8503 13.0082 21.5835L13.0371 21.555C13.0515 21.5265 13.0803 21.5265 13.1092 21.555C13.5854 21.911 14.1193 22.1816 14.7253 22.381C15.6548 22.6754 16.6403 22.7553 17.606 22.6145C18.5716 22.4738 19.4917 22.1162 20.2952 21.5692C20.3674 21.4838 20.353 21.4553 20.2375 21.498C18.4617 21.9999 16.5607 21.8376 14.8985 21.0423C14.56 20.8681 14.2449 20.6528 13.9606 20.4014C13.3257 19.8318 13.0515 19.2052 13.1669 18.5216C13.2246 18.1228 13.4122 17.7668 13.7441 17.425C14.0327 17.1401 14.379 16.898 14.7975 16.7129C15.8476 16.2349 17.0111 16.0526 18.1596 16.186C19.331 16.2887 20.4574 16.6805 21.4352 17.3253C21.464 17.311 21.464 17.2826 21.464 17.2683C21.4106 16.951 21.2594 16.6577 21.0312 16.4281C20.8291 16.2145 20.5694 16.0151 20.2664 15.8442C19.3411 15.3543 18.2997 15.1183 17.2505 15.1606C16.7888 15.1606 16.2693 15.2176 15.6921 15.303L14.1337 15.5593L13.9173 15.6021L13.8884 15.5878L13.9028 15.5451C14.2636 15.4312 14.6243 15.2888 14.9562 15.1179C15.2015 15.1321 15.5334 15.1036 15.9663 15.0324C17.4357 14.7384 18.9618 14.9127 20.3241 15.5307Z" fill="black"/>
<path d="M31.2041 16.9547L30.9444 16.8554C30.4832 16.682 30.0108 16.5393 29.5303 16.4281C28.8068 16.2599 28.0572 16.2309 27.3225 16.3427C26.7165 16.4566 26.3413 16.5136 26.1681 16.5278C26.8463 16.0721 27.5678 15.8011 28.3615 15.7299C28.8232 15.6872 29.2705 15.7299 29.689 15.8723C30.1219 16.0148 30.5259 16.2141 30.9011 16.4847C31.0742 16.6129 31.1753 16.7695 31.2041 16.9547Z" fill="#027898"/>
<path d="M22.2721 19.2623C22.2721 19.6041 22.1278 19.9174 21.8825 20.2307C21.6372 20.5156 21.2909 20.7861 20.858 20.9998C20.4251 21.2134 19.9345 21.37 19.3717 21.4697C17.7134 21.7457 16.0095 21.4436 14.5522 20.6152C14.1824 20.3854 13.8673 20.0793 13.6287 19.718C13.4266 19.3905 13.3401 19.0487 13.3545 18.7069C13.3834 18.3651 13.4988 18.0375 13.7585 17.7385C14.0038 17.4394 14.3357 17.1688 14.7686 16.9552C15.7809 16.5451 16.8741 16.3666 17.9662 16.4332C19.0584 16.4998 20.121 16.8097 21.0744 17.3397C21.5073 17.6245 21.7959 17.9094 21.9979 18.2512C22.2144 18.5787 22.301 18.9205 22.2865 19.2481L22.2721 19.2623ZM32.777 19.5614C32.745 19.9258 32.6044 20.2727 32.3729 20.5583C32.1276 20.8716 31.7957 21.1279 31.3629 21.37C30.9588 21.5837 30.4826 21.7403 29.9343 21.84C28.3291 22.1222 26.6751 21.7968 25.3023 20.9286C24.9127 20.6437 24.6241 20.3447 24.4366 20.0029C24.2453 19.685 24.1549 19.318 24.1768 18.949C24.2057 18.593 24.35 18.2654 24.5809 17.9521C24.8262 17.6388 25.1581 17.3682 25.5909 17.1403C25.995 16.9125 26.4856 16.7558 27.0195 16.6561C28.6247 16.3739 30.2787 16.6994 31.6515 17.5676C32.0411 17.8524 32.3297 18.1657 32.5172 18.5075C32.7193 18.8493 32.8058 19.2053 32.777 19.5614Z" fill="white"/>
<path d="M20.1798 19.0908C20.1798 19.3329 20.1077 19.575 19.9778 19.8028C19.8335 20.0449 19.6603 20.2443 19.415 20.4152C19.1842 20.6003 18.91 20.7285 18.5925 20.814C18.1331 20.9503 17.6479 20.9801 17.1749 20.901C16.7018 20.822 16.2537 20.6362 15.8653 20.3582C15.6444 20.189 15.4625 19.9754 15.3314 19.7316C15.2094 19.5049 15.1481 19.2512 15.1531 18.9945C15.1582 18.7378 15.2295 18.4867 15.3603 18.2648C15.5046 18.0369 15.6777 17.8375 15.923 17.6524C16.1539 17.4815 16.4281 17.3391 16.7455 17.2536C17.2061 17.1193 17.6918 17.0918 18.1649 17.1733C18.638 17.2549 19.0856 17.4432 19.4727 17.7236C19.7036 17.9087 19.8768 18.1081 20.0066 18.3502C20.1221 18.5923 20.1942 18.8344 20.1798 19.0908ZM30.6125 18.7917C30.6558 19.0195 30.6125 19.2474 30.5404 19.4753C30.4394 19.7031 30.2951 19.9168 30.1075 20.1161C29.6421 20.5072 29.0747 20.7613 28.47 20.8494C27.8653 20.9375 27.2477 20.8562 26.6876 20.6146C26.4279 20.4722 26.2259 20.3298 26.0672 20.1304C25.9185 19.9494 25.8214 19.7326 25.7859 19.5023C25.7504 19.272 25.7778 19.0366 25.8651 18.8202C25.9661 18.5923 26.1104 18.3929 26.3125 18.1935C26.5145 18.0084 26.7454 17.8375 27.034 17.7093C27.4566 17.5171 27.9161 17.4163 28.3816 17.4138C28.847 17.4114 29.3076 17.5073 29.7323 17.6951C29.9776 17.8233 30.1796 17.9799 30.3384 18.1651C30.4827 18.3644 30.5837 18.5781 30.627 18.7917H30.6125Z" fill="black"/>
<path d="M18.3183 19.0627C18.6358 19.0912 18.9244 18.9203 18.9533 18.6355C18.9821 18.3791 18.7512 18.137 18.4194 18.1086C18.1019 18.0658 17.7989 18.251 17.77 18.5216C17.7412 18.7779 17.9865 19.02 18.3183 19.0627ZM29.285 19.1909C29.6024 19.1197 29.8333 18.9061 29.79 18.6782C29.7467 18.4646 29.4581 18.3364 29.1407 18.3934C28.8232 18.4503 28.5924 18.6782 28.6356 18.8918C28.6789 19.1197 28.9675 19.2479 29.285 19.1767V19.1909Z" fill="white"/>
<path d="M26.5 28.9319C26.9329 28.8607 27.3658 28.761 27.7554 28.6328C28.2604 28.4619 28.6789 28.2626 29.0108 28.0347C29.4004 27.7499 29.6457 27.465 29.7323 27.109C29.8333 26.7102 29.7034 26.2545 29.3715 25.7846V25.7703L30.6702 25.7418C30.6846 25.7418 30.6991 25.7418 30.7135 25.7703C31.0021 26.1548 31.1031 26.5536 31.0598 26.9951C30.9588 27.6929 30.6558 28.2483 30.1219 28.704C29.5895 29.1216 28.9677 29.4138 28.3037 29.5585C27.4957 29.7579 26.6299 29.9003 25.7064 29.9858C24.2201 30.1282 22.7627 30.1851 21.3486 30.1567C19.4808 30.1578 17.6265 29.8448 15.8653 29.231C14.9835 28.9597 14.1706 28.5055 13.4813 27.8988C12.7919 27.2921 12.2419 26.547 11.8682 25.7133C11.7239 25.3573 11.6806 25.0298 11.7528 24.7449C11.8394 24.4174 12.0414 24.1753 12.4021 24.0329C12.8494 23.8192 13.3689 23.6911 13.9461 23.6056C14.379 23.5629 14.9273 23.5486 15.5911 23.5629C16.6589 23.5629 17.7844 23.6199 19.011 23.7053C20.2375 23.805 21.6083 23.8762 23.0802 23.9189C24.1768 23.9616 25.5332 23.9759 27.1926 24.0044C28.5923 24.0044 29.689 23.9047 30.4538 23.6768C31.1753 23.4774 31.7669 23.5059 32.2286 23.805C32.4595 23.9474 32.575 24.161 32.5894 24.4316C32.6038 24.7307 32.3585 25.0013 31.8679 25.2149C31.4996 25.3659 31.1105 25.4619 30.7135 25.4997C30.0497 25.5852 29.0974 25.5709 27.8853 25.4855C25.5997 25.3106 23.315 25.1255 21.0311 24.9301C19.5804 24.826 18.1274 24.7547 16.6733 24.7164C15.9518 24.7022 15.2881 24.7307 14.6532 24.8161C14.4367 24.8446 14.2491 24.9016 14.0615 24.9585C13.8451 25.044 13.6575 25.1437 13.5132 25.2434C13.1669 25.5424 13.0803 25.9127 13.2968 26.3542C13.5709 26.9523 14.1626 27.465 15.0861 27.8923C15.7354 28.1913 16.5146 28.4477 17.3948 28.6328C19.2996 29.0316 21.2909 29.2167 23.4265 29.2025C24.4798 29.2025 25.5044 29.1028 26.5 28.9319Z" fill="#DF3490"/>
<path d="M19.4006 26.7533C18.3383 26.3354 17.3422 25.7695 16.4425 25.0728C16.3126 24.9731 16.327 24.9304 16.4858 24.9304C19.55 25.0295 22.6105 25.2194 25.6631 25.5C25.8074 25.5 25.894 25.557 25.9517 25.6425C26.2403 25.9985 26.3124 26.3688 26.1826 26.7533C26.1185 26.9237 26.0204 27.0796 25.8939 27.2117C25.7675 27.3439 25.6154 27.4495 25.4467 27.5223C25.1038 27.6879 24.731 27.7847 24.35 27.8071C23.4999 27.8489 22.6484 27.7625 21.8248 27.5508C21.1321 27.3799 20.3241 27.1236 19.4006 26.7533Z" fill="#DF3490"/>
<path d="M21.9113 27.8213C21.9835 27.8213 22.0845 27.8355 22.1999 27.8783L22.503 27.9495L22.7627 27.9922L22.9792 28.0349C23.6862 28.1204 24.3788 28.0634 25.0715 27.8783C25.6487 27.7074 26.0671 27.4083 26.298 26.9668C26.4192 26.7653 26.4699 26.5302 26.4423 26.2975C26.4013 26.0468 26.2858 25.8139 26.1104 25.6281C26.0238 25.5284 26.0383 25.4857 26.1681 25.4999L29.0685 25.7563C29.1262 25.7563 29.1695 25.7848 29.1984 25.8275C29.7756 26.6108 29.6746 27.2801 28.8954 27.8355C28.6068 28.0491 28.246 28.22 27.8131 28.3482C26.7598 28.6758 25.6775 28.8609 24.552 28.9179C21.4785 29.0888 18.7224 28.8039 16.2837 28.0919C15.6416 27.9025 15.0259 27.6346 14.4511 27.2944C14.0504 27.0612 13.7251 26.7204 13.5132 26.3117C13.2535 25.8275 13.4555 25.4572 14.1193 25.2151C14.7008 25.0497 15.3034 24.9682 15.9086 24.973C15.9951 24.973 16.0817 25.0157 16.1539 25.0727L17.2072 25.8702C17.2361 25.8987 17.2794 25.9129 17.3227 25.9129C17.3426 25.915 17.3619 25.9211 17.3793 25.9309C17.3966 25.9407 17.4118 25.954 17.4237 25.9699C17.7821 26.223 18.1696 26.4333 18.5781 26.5965L18.9388 26.7532L19.3284 26.9241C19.5016 26.981 19.6747 27.0665 19.8335 27.1519C19.92 27.1947 20.0643 27.2516 20.2664 27.3086L20.6271 27.451C20.7425 27.508 20.858 27.5365 20.9734 27.5649C21.2331 27.6077 21.464 27.6646 21.6805 27.7643C21.7526 27.7928 21.8248 27.807 21.9113 27.807V27.8213Z" fill="#810B52"/>
<path d="M28.2461 30.0852L28.2172 30.0567H28.1739L27.0051 31.6233V31.6518L27.034 31.6803H27.0917L28.2461 30.1279V30.0852Z" fill="#027898"/>
<path d="M39.5 20C39.5 23.8567 38.3563 27.6269 36.2137 30.8336C34.071 34.0404 31.0255 36.5397 27.4623 38.0156C23.8992 39.4916 19.9784 39.8777 16.1957 39.1253C12.4131 38.3729 8.93855 36.5157 6.21143 33.7886C3.4843 31.0615 1.62711 27.5869 0.874696 23.8043C0.122284 20.0216 0.508449 16.1008 1.98436 12.5377C3.46027 8.97451 5.95963 5.92903 9.16639 3.78634C12.3731 1.64365 16.1433 0.5 20 0.5C25.1717 0.5 30.1316 2.55446 33.7886 6.21142C37.4455 9.86837 39.5 14.8283 39.5 20Z" stroke="black" stroke-opacity="0.02"/>
</g>
<defs>
<clipPath id="clip0_2994_389">
<rect width="40" height="40" fill="white"/>
</clipPath>
</defs>
</svg>
