<svg viewBox="0 0 40 40" xmlns="http://www.w3.org/2000/svg">
  <g fill="none">
    <circle fill="#BCCAD8" cx="20" cy="20" r="20"/>
    <circle fill="#E38215" cx="20" cy="20" r="20"/>
    <path d="M20 35.396c-8.502 0-15.396-6.894-15.396-15.396S11.498 4.604 20 4.604 35.396 11.498 35.396 20 28.502 35.396 20 35.396zm0-1.7646c7.5137 0 13.6314-6.1177 13.6314-13.6314 0-7.5216-6.1177-13.6314-13.6314-13.6314-7.5216 0-13.6314 6.1177-13.6314 13.6314 0 7.5216 6.1177 13.6314 13.6314 13.6314zm0-25.898c6.7608 0 12.2667 5.5058 12.2667 12.2666 0 6.7608-5.506 12.2667-12.2667 12.2667-6.7608 0-12.2667-5.506-12.2667-12.2667 0-6.7608 5.506-12.2667 12.2667-12.2667zm2.604 19.5293h.7293c2.353 0 4.2745-1.9137 4.2745-4.2745 0-1.5026-.7784-2.824-1.951-3.5863.5762-.7293.919-1.6503.9158-2.649 0-2.2576-1.7573-4.1064-3.9687-4.2636v-2.105h-1.9686v2.0941h-1.3647v-2.094H17.302v2.094h-4.6667l1.2 2.3922h1.3804v10H13.843l-1.2 2.3921h4.6589v2.0079h1.9686v-2.0079h1.3647v2.0079h1.9686v-2.0079zm-4.9962-2.3921v-3.7647h5.7334c1.0353 0 1.8823.847 1.8823 1.8823s-.847 1.8824-1.8823 1.8824h-5.7334zm0-6.2353v-3.7647h4.698c1.0354 0 1.8824.847 1.8824 1.8823s-.847 1.8824-1.8823 1.8824h-4.698z" fill="#FFF"/>
    <circle stroke-opacity=".02" stroke="#000" cx="20" cy="20" r="19.5"/>
  </g>
</svg>
