<svg width="40" height="40" viewBox="0 0 40 40" fill="none" xmlns="http://www.w3.org/2000/svg">
<path d="M20 40C31 40 40 31 40 20C40 9 31 0 20 0C9 0 0 9 0 20C0 31 9 40 20 40Z" fill="#D9B432"/>
<path d="M32.1994 15.6699C32.1994 16.6149 31.9951 17.5511 31.595 18.3998C30.8884 17.8486 30.1137 17.3849 29.2879 17.0349C29.4752 16.6061 29.5773 16.1424 29.5858 15.6699C29.5858 14.8999 29.2793 14.1649 28.76 13.6224C28.2322 13.0712 27.5256 12.7562 26.7764 12.7299C26.4018 12.7299 26.0358 12.8087 25.6952 12.9574C25.3547 13.1062 25.0397 13.3249 24.7758 13.5962C24.5119 13.8674 24.3076 14.1912 24.1714 14.5499C24.0351 14.9087 23.967 15.2849 23.967 15.6699C23.967 16.1424 24.0607 16.6061 24.265 17.0349C23.4222 17.3499 22.6475 17.8136 21.9579 18.3998C21.5067 17.5686 21.3024 16.6236 21.3534 15.6699C21.3279 14.9349 21.4386 14.1999 21.694 13.5087C21.9494 12.8174 22.3325 12.1962 22.8348 11.6625C23.3285 11.1287 23.9245 10.7087 24.5885 10.4287C25.2525 10.14 25.9592 10 26.6743 10C28.1386 10 29.5433 10.6037 30.5734 11.6625C31.612 12.7212 32.1909 14.1649 32.1994 15.6699Z" fill="#252525"/>
<path d="M26.6743 17.8749C24.9801 17.8749 23.3541 18.5661 22.1622 19.7998C20.9618 21.0335 20.2893 22.696 20.2893 24.4372C20.2893 26.1785 20.9618 27.8497 22.1622 29.0746C23.3626 30.3084 24.9801 30.9996 26.6743 30.9996C27.5086 30.9996 28.3344 30.8421 29.1091 30.5184C29.8838 30.1946 30.5819 29.7134 31.1693 29.1096C31.7567 28.5059 32.225 27.7797 32.5399 26.9922C32.8549 26.196 33.0082 25.3472 32.9997 24.4897C33.0082 23.6235 32.8549 22.7748 32.5399 21.9698C32.225 21.1735 31.7652 20.4386 31.1778 19.8261C30.5904 19.2136 29.8923 18.7236 29.1176 18.3823C28.3429 18.0411 27.5171 17.8749 26.6743 17.8661V17.8749ZM26.6743 28.2697C25.6697 28.2697 24.7077 27.8584 23.9926 27.1234C23.2775 26.3972 22.8688 25.4085 22.8603 24.376C22.8603 23.8597 22.954 23.3523 23.1498 22.8798C23.3371 22.4073 23.6265 21.9785 23.9756 21.611C24.3331 21.2523 24.7503 20.9635 25.2185 20.7711C25.6782 20.5786 26.1805 20.4823 26.6743 20.4911C27.6703 20.5086 28.6238 20.9286 29.3389 21.646C30.0455 22.3723 30.4627 23.3435 30.4882 24.376C30.4882 24.8922 30.3946 25.3997 30.2073 25.881C30.02 26.3534 29.7391 26.7909 29.3815 27.1497C29.0239 27.5084 28.6068 27.7972 28.1386 27.9897C27.6703 28.1822 27.1766 28.2784 26.6743 28.2697Z" fill="#252525"/>
<path d="M13.3254 30.9996C11.8611 30.9996 10.4564 30.3959 9.42629 29.3371C8.38767 28.2784 7.80876 26.8347 7.80025 25.3297H10.4138C10.4138 26.0997 10.7118 26.8259 11.2396 27.3684C11.7675 27.9109 12.4826 28.2172 13.2232 28.2172C13.9639 28.2172 14.679 27.9109 15.2068 27.3684C15.7347 26.8259 16.0326 26.091 16.0326 25.3297H18.6462C18.6803 26.0647 18.5696 26.8084 18.3227 27.4997C18.0673 28.1909 17.6842 28.8209 17.1819 29.3546C16.6796 29.8884 16.0837 30.3084 15.4197 30.5884C14.7556 30.8684 14.0405 31.0084 13.3254 30.9996Z" fill="#252525"/>
<path d="M13.3254 10C11.6398 10.0262 10.0222 10.735 8.83888 11.9687C7.65553 13.2112 7 14.8824 7 16.6149C7 18.3386 7.66404 19.9923 8.8559 21.2173C10.0393 22.4335 11.6483 23.1248 13.3254 23.1248C15.0195 23.1248 16.6456 22.4335 17.8374 21.1998C19.0378 19.9661 19.7104 18.3036 19.7104 16.5624C19.7104 14.8212 19.0378 13.1499 17.8374 11.925C16.6371 10.7 15.0195 10 13.3254 10ZM13.2232 20.4998C12.2187 20.4998 11.2567 20.0886 10.5415 19.3623C9.82642 18.6361 9.41778 17.6474 9.40927 16.6149C9.40927 16.0986 9.50291 15.5911 9.69021 15.1187C9.8775 14.6462 10.1584 14.2087 10.516 13.8499C10.8736 13.4912 11.2907 13.2024 11.7589 13.0099C12.2272 12.8174 12.7209 12.7212 13.2232 12.7299C13.7255 12.7125 14.2278 12.7999 14.696 12.9924C15.1643 13.1849 15.5899 13.4649 15.9475 13.8324C16.3051 14.1999 16.586 14.6287 16.7733 15.1099C16.9606 15.5911 17.0542 16.0986 17.0457 16.6149C17.0457 17.1311 16.9521 17.6386 16.7648 18.1111C16.5775 18.5836 16.2965 19.0211 15.939 19.3798C15.5814 19.7386 15.1643 20.0273 14.696 20.2198C14.2278 20.4123 13.734 20.5086 13.2317 20.4998H13.2232Z" fill="#252525"/>
<path d="M39.5 20C39.5 23.8567 38.3563 27.6269 36.2137 30.8336C34.071 34.0404 31.0255 36.5397 27.4623 38.0156C23.8992 39.4916 19.9784 39.8777 16.1957 39.1253C12.4131 38.3729 8.93855 36.5157 6.21143 33.7886C3.4843 31.0615 1.62711 27.5869 0.874696 23.8043C0.122284 20.0216 0.508449 16.1008 1.98436 12.5377C3.46027 8.97451 5.95963 5.92903 9.16639 3.78634C12.3731 1.64365 16.1433 0.5 20 0.5C25.1717 0.5 30.1316 2.55446 33.7886 6.21142C37.4455 9.86837 39.5 14.8283 39.5 20Z" stroke="black" stroke-opacity="0.02"/>
</svg>
