<svg width="40" height="40" viewBox="0 0 40 40" fill="none" xmlns="http://www.w3.org/2000/svg">
<g clip-path="url(#clip0_2615_16540)">
<path d="M20 40C31 40 40 31 40 20C40 9 31 0 20 0C9 0 0 9 0 20C0 31 9 40 20 40Z" fill="#7D00FF"/>
<path d="M33.998 13H24.666V16H33.998V13ZM18.4446 16H15.334V19H18.4446V16ZM15.334 31H18.4446V22H15.334V31ZM21.5554 16V19H24.666V16H21.5554ZM21.5554 31H24.666V22H21.5554V31ZM21.5554 13H18.4446V16H21.5554V13ZM6 13V16H15.334V13H6ZM34 22V19H24.666V22H34ZM18.4467 19V22H21.5554V19H18.4467ZM6.00203 19V22H15.3361V19H6.00203Z" fill="white"/>
<path d="M39.5 20C39.5 23.8567 38.3563 27.6269 36.2137 30.8336C34.071 34.0404 31.0255 36.5397 27.4623 38.0156C23.8992 39.4916 19.9784 39.8777 16.1957 39.1253C12.4131 38.3729 8.93855 36.5157 6.21143 33.7886C3.4843 31.0615 1.62711 27.5869 0.874696 23.8043C0.122284 20.0216 0.508449 16.1008 1.98436 12.5377C3.46027 8.97451 5.95963 5.92903 9.16639 3.78634C12.3731 1.64365 16.1433 0.5 20 0.5C25.1717 0.5 30.1316 2.55446 33.7886 6.21142C37.4455 9.86838 39.5 14.8283 39.5 20Z" stroke="black" stroke-opacity="0.02"/>
</g>
<defs>
<clipPath id="clip0_2615_16540">
<rect width="40" height="40" fill="white"/>
</clipPath>
</defs>
</svg>
