<svg width="40" height="40" viewBox="0 0 40 40" fill="none" xmlns="http://www.w3.org/2000/svg">
<g clip-path="url(#clip0_1794_709)">
<path d="M20 40C23.9556 40 27.8224 38.827 31.1114 36.6294C34.4004 34.4318 36.9638 31.3082 38.4776 27.6537C39.9913 23.9992 40.3874 19.9778 39.6157 16.0982C38.844 12.2186 36.9392 8.65492 34.1421 5.85787C31.3451 3.06082 27.7814 1.15601 23.9018 0.384303C20.0222 -0.387401 16.0009 0.00866568 12.3463 1.52242C8.69181 3.03617 5.56824 5.59962 3.37061 8.8886C1.17298 12.1776 0 16.0444 0 20C0 25.3043 2.10714 30.3914 5.85786 34.1421C9.60859 37.8929 14.6957 40 20 40Z" fill="#3BD4E0"/>
<path fill-rule="evenodd" clip-rule="evenodd" d="M20.0095 33.0302C16.0063 33.0271 12.7817 32.0665 10.5286 30.3412C8.24854 28.5951 7.03894 26.1172 7.03894 23.3134C7.03894 20.6118 8.24588 18.6638 9.61151 17.347C10.6817 16.3151 11.8628 15.6541 12.6851 15.274C12.4992 14.7033 12.2671 13.9561 12.0595 13.1844C11.7818 12.1518 11.5093 10.9402 11.5093 10.0524C11.5093 9.0015 11.7385 7.94613 12.3562 7.12606C13.0089 6.25967 13.9915 5.79553 15.1736 5.79553C16.0974 5.79553 16.8817 6.13818 17.4958 6.72937C18.0827 7.29443 18.4734 8.04491 18.7431 8.82718C19.217 10.2018 19.4016 11.9288 19.4534 13.6522H20.5856C20.6374 11.9288 20.8219 10.2018 21.2959 8.82718C21.5656 8.04491 21.9563 7.29443 22.5432 6.72937C23.1572 6.13818 23.9416 5.79553 24.8654 5.79553C26.0475 5.79553 27.0301 6.25967 27.6828 7.12606C28.3005 7.94613 28.5297 9.0015 28.5297 10.0524C28.5297 10.9402 28.2572 12.1518 27.9794 13.1844C27.7718 13.9561 27.5398 14.7033 27.3538 15.274C28.1762 15.6541 29.3572 16.3151 30.4274 17.347C31.7931 18.6638 33 20.6118 33 23.3134C33 26.1172 31.7904 28.5951 29.5103 30.3412C27.2573 32.0665 24.0327 33.0271 20.0295 33.0302H20.0095Z" fill="#633001"/>
<path d="M15.1734 6.7951C13.442 6.7951 12.6451 8.09991 12.6451 9.90448C12.6451 11.3388 13.5711 14.2114 13.951 15.3297C14.0365 15.5812 13.9022 15.8568 13.6573 15.9543C12.2697 16.507 8.17473 18.5308 8.17473 23.1655C8.17473 28.0478 12.3361 31.7289 20.0102 31.7348C20.0132 31.7348 20.0163 31.7348 20.0193 31.7348C20.0224 31.7348 20.0254 31.7348 20.0285 31.7348C27.7025 31.7289 31.864 28.0478 31.864 23.1655C31.864 18.5308 27.769 16.507 26.3814 15.9543C26.1365 15.8568 26.0022 15.5812 26.0877 15.3297C26.4676 14.2114 27.3936 11.3388 27.3936 9.90448C27.3936 8.09991 26.5966 6.7951 24.8653 6.7951C22.3731 6.7951 21.7518 10.3614 21.7075 14.189C21.7046 14.4445 21.5001 14.6518 21.2471 14.6518H18.7916C18.5386 14.6518 18.3341 14.4445 18.3312 14.189C18.2869 10.3614 17.6656 6.7951 15.1734 6.7951Z" fill="#D1884F"/>
<path d="M20.0285 30.1706C14.39 30.1706 8.18446 27.1216 8.17473 23.1746C8.17473 23.1807 8.17473 23.1869 8.17473 23.193C8.17473 28.0792 12.3428 31.7623 20.0285 31.7623C27.7142 31.7623 31.8823 28.0792 31.8823 23.193C31.8823 23.1869 31.8823 23.1807 31.8823 23.1746C31.8725 27.1216 25.667 30.1706 20.0285 30.1706Z" fill="#FEDC90"/>
<path d="M16.8956 21.9624C16.8956 23.295 16.2722 23.9891 15.5032 23.9891C14.7342 23.9891 14.1108 23.295 14.1108 21.9624C14.1108 20.6298 14.7342 19.9358 15.5032 19.9358C16.2722 19.9358 16.8956 20.6298 16.8956 21.9624Z" fill="#633001"/>
<path d="M25.9463 21.9624C25.9463 23.295 25.3229 23.9891 24.5539 23.9891C23.7849 23.9891 23.1615 23.295 23.1615 21.9624C23.1615 20.6298 23.7849 19.9358 24.5539 19.9358C25.3229 19.9358 25.9463 20.6298 25.9463 21.9624Z" fill="#633001"/>
<path d="M39.5 20C39.5 23.8567 38.3563 27.6269 36.2137 30.8336C34.071 34.0404 31.0255 36.5397 27.4623 38.0156C23.8992 39.4916 19.9784 39.8777 16.1957 39.1253C12.4131 38.3729 8.93855 36.5157 6.21143 33.7886C3.4843 31.0615 1.62711 27.5869 0.874696 23.8043C0.122284 20.0216 0.508449 16.1008 1.98436 12.5377C3.46027 8.97451 5.95963 5.92903 9.16639 3.78634C12.3731 1.64365 16.1433 0.5 20 0.5C25.1717 0.5 30.1316 2.55446 33.7886 6.21142C37.4455 9.86838 39.5 14.8283 39.5 20Z" stroke="black" stroke-opacity="0.02"/>
</g>
<defs>
<clipPath id="clip0_1794_709">
<rect width="40" height="40" fill="white"/>
</clipPath>
</defs>
</svg>
