<svg width="40" height="40" viewBox="0 0 40 40" fill="none" xmlns="http://www.w3.org/2000/svg">
<g clip-path="url(#clip0_3762_81)">
<path fill-rule="evenodd" clip-rule="evenodd" d="M40 20C40 23.9556 38.827 27.8224 36.6294 31.1114C34.4318 34.4004 31.3082 36.9638 27.6537 38.4776C23.9992 39.9913 19.9778 40.3874 16.0982 39.6157C12.2186 38.844 8.65492 36.9392 5.85787 34.1421C3.06082 31.3451 1.15601 27.7814 0.384303 23.9018C-0.387401 20.0222 0.00866568 16.0009 1.52242 12.3463C3.03617 8.69181 5.59962 5.56824 8.8886 3.37061C12.1776 1.17298 16.0444 0 20 0C25.3043 0 30.3914 2.10714 34.1421 5.85786C37.8929 9.60859 40 14.6957 40 20Z" fill="#F3F3F3"/>
<path d="M0 20C0 8.95431 8.95431 0 20 0C31.0457 0 40 8.95431 40 20C40 31.0457 31.0457 40 20 40C8.95431 40 0 31.0457 0 20Z" fill="#F0F3FA"/>
<path d="M40 20C40 25.3043 37.8929 30.3914 34.1421 34.1421C30.3914 37.8929 25.3043 40 20 40C14.6957 40 9.60859 37.8929 5.85787 34.1421C2.10714 30.3914 0 25.3043 0 20C0 14.6957 2.10714 9.60859 5.85787 5.85787C9.60859 2.10714 14.6957 0 20 0C25.3043 0 30.3914 2.10714 34.1421 5.85787C37.8929 9.60859 40 14.6957 40 20Z" fill="black"/>
<path d="M18.3059 5.43531C18.2372 5.4039 18.1623 5.38862 18.0869 5.39066C18.0114 5.3927 17.9374 5.412 17.8706 5.44708C16.3456 6.22065 14.8468 7.04463 13.3765 7.91767C10.1529 9.82355 8.34117 12.6941 6.52941 16.0353C5.8942 17.162 5.43779 18.3804 5.17647 19.6471C4.52251 23.0209 4.2972 26.4638 4.50588 29.8941C4.49565 29.9152 4.47792 29.9317 4.45616 29.9404C4.4344 29.9491 4.41018 29.9494 4.38823 29.9412C3.53707 28.6662 2.86418 27.2808 2.38823 25.8236C0.997611 21.5593 1.1855 16.9373 2.91764 12.8C3.84833 10.5614 5.22536 8.53592 6.9647 6.84708C13 0.882372 22.2588 -0.247039 29.6353 4.20002C33.7397 6.64655 36.7089 10.6182 37.8941 15.2471C39.1294 19.6588 38.6353 24.1765 36.3765 28.7765C36.3176 28.8941 36.2471 28.9059 36.1765 28.7765C34.8471 26.4 33.7765 24.4236 32.9765 22.8353C32.4823 21.8706 32.0706 20.4118 31.6118 19.4C31.4118 18.9294 31.3059 18.4588 31.2941 17.9883C31.2941 17.353 31.2 15.753 31.0588 13.1647C30.9025 11.1843 30.5997 9.21811 30.1529 7.28237C30.1142 7.09465 30.0102 6.9267 29.8595 6.80827C29.7088 6.68984 29.521 6.62857 29.3294 6.63531C28.8353 6.67061 28.3412 6.75296 27.8118 6.91767C25.3956 7.63256 23.0196 8.47692 20.6941 9.44708C20.6338 9.47192 20.5662 9.47192 20.5059 9.44708C20.4768 9.43525 20.4503 9.4177 20.4281 9.39547C20.4058 9.37324 20.3883 9.34679 20.3765 9.31767C19.7765 7.92943 19.2588 6.83532 18.8118 6.02355C18.6353 5.7059 18.4706 5.5059 18.3059 5.43531Z" fill="#EE312F"/>
<path d="M19.7059 11.2586L19.7883 11.3174C19.8824 11.3762 19.8941 11.435 19.8235 11.5292L18.7294 12.9409C18.6588 13.0233 18.5883 13.0233 18.4941 12.9409C18.2506 12.6372 18.0378 12.3101 17.8588 11.9644C16.8 10.0821 14.5647 10.0586 12.6824 10.1292C12.5059 10.1292 12.4824 10.0821 12.6118 9.97621C14.0428 8.6836 15.7136 7.68433 17.5294 7.03503C17.6824 6.97621 17.8118 7.02327 17.9059 7.15268C18.2588 7.62327 18.5412 8.15268 18.7412 8.74092C19.0706 9.70562 19.4 11.0233 19.7059 11.2586Z" fill="#F0F3FA"/>
<path d="M16.2353 20.1762C15.5882 19.9174 15.3294 20.1409 15.447 20.8586C15.6588 22.1174 18.2706 22.7409 18.9765 21.5998C19.0309 21.5103 19.0605 21.408 19.0622 21.3033C19.0638 21.1986 19.0375 21.0953 18.986 21.0042C18.9344 20.9131 18.8595 20.8374 18.7689 20.7849C18.6783 20.7324 18.5753 20.705 18.4706 20.7056H17.8235C17.7294 20.7056 17.6706 20.6586 17.6706 20.5527C17.647 19.988 17.7647 19.4821 18.0235 19.0233C18.1294 18.8468 18.247 18.8351 18.3765 18.9762C20.9529 21.6233 23.8823 22.0115 27.1765 20.1645C27.7294 19.8586 28.2117 19.3645 28.6 18.6939C29.5412 17.1056 29.6941 15.4939 29.0706 13.8233C28.5529 12.4233 27.6941 11.4704 26.4941 10.9762C25.1344 10.3614 23.6017 10.2448 22.1647 10.6468C21.4353 10.8586 21.4 10.7645 22.047 10.3998C24 9.27035 26.1765 8.54094 28.5765 8.19976C28.7176 8.17623 28.8117 8.22329 28.8588 8.35271C29.2823 9.27035 29.5412 10.2468 29.6353 11.2586C29.9176 14.4351 30.0823 16.8821 30.1176 18.5762C30.1176 18.9292 30.2117 19.2821 30.3529 19.5762C30.5294 19.9292 30.8353 20.3762 30.9647 20.8468C31.8117 23.9292 33.9882 27.1527 35.4706 29.988C35.4951 30.03 35.506 30.0786 35.5018 30.127C35.4976 30.1755 35.4785 30.2215 35.447 30.2586C33.8692 32.6158 31.7729 34.5807 29.3185 36.0028C26.8641 37.4248 24.1169 38.2663 21.2871 38.4627C18.4574 38.6592 15.6202 38.2054 12.9929 37.1361C10.3655 36.0669 8.01778 34.4105 6.12939 32.2939C6.04802 32.2102 5.99459 32.1033 5.97645 31.988C5.59998 29.1998 5.50586 26.4586 5.68234 23.7998C5.85881 21.1409 6.51763 18.6233 7.65881 16.2468C7.77645 15.9998 7.88234 16.0115 7.95292 16.2704C8.92939 19.8586 13.647 20.588 16.3882 18.8939C16.414 18.8801 16.4428 18.873 16.4721 18.8732C16.5013 18.8733 16.53 18.8807 16.5557 18.8947C16.5813 18.9087 16.6031 18.9289 16.6191 18.9534C16.635 18.9779 16.6446 19.0059 16.647 19.0351V19.8939C16.647 20.1998 16.5059 20.2939 16.2235 20.1762H16.2353Z" fill="#F0F3FA"/>
<path d="M17.6823 13.7883C18.1529 15.6707 16.4706 17.6236 14.9176 18.4119C13.5765 19.106 12.2118 19.0472 10.8353 18.2589C10.382 18.0306 9.98079 17.7111 9.65686 17.3203C9.33293 16.9296 9.09327 16.4761 8.95294 15.9884C8.71764 15.0707 8.91764 14.106 9.54117 13.106C9.88894 12.4797 10.3967 11.9569 11.0127 11.591C11.6286 11.2252 12.3307 11.0294 13.0471 11.0236C14.7882 10.9766 17.2 11.906 17.6823 13.7883ZM28.2235 14.706C28.3521 15.2629 28.3598 15.8408 28.2461 16.4009C28.1325 16.9611 27.9001 17.4903 27.5647 17.9531C27.0023 18.7055 26.2553 19.3001 25.3959 19.6793C24.5364 20.0585 23.5937 20.2095 22.6588 20.1178C22.0474 20.0557 21.4529 19.8802 20.9059 19.6001C20.3855 19.3358 19.925 18.9674 19.5529 18.5178C19.2 18.0825 18.9412 17.5766 18.8118 17.0354C18.6798 16.4776 18.6693 15.8979 18.7809 15.3356C18.8926 14.7734 19.1238 14.2417 19.4588 13.7766C20.0212 13.0241 20.7682 12.4296 21.6276 12.0503C22.4871 11.6711 23.4298 11.5201 24.3647 11.6119C25 11.6825 25.5882 11.8472 26.1294 12.1295C26.6471 12.4119 27.1059 12.7766 27.4706 13.2119C27.8235 13.6589 28.0824 14.1531 28.2235 14.706Z" fill="#F0F3FA"/>
<path d="M14.4471 16.3882C14.6343 16.3882 14.8138 16.3138 14.9462 16.1815C15.0786 16.0491 15.1529 15.8695 15.1529 15.6823C15.1529 15.4951 15.0786 15.3156 14.9462 15.1832C14.8138 15.0508 14.6343 14.9764 14.4471 14.9764C14.2598 14.9764 14.0803 15.0508 13.9479 15.1832C13.8155 15.3156 13.7412 15.4951 13.7412 15.6823C13.7412 15.8695 13.8155 16.0491 13.9479 16.1815C14.0803 16.3138 14.2598 16.3882 14.4471 16.3882ZM23.7176 16.2706L23.5176 16.1059C23.3847 15.999 23.215 15.9489 23.0453 15.9666C22.8757 15.9842 22.7199 16.0681 22.6118 16.2L22.5412 16.2823C22.4343 16.4153 22.3842 16.585 22.4019 16.7546C22.4195 16.9243 22.5034 17.0801 22.6353 17.1882L22.8471 17.3529C23.1176 17.5882 23.5176 17.5294 23.7412 17.2588L23.8118 17.1764C23.9186 17.0435 23.9687 16.8738 23.9511 16.7041C23.9334 16.5345 23.8495 16.3787 23.7176 16.2706Z" fill="black"/>
<path opacity="0.02" d="M20 1C24.3957 1.0023 28.6545 2.52861 32.051 5.31888C35.4474 8.10914 37.7714 11.9907 38.6268 16.3023C39.4823 20.6139 38.8163 25.0887 36.7424 28.9643C34.6685 32.84 31.315 35.8766 27.2532 37.557C23.1915 39.2373 18.6727 39.4573 14.4669 38.1795C10.2611 36.9017 6.62844 34.2052 4.18786 30.5494C1.74727 26.8936 0.649757 22.5046 1.08231 18.1303C1.51485 13.756 3.4507 9.66703 6.56003 6.56C8.32534 4.79599 10.4209 3.39704 12.7269 2.44304C15.033 1.48904 17.5044 0.998695 20 1V1ZM20 4.56507e-07C15.3729 -0.000987761 10.8885 1.60248 7.31107 4.53718C3.73363 7.47188 1.28444 11.5562 0.380826 16.0943C-0.522786 20.6324 0.17509 25.3434 2.35554 29.4246C4.53599 33.5058 8.06411 36.7047 12.3387 38.4762C16.6133 40.2477 21.37 40.4822 25.7981 39.1398C30.2263 37.7974 34.0519 34.9611 36.6233 31.1142C39.1947 27.2673 40.3526 22.6478 39.8998 18.0428C39.447 13.4379 37.4114 9.13239 34.14 5.86C30.3902 2.10901 25.3039 0.0011332 20 4.56507e-07V4.56507e-07Z" fill="black"/>
</g>
<defs>
<clipPath id="clip0_3762_81">
<rect width="40" height="40" fill="white"/>
</clipPath>
</defs>
</svg>
