<svg width="40" height="40" viewBox="0 0 40 40" fill="none" xmlns="http://www.w3.org/2000/svg">
<path d="M20 40C31 40 40 31 40 20C40 9 31 0 20 0C9 0 0 9 0 20C0 31 9 40 20 40Z" fill="#FBCC5C"/>
<path d="M31.7602 17.6C31.7602 12.4 27.5602 8.19995 22.3602 8.19995C18.5202 8.19995 15.2002 10.52 13.7602 13.84C10.4802 15.32 8.2002 18.6 8.2002 22.4C8.2002 27.6 12.4002 31.8 17.6002 31.8C21.4402 31.8 24.7602 29.48 26.2002 26.16C29.5202 24.72 31.7602 21.44 31.7602 17.6ZM23.8802 23.8C23.4002 23.92 22.9202 23.96 22.4402 23.96C18.9202 23.96 16.0802 21.08 16.0802 17.6C16.0802 17.12 16.1202 16.68 16.2402 16.24C16.7202 16.12 17.2002 16.08 17.6802 16.08C21.2002 16.08 24.0402 18.92 24.0402 22.44C24.0002 22.92 23.9602 23.36 23.8802 23.8ZM11.2802 22.44C11.2802 20.72 11.9602 19.2 13.0402 18.04C13.2802 22.92 17.2002 26.8 22.0802 27C20.9202 28.12 19.3602 28.84 17.6402 28.84C14.1202 28.8 11.2802 25.96 11.2802 22.44ZM27.0402 22C26.8002 17.12 22.8802 13.24 18.0002 13.04C19.1602 11.92 20.7202 11.2 22.4402 11.2C25.9602 11.2 28.8002 14.04 28.8002 17.56C28.7602 19.32 28.0802 20.88 27.0402 22Z" fill="#F9B73E"/>
<path d="M31.4402 17.6C31.4402 12.64 27.4002 8.59995 22.4402 8.59995C18.6802 8.59995 15.4802 10.88 14.1202 14.16C10.9202 15.52 8.64019 18.72 8.64019 22.4399C8.64019 27.4 12.6802 31.44 17.6402 31.44C21.4002 31.44 24.6002 29.16 25.9602 25.8799C29.1202 24.5199 31.4402 21.32 31.4402 17.6ZM17.6402 29.2C13.9202 29.2 10.8802 26.16 10.8802 22.4399C10.8802 20.32 11.8802 18.4 13.4402 17.16C13.4402 17.32 13.4402 17.48 13.4402 17.6C13.4402 22.56 17.4802 26.6 22.4402 26.6C22.6402 26.6 22.8002 26.6 23.0002 26.6C21.7202 28.2 19.8002 29.2 17.6402 29.2ZM24.2002 24.12C23.6402 24.28 23.0402 24.36 22.4402 24.36C18.7202 24.36 15.6802 21.32 15.6802 17.6C15.6802 17 15.7602 16.44 15.9202 15.92C16.4802 15.76 17.0802 15.68 17.6802 15.68C21.4002 15.68 24.4402 18.72 24.4402 22.4399C24.4002 23.04 24.3202 23.6 24.2002 24.12ZM26.6402 22.88C26.6402 22.72 26.6402 22.56 26.6402 22.4399C26.6402 17.48 22.6002 13.44 17.6402 13.44C17.4402 13.44 17.2802 13.44 17.0802 13.44C18.3202 11.84 20.2402 10.84 22.4002 10.84C26.1202 10.84 29.1602 13.88 29.1602 17.6C29.1602 19.76 28.1602 21.64 26.6402 22.88Z" fill="white"/>
<path d="M39.5 20C39.5 23.8567 38.3563 27.6269 36.2137 30.8336C34.071 34.0404 31.0255 36.5397 27.4623 38.0156C23.8992 39.4916 19.9784 39.8777 16.1957 39.1253C12.4131 38.3729 8.93855 36.5157 6.21143 33.7886C3.4843 31.0615 1.62711 27.5869 0.874696 23.8043C0.122284 20.0216 0.508449 16.1008 1.98436 12.5377C3.46027 8.97451 5.95963 5.92903 9.16639 3.78634C12.3731 1.64365 16.1433 0.5 20 0.5C25.1717 0.5 30.1316 2.55446 33.7886 6.21142C37.4455 9.86837 39.5 14.8283 39.5 20Z" stroke="black" stroke-opacity="0.02"/>
</svg>
