<svg width="40" height="40" viewBox="0 0 40 40" fill="none" xmlns="http://www.w3.org/2000/svg">
<g clip-path="url(#clip0_2022_575)">
<path d="M20 40C23.9556 40 27.8224 38.827 31.1114 36.6294C34.4004 34.4318 36.9638 31.3082 38.4776 27.6537C39.9913 23.9992 40.3874 19.9778 39.6157 16.0982C38.844 12.2186 36.9392 8.65492 34.1421 5.85787C31.3451 3.06082 27.7814 1.15601 23.9018 0.384303C20.0222 -0.387401 16.0009 0.00866568 12.3463 1.52242C8.69181 3.03617 5.56824 5.59962 3.37061 8.8886C1.17298 12.1776 0 16.0444 0 20C0 25.3043 2.10714 30.3914 5.85786 34.1421C9.60859 37.8929 14.6957 40 20 40Z" fill="#F3F3F3"/>
<path d="M20.5864 7.00875C16.7112 7.02287 13.5315 8.00228 10.9175 10.453C8.68067 12.5508 7.48269 15.172 7.12078 18.1895C6.7567 21.2276 7.18401 24.1311 8.78968 26.7707C10.8499 30.1541 13.9086 32.1618 17.822 32.7872C22.8962 33.5983 27.2129 32.0782 30.7807 28.4114C31.0434 28.141 31.1012 27.9901 30.7763 27.7013C29.8585 26.8815 28.9712 26.028 28.1002 25.1593C27.8212 24.8814 27.6871 24.9237 27.432 25.1821C25.9048 26.7262 24.1422 27.8782 21.9653 28.3006C17.4034 29.1856 12.7957 26.6404 11.8451 21.7488C11.0636 17.728 12.8066 13.7126 16.7646 12.2153C20.2038 10.9144 23.4097 11.4313 26.2711 13.7832C26.7038 14.1393 27.1159 14.5205 27.5203 14.9092C27.6914 15.0731 27.7939 15.1177 27.9814 14.919C28.9134 13.933 29.8563 12.958 30.8068 11.9905C30.9813 11.8124 30.9496 11.718 30.7872 11.5605C28.4861 9.32807 25.9026 7.61138 22.6313 7.16945C21.8421 7.06304 21.0464 6.97292 20.5864 7.00875Z" fill="#070707"/>
<path d="M39.5 20C39.5 23.8567 38.3563 27.6269 36.2137 30.8336C34.071 34.0404 31.0255 36.5397 27.4623 38.0156C23.8992 39.4916 19.9784 39.8777 16.1957 39.1253C12.4131 38.3729 8.93855 36.5157 6.21143 33.7886C3.4843 31.0615 1.62711 27.5869 0.874696 23.8043C0.122284 20.0216 0.508449 16.1008 1.98436 12.5377C3.46027 8.97451 5.95963 5.92903 9.16639 3.78634C12.3731 1.64365 16.1433 0.5 20 0.5C25.1717 0.5 30.1316 2.55446 33.7886 6.21142C37.4455 9.86838 39.5 14.8283 39.5 20Z" stroke="black" stroke-opacity="0.02"/>
</g>
<defs>
<clipPath id="clip0_2022_575">
<rect width="40" height="40" fill="white"/>
</clipPath>
</defs>
</svg>
