<svg width="40" height="40" viewBox="0 0 40 40" fill="none" xmlns="http://www.w3.org/2000/svg">
<g clip-path="url(#clip0_1797_753)">
<path d="M20 40C23.9556 40 27.8224 38.827 31.1114 36.6294C34.4004 34.4318 36.9638 31.3082 38.4776 27.6537C39.9913 23.9992 40.3874 19.9778 39.6157 16.0982C38.844 12.2186 36.9392 8.65492 34.1421 5.85787C31.3451 3.06082 27.7814 1.15601 23.9018 0.384303C20.0222 -0.387401 16.0009 0.00866568 12.3463 1.52242C8.69181 3.03617 5.56824 5.59962 3.37061 8.8886C1.17298 12.1776 0 16.0444 0 20C0 25.3043 2.10714 30.3914 5.85786 34.1421C9.60859 37.8929 14.6957 40 20 40Z" fill="#1F1A23"/>
<path d="M24.798 22.9886C23.8699 24.7385 22.0425 25.9278 19.9252 25.9278C16.8797 25.9278 14.4143 23.4623 14.4143 20.4168C14.4143 17.3713 16.8797 14.9059 19.9252 14.9059C22.0425 14.9059 23.8699 16.0951 24.798 17.845H30.5313C29.3808 13.0496 25.0784 9.47229 19.9252 9.47229C13.8922 9.47229 9 14.3645 9 20.3975C9 26.4305 13.8922 31.3227 19.9252 31.3227C25.0591 31.3227 29.3615 27.7744 30.5217 22.9983H24.798V22.9886Z" fill="#FFB0C2"/>
<path d="M28.5589 13.7263C29.7868 12.7208 30.5796 11.1932 30.5796 9.48193C30.5796 6.45575 28.1238 4 25.0977 4C22.0715 4 19.6157 6.45575 19.6157 9.48193C19.7221 9.48193 19.8188 9.48193 19.9251 9.48193C23.4444 9.47226 26.5672 11.1352 28.5589 13.7263Z" fill="#CB8EE9"/>
<path d="M25.0977 14.9542C26.4125 14.9542 27.6114 14.4901 28.5589 13.7263C26.5672 11.1449 23.4444 9.48193 19.9251 9.48193C19.8188 9.48193 19.7221 9.48193 19.6157 9.48193C19.6157 12.4984 22.0715 14.9542 25.0977 14.9542Z" fill="#CB65B7"/>
<path d="M39.5 20C39.5 23.8567 38.3563 27.6269 36.2137 30.8336C34.071 34.0404 31.0255 36.5397 27.4623 38.0156C23.8992 39.4916 19.9784 39.8777 16.1957 39.1253C12.4131 38.3729 8.93855 36.5157 6.21143 33.7886C3.4843 31.0615 1.62711 27.5869 0.874696 23.8043C0.122284 20.0216 0.508449 16.1008 1.98436 12.5377C3.46027 8.97451 5.95963 5.92903 9.16639 3.78634C12.3731 1.64365 16.1433 0.5 20 0.5C25.1717 0.5 30.1316 2.55446 33.7886 6.21142C37.4455 9.86838 39.5 14.8283 39.5 20Z" stroke="black" stroke-opacity="0.02"/>
</g>
<defs>
<clipPath id="clip0_1797_753">
<rect width="40" height="40" fill="white"/>
</clipPath>
</defs>
</svg>
