<svg viewBox="0 0 40 40" xmlns="http://www.w3.org/2000/svg">
  <g fill="none">
    <path fill="#2B2B2B" d="M20.0047.0459C8.9694.0459.0307 8.9845.0307 20.0199c0 11.0353 8.9387 19.974 19.974 19.974 11.0269 0 19.974-8.9387 19.974-19.974 0-11.0354-8.9471-19.974-19.974-19.974z"/>
    <path fill="#00D395" d="M28.558 13.22c.518.3.836.854.836 1.452v12a.6797.6797 0 01-.354.59l-1.83.988v-8.354c0-.59-.31-1.136-.814-1.44l-7.916-4.748V8.824c0-.148.04-.294.112-.422.234-.4.748-.536 1.148-.304l8.818 5.122zm-3.86 6.068c.516.3.832.854.834 1.45v8.216c0 .242-.13.466-.342.584l-1.93 1.086a.3383.3383 0 01-.078.032v-4.562c0-.59-.31-1.138-.818-1.442L14.62 20.02v-5.15c0-.464.378-.84.842-.838.148 0 .294.04.422.114l8.814 5.142zm-13.144 7.418c-.598-.366-.964-1.016-.964-1.716v-3.908c0-.464.378-.84.842-.838.148 0 .294.04.422.114l8.818 5.142c.516.3.834.852.834 1.45v4.048c.002.556-.448 1.008-1.004 1.008-.186 0-.37-.052-.528-.148l-8.42-5.152z"/>
    <circle cx="20" cy="20" r="19.5" stroke="#000" stroke-opacity=".02"/>
  </g>
</svg>
