<svg width="40" height="40" viewBox="0 0 40 40" fill="none" xmlns="http://www.w3.org/2000/svg">
<g clip-path="url(#clip0_2316_467)">
<path fill-rule="evenodd" clip-rule="evenodd" d="M20 0C31.0465 0 40 8.95353 40 20C40 31.0465 31.0465 40 20 40C8.95353 40 0 31.0465 0 20C0 8.95353 8.95353 0 20 0Z" fill="#221F1F"/>
<path d="M40 20.01C39.9986 31.0803 30.97 40.1309 19.7463 39.9984C8.80558 39.8695 -0.152537 30.8998 0.00196913 19.7006C0.152866 8.77762 9.11785 -0.159565 20.308 0.00216094C31.1942 0.159194 40.0011 9.03032 40 20.01Z" fill="#C42F4D"/>
<circle cx="20.0172" cy="20.0174" r="19.2953" fill="url(#paint0_linear_2316_467)"/>
<circle cx="20.0172" cy="20.0174" r="18.2845" fill="url(#paint1_linear_2316_467)"/>
<circle cx="20.0172" cy="20.0174" r="14.5662" fill="url(#paint2_linear_2316_467)"/>
<circle cx="19.9992" cy="19.9991" r="13.754" fill="url(#paint3_linear_2316_467)"/>
<path d="M28.3248 19.3327C28.3251 19.4049 28.3255 19.4771 28.3258 19.5489C28.3663 19.6034 28.3168 19.6752 28.3609 19.729L28.3616 19.9095C28.4024 19.964 28.3529 20.0362 28.3966 20.09C28.3944 20.3568 28.4107 20.6221 28.4688 20.8831C28.4648 21.4272 28.5854 21.9625 28.5782 22.5065C28.576 22.6744 28.5782 22.8423 28.5789 23.0101C28.6323 23.0643 28.6215 23.1307 28.615 23.1964C28.5699 23.6661 28.4457 24.1155 28.2659 24.5501C28.158 24.8093 28.036 25.0617 27.8818 25.2981C27.8421 25.3588 27.8038 25.418 27.745 25.4617C27.4638 25.8017 27.2031 26.158 26.8779 26.462C26.4209 26.8894 25.9155 27.2457 25.3722 27.5529C24.8704 27.837 24.3408 28.0569 23.795 28.2374C23.66 28.2818 23.6758 28.3359 23.7448 28.4247C23.9202 28.6507 24.1148 28.8615 24.2567 29.1142C24.3762 29.3272 24.4354 29.5543 24.4679 29.7918C24.4931 29.9113 24.4928 30.0308 24.4679 30.1503C24.3816 31.0394 23.6802 31.6943 22.8777 31.7762C22.734 31.8015 22.5903 31.8018 22.4467 31.7762C21.907 31.7383 21.5081 31.4553 21.1821 31.0477C20.8839 30.6752 20.5875 30.3012 20.2911 29.9272C20.2316 29.8521 20.1955 29.8748 20.1424 29.9416C19.8197 30.3488 19.4944 30.7539 19.1648 31.1553C18.8363 31.5553 18.4049 31.7675 17.893 31.808C17.3191 31.8531 16.8299 31.656 16.4462 31.2318C16.1808 30.9391 15.9957 30.5983 15.9884 30.186C15.9642 30.0546 15.9639 29.9228 15.9884 29.7914C16.0076 29.3767 16.196 29.0355 16.4584 28.7294C16.6642 28.4893 16.6653 28.4976 16.3668 28.4153C15.3646 28.1392 14.4217 27.733 13.6308 27.0443C12.8153 26.3342 12.2969 25.44 12.0976 24.3704C12.0648 24.1949 12.0178 24.0206 12.0243 23.8397C12.0272 23.7646 11.9926 23.7437 11.92 23.7271C10.8413 23.4809 9.92875 22.9415 9.20351 22.1112C8.69919 21.534 8.30715 20.8799 8.16023 20.1135C8.03857 19.4807 8.21329 18.9175 8.64432 18.4377C9.07463 17.9591 9.61613 17.7428 10.2573 17.7439C12.4803 17.7468 14.7036 17.7439 16.927 17.7432C16.9953 17.6775 17.0823 17.688 17.1646 17.6876C17.8284 17.6858 18.4923 17.6865 19.1565 17.6865C19.2475 17.6865 19.336 17.6937 19.4154 17.7436C19.8991 17.7439 20.3832 17.7407 20.8669 17.7479C20.9976 17.7497 21.0471 17.7158 21.0417 17.5782C21.0312 17.3096 21.038 17.0407 21.0377 16.7718C21.0377 16.0985 21.0377 15.4252 21.0377 14.7523C21.0543 13.9379 21.2846 13.2011 21.8239 12.5752C21.846 12.5499 21.8539 12.5124 21.8683 12.4806C21.9553 12.4474 21.9127 12.3788 21.9023 12.3282C21.7936 11.8106 21.947 11.3554 22.2286 10.9294C22.4322 10.759 22.6037 10.5467 22.8632 10.4478C22.9629 10.4099 23.0571 10.359 23.1665 10.3503C23.2473 10.3439 23.3221 10.3088 23.3611 10.2388C23.4517 10.0753 23.5917 9.95361 23.7069 9.81102C24.0964 9.49046 24.5242 9.25942 25.0411 9.23415C25.6602 9.19697 26.2165 9.35941 26.675 9.78431C27.0201 10.1041 27.2371 10.5063 27.3519 10.9644C27.3732 11.0489 27.3623 11.1435 27.4215 11.2178C27.4201 11.5886 27.5226 11.9474 27.5443 12.3163C27.5598 12.5828 27.6125 12.8466 27.6349 13.1127C27.6457 13.2401 27.6909 13.3217 27.8075 13.3791C28.0753 13.5116 28.3363 13.6582 28.6042 13.7914C28.9453 13.961 29.211 14.2094 29.4049 14.5357C29.429 14.6462 29.455 14.7563 29.4771 14.8671C29.5673 15.3159 29.4348 15.7039 29.1529 16.0505C28.8854 16.3321 28.5294 16.4692 28.1923 16.6357C28.0847 16.6887 28.0111 16.7346 28.0663 16.8746C28.102 16.9656 28.0345 17.0775 28.1071 17.1681C28.1529 17.6605 28.1995 18.1529 28.2446 18.6457C28.2605 18.8179 28.2728 18.9908 28.2876 19.163C28.2926 19.2208 28.2688 19.2846 28.3233 19.3323L28.3248 19.3327Z" fill="#FAEE98"/>
<path d="M21.8644 27.6995C22.3452 28.2991 22.8322 28.8937 23.3044 29.4998C23.5741 29.846 23.4946 30.3477 23.1524 30.6102C22.8022 30.8784 22.3088 30.8134 22.0261 30.4593C21.4564 29.7456 20.8861 29.0326 20.3215 28.315C20.2413 28.2132 20.2092 28.2218 20.1338 28.3179C19.5724 29.0305 19.0046 29.738 18.44 30.4481C18.1273 30.8412 17.6559 30.9091 17.2808 30.6131C16.9393 30.3434 16.8956 29.8423 17.1891 29.4684C17.5934 28.9532 18.0039 28.4431 18.4107 27.9302C18.454 27.8756 18.5122 27.8291 18.5302 27.7442C17.8761 27.6789 17.2317 27.5832 16.6021 27.4089C15.6588 27.1475 14.7805 26.7612 14.0806 26.0494C13.4337 25.392 13.112 24.588 13.0351 23.6783C13.0229 23.535 13.0182 23.391 13.0088 23.2473C12.99 22.9693 12.8489 22.8325 12.5716 22.7932C10.9731 22.565 9.86305 21.7037 9.24611 20.2113C9.09016 19.8344 9.11723 19.4738 9.38401 19.1482C9.60855 19.172 9.7728 19.3103 9.94175 19.4406C9.94355 19.4525 9.94716 19.4677 9.94066 19.4756C9.74284 19.7207 9.83886 19.9511 9.9598 20.1926C10.4912 21.2528 11.3319 21.9001 12.5001 22.1167C12.659 22.1463 12.8225 22.1452 12.9752 22.2109C13.4795 22.4282 13.6907 22.8314 13.6896 23.3574C13.6885 23.8404 13.7831 24.3 13.9835 24.7379C14.3531 25.5458 14.9968 26.0631 15.7859 26.4205C16.6732 26.8219 17.6169 26.9894 18.5786 27.0793C18.8324 27.1031 19.0443 27.2078 19.1576 27.4493C19.2724 27.6933 19.2468 27.9334 19.0822 28.146C18.6699 28.6778 18.2475 29.2016 17.8299 29.729C17.7887 29.781 17.7468 29.8319 17.7107 29.8871C17.662 29.9615 17.6541 30.0366 17.7317 30.0947C17.8118 30.155 17.8642 30.0965 17.9115 30.038C18.1501 29.7442 18.3851 29.4474 18.6215 29.1521C18.967 28.7207 19.3121 28.289 19.6569 27.8569C19.8089 27.6663 19.9861 27.5341 20.2518 27.5421C20.4951 27.5493 20.6558 27.6785 20.7947 27.8515C21.0886 28.2164 21.381 28.5825 21.673 28.9492C21.9387 29.2828 22.2091 29.6131 22.4701 29.9503C22.4921 29.9788 22.5134 30.008 22.5405 30.0322C22.6033 30.0882 22.6763 30.1265 22.7488 30.0615C22.8149 30.0023 22.7864 29.9272 22.7445 29.8647C22.6878 29.7799 22.6203 29.7026 22.556 29.6232C22.1456 29.1131 21.7438 28.5958 21.3348 28.0843C21.1951 27.9096 21.1377 27.7146 21.2012 27.4944C21.2207 27.4262 21.238 27.3526 21.316 27.3215C21.5008 27.3634 21.6387 27.4955 21.8037 27.5764C21.851 27.5995 21.8572 27.6522 21.864 27.7002L21.8644 27.6995Z" fill="#DD444C"/>
<path d="M22.4911 13.3834C22.6033 13.1874 22.7622 13.0318 22.9358 12.8936C23.0145 12.8311 23.0347 12.7716 23.0134 12.6788C22.9723 12.4979 22.9405 12.3145 22.9022 12.133C22.8456 11.8658 22.9326 11.6445 23.1322 11.4723C23.3427 11.2907 23.5946 11.2611 23.8397 11.3759C23.9896 11.446 24.0116 11.4113 24.0332 11.2695C24.1044 10.8099 24.3679 10.4883 24.7971 10.3233C25.2216 10.1601 25.6249 10.2218 25.974 10.5269C26.2407 10.7601 26.3627 11.0727 26.4075 11.4124C26.5129 12.2088 26.6079 13.0062 26.7035 13.804C26.7165 13.9119 26.7667 13.9755 26.8606 14.0242C27.3125 14.2599 27.7609 14.5029 28.2132 14.7372C28.3746 14.8206 28.4937 14.931 28.4912 15.1213C28.4887 15.3029 28.3757 15.413 28.2172 15.4888C27.8818 15.6491 27.549 15.8151 27.2151 15.9783C27.1782 15.996 27.1439 16.0267 27.0977 16.0111C26.8963 15.9155 26.6967 15.8162 26.5129 15.688C26.5306 15.5595 26.6429 15.5292 26.7346 15.487C26.8681 15.4252 27.0039 15.3693 27.1277 15.2891C27.2237 15.2213 27.3396 15.1859 27.4519 15.1029C27.3479 15.0296 27.2577 14.9736 27.1613 14.9271C26.945 14.8227 26.7371 14.7025 26.5245 14.5917C26.2404 14.4437 26.0804 14.2181 26.0476 13.8989C25.9667 13.1055 25.8537 12.3163 25.7519 11.5254C25.7324 11.3749 25.6996 11.2305 25.6003 11.1088C25.4819 10.964 25.3386 10.8796 25.1458 10.9139C24.9408 10.9503 24.7975 11.0684 24.7177 11.2593C24.6852 11.3366 24.6722 11.4207 24.6603 11.5041C24.5928 11.977 24.213 12.2138 23.7545 12.0691C23.5509 12.0048 23.543 12.0124 23.5885 12.2283C23.6293 12.4218 23.6852 12.6116 23.6852 12.8127C23.6852 12.9557 23.6574 13.0863 23.5683 13.2008C23.3719 13.3686 23.199 13.5632 22.9914 13.7192C22.8329 13.595 22.6102 13.5661 22.4907 13.3838L22.4911 13.3834Z" fill="#DD444C"/>
<path d="M9.93236 19.4402C9.7497 19.3428 9.56703 19.2453 9.38437 19.1478C9.53996 18.9446 9.73742 18.8128 9.9977 18.7883C10.0609 18.7601 10.1277 18.7742 10.1926 18.7742C11.3951 18.7731 12.5976 18.7738 13.7997 18.7731C14.0091 18.8486 14.1795 18.9955 14.3766 19.0948C14.4726 19.1431 14.5715 19.1904 14.6589 19.2536C14.7109 19.2911 14.8026 19.3428 14.674 19.407C14.6156 19.4251 14.5553 19.4254 14.4954 19.4254C13.2467 19.4233 11.9976 19.433 10.7489 19.4207C10.4764 19.4096 10.2049 19.4399 9.93236 19.4402Z" fill="#DD444C"/>
<path d="M13.8629 18.7926C12.5745 18.7912 11.2861 18.7901 9.9977 18.7886C10.0811 18.7385 10.1735 18.7598 10.2616 18.7598C13.803 18.7587 17.3447 18.758 20.8861 18.7619C21.1442 18.7619 21.3868 18.7294 21.6117 18.5988C21.7507 18.6688 21.8716 18.7681 22.0106 18.8392C22.0644 18.8666 22.1059 18.9125 22.1062 18.9811C22.0207 19.172 21.8275 19.211 21.6658 19.2951C21.4698 19.38 21.2622 19.4175 21.0521 19.4204C20.4345 19.429 19.8168 19.4244 19.1988 19.4229C19.1388 19.4229 19.0789 19.4193 19.0219 19.3969C18.7497 19.2121 18.4382 19.0915 18.1782 18.8847C18.1042 18.8258 18.005 18.8464 17.9158 18.8464C16.6628 18.8457 15.4098 18.8464 14.1567 18.8453C14.0564 18.8453 13.951 18.8634 13.8629 18.7923V18.7926Z" fill="#DD444C"/>
<path d="M26.5216 15.6895C26.7335 15.7613 26.9335 15.8545 27.0977 16.0111C27.0017 16.0667 26.9692 16.1389 26.9819 16.2584C27.0829 17.2046 27.175 18.1518 27.2685 19.0991C27.2771 19.1883 27.275 19.2785 27.2779 19.368C27.2407 19.402 27.1988 19.3926 27.1634 19.3717C26.9876 19.2666 26.7981 19.1854 26.6313 19.0637C26.5469 18.8778 26.5682 18.6753 26.5429 18.4804C26.5025 18.1648 26.4826 17.8468 26.4418 17.5313C26.3999 17.2266 26.3548 16.9219 26.3599 16.6129C26.3664 16.5407 26.3638 16.4692 26.3404 16.3999C26.3176 16.2595 26.3209 16.118 26.331 15.9776C26.34 15.8491 26.3812 15.7346 26.5216 15.6899V15.6895Z" fill="#DD444C"/>
<path d="M26.666 19.0796C26.8414 19.0875 26.9555 19.2251 27.1042 19.2897C27.162 19.3146 27.2107 19.3623 27.2779 19.3684C27.3421 19.655 27.3447 19.9489 27.3753 20.2388C27.4461 20.9099 27.501 21.5828 27.5602 22.2549C27.5663 22.326 27.5613 22.3979 27.5613 22.4697C27.5078 22.5127 27.4573 22.482 27.4122 22.4574C27.2504 22.3694 27.0847 22.2881 26.932 22.1831C26.906 22.1506 26.8891 22.1141 26.879 22.0737C26.8144 21.3095 26.7252 20.5474 26.6869 19.781C26.6848 19.7384 26.6725 19.6987 26.6635 19.6576C26.6418 19.5215 26.6483 19.3828 26.6241 19.2467C26.6136 19.1875 26.6165 19.1265 26.6656 19.0796H26.666Z" fill="#DD444C"/>
<path d="M21.8644 27.6995C21.7272 27.5175 21.4879 27.4872 21.3287 27.3381C21.3781 27.1024 21.5673 27.0425 21.764 27.0082C22.3315 26.9093 22.8907 26.78 23.4343 26.5876C23.6347 26.5302 23.813 26.4078 24.0249 26.3833C24.1982 26.4721 24.3639 26.5746 24.5307 26.6753C24.5744 26.7017 24.6285 26.7266 24.6101 26.7963C24.035 27.1172 23.4127 27.3139 22.7795 27.4771C22.5362 27.5399 22.2867 27.5782 22.0409 27.632C21.9799 27.6453 21.9066 27.6341 21.8647 27.6995H21.8644Z" fill="#DD444C"/>
<path d="M22.086 18.9717C22.0351 18.8652 21.9203 18.8482 21.8348 18.7897C21.7539 18.7349 21.6532 18.7006 21.612 18.5988C21.8528 18.4042 22.0182 18.1652 22.0579 17.8508C22.0824 17.3248 22.0618 16.7988 22.0683 16.2729C22.0698 16.1472 22.0719 16.0216 22.0676 15.896C22.0636 15.7819 22.1221 15.7494 22.2116 15.7963C22.3698 15.8794 22.5398 15.9407 22.682 16.053C22.7199 16.118 22.7196 16.1902 22.7192 16.2617C22.7192 16.7624 22.7235 17.2634 22.7174 17.7638C22.6853 18.1829 22.5658 18.5674 22.264 18.876C22.2163 18.9247 22.1723 18.9901 22.086 18.9709V18.9717Z" fill="#DD444C"/>
<path d="M22.6625 16.0505C22.5015 16.0346 22.3748 15.9407 22.2409 15.8642C22.2005 15.8411 22.1607 15.7945 22.1131 15.8209C22.0636 15.8483 22.0867 15.9079 22.0867 15.953C22.0853 16.5223 22.0867 17.0916 22.0846 17.6605C22.0846 17.7241 22.1059 17.793 22.0575 17.8508C22.0564 16.7851 22.0445 15.7191 22.0586 14.6534C22.0647 14.1917 22.2062 13.7589 22.4911 13.3834C22.6452 13.508 22.8622 13.5365 22.9874 13.7062C23.0087 13.7556 22.99 13.8004 22.9665 13.8419C22.7622 14.2 22.6943 14.5866 22.7131 14.9942C22.7196 15.1368 22.7174 15.2798 22.7145 15.4231C22.7192 15.5714 22.721 15.7202 22.717 15.8685C22.7152 15.9335 22.716 16.0007 22.6625 16.0505Z" fill="#DD444C"/>
<path d="M26.9544 22.1813C27.1786 22.2315 27.3392 22.4152 27.5616 22.4697C27.6057 23.1336 27.4854 23.7639 27.1775 24.3563C26.9887 24.2646 26.7923 24.1877 26.6165 24.0697C26.6136 24.0202 26.6274 23.9733 26.6479 23.9303C26.8689 23.4686 26.9234 22.9784 26.9046 22.4741C26.901 22.3755 26.8768 22.2683 26.9544 22.1813Z" fill="#DD444C"/>
<path d="M24.6097 26.7963C24.4989 26.6764 24.3451 26.6244 24.2112 26.541C24.1477 26.5017 24.0708 26.4746 24.0332 26.4006C24.0524 26.3349 24.1112 26.3132 24.1639 26.288C24.6375 26.0598 25.0845 25.7887 25.4881 25.4497C25.5158 25.4266 25.5473 25.41 25.5855 25.4115C25.7415 25.4747 25.8833 25.5642 26.0249 25.653C26.0743 25.684 26.1339 25.7169 26.0913 25.7941C25.6523 26.2096 25.1592 26.5446 24.6094 26.7959L24.6097 26.7963Z" fill="#DD444C"/>
<path d="M26.0916 25.7945C26.0537 25.6685 25.9256 25.6526 25.8361 25.5923C25.7527 25.5364 25.6566 25.4999 25.5841 25.427C25.6469 25.2808 25.7855 25.201 25.8848 25.0869C25.931 25.0339 25.9848 24.9873 26.0227 24.927C26.2234 24.7036 26.3927 24.4577 26.5342 24.1928C26.5566 24.1509 26.5775 24.1061 26.6299 24.0924C26.8505 24.1014 27.0223 24.2112 27.1772 24.3559C26.9291 24.9212 26.5512 25.3887 26.0916 25.7941V25.7945Z" fill="#DD444C"/>
<path d="M15.1257 19.368C14.9935 19.368 14.861 19.368 14.7289 19.368C14.5087 19.1872 14.2409 19.0861 14.0037 18.9341C13.9456 18.8969 13.8651 18.8843 13.8632 18.7926C15.2621 18.7923 16.661 18.7923 18.0598 18.7904C18.1407 18.7904 18.1988 18.8071 18.2627 18.871C18.4255 19.0334 18.6515 19.1027 18.8436 19.2236C18.9093 19.2652 18.9858 19.2901 19.0208 19.368C18.9533 19.4345 18.8659 19.4254 18.7833 19.4258C17.657 19.4276 16.5303 19.4269 15.404 19.4269C15.3072 19.4269 15.2127 19.4157 15.126 19.3684L15.1257 19.368Z" fill="#DD444C"/>
<path d="M23.4564 26.6171C23.0495 26.7951 22.6189 26.8904 22.186 26.9756C22.034 27.0055 21.8853 27.0456 21.7286 27.0597C21.5528 27.0752 21.4254 27.1929 21.3287 27.3384C21.1752 27.5398 21.1554 27.8084 21.4366 28.1513C21.8875 28.7011 22.3297 29.2581 22.7726 29.8144C22.8474 29.9083 22.8997 30.0256 22.7791 30.1159C22.6694 30.1982 22.564 30.1462 22.4842 30.0458C21.9084 29.3206 21.3305 28.5968 20.7579 27.8687C20.4655 27.4965 20.0067 27.4849 19.7168 27.8503C19.171 28.5383 18.6233 29.2249 18.0761 29.9119C18.0313 29.9682 17.9801 30.0195 17.94 30.0787C17.8793 30.1686 17.8126 30.2325 17.7064 30.1505C17.6089 30.0754 17.5721 29.9827 17.6595 29.8722C17.9786 29.4693 18.2966 29.0657 18.6158 28.6629C18.7641 28.4755 18.9212 28.2946 19.0623 28.1015C19.2031 27.9091 19.2212 27.6925 19.1233 27.4745C19.0186 27.2416 18.8172 27.1442 18.5768 27.1232C17.5032 27.029 16.4545 26.8319 15.4899 26.3276C14.5347 25.828 13.9062 25.0641 13.6925 23.9905C13.6481 23.7681 13.6445 23.5396 13.6441 23.3111C13.6427 22.7118 13.2362 22.231 12.6962 22.183C12.3413 22.1516 12.0048 22.0606 11.6767 21.9209C11.0749 21.6642 10.6063 21.2491 10.2175 20.7336C10.0204 20.4722 9.89229 20.174 9.77461 19.873C9.70638 19.6979 9.83742 19.5701 9.932 19.4405C10.1876 19.3199 10.4601 19.3842 10.7255 19.3683C11.7095 19.8975 12.6759 20.4578 13.651 21.0032C14.778 21.6339 15.9029 22.2685 17.0277 22.9032C18.2364 23.5847 19.4461 24.2645 20.6554 24.9446C21.4879 25.4128 22.32 25.8817 23.1528 26.3496C23.2676 26.4142 23.4387 26.4348 23.4564 26.6171Z" fill="#EA4E50"/>
<path d="M22.6629 15.4013C22.6737 14.9548 22.6131 14.5031 22.7968 14.071C22.8513 13.9429 22.9304 13.831 22.9874 13.7061C23.1456 13.514 23.3271 13.3472 23.5282 13.201C24.643 13.8555 25.7787 14.4728 26.9028 15.1114C26.9952 15.1638 27.1241 15.1858 27.1346 15.3287C26.9829 15.4652 26.7689 15.4843 26.6097 15.6074C26.5772 15.6323 26.5382 15.6482 26.5216 15.6894C26.3003 15.8951 26.3985 16.1648 26.3772 16.4106C26.4194 16.4648 26.3689 16.5374 26.4129 16.5911C26.4003 16.9067 26.4631 17.216 26.4851 17.5287C26.3924 17.5853 26.3223 17.516 26.2548 17.4778C25.5653 17.0872 24.8733 16.7009 24.1827 16.3121C23.7379 16.0619 23.2939 15.8103 22.8477 15.563C22.773 15.5215 22.7004 15.4825 22.6622 15.4013H22.6629Z" fill="#EA4E50"/>
<path d="M27.1349 15.3291C27.0014 15.1652 26.7985 15.1064 26.6248 15.0075C25.6404 14.445 24.6491 13.8938 23.6592 13.3411C23.5982 13.3072 23.5531 13.266 23.5286 13.2018C23.6968 12.953 23.6416 12.687 23.5874 12.4216C23.5647 12.3108 23.5412 12.1996 23.512 12.0906C23.4982 12.0404 23.4878 11.996 23.5347 11.9614C23.5831 11.9256 23.6206 11.9592 23.665 11.9809C24.0809 12.1852 24.4004 12.0296 24.5794 11.6823C24.6264 11.591 24.6025 11.4942 24.626 11.4011C24.718 11.0358 24.9534 10.8343 25.2733 10.8578C25.5371 10.8773 25.7588 11.1419 25.801 11.4769C25.8942 12.2148 25.9916 12.9523 26.0859 13.6902C26.0949 13.7613 26.0862 13.8346 26.0942 13.9057C26.1274 14.2187 26.2996 14.4205 26.5757 14.5688C26.9021 14.7439 27.2443 14.8912 27.571 15.1121C27.4183 15.1883 27.2772 15.2587 27.136 15.3291H27.1349Z" fill="#EA4E50"/>
<path d="M23.4564 26.6171C23.273 26.4074 23.008 26.3243 22.7773 26.1911C21.9579 25.7175 21.1316 25.2558 20.3067 24.7919C19.6746 24.4367 19.0396 24.0869 18.4078 23.7313C17.6978 23.332 16.9902 22.9281 16.2805 22.5285C15.6592 22.1786 15.0358 21.8325 14.4145 21.4826C13.6889 21.0744 12.9647 20.6632 12.2391 20.2545C11.8005 20.0076 11.3605 19.7632 10.9204 19.5192C10.8471 19.4788 10.7645 19.4524 10.7262 19.3679C12.0604 19.3679 13.3947 19.3679 14.7293 19.3679C14.8405 19.2853 14.9643 19.3199 15.0856 19.3293C15.7632 19.6917 16.4278 20.0776 17.0981 20.4538C18.2291 21.0888 19.3605 21.7245 20.4904 22.3613C21.8929 23.1515 23.2968 23.9389 24.6986 24.7302C24.9339 24.863 25.17 24.9944 25.4047 25.1283C25.5415 25.2063 25.6418 25.1984 25.7505 25.0778C25.8249 24.9951 25.9072 24.8814 26.0534 24.9583C25.9119 25.1294 25.7556 25.2854 25.5848 25.4273C25.1191 25.8334 24.5903 26.1391 24.034 26.4009C23.8415 26.4731 23.6491 26.5449 23.4571 26.6171H23.4564Z" fill="#EA4E50"/>
<path d="M15.1257 19.3683C16.4238 19.3683 17.7223 19.3683 19.0204 19.3683C19.6908 19.3683 20.3615 19.3726 21.0319 19.3658C21.2579 19.3636 21.4832 19.3311 21.6893 19.2243C22.0081 19.495 22.3921 19.6593 22.7506 19.8636C23.6686 20.3859 24.591 20.9004 25.5112 21.4184C25.914 21.6451 26.3191 21.8671 26.718 22.1003C26.7855 22.1397 26.8494 22.1581 26.9183 22.1093C26.9476 22.1249 26.9537 22.1519 26.9544 22.1815C26.9486 22.6389 26.9884 23.0985 26.8494 23.5472C26.7909 23.7363 26.7039 23.9114 26.6299 24.093C26.4804 24.4103 26.2869 24.698 26.0527 24.9587C25.8837 24.9525 25.8 25.0836 25.7039 25.1857C25.6335 25.2605 25.5787 25.2699 25.4884 25.2193C24.9357 24.9078 24.3787 24.6031 23.8249 24.2926C23.282 23.9883 22.7409 23.6804 22.199 23.3739C21.3756 22.9086 20.5529 22.4422 19.7287 21.979C19.0919 21.6213 18.4515 21.2697 17.8151 20.9116C17.1057 20.5123 16.3993 20.108 15.6906 19.7076C15.4993 19.5993 15.2906 19.5206 15.1253 19.3687L15.1257 19.3683Z" fill="#EA4E50"/>
<path d="M26.9183 22.109C26.9172 22.2747 26.823 22.2082 26.753 22.1696C26.4443 21.9989 26.1382 21.8238 25.8306 21.6505C25.2003 21.2953 24.5708 20.939 23.9397 20.5848C23.2358 20.1896 22.5308 19.7964 21.8276 19.4001C21.7604 19.3622 21.6958 19.3138 21.6889 19.2243C21.8452 19.1777 21.9849 19.1055 22.0857 18.9716C22.4672 18.6813 22.6203 18.277 22.6629 17.8175C22.751 17.7517 22.8243 17.8124 22.8936 17.8517C23.7524 18.3405 24.6159 18.8207 25.4772 19.3055C25.7852 19.4788 26.092 19.6538 26.401 19.8249C26.5682 19.9174 26.5667 19.9203 26.6472 19.7477C26.6624 19.7152 26.6707 19.6795 26.7017 19.6567C26.7844 19.8047 26.7537 19.9748 26.7627 20.1278C26.7905 20.617 26.857 21.1022 26.8869 21.5906C26.8977 21.7631 26.9208 21.935 26.918 22.109H26.9183Z" fill="#EA4E50"/>
<path d="M26.7021 19.6567C26.7328 19.7625 26.6487 19.8365 26.6216 19.9257C26.5905 20.0278 26.5198 19.9426 26.4801 19.9213C26.1588 19.7473 25.84 19.5686 25.522 19.3892C24.8964 19.0358 24.2715 18.6813 23.6463 18.3268C23.4015 18.1882 23.1578 18.0474 22.9123 17.9099C22.8347 17.8665 22.76 17.8106 22.6633 17.8175C22.6633 17.2283 22.6633 16.6395 22.6633 16.0504C22.6633 15.8338 22.6633 15.6175 22.6633 15.4009C23.1051 15.6522 23.5466 15.9042 23.9888 16.1543C24.7282 16.5724 25.4678 16.9897 26.2086 17.4048C26.2967 17.4543 26.3826 17.512 26.4858 17.5287C26.5422 17.7178 26.5317 17.9156 26.5566 18.1088C26.5981 18.4319 26.6302 18.7557 26.6663 19.0795C26.6638 19.2726 26.7252 19.4621 26.7024 19.6564L26.7021 19.6567Z" fill="#EA4E50"/>
<path d="M39.5 20C39.5 23.8567 38.3563 27.6269 36.2137 30.8336C34.071 34.0404 31.0255 36.5397 27.4623 38.0156C23.8992 39.4916 19.9784 39.8777 16.1957 39.1253C12.4131 38.3729 8.93855 36.5157 6.21143 33.7886C3.4843 31.0615 1.62711 27.5869 0.874696 23.8043C0.122284 20.0216 0.508449 16.1008 1.98436 12.5377C3.46027 8.97451 5.95963 5.92903 9.16639 3.78634C12.3731 1.64365 16.1433 0.5 20 0.5C25.1717 0.5 30.1316 2.55446 33.7886 6.21142C37.4455 9.86837 39.5 14.8283 39.5 20Z" stroke="black" stroke-opacity="0.02"/>
</g>
<defs>
<linearGradient id="paint0_linear_2316_467" x1="27.5982" y1="1.93151" x2="20.0172" y2="39.3127" gradientUnits="userSpaceOnUse">
<stop stop-color="#F9EB94"/>
<stop offset="1" stop-color="#FECD60"/>
</linearGradient>
<linearGradient id="paint1_linear_2316_467" x1="26.6235" y1="2.83395" x2="15.577" y2="38.3018" gradientUnits="userSpaceOnUse">
<stop stop-color="#E64A4B"/>
<stop offset="1" stop-color="#F9666D"/>
</linearGradient>
<linearGradient id="paint2_linear_2316_467" x1="20.0172" y1="5.45117" x2="20.0172" y2="34.5836" gradientUnits="userSpaceOnUse">
<stop stop-color="#F7913D"/>
<stop offset="1" stop-color="#F7913D"/>
</linearGradient>
<linearGradient id="paint3_linear_2316_467" x1="27.0226" y1="10.5291" x2="12.6316" y2="31.8308" gradientUnits="userSpaceOnUse">
<stop stop-color="#F9EB94"/>
<stop offset="1" stop-color="#FECD60"/>
</linearGradient>
<clipPath id="clip0_2316_467">
<rect width="40" height="40" fill="white"/>
</clipPath>
</defs>
</svg>
