<svg width="40" height="40" viewBox="0 0 40 40" fill="none" xmlns="http://www.w3.org/2000/svg">
<g clip-path="url(#clip0_3175_584)">
<path d="M20 40C31 40 40 31 40 20C40 9 31 0 20 0C9 0 0 9 0 20C0 31 9 40 20 40Z" fill="#24D494"/>
<path fill-rule="evenodd" clip-rule="evenodd" d="M19.568 7.01439C18.9646 6.98147 18.0932 7.00697 17.6317 7.07113C17.1702 7.13528 16.3869 7.28753 15.8911 7.40946C15.3954 7.53153 14.6403 7.7737 14.213 7.94768C13.7859 8.12166 12.98 8.53665 12.4221 8.86965C11.8641 9.20278 11.0909 9.76807 10.7038 10.1259L10 10.7766L12.2417 13.0272L14.4834 15.2778L14.9927 14.8684C15.2727 14.6432 15.7673 14.3229 16.0919 14.1564C16.4165 13.99 17.0348 13.7616 17.466 13.6491C17.8971 13.5364 18.6398 13.4442 19.1162 13.4442C19.5927 13.4442 20.3395 13.5369 20.7758 13.6501C21.212 13.7633 21.8884 14.0389 22.2789 14.2626C22.6693 14.4863 23.2696 14.9332 23.6126 15.2558C23.9557 15.5784 24.4616 16.225 24.7368 16.6928C25.012 17.1606 25.3258 17.9239 25.4342 18.3892C25.5426 18.8544 25.6321 19.5903 25.6332 20.0246C25.6342 20.4589 25.5274 21.2277 25.3958 21.733C25.2642 22.2384 24.9462 23.001 24.689 23.4275C24.4319 23.8542 23.9442 24.4641 23.6052 24.7828C23.2662 25.1015 22.6655 25.5482 22.2701 25.7756C21.8748 26.0029 21.1777 26.2776 20.721 26.3862C20.2645 26.4947 19.5216 26.5843 19.0703 26.5854C18.6191 26.5864 17.8971 26.4952 17.466 26.3825C17.0348 26.2699 16.4165 26.0416 16.0919 25.8751C15.7673 25.7087 15.2727 25.3883 14.9927 25.1632L14.4834 24.7538L12.2417 27.0044L10 29.255L10.7038 29.9056C11.0909 30.2635 11.8641 30.8242 12.4221 31.1518C12.98 31.4792 13.814 31.9035 14.2755 32.0948C14.737 32.2861 15.6664 32.568 16.3409 32.7214C17.2251 32.9224 17.9994 33.0001 19.1162 33C20.2484 32.9997 20.9925 32.9234 21.8813 32.7162C22.5502 32.5603 23.5904 32.2192 24.1928 31.9583C24.7953 31.6974 25.7168 31.2019 26.2407 30.8572C26.7644 30.5124 27.6463 29.7767 28.2002 29.2222C28.7541 28.6677 29.4566 27.8402 29.7611 27.3836C30.0656 26.9268 30.5417 26.0651 30.8191 25.4686C31.0964 24.872 31.4356 23.9409 31.573 23.3994C31.7104 22.8579 31.8772 21.8752 31.9438 21.2153C32.0137 20.5233 32.019 19.5599 31.9565 18.9384C31.8968 18.3458 31.7801 17.5316 31.6973 17.129C31.6144 16.7264 31.4064 16.0217 31.2351 15.563C31.0638 15.1043 30.7713 14.4253 30.5851 14.0541C30.3989 13.6829 30.0133 13.0278 29.7282 12.5984C29.4432 12.169 28.7296 11.3408 28.1424 10.7581C27.5173 10.1376 26.6025 9.40787 25.9354 8.99731C25.3088 8.61173 24.3924 8.1326 23.8991 7.93272C23.4058 7.73284 22.4764 7.45787 21.8338 7.32176C21.191 7.18564 20.1715 7.04731 19.568 7.01439ZM19.1112 16.8276C18.526 16.8276 18.1572 16.9134 17.6534 17.1663C17.2826 17.3527 16.8424 17.6895 16.6752 17.9146C16.508 18.1398 16.2673 18.5291 16.1401 18.7796C15.9945 19.0665 15.9082 19.5249 15.907 20.0184C15.9056 20.6398 15.9829 20.9458 16.2811 21.498C16.4878 21.8809 16.8359 22.3317 17.0545 22.4998C17.2731 22.668 17.6648 22.8952 17.925 23.0047C18.1851 23.1143 18.6691 23.204 19.0003 23.204C19.3315 23.204 19.8276 23.136 20.1027 23.0529C20.3777 22.9699 20.8366 22.7001 21.1225 22.4534C21.4084 22.2066 21.7693 21.7623 21.9245 21.4658C22.1369 21.0601 22.2067 20.7013 22.2067 20.0158C22.2067 19.3362 22.1369 18.9727 21.9319 18.5844C21.7807 18.2981 21.4919 17.9089 21.2903 17.7193C21.0885 17.5298 20.692 17.2517 20.409 17.1011C20.0499 16.9102 19.6581 16.8276 19.1112 16.8276Z" fill="#F3F3F3"/>
<path d="M39.5 20C39.5 23.8567 38.3563 27.6269 36.2137 30.8336C34.071 34.0404 31.0255 36.5397 27.4623 38.0156C23.8992 39.4916 19.9784 39.8777 16.1957 39.1253C12.4131 38.3729 8.93855 36.5157 6.21143 33.7886C3.4843 31.0615 1.62711 27.5869 0.874696 23.8043C0.122284 20.0216 0.508449 16.1008 1.98436 12.5377C3.46027 8.97451 5.95963 5.92903 9.16639 3.78634C12.3731 1.64365 16.1433 0.5 20 0.5C25.1717 0.5 30.1316 2.55446 33.7886 6.21142C37.4455 9.86837 39.5 14.8283 39.5 20Z" stroke="black" stroke-opacity="0.02"/>
</g>
<defs>
<clipPath id="clip0_3175_584">
<rect width="40" height="40" fill="white"/>
</clipPath>
</defs>
</svg>
