<svg width="40" height="40" viewBox="0 0 40 40" fill="none" xmlns="http://www.w3.org/2000/svg">
<path d="M20 40C31 40 40 31 40 20C40 9 31 0 20 0C9 0 0 9 0 20C0 31 9 40 20 40Z" fill="#243265"/>
<path fill-rule="evenodd" clip-rule="evenodd" d="M20 5L8 12.2497V26.7503L20 34L32 26.7503V12.2497L20 5ZM9.23997 12.9992V26.0008L20 32.5014L30.76 26.0008V12.9992L20 6.49857L9.23997 12.9992Z" fill="white"/>
<path d="M24.6776 11.2647H15.2604L14.1666 16.2883H25.8323L24.6776 11.2647ZM16.9311 23.1892V19.8505L14.1367 18.0057L10.977 20.4543L15.2903 28.3089H17.023L19.0578 26.3053V25.3191L16.9311 23.1892Z" fill="white"/>
<path d="M23.0379 17.0519H16.9621L17.9651 19.8505L17.6618 22.9991H22.3404L22.0371 19.8505L23.0379 17.0519Z" fill="white"/>
<path d="M25.8323 17.9732L23.0678 19.8494V23.188L20.972 25.318V26.3041L23.0069 28.2753H24.7086L28.992 20.4531L25.8323 17.9732Z" fill="white"/>
<path d="M39.5 20C39.5 23.8567 38.3563 27.6269 36.2137 30.8336C34.071 34.0404 31.0255 36.5397 27.4623 38.0156C23.8992 39.4916 19.9784 39.8777 16.1957 39.1253C12.4131 38.3729 8.93855 36.5157 6.21143 33.7886C3.4843 31.0615 1.62711 27.5869 0.874696 23.8043C0.122284 20.0216 0.508449 16.1008 1.98436 12.5377C3.46027 8.97451 5.95963 5.92903 9.16639 3.78634C12.3731 1.64365 16.1433 0.5 20 0.5C25.1717 0.5 30.1316 2.55446 33.7886 6.21142C37.4455 9.86837 39.5 14.8283 39.5 20Z" stroke="black" stroke-opacity="0.02"/>
</svg>
