<svg width="40" height="40" viewBox="0 0 40 40" fill="none" xmlns="http://www.w3.org/2000/svg">
<g clip-path="url(#clip0_1045_571)">
<path d="M20 40C31.0457 40 40 31.0457 40 20C40 8.9543 31.0457 0 20 0C8.9543 0 0 8.9543 0 20C0 31.0457 8.9543 40 20 40Z" fill="#F3F3F3"/>
<path d="M14.4914 25.7162V14.3374C14.4914 14.0665 14.5941 13.7988 14.8013 13.6208C14.9667 13.4775 15.1626 13.405 15.3906 13.405H30V9H29.7929C28.4151 9 27.2975 10.0961 27.2975 11.4474V11.4899C27.2975 12.1577 26.7724 12.7436 26.0915 12.7609C25.393 12.7782 24.8198 12.2286 24.8198 11.5466V11.4301C24.8198 10.0883 23.7102 9.00157 22.3436 9.00157H14.5781C13.7013 9.00157 12.9161 9.19529 12.2224 9.58114C11.5287 9.96857 10.9843 10.5025 10.5909 11.1813C10.1975 11.8616 10 12.6318 10 13.4901V26.5099C10 27.3698 10.1975 28.14 10.5909 28.8203C10.9859 29.5007 11.5287 30.0346 12.2224 30.4204C12.9161 30.8079 13.7013 31 14.5781 31H29.9968V26.595H15.4404C15.1642 26.595 14.8912 26.4942 14.7098 26.291C14.5636 26.1288 14.4898 25.9366 14.4898 25.713L14.4914 25.7162Z" fill="#FF2D2E"/>
<path opacity="0.02" d="M20 1C24.3957 1.0023 28.6545 2.52861 32.051 5.31888C35.4474 8.10914 37.7714 11.9907 38.6268 16.3023C39.4823 20.6139 38.8163 25.0887 36.7424 28.9643C34.6685 32.84 31.315 35.8766 27.2532 37.557C23.1915 39.2373 18.6727 39.4573 14.4669 38.1795C10.2611 36.9017 6.62844 34.2052 4.18786 30.5494C1.74727 26.8936 0.649757 22.5046 1.08231 18.1303C1.51485 13.756 3.4507 9.66703 6.56003 6.56C8.32534 4.79599 10.4209 3.39704 12.7269 2.44304C15.033 1.48904 17.5044 0.998695 20 1ZM20 4.56507e-07C15.3729 -0.000987762 10.8885 1.60248 7.31107 4.53718C3.73363 7.47188 1.28444 11.5562 0.380826 16.0943C-0.522786 20.6324 0.17509 25.3434 2.35554 29.4246C4.53599 33.5058 8.06411 36.7047 12.3387 38.4762C16.6133 40.2477 21.37 40.4822 25.7981 39.1398C30.2263 37.7974 34.0519 34.9611 36.6233 31.1142C39.1947 27.2673 40.3526 22.6478 39.8998 18.0428C39.447 13.4379 37.4114 9.13239 34.14 5.86C30.3902 2.10901 25.3039 0.0011332 20 4.56507e-07Z" fill="black"/>
</g>
<defs>
<clipPath id="clip0_1045_571">
<rect width="40" height="40" fill="white"/>
</clipPath>
</defs>
</svg>
