<svg width="40" height="40" viewBox="0 0 40 40" fill="none" xmlns="http://www.w3.org/2000/svg">
<path d="M20 40C31 40 40 31 40 20C40 9 31 0 20 0C9 0 0 9 0 20C0 31 9 40 20 40Z" fill="black"/>
<path fill-rule="evenodd" clip-rule="evenodd" d="M20.812 7.00939C20.9923 7.04359 21.1415 7.16759 21.206 7.33675L24.3703 15.6401C24.4725 15.9085 24.3344 16.2076 24.0617 16.3083C23.7889 16.4089 23.4849 16.2729 23.3827 16.0046L20.5209 8.49513L13.4019 16.1722C13.2056 16.3839 12.872 16.3989 12.6569 16.2057C12.4417 16.0125 12.4265 15.6843 12.6228 15.4726L20.3226 7.16917C20.4464 7.03571 20.6317 6.97519 20.812 7.00939Z" fill="white"/>
<path fill-rule="evenodd" clip-rule="evenodd" d="M15.8859 23.6917C16.1586 23.5911 16.4626 23.7271 16.5649 23.9954L19.4269 31.5056L23.3289 27.3046C23.5254 27.093 23.859 27.0783 24.074 27.2716C24.2889 27.465 24.3039 27.7932 24.1074 28.0048L19.6247 32.8311C19.5009 32.9644 19.3155 33.0248 19.1354 32.9906C18.9552 32.9563 18.806 32.8323 18.7416 32.6632L15.5773 24.3599C15.475 24.0915 15.6132 23.7924 15.8859 23.6917Z" fill="white"/>
<path fill-rule="evenodd" clip-rule="evenodd" d="M23.3311 27.2503L26.6009 23.7733L27.375 24.4782L24.1052 27.9553L23.3311 27.2503Z" fill="white"/>
<path fill-rule="evenodd" clip-rule="evenodd" d="M7.09392 15.5268C7.19244 15.3869 7.35442 15.3034 7.52739 15.3034H18.4442C18.6641 15.3034 18.8608 15.4376 18.938 15.6401L21.974 23.6068H31.7116L28.9428 16.3413H23.8235C23.5323 16.3413 23.2961 16.109 23.2961 15.8224C23.2961 15.5357 23.5323 15.3034 23.8235 15.3034H29.3083C29.5282 15.3034 29.7249 15.4376 29.8021 15.6401L32.9664 23.9435C33.0272 24.1029 33.0046 24.2815 32.9061 24.4214C32.8076 24.5613 32.6456 24.6447 32.4726 24.6447H21.6085C21.3887 24.6447 21.1919 24.5105 21.1147 24.308L18.0787 16.3413H8.2884L11.0572 23.6068H16.1237C16.415 23.6068 16.6511 23.8391 16.6511 24.1258C16.6511 24.4124 16.415 24.6447 16.1237 24.6447H10.6917C10.4718 24.6447 10.2751 24.5105 10.1979 24.308L7.03358 16.0046C6.97285 15.8452 6.99539 15.6667 7.09392 15.5268Z" fill="white"/>
<path fill-rule="evenodd" clip-rule="evenodd" d="M15.6827 23.7746L23.4353 15.4713L24.212 16.1735L16.4595 24.4769L15.6827 23.7746Z" fill="white"/>
<path d="M39.5 20C39.5 23.8567 38.3563 27.6269 36.2137 30.8336C34.071 34.0404 31.0255 36.5397 27.4623 38.0156C23.8992 39.4916 19.9784 39.8777 16.1957 39.1253C12.4131 38.3729 8.93855 36.5157 6.21143 33.7886C3.4843 31.0615 1.62711 27.5869 0.874696 23.8043C0.122284 20.0216 0.508449 16.1008 1.98436 12.5377C3.46027 8.97451 5.95963 5.92903 9.16639 3.78634C12.3731 1.64365 16.1433 0.5 20 0.5C25.1717 0.5 30.1316 2.55446 33.7886 6.21142C37.4455 9.86837 39.5 14.8283 39.5 20Z" stroke="black" stroke-opacity="0.02"/>
</svg>
