<svg width="40" height="40" viewBox="0 0 40 40" fill="none" xmlns="http://www.w3.org/2000/svg">
<path d="M20 40C31 40 40 31 40 20C40 9 31 0 20 0C9 0 0 9 0 20C0 31 9 40 20 40Z" fill="#F3F3F3"/>
<path d="M22.6532 18.0171C22.6532 16.5724 21.4768 15.4013 20.0254 15.4013C18.5742 15.4013 17.3977 16.5724 17.3977 18.0171C17.3977 19.0279 17.9747 19.9032 18.8179 20.3387L17.844 24.5309H22.2069L21.2331 20.3387C22.0762 19.9032 22.6532 19.0279 22.6532 18.0171Z" fill="#2F0D30"/>
<path d="M30.3036 23.2628C29.7933 27.2073 26.4004 30.2657 22.3011 30.2657H17.7498C13.2993 30.2657 9.67845 26.6615 9.67845 22.2313V17.7008C9.67845 13.2706 13.2993 9.66631 17.7498 9.66631H22.3011C26.4004 9.66631 29.7932 12.7249 30.3036 16.6694H33C32.4769 11.2511 27.879 7 22.3011 7H17.7498C11.8223 7 7 11.8004 7 17.7008V22.2313C7 28.1317 11.8223 32.9321 17.7498 32.9321H22.3011C27.879 32.9321 32.4769 28.6809 33 23.2628H30.3036Z" fill="#2F0D30"/>
<path d="M39.5 20C39.5 23.8567 38.3563 27.6269 36.2137 30.8336C34.071 34.0404 31.0255 36.5397 27.4623 38.0156C23.8992 39.4916 19.9784 39.8777 16.1957 39.1253C12.4131 38.3729 8.93855 36.5157 6.21143 33.7886C3.4843 31.0615 1.62711 27.5869 0.874696 23.8043C0.122284 20.0216 0.508449 16.1008 1.98436 12.5377C3.46027 8.97451 5.95963 5.92903 9.16639 3.78634C12.3731 1.64365 16.1433 0.5 20 0.5C25.1717 0.5 30.1316 2.55446 33.7886 6.21142C37.4455 9.86837 39.5 14.8283 39.5 20Z" stroke="black" stroke-opacity="0.02"/>
</svg>
