<svg width="40" height="40" viewBox="0 0 40 40" fill="none" xmlns="http://www.w3.org/2000/svg">
<g clip-path="url(#clip0_1432_551)">
<path d="M20 40C31.0457 40 40 31.0457 40 20C40 8.9543 31.0457 0 20 0C8.9543 0 0 8.9543 0 20C0 31.0457 8.9543 40 20 40Z" fill="#F3F3F3"/>
<path d="M31.3657 16.7838V11.398H28.6687V8.69495H23.2768V6H17.8848V8.69495H12.4949V11.398H9.79797V27.5596H12.4929V30.2566H17.8848V32.9515H23.2747V30.2626H28.6687V27.5596H31.3657V22.1737H25.9737V24.8707H23.2768V27.5596H17.8848V24.8707H15.1899V14.0869H17.8848V11.398H23.2768V14.0869H25.9737V16.7838H31.3657Z" fill="#3A3A3A"/>
<path d="M25.9737 14.0889H24.1758V16.7838H25.9737V14.0889Z" fill="#1682FE"/>
<path d="M23.2768 11.392H21.4788V14.0869H23.2768V11.392Z" fill="#1682FE"/>
<path d="M17.8869 6H16.0889V8.69495H17.8869V6Z" fill="#1682FE"/>
<path d="M25.9717 22.1758H23.2788V24.8728H25.9717V22.1758Z" fill="#FF5A5A"/>
<path d="M23.2788 24.8707H21.4808V27.5657H23.2788V24.8707Z" fill="#FF5A5A"/>
<path d="M17.8848 30.2626H16.0869V32.9575H17.8848V30.2626Z" fill="#FF5A5A"/>
<path d="M12.4929 27.5657H10.6949V30.2606H12.4929V27.5657Z" fill="#F4BB3B"/>
<path d="M9.79798 19.4788H8V27.5656H9.79798V19.4788Z" fill="#F4BB3B"/>
<path d="M9.79798 11.392H8V19.4788H9.79798V11.392Z" fill="#60D8A4"/>
<path d="M12.4949 8.69702H10.697V11.392H12.4949V8.69702Z" fill="#1682FE"/>
<path d="M39.5 20C39.5 30.7696 30.7696 39.5 20 39.5C9.23045 39.5 0.5 30.7696 0.5 20C0.5 9.23045 9.23045 0.5 20 0.5C30.7696 0.5 39.5 9.23045 39.5 20Z" stroke="black" stroke-opacity="0.02"/>
</g>
<defs>
<clipPath id="clip0_1432_551">
<rect width="40" height="40" fill="white"/>
</clipPath>
</defs>
</svg>
