<svg width="40" height="40" viewBox="0 0 40 40" fill="none" xmlns="http://www.w3.org/2000/svg"><g clip-path="url(#CXT__a)"><path d="M20 40c11 0 20-9 20-20S31 0 20 0 0 9 0 20s9 20 20 20Z" fill="#181818"/><path d="M30.594 17.172A1.125 1.125 0 0 0 31 16.31v-6.16a1.143 1.143 0 0 0-.725-1.06 1.288 1.288 0 0 0-.457-.09H24.16c-.285 0-.56.1-.776.282L20.4 11.826a1.137 1.137 0 0 0-.398.867c0-.166-.035-.327-.103-.475a1.17 1.17 0 0 0-.296-.392l-2.99-2.544A1.19 1.19 0 0 0 15.84 9h-5.661c-.155 0-.306.03-.45.086a1.124 1.124 0 0 0-.382.247 1.13 1.13 0 0 0-.254.372 1.116 1.116 0 0 0-.093.443v6.161a1.144 1.144 0 0 0 .402.863l2.983 2.544c.217.186.495.286.78.286-.288 0-.563.1-.78.285l-2.983 2.544c-.127.107-.227.24-.295.389a1.098 1.098 0 0 0-.107.474v6.161a1.145 1.145 0 0 0 .344.811 1.192 1.192 0 0 0 .832.334h5.657c.285 0 .56-.1.777-.282l2.983-2.544c.127-.107.227-.24.295-.392a1.12 1.12 0 0 0 .103-.474 1.16 1.16 0 0 0 .399.866l2.983 2.544c.217.182.492.282.777.282h5.657a1.18 1.18 0 0 0 .832-.334 1.136 1.136 0 0 0 .344-.81v-6.162a1.135 1.135 0 0 0-.405-.863l-2.297-2.544a1.199 1.199 0 0 0-.78-.285c.289 0 .564-.1.78-.286l2.296-2.544h.017ZM12.492 15.31a2.064 2.064 0 0 1-.124-1.22c.083-.41.292-.788.595-1.084.302-.295.69-.498 1.113-.577a2.202 2.202 0 0 1 2.231.9 2.084 2.084 0 0 1 .2 1.984 2.08 2.08 0 0 1-.472.684 2.19 2.19 0 0 1-.704.458 2.227 2.227 0 0 1-2.038-.196 2.145 2.145 0 0 1-.801-.95Zm3.811 11.37a2.163 2.163 0 0 1-.976.78 2.207 2.207 0 0 1-1.254.12 2.203 2.203 0 0 1-1.114-.577 2.103 2.103 0 0 1-.594-1.083 2.064 2.064 0 0 1 .123-1.22c.165-.386.444-.716.801-.95a2.224 2.224 0 0 1 2.743.261c.203.197.36.43.47.685.11.254.166.532.166.808 0 .419-.127.828-.364 1.175Zm11.198-1.984a2.066 2.066 0 0 1-.471 2.303c-.302.296-.69.499-1.113.578-.423.079-.86.041-1.255-.12a2.177 2.177 0 0 1-.976-.781 2.083 2.083 0 0 1-.2-1.984c.11-.254.269-.488.472-.684a2.225 2.225 0 0 1 2.743-.261c.357.233.635.564.8.949Zm-.8-8.437a2.227 2.227 0 0 1-2.743-.261 2.118 2.118 0 0 1-.471-.685 2.084 2.084 0 0 1 .2-1.984c.236-.347.577-.618.975-.78a2.205 2.205 0 0 1 1.255-.12c.422.082.807.282 1.113.577a2.065 2.065 0 0 1 .471 2.303 2.147 2.147 0 0 1-.8.95Z" fill="#54FE6D"/><path d="M39.167 20A19.166 19.166 0 1 1 .834 20a19.166 19.166 0 0 1 38.333 0Z" stroke="#000" stroke-opacity=".02" stroke-width="1.667"/></g><defs><clipPath id="CXT__a"><path fill="#fff" d="M0 0h40v40H0z"/></clipPath></defs></svg>