<svg width="40" height="40" viewBox="0 0 40 40" fill="none" xmlns="http://www.w3.org/2000/svg">
<path d="M20 40C31 40 40 31 40 20C40 9 31 0 20 0C9 0 0 9 0 20C0 31 9 40 20 40Z" fill="#F3F3F3"/>
<path d="M30.92 10.6691C27.3478 8.47808 23.7757 6.28228 20.2035 4.08649C20.1583 4.05766 20.113 4.02883 20.0678 4H19.9322C16.4911 6.11411 13.0501 8.22823 9.60904 10.3423C8.8313 10.818 8.05809 11.2985 7.28035 11.7742C7.18991 11.8318 7.09496 11.8751 7 11.9279V27.976C8.02191 28.6102 9.04383 29.2444 10.0657 29.8739C13.2852 31.8535 16.5047 33.8282 19.7242 35.8078C19.7965 35.8511 19.8643 35.9039 19.9322 35.952H20.0678C20.7551 35.5195 21.4424 35.0871 22.1297 34.6643C25.6929 32.4685 29.256 30.2775 32.8191 28.0817C32.8779 28.0432 32.9367 28.0096 32.9955 27.976V11.9279C32.3082 11.5099 31.6118 11.0919 30.92 10.6691ZM28.5461 20.1586C27.1805 22.6667 25.8104 25.1748 24.4494 27.6877C24.359 27.8559 24.2504 27.9183 24.0696 27.9183C22.713 27.9135 21.3565 27.9135 20 27.9135C18.6525 27.9135 17.3005 27.9087 15.953 27.9183C15.7541 27.9183 15.641 27.8462 15.5416 27.6637C14.2031 25.1844 12.8557 22.7099 11.5037 20.2402C11.4042 20.0625 11.3906 19.9183 11.4946 19.7309C12.8557 17.2372 14.2077 14.7387 15.5597 12.2402C15.641 12.0913 15.7405 12.024 15.9033 12.024C18.6299 12.0288 21.361 12.0288 24.0877 12.024C24.2504 12.024 24.3499 12.0865 24.4313 12.2354C25.8014 14.7628 27.1715 17.2853 28.5461 19.8078C28.6184 19.9327 28.6184 20.0336 28.5461 20.1586Z" fill="#0D295C"/>
<path d="M24.3726 19.9712C24.3726 19.1688 24.3681 18.3712 24.3771 17.5688C24.3771 17.367 24.3093 17.2517 24.1465 17.1508C22.8307 16.3532 21.5194 15.5508 20.2126 14.7388C20.0498 14.6379 19.9323 14.6523 19.7785 14.7484C18.4898 15.546 17.1966 16.3388 15.8989 17.122C15.709 17.2373 15.6366 17.367 15.6366 17.5976C15.6411 19.1736 15.6366 20.7544 15.623 22.3304C15.623 22.561 15.6999 22.6907 15.8853 22.806C17.174 23.5892 18.4582 24.3772 19.7424 25.17C19.9323 25.2853 20.0724 25.2853 20.2578 25.17C21.5465 24.3676 22.8397 23.5796 24.133 22.7916C24.3048 22.6859 24.3771 22.5658 24.3726 22.3544C24.3636 21.5568 24.3726 20.764 24.3726 19.9712Z" fill="#0D295C"/>
<path d="M14.6868 26.2077C14.5874 25.9723 14.4562 25.7513 14.3251 25.5351C14.1759 25.1795 13.9543 24.8672 13.778 24.5261C13.674 24.3339 13.57 24.1417 13.466 23.9495C13.3077 23.6564 13.1494 23.3681 12.9957 23.075L12.3762 21.9315C12.2406 21.6432 12.0823 21.3693 11.9014 21.1098C11.8155 20.8023 11.6211 20.5573 11.4854 20.2834C11.4402 20.1921 11.395 20.1008 11.3498 20.0144C11.3362 20.0144 11.3181 20.0095 11.3046 20.0095C11.2955 20.0384 11.291 20.0672 11.2774 20.0912C11.2865 20.0672 11.2955 20.0384 11.3046 20.0095C11.2187 19.8077 11.1192 19.6108 10.9926 19.433C10.8343 19.1255 10.6896 18.8083 10.4952 18.5153C10.346 18.2029 10.1877 17.8906 9.99779 17.6023C9.84405 17.2948 9.69031 16.9825 9.50492 16.6942C9.17935 16.0888 8.84926 15.4786 8.51918 14.8684C8.40161 14.6474 8.28857 14.4216 8.16648 14.2053C7.78213 13.4942 7.39326 12.7927 7.00439 12.0864V27.6011C7.28022 27.6156 7.56057 27.6444 7.83639 27.6492C10.1877 27.654 12.539 27.6492 14.8858 27.6492C15.0757 27.6492 15.2611 27.654 15.4465 27.6011C15.1933 27.1351 14.94 26.6738 14.6868 26.2077Z" fill="url(#paint0_linear_2354_4452)"/>
<path d="M29.2017 21.0186C29.3691 21.3213 29.4821 21.6528 29.6946 21.9267C29.8167 22.1813 29.9343 22.4312 30.0971 22.657C30.1106 22.6474 30.1197 22.633 30.1332 22.6234C30.1197 22.633 30.1106 22.6474 30.0971 22.657C30.2689 23.1038 30.5402 23.4882 30.7663 23.9014C30.8657 24.0984 30.9381 24.3099 31.0783 24.478L31.4219 25.1555C31.6616 25.6023 31.9012 26.0444 32.1409 26.4912C32.1771 26.5393 32.2132 26.5921 32.2494 26.6402C32.4212 26.5393 32.5931 26.4336 32.7649 26.3279C32.8372 26.2846 32.9051 26.2462 32.991 26.251V12.0864C32.9774 12.0912 32.9638 12.096 32.9503 12.1008C32.887 12.2786 32.7965 12.4372 32.688 12.5861C32.4845 13.0426 32.2223 13.4702 31.9871 13.9123C31.6887 14.4648 31.3903 15.0174 31.0964 15.5747C31.0602 15.642 31.0331 15.7189 30.9969 15.7909L30.5131 16.6077C30.4543 16.8288 30.2824 16.9969 30.2327 17.2276C30.2417 17.2276 30.2553 17.2276 30.2644 17.2276C30.2553 17.2276 30.2417 17.2276 30.2327 17.2276C30.0473 17.4294 29.9659 17.7032 29.8167 17.9291C29.7805 17.9867 29.7579 18.0588 29.6946 18.0972C29.6449 18.3086 29.5137 18.4768 29.4233 18.669C29.2063 19.0726 28.9847 19.4762 28.7677 19.8798C28.736 19.9423 28.7179 20.0095 28.6953 20.0768L28.7405 20.1633C28.8717 20.4564 29.0344 20.7399 29.2017 21.0186ZM29.6404 18.6258C29.6268 18.6306 29.6087 18.6402 29.5951 18.645C29.6087 18.6402 29.6268 18.6306 29.6404 18.6258Z" fill="url(#paint1_linear_2354_4452)"/>
<path d="M32.8732 11.9712C32.8144 12.0577 32.7285 12.0385 32.6471 12.0385C32.3397 12.0433 32.0367 12.0433 31.7292 12.0433C31.2318 12.0433 30.7344 12.0433 30.2371 12.0385C29.3327 12.0385 28.4284 12.0385 27.524 12.0337C27.0176 12.0337 26.5157 12.0433 26.0092 12.0288C25.4666 12.0144 25.0642 12.3267 24.6572 12.6439C24.8155 12.937 24.9737 13.2252 25.132 13.5183C25.3536 13.9652 25.5887 14.4024 25.8464 14.8252C25.9459 15.0607 26.068 15.2817 26.2082 15.4883C26.3077 15.7237 26.4343 15.9448 26.5699 16.161C26.6965 16.4108 26.8277 16.6607 26.9543 16.9105C26.9678 16.9009 26.9769 16.8913 26.9904 16.8817C26.9814 16.8913 26.9678 16.9009 26.9543 16.9105C27.1984 17.343 27.4381 17.7754 27.6823 18.2078C27.8044 18.4385 27.931 18.6691 28.0531 18.8997C28.252 19.2841 28.451 19.6637 28.6499 20.0481C28.6635 20.0529 28.6771 20.0529 28.6951 20.0577C28.7177 19.9904 28.7358 19.9231 28.7675 19.8607C28.9845 19.4571 29.2016 19.0535 29.4231 18.6499C29.5136 18.4577 29.6447 18.2943 29.6944 18.0781C29.7577 18.0397 29.7804 17.9676 29.8165 17.9099C29.9612 17.6793 30.0471 17.4102 30.2325 17.2084C30.2777 16.9778 30.4496 16.8144 30.5129 16.5886C30.6757 16.3147 30.8384 16.0409 31.0012 15.767C31.0329 15.6949 31.06 15.6228 31.1007 15.5508C31.3946 14.9982 31.6931 14.4409 31.9915 13.8883C32.2266 13.4463 32.4889 13.0234 32.6924 12.5622C32.8009 12.4132 32.8913 12.2547 32.9546 12.0769C32.9546 12.0529 32.9546 12.024 32.9546 12C32.9275 12.0048 32.9004 11.9856 32.8732 11.9712Z" fill="url(#paint2_linear_2354_4452)"/>
<path d="M32.9502 27.9327C32.9502 27.8366 32.896 27.7645 32.8508 27.6925C32.6292 27.3417 32.4528 26.9621 32.2629 26.5874C32.2268 26.5393 32.1906 26.4865 32.1544 26.4384C31.9148 25.9916 31.6706 25.5447 31.4309 25.0979C31.3179 24.872 31.2003 24.6462 31.0873 24.4204C30.9471 24.2474 30.8702 24.036 30.7753 23.839C30.5447 23.4258 30.2779 23.0366 30.1015 22.5898C29.9388 22.3591 29.8212 22.1093 29.6991 21.8546C29.4821 21.5808 29.3735 21.2444 29.2017 20.9417C29.0344 20.663 28.8671 20.3796 28.7405 20.072C28.7269 20.0432 28.7088 20.0144 28.6953 19.9856C28.6817 19.9808 28.6681 19.976 28.6501 19.976C28.0441 21.0859 27.4382 22.1958 26.8278 23.3009C26.5701 23.7814 26.3123 24.2666 26.0546 24.7471C25.8421 25.1171 25.6115 25.4775 25.4577 25.8763C25.2904 26.0973 25.1638 26.3423 25.0553 26.6018C24.8925 26.8276 24.7704 27.0823 24.6528 27.3417C24.5308 27.5435 24.4132 27.7453 24.2911 27.9471C24.2821 28.0913 24.1735 28.1874 24.1419 28.3171C24.0062 28.5141 23.8932 28.7255 23.7937 28.9465C23.5948 29.2733 23.4184 29.6144 23.2511 29.9651C23.0612 30.2534 22.9029 30.5657 22.7537 30.8829C22.5955 31.1279 22.4553 31.3778 22.3422 31.6516C22.1614 31.9063 22.0257 32.1898 21.8901 32.4781C21.7454 32.6895 21.6278 32.9153 21.5238 33.1507C21.2751 33.5543 21.0445 33.9675 20.8455 34.4048C20.6963 34.5585 20.6466 34.7796 20.5335 34.9525C20.3888 35.1736 20.2396 35.3946 20.4838 35.6492C20.8681 35.4666 21.2118 35.2072 21.5735 34.9814C22.0709 34.6931 22.5683 34.4 23.0476 34.0733C23.2918 33.982 23.4772 33.7898 23.7078 33.6745C23.9836 33.5495 24.2188 33.3429 24.481 33.194C24.8337 33.0162 25.1593 32.7856 25.4939 32.5742C25.8421 32.4108 26.1495 32.1657 26.4796 31.9736C26.8142 31.7669 27.1443 31.5603 27.4789 31.3537C27.7728 31.2096 28.0396 31.0222 28.3019 30.83C28.6229 30.6714 28.944 30.5129 29.2108 30.2534C29.3012 30.2727 29.3645 30.2102 29.4323 30.1669C29.6313 30.042 29.8302 29.9123 30.0292 29.7874C29.9614 29.7105 29.889 29.6432 29.8076 29.5856C29.889 29.6432 29.9614 29.7105 30.0292 29.7874C30.3231 29.6624 30.5582 29.427 30.8386 29.2877C31.0873 29.1772 31.2998 28.9994 31.5349 28.86C32.0097 28.5814 32.4845 28.3027 32.9367 27.9904L32.9502 27.9327ZM29.6222 29.4654C29.5861 29.4414 29.5499 29.4222 29.5092 29.403C29.5499 29.4222 29.5861 29.4462 29.6222 29.4654C29.6675 29.4943 29.7127 29.5231 29.7579 29.5519C29.7127 29.5231 29.6675 29.4943 29.6222 29.4654Z" fill="url(#paint3_linear_2354_4452)"/>
<path d="M15.6773 18.4288C15.6773 18.5393 15.6773 18.6498 15.6818 18.7603C15.6818 18.8564 15.6818 18.9525 15.6818 19.0486C15.6818 19.1591 15.6818 19.2744 15.6818 19.3849C15.6818 19.4954 15.6818 19.6108 15.6818 19.7213C15.6637 19.8318 15.6592 19.9471 15.6818 20.0576C15.6637 20.1873 15.6592 20.3123 15.6818 20.442C15.6637 20.5717 15.6547 20.6966 15.6818 20.8264C15.6637 20.9705 15.6547 21.1147 15.6818 21.2588C15.6637 21.3885 15.6547 21.5135 15.6818 21.6432C15.6637 21.7537 15.6547 21.869 15.6818 21.9795C15.6637 22.0756 15.6592 22.1717 15.6818 22.2678C15.7542 22.2726 15.8084 22.2438 15.8717 22.2054C17.0293 21.451 18.1869 20.6966 19.3399 19.9375C19.4032 19.8942 19.5208 19.8702 19.5027 19.7645C19.4846 19.6828 19.3942 19.6396 19.3083 19.6252C19.2314 19.5483 19.141 19.5051 19.0415 19.481C18.9601 19.3609 18.8244 19.3273 18.7204 19.2456L18.4039 19.0534C18.2999 18.9909 18.1959 18.9237 18.0874 18.8612C17.9834 18.7987 17.8749 18.7315 17.7709 18.669C17.6533 18.645 17.5945 18.4912 17.4589 18.5105C17.4091 18.4096 17.3142 18.3807 17.2283 18.3327C17.1514 18.2846 17.0791 18.2414 17.0022 18.1933C16.8982 18.1741 16.8484 18.0444 16.7309 18.0444C16.6495 17.9771 16.5726 17.9051 16.4686 17.8714C16.2154 17.7081 15.9757 17.5255 15.6999 17.4102C15.6185 17.7513 15.6411 18.0876 15.6773 18.4288Z" fill="url(#paint4_linear_2354_4452)"/>
<path d="M39.5 20C39.5 23.8567 38.3563 27.6269 36.2137 30.8336C34.071 34.0404 31.0255 36.5397 27.4623 38.0156C23.8992 39.4916 19.9784 39.8777 16.1957 39.1253C12.4131 38.3729 8.93855 36.5157 6.21143 33.7886C3.4843 31.0615 1.62711 27.5869 0.874696 23.8043C0.122284 20.0216 0.508449 16.1008 1.98436 12.5377C3.46027 8.97451 5.95963 5.92903 9.16639 3.78634C12.3731 1.64365 16.1433 0.5 20 0.5C25.1717 0.5 30.1316 2.55446 33.7886 6.21142C37.4455 9.86837 39.5 14.8283 39.5 20Z" stroke="black" stroke-opacity="0.02"/>
<defs>
<linearGradient id="paint0_linear_2354_4452" x1="11.2259" y1="12.0864" x2="11.2259" y2="27.6488" gradientUnits="userSpaceOnUse">
<stop stop-color="#BEC4D0"/>
<stop offset="1" stop-color="#0D295C"/>
</linearGradient>
<linearGradient id="paint1_linear_2354_4452" x1="30.735" y1="13.0726" x2="31.2965" y2="26.4753" gradientUnits="userSpaceOnUse">
<stop stop-color="#8E97AE"/>
<stop offset="1" stop-color="#0D295C"/>
</linearGradient>
<linearGradient id="paint2_linear_2354_4452" x1="25.4774" y1="12.067" x2="31.2338" y2="15.8701" gradientUnits="userSpaceOnUse">
<stop stop-color="#0D295C"/>
<stop offset="1" stop-color="#4B5B7F"/>
</linearGradient>
<linearGradient id="paint3_linear_2354_4452" x1="31.1962" y1="23.4617" x2="21.2451" y2="34.9051" gradientUnits="userSpaceOnUse">
<stop stop-color="#B3BAC9"/>
<stop offset="1" stop-color="#0D295C"/>
</linearGradient>
<linearGradient id="paint4_linear_2354_4452" x1="15.2875" y1="17.6772" x2="17.9011" y2="21.0333" gradientUnits="userSpaceOnUse">
<stop stop-color="#B5BBCA"/>
<stop offset="1" stop-color="#0D295C"/>
</linearGradient>
</defs>
</svg>
