<svg viewBox="0 0 40 40" xmlns="http://www.w3.org/2000/svg">
  <g fill="none">
    <circle fill="#BCCAD8" cx="20" cy="20" r="20"/>
    <circle fill="#1C75BC" cx="20" cy="20" r="20"/>
    <g fill="#FEFEFE">
      <path d="M23.356 10.8301h-8.233l-.683 3.813 7.43.009c3.659-.001 4.741 1.329 4.71 3.532-.016 1.13-.506 3.04-.717 3.659-.565 1.65-1.722 3.533-6.066 3.526l-7.221-.003-.684 3.817h8.215c2.897 0 4.129-.337 5.435-.941 2.892-1.336 4.614-4.19 5.303-7.917 1.028-5.548-.252-9.495-7.489-9.495"/>
      <path d="M11.5704 18.0913c-2.157 0-2.465 1.405-2.669 2.255-.268 1.112-.356 1.562-.356 1.562h8.43c2.157 0 2.466-1.405 2.67-2.255.267-1.111.355-1.562.355-1.562h-8.43z"/>
    </g>
    <circle stroke-opacity=".02" stroke="#000" cx="20" cy="20" r="19.5"/>
  </g>
</svg>
