<svg viewBox="0 0 40 40" xmlns="http://www.w3.org/2000/svg">
  <g fill="none">
    <path d="M20 40C8.954 40 0 31.046 0 20S8.954 0 20 0s20 8.954 20 20-8.954 20-20 20z" fill="#2ED6A1"/>
    <circle stroke-opacity=".02" stroke="#000" cx="20" cy="20" r="19.5"/>
    <circle stroke-opacity=".02" stroke="#000" cx="20" cy="20" r="19.5"/>
    <path d="M7.3183 14.591c-2.159 0-3.8864-1.7273-3.8864-3.8864s1.75-3.8863 3.8864-3.8863h5.75L5.2274 0H.023l4.5453 3.9545C1.7957 5.0682-.0226 7.7501.0003 10.75c.0227 4 3.2954 7.25 7.318 7.25h5.75l-3.909-3.409h-1.841zm11.409-.5683l4.5455 3.9318H18.091l-7.841-6.7954H16c2.1365 0 3.8864-1.7272 3.8864-3.8863 0-2.159-1.7272-3.8636-3.8635-3.8636h-1.841L10.25 0H16c4.0227-.0226 7.2954 3.2274 7.2954 7.25.0227 2.9773-1.7954 5.6591-4.5682 6.7727z" fill="#FFF" transform="translate(8 11)"/>
  </g>
</svg>
