<svg width="40" height="40" viewBox="0 0 40 40" fill="none" xmlns="http://www.w3.org/2000/svg"><g clip-path="url(#DEGEN__a)"><path fill-rule="evenodd" clip-rule="evenodd" d="M20 0c11.047 0 20 8.954 20 20 0 11.047-8.953 20-20 20C8.954 40 0 31.047 0 20 0 8.954 8.954 0 20 0Z" fill="#20293A"/><path d="m10.549 22.684.107 2a.64.64 0 0 0 .142.37c.59.73 3.237 3.275 9.2 3.275 5.964 0 8.579-2.512 9.19-3.261a.697.697 0 0 0 .155-.4l.107-1.983c.71-.397 1.442-.846 1.442-.846 1.153-.638 2.439.278 2.441 1.62.004 2.173-1.659 4.405-3.902 5.812-2.529 1.586-6.305 2.244-9.431 2.244-3.127 0-6.902-.658-9.431-2.244-2.243-1.407-3.906-3.639-3.902-5.812.002-1.342 1.288-2.258 2.44-1.62 0 0 .732.448 1.442.845Z" fill="#845EEE"/><path d="M20 8.485c4.875 0 6.198.116 8.18.349.913.107 1.646.801 1.578 1.741l-.73 10.155c-.229.068-.478.153-.758.249-1.465.502-3.761 1.288-8.27 1.288-4.51 0-6.807-.786-8.272-1.288a19.33 19.33 0 0 0-.758-.249l-.73-10.155c-.068-.94.663-1.65 1.578-1.741 1.959-.194 3.998-.35 8.181-.35Zm-8.68 17.11.002.037.05.011a7.138 7.138 0 0 1-.052-.047Zm17.31.047.045-.01.002-.033a5.424 5.424 0 0 1-.047.043Z" fill="#845EEE"/><path d="M39.5 20A19.5 19.5 0 1 1 .499 20 19.5 19.5 0 0 1 39.5 20Z" stroke="#000" stroke-opacity=".02"/></g><defs><clipPath id="DEGEN__a"><path fill="#fff" d="M0 0h40v40H0z"/></clipPath></defs></svg>