<svg viewBox="0 0 40 40" xmlns="http://www.w3.org/2000/svg">
  <g fill="none">
    <path d="M20 40C8.954 40 0 31.046 0 20S8.954 0 20 0s20 8.954 20 20-8.954 20-20 20z" fill="#06C"/>
    <circle stroke-opacity=".02" stroke="#000" cx="20" cy="20" r="19.5"/>
    <circle stroke-opacity=".02" stroke="#000" cx="20" cy="20" r="19.5"/>
    <path d="M10.0441 15.4391h13.6823s4.7226-.0428 1.4565 5.8675c0 0-2.3834 4.6254-8.2977 4.5397l3.1911-7.8966c.1302-.3229-.034-.6871-.3667-.8135a.6644.6644 0 00-.2238-.043l-4.1895-.0694L10 29.5295s1.7654.1713 2.7364.0857L12.2068 30.9h2.5025c.1406 0 .2665-.0847.316-.2124l.4476-1.158 1.0593-.0858-.618 1.4562h2.4364c.1813 0 .344-.1078.4104-.2715l.685-1.6986s7.415-1.1992 10.7693-7.0238c0 0 4.5019-6.7668-.7944-9.1651a10.493 10.493 0 00-3.2661-.8566l.6232-1.4784c.0633-.1507-.0111-.3227-.1664-.3841A.3128.3128 0 0026.4964 10h-2.2845l-.7062 1.7988h-.971l.5482-1.397c.06-.153-.0193-.3243-.177-.3824A.3148.3148 0 0022.797 10h-2.2951l-.7062 1.7988h-7.1315c-.3913-.0012-.751.2083-.934.5439l-1.686 3.0964z" fill="#FFF"/>
  </g>
</svg>
