<svg width="40" height="40" viewBox="0 0 40 40" fill="none" xmlns="http://www.w3.org/2000/svg"><g clip-path="url(#EGLD__a)"><path d="M20 40c11.046 0 20-8.954 20-20S31.046 0 20 0 0 8.954 0 20s8.954 20 20 20Z" fill="#181B1E"/><path d="m21.429 20 10-5.353-1.717-3.218-9.338 3.5a1.009 1.009 0 0 1-.748 0l-9.338-3.5-1.717 3.228 10 5.343-10 5.343 1.717 3.228 9.338-3.5a1.009 1.009 0 0 1 .748 0l9.338 3.5 1.717-3.246-10-5.325Z" fill="#23F7DD"/><path d="M39.167 20c0 10.585-8.582 19.167-19.167 19.167S.833 30.585.833 20 9.415.833 20 .833 39.167 9.415 39.167 20Z" stroke="#000" stroke-opacity=".02" stroke-width="1.667"/></g><defs><clipPath id="EGLD__a"><path fill="#fff" d="M0 0h40v40H0z"/></clipPath></defs></svg>