<svg width="40" height="40" viewBox="0 0 40 40" fill="none" xmlns="http://www.w3.org/2000/svg">
<g clip-path="url(#clip0_3390_253)">
<path fill-rule="evenodd" clip-rule="evenodd" d="M20 0C31.0465 0 40 8.95353 40 20C40 31.0465 31.0465 40 20 40C8.95353 40 0 31.0465 0 20C0 8.95353 8.95353 0 20 0Z" fill="#2B5EBA"/>
<path d="M20.2221 8.65369C21.6007 8.33584 23.0786 9.54655 22.9593 10.9744C23.0193 12.2637 21.7393 13.3937 20.46 13.2251C20.1514 13.1986 19.8515 13.1093 19.5786 12.9627C19.3058 12.816 19.0659 12.6151 18.8736 12.3723C18.6109 12.0452 18.4417 11.653 18.3841 11.2374C18.3265 10.8219 18.3826 10.3985 18.5464 10.0123C18.8236 9.31798 19.4979 8.80227 20.2321 8.65369H20.2221ZM11.2271 11.0337C12.1157 10.808 13.0572 10.9376 13.8516 11.3951C14.646 11.8526 15.2307 12.6019 15.4814 13.4837C15.7886 14.2766 16.1557 15.0901 16.7314 15.7344C17.1871 16.2308 17.9014 16.2901 18.5264 16.3294C18.9429 16.3594 19.3393 16.2401 19.7164 16.0916C20.5893 15.8237 21.5707 16.6173 21.4714 17.5201C21.4714 18.2737 20.7571 18.908 20.0143 18.8487C19.5179 18.8487 19.0614 18.5216 18.8236 18.0951C18.3771 17.4308 17.8021 16.7066 16.9493 16.6073C16.1724 16.4741 15.3732 16.6032 14.6779 16.9744C14.2321 17.1823 13.835 17.5001 13.3593 17.6687C12.7987 17.883 12.1924 17.9499 11.5986 17.8631C11.0047 17.7763 10.443 17.5387 9.96714 17.173C9.27041 16.6303 8.80596 15.8431 8.66785 14.9708C8.53012 14.1395 8.69945 13.2865 9.14428 12.5708C9.62467 11.8186 10.3667 11.271 11.2271 11.0337ZM25.885 15.1994C26.4938 15.0877 27.1187 15.0971 27.724 15.227C28.3292 15.357 28.9028 15.6049 29.4122 15.9567C29.9215 16.3085 30.3565 16.7572 30.6923 17.2772C31.0281 17.7972 31.2582 18.3783 31.3693 18.9873C31.4979 19.9101 31.4293 20.8723 31.0321 21.7251C30.7537 22.3552 30.3404 22.9166 29.8215 23.3697C29.3026 23.8228 28.6906 24.1566 28.0287 24.3476C27.3668 24.5385 26.6711 24.582 25.9906 24.475C25.3101 24.3679 24.6613 24.1129 24.09 23.728C23.3106 23.205 22.7053 22.461 22.3516 21.5916C21.9979 20.7222 21.9119 19.767 22.1048 18.8484C22.2977 17.9298 22.7606 17.0898 23.4341 16.4361C24.1076 15.7824 24.9611 15.3448 25.885 15.1794V15.1994ZM19.6964 20.6337C20.0143 20.5837 20.3507 20.5744 20.6486 20.7337C20.9028 20.8611 21.1137 21.0609 21.2547 21.3078C21.3958 21.5547 21.4607 21.8378 21.4414 22.1216C21.3729 22.8951 20.6086 23.5101 19.8357 23.3808C19.0714 23.2123 18.2186 23.0237 17.475 23.3708C16.9946 23.6554 16.58 24.0385 16.2587 24.4951C15.9373 24.9517 15.7165 25.4712 15.6107 26.0194C15.4936 26.6094 15.226 27.1591 14.834 27.6152C14.4419 28.0714 13.9386 28.4184 13.3729 28.6228C12.8072 28.8272 12.1983 28.8819 11.6052 28.7817C11.0121 28.6815 10.455 28.4297 9.98785 28.0508C9.51274 27.6664 9.14655 27.1643 8.92571 26.5944C8.62274 25.801 8.61761 24.9246 8.91127 24.1277C9.20493 23.3307 9.77748 22.6673 10.5229 22.2601C11.0067 21.9988 11.5455 21.8554 12.0952 21.8418C12.645 21.8281 13.1902 21.9445 13.6864 22.1816C14.5493 22.6173 15.4614 22.9844 16.4236 23.0737C17.1179 23.1237 17.6636 22.6273 18.1693 22.2208C18.6257 21.8637 18.715 21.2187 19.1807 20.8723C19.3293 20.753 19.5079 20.6737 19.6964 20.6337ZM20.4607 26.5151C21.7493 26.3566 23.0193 27.4773 22.9593 28.7766C22.9758 29.3194 22.7982 29.8503 22.4583 30.2739C22.1184 30.6974 21.6385 30.9858 21.105 31.0873C20.1829 31.2858 19.1507 30.8294 18.685 30.0058C18.3939 29.5098 18.2964 28.9238 18.4113 28.3602C18.5261 27.7967 18.8452 27.2955 19.3071 26.953C19.6444 26.7048 20.043 26.5534 20.46 26.5151H20.4607Z" fill="white"/>
<path d="M39.5 20C39.5 23.8567 38.3563 27.6269 36.2137 30.8336C34.071 34.0404 31.0255 36.5397 27.4623 38.0156C23.8992 39.4916 19.9784 39.8777 16.1957 39.1253C12.4131 38.3729 8.93855 36.5157 6.21143 33.7886C3.4843 31.0615 1.62711 27.5869 0.874696 23.8043C0.122284 20.0216 0.508449 16.1008 1.98436 12.5377C3.46027 8.97451 5.95963 5.92903 9.16639 3.78634C12.3731 1.64365 16.1433 0.5 20 0.5C25.1717 0.5 30.1316 2.55446 33.7886 6.21142C37.4455 9.86837 39.5 14.8283 39.5 20Z" stroke="black" stroke-opacity="0.02"/>
</g>
<defs>
<clipPath id="clip0_3390_253">
<rect width="40" height="40" fill="white"/>
</clipPath>
</defs>
</svg>
