<svg width="40" height="40" viewBox="0 0 40 40" fill="none" xmlns="http://www.w3.org/2000/svg">
<path d="M20 40C31 40 40 31 40 20C40 9 31 0 20 0C9 0 0 9 0 20C0 31 9 40 20 40Z" fill="url(#paint0_linear_2354_4450)"/>
<path d="M11.1167 13.1548C11.3665 12.6947 11.7239 12.298 12.1602 11.9969L19.4828 7L11.9771 19.1761C11.9771 19.1761 11.3181 18.0894 11.0618 17.5371C10.7427 16.8468 10.5823 16.097 10.5919 15.3401C10.6013 14.5832 10.7804 13.8375 11.1167 13.1548ZM8.06865 21.5365C8.14984 22.6984 8.48595 23.8299 9.05437 24.8547C9.62279 25.8795 10.4103 26.7739 11.3638 27.4776L19.5011 33C19.5011 33 14.4119 25.8743 10.1007 18.7485C9.66444 17.9988 9.37281 17.1777 9.24027 16.3258C9.18535 15.9387 9.18535 15.546 9.24027 15.1589C9.12128 15.3638 8.9016 15.7824 8.9016 15.7824C8.48037 16.6466 8.19945 17.569 8.06865 18.5169C7.97712 19.5215 7.97712 20.5319 8.06865 21.5365ZM28.8467 22.4984C28.5812 21.9462 27.9314 20.8595 27.9314 20.8595L20.389 33L27.7117 28.0031C28.1485 27.7149 28.5092 27.3304 28.7643 26.8808C29.1015 26.1982 29.2805 25.4519 29.2884 24.6946C29.2963 23.9373 29.133 23.1876 28.8101 22.4984H28.8467ZM31.8673 18.508C31.7843 17.3465 31.4475 16.2157 30.8792 15.1911C30.3109 14.1666 29.5243 13.2719 28.5721 12.5669L20.4165 7.03563C20.4165 7.03563 25.5057 14.1613 29.8169 21.2871C30.2493 22.0386 30.5407 22.8589 30.6773 23.7098C30.7323 24.0969 30.7323 24.4896 30.6773 24.8767C30.7963 24.6718 31.016 24.2621 31.016 24.2621C31.4666 23.3966 31.7755 22.4681 31.9314 21.5097C32.0229 20.5023 32.0229 19.4889 31.9314 18.4813L31.8673 18.508Z" fill="white"/>
<path d="M39.5 20C39.5 23.8567 38.3563 27.6269 36.2137 30.8336C34.071 34.0404 31.0255 36.5397 27.4623 38.0156C23.8992 39.4916 19.9784 39.8777 16.1957 39.1253C12.4131 38.3729 8.93855 36.5157 6.21143 33.7886C3.4843 31.0615 1.62711 27.5869 0.874696 23.8043C0.122284 20.0216 0.508449 16.1008 1.98436 12.5377C3.46027 8.97451 5.95963 5.92903 9.16639 3.78634C12.3731 1.64365 16.1433 0.5 20 0.5C25.1717 0.5 30.1316 2.55446 33.7886 6.21142C37.4455 9.86837 39.5 14.8283 39.5 20Z" stroke="black" stroke-opacity="0.02"/>
<defs>
<linearGradient id="paint0_linear_2354_4450" x1="20" y1="0" x2="20" y2="40" gradientUnits="userSpaceOnUse">
<stop stop-color="#513EFF"/>
<stop offset="0.18" stop-color="#5157FF"/>
<stop offset="0.57" stop-color="#5298FF"/>
<stop offset="1" stop-color="#52E5FF"/>
</linearGradient>
</defs>
</svg>
