<svg viewBox="0 0 40 40" xmlns="http://www.w3.org/2000/svg">
  <g fill="none">
    <path d="M20 40C8.954 40 0 31.046 0 20S8.954 0 20 0s20 8.954 20 20-8.954 20-20 20z" fill="#111A44"/>
    <path d="M29.9535 28.461l-3.093-14.2735c-.0233-.0703-.0465-.1406-.093-.1875L20.372 5.1875C20.279 5.0703 20.1395 5 20 5c-.1395 0-.279.0703-.372.1875L13.2325 14c-.0466.0469-.0698.1172-.093.1875l-3.093 14.25v.211c0 .0234.0232.0703.0232.0937.0232.0703.093.1406.1628.1875h.0232l9.4884 6c.0698.0469.1628.0703.2558.0703.093 0 .1628-.0234.2558-.0703l9.4884-6h.0232c.0698-.0469.1163-.1172.1628-.1875.0233-.0235.0233-.0703.0233-.0938.0232-.0468.0232-.1171 0-.1875zm-18.9302-.1407l.5814-2.6953 2.0697-9.539 1.186 3.75.3954 1.2187v-.0235l1.9302 6.1876.5582 1.7578h.0232l1.3954 4.453-8.1395-5.1093zM20 33.0078L14.1163 14.375 20 6.2422l5.8837 8.1328-1.372 4.3594-.3722 1.1953-2.5581 8.1328h-.0233L21.2558 29h.0233L20 33.0078zM27.8837 29l-7.0465 4.4531L22.2326 29l.3023-.9375 2.2093-7.0313v.0235l.3953-1.2422 1.186-3.75 2.6512 12.2344-1.093.7031z" fill="#FFF"/>
    <circle stroke-opacity=".02" stroke="#000" cx="20" cy="20" r="19.5"/>
    <circle stroke-opacity=".02" stroke="#000" cx="20" cy="20" r="19.5"/>
  </g>
</svg>
