<svg width="40" height="40" viewBox="0 0 40 40" fill="none" xmlns="http://www.w3.org/2000/svg"><g clip-path="url(#ETH__a)"><circle cx="20" cy="20" r="20" fill="#ECEFF0"/><g clip-path="url(#ETH__b)"><path d="m19.992 4-.215.73v21.158l.215.214 9.821-5.805L19.992 4Z" fill="#343434"/><path d="M19.992 4 10.17 20.297l9.822 5.805V4Z" fill="#8C8C8C"/><path d="m19.992 27.962-.121.147v7.538l.12.353 9.828-13.84-9.827 5.802Z" fill="#3C3C3B"/><path d="M19.992 36v-8.038l-9.822-5.803L19.992 36Z" fill="#8C8C8C"/><path d="m19.992 26.102 9.821-5.805-9.821-4.465v10.27Z" fill="#141414"/><path d="m10.17 20.297 9.822 5.805v-10.27l-9.822 4.465Z" fill="#393939"/></g><circle cx="20" cy="20" r="19.167" stroke="#000" stroke-opacity=".02" stroke-width="1.667"/></g><defs><clipPath id="ETH__a"><rect width="40" height="40" rx="20" fill="#fff"/></clipPath><clipPath id="ETH__b"><path fill="#fff" transform="translate(10.17 4)" d="M0 0h19.649v32H0z"/></clipPath></defs></svg>