<svg width="40" height="40" viewBox="0 0 40 40" fill="none" xmlns="http://www.w3.org/2000/svg">
<g clip-path="url(#clip0_2615_16628)">
<path d="M20 40C31 40 40 31 40 20C40 9 31 0 20 0C9 0 0 9 0 20C0 31 9 40 20 40Z" fill="#0E2028"/>
<path d="M22.7375 7.52386L8.54292 13.8437C7.23629 14.4254 6.64865 15.9563 7.2304 17.2629C7.81215 18.5696 9.343 19.1572 10.6496 18.5754L24.8442 12.2556C26.1508 11.6739 26.7385 10.143 26.1567 8.83638C25.575 7.52974 24.0441 6.94211 22.7375 7.52386Z" fill="#37BEC1"/>
<path d="M18.8 17.7812L9.33687 21.9944C8.03023 22.5762 7.4426 24.107 8.02435 25.4137C8.6061 26.7203 10.1369 27.308 11.4436 26.7262L20.9067 22.5129C22.2134 21.9312 22.801 20.4003 22.2193 19.0937C21.6375 17.7871 20.1067 17.1994 18.8 17.7812Z" fill="#FBB144"/>
<path d="M29.0568 21.7184L14.8623 28.0383C13.5556 28.62 12.968 30.1509 13.5497 31.4575C14.1315 32.7641 15.6623 33.3518 16.969 32.77L31.1635 26.4502C32.4702 25.8684 33.0578 24.3376 32.4761 23.031C31.8943 21.7243 30.3635 21.1367 29.0568 21.7184Z" fill="#E4615E"/>
<path d="M39.5 20C39.5 23.8567 38.3563 27.6269 36.2137 30.8336C34.071 34.0404 31.0255 36.5397 27.4623 38.0156C23.8992 39.4916 19.9784 39.8777 16.1957 39.1253C12.4131 38.3729 8.93855 36.5157 6.21143 33.7886C3.4843 31.0615 1.62711 27.5869 0.874696 23.8043C0.122284 20.0216 0.508449 16.1008 1.98436 12.5377C3.46027 8.97451 5.95963 5.92903 9.16639 3.78634C12.3731 1.64365 16.1433 0.5 20 0.5C25.1717 0.5 30.1316 2.55446 33.7886 6.21142C37.4455 9.86837 39.5 14.8283 39.5 20Z" stroke="black" stroke-opacity="0.02"/>
</g>
<defs>
<clipPath id="clip0_2615_16628">
<rect width="40" height="40" fill="white"/>
</clipPath>
</defs>
</svg>
