<svg width="40" height="40" viewBox="0 0 40 40" fill="none" xmlns="http://www.w3.org/2000/svg">
<g clip-path="url(#clip0_1287_3994)">
<path fill-rule="evenodd" clip-rule="evenodd" d="M20 0C31.0465 0 40 8.95353 40 20C40 31.0465 31.0465 40 20 40C8.95353 40 0 31.0465 0 20C0 8.95353 8.95353 0 20 0Z" fill="#181B1E"/>
<path d="M39.5 20C39.5 23.8567 38.3563 27.6269 36.2137 30.8336C34.071 34.0404 31.0255 36.5397 27.4623 38.0156C23.8992 39.4916 19.9784 39.8777 16.1957 39.1253C12.4131 38.3729 8.93855 36.5157 6.21143 33.7886C3.4843 31.0615 1.62711 27.5869 0.874696 23.8043C0.122284 20.0216 0.508449 16.1008 1.98436 12.5377C3.46027 8.97451 5.95963 5.92903 9.16639 3.78634C12.3731 1.64365 16.1433 0.5 20 0.5C25.1717 0.5 30.1316 2.55446 33.7886 6.21142C37.4455 9.86838 39.5 14.8283 39.5 20Z" stroke="black" stroke-opacity="0.02"/>
<path fill-rule="evenodd" clip-rule="evenodd" d="M20.117 9.00023C16.4282 9.00226 13.3881 9.01221 13.3612 9.02235C13.3343 9.03252 13.3123 9.06402 13.3123 9.09233C13.3123 9.12065 13.337 9.16657 13.3671 9.19439C13.3972 9.22217 13.496 9.3052 13.5866 9.37886C13.6771 9.45252 13.8204 9.57306 13.905 9.64672C13.9895 9.72038 14.1373 9.84091 14.2334 9.91457C14.3295 9.98823 14.5619 10.1758 14.7499 10.3314C14.9379 10.4869 15.1181 10.6372 15.1504 10.6652C15.1826 10.6932 15.2977 10.7897 15.406 10.8797C15.5144 10.9697 15.6695 11.0951 15.7507 11.1582C15.832 11.2213 15.9633 11.3271 16.0426 11.3932C16.1219 11.4593 16.3356 11.6358 16.5174 11.7854L16.8482 12.0574H21.8627C26.3691 12.0574 26.8833 12.0513 26.9386 11.9973C26.9921 11.9449 27 11.7627 27 10.579C27 9.62958 26.9865 9.19561 26.955 9.13718C26.9303 9.09122 26.8907 9.04079 26.867 9.0251C26.8434 9.00945 23.8059 8.99824 20.117 9.00023ZM19.244 18.6442C14.863 18.6429 13.1931 18.6541 13.1363 18.6853C13.0933 18.7089 13.0451 18.7469 13.0293 18.7697C13.0135 18.7925 13.0004 21.5243 13 24.8402C12.9995 29.6156 13.0096 30.8829 13.0485 30.9349C13.0945 30.9965 13.5232 31.0005 19.9976 31C24.7964 30.9995 26.9102 30.987 26.939 30.9589C26.9662 30.9323 26.9844 30.4369 26.9918 29.514C27.0031 28.1165 27.0027 28.1093 26.919 28.0427C26.8399 27.9797 26.5407 27.9757 21.8769 27.9757C17.0538 27.9757 16.9163 27.9737 16.8266 27.9026L16.7342 27.8294L16.7235 24.8585L16.7128 21.8875L16.828 21.7747L16.9433 21.662H21.1328H25.3224L25.3805 21.5258C25.4289 21.4126 25.4367 21.1722 25.4274 20.0949C25.417 18.9045 25.4104 18.7938 25.3448 18.723C25.2739 18.6464 25.2364 18.6459 19.244 18.6442Z" fill="#FBFBFB"/>
</g>
<defs>
<clipPath id="clip0_1287_3994">
<rect width="40" height="40" fill="white"/>
</clipPath>
</defs>
</svg>
