<svg width="40" height="40" viewBox="0 0 40 40" fill="none" xmlns="http://www.w3.org/2000/svg">
<g clip-path="url(#clip0_3103_708)">
<path d="M20 40C31 40 40 31 40 20C40 9 31 0 20 0C9 0 0 9 0 20C0 31 9 40 20 40Z" fill="#A25CF8"/>
<path d="M31.0312 13.2119C30.7686 12.5712 30.456 11.9521 30.0963 11.3604C29.7862 10.8594 29.4265 10.3818 29.0333 10.0541C29.0131 10.0374 28.9886 10.0267 28.9627 10.0231C28.9367 10.0195 28.9102 10.0232 28.8862 10.0338L27.4672 10.649C27.4462 10.6582 27.4277 10.6721 27.4131 10.6897C27.3985 10.7074 27.3883 10.7282 27.3832 10.7505C27.3781 10.7728 27.3783 10.796 27.3838 10.8182C27.3892 10.8404 27.3999 10.861 27.4147 10.8784C27.6958 11.2075 28.3562 11.9923 28.5782 12.3506C28.8542 12.7962 29.1301 13.3452 29.377 13.9371C31.147 18.1936 30.3985 28.0651 24.3254 27.8089C22.9231 27.7499 21.7523 27.0458 20.8152 25.9384C19.8687 24.82 19.1923 23.3194 18.8297 21.7926C18.4642 20.2577 18.4395 18.7935 18.7008 17.7662C18.8319 17.2551 19.0176 16.9107 19.2105 16.7068C19.2894 16.6171 19.387 16.5458 19.4965 16.498C19.6059 16.4502 19.7246 16.427 19.844 16.4301C20.4614 16.4301 20.8444 16.6631 21.1145 17.0206C21.4145 17.4174 21.6227 18.0385 21.6882 18.854C21.8178 20.458 21.2718 22.7842 20.4978 24.2062C20.4843 24.2308 20.478 24.2587 20.4798 24.2867C20.4816 24.3147 20.4914 24.3416 20.508 24.3642L21.4603 25.6537C21.4745 25.6734 21.4934 25.6891 21.5153 25.6995C21.5373 25.7098 21.5615 25.7144 21.5857 25.7128C21.6098 25.7112 21.6332 25.7034 21.6536 25.6903C21.674 25.6772 21.6906 25.659 21.7021 25.6377C22.6406 23.8771 23.6388 20.656 23.4808 18.7011C23.3993 17.6839 23.1255 16.6697 22.5365 15.8899C21.9176 15.0708 21.0046 14.5844 19.844 14.5844C19.0714 14.5844 18.4154 14.896 17.9196 15.421C17.4427 15.9255 17.1405 16.5939 16.9607 17.2995C16.6017 18.7069 16.6694 20.4958 17.0816 22.2302C17.4966 23.974 18.2829 25.7607 19.4566 27.1485C20.6398 28.5472 22.246 29.5687 24.2512 29.6531C31.8248 29.9735 33.2891 18.6406 31.0312 13.2126V13.2119ZM10.5403 26.7822C8.91518 24.4552 8.21767 21.7503 8.00069 19.5719C7.99764 19.5409 8.00472 19.5097 8.02087 19.4831C8.03701 19.4564 8.06135 19.4357 8.09025 19.4241L9.59377 18.811C9.61486 18.8025 9.63762 18.7991 9.66026 18.8009C9.68291 18.8027 9.70483 18.8098 9.72429 18.8215C9.74376 18.8332 9.76025 18.8493 9.77247 18.8684C9.78469 18.8876 9.79231 18.9093 9.79473 18.9319C10.0102 20.9953 10.6634 23.8181 12.0067 25.7418C12.6882 26.7174 13.508 27.4062 14.4881 27.6989C15.439 27.9829 16.7765 27.7936 18.3717 27.0684C18.4015 27.0547 18.4351 27.0513 18.467 27.0588C18.4989 27.0663 18.5274 27.0843 18.5479 27.1099L19.6357 28.4802C19.694 28.5537 19.6685 28.6622 19.5826 28.7008C17.8198 29.6582 15.4244 29.8636 13.9791 29.4325C12.5003 28.9906 11.3776 27.9814 10.5403 26.7822V26.7822Z" fill="white"/>
<path d="M39.5 20C39.5 23.8567 38.3563 27.6269 36.2137 30.8336C34.071 34.0404 31.0255 36.5397 27.4623 38.0156C23.8992 39.4916 19.9784 39.8777 16.1957 39.1253C12.4131 38.3729 8.93855 36.5157 6.21143 33.7886C3.4843 31.0615 1.62711 27.5869 0.874696 23.8043C0.122284 20.0216 0.508449 16.1008 1.98436 12.5377C3.46027 8.97451 5.95963 5.92903 9.16639 3.78634C12.3731 1.64365 16.1433 0.5 20 0.5C25.1717 0.5 30.1316 2.55446 33.7886 6.21142C37.4455 9.86837 39.5 14.8283 39.5 20Z" stroke="black" stroke-opacity="0.02"/>
</g>
<defs>
<clipPath id="clip0_3103_708">
<rect width="40" height="40" fill="white"/>
</clipPath>
</defs>
</svg>
