<svg width="40" height="40" viewBox="0 0 40 40" fill="none" xmlns="http://www.w3.org/2000/svg">
<g clip-path="url(#clip0_1845_1087)">
<path d="M20 40C23.9556 40 27.8224 38.827 31.1114 36.6294C34.4004 34.4318 36.9638 31.3082 38.4776 27.6537C39.9913 23.9992 40.3874 19.9778 39.6157 16.0982C38.844 12.2186 36.9392 8.65492 34.1421 5.85787C31.3451 3.06082 27.7814 1.15601 23.9018 0.384303C20.0222 -0.387401 16.0009 0.00866568 12.3463 1.52242C8.69181 3.03617 5.56824 5.59962 3.37061 8.8886C1.17298 12.1776 0 16.0444 0 20C0 25.3043 2.10714 30.3914 5.85786 34.1421C9.60859 37.8929 14.6957 40 20 40Z" fill="#DAEFEF"/>
<path d="M33.5404 20.874C33.7925 21.2324 33.8935 21.7418 34.5663 21.5788C34.8702 21.5059 34.975 21.9151 35.0559 22.1892C35.1527 22.5123 35.0158 22.7267 34.7423 22.9035C34.2594 23.2171 34.3324 24.0582 34.8681 24.2973C35.211 24.4501 35.32 24.6862 35.2744 25.0345C35.2256 25.3986 35.0823 25.643 34.6669 25.7032C34.0805 25.7895 33.8226 26.5754 34.2313 27.0334C34.5159 27.3524 34.4361 27.6341 34.2385 27.9345C34.0482 28.2235 33.7904 28.4064 33.4615 28.2024C33.0423 27.9432 32.9176 28.3083 32.7337 28.5116C32.5675 28.6938 32.2081 28.8098 32.4796 29.1958C32.7193 29.5367 32.5507 29.8191 32.2389 30.0408C31.9358 30.257 31.6665 30.3179 31.3437 30.0438C30.8987 29.6651 30.1215 30.0032 30.0585 30.6018C30.0193 30.9833 29.8107 31.1445 29.4727 31.2051C29.1461 31.2647 28.8734 31.2309 28.6852 30.8913C28.3639 30.3136 27.5912 30.2837 27.263 30.8344C27.069 31.1607 26.807 31.216 26.4737 31.1393C26.1432 31.0641 25.9234 30.9113 25.8881 30.5295C25.828 29.8678 25.1326 29.5376 24.5966 29.9143C24.2819 30.136 24.0317 30.0598 23.7588 29.8514C23.4817 29.64 23.3685 29.4024 23.4886 29.05C23.701 28.4335 23.1916 27.8728 22.5475 27.9749C21.935 28.072 21.7772 27.6643 21.7072 27.1771C22.466 27.009 23.0347 26.464 23.7222 26.1639C24.2201 25.9466 24.2892 25.689 24.1367 25.1769C23.6379 23.5122 24.3532 21.5657 25.7282 20.6661C27.5905 19.4473 29.6593 19.6642 31.2173 21.2955C31.5946 21.6912 31.8992 21.7071 32.3264 21.4523C32.7114 21.2238 33.0748 20.9388 33.539 20.8725L33.5404 20.874ZM25.1972 25.2123C25.1483 25.6394 24.2986 25.5346 24.5576 26.1466C24.7257 26.5445 25.048 26.8429 25.3545 27.1424C25.4553 27.2408 25.5692 27.3294 25.6832 27.4123C27.0614 28.4163 28.9487 28.4943 30.3565 27.5368C32.1371 26.326 32.3714 25.0283 32.1582 23.22C32.0295 22.1284 31.7307 21.9867 30.7394 22.2337C30.7164 22.2389 30.6921 22.2354 30.6678 22.2348C29.9503 21.3927 29.0692 20.9234 27.9322 20.9736C26.282 21.0474 24.4377 22.7078 25.1958 25.2122L25.1972 25.2123Z" fill="#49463E"/>
<path d="M33.5404 20.874C33.0762 20.9403 32.7129 21.2252 32.3279 21.4538C31.9007 21.7085 31.596 21.6927 31.2188 21.297C29.6622 19.6643 27.5921 19.4473 25.7297 20.6676C24.3547 21.5671 23.6394 23.5137 24.1382 25.1784C24.2921 25.6905 24.2215 25.9481 23.7237 26.1653C23.0362 26.4655 22.466 27.0104 21.7087 27.1786C21.6638 27.0199 21.7425 26.9029 21.841 26.795C22.3277 26.2638 22.1494 25.5735 21.4695 25.3782C21.2248 25.308 21.0297 25.2002 21.0022 24.9145C21.0125 24.4836 20.9887 24.0978 21.5853 23.9445C21.9787 23.8436 21.9946 22.8772 21.6389 22.6009C21.3478 22.3734 21.1806 22.1789 21.3265 21.767C21.4708 21.3623 21.7227 21.3095 22.0896 21.2983C22.6443 21.28 23.0545 20.598 22.8216 20.0911C22.6624 19.7436 22.6691 19.4602 22.9407 19.1831C23.2094 18.9088 23.4627 18.8561 23.8243 19.0681C24.241 19.3115 25.0078 18.8085 24.9316 18.3412C24.8577 17.894 25.0435 17.6735 25.3986 17.4973C25.7421 17.3279 25.9663 17.4736 26.2097 17.7171C26.656 18.1617 27.4278 17.9868 27.6297 17.3915C27.739 17.0719 27.9453 17.008 28.2301 17.0177C28.5178 17.0274 28.7815 17.0194 28.9175 17.3807C29.1762 18.0629 29.8565 18.2439 30.4002 17.787C30.6414 17.5851 30.8479 17.4526 31.1586 17.6376C31.4707 17.824 31.6662 18.0307 31.5891 18.4413C31.5121 18.8491 32.2037 19.5158 32.5534 19.3265C33.0801 19.0426 33.3921 19.2907 33.7478 19.5713C33.8437 19.8744 33.871 20.1715 33.5808 20.388C33.3722 20.5449 33.4687 20.7047 33.5377 20.8739L33.5404 20.874Z" fill="#686258"/>
<path d="M33.7504 19.57C33.3947 19.2894 33.0813 19.0413 32.556 19.3253C32.2078 19.5146 31.5147 18.8478 31.5918 18.44C31.6689 18.0294 31.4733 17.8228 31.1612 17.6363C30.8506 17.4499 30.644 17.5824 30.4028 17.7858C29.8592 18.2426 29.1789 18.0616 28.9201 17.3794C28.7827 17.0181 28.5189 17.0276 28.2327 17.0164C27.9479 17.0068 27.7416 17.0692 27.6323 17.3902C27.4305 17.9855 26.6586 18.1605 26.2123 17.7159C25.9689 17.4723 25.7447 17.3266 25.4012 17.496C25.0447 17.6722 24.8604 17.8927 24.9342 18.3399C25.0104 18.8072 24.2436 19.3117 23.8269 19.0668C23.4653 18.8548 23.212 18.9075 22.9433 19.1818C22.6718 19.4589 22.665 19.7438 22.8243 20.0899C23.0571 20.5967 22.6469 21.2801 22.0922 21.297C21.7239 21.3082 21.4734 21.361 21.3291 21.7657C21.1818 22.1776 21.3505 22.3721 21.6415 22.5996C21.9973 22.8759 21.9799 23.8423 21.588 23.9432C20.9913 24.098 21.0151 24.4824 21.0048 24.9132C19.4834 24.8669 17.9621 24.8206 16.4407 24.7742C16.0805 23.1214 15.3221 21.7141 13.9329 20.6912C13.8428 20.6246 13.7941 20.5046 13.7247 20.4098C14.0273 19.9745 14.2249 19.4364 14.8269 19.2975C14.9425 19.6741 14.5594 20.2421 15.0979 20.424C15.7046 20.6304 16.3734 20.7509 16.978 20.3228L16.9692 20.3311C17.5039 20.1334 17.1387 19.6506 17.2881 19.3304C17.4167 19.3435 17.5439 19.358 17.6724 19.3711C17.69 19.6551 17.6817 19.9428 17.731 20.2204C18.0069 21.801 18.2772 22.0567 19.6896 22.1105C19.7261 22.319 19.7323 22.5397 19.8065 22.7334C19.8847 22.9358 20.051 23.1102 20.2906 23.0916C20.523 23.0742 20.5712 22.8562 20.6015 22.6679C20.8087 21.3652 21.4297 20.2528 22.1725 19.1935C22.9722 18.3332 23.8816 17.6173 24.9257 17.075C25.1265 17.0039 25.3286 16.9357 25.528 16.8631C28.5938 15.7518 32.2783 16.7979 34.0551 19.2866L33.7505 19.5672L33.7504 19.57ZM18.2025 23.2064C17.8475 23.198 17.4925 23.1895 17.1375 23.181C16.8842 23.175 16.7149 23.3056 16.6892 23.5413C16.662 23.7841 16.8194 23.9683 17.0583 23.9812C17.7907 24.0173 18.5236 24.0348 19.257 24.0337C19.499 24.0323 19.6451 23.8524 19.631 23.6029C19.6171 23.3448 19.4392 23.2388 19.1973 23.2316C18.8667 23.2209 18.5346 23.2158 18.2039 23.2079L18.2025 23.2064Z" fill="#49463E"/>
<path d="M7.77722 21.8275C7.55694 21.4556 7.28737 21.1083 7.2163 20.6654C7.7629 20.1471 8.09915 19.5006 8.34931 18.8005C8.41833 18.7892 8.48731 18.7794 8.55632 18.7682C8.69602 18.9162 8.83571 19.0642 8.97544 19.2107C9.19433 19.4609 9.11254 20.0075 9.67462 19.9206C9.82542 20.1433 10.0497 20.1673 10.2971 20.1847C13.1997 20.3857 14.9478 21.8582 15.7211 24.7397C14.795 24.7764 14.4124 25.1482 14.8444 25.5896C15.5392 26.3023 15.5013 26.6308 14.6364 27.0441C14.4683 27.1246 14.2832 27.5585 14.6374 27.8419C14.8454 28.0087 14.7715 28.2232 14.6422 28.4192C14.5159 28.611 14.3732 28.7078 14.1119 28.6744C13.6151 28.6096 13.3315 28.9093 13.4183 29.4112C13.4637 29.6701 13.3756 29.8212 13.1919 29.9558C13.0054 30.0917 12.8295 30.1391 12.6068 29.9905C12.1232 29.6653 11.8073 29.8225 11.6354 30.3641C11.4774 30.863 11.0138 30.9622 10.6797 30.5575C10.3094 30.1119 9.99301 30.1058 9.61138 30.5535C9.30193 30.9171 8.80649 30.7921 8.69139 30.3339C8.54483 29.7532 8.24577 29.5613 7.70805 29.8879C7.5104 30.0078 7.34817 29.9639 7.1851 29.8354C7.01075 29.6994 6.86226 29.5598 6.93865 29.2996C7.11325 28.705 6.8749 28.4301 6.26616 28.4915C5.9632 28.5229 5.84587 28.3382 5.72932 28.1206C5.50716 27.7071 5.9307 27.6041 6.08235 27.3714C6.56935 27.1295 7.35071 27.1567 7.10459 26.2471C7.36664 26.2491 7.62866 26.2524 7.89072 26.2544L7.9407 26.4404C7.25319 26.8021 7.39539 27.2652 7.78185 27.7557C8.99269 29.2913 11.6144 29.2607 12.7761 27.6944C13.553 26.6473 13.6633 25.5085 13.1211 24.3426C12.9031 23.8719 13.0032 23.6408 13.4455 23.4723C13.5785 23.4211 13.7061 23.3554 13.8309 23.2867C14.0819 23.1495 14.3946 23.0094 14.2884 22.6603C14.1875 22.3285 13.916 22.2418 13.5469 22.2831C13.1032 22.3327 12.7323 22.2064 12.7249 21.6176C12.7182 21.1204 12.3046 20.9244 11.8965 21.2211C11.417 21.5692 11.0884 21.4167 10.8124 20.9775C10.5074 20.4919 10.2033 20.4517 9.96089 20.9486C9.77867 21.3224 9.47067 21.3251 9.19382 21.3428C8.69036 21.3738 8.01567 21.5582 7.77726 21.826L7.77722 21.8275Z" fill="#4A4740"/>
<path d="M7.10464 26.2485C7.35223 27.1568 6.5694 27.1309 6.0824 27.3728C5.88201 27.0672 5.91063 26.6483 5.37235 26.518C5.03771 26.437 4.99424 25.9175 5.3955 25.6678C5.91015 25.3478 5.97922 25.0343 5.55033 24.5815C5.22902 24.2416 5.40794 23.7661 5.87248 23.6855C6.44203 23.5859 6.7044 23.3344 6.4117 22.7559C6.30504 22.5443 6.39182 22.3888 6.52417 22.2444C6.67417 22.0804 6.85829 21.9273 7.0795 22.0801C7.45146 22.3382 7.63067 22.1505 7.77867 21.8304C8.01705 21.5639 8.69178 21.3781 9.19524 21.3471C9.47205 21.3308 9.77865 21.3267 9.9623 20.953C10.2048 20.4546 10.5089 20.4948 10.8138 20.9819C11.0883 21.421 11.417 21.5735 11.8979 21.2254C12.3075 20.9287 12.7196 21.1247 12.7263 21.6219C12.7352 22.2108 13.106 22.3371 13.5483 22.2875C13.9174 22.2461 14.1889 22.3328 14.2898 22.6646C14.3961 23.0124 14.0834 23.1524 13.8323 23.2911C13.7075 23.3597 13.5799 23.4254 13.4469 23.4767C13.0046 23.6451 12.9031 23.8762 13.1225 24.3469C13.6647 25.5142 13.5545 26.6517 12.7775 27.6987C11.6144 29.265 8.9941 29.2956 7.78326 27.76C7.3968 27.2695 7.2546 26.8064 7.94212 26.4447C8.02026 26.5912 8.09404 26.7405 8.17654 26.8843C8.68554 27.7615 9.61254 28.2276 10.5683 28.09C11.5873 27.9424 12.3688 27.2435 12.6269 26.2686C12.8174 25.5484 12.559 24.9135 12.2805 24.2795C12.3565 23.9777 13.0264 23.872 12.5299 23.3717C11.397 22.2318 9.45714 22.1956 8.24173 23.2522C7.3013 24.069 7.00385 25.0703 7.10597 26.2529L7.10464 26.2485Z" fill="#686258"/>
<path d="M29.8667 7.73568C29.7845 8.35961 29.616 8.93852 29.0332 9.29413C28.6829 9.5092 28.7936 9.79399 28.8793 10.1011C29.3805 11.9048 29.6976 13.7428 29.8651 15.6073C29.6026 15.5623 29.3388 15.5159 29.0763 15.471C28.8457 13.6122 28.5373 11.7701 27.9901 9.9739C27.8985 9.67094 27.8402 9.35016 27.3997 9.44421C26.8063 9.40283 26.2112 9.37288 25.6182 9.31719C25.1738 9.27508 25.0214 9.35881 25.1799 9.85958C25.7726 11.7285 26.0832 13.6565 26.3104 15.5998C26.1027 15.6621 25.8936 15.723 25.6858 15.7854C25.4424 13.8017 25.1126 11.8359 24.5326 9.91574C24.3945 9.45986 24.2122 9.23494 23.6997 9.28716C23.1814 9.33925 22.6552 9.30377 22.1324 9.30562C22.2416 8.9917 22.3224 8.66564 22.4684 8.36979C22.646 8.0088 22.8477 7.65842 23.3274 7.60398C25.5132 7.35251 27.6934 7.34008 29.8653 7.73708L29.8667 7.73568Z" fill="#4C4941"/>
<path d="M29.8667 7.73568C27.6949 7.33869 25.5148 7.35117 23.3289 7.60265C22.8492 7.65852 22.6475 8.0089 22.4699 8.36845C22.3239 8.66431 22.243 8.9918 22.1339 9.30429C21.5518 9.38779 20.9698 9.47272 20.3877 9.55623C20.1467 9.51181 19.9283 9.60112 19.7062 9.666L18.8453 9.79155C18.6942 9.52154 18.5401 9.25433 18.3905 8.98293C17.9127 8.11934 17.9838 7.89904 18.9038 7.45981C20.3729 6.75726 21.9653 6.58472 23.5528 6.50086C25.5017 6.39842 27.4476 6.54081 29.3865 6.79762C30.1132 6.89373 30.2157 7.15971 29.8682 7.73435L29.8667 7.73568Z" fill="#FBBB52"/>
<path d="M8.55632 18.7682C8.48731 18.7794 8.41833 18.7892 8.34931 18.8005C7.96276 18.1338 7.25077 18.2674 6.65727 18.11C8.4437 15.5717 11.1295 14.9569 13.9762 14.684C14.424 14.6416 14.8719 14.6008 15.3198 14.5585C15.3124 15.2286 15.3064 15.9002 15.299 16.5703C15.266 16.5695 15.2344 16.5745 15.2027 16.5823C12.9851 16.7815 10.8651 17.3338 8.87172 18.3418C8.68904 18.4349 8.55163 18.5446 8.55632 18.7682Z" fill="#FCBB51"/>
<path d="M25.6873 15.7839C25.895 15.7216 26.1041 15.6607 26.3119 15.5983C27.1051 15.5456 27.897 15.4944 28.6903 15.4417L29.0763 15.4695C29.3388 15.5144 29.6026 15.5608 29.8651 15.6058C31.7662 16.0622 33.3974 16.9705 34.6779 18.4677C34.8326 18.6475 34.9712 18.8413 35.1157 19.0281C35.3046 19.2718 35.3045 19.5167 35.0789 19.7276C34.8328 19.958 34.6031 19.8623 34.3991 19.6455C34.286 19.5253 34.1699 19.408 34.0553 19.2892C32.2786 16.8006 28.5926 15.7544 25.5282 16.8658C25.3289 16.9384 25.1267 17.0066 24.9259 17.0777C24.716 16.8736 24.506 16.6681 24.2961 16.464C24.6601 16.0344 25.2277 16.0179 25.6887 15.784L25.6873 15.7839Z" fill="#F8BA52"/>
<path d="M17.6711 19.3739C17.5425 19.3608 17.4153 19.3464 17.2867 19.3333L17.2772 19.3116C17.2097 18.601 17.4432 17.879 17.1964 17.1756L16.9163 16.9097L16.9595 16.6013L19.5304 16.6627L19.5367 16.3979L16.9673 16.3365C16.9822 15.711 16.9971 15.0869 17.012 14.4614C17.2027 14.453 17.3919 14.4446 17.5826 14.4363C17.859 14.4372 18.134 14.4394 18.4104 14.4403C18.5473 14.4651 18.6842 14.4884 18.8226 14.5132L19.623 15.5406C19.6564 15.7018 19.7511 15.8157 19.8938 15.8951C20.3935 16.6217 20.1361 17.2686 19.6856 17.8981C19.576 18.0516 19.4691 18.2109 19.392 18.3809C19.0535 19.1219 18.5433 19.5537 17.6753 19.374L17.6711 19.3739Z" fill="#FCBB51"/>
<path d="M15.7225 24.7414C14.9491 21.8599 13.2011 20.3874 10.2984 20.1864C10.0511 20.169 9.82678 20.145 9.67598 19.9223C9.94716 19.3616 10.437 19.4793 10.9072 19.522C11.9119 19.6133 12.7973 20.0813 13.7261 20.4142C13.794 20.509 13.8441 20.629 13.9342 20.6956C15.3234 21.7185 16.0805 23.1258 16.442 24.7787C16.4393 24.8932 16.438 25.0092 16.4352 25.1237C16.4305 25.3212 16.3829 25.5149 16.1589 25.5382C15.9033 25.5664 15.7992 25.3692 15.7528 25.1546C15.7244 25.0208 15.7321 24.8806 15.7239 24.7429L15.7225 24.7414Z" fill="#A19D95"/>
<path d="M16.9595 16.6013C16.9456 16.7041 16.9317 16.8069 16.9163 16.9097C16.5242 16.896 16.1324 16.868 15.7398 16.8744C15.5005 16.8787 15.3327 16.8375 15.299 16.5703C15.3064 15.9002 15.3124 15.2286 15.3198 14.5585C15.3431 14.2984 15.3919 14.0474 15.5927 13.856C16.0091 13.6325 16.424 13.4103 16.8404 13.1868C17.1347 13.5805 16.9232 14.041 17.0105 14.4613C16.9956 15.0868 16.9807 15.7124 16.9658 16.3365C16.9637 16.4252 16.9616 16.514 16.958 16.6012L16.9595 16.6013Z" fill="#49463E"/>
<path d="M16.8404 13.1868C16.424 13.4103 16.0091 13.6325 15.5927 13.856C15.4141 13.7185 15.4087 13.5165 15.4488 13.3356C15.6207 12.5562 15.267 12.0136 14.692 11.5602C14.7133 11.5062 14.7346 11.4538 14.756 11.3998L14.7486 11.4083C15.1167 10.9888 15.0018 10.4619 15.0721 9.97513C16.1965 10.751 17.0975 11.6491 16.8402 13.1855L16.8404 13.1868Z" fill="#A4A39D"/>
<path d="M18.4091 14.4402C18.1327 14.4393 17.8578 14.4371 17.5814 14.4362C17.9082 12.8628 18.2992 11.3067 18.8453 9.79155C19.1327 9.74971 19.4187 9.70784 19.7062 9.666C19.2032 11.2381 18.7371 12.8196 18.4091 14.4388L18.4091 14.4402Z" fill="#4C4941"/>
<path d="M6.65727 18.11C7.25077 18.2674 7.96419 18.1339 8.34931 18.8005C8.09918 19.4992 7.76293 20.1457 7.2163 20.6654C6.26914 19.8436 6.05361 18.859 6.65727 18.11Z" fill="#FBFBFA"/>
<path d="M14.4697 11.4014C14.3814 10.8408 14.1889 10.2661 14.6632 9.7733C14.8882 10.3086 14.749 10.8624 14.7502 11.4096L14.7576 11.4011C14.6616 11.4017 14.5656 11.4023 14.4697 11.4029L14.4697 11.4014Z" fill="#A4A39D"/>
<path d="M14.7504 11.4082C14.7491 10.8611 14.8884 10.3073 14.6634 9.77196C14.7846 9.67173 14.871 9.71389 14.9353 9.84003C14.9829 9.887 15.0305 9.93397 15.078 9.98094L15.0738 9.97654C15.0035 10.4633 15.1183 10.9901 14.7502 11.4096L14.7504 11.4082Z" fill="#A4A39D"/>
<path d="M14.4697 11.4014C14.5657 11.4009 14.6616 11.4004 14.7576 11.3998C14.7362 11.4537 14.7149 11.5062 14.6936 11.5601C14.6189 11.5068 14.5443 11.4548 14.4697 11.4014Z" fill="#A4A39D"/>
<path d="M25.1972 25.2123C24.4391 22.7092 26.2849 21.0476 27.9337 20.9738C29.0707 20.9235 29.9518 21.3929 30.6693 22.235C31.2736 23.1975 31.4727 24.2177 30.999 25.2835C30.4829 26.4428 29.5788 27.1201 28.2954 27.1826C26.8171 27.2533 25.8281 26.5021 25.1986 25.2138L25.1972 25.2123ZM28.1074 26.0595C29.2069 26.0772 30.1144 25.2022 30.1334 24.1041C30.1518 23.0347 29.2305 22.0889 28.1552 22.0761C27.0684 22.0631 26.1692 22.9526 26.1529 24.055C26.1361 25.1803 26.9749 26.0411 28.1074 26.0581L28.1074 26.0595ZM26.5904 21.8684C26.4037 21.8897 26.2739 21.9883 26.2621 22.1799C26.2546 22.3158 26.3428 22.4024 26.4878 22.3844C26.6444 22.3652 26.7483 22.2717 26.7779 22.1149C26.8056 21.9709 26.7273 21.8946 26.5904 21.8684Z" fill="#F8B84F"/>
<path d="M25.1972 25.2123C25.8267 26.502 26.8156 27.2532 28.2939 27.181C29.5787 27.12 30.4814 26.4426 30.9975 25.2819C31.4726 24.2162 31.2721 23.196 30.6678 22.2334C30.6921 22.234 30.7164 22.2374 30.7394 22.2323C31.7307 21.9852 32.0295 22.127 32.1582 23.2186C32.3714 25.0268 32.1356 26.3231 30.3565 27.5353C28.9487 28.4928 27.0614 28.4163 25.6832 27.4109C25.5691 27.328 25.4552 27.2393 25.3545 27.141C25.0479 26.8429 24.7257 26.543 24.5576 26.1452C24.2986 25.5331 25.1469 25.6379 25.1972 25.2108L25.1972 25.2123Z" fill="#686258"/>
<path d="M19.6201 15.539C19.3533 15.196 19.0864 14.8545 18.821 14.5116C18.8587 14.2561 18.8806 13.9974 18.9381 13.7467C19.2678 12.2965 19.6954 10.8802 20.3888 9.55475C20.9708 9.47125 21.5529 9.38631 22.135 9.30281C22.6578 9.30096 23.184 9.33787 23.7023 9.28435C24.2148 9.23213 24.3971 9.45705 24.5352 9.91293C25.1152 11.8331 25.445 13.7988 25.6884 15.7826C25.2274 16.0151 24.6613 16.0316 24.2972 16.4627C23.0884 16.8835 22.1812 17.6897 21.4338 18.7002C20.5312 19.6727 20.0997 20.887 19.691 22.1118C18.2786 22.058 18.0069 21.8023 17.7323 20.2218C17.6845 19.9442 17.6929 19.6551 17.6738 19.3725C18.5418 19.5522 19.0519 19.1203 19.3904 18.3794C19.469 18.2094 19.5759 18.0501 19.6841 17.8965C20.1331 17.267 20.392 16.6201 19.8923 15.8935C20.3091 15.5339 20.7088 15.2899 21.0239 16.0079C21.0823 16.1425 21.2309 16.219 21.3832 16.1382C21.5834 16.0312 21.5358 15.864 21.4377 15.7141C21.0853 15.1772 20.73 14.6431 20.3688 14.1131C20.2802 13.9835 20.1472 13.9173 20.003 14.017C19.869 14.1112 19.8295 14.265 19.9483 14.3881C20.4988 14.9655 20.1378 15.272 19.6215 15.5404L19.6201 15.539Z" fill="#B8E1DF"/>
<path d="M13.7248 20.4126C12.7961 20.0796 11.9121 19.6116 10.9059 19.5203C10.4358 19.4776 9.94581 19.3599 9.67462 19.9206C9.11254 20.0075 9.19576 19.4609 8.97544 19.2107C8.95682 18.6703 9.30536 18.4122 9.73415 18.2091C11.4652 17.3896 13.317 17.0356 15.1975 16.7955C14.9585 17.1507 14.8505 17.5334 14.8688 17.9692C14.8869 18.4108 14.8418 18.8566 14.8255 19.3002C14.2235 19.4391 14.0259 19.9786 13.7234 20.4125L13.7248 20.4126Z" fill="#FCBB51"/>
<path d="M19.6885 22.1133C20.0972 20.8884 20.5286 19.6756 21.4313 18.7017C21.7908 18.6988 22.0331 18.8708 22.1714 19.1963C21.4286 20.2556 20.8076 21.368 20.6004 22.6707C20.5701 22.859 20.5219 23.077 20.2895 23.0944C20.0499 23.113 19.8836 22.9386 19.8054 22.7362C19.7312 22.5425 19.725 22.3218 19.6885 22.1133Z" fill="#F8BA52"/>
<path d="M22.1712 19.1977C22.0329 18.8707 21.7906 18.7003 21.4311 18.7031C22.1785 17.6926 23.0857 16.885 24.2945 16.4655C24.5045 16.6696 24.7144 16.8752 24.9244 17.0793C23.8802 17.6215 22.9694 18.3374 22.1712 19.1977Z" fill="#F8D08B"/>
<path d="M18.2025 23.2064C18.5332 23.2143 18.8657 23.2194 19.1962 23.2301C19.4381 23.2388 19.6161 23.3433 19.63 23.6014C19.644 23.851 19.498 24.0308 19.2559 24.0322C18.5225 24.0347 17.7896 24.0173 17.0572 23.9797C16.8197 23.9683 16.6608 23.7841 16.6882 23.5398C16.7153 23.3027 16.8831 23.1721 17.1364 23.1796C17.4914 23.188 17.8464 23.1965 18.2014 23.205L18.2025 23.2064Z" fill="#F8B84F"/>
<path d="M14.8271 19.3003C14.8448 18.8567 14.8884 18.4123 14.8703 17.9693C14.8521 17.5335 14.96 17.1508 15.1991 16.7955C15.2008 16.7254 15.2025 16.6538 15.2042 16.5823C15.2359 16.5744 15.2675 16.5694 15.3004 16.5702C15.3342 16.8374 15.5021 16.8801 15.7414 16.8758C16.1326 16.8679 16.5258 16.8974 16.9179 16.911C17.0118 16.9992 17.1041 17.0888 17.198 17.177C17.2526 17.8887 16.9991 18.6116 17.2788 19.3129L17.2883 19.3346C17.1389 19.6548 17.504 20.139 16.9694 20.3353C16.9989 19.5769 17.0328 18.8187 17.0566 18.0616C17.083 17.1957 16.8675 16.9843 15.9996 17.0409C15.4029 17.0797 14.9479 17.2407 15.0254 18.0145C15.0807 18.5773 15.0311 19.1533 14.9933 19.7196C14.9644 20.15 15.1376 20.3346 15.5573 20.3288C16.0316 20.323 16.5055 20.3271 16.9796 20.327C16.3764 20.7552 15.7062 20.6346 15.0995 20.4282C14.5625 20.2464 14.9455 19.6783 14.8285 19.3017L14.8271 19.3003Z" fill="#A19D95"/>
<path d="M12.2794 24.2767C12.5579 24.9106 12.8163 25.5456 12.6258 26.2657C12.3676 27.2407 11.5861 27.941 10.5672 28.0871C9.61144 28.2247 8.68441 27.76 8.17544 26.8814C8.09151 26.7376 8.01916 26.5884 7.94102 26.4418C7.92531 26.3799 7.90817 26.3179 7.89103 26.2559C7.78079 24.7537 8.41459 23.7018 9.65553 23.3762C10.7206 23.0965 11.5582 23.5276 12.2809 24.2753L12.2794 24.2767ZM10.2465 26.3393C10.6491 26.336 10.8964 26.1156 10.9154 25.7394C10.9368 25.3231 10.6824 25.0607 10.2584 25.0592C9.86317 25.0583 9.6348 25.325 9.62735 25.6972C9.61827 26.078 9.85052 26.3084 10.2465 26.3393Z" fill="#FAB950"/>
<path d="M12.2794 24.2767C11.5582 23.529 10.719 23.098 9.65387 23.3777C8.41293 23.7032 7.77913 24.7551 7.88937 26.2573C7.62735 26.2539 7.36529 26.252 7.10324 26.25C6.99969 25.0674 7.29858 24.0662 8.239 23.2494C9.45441 22.1927 11.3942 22.229 12.5272 23.3689C13.0237 23.8691 12.3537 23.9749 12.2778 24.2767L12.2794 24.2767Z" fill="#49463E"/>
<path d="M15.2042 16.5823C15.2025 16.6538 15.2008 16.7254 15.1991 16.7955C13.3186 17.0343 11.4669 17.3883 9.73578 18.2078C9.30556 18.4109 8.95849 18.6705 8.97714 19.2094C8.83744 19.0614 8.69772 18.9149 8.55802 18.7669C8.55333 18.5433 8.69062 18.432 8.87327 18.3404C10.8666 17.3339 12.9866 16.7815 15.2043 16.5809L15.2042 16.5823Z" fill="#F8D08B"/>
<path d="M28.6903 15.4417C27.897 15.4929 27.1037 15.5456 26.3119 15.5983C26.0847 13.6551 25.7738 11.7272 25.181 9.85828C25.0225 9.35751 25.1735 9.27231 25.6193 9.31589C26.2124 9.37158 26.8075 9.40154 27.4009 9.44291C28.1655 11.3703 28.6509 13.3584 28.6914 15.4419L28.6903 15.4417Z" fill="#B8E1DF"/>
<path d="M28.6903 15.4417C28.6497 13.3582 28.1641 11.3701 27.3995 9.44269C27.84 9.34865 27.8968 9.6694 27.9898 9.97239C28.537 11.7686 28.8456 13.6121 29.0763 15.4695C28.9476 15.4607 28.819 15.4505 28.6903 15.4417Z" fill="#DAEFEF"/>
<path d="M20.3877 9.55623C19.6944 10.8803 19.2663 12.298 18.9367 13.7482C18.8791 13.9989 18.8586 14.2576 18.8196 14.5131C18.6827 14.4883 18.5457 14.465 18.4074 14.4402C18.7354 12.821 19.2014 11.2381 19.7044 9.66599C19.9265 9.60111 20.1464 9.5104 20.3859 9.55622L20.3877 9.55623Z" fill="#DAEFEF"/>
<path d="M19.6201 15.539C20.1364 15.2706 20.4975 14.9642 19.947 14.3867C19.8296 14.2636 19.8691 14.1099 20.0017 14.0156C20.1444 13.9145 20.2789 13.9807 20.3675 14.1117C20.7272 14.6431 21.0839 15.1772 21.4364 15.7127C21.5345 15.8626 21.5835 16.0299 21.3819 16.1368C21.2295 16.2177 21.081 16.1411 21.0226 16.0065C20.7075 15.2886 20.3078 15.5325 19.891 15.8921C19.7497 15.8128 19.655 15.6989 19.6202 15.5376L19.6201 15.539Z" fill="#4C4941"/>
<path d="M16.9595 16.6013C16.9616 16.5126 16.9637 16.4238 16.9673 16.3365C17.8233 16.357 18.6792 16.3774 19.5367 16.3979L19.5304 16.6627L16.9595 16.6013Z" fill="#F8D08B"/>
<path d="M17.2785 19.3115C16.9988 18.6087 17.2523 17.8858 17.1977 17.1755C17.4444 17.8789 17.2109 18.6009 17.2785 19.3115Z" fill="#A4A39D"/>
<path d="M28.1087 26.0595C26.9763 26.0411 26.1374 25.1818 26.1543 24.0564C26.1706 22.9525 27.0698 22.0631 28.1565 22.0776C29.2304 22.0903 30.1531 23.0361 30.1347 24.1056C30.1157 25.2022 29.2097 26.0772 28.1087 26.0609L28.1087 26.0595ZM28.0626 25.6516C28.9483 25.6871 29.689 25.0187 29.7269 24.1517C29.7642 23.3061 29.0454 22.5198 28.204 22.4869C27.3326 22.4532 26.5973 23.1346 26.5607 24.0117C26.5219 24.9159 27.1626 25.6158 28.0626 25.6516Z" fill="#4C4941"/>
<path d="M26.5918 21.8698C26.7286 21.896 26.8056 21.9723 26.7793 22.1149C26.7497 22.2717 26.6458 22.3652 26.4892 22.3844C26.3442 22.4024 26.256 22.3172 26.2635 22.1799C26.2753 21.9868 26.4051 21.8897 26.5918 21.8684L26.5918 21.8698Z" fill="#F8D08B"/>
<path d="M16.9768 20.327C16.5027 20.3271 16.0287 20.323 15.5545 20.3289C15.1347 20.3346 14.9615 20.15 14.9904 19.7196C15.0283 19.1519 15.0779 18.5759 15.0225 18.0146C14.9464 17.2408 15.4 17.0797 15.9968 17.041C16.866 16.9844 17.0816 17.1957 17.0537 18.0616C17.0299 18.8201 16.9961 19.5784 16.9665 20.3354L16.9753 20.327L16.9768 20.327Z" fill="#49463E"/>
<path d="M10.2465 26.3393C9.85052 26.3084 9.61827 26.078 9.62735 25.6972C9.63624 25.325 9.86317 25.0583 10.2584 25.0592C10.6824 25.0607 10.9368 25.3231 10.9154 25.7394C10.8964 26.1156 10.6477 26.3346 10.2465 26.3393Z" fill="#4C4941"/>
<path d="M28.0626 25.6516C27.1626 25.6158 26.5219 24.9159 26.5607 24.0117C26.5973 23.1346 27.3326 22.4532 28.204 22.4869C29.0454 22.5198 29.7657 23.3062 29.7269 24.1517C29.6876 25.0187 28.9469 25.6871 28.0626 25.6516ZM28.7748 24.0874C28.7438 23.7043 28.5476 23.4661 28.154 23.4525C27.7634 23.4388 27.5133 23.6534 27.4955 24.0411C27.4768 24.4618 27.7242 24.7198 28.1438 24.7212C28.5319 24.7233 28.7369 24.4747 28.7748 24.086L28.7748 24.0874Z" fill="#F8B84F"/>
<path d="M28.7748 24.086C28.7355 24.4746 28.5319 24.7233 28.1438 24.7212C27.7242 24.7198 27.4768 24.4618 27.4955 24.0411C27.5119 23.652 27.7619 23.4388 28.154 23.4525C28.5476 23.4661 28.7453 23.7043 28.7748 24.0874L28.7748 24.086Z" fill="#4C4941"/>
<path d="M39.5002 20C39.5002 23.8567 38.3566 27.6269 36.2139 30.8336C34.0712 34.0404 31.0257 36.5397 27.4626 38.0156C23.8994 39.4916 19.9786 39.8777 16.196 39.1253C12.4134 38.3729 8.93879 36.5157 6.21167 33.7886C3.48455 31.0615 1.62735 27.5869 0.87494 23.8043C0.122528 20.0216 0.508693 16.1008 1.9846 12.5377C3.46051 8.97451 5.95987 5.92903 9.16663 3.78634C12.3734 1.64365 16.1435 0.5 20.0002 0.5C25.172 0.5 30.1319 2.55446 33.7888 6.21142C37.4458 9.86838 39.5002 14.8283 39.5002 20Z" stroke="black" stroke-opacity="0.02"/>
</g>
<defs>
<clipPath id="clip0_1845_1087">
<rect width="40" height="40" fill="white"/>
</clipPath>
</defs>
</svg>
