<svg width="40" height="40" viewBox="0 0 40 40" fill="none" xmlns="http://www.w3.org/2000/svg">
<path d="M20 40C31 40 40 31 40 20C40 9 31 0 20 0C9 0 0 9 0 20C0 31 9 40 20 40Z" fill="#212942"/>
<path d="M12.5969 10.2278H10.2279V12.5968H12.5969V10.2278Z" fill="white"/>
<path d="M12.8246 12.8246H10V10H12.8246V12.8246ZM10.4556 12.369H12.369V10.4556H10.4556V12.369Z" fill="white"/>
<path d="M18.5195 10.2278H16.1504V12.5968H18.5195V10.2278Z" fill="white"/>
<path d="M18.7472 12.8246H15.9226V10H18.7472V12.8246ZM16.3781 12.369H18.2916V10.4556H16.3781V12.369Z" fill="white"/>
<path d="M24.442 10.2278H22.073V12.5968H24.442V10.2278Z" fill="white"/>
<path d="M24.6697 12.8246H21.8451V10H24.6697V12.8246ZM22.3007 12.369H24.2142V10.4556H22.3007V12.369Z" fill="white"/>
<path d="M12.5969 16.1504H10.2279V18.5194H12.5969V16.1504Z" fill="white"/>
<path d="M12.8246 18.7471H10V15.9225H12.8246V18.7471ZM10.4556 18.2915H12.369V16.3781H10.4556V18.2915Z" fill="white"/>
<path d="M18.5195 16.1504H16.1504V18.5194H18.5195V16.1504Z" fill="white"/>
<path d="M18.7472 18.7471H15.9226V15.9225H18.7472V18.7471ZM16.3781 18.2915H18.2916V16.3781H16.3781V18.2915Z" fill="white"/>
<path d="M12.5969 22.0729H10.2279V24.4419H12.5969V22.0729Z" fill="white"/>
<path d="M12.8246 24.6697H10V21.8451H12.8246V24.6697ZM10.4556 24.2141H12.369V22.3007H10.4556V24.2141Z" fill="white"/>
<path d="M29.18 12.0046C29.5071 12.0046 29.7723 11.7394 29.7723 11.4123C29.7723 11.0852 29.5071 10.8201 29.18 10.8201C28.8529 10.8201 28.5878 11.0852 28.5878 11.4123C28.5878 11.7394 28.8529 12.0046 29.18 12.0046Z" fill="white"/>
<path d="M29.18 12.2324C28.7289 12.2324 28.3599 11.8634 28.3599 11.4124C28.3599 10.9613 28.7289 10.5923 29.18 10.5923C29.631 10.5923 30 10.9613 30 11.4124C30 11.8634 29.631 12.2324 29.18 12.2324ZM29.18 11.0479C28.9795 11.0479 28.8155 11.2119 28.8155 11.4124C28.8155 11.6128 28.9795 11.7768 29.18 11.7768C29.3804 11.7768 29.5444 11.6128 29.5444 11.4124C29.5444 11.2119 29.3804 11.0479 29.18 11.0479Z" fill="white"/>
<path d="M29.18 17.9271C29.5071 17.9271 29.7723 17.6619 29.7723 17.3348C29.7723 17.0077 29.5071 16.7426 29.18 16.7426C28.8529 16.7426 28.5878 17.0077 28.5878 17.3348C28.5878 17.6619 28.8529 17.9271 29.18 17.9271Z" fill="white"/>
<path d="M29.18 18.1549C28.7289 18.1549 28.3599 17.7859 28.3599 17.3349C28.3599 16.8838 28.7289 16.5148 29.18 16.5148C29.631 16.5148 30 16.8838 30 17.3349C30 17.7859 29.631 18.1549 29.18 18.1549ZM29.18 16.9704C28.9795 16.9704 28.8155 17.1344 28.8155 17.3349C28.8155 17.5353 28.9795 17.6993 29.18 17.6993C29.3804 17.6993 29.5444 17.5353 29.5444 17.3349C29.5444 17.1344 29.3804 16.9704 29.18 16.9704Z" fill="white"/>
<path d="M29.18 23.8497C29.5071 23.8497 29.7723 23.5845 29.7723 23.2574C29.7723 22.9303 29.5071 22.6652 29.18 22.6652C28.8529 22.6652 28.5878 22.9303 28.5878 23.2574C28.5878 23.5845 28.8529 23.8497 29.18 23.8497Z" fill="white"/>
<path d="M29.18 24.0774C28.7289 24.0774 28.3599 23.7084 28.3599 23.2574C28.3599 22.8063 28.7289 22.4373 29.18 22.4373C29.631 22.4373 30 22.8063 30 23.2574C30 23.7084 29.631 24.0774 29.18 24.0774ZM29.18 22.8929C28.9795 22.8929 28.8155 23.0569 28.8155 23.2574C28.8155 23.4578 28.9795 23.6218 29.18 23.6218C29.3804 23.6218 29.5444 23.4578 29.5444 23.2574C29.5444 23.0569 29.3804 22.8929 29.18 22.8929Z" fill="white"/>
<path d="M29.18 29.7722C29.5071 29.7722 29.7723 29.507 29.7723 29.1799C29.7723 28.8528 29.5071 28.5877 29.18 28.5877C28.8529 28.5877 28.5878 28.8528 28.5878 29.1799C28.5878 29.507 28.8529 29.7722 29.18 29.7722Z" fill="white"/>
<path d="M29.18 30C28.7289 30 28.3599 29.631 28.3599 29.18C28.3599 28.7289 28.7289 28.3599 29.18 28.3599C29.631 28.3599 30 28.7289 30 29.18C30 29.631 29.631 30 29.18 30ZM29.18 28.8155C28.9795 28.8155 28.8155 28.9795 28.8155 29.18C28.8155 29.3804 28.9795 29.5444 29.18 29.5444C29.3804 29.5444 29.5444 29.3804 29.5444 29.18C29.5444 28.9795 29.3804 28.8155 29.18 28.8155Z" fill="white"/>
<path d="M23.2575 17.9271C23.5846 17.9271 23.8497 17.6619 23.8497 17.3348C23.8497 17.0077 23.5846 16.7426 23.2575 16.7426C22.9304 16.7426 22.6652 17.0077 22.6652 17.3348C22.6652 17.6619 22.9304 17.9271 23.2575 17.9271Z" fill="white"/>
<path d="M23.2574 18.1549C22.8064 18.1549 22.4373 17.7859 22.4373 17.3349C22.4373 16.8838 22.8064 16.5148 23.2574 16.5148C23.7084 16.5148 24.0774 16.8838 24.0774 17.3349C24.0774 17.7859 23.7084 18.1549 23.2574 18.1549ZM23.2574 16.9704C23.0569 16.9704 22.8929 17.1344 22.8929 17.3349C22.8929 17.5353 23.0569 17.6993 23.2574 17.6993C23.4578 17.6993 23.6219 17.5353 23.6219 17.3349C23.6219 17.1344 23.4578 16.9704 23.2574 16.9704Z" fill="white"/>
<path d="M23.2575 23.8497C23.5846 23.8497 23.8497 23.5845 23.8497 23.2574C23.8497 22.9303 23.5846 22.6652 23.2575 22.6652C22.9304 22.6652 22.6652 22.9303 22.6652 23.2574C22.6652 23.5845 22.9304 23.8497 23.2575 23.8497Z" fill="white"/>
<path d="M23.2574 24.0774C22.8064 24.0774 22.4373 23.7084 22.4373 23.2574C22.4373 22.8063 22.8064 22.4373 23.2574 22.4373C23.7084 22.4373 24.0774 22.8063 24.0774 23.2574C24.0774 23.7084 23.7084 24.0774 23.2574 24.0774ZM23.2574 22.8929C23.0569 22.8929 22.8929 23.0569 22.8929 23.2574C22.8929 23.4578 23.0569 23.6218 23.2574 23.6218C23.4578 23.6218 23.6219 23.4578 23.6219 23.2574C23.6219 23.0569 23.4578 22.8929 23.2574 22.8929Z" fill="white"/>
<path d="M23.2575 29.7722C23.5846 29.7722 23.8497 29.507 23.8497 29.1799C23.8497 28.8528 23.5846 28.5877 23.2575 28.5877C22.9304 28.5877 22.6652 28.8528 22.6652 29.1799C22.6652 29.507 22.9304 29.7722 23.2575 29.7722Z" fill="white"/>
<path d="M23.2574 30C22.8064 30 22.4373 29.631 22.4373 29.18C22.4373 28.7289 22.8064 28.3599 23.2574 28.3599C23.7084 28.3599 24.0774 28.7289 24.0774 29.18C24.0774 29.631 23.7084 30 23.2574 30ZM23.2574 28.8155C23.0569 28.8155 22.8929 28.9795 22.8929 29.18C22.8929 29.3804 23.0569 29.5444 23.2574 29.5444C23.4578 29.5444 23.6219 29.3804 23.6219 29.18C23.6219 28.9795 23.4578 28.8155 23.2574 28.8155Z" fill="white"/>
<path d="M17.3349 23.8497C17.662 23.8497 17.9272 23.5845 17.9272 23.2574C17.9272 22.9303 17.662 22.6652 17.3349 22.6652C17.0078 22.6652 16.7426 22.9303 16.7426 23.2574C16.7426 23.5845 17.0078 23.8497 17.3349 23.8497Z" fill="white"/>
<path d="M17.3348 24.0774C16.8838 24.0774 16.5148 23.7084 16.5148 23.2574C16.5148 22.8063 16.8838 22.4373 17.3348 22.4373C17.7859 22.4373 18.1549 22.8063 18.1549 23.2574C18.1549 23.7084 17.7859 24.0774 17.3348 24.0774ZM17.3348 22.8929C17.1344 22.8929 16.9704 23.0569 16.9704 23.2574C16.9704 23.4578 17.1344 23.6218 17.3348 23.6218C17.5353 23.6218 17.6993 23.4578 17.6993 23.2574C17.6993 23.0569 17.5353 22.8929 17.3348 22.8929Z" fill="white"/>
<path d="M17.3349 29.7722C17.662 29.7722 17.9272 29.507 17.9272 29.1799C17.9272 28.8528 17.662 28.5877 17.3349 28.5877C17.0078 28.5877 16.7426 28.8528 16.7426 29.1799C16.7426 29.507 17.0078 29.7722 17.3349 29.7722Z" fill="white"/>
<path d="M17.3348 30C16.8838 30 16.5148 29.631 16.5148 29.18C16.5148 28.7289 16.8838 28.3599 17.3348 28.3599C17.7859 28.3599 18.1549 28.7289 18.1549 29.18C18.1549 29.631 17.7859 30 17.3348 30ZM17.3348 28.8155C17.1344 28.8155 16.9704 28.9795 16.9704 29.18C16.9704 29.3804 17.1344 29.5444 17.3348 29.5444C17.5353 29.5444 17.6993 29.3804 17.6993 29.18C17.6993 28.9795 17.5353 28.8155 17.3348 28.8155Z" fill="white"/>
<path d="M11.4123 29.7722C11.7394 29.7722 12.0046 29.507 12.0046 29.1799C12.0046 28.8528 11.7394 28.5877 11.4123 28.5877C11.0852 28.5877 10.8201 28.8528 10.8201 29.1799C10.8201 29.507 11.0852 29.7722 11.4123 29.7722Z" fill="white"/>
<path d="M11.4123 30C10.9612 30 10.5922 29.631 10.5922 29.18C10.5922 28.7289 10.9612 28.3599 11.4123 28.3599C11.8633 28.3599 12.2323 28.7289 12.2323 29.18C12.2323 29.631 11.8633 30 11.4123 30ZM11.4123 28.8155C11.2118 28.8155 11.0478 28.9795 11.0478 29.18C11.0478 29.3804 11.2118 29.5444 11.4123 29.5444C11.6127 29.5444 11.7767 29.3804 11.7767 29.18C11.7767 28.9795 11.6127 28.8155 11.4123 28.8155Z" fill="white"/>
<path d="M39.5 20C39.5 23.8567 38.3563 27.6269 36.2137 30.8336C34.071 34.0404 31.0255 36.5397 27.4623 38.0156C23.8992 39.4916 19.9784 39.8777 16.1957 39.1253C12.4131 38.3729 8.93855 36.5157 6.21143 33.7886C3.4843 31.0615 1.62711 27.5869 0.874696 23.8043C0.122284 20.0216 0.508449 16.1008 1.98436 12.5377C3.46027 8.97451 5.95963 5.92903 9.16639 3.78634C12.3731 1.64365 16.1433 0.5 20 0.5C25.1717 0.5 30.1316 2.55446 33.7886 6.21142C37.4455 9.86838 39.5 14.8283 39.5 20Z" stroke="black" stroke-opacity="0.02"/>
</svg>
