<svg viewBox="0 0 40 40" xmlns="http://www.w3.org/2000/svg">
  <g fill="none">
    <path fill="#0090FF" d="M20 40.001c-11 0-20-9-20-20.1.1-11 9-20 20.1-19.9 11 .1 19.9 9 19.9 20.2-.1 10.9-9 19.8-20 19.8"/>
    <path fill="#FFF" d="M21.9004 17.6006l-.601 3.2 5.701.8-.401 1.5-5.599-.8c-.4 1.3-.6 2.7-1.1 3.901-.5 1.399-1 2.799-1.601 4.099-.799 1.7-2.199 2.901-4.099 3.2-1.1.201-2.3.1-3.2-.6-.3-.199-.6-.6-.6-.9 0-.4.2-.9.5-1.1.2-.1.7 0 1 .1.3.3.6.701.8 1.1.599.8 1.4.9 2.2.3.899-.8 1.399-1.9 1.7-3 .6-2.4 1.199-4.699 1.699-7.1v-.4l-5.299-.8.2-1.5 5.5.8.7-3.1-5.7-.9.2-1.6 5.899.8c.201-.6.301-1.1.5-1.6.5-1.8 1-3.6 2.201-5.2 1.2-1.6 2.599-2.6 4.7-2.5.899 0 1.8.3 2.399 1 .101.1.301.3.301.5 0 .4 0 .9-.301 1.2-.399.3-.899.2-1.3-.2-.299-.3-.5-.6-.799-.9-.6-.8-1.5-.9-2.201-.2-.5.5-1 1.2-1.299 1.9-.701 2.1-1.201 4.3-1.901 6.5l5.5.8-.399 1.5-5.3-.8"/>
    <circle cx="20" cy="20" r="19.5" stroke="#000" stroke-opacity=".02"/>
  </g>
</svg>
