<svg width="40" height="40" viewBox="0 0 40 40" fill="none" xmlns="http://www.w3.org/2000/svg">
<g clip-path="url(#clip0_3101_570)">
<path d="M20 40C31 40 40 31 40 20C40 9 31 0 20 0C9 0 0 9 0 20C0 31 9 40 20 40Z" fill="#23292F"/>
<path fill-rule="evenodd" clip-rule="evenodd" d="M28.4844 25.1312C27.5468 25.0782 26.4964 24.844 25.3333 24.4286C25.2952 24.4041 25.2569 24.3798 25.2183 24.356L28.0851 8L32 8.1875L28.4844 25.1312ZM27.9006 27.9448L27.0592 32H23.2194L21.5188 26.6229C22.5143 26.6918 23.4668 26.8299 24.3761 27.0373L24.9481 28.814L24.981 27.1871C25.0992 27.2187 25.2166 27.2516 25.3333 27.2857C26.1891 27.6295 27.0448 27.8492 27.9006 27.9448ZM20.3951 23.0059L19.7786 20.7573L19.1774 23.026C18.2914 23.083 17.4639 23.234 16.6948 23.4791L18.8644 16.1431H20.9089L23.2325 23.4563C22.3611 23.1866 21.4153 23.0364 20.3951 23.0059ZM18.1116 26.6518L16.504 32H12.7972L11.9953 27.988C12.9691 27.9344 13.8596 27.7003 14.6667 27.2857C14.8096 27.244 14.9537 27.204 15.0989 27.1659L15.1908 28.814L15.6856 27.0233C16.4629 26.8491 17.2716 26.7253 18.1116 26.6518ZM11.4263 25.1417L8 8H11.4043L14.9248 24.2692C14.8378 24.3208 14.7517 24.3739 14.6667 24.4286C13.6677 24.9048 12.6307 25.1429 11.5556 25.1429C11.5127 25.1429 11.4696 25.1425 11.4263 25.1417V25.1417Z" fill="#00F3AB"/>
<path d="M39.5 20C39.5 23.8567 38.3563 27.6269 36.2137 30.8336C34.071 34.0404 31.0255 36.5397 27.4623 38.0156C23.8992 39.4916 19.9784 39.8777 16.1957 39.1253C12.4131 38.3729 8.93855 36.5157 6.21143 33.7886C3.4843 31.0615 1.62711 27.5869 0.874696 23.8043C0.122284 20.0216 0.508449 16.1008 1.98436 12.5377C3.46027 8.97451 5.95963 5.92903 9.16639 3.78634C12.3731 1.64365 16.1433 0.5 20 0.5C25.1717 0.5 30.1316 2.55446 33.7886 6.21142C37.4455 9.86837 39.5 14.8283 39.5 20Z" stroke="black" stroke-opacity="0.02"/>
</g>
<defs>
<clipPath id="clip0_3101_570">
<rect width="40" height="40" fill="white"/>
</clipPath>
</defs>
</svg>
