<svg width="40" height="40" viewBox="0 0 40 40" fill="none" xmlns="http://www.w3.org/2000/svg">
<g clip-path="url(#clip0_2262_205)">
<path fill-rule="evenodd" clip-rule="evenodd" d="M20 0C31.0465 0 40 8.95353 40 20C40 31.0465 31.0465 40 20 40C8.95353 40 0 31.0465 0 20C0 8.95353 8.95353 0 20 0Z" fill="#221F1F"/>
<path d="M30.8901 27.6513C30.5853 31.1579 26.318 34.1108 19.9171 33.9631C13.8973 33.8155 9.66812 31.3793 9.40142 27.8728C9.36332 27.4298 9.40142 26.9869 9.43952 26.5071C9.63002 25.1413 10.1253 23.8494 10.8492 22.6683L11.3064 22.8528C12.4876 22.4099 13.7068 22.0777 14.9641 21.8562C16.6024 21.6348 18.3169 21.3395 19.9552 21.4871L20.1077 21.4502C21.746 21.3395 23.2319 21.6717 24.8702 21.8932C26.1275 22.1146 27.3467 22.4468 28.5279 22.8898L28.9851 22.7052L29.2899 22.5576C30.0138 23.7387 30.5091 25.0306 30.7758 26.3963C30.852 26.8023 30.8901 27.2453 30.852 27.6513" fill="#F4A427"/>
<path d="M30.8901 27.6511C30.6234 31.1207 26.3942 33.9629 19.9553 33.926C13.9354 33.7784 9.70624 31.3422 9.43953 27.8356C9.40143 27.3927 9.43953 26.9498 9.47763 26.4699C10.1253 26.3223 10.773 26.3223 11.4208 26.433C12.64 26.6176 13.3258 27.3558 14.2021 27.7249C14.6974 27.9464 15.1927 27.5773 15.6499 27.1712C16.8691 26.027 18.5074 25.3626 20.1839 25.3257C21.8984 25.2888 23.3081 25.9532 24.794 27.282C25.0988 27.5773 25.5179 27.7618 25.937 27.7249C26.318 27.6142 26.699 27.4296 27.0038 27.1712C28.1469 26.433 29.5185 26.1377 30.852 26.3223C30.9282 26.8021 30.9663 27.2081 30.8901 27.6511Z" fill="white"/>
<path d="M13.2115 19.014C12.7924 19.42 12.259 19.7153 11.6874 19.826L11.4588 19.863C11.2302 19.9368 11.0016 19.9737 10.7349 19.9737C10.6968 19.9737 10.6206 19.9737 10.5825 19.9737C10.4682 19.9368 10.3158 19.8999 10.2015 19.863C9.78243 19.6784 9.40142 19.4569 9.05852 19.1616C8.37271 18.608 7.725 17.9805 7.22969 17.2423C5.13417 14.2894 5.78188 10.3029 8.67751 8.08827C8.82991 7.97753 9.09662 7.97753 9.24902 8.16209C9.32522 8.27282 9.36332 8.38356 9.32522 8.49429C9.02042 9.67545 8.82991 11.521 9.93483 13.1082C10.9254 14.4739 12.9829 15.7658 14.2402 15.7289C14.545 17.2053 14.0878 18.2019 13.2115 19.014Z" fill="#F79422"/>
<path d="M13.2115 19.014C12.7924 19.42 12.259 19.7153 11.6874 19.826L11.4588 19.863C11.2302 19.9368 11.0016 19.9737 10.7349 19.9737C10.6968 19.9737 10.6206 19.9737 10.5825 19.9737C10.4682 19.9368 10.3158 19.8999 10.2015 19.863C9.78242 19.6784 9.40142 19.4569 9.05852 19.1616C8.37271 18.608 7.725 17.9805 7.22969 17.2423C5.13417 14.2894 5.78188 10.3029 8.67751 8.08827C8.82991 7.97753 9.09662 7.97753 9.24902 8.16209C9.32522 8.27282 9.36332 8.38356 9.32522 8.49429C9.02042 9.67545 8.82991 11.521 9.93483 13.1082C10.9254 14.4739 12.9829 15.7658 14.2402 15.7289C14.545 17.2053 14.1259 18.2019 13.2115 19.014Z" stroke="#221F1F" stroke-linejoin="round"/>
<path d="M18.6979 13.9204L18.2026 18.645H18.1645C17.4025 18.7558 16.3738 18.9034 14.9641 19.1249C13.6687 19.3095 11.9161 20.1953 10.8873 20.7859L10.7349 20.0477C10.9635 20.0108 11.2302 19.9739 11.4588 19.9369L11.6875 19.9C12.259 19.7893 12.7924 19.494 13.2115 19.088C14.0878 18.239 14.545 17.2793 14.2402 15.766L14.3926 15.8029C14.8498 15.323 15.3832 14.9539 15.9928 14.6586C16.831 14.1788 17.7454 13.9573 18.6979 13.9204Z" fill="#5A595C"/>
<path d="M18.6979 13.9204L18.2026 18.645H18.1645C17.4025 18.7558 16.3738 18.9034 14.9641 19.1249C13.6687 19.3095 11.9161 20.1953 10.8873 20.7859L10.7349 20.0477C10.9635 20.0108 11.2302 19.9739 11.4588 19.9369L11.6875 19.9C12.259 19.7893 12.7924 19.494 13.2115 19.088C14.0878 18.239 14.545 17.2793 14.2402 15.766L14.3926 15.8029C14.8498 15.323 15.3832 14.9539 15.9928 14.6586C16.831 14.1788 17.7454 13.9573 18.6979 13.9204Z" stroke="#221F1F" stroke-linejoin="round"/>
<path d="M29.8233 22.4096L29.5185 22.5572L29.2137 22.7049L28.7565 22.8894C27.5754 22.4465 26.3561 22.1143 25.0988 21.8928C23.4605 21.5975 21.8222 21.4499 20.1458 21.4499C18.4693 21.4499 16.831 21.5606 15.1927 21.8928C13.9354 22.1143 12.7162 22.4465 11.5351 22.8894C11.3827 22.8156 11.2303 22.7418 11.0779 22.7049L10.392 22.4096C10.4301 21.8928 10.392 21.5975 10.392 21.0808C10.5063 21.0069 10.6968 20.8962 10.8874 20.7855L10.9255 20.7486C11.878 20.158 13.6306 19.309 14.926 19.0876C16.3357 18.8661 17.3263 18.7184 18.1264 18.6077C18.6217 18.5708 19.1552 18.5708 19.6886 18.5708C20.4887 18.5708 21.2126 18.5708 21.9365 18.6077C22.6985 18.7184 23.7272 18.8661 25.175 19.0876C26.5085 19.2721 28.2612 20.158 29.2899 20.7486H29.328C29.5185 20.8593 29.6709 20.9331 29.7852 21.0439C29.7852 21.5975 29.7852 21.8928 29.8233 22.4096Z" fill="#929497"/>
<path d="M29.8233 22.4096L29.5185 22.5572L29.2137 22.7049L28.7565 22.8894C27.5754 22.4465 26.3561 22.1143 25.0988 21.8928C23.4605 21.6344 21.8222 21.4868 20.1458 21.4868C18.4693 21.4868 16.831 21.5975 15.1927 21.8928C13.9354 22.1143 12.7162 22.4465 11.5351 22.8894C11.3827 22.8156 11.2303 22.7418 11.0779 22.7049L10.392 22.4096C10.4301 21.8928 10.392 21.5975 10.392 21.0808C10.5063 21.0069 10.6968 20.8962 10.8874 20.7855L10.9255 20.7486C11.878 20.158 13.6306 19.309 14.926 19.0876C16.3357 18.8661 17.3263 18.7184 18.1264 18.6077C18.6217 18.5708 19.1552 18.5708 19.6886 18.5708C20.4887 18.5708 21.2126 18.5708 21.9365 18.6077C22.6985 18.7184 23.7272 18.8661 25.175 19.0876C26.5085 19.2721 28.2612 20.158 29.2899 20.7486H29.328C29.5185 20.8593 29.6709 20.9331 29.7852 21.0439C29.8233 21.5975 29.7852 21.8928 29.8233 22.4096Z" stroke="#221F1F" stroke-linecap="round" stroke-linejoin="round"/>
<path d="M21.9746 18.645C21.2888 18.608 20.5268 18.5711 19.7267 18.608C19.1932 18.608 18.6598 18.645 18.1645 18.645H18.2026L18.6979 13.9203L18.8122 12.9606C19.1932 12.7392 19.6505 12.6284 20.0696 12.6284H20.1458C20.603 12.6284 21.0221 12.7392 21.4031 12.9606L21.5174 13.9203V13.9572L21.9746 18.645Z" fill="#929497"/>
<path d="M21.9746 18.645C21.2888 18.608 20.5268 18.5711 19.7267 18.608C19.1932 18.608 18.6598 18.645 18.1645 18.645H18.2026L18.6979 13.9203L18.8122 12.9606C19.1932 12.7392 19.6505 12.6284 20.0696 12.6284H20.1458C20.603 12.6284 21.0221 12.7392 21.4031 12.9606L21.5174 13.9203V13.9572L21.9746 18.645Z" stroke="#221F1F" stroke-linecap="round" stroke-linejoin="round"/>
<ellipse cx="29.4804" cy="22.5205" rx="0.190502" ry="0.184556" fill="#221F1F"/>
<path d="M30.9282 27.6882C30.6234 31.1948 26.0132 34 19.9553 34C13.9354 33.8524 9.70624 31.4162 9.43953 27.9097C9.40143 27.4667 9.43953 27.0238 9.47763 26.5439C9.66814 25.1782 10.1634 23.8863 10.8874 22.7052L11.3446 22.8897C12.5257 22.4468 13.7449 22.1146 15.0022 21.8931C16.6405 21.5978 18.2788 21.4871 19.9553 21.4502C21.6317 21.4502 23.27 21.5978 24.9083 21.8931C26.1656 22.1146 27.3849 22.4468 28.566 22.8897L29.0613 22.7052L29.3661 22.5575C30.09 23.7387 30.5853 25.0306 30.852 26.3963C30.9282 26.8392 30.9663 27.2822 30.9282 27.6882Z" stroke="#221F1F" stroke-linecap="round" stroke-linejoin="round"/>
<path d="M32.757 17.2423C32.2236 17.9436 31.614 18.608 30.8901 19.1617C30.5472 19.457 30.1662 19.6784 29.7471 19.863L29.5566 19.9368L29.4423 19.9737C29.1756 20.0475 29.0232 19.9737 28.5279 19.8999L28.2993 19.8261C27.7277 19.7153 27.1943 19.4201 26.7752 19.014C25.8989 18.1651 25.4417 17.2054 25.7465 15.692C26.9657 15.7289 29.0613 14.437 30.0519 13.0713C31.1949 11.521 30.9663 9.67549 30.6996 8.49433C30.6615 8.27286 30.7758 8.0883 31.0044 8.01448C31.1187 7.97757 31.2711 8.01448 31.3473 8.0883C34.2429 10.303 34.8525 14.2894 32.757 17.2423Z" fill="#F79422"/>
<path d="M32.757 17.2423C32.2236 17.9436 31.614 18.608 30.8901 19.1617C30.5472 19.457 30.1662 19.6784 29.7471 19.863L29.5566 19.9368L29.4423 19.9737C29.1756 20.0475 29.0232 19.9737 28.5279 19.8999L28.2993 19.8261C27.7277 19.7153 27.1943 19.4201 26.7752 19.014C25.8989 18.1651 25.4417 17.2054 25.7465 15.692C26.9657 15.7289 29.0613 14.437 30.0519 13.0713C31.1949 11.521 30.9663 9.67549 30.6996 8.49433C30.6615 8.27286 30.7758 8.0883 31.0044 8.01448C31.1187 7.97757 31.2711 8.01448 31.3473 8.0883C34.2429 10.303 34.8525 14.2894 32.757 17.2423Z" stroke="#221F1F" stroke-linejoin="round"/>
<path d="M29.4804 19.9739L29.328 20.7859C28.2992 20.1953 26.5466 19.3095 25.2131 19.1249C23.7653 18.9034 22.7747 18.7558 21.9746 18.645L21.4793 13.9204C22.3556 13.9573 23.2319 14.2157 24.032 14.6217C24.6416 14.917 25.175 15.323 25.6322 15.766L25.7846 15.7291C25.4798 17.2055 25.937 18.2021 26.8133 19.0511C27.2324 19.4571 27.7658 19.7524 28.3373 19.8631C28.3754 19.8631 28.5279 19.9369 28.566 19.9369C28.8327 20.0477 29.1756 20.0477 29.4804 19.9739Z" fill="#5A595C"/>
<path d="M29.4804 19.9739L29.328 20.7859C28.2992 20.1953 26.5466 19.3095 25.2131 19.1249C23.7653 18.9034 22.7747 18.7558 21.9746 18.645L21.4793 13.9204C22.3556 13.9573 23.2319 14.2157 24.032 14.6217C24.6416 14.917 25.175 15.323 25.6322 15.766L25.7846 15.7291C25.4798 17.2055 25.937 18.2021 26.8133 19.0511C27.2324 19.4571 27.7658 19.7524 28.3373 19.8631L28.566 19.9C29.0613 19.9739 29.1756 20.0477 29.4804 19.9739Z" stroke="#221F1F" stroke-linejoin="round"/>
<path d="M21.4793 13.9204H21.3269" stroke="#221F1F" stroke-linejoin="round"/>
<path d="M29.3661 20.7856C29.328 20.8221 29.328 20.8221 29.2899 20.8585Z" fill="#F79422"/>
<path d="M29.3661 20.7856C29.328 20.8221 29.328 20.8221 29.2899 20.8585" stroke="#221F1F" stroke-miterlimit="10"/>
<path d="M10.8111 20.7856C10.8492 20.8221 10.8492 20.8221 10.8873 20.8585Z" fill="#F79422"/>
<path d="M10.8111 20.7856C10.8492 20.8221 10.8492 20.8221 10.8873 20.8585" stroke="#221F1F" stroke-miterlimit="10"/>
<path d="M18.6979 29.0907C18.9646 29.1646 19.2694 29.1276 19.5361 28.98C19.9552 28.8324 20.2219 28.4263 20.1838 27.9834C20.1457 28.4263 20.4124 28.8324 20.8315 28.98C21.0983 29.0907 21.365 29.1276 21.6317 29.0907" stroke="#171717" stroke-linecap="round" stroke-linejoin="round"/>
<path d="M21.6317 26.7288C21.6317 27.1717 20.9459 27.7623 20.1077 27.7623C19.2694 27.7623 18.5836 27.1717 18.5836 26.7288C18.5836 26.2858 19.2694 26.1382 20.1077 26.1382C20.9459 26.1382 21.6317 26.3227 21.6317 26.7288Z" fill="#171717"/>
<path d="M20.7554 26.5805C20.7554 26.6913 20.4506 26.8389 20.1077 26.8389C19.7647 26.8389 19.4599 26.6913 19.4599 26.6175C19.4599 26.5436 19.7647 26.5436 20.1077 26.5436C20.4506 26.5436 20.7554 26.4698 20.7554 26.5805Z" fill="white"/>
<path d="M17.7454 27.9834C17.7073 28.5002 18.0502 28.9431 18.5836 29.0538H18.6979" stroke="#171717" stroke-linecap="round" stroke-linejoin="round"/>
<path d="M20.1458 27.4663C20.1458 27.6509 20.1458 27.7985 20.1458 27.9831" stroke="#171717" stroke-linecap="round" stroke-linejoin="round"/>
<path d="M21.6317 29.0909H21.746C22.2794 28.9802 22.6604 28.5373 22.5842 28.0205" stroke="#171717" stroke-linecap="round" stroke-linejoin="round"/>
<path d="M31.3473 8.08789C34.2429 10.3026 34.8525 14.289 32.757 17.205" stroke="#221F1F" stroke-linejoin="round"/>
<path d="M13.2115 19.014C12.7924 19.42 12.259 19.7153 11.6874 19.826L11.4588 19.863C11.2302 19.9368 11.0016 19.9737 10.7349 19.9737C10.6968 19.9737 10.6206 19.9737 10.5825 19.9737C10.4682 19.9368 10.3158 19.8999 10.2015 19.863C9.78242 19.6784 9.40142 19.4569 9.05852 19.1616C8.37271 18.608 7.725 17.9805 7.22969 17.2423C5.13417 14.2894 5.78188 10.3029 8.67751 8.08827C8.82991 7.97753 9.09662 7.97753 9.24902 8.16209C9.32522 8.27282 9.36332 8.38356 9.32522 8.49429C9.02042 9.67545 8.82991 11.521 9.93483 13.1082C10.9254 14.4739 12.9829 15.7658 14.2402 15.7289C14.545 17.2053 14.1259 18.2019 13.2115 19.014Z" stroke="#221F1F" stroke-linejoin="round"/>
<path d="M17.3263 24.3292C17.3263 25.1412 16.831 25.7687 16.2214 25.7687C15.6118 25.7687 15.1165 25.1043 15.1165 24.3292C15.1165 23.6279 15.4975 23.0373 15.9928 22.8896L17.212 23.7755C17.2882 23.9601 17.3263 24.1446 17.3263 24.3292Z" fill="#221F1F"/>
<path d="M16.9453 24.1447C16.9453 24.44 16.7548 24.6614 16.5643 24.6614C16.3738 24.6614 16.1833 24.44 16.1833 24.1447C16.1833 23.8494 16.3738 23.6279 16.5643 23.6279C16.7548 23.6279 16.9453 23.8494 16.9453 24.1447Z" fill="white"/>
<path d="M15.9928 25.4366C15.5737 25.7688 15.1927 26.1379 14.8498 26.544C14.6974 26.7285 14.545 26.95 14.4307 27.2084C14.3164 27.4298 14.2402 27.6882 14.2021 27.9466C14.164 28.0573 14.164 28.205 14.164 28.3157V28.5003V28.6848C14.164 28.9432 14.164 29.2016 14.164 29.4969C14.2021 29.7552 14.2402 30.0505 14.2783 30.3089C14.3164 30.4566 14.3164 30.5673 14.3545 30.7149C14.3926 30.8257 14.4307 30.9733 14.5069 31.0841C14.4307 30.9733 14.3926 30.8257 14.3164 30.7149C14.2783 30.6042 14.2021 30.4566 14.164 30.3458C14.0878 30.0874 14.0116 29.8291 13.9354 29.5338C13.8973 29.2754 13.8592 28.9801 13.8211 28.7217V28.5372V28.3157C13.8211 28.1681 13.8211 28.0204 13.8211 27.9097C13.8592 27.6144 13.8973 27.3191 14.0116 27.0607C14.1259 26.8023 14.2402 26.544 14.3926 26.2856C14.7355 25.8057 15.0784 25.3628 15.4975 24.9937C15.6499 24.883 15.8404 24.883 15.9928 24.9937C16.1452 25.0675 16.1452 25.289 15.9928 25.4366Z" fill="#221F1F"/>
<path d="M15.7642 25.3255C15.7261 25.3255 15.7261 25.3255 15.688 25.3255H15.6499H15.5737L15.3832 25.2886C15.2689 25.2517 15.1546 25.2517 15.0403 25.2517C14.8117 25.2517 14.545 25.2517 14.3164 25.3255C14.2021 25.3624 14.0878 25.3994 13.9735 25.4363C13.6306 25.5839 13.3258 25.8423 13.1353 26.1376C13.2496 25.8792 13.3639 25.6577 13.5544 25.4732C13.6306 25.3624 13.7449 25.2886 13.8592 25.2148C13.9735 25.141 14.0878 25.0672 14.2021 24.9933C14.4307 24.8457 14.6974 24.7719 15.0022 24.698C15.1546 24.6611 15.2689 24.6611 15.4213 24.6611C15.4975 24.6611 15.5737 24.6611 15.6499 24.6611H15.8023C15.9928 24.6611 16.1452 24.8088 16.1833 24.9933C16.2214 25.1779 15.9928 25.3255 15.7642 25.3255Z" fill="#221F1F"/>
<path d="M25.175 24.3292C25.175 25.1412 24.6797 25.7687 24.1082 25.7687C23.5367 25.7687 22.9652 25.1412 22.9652 24.3292C22.9652 24.1446 23.0033 23.9601 23.0414 23.7755L24.2606 22.8896C24.794 23.0373 25.175 23.6279 25.175 24.3292Z" fill="#221F1F"/>
<path d="M23.3843 24.1447C23.3843 24.44 23.5748 24.6614 23.7653 24.6614C23.9558 24.6614 24.1463 24.44 24.1463 24.1447C24.1463 23.8494 23.9558 23.6279 23.7653 23.6279C23.5748 23.6279 23.3843 23.8494 23.3843 24.1447Z" fill="white"/>
<path d="M24.794 24.9197C25.2131 25.3257 25.556 25.7317 25.8608 26.2116C26.0132 26.4331 26.1656 26.6914 26.2799 26.9498C26.3942 27.2082 26.4704 27.5035 26.5085 27.7619C26.5466 28.0571 26.5466 28.3155 26.5085 28.6108C26.4704 28.8692 26.4323 29.1645 26.3942 29.4229C26.3561 29.6812 26.2799 29.9396 26.2037 30.198C26.1656 30.3087 26.1275 30.4564 26.0513 30.5671C26.0132 30.6778 25.937 30.8255 25.8608 30.9362C25.8989 30.8255 25.9751 30.6778 26.0132 30.5671C26.0513 30.4564 26.0894 30.3087 26.1275 30.198C26.1656 29.9396 26.2418 29.6812 26.2418 29.4229C26.2799 29.1645 26.2799 28.9061 26.2799 28.6108C26.2799 28.3524 26.2418 28.0941 26.2037 27.8357C26.1275 27.5773 26.0513 27.3558 25.937 27.1344C25.8227 26.9129 25.6703 26.6914 25.4798 26.5069C25.1369 26.1008 24.7559 25.7317 24.3368 25.3995C24.1844 25.2519 24.1844 25.0673 24.3368 24.9197C24.4511 24.809 24.6416 24.772 24.794 24.8828V24.9197Z" fill="#221F1F"/>
<path d="M24.5273 24.6612H24.7178C24.794 24.6612 24.8702 24.6612 24.9464 24.6612C25.0988 24.6612 25.2512 24.6612 25.4036 24.6981C25.7084 24.735 25.9751 24.8089 26.2418 24.9196C26.5085 25.0303 26.7371 25.2149 26.9657 25.3994C27.1562 25.584 27.3086 25.8424 27.4229 26.0639C27.2705 25.8424 27.08 25.6578 26.8514 25.5102C26.6228 25.3625 26.3942 25.2518 26.1275 25.2149C25.8608 25.178 25.6322 25.178 25.3655 25.178C25.2512 25.178 25.0988 25.2149 24.9845 25.2149L24.794 25.2518H24.7178H24.6797H24.6416H24.6035C24.413 25.2887 24.2225 25.1411 24.2225 24.9565C24.1844 24.772 24.3368 24.5874 24.5273 24.5874C24.5654 24.5874 24.5654 24.5874 24.6035 24.5874" fill="#221F1F"/>
<path d="M39.5 20C39.5 23.8567 38.3563 27.6269 36.2137 30.8336C34.071 34.0404 31.0255 36.5397 27.4623 38.0156C23.8992 39.4916 19.9784 39.8777 16.1957 39.1253C12.4131 38.3729 8.93855 36.5157 6.21143 33.7886C3.4843 31.0615 1.62711 27.5869 0.874696 23.8043C0.122284 20.0216 0.508449 16.1008 1.98436 12.5377C3.46027 8.97451 5.95963 5.92903 9.16639 3.78634C12.3731 1.64365 16.1433 0.5 20 0.5C25.1717 0.5 30.1316 2.55446 33.7886 6.21142C37.4455 9.86837 39.5 14.8283 39.5 20Z" stroke="black" stroke-opacity="0.02"/>
</g>
<defs>
<clipPath id="clip0_2262_205">
<rect width="40" height="40" fill="white"/>
</clipPath>
</defs>
</svg>
