<svg width="40" height="40" viewBox="0 0 40 40" fill="none" xmlns="http://www.w3.org/2000/svg">
<g clip-path="url(#clip0)">
<path d="M20 40C31.0457 40 40 31.0457 40 20C40 8.9543 31.0457 0 20 0C8.9543 0 0 8.9543 0 20C0 31.0457 8.9543 40 20 40Z" fill="#00EF8B"/>
<path d="M28.78 16.87H23.13V22.52H28.78V16.87Z" fill="white"/>
<path d="M17.48 24.64C17.48 25.0593 17.3557 25.4692 17.1227 25.8178C16.8898 26.1664 16.5587 26.4382 16.1713 26.5986C15.7839 26.7591 15.3577 26.8011 14.9464 26.7193C14.5352 26.6375 14.1575 26.4355 13.861 26.1391C13.5645 25.8426 13.3626 25.4648 13.2808 25.0536C13.199 24.6423 13.2409 24.2161 13.4014 23.8287C13.5619 23.4413 13.8336 23.1102 14.1822 22.8773C14.5309 22.6443 14.9407 22.52 15.36 22.52H17.48V16.87H15.36C13.8233 16.87 12.321 17.3257 11.0433 18.1795C9.76548 19.0333 8.76958 20.2468 8.18149 21.6665C7.59339 23.0863 7.43952 24.6486 7.73933 26.1558C8.03914 27.6631 8.77916 29.0476 9.86581 30.1342C10.9525 31.2209 12.3369 31.9609 13.8442 32.2607C15.3514 32.5605 16.9137 32.4066 18.3335 31.8185C19.7533 31.2304 20.9668 30.2345 21.8205 28.9568C22.6743 27.679 23.13 26.1768 23.13 24.64V24.64V22.52H17.48V24.64Z" fill="white"/>
<path d="M25.25 14.05H31.6V8.40002H25.25C23.1919 8.40266 21.2186 9.22076 19.7623 10.6752C18.306 12.1296 17.4853 14.1018 17.48 16.16V16.87H23.13V16.16C23.13 15.8821 23.1849 15.6069 23.2916 15.3502C23.3983 15.0936 23.5546 14.8605 23.7516 14.6645C23.9486 14.4684 24.1824 14.3132 24.4395 14.2078C24.6967 14.1023 24.9721 14.0487 25.25 14.05V14.05Z" fill="white"/>
<path d="M17.4901 22.52H23.1301V16.87H17.4901V22.52Z" fill="#16FF99"/>
<path opacity="0.02" d="M20 1C24.3957 1.0023 28.6545 2.52861 32.051 5.31888C35.4474 8.10914 37.7714 11.9907 38.6268 16.3023C39.4823 20.6139 38.8163 25.0887 36.7424 28.9643C34.6685 32.84 31.315 35.8766 27.2532 37.557C23.1915 39.2373 18.6727 39.4573 14.4669 38.1795C10.2611 36.9017 6.62844 34.2052 4.18786 30.5494C1.74727 26.8936 0.649757 22.5046 1.08231 18.1303C1.51485 13.756 3.4507 9.66703 6.56003 6.56C8.32534 4.79599 10.4209 3.39704 12.7269 2.44304C15.033 1.48904 17.5044 0.998695 20 1V1ZM20 4.56507e-07C15.3729 -0.000987761 10.8885 1.60248 7.31107 4.53718C3.73363 7.47188 1.28444 11.5562 0.380826 16.0943C-0.522786 20.6324 0.17509 25.3434 2.35554 29.4246C4.53599 33.5058 8.06411 36.7047 12.3387 38.4762C16.6133 40.2477 21.37 40.4822 25.7981 39.1398C30.2263 37.7974 34.0519 34.9611 36.6233 31.1142C39.1947 27.2673 40.3526 22.6478 39.8998 18.0428C39.447 13.4379 37.4114 9.13239 34.14 5.86C30.3902 2.10901 25.3039 0.0011332 20 4.56507e-07V4.56507e-07Z" fill="black"/>
</g>
<defs>
<clipPath id="clip0">
<rect width="40" height="40" fill="white"/>
</clipPath>
</defs>
</svg>
