<svg width="40" height="40" viewBox="0 0 40 40" fill="none" xmlns="http://www.w3.org/2000/svg">
<g clip-path="url(#clip0_526_3113)">
<path fill-rule="evenodd" clip-rule="evenodd" d="M20 0C23.9556 0 27.8224 1.17298 31.1114 3.37061C34.4004 5.56824 36.9638 8.69181 38.4776 12.3463C39.9913 16.0009 40.3874 20.0222 39.6157 23.9018C38.844 27.7814 36.9392 31.3451 34.1421 34.1421C31.3451 36.9392 27.7814 38.844 23.9018 39.6157C20.0222 40.3874 16.0009 39.9913 12.3463 38.4776C8.69181 36.9638 5.56824 34.4004 3.37061 31.1114C1.17298 27.8224 0 23.9556 0 20C0.0158273 14.7005 2.12805 9.62265 5.87535 5.87535C9.62265 2.12805 14.7005 0.0158273 20 0V0Z" fill="#E62058"/>
<path d="M25.1549 18.3385L15.995 18.3316C13.4979 18.3316 11.421 20.306 11.3559 22.8447C11.3538 22.9125 11.4099 22.9686 11.4777 22.9686L20.6376 22.9742V22.9755C23.1348 22.9755 25.2117 21.0011 25.2768 18.4624C25.2788 18.3946 25.2228 18.3385 25.1549 18.3385Z" fill="white"/>
<path d="M29.7975 11.385L15.9957 11.3781C13.4986 11.3781 11.4217 13.3525 11.3566 15.8912C11.3545 15.959 11.4106 16.0151 11.4784 16.0151L25.2802 16.0206V16.022C27.7774 16.022 29.8543 14.0476 29.9194 11.5089C29.9214 11.4411 29.8654 11.385 29.7975 11.385Z" fill="white"/>
<path d="M13.6772 29.8979C14.9592 29.8979 15.9985 28.8586 15.9985 27.5766C15.9985 26.2946 14.9592 25.2553 13.6772 25.2553C12.3952 25.2553 11.3559 26.2946 11.3559 27.5766C11.3559 28.8586 12.3952 29.8979 13.6772 29.8979Z" fill="white"/>
<mask id="mask0_526_3113" style="mask-type:alpha" maskUnits="userSpaceOnUse" x="0" y="0" width="40" height="40">
<circle cx="20" cy="20" r="19.5" stroke="white"/>
</mask>
<g mask="url(#mask0_526_3113)">
<circle cx="20" cy="20" r="19.5" stroke="black" stroke-opacity="0.02"/>
</g>
</g>
<defs>
<clipPath id="clip0_526_3113">
<rect width="40" height="40" fill="white"/>
</clipPath>
</defs>
</svg>
