<svg width="40" height="40" viewBox="0 0 40 40" fill="none" xmlns="http://www.w3.org/2000/svg">
<g clip-path="url(#clip0_3718_350)">
<path fill-rule="evenodd" clip-rule="evenodd" d="M20 0C31.0465 0 40 8.95353 40 20C40 31.0465 31.0465 40 20 40C8.95353 40 0 31.0465 0 20C0 8.95353 8.95353 0 20 0Z" fill="#2B61D1"/>
<path d="M22.2724 31.6562L19.999 33L15.1152 30.118L17.3331 28.8072L17.3887 28.7742L22.2724 31.6562Z" fill="white"/>
<path d="M30.9996 13.5V16.2049L24.8881 12.5935L16.1701 17.747V19.3419L12.5153 17.1828L9 19.2587V13.5L19.9992 7L30.9996 13.5Z" fill="white"/>
<path d="M31.0001 19.2826V26.5106L24.8898 30.1181H24.8821L18.7783 26.5106V19.2826L24.8898 15.6698L31.0001 19.2826Z" fill="white"/>
<path d="M16.0294 22.3376V26.4907L12.5141 28.5693L9 26.4921V22.3389L12.5153 20.2616L16.0294 22.3376Z" fill="white"/>
<path d="M39.5 20C39.5 23.8567 38.3563 27.6269 36.2137 30.8336C34.071 34.0404 31.0255 36.5397 27.4623 38.0156C23.8992 39.4916 19.9784 39.8777 16.1957 39.1253C12.4131 38.3729 8.93855 36.5157 6.21143 33.7886C3.4843 31.0615 1.62711 27.5869 0.874696 23.8043C0.122284 20.0216 0.508449 16.1008 1.98436 12.5377C3.46027 8.97451 5.95963 5.92903 9.16639 3.78634C12.3731 1.64365 16.1433 0.5 20 0.5C25.1717 0.5 30.1316 2.55446 33.7886 6.21142C37.4455 9.86837 39.5 14.8283 39.5 20Z" stroke="black" stroke-opacity="0.02"/>
</g>
<defs>
<clipPath id="clip0_3718_350">
<rect width="40" height="40" fill="white"/>
</clipPath>
</defs>
</svg>
