<svg width="40" height="40" viewBox="0 0 40 40" fill="none" xmlns="http://www.w3.org/2000/svg">
<g clip-path="url(#clip0_1837_813)">
<path d="M20 40C23.9556 40 27.8224 38.827 31.1114 36.6294C34.4004 34.4318 36.9638 31.3082 38.4776 27.6537C39.9913 23.9992 40.3874 19.9778 39.6157 16.0982C38.844 12.2186 36.9392 8.65492 34.1421 5.85787C31.3451 3.06082 27.7814 1.15601 23.9018 0.384303C20.0222 -0.387401 16.0009 0.00866568 12.3463 1.52242C8.69181 3.03617 5.56824 5.59962 3.37061 8.8886C1.17298 12.1776 0 16.0444 0 20C0 25.3043 2.10714 30.3914 5.85786 34.1421C9.60859 37.8929 14.6957 40 20 40Z" fill="black"/>
<path fill-rule="evenodd" clip-rule="evenodd" d="M30.2139 10.7994L29.0275 17.9162L24.8094 12.9493L30.2139 10.7994ZM29.053 20.9771L30.1089 24.8777L22.0351 27.1024L29.053 20.9771ZM11.4773 19.0168L15.8061 13.3586H23.3234L28.1283 19.0168H11.4773ZM27.5718 20.4149L19.7447 27.2459L11.7725 20.4149H27.5718ZM14.3565 12.9534L10.4885 18.0092L9.30061 10.8268L14.3565 12.9534ZM17.4264 27.1002L9.27565 24.8795L10.3925 21.0733L17.4264 27.1002ZM18.9314 28.9592L17.3927 30.653C16.0888 29.414 14.6552 28.3138 13.1249 27.3771L18.9314 28.9592ZM26.3946 27.3514C24.8642 28.3032 23.4341 29.4177 22.1384 30.6685L20.5671 28.9569L26.3946 27.3514ZM32 8.58427L23.5127 11.9606H15.6021L7.50879 8.55664L9.34726 19.6723L7.58183 25.6891L12.1878 28.444C14.3686 29.7485 16.322 31.3806 17.9938 33.2949L19.7872 35.3485L21.6695 33.1889C23.2845 31.3356 25.1654 29.7448 27.2596 28.4604L31.7766 25.6891L30.1499 19.6804L32 8.58427Z" fill="#FFFFFE"/>
<path d="M39.5 20C39.5 23.8567 38.3563 27.6269 36.2137 30.8336C34.071 34.0404 31.0255 36.5397 27.4623 38.0156C23.8992 39.4916 19.9784 39.8777 16.1957 39.1253C12.4131 38.3729 8.93855 36.5157 6.21143 33.7886C3.4843 31.0615 1.62711 27.5869 0.874696 23.8043C0.122284 20.0216 0.508449 16.1008 1.98436 12.5377C3.46027 8.97451 5.95963 5.92903 9.16639 3.78634C12.3731 1.64365 16.1433 0.5 20 0.5C25.1717 0.5 30.1316 2.55446 33.7886 6.21142C37.4455 9.86838 39.5 14.8283 39.5 20Z" stroke="black" stroke-opacity="0.02"/>
</g>
<defs>
<clipPath id="clip0_1837_813">
<rect width="40" height="40" fill="white"/>
</clipPath>
</defs>
</svg>
