<svg width="40" height="40" viewBox="0 0 40 40" fill="none" xmlns="http://www.w3.org/2000/svg"><g clip-path="url(#FOXY__a)"><path fill-rule="evenodd" clip-rule="evenodd" d="M20 0c11.047 0 20 8.954 20 20 0 11.047-8.953 20-20 20C8.954 40 0 31.047 0 20 0 8.954 8.954 0 20 0Z" fill="url(#FOXY__b)"/><g clip-path="url(#FOXY__c)"><path d="M19.476 0h1.048l1.548.1 1.449.2 1.348.3 1.248.349 1.399.5 1.198.548.999.5.999.6.948.648.85.65.649.549.4.35 1.347 1.348.45.549.5.6.648.898.55.85.549.948.45.849.599 1.398.599 1.798.35 1.398.25 1.498.1.949.049.849v1.548l-.1 1.398-.25 1.648-.35 1.498-.399 1.249-.45 1.198-.598 1.299-.6 1.098-.599.95-.649.898-.55.7-.648.748-.35.35-.35.4-.749.698-.749.65-.999.749-1.048.699-.949.55-1.149.598-1.448.6-1.348.449-1.598.4-1.498.25-.9.1-.848.049h-1.648l-1.348-.1-1.648-.25-1.498-.35-1.249-.399-.949-.35-1.248-.549-1.049-.549-1.148-.699-.85-.6-.698-.549-.65-.549-.499-.45-1.298-1.298-.45-.549-.649-.799-.65-.949-.648-1.049-.65-1.198-.549-1.248-.5-1.399L.55 24.72l-.3-1.498-.15-1.149-.1-1.449v-1.248l.1-1.448.2-1.449.3-1.398.399-1.348.45-1.249.548-1.198.5-.999.6-.999.548-.799.6-.799.45-.549.598-.699 1.299-1.298.55-.45.648-.55.9-.648 1.098-.7 1.098-.599 1.249-.599 1.448-.55L14.931.65l1.299-.3 1.248-.2.999-.1.999-.049Z" fill="#FDFCFC"/><path d="m32.51 5.343.349.05.2.25.25.5.449 1.248.35 1.198.249 1.099.3 2.097.05.6v2.546l-.15 1.149-.25 1.348-.35 1.149-.449 1.098-.35.7-.449.799-.5.748.4.05.7.3.449.35.2.2-.05.25-.35.399-.4.4-.549.449-.55.399-.748.35-.35.1.45.399.05.2-.45.998-.5.95-.498.698h.15l.648-.25.6-.299-.05.2-.35.5-.35.399-.399.35-.699.549-.899.599-.849.5-1.398.698-.7.3-1.048.4-1.049.3-.998.249-1.349.15h-1.897l-1.448-.15-1.748-.35-1.299-.4-1.048-.399-1.399-.699-.799-.5-.449-.349-.7-.6v-.099l-.199-.1-.1-.2.05-.05.6.05-.3-.35-.35-.498-.35-.75-.05-.3.25.05.65.25h.3l.199-.25.2-.349-.75.15-.698.1h-.3l-.05-.1.4-.799.15-.15h-.5l-.6-.1-.998-.4-.75-.499-.449-.35-.499-.449-.2-.25.05-.199.4-.25.649-.2.999-.15-.3-.249v-.1l-.2-.1-.5-.549-.299-.4-.45-.649-.399-.649-.45-.799-.449-1.049-.399-1.048-.3-.999-.35-1.648-.249-2.047-.05-.8v-1.448l.1-.799.2-.898.15-.35.2-.25.1-.05h.449l.649.15.949.35.998.45.85.399.998.549.949.6.5.349.698.5.5.399.45.35.549.449.499.45.4.349.599.599.25.3.1-.15.399-.8.5-.948.399-.8.25-.798h.2l.249 1.049.15 1.348.499-.5.5-.399.748-.5.95-.599.898-.549.949-.6.799-.548.799-.6.45-.35h.15v.7l-.3 1.798-.3 1.248-.35 1.049-.2.45-.349.598-.25.3 1.199-.45.25-.1.449-.798.3-.55.499-.749.35-.499.399-.55.35-.449.4-.5.598-.698.35-.35.35-.4.948-.948h.1v-.1h.1v-.1l.55-.45.499-.449.599-.45.5-.349.349-.25.55-.3.698-.299Z" fill="#FB7500"/><path d="m32.51 5.343.349.05.2.25.25.5.449 1.248.35 1.198.249 1.099.3 2.097.05.6v2.546l-.15 1.149-.25 1.348-.35 1.149-.449 1.098-.35.7-.449.799-.5.748.4.05.7.3.449.35.2.2-.05.25-.35.399-.4.4-.549.449-.55.399-.748.35-.35.1.45.399.05.2-.45.998-.5.95-.498.698h.15l.648-.25.6-.299-.05.2-.35.5-.35.399-.399.35-.699.549-.899.599-.849.5-1.398.698-.7.3-1.048.4-1.049.3-.998.249-1.349.15h-1.897l-1.448-.15-1.748-.35-1.299-.4-1.048-.399-1.399-.699-.799-.5-.449-.349-.7-.6v-.099l-.199-.1-.1-.2.05-.05.6.05-.3-.35-.35-.498-.35-.75-.05-.3.25.05.65.25h.3l.199-.25.2-.349-.75.15-.698.1h-.3l-.05-.1.4-.799.15-.15h-.5l-.6-.1-.998-.4-.75-.499-.449-.35-.499-.449-.2-.25.05-.199.4-.25.649-.2.999-.15-.3-.249v-.1l-.2-.1-.5-.549-.299-.4-.45-.649-.399-.649-.45-.799-.449-1.049-.399-1.048-.3-.999-.35-1.648-.249-2.047-.05-.8v-1.448l.1-.799.2-.898.15-.35.2-.25.1-.05h.449l.649.15.949.35.998.45.85.399.998.549.949.6.5.349.698.5.5.399.45.35.549.449.499.45.4.349.599.599.25.3.1-.15.399-.8.5-.948.399-.8.25-.798h.2l.249 1.049.15 1.348.499-.5.5-.399.748-.5.95-.599.898-.549.949-.6.799-.548.799-.6.45-.35h.15v.7l-.3 1.798-.3 1.248-.35 1.049-.2.45-.349.598-.25.3 1.199-.45.25-.1.449-.798.3-.55.499-.749.35-.499.399-.55.35-.449.4-.5.598-.698.35-.35.35-.4.948-.948h.1v-.1h.1v-.1l.55-.45.499-.449.599-.45.5-.349.349-.25.55-.3.698-.299ZM23.72 9.14l-.499.449-.55.4-.499.349-.699.45-.949.599-.899.549-.799.5-.499.349-.65.5-.399.349-.35.4-.449.649.25-.5.2-.25v-.898l-.25-1.548-.1.15-.35.898-1.048 2.048-.2.5.15.648.05.55v2.746l-.1.899-.25 1.248-.1.15-.698-1.648-.5-.948-.15-.15-.599-.3-.949-.25-1.448-.25-.899-.299h-.1l.15.7.35.848.4.7.449.599.3.35.399.349.699.499.2.15-.4-.2h-.55l-.449.15-.599.35-.55.499v.1l-.15.05-.099.2.3.1 1.098.249h.9l-.1.05v.1l.249.1.1-.25.05-.25.25-.1-.05.15-.15.1-.2.65-.05.299v.799l.25-.05.649-.5.25-.25.4-.498.299-.5-.05.25-.4.649-.4.4-.399.948-.649 1.249-.4.649-.299.45-.05.15.899.199.45.05h.549l.05.15h-.9l-1.397-.3-.65-.25-.1.05.35.65.35.499.449.5.4.399.499.35.749.399-.35-.1-.549-.3-.3-.2-.449-.349-.1-.1-.55-.1-.199.05.7.6.748.549.75.45.698.349.8.35.599.25 1.098.349 1.548.35 1 .149.948.1h2.197l1.399-.2.799-.2 1.048-.3 1.049-.399.799-.35.699-.349.749-.4.6-.349.499-.35.599-.399.749-.65.4-.349.2-.3-.25.05-.75.3-.449.1.6-.7.349-.548.4-.8.349-.798-.05-.1-.949.3-1.148.249-.75.1h-.549l-.05-.2.05.15h.45l1.548-.3-.05-.2-.45-.698-.3-.5-.599-1.099-.05-.25.1.05.4.8.3.549.399.65 1.398.05-.2-.2-.649-.25h-.1v-.1l.8.2.599-.2.599-.3.5-.35v-.1l.2-.1.548-.448.5-.5.05-.2-.4-.35-.699-.349-.35-.1h-.349l-.15.15h-.1l.3-.5.5-.698.449-.8.35-.748.299-.7.35-1.048.25-.999v-.25l-.2.2-.35.4-.25.3-.4.299v.1l-.2.1-.149.15-.3.798-.35.75-.448.848-.45.65-.45.499-.349.4-.7.599-.149.1.05.449-.55-.1-.499.05v-.1l.15-.05-.4-.2-.15-.05v.15h-.099l-.05-.25-.45-.399-.299-.45-.15-.399v-.15l.25.6.45.5h.1v.099l.498.3.4.2.45.1.2-.05-.3-.75-.25-.599-.4-.45-.599-.3.55.1.649-.05.649-.249.6-.45.249-.299-.25-.2-.65-.3-.199-.05h-.799l-.3.15.25-.25.4-.349.1-.2h.1l.399-.698.2-.8V15.98l-.2-.949-.15-.45h-.1l-.25.35-.649.5-.599.4-.6.449-.399.4-.3.448-.399 1.798-.15.85-.3-.55-.399-.75-.3-.698-.299-.9-.1-.498-.2.2-.2.349v.1l-.199.05.7-1.399.299-.998-.05-.2-1.299.3-1.148.349-.75.3.3-.45.35-.5.4-.798.349-1.099.35-1.548.25-1.598v-.3h-.05Z" fill="#281C11"/><path d="m24.52 21.423.499.05.45.3.249.2.55.699.299.45.3.499.349.849.35 1.048.25.9h.549l1.248-.2.849-.2.799-.25-.15.45-.45.998-.399.65-.35.449-.349.35.1.05.749-.25.45-.2.15.05-.3.35-.4.349-.699.6-.55.349-.549.4-.549.299-.749.4-.5.249-1.098.5-1.248.449-1.249.35-1.348.2-.35.049h-2.197l-1.648-.2-1.448-.3-.999-.299-.899-.3-.599-.25-.899-.449-.7-.4-.598-.399-.5-.4-.599-.499.2-.05.55.1.399.35.499.35.6.3.249.049-.849-.45-.55-.449-.599-.6-.35-.498-.299-.5-.15-.35.45.15.699.2.999.2h.899l.05-.5.3-1.148.399-1.099.5-1.048.448-.7.3-.399.4-.35.4-.15h.449l.499.2.5.4.549.799.4.699.598 1.149.2.449.55 1.398v.1l-.25.15-.05.2.15.3.4.349.498.2h.35l.5-.3.25-.2.199-.25.05-.399-.15-.15-.4-.15.1-.699.25-1.198.4-1.149.449-.948.3-.5.4-.6.299-.399.25-.25.449-.399.45-.15Z" fill="#FEE8CC"/><path d="M19.576 5.343h.699l1.198.1 1.349.2 1.348.35 1.348.499.8.4.948.499.749.5.2.199-1.049 1.049-.35.399-.599.65-.4.499-.349.449-.55.75-.399.598-.499.8-.45.748-.15.3-.249.15-.3.05.2-.45.3-.849.2-.749.3-1.248.249-1.648v-.65l-.15-.199h-.3l-.499.35-.55.449-1.647 1.099-1.099.699-.45.25-.549.349-.749.5-.649.499-.15.1-.2-1.199-.15-.649-.249-.25h-.25l-.15.05-.1.4-.299.849-.749 1.398-.3.6-.2-.1-.898-.9-.55-.449-.649-.55-.799-.599-.899-.649-.3-.2-.898-.549-.25-.25.9-.898.548-.45.6-.5.749-.499.799-.499.849-.45.949-.399 1.198-.4 1.248-.3 1.498-.199.8-.05Z" fill="#1D2229"/><path d="m4.694 8.64.55.05.898.249.6.25 1.148.499 1.099.6.849.498.749.5.5.35.798.599.999.799.699.599 1.099 1.099v.1l.2.1.15.349.1.2.099.799v2.746l-.1.9-.25 1.248-.15.2-.05-.25-.299-.85-.35-.848-.599-1.099-.5-.849-.449-.699-.449-.65-.45-.599v-.1l-.15-.05-.349-.449-.6-.699-.249-.25-.25-.2-.2-.249-.199-.15v-.1l-.2-.1-.35-.35-.549-.449-.599-.499-.649-.5-.65-.449-.848-.5-.6-.199-.399-.05-.2.1v.15l.15-.15.5.05-.05.6-.05.499v1.598l.15 1.298.15.7.349 1.248.4.998.299.7.55.998.499.8.3.399-.05.1-.15-.05.399.2.45.499.349.4.5.449.549.4-.1.199-.25.3-.05.2.75.25.798.149.55.05.4.2-.15.749v.549l.05.15.349-.05.45-.3v.15l-.6 1.149-.45.849-.499.15-.899.15-.4.05.1-.3.35-.55.15-.15-.999-.05-.899-.3-.898-.499-.55-.4-.649-.598-.1-.1v-.15l.8-.35.548-.1h.85l.549.4.799.45h.15l-.4-.2-.6-.4-.499-.4-.649-.599-.5-.549-.449-.6-.4-.598-.598-1.05-.4-.848-.3-.7-.15-.498-.199-.55-.35-1.348-.3-1.698-.149-1.548v-2.297l.15-.949.25-.75.1-.149.15-.05Z" fill="#281C11"/><path d="M32.16 6.792h.1l.3.649.349 1.198.35 1.648.15 1.199.05.599v1.798l-.15 1.498-.15.749-.35 1.298-.35.949-.549 1.298-.55 1-.199.249-.45.55-.748.748-.4.3h-.15l-.3-.8-.299-.449-.2-.2.75-.2.698-.349.5-.4.15-.099v-.25l-.5-.35-.699-.249-.5-.05.1-.2.2-.2.35-.599.25-.799.05-.3v-.898l-.1-.55-.3-1.048-.05-.1h-.15l-.25.25-.2.25-.848.599-.5.35-.399.299-.15.2h-.1l-.1.2-.05-.1.25-.8.35-1.048.4-.999.399-.899.599-1.248.45-.8.3-.499.349-.549.35-.5.399-.599h.1l.1-.25.399-.449.45-.55h.1l.1-.199.299-.3Z" fill="#FEE8CD"/><path d="m5.293 10.437.25.05.7.35 1.048.699.55.45.698.548v.1l.2.1.55.5.399.35.849.848.35.4.698.848.3.4.6.899.2.25.299.549.3.5-.05.1-.6-.25-.5-.15-1.397-.25-.85-.2-.499-.2h-.1v.35l.4 1.198.45.85.399.549.45.5.449.399.2.2-.6.1-.45.199-.549.4h-.2l-.499-.4-.599-.55-.35-.399-.449-.55-.6-.848-.399-.65-.649-1.298-.4-.998-.299-.95-.3-1.348-.1-.799v-2.147l.1-.699Z" fill="#FEE8CC"/><path d="m32.51 5.343.349.05.2.25.25.5.449 1.248.35 1.198.249 1.099.3 2.097.05.6v2.546l-.15 1.149-.25 1.348-.35 1.149-.449 1.098-.35.7-.449.799-.5.748.4.05.7.3.449.35.2.2-.05.25-.35.399-.4.4-.549.449-.55.399-.748.35-.35.1.45.399.05.2-.45.998-.5.95-.498.698h.15l.648-.25.6-.299-.05.2-.35.5-.35.399-.399.35-.699.549-.899.599-.849.5-1.398.698-.7.3-1.048.4-1.049.3-.998.249-1.349.15h-1.897l-1.448-.15-1.748-.35-1.299-.4-1.048-.399-1.399-.699-.799-.5-.449-.349-.7-.6v-.099l-.199-.1-.1-.2.05-.05.6.05-.3-.35-.35-.498-.35-.75-.05-.3.25.05.65.25h.3l.199-.25.2-.349-.75.15-.698.1h-.3l-.05-.1.4-.799.15-.15h-.5l-.6-.1-.998-.4-.75-.499-.449-.35-.499-.449-.2-.25.05-.199.4-.25.649-.2.999-.15-.3-.249v-.1l-.2-.1-.5-.549-.299-.4-.45-.649-.399-.649-.45-.799-.449-1.049-.399-1.048-.3-.999-.35-1.648-.249-2.047-.05-.8v-1.448l.1-.799.2-.898.15-.35.2-.25.1-.05h.449l.649.15.949.35.998.45.85.399.998.549.949.6.5.349.698.5.5.399.45.35.549.449.499.45.4.349.599.599.25.3.1-.15.399-.8.5-.948.399-.8.25-.798h.2l.249 1.049.15 1.348.499-.5.5-.399.748-.5.95-.599.898-.549.949-.6.799-.548.799-.6.45-.35h.15v.7l-.3 1.798-.3 1.248-.35 1.049-.2.45-.349.598-.25.3 1.199-.45.25-.1.449-.798.3-.55.499-.749.35-.499.399-.55.35-.449.4-.5.598-.698.35-.35.35-.4.948-.948h.1v-.1h.1v-.1l.55-.45.499-.449.599-.45.5-.349.349-.25.55-.3.698-.299Zm0 .2-.8.4-.899.549-.499.4-.45.349-.648.55-.4.349-1.598 1.598-.35.4-.549.649v.1h-.1l-.699.898-.55.8-.299.449-.55.849-.349.599v.1l.45-.05.799-.15.1.05-.05.55-.2.748-.2.4v.25h-.1l-.35.549v.1l-.199.05.7-1.399.299-.998-.05-.2-1.299.3-1.148.349-.75.3.3-.45.35-.5.4-.798.349-1.099.35-1.548.25-1.598v-.3l-.25.15-.25.25-.6.45-.499.349-.699.45-.949.599-.899.549-.799.5-.499.349-.65.5-.399.349-.35.4-.449.649.25-.5.2-.25v-.898l-.25-1.548-.1.15-.35.898-1.048 2.048-.2.5-.2-.25h-.1l-.1-.2-.349-.4-.4-.35-.399-.399-1.098-.899-.75-.599-.499-.35-.65-.449-.598-.4-.95-.549-.998-.55-.899-.399-1.198-.45-.85-.199-.399.05-.2.4-.2.749-.1.699v2.297l.15 1.548.35 1.947.4 1.449.25.599.05.25.449.998.5.95.299.499.65.948.648.75.45.449.549.45.5.349.349.25.45.2-.45-.15-.849-.5-.3-.25H7.64l-.699.15-.649.3.05.2.45.45.499.399.55.35.798.399.75.25.998.05-.4.499-.2.4v.099l.6-.1.949-.15.25-.1.649-1.248.4-.749v-.15l-.55.35h-.25l-.05-.15v-.55l.15-.748-.4-.2-.898-.1-.95-.25-.249-.1.1-.3.3-.299-.05-.15-.6-.45-.699-.648-.45-.55-.498-.3.25.1-.1-.25-.35-.498-.25-.35-.3-.55-.449-.848-.5-1.249-.299-.899-.25-1.048-.15-.95-.05-.598v-1.598l.1-.85v-.249l-.499-.05-.15.15.05-.2.2-.05.7.15.798.4.6.399.599.45.749.599.549.45.65.598.149.05.1.2.25.2.25.25.199.25.25.199.45.55.399.499h.1l.1.25.649.848.549.9.25.399.4.699.498.899.5 1.248.15.5-.55-1.249-.45-.949-.199-.35-.699-.349-.949-.25-1.448-.25-.899-.299h-.1l.15.7.35.848.4.7.449.599.3.35.399.349.699.499.2.15-.4-.2h-.55l-.449.15-.599.35-.55.499v.1l-.15.05-.099.2.3.1 1.098.249h.9l-.1.05v.1l.249.1.1-.25.05-.25.25-.1-.05.15-.15.1-.2.65-.05.299v.799l.25-.05.649-.5.25-.25.4-.498.299-.5-.05.25-.4.649-.4.4-.399.948-.649 1.249-.4.649-.299.45-.05.15.899.199.45.05h.549l.05.15h-.9l-1.397-.3-.65-.25-.1.05.35.65.35.499.449.5.4.399.499.35.749.399-.35-.1-.549-.3-.3-.2-.449-.349-.1-.1-.55-.1-.199.05.7.6.748.549.75.45.698.349.8.35.599.25 1.098.349 1.548.35 1 .149.948.1h2.197l1.399-.2.799-.2 1.048-.3 1.049-.399.799-.35.699-.349.749-.4.6-.349.499-.35.599-.399.749-.65.4-.349.2-.3-.25.05-.75.3-.449.1.6-.7.349-.548.4-.8.349-.798-.05-.1-.949.3-1.148.249-.75.1h-.549l-.05-.2.05.15h.45l1.548-.3-.05-.2-.45-.698-.3-.5-.599-1.099-.05-.25.1.05.4.8.3.549.399.65 1.398.05-.2-.2-.649-.25h-.1v-.1l.8.2.599-.2.599-.3.5-.35v-.1l.2-.1.548-.448.5-.5.05-.2-.4-.35-.699-.349-.35-.1h-.349l-.15.15h-.1l.3-.5.5-.698.449-.8.35-.748.299-.7.35-1.048.25-.999.05-.05.049-.5.15-1.248v-2.546l-.15-1.649-.35-1.897-.449-1.498-.35-.999-.35-.7-.099-.099h-.25ZM5.292 10.437l-.1.699v2.147l.15 1.049.3 1.298.4 1.149.399.949.5.949.549.899.499.649.45.549.549.6.4.349.499.4.2-.1.649-.45.449-.15.45-.05-.25-.25-.5-.449-.4-.45-.349-.499-.5-.949-.349-1.098v-.35l.5.15.749.2.749.15 1.098.2.75.299.15.05-.1-.25-.4-.699-.7-1.049-.299-.399-.5-.65-.548-.648-.6-.65-.549-.549-.4-.35-.549-.499h-.1v-.1l-.998-.799-.6-.45-.3-.199-.748-.45-.45-.2h-.15Z" fill="#120C09"/><path d="M6.492 24.969h.1v.1l.2.1.499.35.55.349.598.3.8.249.349.05-.2.6.05.349.15.25.45.948.2.3-.25.15-.05.25.15.249.399.35.25.25.35.299.399.3.799.499.899.5.998.399 1.149.4 1.298.349 1.648.3 1.149.1h1.847l1.249-.15 1.348-.3 1.149-.35 1.798-.749.948-.5.45-.249.599-.35.55-.349.598-.45.5-.399.6-.55.399-.499.05.1-.5.65-.649.749-.999.998-.549.45-.7.55-.549.349-.649.4-.849.449-.549.25-1.049.399-.948.3-1.449.299-.948.1h-2.397l-1.199-.15-1.348-.3-1.348-.449-.85-.35-.948-.499-.6-.35-.749-.499-.699-.55-.5-.449-.399-.35-.699-.698v-.1l-.15-.05-.399-.5-.35-.449-.45-.65-.399-.648-.399-.7-.5-1.048-.25-.7Z" fill="#1D2229"/><path d="m5.243 18.527.25.2.25.25.45.399.748.5.85.449.249.15.6.698.648.6.55.4-.1.199-.25.3-.05.2.75.25.798.149.55.05.4.2-.15.749v.549l.05.15.349-.05.45-.3v.15l-.6 1.149-.45.849-.499.15-.899.15-.4.05.1-.3.35-.55.15-.15-.999-.05-.899-.3-.898-.499-.55-.4-.649-.598-.1-.1v-.15l.8-.35.548-.1h.85l.549.4.799.45h.15l-.4-.2-.6-.4-.499-.4-.649-.599-.5-.549-.449-.6-.4-.598-.598-1.049-.4-.849-.25-.55v-.1Z" fill="#FD7600"/><path d="M34.207 16.48h.05l-.05.399-.3 1.198-.399 1.1-.2.399-.4.849-.449.749-.499.699-.2.35.2-.1.05-.05h.35l.599.2.599.349.25.25-.1.25-.55.549-.549.449h-.1v.1l-.749.5-.749.299-.3.05-.698-.2v.1l.549.15.4.25v.05l-1.399-.05-.4-.65-.599-1.098-.15-.3h-.15l-.2-.5.05-.15.2.1.35.15-.15.05v.1l.5-.05.549.1-.05-.45.55-.449.599-.549.45-.55.399-.549.4-.699.349-.699.499-1.248.2-.15h.1l.05-.15.4-.3.349-.4.35-.448Z" fill="#FD4200"/><path d="m32.51 5.343.349.05.2.25.25.5.449 1.248.35 1.198.249 1.099.3 2.097.05.6v2.546l-.15 1.149-.25 1.348-.35 1.149-.449 1.098-.35.7-.449.799-.5.748.4.05.7.3.449.35.2.2-.05.25-.35.399-.4.4-.549.449-.55.399-.748.35-.35.1.15.2-.05.1-.2-.05.05-.05-.499-.25-.4-.15v-.1l.55.1.25.05.599-.2.599-.3.4-.3h.1v-.1l.449-.349.599-.55.2-.249-.1-.2-.25-.2-.699-.349-.35-.1h-.349l-.15.15-.15-.05.3-.5.5-.698.449-.8.35-.748.299-.7.35-1.048.25-.999.05-.05.05-.5.149-1.248v-2.546l-.15-1.649-.35-1.897-.449-1.498-.35-.999-.349-.7-.05-.05-.4.05-.848.45-.7.45-.499.4-.45.349-.648.55h-.1l-.1.199-.5.45-1.248 1.248-.35.4-.549.649-.05.1h-.1l-.1.2-.499.648-.55.75-.2.299-.498.799-.35.55-.25.449.85-.2.449-.05.1.1-.05.55-.2.748-.2.4-.05.25h-.1l-.1.2-.25.449-.249.15.1-.35.5-.899.349-1.049.05-.35-1.299.3-1.148.35-.65.25h-.1l.1-.25.4-.55.3-.499.3-.749.299-.998.3-1.349.25-1.598v-.25l-.5.45-.55.4-.499.349-.699.45-.949.599-.899.549-.799.5-.499.349-.65.5-.349.299-.35.4-.499.699-.05-.1.4-.65.05-.05v-.898l-.2-1.249-.05-.15-.35.9-1.048 2.047-.2.5v.249l-.1-.2-.15-.25-.25-.25-.299-.349-.4-.35-.399-.399-1.098-.899-.75-.6-.499-.349-.65-.45-.598-.399-.95-.549-.998-.55-.899-.399-1.198-.45-.85-.199h-.399l-.1.25-.25.899-.1.699v2.297l.15 1.548.35 1.947.4 1.449.25.599.05.3h-.15l-.3-.75-.35-1.148-.35-1.648-.249-2.047-.05-.8v-1.448l.1-.799.2-.898.15-.35.2-.25.1-.05h.449l.649.15.949.35.998.45.85.399.998.549.949.6.5.349.698.5.5.399.45.35.549.449.499.45.4.349.599.599.25.3.1-.15.399-.8.5-.948.399-.8.25-.798h.2l.249 1.049.15 1.348.499-.5.5-.399.748-.5.95-.599.898-.549.949-.6.799-.548.799-.6.45-.35h.15v.7l-.3 1.798-.3 1.248-.35 1.049-.2.45-.349.598-.25.3 1.199-.45.25-.1.449-.798.3-.55.499-.749.35-.499.399-.55.35-.449.4-.5.598-.698.35-.35.35-.4.948-.948h.1v-.1h.1v-.1l.55-.45.499-.449.599-.45.5-.349.349-.25.55-.3.698-.299Z" fill="#080504"/><path d="M16.18 24.72h.5l.299.15.4.349.199.4.15.349.1.749v.45l-.1.698-.35.7-.4.3-.249.099h-.35l-.499-.2-.25-.2-.3-.499-.199-.7-.05-.349v-.599l.2-.799.25-.45.4-.349.249-.1Zm8.14-.85.35.05.349.2.3.4.2.549.049.25v1.048l-.2.75-.25.448-.349.4-.5.25h-.349l-.4-.25-.299-.35-.25-.699-.05-.4v-.499l.1-.599.25-.649.35-.5.399-.299.3-.1Z" fill="#50180B"/><path d="m32.66 6.242.05.15-.35.25.25.5.299.848.3 1.149.35 2.047.049.5v2.546l-.15 1.099-.25 1.298-.35 1.199v.1h-.099l-.15.549-.45 1.049-.499.898-.449.65-.45.499-.349.4-.5.449-.349.25.05.45-.2.049-.4-.1-.549.05.1-.2-.3-.15-.15-.1v.15h-.099l-.15-.3-.4-.349-.299-.45-.15-.399.05-.2.35.7.35.4.1.05v.099l.898.45.6.1-.3-.75-.25-.599-.35-.4-.699-.349.2-.05.45.1.649-.05.649-.25.6-.45.199-.249-.5-.3-.549-.2h-.799l-.35.15.05-.15.5-.399.25-.3h.1l.1-.249.299-.6.15-.649V15.98l-.2-.949-.1-.45h-.1l-.1.25-.649.55-.749.5-.6.449-.349.35-.3.449-.399 1.797-.1.4-.1.15.05-.65.2-1.098.3-1.249.35-1.148.399-1.099.4-.999.2-.449.449-.949.599-1.098.45-.8.349-.499.4-.6.499-.648.3-.4h.1l.1-.2.399-.499.25-.2.249-.25.4-.299.2-.1Zm-.5.55-.4.399v.1l-.15.05-.25.35-.249.25-.4.498v.1h-.1l-.399.6-.4.549-.599.999-.599 1.098-.599 1.249-.4.948-.399 1.05-.4 1.248-.05.3.15-.1v-.1l.2-.1.25-.25.4-.3.798-.549.45-.35.25-.25.1-.15h.15l.299.95.1.35.05.399v.899l-.2.799-.2.5-.35.548-.2.15v.1l.7.1.6.25.399.3v.249l-.65.5-.699.349-.3.1-.449.1.25.25.3.499.25.699.249-.05.749-.7.4-.399.35-.45.349-.498.45-.85.598-1.448.35-1.048.3-1.099.15-.949.1-1.148v-1.798l-.15-1.448-.15-.85-.35-1.547-.35-1.049-.2-.4h-.1Z" fill="#070504"/><path d="m5.293 10.437.25.05.7.35 1.048.699.55.45.698.548v.1l.2.1.55.5.399.35.849.848.35.4.698.848.3.4.6.899.2.25.299.549.3.5-.05.1-.6-.25-.5-.15-.199-.35-.35-.4-.549-.699-.4-.499-.648-.749-.6-.7-1.698-1.697-.699-.6-.5-.449-.548-.45-.55-.399-.15-.05.05-.499Z" fill="#B896A1"/><path d="M32.51 5.543h.25l.199.25.35.799.399 1.248.3.999.3 1.548v.55l-.1-.2-.35-1.599-.35-1.348-.4-1.148-.299-.6-.45.05-.749.4-.799.599-.649.55-.599.549-.5.499-.299.25-.45.549-.599.65-.4.499-.698.899-.55.748-.35.5-.548.799-.5.749-.05.1-.649.15h-.2l.1-.25.25-.45.55-.848.199-.3.45-.65.299-.399.35-.45.25-.349h.1l.099-.2.45-.549.798-.849 1.199-1.198.4-.35.748-.649.4-.3.55-.4.998-.598.55-.25Z" fill="#422E1F"/><path d="m5.243 18.527.25.2.25.25.45.399.748.5.85.449.249.15.6.698.648.6.55.4-.1.199-.25.3-.05.2.1.05-.05.25-.35.399-.2.2-.449-.35-.649-.6-.5-.549-.449-.6-.4-.598-.598-1.049-.4-.849-.25-.55v-.1Z" fill="#FD4200"/><path d="M4.594 8.49h.45l.649.15.949.349.998.45.85.399.998.549.949.6.5.349.698.5.5.399.45.35.549.449.499.449.4.35.599.599.25.3.1-.15.399-.8.5-.948.399-.8.25-.798h.2l.249 1.048.15 1.349.499-.5.5-.399.748-.5.95-.599.898-.549.949-.6.799-.549.799-.599.45-.35h.15v.7l-.3 1.797-.3 1.249-.35 1.049-.2.45-.349.598-.25.3.65-.25.15.05.05.1-.85.3-.35.1.1-.25.4-.55.3-.499.3-.749.299-.999.3-1.348.25-1.598v-.25l-.5.45-.55.4-.499.349-.699.45-.949.599-.899.549-.799.5-.499.349-.65.5-.349.299-.35.4-.499.699-.05-.1.4-.65.05-.05v-.898l-.2-1.249-.05-.15-.35.9-1.048 2.047-.2.499v.25l-.1-.2-.15-.25-.25-.25-.299-.349-.4-.35-.399-.399-1.098-.899-.75-.6-.499-.349-.65-.45-.598-.399-.95-.549-.998-.55-.899-.399-1.198-.45-.85-.199h-.399l-.1.25-.25.899-.1.699v2.297l.15 1.548.35 1.947.4 1.449.25.599.05.3h-.15l-.3-.75-.35-1.148-.35-1.648-.249-2.047-.05-.8v-1.448l.1-.799.2-.899.15-.35.2-.249.1-.05Z" fill="#080605"/><path d="m28.365 23.221.15.15.399.799.3.55.35.599 1.098.05.4.1v-.1l.199.05.2.25-.1.299-.35.799-.5.949-.498.699h.15l.648-.25.6-.3-.05.2-.35.5-.35.399-.399.35-.699.549-.899.6-.849.498-1.398.7-.7.3-1.048.399-1.049.3-.998.25-1.349.149h-1.897l-1.448-.15-1.748-.35-1.299-.399-1.048-.4-1.399-.699-.649-.4v-.149l.25.1.5.3.698.35.8.349.599.25 1.098.349 1.548.35 1 .15.948.1h2.197l1.399-.2.799-.2 1.048-.3 1.049-.4.799-.349.699-.35.75-.399.598-.35.5-.35.599-.399.749-.649.35-.3.2-.25-.45.15-.5.2-.449.1v-.15l.45-.449.449-.7.4-.798.349-.8h-.15l-.999.3-1.298.25-.4.05h-.549l-.15-.35-.15-.599.05-.2.25.9v.15l1.299-.2.499-.1h.2l-.25-.45-.3-.45-.3-.499-.598-1.098-.05-.25.05-.1Z" fill="#0D0B09"/><path d="M32.16 6.792h.1l.1.2-.05.199-.6.849-.4.55-.498.748-.6 1-.649 1.148-.899 1.797-.55 1.249-.249.55-.3.698-.05.15-.349.25-.15.2h-.1l-.1.2-.05-.1.25-.8.35-1.048.4-.999.399-.899.599-1.248.45-.8.3-.499.349-.549.35-.5.399-.599h.1l.1-.25.399-.449.45-.55h.1l.1-.199.299-.3Z" fill="#B896A1"/><path d="m4.694 8.64.55.05.898.249.6.25 1.148.499 1.099.6.849.498.749.5.5.35.798.599.999.799.699.599 1.099 1.099v.1l.2.1.15.349.1.2.099.799-.05.549-.15-.2-.35-.699-.648-.949-.45-.55-.2-.199v-.1l-.15-.05-.2-.25-.399-.349-.35-.35-.549-.449-.499-.45-.55-.399-.649-.45-.799-.499-.499-.3-1.148-.599-.8-.35-.948-.349-.95-.25-.199.05-.15.2-.3 1.049-.15 1.848h-.05v-1.648l.15-.949.25-.75.1-.149.15-.05Z" fill="#422E1F"/><path d="m23.72 9.139.05.2h-.1l-.1.25-.2.299-.599.649-.399.4-1.099.898-.799.6-.699.449-.948.6-.5.249-1.648.899h-.1l.1-.25.35-.45.3-.349.399-.35.6-.449.498-.35 1.948-1.198.7-.45.549-.349.499-.35.55-.399.399-.3.25-.25Z" fill="#FEBF00"/><path d="m32.959 16.53.05.199-.25.799-.3.849-.549 1.298-.55 1-.199.249-.45.55-.748.748-.4.3h-.15l-.3-.8-.299-.449-.2-.2.75-.2.698-.349.5-.4.15-.1.05-.199.399-.3.4-.499.499-.749.5-.899.399-.849Z" fill="#BA9496"/><path d="m22.472 29.164.05.1-.3.3-.1.948-.15.45-.349.499-.3.2-.15.05h-.549l-.45-.2-.249-.25-.3-.35-.2-.499-.05-.25v-.35l-.199-.05v-.099l.25.05h.649l.55-.15.149-.05.25.1h.649l.5-.2.299-.25Z" fill="#C43611"/><path d="m33.708 23.67.05.15-.5 1.498-.549 1.199-.6 1.099-.399.599-.2.2.1-.3.05-.1v-.3l-.1-.1h-.3l-.399.25h-.1l.1-.25.6-1.248.25-.7-.2-.399.749-.4.499-.349.65-.549.199-.1.1-.2Z" fill="#1E2229"/><path d="m29.363 14.382.2.05.3.949.1.35.05.399v.899l-.2.799-.2.499-.35.55-.25.249h.5l.8.3.449.35v.249l-.5.4-.45.299-.748.3-.35.05.3.399.3.6.1.449.299-.15.65-.6.399-.399.35-.45.349-.499.45-.849.598-1.448.05-.15.2-.05-.15.55-.45 1.048-.499.9-.449.648-.45.5-.349.4-.5.449-.349.25.05.449-.2.05-.4-.1-.549.05.1-.2-.3-.15-.15-.1v.15h-.099l-.15-.3-.4-.349-.299-.45-.15-.399.05-.2.35.7.35.399.1.05v.1l.898.45.6.1-.3-.75-.25-.6-.35-.399-.699-.35.2-.05.45.1.649-.05.649-.249.6-.45.199-.249-.5-.3-.549-.2h-.799l-.35.15.05-.15.5-.399.25-.3h.1l.1-.25.299-.598.15-.65V15.98l-.2-.949-.1-.45h-.1l-.1.25-.649.55-.749.499-.6.45-.349.299-.2.1.05-.2.3-.25.2-.25.5-.349.798-.55.4-.299.25-.25.15-.2Z" fill="#150B07"/><path d="m19.675 20.524.2.2.55 1.149.3.649-.05.45-.5 1.647-.15.15-.5-.899-.399-.699-.2-.3.05-.449.45-1.348.2-.5.05-.05Z" fill="#271C11"/><path d="m28.115 22.672.2.1.35.15-.15.05v.1l.499-.05.649.2.2.1v.099l-.45.15.6.599.798.05.75-.1.998-.2.3-.05-.25.25h-.1v.1l-.749.5-.749.299-.3.05-.698-.2v.1l.549.15.4.25v.05l-1.399-.05-.4-.65-.599-1.098-.15-.3h-.15l-.2-.5.05-.15Z" fill="#C33610"/><path d="m4.744 10.137.55.1.549.2.998.6.45.349.699.549.5.4.748.649.35.3.4.399v.1l.2.1.199.25.3.249.45.55.349.449.15.15.748.998.55.9.25.399.399.699.5.899.499 1.248.15.55-.15-.15-.6-1.399-.499-.948v-.1l-.15-.05v-.3l-.15-.05-.3-.55-.299-.499-.35-.499-.399-.6-.45-.549-.399-.499-.45-.5-.349-.399-.599-.599-.4-.35-.549-.499-.1-.05v-.1l-.2-.1-.649-.549-.4-.3-1.048-.699-.799-.4-.15-.05-.05.7v2.147l.15 1.049.3 1.298.4 1.149.399.949.5.948.549.9.499.649.45.549.1.2.15.05.249.3.4.349.05.1-.25-.05-.75-.7-.449-.549-.65-.35.1-.05.3.15-.2-.349-.349-.5-.3-.499-.599-1.098-.5-1.249-.299-.899-.25-1.048-.15-.95-.05-.598v-1.598l.15-1.099h-.599l-.05.15-.05-.2.25-.15Z" fill="#0B0806"/><path d="m18.926 26.117.2.25.35.899.25.599.599-.15h.998l.4.2.05.35-.15.25-.25.299-.549.35-.1.05h-.35l-.599-.25-.4-.4-.1-.35.25-.25h.1l-.599-1.497-.1-.2v-.15Z" fill="#271C11"/><path d="m9.388 17.478.5.15.749.2 1.198.2.949.249.7.35.299.549v.1l-.25-.05-.699-.2-1.198-.2-1.05-.35-.698-.399-.25-.2.1.45.15.4-.05.15-.25-.55-.2-.75v-.099Z" fill="#FEBF00"/><path d="m24.32 23.87.35.05.349.2.3.4.2.549.049.25v1.048l-.2.75-.25.448-.349.4-.5.25h-.349l-.4-.25-.299-.35-.25-.699-.05-.4v-.499l.1-.599.25-.649.35-.5.399-.299.3-.1Zm-.1.15-.4.2v.1l-.25.15-.3.599-.049.499.1.35.2.15.35-.05.249-.25.15-.25.05-.2v-.5l.05.2.3.1.05.25v.8l-.15.599-.25.35h-.35l-.1-.45-.05-.55-.45-.1-.199-.449-.1.15-.05.699.15.799.2.45.4.349.1.05h.449l.4-.2.349-.4.25-.499.15-.55v-1.098l-.15-.549-.3-.45-.3-.25-.1-.05h-.4Z" fill="#21180F"/><path d="M16.18 24.72h.5l.299.15.4.349.199.4.15.349.1.749v.45l-.1.698-.35.7-.4.3-.249.099h-.35l-.499-.2-.25-.2-.3-.499-.199-.7-.05-.349v-.599l.2-.799.25-.45.4-.349.249-.1Zm.1.1-.35.149-.25.2-.3.45-.149.498v1.199l.15.6.3.499.349.3.25.1h.549l.3-.15.3-.35.249-.7v-1.198l-.1.1.05-.35-.2-.699-.3-.35-.299.05-.2.3-.1.35.05.5.2.399.2.15h.4l-.4.05-.1.649-.2.35-.3-.05-.25-.55v-.949l.2-.4.15-.1.2-.549.2-.2.15-.1-.35-.199h-.4Z" fill="#221910"/><path d="M30.012 14.632h.15l.2.45.15.598.05.35v1.099l-.15.799-.25.599-.25.45-.15.2-.748-.05.1-.2.2-.2.349-.6.25-.799.05-.3v-.898l-.1-.55-.05-.299.2-.65Z" fill="#B896A1"/><path d="M34.107 18.827h.1l.05.799v.649l-.15 1.798-.05.35h-.15l-.399-.3-.45-.25-.349-.15.1-.25.45-.749.399-.799.4-.948.05-.15Z" fill="#1E2229"/><path d="m24.869 14.981.05.1-.35.95-.5.898v.15l.15-.05.1-.25.25-.4.1.2.1.65-.2.25-.2.15h-.1v.099l-.499.25-.45.1h-.549l-.649-.15-.05-.1.85-.45.499-.4.35-.399.499-.649.35-.55.249-.399Z" fill="#C14600"/><path d="M23.72 8.989h.15v.699l-.3 1.798-.3 1.248-.349 1.049-.2.45-.349.598-.25.3.65-.25.15.05.05.1-.85.3-.35.1.1-.25.4-.55.3-.499.3-.749.299-.998.3-1.349.25-1.598v-.25l-.5.45-.55.4-.499.349-.699.45-.949.599-.899.549-.799.5-.499.349-.65.5-.349.299-.35.4-.499.699-.05-.1.4-.65.05-.05.05-.748.15-.1.05.549.499-.5.5-.399.748-.5.95-.598.898-.55.949-.6.799-.548.799-.6.45-.35Z" fill="#110B07"/><path d="m5.643 20.475.2.25.25.449.349.549.3.4v.1l.15.05.299.399.4.45-.1.1-.85.199-.549.25-.2-.8-.25-1.697v-.7Z" fill="#1E2229"/><path d="M9.089 18.277h.15l.349.55.15.15.4.748.399.55.45.5.449.399.2.2-.6.1-.45.1-.499-.55-.499-.8-.35-.848-.15-.55-.05-.499.05-.05Z" fill="#B896A1"/><path d="m5.194 18.677.15.05.399.899.5.948.299.5.649.949.65.749.399.4.549.449.5.35.349.249.5.25-.15.05-.8-.4-.499-.35-.2-.15H7.64l-.699.15-.549.25h-.1l.15.25.35.35.499.399.55.35.798.399.75.25 1.098.05-.25.3-.25.099.1-.2-.05-.05-.799-.05-.749-.25-.499-.249-.65-.4-.499-.399-.499-.45-.2-.25.05-.199.4-.25.649-.2.999-.15-.3-.249v-.1l-.2-.1-.5-.549-.299-.4-.45-.649-.399-.649-.449-.799-.45-1.048v-.15Z" fill="#170E0A"/><path d="m29.363 14.382.2.05.3.949.1.35.05.399v.899l-.2.799-.2.499-.35.55-.25.249h.5l.8.3.449.35v.249l-.5.4-.15-.05.4-.45-.2-.2-.65-.3-.199-.05h-.799l-.35.15.05-.15.5-.399.25-.3h.1l.1-.25.299-.598.15-.65V15.98l-.2-.949-.1-.45h-.1l-.1.25-.649.55-.749.499-.6.45-.349.299-.2.1.05-.2.3-.25.2-.25.5-.349.798-.55.4-.299.25-.25.15-.2Z" fill="#120B08"/><path d="M16.63 11.486h.05l.05.45-.1.698-.4 1.149-.45 1.049-.45 1.198-.05.3-.099-.05-.1-.8-.1-.449.55-1.148.799-1.548.3-.85Z" fill="#FEBD00"/><path d="M30.312 20.325h.1l.05.25-.15.549-.05.799-.6.549-.249.05-.3-.799-.299-.45-.2-.2.75-.199.698-.35.25-.2Z" fill="#B896A1"/><path d="m9.788 27.316.25.05.649.25h.3l.249-.2.05.15-.15.2.6.1 1.298.149.05-.1.05.25-.05.05h-.9l-1.397-.3-.7-.25.35.65.35.499.449.5.35.349.499.35.749.399.3.1v.05l-.4-.05-.45-.2-.599-.35-.499-.399-.1-.1-.699-.1 1.099.9.3.199-.05.15-.5-.35-.75-.649v-.1l-.199-.1-.1-.2.05-.05.6.05-.3-.349-.35-.5-.35-.748-.05-.3Z" fill="#0D0A08"/><path d="m28.364 23.221.15.15.4.799.3.55.349.599 1.099.05.4.1v-.1l.199.05.2.25-.1.299-.1.15h-.1l.05-.3-.949.3-1.148.25-.75.1h-.549l-.15-.35-.15-.6.05-.2.25.9v.15l1.299-.2.499-.1h.2l-.25-.45-.3-.45-.3-.499-.599-1.098-.05-.25.05-.1Z" fill="#190C08"/><path d="m28.365 23.72.1.05.349.85.4.698.3.4.299.2v.15l-1.049.199h-.1l-.2-.6-.2-1.248v-.45l.1-.249Z" fill="#FE6500"/><path d="M12.634 24.62v.149l-.6 1.149-.449.849-.499.15-.899.1.2-.25.55-.45.349-.35.2-.25h.1l.1-.249.399-.5.55-.349Z" fill="#C04500"/><path d="m21.923 30.462.05.15-.3.599-.3.3-.3.1h-.349l-.45-.2-.299-.25.1-.2.699-.35.45-.1.699-.05Z" fill="#FE4200"/><path d="m16.929 25.119.25.05.25.3.199.698-.1.5-.2.2h-.35l-.249-.2-.15-.35-.05-.5.15-.449.25-.25Z" fill="#FBFAFA"/><path d="M23.72 24.37h.3l.2.2.1.25v.498l-.15.4-.25.25-.15.1h-.25l-.25-.25-.049-.4.1-.5.3-.498.1-.05Z" fill="#FBF9FA"/><path d="m22.472 29.164.05.1-.3.3-.1.948-.15.45-.349.499-.3.2-.15.05h-.549l-.45-.2-.249-.25-.3-.35-.2-.499-.05-.25v-.35l-.199-.05v-.099l.25.05h.649l.55-.15.149-.05.25.1h.649l.5-.2.299-.25Zm-1.898.549-.649.2-.25.3-.05.349.15.3.3.399.35.25.3.1h.349l.35-.15.349-.4.2-.45.05-.299-.15-.35-.15-.15-.65-.05-.499-.05Z" fill="#180E0A"/><path d="m13.783 22.971.05.2-.45.749-.15.05-.1.2-.15.15-.399.948-.649 1.249-.4.649-.2.35-.149-.05.1-.25.1-.2-.75.15-.698.1h-.3l-.05-.1.35-.7.25-.149-.1.25-.3.549.599-.15.949-.15.25-.05.1-.3.649-1.198.3-.599-.25.1.1-.2.2-.25.399-.35.45-.598.249-.4Z" fill="#130905"/><path d="M24.769 14.532h.2l-.1.2-.45.3-.599.299-.799.2h-.849l-.25-.05v-.1l.7-.3 1.398-.4.749-.15Z" fill="#FEBE00"/><path d="M12.634 22.272h.3l-.05.2-.4.3-.25.15h-.1l-.099.399-.1.1-.2-.1v-.1l.1-.05h-.899l-1.098-.25v-.05l1.048-.15 1.249-.3.5-.149Z" fill="#C14600"/><path d="m24.32 23.87.35.05.349.2.3.4.2.549.049.25v1.048l-.2.75-.25.448-.349.4-.5.25h-.349l-.4-.25-.299-.35-.25-.699-.05-.4v-.499l.1-.599.25-.649.35-.5.399-.299.3-.1Zm-.1.15-.4.2v.1l-.25.15-.3.599-.199.649-.05.699.15.799.2.45.4.349.1.05h.449l.4-.2.349-.4.25-.499.15-.55v-1.098l-.15-.549-.3-.45-.3-.25-.1-.05h-.4Z" fill="#080706"/><path d="M29.363 14.582h.1l.2.649-.05.2-.15-.4-.1.15-.3.4-.599.399-.599.25-.699.399-.25.2-.1-.05.35-.4.35-.3.649-.449.699-.5.35-.299.15-.25Z" fill="#FEBB00"/><path fill-rule="evenodd" clip-rule="evenodd" d="M19.176 1.848h1.498l1.349.1 1.098.15 1.648.399 1.348.45.75.299.599.25 1.398.749.45.3.698.449.5.4.5.349v.1l-.4.25h-.1v.1l-.5.349-.449.35-.5.449-.399.35-.2.15-.25-.1-.499-.35-.649-.4-1.398-.699-1.049-.4-.799-.25-1.298-.299-1.099-.15-.699-.05h-1.598l-1.149.1-1.148.2-1.298.35-.95.35-.948.399-.75.4-.498.299-.75.5-.4.299-.648.5-.75.698-.649.65-.3-.1-.948-.5-.899-.4-.55-.249-.299-.1.1-.25.4-.449.35-.4L8.19 6.293l.55-.45.498-.399.85-.6.699-.449.499-.3 1.248-.648 1.049-.45 1.198-.4.85-.249 1.448-.3 1.198-.15.899-.05Zm15.68 8.19.2.35.4.648.35.7.05.1.349.748.4 1 .399 1.198.3 1.198.25 1.299.099.948v.117l.05.532v2.098l-.15 1.598-.35 1.798-.35 1.198-.449 1.249-.35.799-.399.799-.35.649-.399.649-.3.45-.349.499-.4.55-.299.399-.25.25-.35.399-.599.6-.2.249-.399.35-.45.399-.548.45-.9.648-.848.55-.9.5-.798.399-1.149.499-1.348.45-1.198.3-1.499.249-.948.1h-2.547l-1.199-.15-1.448-.25-1.298-.35-.55-.2-.799-.299-.899-.4-.799-.399-.898-.5-.25-.199-.35-.2-1.098-.799-.7-.599-.399-.35-1.198-1.198-.9-1.099-.648-.898-.4-.65-.45-.799-.599-1.148-.45-1.099-.349-1.049-.3-1.048-.249-1.149-.15-1.098-.05-.6v-.1l-.05-.699v-1.498l.15-1.748.054-.338-.004-.011.03-.153.07-.446.092-.4.058-.3.052-.195-.002-.004.043-.156.057-.244.218-.735.031-.114.017-.05.133-.45.4-.998.05-.05h.05l.15 1.698.349 1.848.45 1.598.449 1.198.3.65.05 1.098.15 1.348.199 1.049.15.6.05.449.25.5.249.748.4.899.449.849.55.899.399.55.45.598.449.5.35.4.399.399v.1l.2.1.599.549.45.35.548.399.7.45.799.449.799.4.699.299 1.198.4.949.25 1.448.249.6.05h2.147l.849-.1 1.398-.25 1.398-.4 1.348-.549.95-.499.748-.45.5-.349.549-.4.55-.449.549-.5h.1l.1-.2.25-.199.349-.4.549-.648.5-.65.549-.849.4-.699.549-1.049.449-1.148.35-1.198.2-.75.199-1.498.05-.599v-1.898l-.05-1.098.25-.949.2-1.248.1-.8v-2.446l-.086-.729-.214-1.668v-.2l.2.2Z" fill="url(#FOXY__d)"/><path d="m32.61 22.023.499.15.549.349.3.3-.05.25-.35.399-.4.4-.549.449-.55.4-.748.349-.35.1.15.2-.05.1-.2-.05.05-.05-.499-.25-.4-.15v-.1l.55.1.25.05.599-.2.599-.3.4-.3h.1v-.1l.449-.349.599-.549.2-.25-.1-.2-.25-.2-.699-.349-.15-.1.05-.1Z" fill="#130A06"/><path d="M16.18 24.72h.5l.299.15.05.099-.25-.05-.1-.05h-.4l-.349.15-.25.25-.25.35-.15.498v1.199l.15.6.3.499.3.25.25.1h.549l.3-.15.3-.4.199-.6.05-.349.1-.05v.45l-.25.649-.2.3-.45.299-.149.05h-.35l-.499-.2-.25-.2-.3-.499-.199-.7-.05-.349v-.599l.2-.799.25-.45.4-.349.249-.1Z" fill="#0B0909"/><path d="M7.241 23.52h.3l-.05.1-.65.2-.449.2h-.1l.15.25.35.35.499.399.55.35.798.399.75.25 1.098.05-.25.299-.25.1.1-.2-.05-.05-.799-.05-.749-.25-.499-.25-.65-.399-.499-.4-.499-.449-.2-.25.05-.2.4-.249.649-.2Z" fill="#150E0A"/><path d="m28.115 22.672.2.1.35.15-.15.05v.1l.499-.05.1.1.05.698.05.25-.05.55-.15-.15-.5-.95-.1-.199h-.15l-.2-.5.05-.15Z" fill="#C14500"/><path d="M32.66 17.928h.1l-.15.549-.45 1.049-.5.899-.449.649-.45.5-.349.399-.5.45-.349.249-.15-.05v-.1l.3-.15.65-.6.399-.399.35-.449.349-.5.45-.848.598-1.448.05-.15.1-.05Z" fill="#160C08"/><path d="m17.778 23.17.35.05.349.25.3.45.05.15v.4l-.35-.05-.3-.25-.35-.45-.1-.2v-.3l.05-.05Z" fill="#FCE5CB"/><path d="M20.325 27.715h.998l.4.2.05.35-.15.25-.25.299-.549.35-.1.05h-.35l-.599-.25-.4-.4-.1-.35.1-.15.15.05-.05.25.2.3.35.25.6.15.399-.25.4-.3.149-.25-.05-.249-.2-.1h-1.298l.05-.15.25-.05Z" fill="#0A0706"/><path d="m28.714 24.57.2.2.3.548.3.4.299.2v.15l-.8.15-.349-1.3.05-.349Z" fill="#FD4300"/><path d="m8.54 23.62.399.3.899.5.25.1v.05l-.4-.05-.55-.2-.399-.35-.3.05-.549.15h-.65l-.149-.1v-.1l.7-.2.748-.05v-.1Z" fill="#FE4200"/><path d="m29.363 14.382.2.05.15.45v.1l-.15.049-.1-.45h-.1l-.1.25-.649.55-.749.499-.6.45-.349.299-.2.1.05-.2.3-.25.2-.25.5-.349.798-.55.4-.299.25-.25.15-.2Z" fill="#0F0A07"/><path d="m19.725 11.685.1.05-.25.3-.599.35-.5.35-.548.399-.5.45-.25.249-.399.45-.3.449-.05-.1.4-.65.05-.05.05-.748.15-.1.05.55.499-.5.5-.4.748-.5.85-.549Z" fill="#100A07"/><path d="m21.623 22.872.2.05v.449l-.2.5-.25.249h-.25l-.05-.45.15-.399.3-.35.1-.05Z" fill="#FBE5CB"/><path d="m12.434 22.722.05.1-.25.25-.199.648-.05.3-.05.8.4-.2.15-.15.1.05-.15.15-.15.249-.2.1h-.25l-.1-.2v-.55l.15-.648.05-.1-.3-.1-.1-.05-.549-.05.15-.15.75-.05-.05.1h-.1v.1l.2.05.099-.2.1-.25.3-.2Z" fill="#1C0C06"/><path d="m29.613 14.981.15.05.2.7.05.399v.899l-.2.799-.2.5-.25.1.1-.25.2-.55.1-.45V15.98l-.15-.749v-.25Z" fill="#160E0B"/><path d="m31.111 26.117.15.05-.25.6-.5.948-.498.7h.15l.648-.25.25.05-.05.1-.25.05-.748.299-.45.1v-.15l.45-.45.449-.699.4-.799.25-.549Z" fill="#14100D"/><path d="m11.286 26.966.15.05-.3.5-.15.15-.45-.05-.598-.25v-.15l1.248-.2.1-.05Z" fill="#F8F5F6"/><path d="m29.713 19.775.25.05.4.2-.1.2-.65.45-.35.1.05-.35.35-.6.05-.05Z" fill="#FE4300"/><path d="m19.675 20.524.2.2.55 1.149.2.4-.05.199-.85-1.698-.25.6-.299.898-.15.5.3.499.4.799h-.1l-.5-.899-.2-.3.05-.449.45-1.348.2-.5.05-.05Z" fill="#120905"/><path d="M28.664 19.326h.8l.549.2.499.3v.149l-.15.1-.849-.4-.35-.1-.649-.1.15-.15Z" fill="#FEA600"/><path d="M7.64 23.57h.85l.05.15-.75.1-.998.25-.35.1-.05.1-.1-.1v-.15l.8-.35.548-.1Z" fill="#FC9300"/><path d="m9.288 21.773.3.05.3.25.2-.1h.15l-.2.2-.15.25-.3.349v.05l1.548.35.35.05v.05h-.85l-.948-.25-.3-.15.1-.3.3-.3v-.1l-.5-.35v-.05Z" fill="#0F0804"/><path d="m16.58 11.186.15.05.249 1.049.05.3v1.198h-.05l-.05-.6-.15-.848-.15-.7-.25.7-.15-.05.15-.55.15-.499.05-.05Z" fill="#0E0906"/><path d="m8.54 23.92.249.05.05.1-.45.2-.449.1h-.7l-.448-.1-.15-.1v-.1l.45-.1.149.15h.65l.648-.2Z" fill="#FE6500"/><path d="m23.92 24.02.15.05-.25.25.2.05-.4.1-.3.599-.199.649-.05.699.15.799.15.45-.15-.05-.25-.7-.05-.4v-.498l.1-.6.25-.649.35-.5.3-.249Z" fill="#16100B"/><path d="M13.833 23.121h.05v.45l-.15.499-.35.3-.45.1.05-.2.25-.3.2-.2.4-.649Z" fill="#C14600"/><path d="m5.194 18.677.15.05.399.899.5.948.299.5.2.3v.1l-.2-.05-.65-1.1-.399-.798-.3-.7v-.15Z" fill="#140B08"/><path d="M29.663 25.518h1.099l.449.1-.1.1-1.099.3-.35-.45v-.05Zm1.548.25.05.1-.6.3-.848.249-.8.1h-.499l.05-.1 1.498-.3 1-.3.149-.05Z" fill="#F7F4F4"/><path d="M15.88 22.672h.45l.499.2.6.499.549.799.599 1.099.35.699-.05.15-.55-1.1-.4-.698-.449-.65-.15-.2v-.099l-.2-.1-.299-.25-.5-.2h-.449l-.4.1.15-.15.25-.1Z" fill="#271912"/><path d="m19.526 30.512.15.05.15.3.299.399.3.2.3.1h.349l.35-.15.299-.35.2-.3.05.2-.35.5-.3.2-.15.05h-.549l-.45-.2-.249-.25-.3-.35-.1-.25v-.15Z" fill="#160F0B"/><path d="m32.61 22.023.499.15.549.349.3.3-.05.25-.35.399-.4.4-.25.099.3-.4.5-.499.05-.2-.35-.3-.699-.349-.15-.1.05-.1Z" fill="#100B09"/><path d="M32.01 22.072h.35l.599.2.599.35.25.25-.05.15-.45-.25-.749-.4-.549-.15v-.15Z" fill="#FB8200"/><path d="m31.46 20.424.15.05-.35.55-.498.549-.35.4-.5.449-.349.25-.15-.05v-.1l.3-.15.65-.6.399-.399.35-.45.349-.499Z" fill="#170D0A"/><path d="m12.884 24.52.05.2-.25.748-.4.75-.299.449-.2.25-.1-.05.85-1.598.349-.75Z" fill="#FFBA00"/><path d="m28.065 20.974.25.05.449.4.3.598.3.8.05.15h-.15l-.8-1.599-.4-.35v-.05Z" fill="#FEA200"/><path d="m13.783 22.971.05.2-.45.749-.15.05-.1.2-.15.15-.149.399-.2-.05-.25.1.1-.2.2-.25.4-.35.45-.598.249-.4Z" fill="#150804"/><path d="m10.187 27.715.3.05.699.2 1.348.25v.05h-1.148l-.65-.2-.499-.25-.05-.1Z" fill="#F8F4F5"/><path d="m27.016 21.123.1.05.25.6.4.45.1.05v.099l.199.1.55.3-.05.15-.3-.15-.15-.1v.15h-.1l-.15-.3-.4-.35-.299-.45-.15-.399v-.2Z" fill="#1C0D08"/><path d="m19.176 29.663.25.05.699.05v.1l-.3.2-.2.449h-.15l-.1-.35v-.35l-.199-.049v-.1Z" fill="#110B09"/><path d="m16.979 24.969.25.1.3.4.199.498.1.75v.449l-.15.1-.05-.7-.1.1.05-.499-.2-.699-.25-.3v-.1l-.15-.05v-.05Z" fill="#16110C"/><path d="M11.436 17.877h.45l.598.15.65.25h.15l.1.2-.1.1-.5-.25-.949-.25-.4-.1v-.1Z" fill="#0E0A08"/><path d="m28.814 22.072.15.2.25.5.05.2-.65-.15.05-.55.15-.2Z" fill="#FC4200"/><path d="m28.415 23.67.15.15.599 1.149.499.749-.05.1-.25-.25-.35-.5-.399-.798-.2-.5v-.1Z" fill="#FE9C00"/><path d="m19.376 28.065.15.05-.05.25.2.3.349.249.6.15.299-.1v.15l-.2.1h-.35l-.599-.25-.4-.4-.1-.35.1-.15Z" fill="#0C0A08"/><path d="m19.376 28.564.35.3.499.25.15.05h.35l.498-.3.3-.2-.1.2-.25.25-.25.2-.149.05h-.35l-.449-.2-.35-.2-.25-.3v-.1Z" fill="#B896A1"/><path d="m31.061 25.368.2.05.2.25-.1.3-.1.15h-.1l.1-.35-.15-.05-.05-.1-.3-.05-1.048-.05-.05-.1h1.198l.2.05v-.1Z" fill="#060605"/><path d="M11.386 21.473h.35l-.15.1-.65.25-.599.35-.4.349-.25.25-.099-.05.1-.15h.1l.1-.2.499-.45.799-.399.2-.05Z" fill="#FB9C00"/><path d="M17.029 13.084h.05l.05.549.499-.5.1.05-.2.3-.6.6-.449.648-.05-.1.4-.649.05-.05.05-.749.1-.1Z" fill="#21130D"/><path d="m24.32 23.87.35.05.349.2.3.4.2.549.05.45h-.1l-.2-.75-.3-.45-.25-.2-.1-.05h-.599v-.099l.3-.1Z" fill="#0D0A08"/><path d="m26.966 21.173.1.15.25.6.4.449.2.2-.4-.1-.3-.25-.2-.4-.05-.15v-.499Z" fill="#C14600"/><path d="m8.74 25.868.498.1.15.05 1.099.05-.25.3-.25.099.1-.2-.05-.05-.799-.05-.499-.15v-.15Z" fill="#130D0A"/><path d="m31.111 26.117.15.05-.25.6-.5.948-.199.25-.15.05.1-.2.4-.7.45-.998Z" fill="#16110D"/><path d="M23.77 9.588h.05v.5l-.25 1.398-.15-.05.25-1.748.1-.1Z" fill="#140C08"/><path d="M10.237 29.164h.25l-.1.2 1.099.898.3.2-.05.15-.5-.35-.75-.649v-.1l-.199-.1-.1-.2.05-.05Z" fill="#17110C"/><path d="m8.59 23.67.549.35.699.4.25.1v.05l-.4-.05-.55-.2-.499-.45-.05-.2Z" fill="#C14600"/><path d="m29.563 19.675.2.1-.25.4-.2.4-.05.249-.25.05.05-.35.4-.699.1-.15Z" fill="#FD6400"/><path d="m30.012 24.87.55.099.25.05.499-.1v.15l-.35.1.15.2-.05.1-.2-.05.05-.05-.499-.25-.4-.15v-.1Z" fill="#210F08"/><path d="m9.538 22.971.2.05-.05.25-.45.5-.2.1-.05-.2.4-.4.15-.3Z" fill="#FE6300"/><path d="M28.614 21.773h.1l.1.2-.2.799-.25-.1.15-.75.1-.15Z" fill="#FF6500"/><path d="m16.58 11.186.15.05.099.45h-.1l-.05.1-.05-.15-.25.699-.15-.05.15-.55.15-.499.05-.05Z" fill="#110C0A"/><path d="M6.941 23.72h.25l.05.25-.799.2-.05.1-.1-.1v-.15l.65-.3Z" fill="#FCA200"/><path d="M22.122 29.563h.05v.6l-.15.698-.15-.05.1-.499-.05-.4-.15-.2.25-.05.05.05.05-.149Z" fill="#22160F"/><path d="m19.176 21.922.05.2-.2.55.1.25.6 1.098-.1.05-.5-.9-.2-.299.05-.45.2-.499Z" fill="#140804"/><path d="m10.137 26.317.05.1-.3.5-.1.199.4-.05.05.15-.6.05-.049-.1.35-.7.2-.15Z" fill="#120C09"/><path d="m11.785 30.512.25.1.5.3.499.249-.05.15-.3-.1-.899-.55v-.15Z" fill="#120E0C"/><path d="m29.813 24.819.2.05v.1l.549.15.4.25v.05l-.5-.05-.45-.3-.2-.15v-.1Z" fill="#FB7E00"/><path d="M20.624 22.672h.05l-.05.5-.45 1.447-.149.15-.05-.15h.1l.05-.3.5-1.647Z" fill="#150A06"/><path d="m32.16 19.226.05.15-.4.799-.15.25h-.15l.1-.3.4-.8.15-.099Z" fill="#150C08"/><path d="m21.923 30.762.05.2-.35.499-.3.2-.15.05h-.399v-.1l.6-.15.349-.4.2-.3Z" fill="#120D0A"/><path d="m30.112 20.274.1.05-.15.25-.699.35-.25.05-.05-.15.65-.25.4-.3Z" fill="#170D08"/><path d="M10.787 26.916h.399v.15l-.55.1h-.499l.05-.15.6-.1Z" fill="#100906"/><path d="m28.115 22.672.2.1.35.15-.15.05.05.2h-.2v.15h-.1l-.2-.5.05-.15Z" fill="#1F110B"/><path d="m23.92 24.02.15.05-.25.25.2.05-.4.1-.3.599-.149.05.05-.25.35-.55.35-.299Z" fill="#16110D"/><path d="m31.46 20.424.15.05-.35.55-.399.449-.1-.1.35-.45.35-.499Z" fill="#180E0A"/><path d="M10.137 23.021h.35l.999.2v.05h-.85l-.449-.1-.05-.15Z" fill="#150804"/><path d="M7.24 23.52h.3l-.05.1-.649.2-.35.15-.149-.05.15-.15.5-.2.249-.05Z" fill="#140D09"/><path d="m30.062 19.576.4.2.1.15-.2.15-.5-.25.2-.25Z" fill="#FC9300"/><path d="m27.516 25.318.1.15.2.75v.149l.798-.05v.1l-.25.05h-.549l-.15-.35-.15-.599v-.2Z" fill="#20130D"/><path d="m18.926 26.117.2.25.35.899.2.55-.05.149-.6-1.498-.1-.2v-.15Z" fill="#2D1C14"/><path d="m9.039 23.87.25.1.349.25.5.25-.15.05-.8-.4-.25-.2.1-.05Z" fill="#250F08"/><path d="M16.18 24.72h.5l.299.15.05.099-.25-.05-.1-.05h-.4l-.349.15h-.15l.25-.25.15-.05Z" fill="#0A0807"/><path d="m11.685 23.121.2.05-.15.05v.1l.2.05v.15l-.3-.1-.1-.05-.549-.05.15-.15.55-.05Z" fill="#230F08"/><path d="m30.861 28.265.15.05-.2.25-.749.15.1-.15.7-.3Z" fill="#EFE6E7"/><path d="m23.221 25.069.05.15-.15.499-.1.7h-.05v-.8l.15-.5.1-.05Z" fill="#070605"/><path d="m18.327 12.585.1.05v.15l-.3.199-.45.35v-.15l.3-.35.35-.25Z" fill="#170E09"/><path d="M29.114 26.168h.35v.1l-.35.1-.5.05v-.1l-.15-.05.65-.1Z" fill="#140B08"/><path d="m33.059 23.67.1.05-.2.25-.25.25-.3.25v-.25h.1v-.1l.45-.35.1-.1Z" fill="#1A0D08"/><path d="m22.771 14.881.15.05.05.1-.699.25-.2-.05.15-.15.55-.2Z" fill="#0E0A08"/><path d="m20.075 28.964.55.1.299-.1v.15l-.2.1h-.35l-.3-.1v-.15Z" fill="#0E0A07"/><path d="M17.728 27.216h.05v.45l-.25.648-.05.1-.15-.05.2-.4.15-.698.05-.05Z" fill="#090707"/><path d="m21.723 10.437.1.05-.1.2-.65.4-.05-.1.25-.25.45-.3Z" fill="#130D09"/><path d="m22.472 29.164.05.1-.25.25-.15.05v.448h-.05l-.05-.3h-.25l.05-.149.4-.2.25-.2Z" fill="#0D0B09"/><path d="m10.337 26.168.15.05-.4.549-.2.35h-.1l.1-.3.35-.55.1-.1Z" fill="#FDB400"/><path d="M11.386 21.473h.35l-.15.1-.65.25-.25.05.05-.15.45-.2.2-.05Z" fill="#FFB700"/><path d="m12.434 22.722.05.1-.25.25-.199.549h-.1l.05-.3.1-.3.2-.2.15-.1Z" fill="#1B0D08"/><path d="M28.664 19.326h.6l-.1.2h-.45l-.2-.1.15-.1Z" fill="#FFBD00"/><path d="M23.67 10.387h.05l-.05.55-.1.549-.15-.05.1-.7.15-.349Z" fill="#170F0B"/><path d="m28.614 22.821.6.1-.05.15h-.35l-.35.05.05-.15.1-.05v-.1Z" fill="#190B06"/><path d="m5.194 18.677.15.05.299.699h-.15l-.3-.6v-.15Z" fill="#120906"/><path d="m12.684 18.127.45.15h.15l.1.2-.1.1-.5-.25-.15-.1.05-.1Z" fill="#1D1411"/><path d="M25.218 27.166h.1l-.1.25-.35.45-.249.149.1-.25.25-.25.25-.349Z" fill="#0F0B08"/><path d="M23.121 12.834h.05l-.05.4-.2.449h-.1l.1-.45.15-.35.05-.049Z" fill="#0E0A08"/><path d="m9.488 22.722.1.1.65.15-.1.05v.1l-.6-.15-.15-.1v-.1l.1-.05Z" fill="#1F0D07"/><path d="m9.538 17.778.1.05.1.5.15.399-.05.15-.25-.55-.1-.45.05-.1Z" fill="#FFAE00"/><path d="m29.363 14.382.2.05.15.45v.1l-.15.049-.1-.3v-.2h-.15l.05-.15Z" fill="#0F0B09"/><path d="m19.526 30.512.15.05.299.599-.2-.05-.2-.3-.05-.3Z" fill="#180C07"/><path d="m19.476 29.863.3.05-.05.3-.1.15-.1-.05-.05-.45Z" fill="#291A0F"/><path d="m22.172 14.881.05.1-.1.25v.1l-.35.1.1-.25.2-.25.1-.05Z" fill="#180E09"/><path d="m21.673 29.613.15.05.1.2v.2l-.2-.2-.65-.05v-.05l.45-.05.15-.1Z" fill="#260D07"/><path d="m10.137 26.317.05.1-.3.5-.1.099h-.1l.1-.3.15-.25.2-.15Z" fill="#130B08"/><path d="M22.771 13.683h.15l-.15.5-.15.15-.1-.05.1-.3.15-.3Z" fill="#180F0A"/><path d="m31.81 24.62.1.05-.05.149-.4.2-.2-.05.15-.15.4-.2Z" fill="#160B08"/><path d="M34.157 9.938h.05l.1.449v.55l-.1-.2-.1-.45.05-.35Z" fill="#3C2B1C"/><path d="m12.434 30.911.3.1.3.15-.05.15-.3-.1-.25-.15v-.15Z" fill="#14100C"/><path d="m29.813 24.819.2.05v.1h.1v.1l.299.1.25.2-.3-.05-.55-.4v-.1Z" fill="#FB4200"/><path d="m13.783 22.971.05.2-.3.5h-.15l.1-.25.3-.45Z" fill="#260F08"/><path d="m29.114 22.322.1.15.2.5h-.15l-.3-.6.15-.05Z" fill="#FD8C00"/><path d="M9.588 26.067h.899l-.25.3-.25.1.1-.2.15-.05v-.1h-.649v-.05Z" fill="#27140D"/><path d="m16.979 24.969.25.1.3.4.049.199-.1.1-.2-.45-.15-.15v-.1l-.15-.05v-.05Z" fill="#191410"/><path d="m30.811 28.165.25.05-.05.1-.25.05-.349.15-.15-.05.2-.15.35-.15Z" fill="#15110F"/><path d="M32.66 17.928h.099l-.15.549h-.15l-.05-.1.15-.4.1-.05Z" fill="#1A0F0B"/><path d="m23.32 12.185.05.15-.149.599-.15-.05.1-.5.15-.2Z" fill="#1A110C"/><path d="M10.237 29.164h.25l-.1.2.35.299-.1.1-.15-.15v-.1l-.2-.1-.1-.2.05-.05Z" fill="#1F1916"/><path d="m15.73 24.969.1.05v.1l-.45.449v-.15l.3-.4.05-.05Z" fill="#140F0B"/><path d="m12.035 22.971.1.05-.15.4-.25-.1v-.1l.1-.1.2-.15Z" fill="#79645B"/><path d="M29.863 22.222h.15l-.1.2-.35.25-.15-.05v-.1l.3-.15.15-.15Z" fill="#1A100B"/><path d="m9.288 21.773.3.05.4.3-.15.1-.55-.4v-.05Z" fill="#1A0E0A"/><path d="m34.657 9.838.2.2.1.25-.25.1-.05-.55Z" fill="#FFAE00"/><path d="m21.373 31.46.05.15-.25.1h-.399v-.1l.6-.15Z" fill="#0D0806"/><path d="M19.376 29.813h.05v.25h.1v.249h.1v.2h-.15l-.1-.35v-.35Z" fill="#100F0F"/><path d="m10.687 29.713.2.05.399.35-.1.1-.5-.4v-.1Z" fill="#141212"/><path d="m28.115 22.672.2.1.35.15-.15.1h-.25l-.15-.35Z" fill="#B5929A"/><path d="M29.663 17.877h.05l-.05.35-.15.15-.15.05.1-.25.2-.3Z" fill="#140D0A"/><path d="M4.145 10.337h.05v.45l-.1.249h-.05v-.5l.1-.2Z" fill="#3B2A1B"/><path d="M23.77 9.039h.1v.649l-.15-.05v-.55l.05-.05Z" fill="#0F0A07"/><path d="m12.434 30.262.3.1.4.15v.05l-.4-.05-.4-.15.1-.1Z" fill="#201812"/><path d="m23.021 26.966.05.1h.1l.2.5v.1l-.15-.05-.2-.5v-.15Z" fill="#100C0A"/><path d="M7.24 23.52h.3l-.05.1-.399.1-.2-.05.1-.1.25-.05Z" fill="#0D0907"/><path d="m20.225 21.723.15.05.25.499-.05.2-.35-.7v-.05Z" fill="#0D0603"/><path d="m11.885 21.373.25.1.35.2-.15.05-.4-.2-.3-.05v-.05l.25-.05Z" fill="#26140C"/><path d="m32.31 18.827.05.2-.1.25-.2.049.15-.45.1-.05Z" fill="#170D0A"/><path d="m8.64 23.57.199.1.2.15v.1l-.25-.05-.15-.15v-.15Z" fill="#1C0A05"/><path d="m27.016 21.123.1.05.2.55h-.15l-.15-.4v-.2Z" fill="#2E1109"/><path d="m31.061 21.024.15.05-.35.4-.1-.1.3-.35Z" fill="#1B100B"/><path d="m29.463 20.674.1.05.05.1-.5.15-.05-.15.4-.15Z" fill="#1E110C"/><path d="M16.43 11.785h.05l-.05.4-.1.15-.1-.05.15-.45.05-.05Z" fill="#130B07"/><path d="m29.263 25.368.2.05.2.3-.05.1-.25-.25-.1-.2Z" fill="#FC8C00"/><path d="m28.364 23.221.15.15.1.3-.15.05-.15-.3.05-.2Z" fill="#240C06"/><path d="m10.886 21.473.15.05-.15.2-.3.05.15-.25.15-.05Z" fill="#110B08"/><path d="m23.72 8.989.15.05-.3.25-.2.2v-.15l.25-.25.1-.1Z" fill="#180D09"/></g><path d="M39.5 20A19.5 19.5 0 1 1 .499 20 19.5 19.5 0 0 1 39.5 20Z" stroke="#000" stroke-opacity=".02"/></g><defs><linearGradient id="FOXY__b" x1="20" y1="0" x2="20" y2="40" gradientUnits="userSpaceOnUse"><stop stop-color="#FEAA02"/><stop offset="1" stop-color="#FE3800"/></linearGradient><linearGradient id="FOXY__d" x1="19.925" y1="1.848" x2="19.925" y2="38.003" gradientUnits="userSpaceOnUse"><stop stop-color="#FEA602"/><stop offset="1" stop-color="#F93801"/></linearGradient><clipPath id="FOXY__a"><path fill="#fff" d="M0 0h40v40H0z"/></clipPath><clipPath id="FOXY__c"><path fill="#fff" d="M0 0h40v40H0z"/></clipPath></defs></svg>