<svg width="40" height="40" viewBox="0 0 40 40" fill="none" xmlns="http://www.w3.org/2000/svg">
<g clip-path="url(#clip0_2615_16505)">
<path d="M20 40C31 40 40 31 40 20C40 9 31 0 20 0C9 0 0 9 0 20C0 31 9 40 20 40Z" fill="#040708"/>
<path fill-rule="evenodd" clip-rule="evenodd" d="M9.73271 9.53981C8.94291 10.3702 8.29819 11.0715 8.29013 11.0877C8.29013 11.1038 8.99127 11.8132 9.86165 12.6436L10.4258 13.1837L11.3526 14.0867C10.1824 15.7864 9.54247 17.7951 9.51378 19.8586C9.48509 21.9222 10.0689 23.948 11.1914 25.6795C10.869 26.0262 10.3452 26.5905 9.74882 27.2113L8.07253 29.001L8 29.0816C8 29.0977 10.6756 31.7098 10.9255 31.9194L11.0222 32L12.5373 30.4118L14.1491 28.7027C15.8627 29.8634 17.8829 30.4877 19.9523 30.4963C22.0218 30.5049 24.047 29.8974 25.7703 28.7511C26.4876 29.4525 29.0745 31.9436 29.1068 31.9597C29.1309 31.9678 32.008 28.9365 32 28.8962C31.9919 28.872 30.0174 26.9614 28.8166 25.8166L28.7602 25.7602C29.8904 24.0496 30.4916 22.0439 30.4887 19.9935C30.4859 17.9432 29.879 15.9391 28.7441 14.2318L30.1867 12.7C30.7584 12.1155 31.3146 11.516 31.8549 10.9023C30.87 9.92239 29.8651 8.96283 28.8408 8.02419C28.8166 8.02419 28.0752 8.782 27.1968 9.71717C26.5762 10.3782 26.0282 10.9587 25.7461 11.2408C24.066 10.1305 22.1004 9.53058 20.0868 9.51341C18.0732 9.49624 16.0977 10.0626 14.3989 11.1441L14.3506 11.0957L13.7864 10.5556L12.8999 9.70104L11.4412 8.29023L11.1511 8L9.73271 9.53174V9.53981ZM20 26.4535C21.7099 26.4535 23.3498 25.774 24.5589 24.5645C25.768 23.355 26.4473 21.7145 26.4473 20.004C26.4473 18.2935 25.768 16.6531 24.5589 15.4436C23.3498 14.2341 21.7099 13.5546 20 13.5546C18.2901 13.5546 16.6502 14.2341 15.4411 15.4436C14.232 16.6531 13.5527 18.2935 13.5527 20.004C13.5527 21.7145 14.232 23.355 15.4411 24.5645C16.6502 25.774 18.2901 26.4535 20 26.4535V26.4535Z" fill="white"/>
<path d="M39.5 20C39.5 23.8567 38.3563 27.6269 36.2137 30.8336C34.071 34.0404 31.0255 36.5397 27.4623 38.0156C23.8992 39.4916 19.9784 39.8777 16.1957 39.1253C12.4131 38.3729 8.93855 36.5157 6.21143 33.7886C3.4843 31.0615 1.62711 27.5869 0.874696 23.8043C0.122284 20.0216 0.508449 16.1008 1.98436 12.5377C3.46027 8.97451 5.95963 5.92903 9.16639 3.78634C12.3731 1.64365 16.1433 0.5 20 0.5C25.1717 0.5 30.1316 2.55446 33.7886 6.21142C37.4455 9.86837 39.5 14.8283 39.5 20Z" stroke="black" stroke-opacity="0.02"/>
</g>
<defs>
<clipPath id="clip0_2615_16505">
<rect width="40" height="40" fill="white"/>
</clipPath>
</defs>
</svg>
