<svg width="40" height="40" viewBox="0 0 40 40" fill="none" xmlns="http://www.w3.org/2000/svg">
<g clip-path="url(#clip0_1305_600)">
<path d="M20 40C31.0457 40 40 31.0457 40 20C40 8.9543 31.0457 0 20 0C8.9543 0 0 8.9543 0 20C0 31.0457 8.9543 40 20 40Z" fill="#1969FF"/>
<path d="M18.8083 6.53329C19.1759 6.36024 19.5771 6.27051 19.9833 6.27051C20.3896 6.27051 20.7908 6.36024 21.1583 6.53329L27.9667 10.1083C28.1361 10.1841 28.2849 10.2993 28.4009 10.4443C28.5168 10.5892 28.5965 10.7597 28.6333 10.9416V10.9416V28.95C28.6168 29.1534 28.5453 29.3485 28.4264 29.5144C28.3075 29.6802 28.1457 29.8107 27.9583 29.8916L21.15 33.4666C20.7825 33.6397 20.3812 33.7294 19.975 33.7294C19.5688 33.7294 19.1675 33.6397 18.8 33.4666L12 29.8916C11.8163 29.8086 11.6586 29.6771 11.5441 29.5112C11.4296 29.3452 11.3624 29.1512 11.35 28.95C11.3416 28.9228 11.3416 28.8938 11.35 28.8666V11.075C11.3454 11.0558 11.3454 11.0358 11.35 11.0166V10.9666C11.3804 10.7846 11.4558 10.613 11.5693 10.4675C11.6828 10.322 11.8308 10.2071 12 10.1333L18.8083 6.53329ZM27.5667 21L21.1583 24.3333C20.7908 24.5063 20.3896 24.5961 19.9833 24.5961C19.5771 24.5961 19.1759 24.5063 18.8083 24.3333L12.4167 21V28.9166L18.8083 32.25C19.1474 32.4559 19.5242 32.5919 19.9167 32.65H20C20.4009 32.6105 20.788 32.4824 21.1333 32.275L27.5833 28.8666L27.5667 21ZM10.2417 28.5583C10.2133 29.0501 10.2929 29.5422 10.475 30C10.6399 30.2951 10.8818 30.5399 11.175 30.7083V30.7083L11.45 30.8833L11.575 30.9583L11.9667 31.1916L11.4083 32.1L10.975 31.8416H10.9L10.5917 31.6666C9.55833 30.975 9.175 30.2166 9.16667 28.6416V28.5916L10.2417 28.5583ZM19.45 16.175L19.3083 16.2333L12.5 19.8166L19.3083 23.4L19.45 23.4583V16.175ZM20.525 16.175V23.4833L20.6583 23.425L27.5 19.8416L20.6917 16.2583L20.525 16.175ZM27.5667 12.2416L21.4583 15.45L27.5667 18.6583V12.2416ZM12.4167 12.2416V18.6416L18.5167 15.4416L12.4167 12.2416ZM20.6583 7.49996C20.4449 7.40919 20.2153 7.36241 19.9833 7.36241C19.7514 7.36241 19.5218 7.40919 19.3083 7.49996L12.5 11.0583L19.3083 14.6416C19.5218 14.7324 19.7514 14.7792 19.9833 14.7792C20.2153 14.7792 20.4449 14.7324 20.6583 14.6416L27.5 11.0833L20.6583 7.49996ZM28.575 7.89162L29.0083 8.15829L29.0833 8.19996L29.4083 8.40829C30.4417 9.09996 30.825 9.85829 30.8333 11.4333V11.475H29.7583C29.7931 10.972 29.7133 10.4676 29.525 9.99996C29.3622 9.70325 29.1198 9.45792 28.825 9.29162V9.29162L28.55 9.11662L28.425 9.04162L28.0333 8.80829L28.575 7.89162Z" fill="white"/>
<path d="M20 39.5833C30.8156 39.5833 39.5833 30.8155 39.5833 20C39.5833 9.18438 30.8156 0.416626 20 0.416626C9.18442 0.416626 0.416667 9.18438 0.416667 20C0.416667 30.8155 9.18442 39.5833 20 39.5833Z" stroke="black" stroke-opacity="0.02"/>
</g>
<defs>
<clipPath id="clip0_1305_600">
<rect width="40" height="40" fill="white"/>
</clipPath>
</defs>
</svg>
