<svg width="40" height="40" viewBox="0 0 40 40" fill="none" xmlns="http://www.w3.org/2000/svg">
<g clip-path="url(#clip0_2058_611)">
<path d="M20 40C23.9556 40 27.8224 38.827 31.1114 36.6294C34.4004 34.4318 36.9638 31.3082 38.4776 27.6537C39.9913 23.9992 40.3874 19.9778 39.6157 16.0982C38.844 12.2186 36.9392 8.65492 34.1421 5.85787C31.3451 3.06082 27.7814 1.15601 23.9018 0.384303C20.0222 -0.387401 16.0009 0.00866568 12.3463 1.52242C8.69181 3.03617 5.56824 5.59962 3.37061 8.8886C1.17298 12.1776 0 16.0444 0 20C0 25.3043 2.10714 30.3914 5.85786 34.1421C9.60859 37.8929 14.6957 40 20 40Z" fill="black"/>
<path d="M11.1358 8.6024L9.79492 9.94329L11.4914 11.6398L13.1916 13.3363L13.0508 13.7511C12.8693 14.2956 12.7953 14.7512 12.7953 15.355C12.7953 17.3219 13.825 18.9961 15.6474 19.9925C16.3808 20.3926 17.6402 20.8445 19.0367 21.2038C21.7629 21.9039 22.1815 22.0261 22.7186 22.278C23.452 22.6262 23.815 23.004 23.9669 23.5744C24.0335 23.8226 24.0298 24.3782 23.9631 24.6449C23.7928 25.2931 23.2408 25.9451 22.5556 26.3006C21.6296 26.7859 20.0183 26.9192 18.8033 26.6081C18.3514 26.497 17.7106 26.1821 17.3884 25.9191C16.7327 25.3783 16.2216 24.4449 15.9956 23.367C15.9586 23.1966 15.9289 23.0521 15.9252 23.0447C15.9141 23.0299 12.1211 23.4003 12.1026 23.4226C12.0878 23.4337 12.0989 23.5892 12.1248 23.767C12.2433 24.6227 12.5434 25.6413 12.8879 26.3488L13.0879 26.76L11.4396 28.4083L9.79492 30.0566L11.1395 31.4012L12.4804 32.7421L14.1806 31.0419L15.8771 29.3454L16.1697 29.4677C17.718 30.1196 20.0405 30.3233 22.2926 29.9974C22.8334 29.9196 23.615 29.7344 24.0261 29.5825L24.2706 29.4936L25.8967 31.1197L27.5191 32.7421L28.86 31.4012L30.2046 30.0566L28.697 28.549L27.1931 27.0452L27.382 26.6599C27.7747 25.871 27.9377 25.2005 27.971 24.2782C28.0303 22.5187 27.5747 21.1927 26.5375 20.1C25.4559 18.9628 24.2373 18.422 20.7961 17.5552C18.3699 16.9478 17.3254 16.5292 16.9105 16.0032C16.4994 15.4846 16.4623 14.7586 16.8216 14.2289C17.0291 13.9215 17.5402 13.5918 18.0958 13.4066C18.7218 13.1955 19.7738 13.0992 20.5554 13.1807C22.2037 13.3548 23.0334 14.0586 23.3964 15.5995C23.4409 15.7884 23.4816 15.9477 23.4853 15.9551C23.4927 15.9662 26.1745 15.8699 26.9783 15.8291L27.4376 15.8069L27.4117 15.4846C27.3598 14.829 27.2302 14.2438 26.9931 13.6326L26.8635 13.2881L28.534 11.6138L30.2046 9.94329L28.8637 8.5987L27.5191 7.25781L25.83 8.94689L24.1372 10.6397L23.7261 10.4841C22.7149 10.1063 21.737 9.93959 20.2961 9.89884C18.7218 9.8581 17.3402 10.0618 16.2808 10.4915L15.8882 10.6508L14.1843 8.95429L12.4804 7.25781L11.1358 8.6024Z" fill="white"/>
<path d="M39.5 20C39.5 23.8567 38.3563 27.6269 36.2137 30.8336C34.071 34.0404 31.0255 36.5397 27.4623 38.0156C23.8992 39.4916 19.9784 39.8777 16.1957 39.1253C12.4131 38.3729 8.93855 36.5157 6.21143 33.7886C3.4843 31.0615 1.62711 27.5869 0.874696 23.8043C0.122284 20.0216 0.508449 16.1008 1.98436 12.5377C3.46027 8.97451 5.95963 5.92903 9.16639 3.78634C12.3731 1.64365 16.1433 0.5 20 0.5C25.1717 0.5 30.1316 2.55446 33.7886 6.21142C37.4455 9.86838 39.5 14.8283 39.5 20Z" stroke="black" stroke-opacity="0.02"/>
</g>
<defs>
<clipPath id="clip0_2058_611">
<rect width="40" height="40" fill="white"/>
</clipPath>
</defs>
</svg>
