<svg width="40" height="40" viewBox="0 0 40 40" fill="none" xmlns="http://www.w3.org/2000/svg"><g clip-path="url(#G__a)"><path fill-rule="evenodd" clip-rule="evenodd" d="M20 0c11.047 0 20 8.954 20 20 0 11.047-8.953 20-20 20C8.954 40 0 31.047 0 20 0 8.954 8.954 0 20 0Z" fill="url(#G__b)"/><path d="M34.227 11.715a.743.743 0 0 0-1.028-.263l-19.097 11.6a6.49 6.49 0 0 1 5.73-9.537 6.47 6.47 0 0 1 4.067 1.43l-4.063 2.786 10.558-6.088a.476.476 0 1 0-.507-.802l-2.585 1.772a10.483 10.483 0 0 0-7.47-3.113C14.026 9.5 9.32 14.2 9.32 20c0 1.867.488 3.62 1.344 5.14l-5.355 3.25 5.497-3.006a10.508 10.508 0 0 0 9.026 5.115c5.806 0 10.513-4.7 10.513-10.5v-1.254c0-.982.399-2.239 1.813-2.995a.243.243 0 1 0-.236-.425l-12.536 7.23c1.4-.595 2.469-.956 3.887-1.24 2.954-.593 3.03.813 1.888 2.4-.764 1.062-2.49 2.768-5.327 2.768a6.49 6.49 0 0 1-5.496-3.03l19.603-10.718a.74.74 0 0 0 .286-1.021Z" fill="#fff"/><path d="M39.5 20A19.5 19.5 0 1 1 .499 20 19.5 19.5 0 0 1 39.5 20Z" stroke="#000" stroke-opacity=".02"/></g><defs><linearGradient id="G__b" x1="40" y1="0" x2="0" y2="40" gradientUnits="userSpaceOnUse"><stop offset=".362" stop-color="#010101"/><stop offset="1" stop-color="#E57536"/></linearGradient><clipPath id="G__a"><path fill="#fff" d="M0 0h40v40H0z"/></clipPath></defs></svg>