<svg width="40" height="40" viewBox="0 0 40 40" fill="none" xmlns="http://www.w3.org/2000/svg">
<g clip-path="url(#clip0_1731_644)">
<path d="M20 40C23.9556 40 27.8224 38.827 31.1114 36.6294C34.4004 34.4318 36.9638 31.3082 38.4776 27.6537C39.9913 23.9992 40.3874 19.9778 39.6157 16.0982C38.844 12.2186 36.9392 8.65492 34.1421 5.85787C31.3451 3.06082 27.7814 1.15601 23.9018 0.384303C20.0222 -0.387401 16.0009 0.00866568 12.3463 1.52242C8.69181 3.03617 5.56824 5.59962 3.37061 8.8886C1.17298 12.1776 0 16.0444 0 20C0 25.3043 2.10714 30.3914 5.85786 34.1421C9.60859 37.8929 14.6957 40 20 40Z" fill="#F3F3F3"/>
<path fill-rule="evenodd" clip-rule="evenodd" d="M9 26.2323C9.3 26.3987 9.7 26.6482 10 26.8457C10.1062 26.9245 10.2164 26.9973 10.33 27.064L10.49 27.1576L10.57 27.2095H10.66L14.31 29.5486L14.47 29.6526L17.78 31.7317L17.87 31.7837L19.45 32.8233C19.52 32.8233 19.55 32.9065 19.63 32.9169V20.1092L19.13 19.8077L19.01 19.7349L18.61 19.5062C18.05 19.1944 17.53 18.8201 16.97 18.4666L16.83 18.3835L16.33 18.082C16.2 18.0092 15.64 17.6558 15.54 17.635V19.6622L17.6 20.8993L17.75 20.9928C17.81 20.9928 17.83 21.0552 17.91 21.0656V29.7773C17.54 29.5278 17.16 29.2991 16.79 29.0704L15.89 28.4986C15.53 28.2387 15.13 28.0308 14.77 27.7709L14.66 27.7085L13.86 27.2719L13.63 27.1264C13.34 26.9185 13.03 26.7417 12.73 26.5442L12.51 26.3987C12.07 26.0972 11.6 25.8165 11.15 25.5358L11.05 25.463L10.7 25.1928V14.7969C10.6328 14.7472 10.5627 14.7021 10.49 14.6618L10.29 14.537L9.22 13.8717L9 13.7573V26.2323Z" fill="#060606"/>
<path fill-rule="evenodd" clip-rule="evenodd" d="M20.65 20.0884V25.0368L21.28 24.673C21.57 24.517 21.83 24.3195 22.12 24.1636L22.23 24.0908L22.34 24.0388V21.1176C22.3792 21.1291 22.4208 21.1291 22.46 21.1176L22.58 21.0552C22.8 20.9201 23.02 20.7641 23.25 20.6394C23.48 20.5146 23.85 20.2859 24.14 20.1092L24.36 19.974L24.81 19.7141L24.92 19.6414C25.11 19.5374 25.29 19.4023 25.49 19.2879L25.82 19.1008L27.28 18.2171C27.59 18.0508 27.87 17.8533 28.18 17.687L28.63 17.4063L29.12 17.084L29.33 16.9488L29.57 16.8137V25.2447L29.43 25.3175L29.01 25.5878L28.88 25.671L28.74 25.7749C28.6945 25.7988 28.651 25.8266 28.61 25.8581L28.19 26.118C27.81 26.3467 27.45 26.5962 27.07 26.8249L25.96 27.5422L25.83 27.6254C25.33 27.9788 24.83 28.2699 24.3 28.6026L24.02 28.7793L22.63 29.6734L22.5 29.7565C22.09 30.0372 21.65 30.2763 21.24 30.557L20.68 30.9209V33C20.7962 32.9461 20.9068 32.8799 21.01 32.8025L21.35 32.5946C21.66 32.3659 22.01 32.1892 22.35 31.9604L22.51 31.8565L23.35 31.3159L23.51 31.2223L27.92 28.3115L28.08 28.1971L31.08 26.2947C31.132 26.2524 31.1892 26.2175 31.25 26.1908V13.7573C31.16 13.7573 31.15 13.8093 31.08 13.8509L30.92 13.9444L29.92 14.537C29.58 14.7241 29.27 14.9632 28.92 15.14L26.27 16.7201L25.94 16.9281L25.45 17.2191C25.11 17.4063 24.6 17.7181 24.28 17.9261C24.23 17.9261 24.18 17.9261 24.12 18.0196L23.05 18.6642L22.96 18.7265L22.62 18.9137L22.05 19.2671L21.96 19.3191L21.63 19.5166C21.3072 19.7264 20.9733 19.9173 20.63 20.0884H20.65Z" fill="#060606"/>
<path fill-rule="evenodd" clip-rule="evenodd" d="M9.66003 12.9152C9.73003 12.9152 9.76003 12.9672 9.83003 12.9984C9.90003 13.0296 10.25 13.2687 10.48 13.3934L12.28 14.433C13.14 14.9736 14.03 15.4726 14.89 16.0028L15.21 16.1899L16.21 16.7825H16.28C16.74 17.0736 17.22 17.3231 17.68 17.6245L19.14 18.4978L19.3 18.5914C19.5695 18.7762 19.85 18.9429 20.14 19.0904C20.3985 18.9717 20.6462 18.829 20.88 18.6641L21.14 18.4978L21.39 18.3627L21.63 18.2067L22.13 17.9052L22.37 17.7597L23.12 17.3958L23.36 17.2503L23.87 16.9488C23.9488 16.8864 24.0365 16.8372 24.13 16.8033C24.13 16.7409 24.13 16.7409 24.06 16.7201L22.45 15.7533C21.81 16.1068 21.21 16.5122 20.57 16.876L20.43 16.9696L20.13 17.1463L19.13 16.5642C18.79 16.3874 18.48 16.1483 18.13 15.9716L17.97 15.8365L15.97 14.6617L15.86 14.5994L15.75 14.5266L13.24 13.0192C13.2006 13.0095 13.1595 13.0095 13.12 13.0192C13.17 12.936 13.23 12.9256 13.32 12.8737L13.53 12.7593L15.72 11.5326C15.7458 11.5059 15.7764 11.4847 15.81 11.4702L15.92 11.4078L16.15 11.2831L18.88 9.7549C18.9341 9.7107 18.9813 9.6581 19.02 9.59896L20.12 9.01679C20.18 9.01679 21.02 9.52619 21.22 9.63015L21.34 9.69252C21.3831 9.72627 21.4302 9.75421 21.48 9.77569L24.48 11.4702C24.74 11.6365 25.55 12.0836 25.83 12.2291C26.11 12.3746 26.47 12.593 26.83 12.7697L28.62 13.8093L28.76 13.882C28.97 14.0172 28.98 13.882 29.32 13.7053L29.96 13.3311C30.1704 13.1949 30.3874 13.07 30.61 12.9568C30.61 12.8944 30.53 12.8633 30.48 12.8321L29.83 12.4578C29.5 12.2915 29.17 12.0732 28.83 11.9172L28.18 11.543C27.96 11.4286 27.74 11.3143 27.53 11.1791L24.25 9.30788L24.12 9.21431L22.8 8.47621L22.64 8.38265H22.56L20.83 7.40544C20.6058 7.24803 20.3681 7.11232 20.12 7C19.9518 7.08022 19.7882 7.17047 19.63 7.27029L15.87 9.34946L15.71 9.43263L13.12 10.94L12.96 11.0336L12.72 11.1687C12.6907 11.1812 12.6637 11.1988 12.64 11.2207L12.47 11.3143L11.97 11.595L11.81 11.6885L11.04 12.1148H10.99C10.88 12.1771 10.77 12.2187 10.66 12.2915L10.5 12.385L9.76003 12.8113C9.70003 12.8113 9.76003 12.8113 9.70003 12.884L9.66003 12.9152Z" fill="#060606"/>
<path d="M39.5 20C39.5 23.8567 38.3563 27.6269 36.2137 30.8336C34.071 34.0404 31.0255 36.5397 27.4623 38.0156C23.8992 39.4916 19.9784 39.8777 16.1957 39.1253C12.4131 38.3729 8.93855 36.5157 6.21143 33.7886C3.4843 31.0615 1.62711 27.5869 0.874696 23.8043C0.122284 20.0216 0.508449 16.1008 1.98436 12.5377C3.46027 8.97451 5.95963 5.92903 9.16639 3.78634C12.3731 1.64365 16.1433 0.5 20 0.5C25.1717 0.5 30.1316 2.55446 33.7886 6.21142C37.4455 9.86837 39.5 14.8283 39.5 20Z" stroke="black" stroke-opacity="0.02"/>
</g>
<defs>
<clipPath id="clip0_1731_644">
<rect width="40" height="40" fill="white"/>
</clipPath>
</defs>
</svg>
