<svg width="40" height="40" viewBox="0 0 40 40" fill="none" xmlns="http://www.w3.org/2000/svg">
<path d="M20 40C31 40 40 31 40 20C40 9 31 0 20 0C9 0 0 9 0 20C0 31 9 40 20 40Z" fill="#F8F6F4"/>
<path d="M26.5657 12.6388C26.09 13.1605 24.9801 13.1555 24.5045 12.6859C24.0288 12.2163 23.8702 11.3074 24.5045 10.7334C25.1387 10.1595 26.09 10.3688 26.5657 10.7862C27.0413 11.2036 27.0413 12.117 26.5657 12.6388Z" fill="#483E5E"/>
<path d="M21.5721 8.91052C21.0528 9.53552 20.8512 9.89957 20.4593 10.8958C19.9515 12.1868 19.495 13.6123 19.3095 14.4947C19.124 15.377 19.4935 16.1349 20.3356 16.6516C21.2265 17.1981 22.1867 17.6236 23.4849 18.1016C24.7831 18.5795 25.7146 19.2608 26.0113 19.9594C26.308 20.6579 26.2406 22.0031 25.573 23.2898C24.9053 24.5766 23.9749 25.7723 22.3429 26.9488C20.7109 28.1253 19.5961 28.405 17.9823 28.7726C16.3684 29.1403 16.8984 30.0462 17.4548 30.23C18.0112 30.4138 19.2351 30.5976 20.8672 30.5241C22.4993 30.4506 24.1292 30.0462 26.0579 29.0903C27.9867 28.1344 29.8783 26.48 30.8818 24.2741C31.8853 22.0682 32.2854 18.956 31.1227 16.9947C30.447 15.855 30.1008 15.5806 29.8783 14.8623C29.6558 14.1441 29.7982 13.5968 30.2128 13.0976C30.4518 12.8098 30.986 12.5201 31.4754 12.1736C31.8611 11.9004 32.3263 11.627 32.6601 11.4064C32.994 11.1859 33.1074 11.0706 32.8848 10.9236L32.8769 10.9183C32.6517 10.7695 32.208 10.4762 31.4361 10.1932C30.655 9.90683 30.508 9.86742 30.2128 9.84402C29.9176 9.82062 29.5467 10.078 28.9532 10.5191C28.3597 10.9603 28.1001 11.0465 28.063 11.5485C28.0259 12.0506 27.8776 12.6883 27.4695 13.2397C27.0615 13.7912 26.5146 14.0712 25.7823 14.1441C25.05 14.217 24.0597 13.9938 23.5728 13.4285C23.0859 12.8632 22.8897 12.5408 22.8897 11.7392C22.8897 10.9375 23.2041 10.3721 23.622 9.96768C24.0399 9.56325 24.0201 9.41621 24.0201 9.23237C24.0201 9.04855 23.9229 8.42327 23.8417 8.13176C23.7604 7.84026 23.4688 7.79437 22.9929 7.9478C22.4944 8.10848 22.0913 8.28552 21.5721 8.91052Z" fill="#483E5E"/>
<path d="M14.2186 24.2546C13.9782 24.3168 13.8097 24.7218 13.3379 25.5316C12.8661 26.3414 12.4234 26.9332 11.5788 27.8365C10.7342 28.7398 10.2036 29.1136 8.86002 29.9234L8.82533 29.9443C7.50966 30.7373 7.12271 30.9705 7.03142 31.2104C6.93932 31.4523 6.99349 31.7711 7.98118 31.9206C8.96887 32.0701 9.79228 32.1037 11.219 31.1381C12.6458 30.1726 13.7669 29.2381 15.2453 28.5529C16.7236 27.8677 17.1865 27.9107 18.8424 27.4316C20.4983 26.9525 22.0079 26.0123 23.0496 24.8698C24.0913 23.7273 24.6121 22.5757 24.8231 21.9214C25.034 21.267 25.064 20.3951 24.5005 19.959C23.9622 19.5423 23.6713 19.417 22.4831 18.9809C21.2194 18.5171 20.7999 18.4009 19.8689 17.674C18.9916 16.989 19.0436 16.8253 18.4923 16.7526C17.941 16.6799 17.5232 17.4897 17.3372 17.8951C17.1972 18.2002 17.1733 18.7388 17.5439 19.2457C17.9145 19.7526 18.2591 20.3105 19.2743 20.8769C20.2895 21.4433 20.7624 21.534 21.4546 21.6472C22.1468 21.7605 22.417 21.9214 22.231 22.244C22.045 22.5667 21.6729 22.7231 21.0405 22.7231C20.408 22.7231 19.5151 22.4373 18.6222 21.9214C17.9925 21.5575 17.5433 21.1474 17.2151 20.742C16.896 20.348 16.7047 20.2907 16.4089 20.2907C16.1131 20.2907 15.8698 20.475 15.516 20.9909C15.1622 21.5069 14.9018 22.0658 14.8646 22.3686C14.8274 22.6714 14.794 23.009 15.3521 23.4144C15.9101 23.8198 16.3923 24.0402 17.0248 24.1507C17.6573 24.2613 18.1386 24.4553 17.6753 24.8698C17.212 25.2842 16.6504 25.1924 16.2039 25.0818C15.7575 24.9713 15.1097 24.6283 14.8646 24.4726C14.6195 24.3168 14.4589 24.1922 14.2186 24.2546Z" fill="#483E5E"/>
<path d="M28.2405 9.70135C28.5761 9.49622 28.9471 9.22696 28.9471 9.03862C28.9471 8.85028 28.7581 8.62427 27.9646 8.13458C27.1711 7.64489 26.0753 7.08873 25.3574 7.0045C24.6395 6.92028 24.9505 8.04057 25.0351 8.48361C25.1197 8.92665 25.1449 9.27156 25.4433 9.30738C25.7416 9.34319 25.9654 9.379 26.2265 9.45063C26.4875 9.52227 26.8232 9.67673 27.1962 9.89161C27.5691 10.1065 27.9048 9.90648 28.2405 9.70135Z" fill="#483E5E"/>
<path d="M39.5 20C39.5 23.8567 38.3563 27.6269 36.2137 30.8336C34.071 34.0404 31.0255 36.5397 27.4623 38.0156C23.8992 39.4916 19.9784 39.8777 16.1957 39.1253C12.4131 38.3729 8.93855 36.5157 6.21143 33.7886C3.4843 31.0615 1.62711 27.5869 0.874696 23.8043C0.122284 20.0216 0.508449 16.1008 1.98436 12.5377C3.46027 8.97451 5.95963 5.92903 9.16639 3.78634C12.3731 1.64365 16.1433 0.5 20 0.5C25.1717 0.5 30.1316 2.55446 33.7886 6.21142C37.4455 9.86837 39.5 14.8283 39.5 20Z" stroke="black" stroke-opacity="0.02"/>
</svg>
