<svg width="40" height="40" viewBox="0 0 40 40" fill="none" xmlns="http://www.w3.org/2000/svg"><g clip-path="url(#GHST__a)"><path d="M20 40a20 20 0 1 0 0-40 20 20 0 0 0 0 40Z" fill="url(#GHST__b)"/><path fill-rule="evenodd" clip-rule="evenodd" d="m14.693 13.045-8.159 8.158 1.139 1.14.565-.566 1.273 1.273-.565.565 1.14 1.14.564-.566 1.546 1.546-.565.566 1.252 1.251.565-.565 1.273 1.273-.565.565 1.005 1.005 8.159-8.159a6.1 6.1 0 1 0-8.627-8.626Zm6.425 12.815-.565.564 1.252 1.252.565-.565 1.273 1.273-.566.565 1.006 1.005 8.159-8.159a6.1 6.1 0 0 0-.792-9.295L21.118 25.86Z" fill="#000" fill-opacity=".2"/><mask id="GHST__c" style="mask-type:alpha" maskUnits="userSpaceOnUse" x="19" y="10" width="15" height="20"><path fill-rule="evenodd" clip-rule="evenodd" d="m21.139 27.01-1.273-1.273 4.153-4.152a6.8 6.8 0 0 0-.136-9.75 6.102 6.102 0 0 1 7.752 9.354l-8.158 8.159-1.066-1.066.566-.565-1.273-1.273-.565.566Z" fill="#E1E1E1"/></mask><g mask="url(#GHST__c)" fill-rule="evenodd" clip-rule="evenodd"><path d="m21.139 27.01-1.273-1.273 4.153-4.152a6.8 6.8 0 0 0-.136-9.75 6.102 6.102 0 0 1 7.752 9.354l-8.158 8.159-1.066-1.066.566-.565-1.273-1.273-.565.566Z" fill="#E1E1E1"/><path d="m20.539 26.41-1.273-1.273 4.153-4.152a6.8 6.8 0 0 0-.136-9.75 6.102 6.102 0 0 1 7.752 9.354l-8.158 8.159-1.066-1.066.566-.565-1.273-1.273-.565.566Z" fill="#fff"/></g><mask id="GHST__d" style="mask-type:alpha" maskUnits="userSpaceOnUse" x="5" y="10" width="20" height="20"><path fill-rule="evenodd" clip-rule="evenodd" d="m14.009 12.362-8.16 8.159 1.14 1.138.565-.565 1.273 1.273-.566.565 1.14 1.14.565-.566 1.546 1.546-.565.566 1.252 1.251.565-.565 1.273 1.273-.566.565 1.006 1.005 8.158-8.158a6.1 6.1 0 0 0-8.626-8.627Z" fill="#E1E1E1"/></mask><g mask="url(#GHST__d)" fill-rule="evenodd" clip-rule="evenodd"><path d="m14.009 12.362-8.16 8.159 1.14 1.138.565-.565 1.273 1.273-.566.565 1.14 1.14.565-.566 1.546 1.546-.565.566 1.252 1.251.565-.565 1.273 1.273-.566.565 1.006 1.005 8.158-8.158a6.1 6.1 0 0 0-8.626-8.627Z" fill="#E1E1E1"/><path d="m13.409 11.762-8.16 8.159 1.14 1.138.565-.565 1.273 1.273-.566.565 1.14 1.14.565-.566 1.546 1.546-.565.566 1.252 1.251.565-.565 1.273 1.273-.566.565 1.006 1.005 8.158-8.158a6.1 6.1 0 1 0-8.626-8.627Z" fill="#fff"/></g><path d="M39.167 20A19.166 19.166 0 1 1 .834 20a19.166 19.166 0 0 1 38.333 0Z" stroke="#000" stroke-opacity=".02" stroke-width="1.667"/></g><defs><linearGradient id="GHST__b" x1="20" y1="0" x2="20" y2="40" gradientUnits="userSpaceOnUse"><stop stop-color="#F0F"/><stop offset="1" stop-color="#9017F9"/></linearGradient><clipPath id="GHST__a"><path fill="#fff" d="M0 0h40v40H0z"/></clipPath></defs></svg>