<svg width="40" height="40" viewBox="0 0 40 40" fill="none" xmlns="http://www.w3.org/2000/svg">
<path d="M20 40C31 40 40 31 40 20C40 9 31 0 20 0C9 0 0 9 0 20C0 31 9 40 20 40Z" fill="#181EA9"/>
<path d="M24.7696 8L22.2523 10.4972C21.3983 9.89093 20.3541 9.53764 19.225 9.53764C16.3433 9.53764 14 11.8622 14 14.7206C14 17.286 15.886 19.4179 18.3548 19.8314V21.7063C15.886 22.1198 14 24.2516 14 26.817C14 29.6755 16.3433 32 19.225 32C22.1066 32 24.4499 29.6755 24.4499 26.817C24.4499 24.2516 22.5639 22.1198 20.0951 21.7063V19.8314C22.5639 19.4179 24.4499 17.286 24.4499 14.7206C24.4499 13.6045 24.0897 12.5688 23.4826 11.7176L26 9.22047L24.7696 8ZM22.7096 26.821C22.7096 28.728 21.1474 30.2777 19.225 30.2777C17.3025 30.2777 15.7403 28.728 15.7403 26.821C15.7403 24.914 17.3025 23.3643 19.225 23.3643C21.1474 23.3643 22.7096 24.914 22.7096 26.821ZM19.225 18.1773C17.3025 18.1773 15.7403 16.6276 15.7403 14.7206C15.7403 12.8136 17.3025 11.264 19.225 11.264C21.1474 11.264 22.7096 12.8136 22.7096 14.7206C22.7096 16.6276 21.1474 18.1773 19.225 18.1773Z" fill="white"/>
<path d="M39.5 20C39.5 23.8567 38.3563 27.6269 36.2137 30.8336C34.071 34.0404 31.0255 36.5397 27.4623 38.0156C23.8992 39.4916 19.9784 39.8777 16.1957 39.1253C12.4131 38.3729 8.93855 36.5157 6.21143 33.7886C3.4843 31.0615 1.62711 27.5869 0.874696 23.8043C0.122284 20.0216 0.508449 16.1008 1.98436 12.5377C3.46027 8.97451 5.95963 5.92903 9.16639 3.78634C12.3731 1.64365 16.1433 0.5 20 0.5C25.1717 0.5 30.1316 2.55446 33.7886 6.21142C37.4455 9.86837 39.5 14.8283 39.5 20Z" stroke="black" stroke-opacity="0.02"/>
</svg>
