<svg width="40" height="40" viewBox="0 0 40 40" fill="none" xmlns="http://www.w3.org/2000/svg">
<g clip-path="url(#clip0_1800_814)">
<path d="M20 40C23.9556 40 27.8224 38.827 31.1114 36.6294C34.4004 34.4318 36.9638 31.3082 38.4776 27.6537C39.9913 23.9992 40.3874 19.9778 39.6157 16.0982C38.844 12.2186 36.9392 8.65492 34.1421 5.85787C31.3451 3.06082 27.7814 1.15601 23.9018 0.384303C20.0222 -0.387401 16.0009 0.00866568 12.3463 1.52242C8.69181 3.03617 5.56824 5.59962 3.37061 8.8886C1.17298 12.1776 0 16.0444 0 20C0 25.3043 2.10714 30.3914 5.85786 34.1421C9.60859 37.8929 14.6957 40 20 40Z" fill="#F3F3F3"/>
<path d="M22.3637 6C17.1859 6 12.9442 10.0081 12.572 15.0909C12.5427 15.4914 12.8711 15.8182 13.2728 15.8182H31.4546C31.8563 15.8182 32.1847 15.4914 32.1553 15.0909C31.7832 10.0081 27.5415 6 22.3637 6Z" fill="#53CBC8"/>
<path fill-rule="evenodd" clip-rule="evenodd" d="M10.5455 18.1818C10.5455 17.8805 10.7897 17.6363 11.0909 17.6363H33.0909C33.3922 17.6363 33.6364 17.8805 33.6364 18.1818C33.6364 18.483 33.3922 18.7272 33.0909 18.7272H11.0909C10.7897 18.7272 10.5455 18.483 10.5455 18.1818ZM6 20.909C6 20.6078 6.24421 20.3636 6.54545 20.3636H22.7273C23.0285 20.3636 23.2727 20.6078 23.2727 20.909C23.2727 21.2103 23.0285 21.4545 22.7273 21.4545H6.54545C6.24421 21.4545 6 21.2103 6 20.909ZM10.5455 23.6363C10.5455 23.3351 10.7897 23.0909 11.0909 23.0909H33.0909C33.3922 23.0909 33.6364 23.3351 33.6364 23.6363C33.6364 23.9376 33.3922 24.1818 33.0909 24.1818H11.0909C10.7897 24.1818 10.5455 23.9376 10.5455 23.6363ZM7.09091 26.3636C7.09091 26.0623 7.33512 25.8181 7.63636 25.8181H15.5455C15.8467 25.8181 16.0909 26.0623 16.0909 26.3636C16.0909 26.6648 15.8467 26.909 15.5455 26.909H7.63636C7.33512 26.909 7.09091 26.6648 7.09091 26.3636ZM17.4545 26.3636C17.4545 26.0623 17.6988 25.8181 18 25.8181H33.7273C34.0285 25.8181 34.2727 26.0623 34.2727 26.3636C34.2727 26.6648 34.0285 26.909 33.7273 26.909H18C17.6988 26.909 17.4545 26.6648 17.4545 26.3636ZM20.3636 29.0909C20.3636 28.7896 20.6078 28.5454 20.9091 28.5454H30.8182C31.1194 28.5454 31.3636 28.7896 31.3636 29.0909C31.3636 29.3921 31.1194 29.6363 30.8182 29.6363H20.9091C20.6078 29.6363 20.3636 29.3921 20.3636 29.0909ZM14.3636 31.8181C14.3636 31.5169 14.6078 31.2727 14.9091 31.2727H24.8182C25.1194 31.2727 25.3636 31.5169 25.3636 31.8181C25.3636 32.1194 25.1194 32.3636 24.8182 32.3636H14.9091C14.6078 32.3636 14.3636 32.1194 14.3636 31.8181Z" fill="#E5147D"/>
<path d="M9.63632 18.1818C9.63632 18.483 9.39211 18.7272 9.09086 18.7272C8.78962 18.7272 8.54541 18.483 8.54541 18.1818C8.54541 17.8805 8.78962 17.6363 9.09086 17.6363C9.39211 17.6363 9.63632 17.8805 9.63632 18.1818Z" fill="#E5147D"/>
<path d="M5.09091 20.909C5.09091 21.2103 4.8467 21.4545 4.54545 21.4545C4.24421 21.4545 4 21.2103 4 20.909C4 20.6078 4.24421 20.3636 4.54545 20.3636C4.8467 20.3636 5.09091 20.6078 5.09091 20.909Z" fill="#E5147D"/>
<path d="M6.18197 26.3636C6.18197 26.6648 5.93777 26.909 5.63652 26.909C5.33527 26.909 5.09106 26.6648 5.09106 26.3636C5.09106 26.0623 5.33527 25.8181 5.63652 25.8181C5.93777 25.8181 6.18197 26.0623 6.18197 26.3636Z" fill="#E5147D"/>
<path d="M9.63632 23.6363C9.63632 23.9376 9.39211 24.1818 9.09086 24.1818C8.78962 24.1818 8.54541 23.9376 8.54541 23.6363C8.54541 23.3351 8.78962 23.0909 9.09086 23.0909C9.39211 23.0909 9.63632 23.3351 9.63632 23.6363Z" fill="#E5147D"/>
<path d="M19.4547 29.0909C19.4547 29.3921 19.2105 29.6363 18.9092 29.6363C18.608 29.6363 18.3638 29.3921 18.3638 29.0909C18.3638 28.7896 18.608 28.5454 18.9092 28.5454C19.2105 28.5454 19.4547 28.7896 19.4547 29.0909Z" fill="#E5147D"/>
<path d="M13.4547 31.8181C13.4547 32.1194 13.2105 32.3636 12.9092 32.3636C12.608 32.3636 12.3638 32.1194 12.3638 31.8181C12.3638 31.5169 12.608 31.2727 12.9092 31.2727C13.2105 31.2727 13.4547 31.5169 13.4547 31.8181Z" fill="#E5147D"/>
<path d="M39.5 20C39.5 23.8567 38.3563 27.6269 36.2137 30.8336C34.071 34.0404 31.0255 36.5397 27.4623 38.0156C23.8992 39.4916 19.9784 39.8777 16.1957 39.1253C12.4131 38.3729 8.93855 36.5157 6.21143 33.7886C3.4843 31.0615 1.62711 27.5869 0.874696 23.8043C0.122284 20.0216 0.508449 16.1008 1.98436 12.5377C3.46027 8.97451 5.95963 5.92903 9.16639 3.78634C12.3731 1.64365 16.1433 0.5 20 0.5C25.1717 0.5 30.1316 2.55446 33.7886 6.21142C37.4455 9.86838 39.5 14.8283 39.5 20Z" stroke="black" stroke-opacity="0.02"/>
</g>
<defs>
<clipPath id="clip0_1800_814">
<rect width="40" height="40" fill="white"/>
</clipPath>
</defs>
</svg>
