<svg width="40" height="40" viewBox="0 0 40 40" fill="none" xmlns="http://www.w3.org/2000/svg">
<g clip-path="url(#clip0_1871_3421)">
<path d="M20 40C23.9556 40 27.8224 38.827 31.1114 36.6294C34.4004 34.4318 36.9638 31.3082 38.4776 27.6537C39.9913 23.9992 40.3874 19.9778 39.6157 16.0982C38.844 12.2186 36.9392 8.65492 34.1421 5.85787C31.3451 3.06082 27.7814 1.15601 23.9018 0.384303C20.0222 -0.387401 16.0009 0.00866568 12.3463 1.52242C8.69181 3.03617 5.56824 5.59962 3.37061 8.8886C1.17298 12.1776 0 16.0444 0 20C0 25.3043 2.10714 30.3914 5.85786 34.1421C9.60859 37.8929 14.6957 40 20 40Z" fill="#041327"/>
<path d="M14.2299 21.9427C15.0346 21.9427 15.8196 21.6744 16.4542 21.1837L11.3514 16.0808C10.1215 17.6705 10.4159 19.9603 12.0056 21.1903C12.6467 21.6744 13.4253 21.9427 14.2299 21.9427Z" fill="white"/>
<path d="M29.4074 18.2985C29.4074 17.4938 29.1391 16.7088 28.6485 16.0742L23.5457 21.1771C25.1354 22.4071 27.4186 22.1127 28.6485 20.5229C29.1391 19.8883 29.4074 19.1032 29.4074 18.2985Z" fill="white"/>
<path d="M31.9785 12.7441L29.7215 15.0012C31.5401 17.1798 31.2523 20.4248 29.0738 22.2435C27.1635 23.8398 24.3897 23.8398 22.4794 22.2435L20 24.723L17.5271 22.2501C15.3486 24.0688 12.1037 23.781 10.285 21.6024C8.68878 19.692 8.68878 16.9181 10.285 15.0078L9.1271 13.8498L8.02803 12.7441C6.7 14.9292 6 17.4415 6 19.9995C6 27.7325 12.2673 34 20 34C27.7327 34 34 27.7325 34 19.9995C34.0065 17.4415 33.3 14.9292 31.9785 12.7441Z" fill="white"/>
<path d="M30.1268 10.3366C24.7951 4.74295 15.9371 4.53359 10.3437 9.86555C10.1801 10.0226 10.0231 10.1796 9.87267 10.3366C9.52594 10.703 9.19884 11.0824 8.89136 11.4815L19.9998 22.5968L31.1081 11.4815C30.8072 11.0824 30.4736 10.703 30.1268 10.3366ZM19.9998 7.8309C23.2708 7.8309 26.3194 9.09356 28.6091 11.3964L19.9998 20.0061L11.3904 11.3964C13.6801 9.09356 16.7287 7.8309 19.9998 7.8309Z" fill="white"/>
<path d="M39.5 20C39.5 23.8567 38.3563 27.6269 36.2137 30.8336C34.071 34.0404 31.0255 36.5397 27.4623 38.0156C23.8992 39.4916 19.9784 39.8777 16.1957 39.1253C12.4131 38.3729 8.93855 36.5157 6.21143 33.7886C3.4843 31.0615 1.62711 27.5869 0.874696 23.8043C0.122284 20.0216 0.508449 16.1008 1.98436 12.5377C3.46027 8.97451 5.95963 5.92903 9.16639 3.78634C12.3731 1.64365 16.1433 0.5 20 0.5C25.1717 0.5 30.1316 2.55446 33.7886 6.21142C37.4455 9.86837 39.5 14.8283 39.5 20Z" stroke="black" stroke-opacity="0.02"/>
</g>
<defs>
<clipPath id="clip0_1871_3421">
<rect width="40" height="40" fill="white"/>
</clipPath>
</defs>
</svg>
