<svg width="40" height="40" viewBox="0 0 40 40" fill="none" xmlns="http://www.w3.org/2000/svg">
<g clip-path="url(#clip0_3421_608)">
<path d="M20 40C31 40 40 31 40 20C40 9 31 0 20 0C9 0 0 9 0 20C0 31 9 40 20 40Z" fill="#F3F3F3"/>
<path d="M28.128 9.77642C28.928 10.247 29.4104 11.0823 29.4104 12V27.9999C29.4104 29.4352 28.5162 30.5882 27.0574 30.5882C25.5986 30.5882 24.7045 29.4352 24.7045 27.9999V18.0352C24.7045 17.247 23.2927 16.7529 22.5868 17.1176L13.2927 22.0235C12.678 22.3479 11.9607 22.4188 11.2945 22.2209C10.6282 22.023 10.0659 21.5721 9.728 20.9647C9.56464 20.6659 9.4627 20.3374 9.42818 19.9986C9.39367 19.6599 9.42729 19.3176 9.52705 18.992C9.62681 18.6664 9.7907 18.3641 10.0091 18.1028C10.2274 17.8415 10.4959 17.6265 10.7986 17.4705L25.5398 9.7176C26.3515 9.29407 27.3398 9.3176 28.128 9.77642Z" fill="url(#paint0_linear_3421_608)"/>
<path d="M12.9404 16.2942C15.0581 15.6706 16.5875 15.6118 18.2934 15.6118C20.7993 15.6118 22.6463 16.2471 23.3169 17.0236C23.764 17.1412 24.7051 17.5295 24.7051 18.0353V28C24.7051 29.4353 25.5993 30.5883 27.0581 30.5883C28.5169 30.5883 29.411 29.4353 29.411 28V12C29.411 11.0824 28.9169 10.2353 28.1169 9.77652C27.7233 9.54913 27.2788 9.42455 26.8244 9.41427C26.37 9.40399 25.9203 9.50834 25.5169 9.71769L12.9404 16.2942Z" fill="url(#paint1_linear_3421_608)"/>
<path d="M21.2812 11.9295C22.6107 12.2824 24.7048 13.2118 24.7048 15.2942V17.9648C24.7048 17.9883 24.7048 17.9412 24.7048 17.9648V27.9412C24.7048 29.353 25.5989 30.5883 27.0577 30.5883C28.5165 30.5883 29.4107 29.4353 29.4107 28V12C29.4107 11.0824 28.9165 10.2353 28.1165 9.77652C27.723 9.54913 27.2785 9.42455 26.8241 9.41427C26.3697 9.40399 25.92 9.50834 25.5165 9.71769L21.2812 11.9295Z" fill="url(#paint2_linear_3421_608)"/>
<path d="M17.2944 25.2355L14.3532 26.9531C13.9297 27.2002 13.7297 27.7061 13.9885 28.1296C14.3297 28.6943 14.9061 29.412 15.7297 29.9414C16.5767 30.4943 17.4826 30.6119 18.1414 30.5884C18.5885 30.5531 18.8238 30.1649 18.8238 29.7178V26.1178C18.8238 25.3296 18.0003 24.8237 17.2944 25.2472V25.2355Z" fill="url(#paint3_linear_3421_608)"/>
<path fill-rule="evenodd" clip-rule="evenodd" d="M20 37.6471C24.6803 37.6471 29.1689 35.7878 32.4784 32.4784C35.7878 29.1689 37.6471 24.6803 37.6471 20C37.6471 15.3197 35.7878 10.8311 32.4784 7.52165C29.1689 4.21218 24.6803 2.35294 20 2.35294C15.3197 2.35294 10.8311 4.21218 7.52165 7.52165C4.21218 10.8311 2.35294 15.3197 2.35294 20C2.35294 24.6803 4.21218 29.1689 7.52165 32.4784C10.8311 35.7878 15.3197 37.6471 20 37.6471ZM20 40C25.3043 40 30.3914 37.8929 34.1421 34.1421C37.8929 30.3914 40 25.3043 40 20C40 14.6957 37.8929 9.60859 34.1421 5.85787C30.3914 2.10714 25.3043 0 20 0C14.6957 0 9.60859 2.10714 5.85787 5.85787C2.10714 9.60859 0 14.6957 0 20C0 25.3043 2.10714 30.3914 5.85787 34.1421C9.60859 37.8929 14.6957 40 20 40Z" fill="url(#paint4_linear_3421_608)"/>
<path d="M39.5 20C39.5 23.8567 38.3563 27.6269 36.2137 30.8336C34.071 34.0404 31.0255 36.5397 27.4623 38.0156C23.8992 39.4916 19.9784 39.8777 16.1957 39.1253C12.4131 38.3729 8.93855 36.5157 6.21143 33.7886C3.4843 31.0615 1.62711 27.5869 0.874696 23.8043C0.122284 20.0216 0.508449 16.1008 1.98436 12.5377C3.46027 8.97451 5.95963 5.92903 9.16639 3.78634C12.3731 1.64365 16.1433 0.5 20 0.5C25.1717 0.5 30.1316 2.55446 33.7886 6.21142C37.4455 9.86837 39.5 14.8283 39.5 20Z" stroke="black" stroke-opacity="0.02"/>
</g>
<defs>
<linearGradient id="paint0_linear_3421_608" x1="27.8339" y1="9.41171" x2="12.2927" y2="23.1294" gradientUnits="userSpaceOnUse">
<stop offset="0.45" stop-color="#266E84"/>
<stop offset="1" stop-color="#56DBAE"/>
</linearGradient>
<linearGradient id="paint1_linear_3421_608" x1="22.6228" y1="9.92946" x2="20.8934" y2="30.6" gradientUnits="userSpaceOnUse">
<stop offset="0.18" stop-color="#2F778D"/>
<stop offset="0.27" stop-color="#43B39C"/>
</linearGradient>
<linearGradient id="paint2_linear_3421_608" x1="25.246" y1="9.41181" x2="25.246" y2="30.5883" gradientUnits="userSpaceOnUse">
<stop stop-color="#4CFB8F"/>
<stop offset="1" stop-color="#1FC3F1"/>
</linearGradient>
<linearGradient id="paint3_linear_3421_608" x1="16.2591" y1="26.3531" x2="18.2826" y2="30.4943" gradientUnits="userSpaceOnUse">
<stop stop-color="#34D6C1"/>
<stop offset="1" stop-color="#38BFD2"/>
</linearGradient>
<linearGradient id="paint4_linear_3421_608" x1="9.41176" y1="4.70588" x2="31.7647" y2="37.0588" gradientUnits="userSpaceOnUse">
<stop stop-color="#4CFB8F"/>
<stop offset="1" stop-color="#28CEDD"/>
</linearGradient>
<clipPath id="clip0_3421_608">
<rect width="40" height="40" fill="white"/>
</clipPath>
</defs>
</svg>
