<svg width="40" height="40" viewBox="0 0 40 40" fill="none" xmlns="http://www.w3.org/2000/svg">
<g clip-path="url(#clip0_1860_883)">
<path d="M20 40C23.9556 40 27.8224 38.827 31.1114 36.6294C34.4004 34.4318 36.9638 31.3082 38.4776 27.6537C39.9913 23.9992 40.3874 19.9778 39.6157 16.0982C38.844 12.2186 36.9392 8.65492 34.1421 5.85787C31.3451 3.06082 27.7814 1.15601 23.9018 0.384303C20.0222 -0.387401 16.0009 0.00866568 12.3463 1.52242C8.69181 3.03617 5.56824 5.59962 3.37061 8.8886C1.17298 12.1776 0 16.0444 0 20C0 25.3043 2.10714 30.3914 5.85786 34.1421C9.60859 37.8929 14.6957 40 20 40Z" fill="#F3F3F3"/>
<path d="M33.7832 12.9563L34.9532 16.2324L32.9875 20.7722L34.6724 24.6568L33.4555 27.9329L29.0094 29.4306L27.0437 33.6427L24.1888 34.9532L19.5554 32.6599L15.624 34.4852L12.4883 33.1747L10.897 28.7754L6.68487 27.0437L5 23.3463L7.05928 18.9938L5.70203 15.3432L6.96568 12.3011L11.1778 10.663L12.8627 6.45086L16.1388 5L20.585 6.96568L24.3292 5.32761L28.1201 6.77847L29.6646 11.0374L33.7832 12.9563Z" fill="url(#paint0_radial_1860_883)"/>
<path d="M16.3728 6.3104L19.4149 7.71445L15.6708 9.07171L11.8798 18.3853L10.2886 14.8283L13.6583 7.24643C13.6583 7.19963 16.3728 6.3104 16.3728 6.3104Z" fill="url(#paint1_linear_1860_883)"/>
<path d="M10.8502 11.5991L9.53973 14.9688L13.2839 24.4228L9.82054 23.0187L6.54441 15.3432L7.71445 12.7691L10.8502 11.5991Z" fill="url(#paint2_linear_1860_883)"/>
<path d="M7.99538 20.4446H7.43375L6.26371 23.5803L7.34015 26.2949L15.1093 29.2902L18.5726 27.7457L9.16542 23.8612L7.99538 20.4446Z" fill="url(#paint3_linear_1860_883)"/>
<path d="M11.7396 28.9158L15.1093 30.1795L20.8191 27.9798L25.7801 16.3261L27.4182 19.6958L23.2996 29.8519L15.6241 33.1748L12.8628 32.0515L11.7396 28.9158Z" fill="url(#paint4_linear_1860_883)"/>
<path d="M28.2138 10.663L26.9969 7.80811L24.376 6.63807L16.4197 9.961L12.582 19.6958L13.986 23.2995L18.8066 11.8331L24.4696 9.35257L28.2138 10.663Z" fill="url(#paint5_linear_1860_883)"/>
<path d="M32.145 19.1809L33.4087 16.1856L32.379 13.5179L24.7971 10.2886L21.053 11.8798L30.4602 15.7176L32.145 19.1809Z" fill="url(#paint6_linear_1860_883)"/>
<path d="M26.3885 15.1561L29.9923 16.5601L33.128 23.8144L32.0515 26.6225L28.869 27.933L30.4135 24.4696L26.3885 15.1561Z" fill="url(#paint7_linear_1860_883)"/>
<path d="M27.8862 21.2403L29.1967 24.7972L26.295 32.0515L23.4401 33.2216L20.3979 32.0983L24.0953 30.4603C24.0953 30.4135 27.8862 21.2403 27.8862 21.2403Z" fill="url(#paint8_linear_1860_883)"/>
<path d="M19.0405 13.4712L18.0109 15.9517L23.6271 18.3386L24.7971 15.9049L19.0405 13.4712Z" fill="url(#paint9_linear_1860_883)"/>
<path d="M17.5896 17.3557L16.5131 19.883L22.0826 22.2699L23.2058 19.7894L17.5896 17.3557Z" fill="url(#paint10_linear_1860_883)"/>
<path d="M21.6147 23.4867L20.3978 26.248L14.8284 23.7207L15.9516 21.0998C15.9516 21.053 21.6147 23.4867 21.6147 23.4867Z" fill="url(#paint11_linear_1860_883)"/>
<path d="M28.2605 10.3822V10.7566L27.8861 10.6162L26.8096 7.76125L24.2823 6.68481L16.3728 10.0545V9.68013L24.0483 6.3104H24.4227L27.0436 7.52725L28.2605 10.3822Z" fill="#0F3D6B"/>
<path d="M19.2747 7.29324V7.76125L16.139 6.4508L13.5181 7.66765L13.3776 7.29324L16.139 6.07639L19.2747 7.29324Z" fill="#083062"/>
<path d="M32.3322 19.1341L32.0982 18.9001L33.1747 16.1388L32.0982 13.5179L24.6567 10.3822L21.287 11.833L21.053 11.599L24.6567 10.0545L32.3322 13.1903L33.5491 16.1856C33.5023 16.1388 32.3322 19.1341 32.3322 19.1341Z" fill="#0F3D6B"/>
<path d="M20.585 11.8331L21.053 11.599L21.287 11.833L30.741 15.6709L32.0514 18.9002L32.2854 19.1342L31.8174 19.2746L30.3666 15.9049L20.585 11.8331Z" fill="#3085B8"/>
<path d="M16.0454 9.30583L15.6708 9.07171L11.9736 18.0578L12.2076 18.4322L16.0454 9.30583Z" fill="#0F3D6B"/>
<path d="M7.62079 12.535L7.7612 13.0031L10.7565 11.7862L9.30566 15.0155L13.237 24.3759H13.3774V24.0015L9.68007 15.0623L10.9905 11.9266V11.4586H10.2885L7.62079 12.535Z" fill="#033169"/>
<path d="M7.38678 20.351H7.99521L9.30566 23.7207L18.5256 27.5584L18.666 28.0265L18.198 27.7925L9.07165 23.9547L7.8548 20.7254H7.62079C7.62079 20.6786 7.38678 20.351 7.38678 20.351ZM12.2074 28.7285H11.599L11.9734 28.9625L15.2027 30.4134L20.8189 28.0265L20.5849 27.8861L15.0623 30.0389L12.2074 28.7285ZM19.0404 11.9266L18.8064 11.6926L13.9858 22.9719L14.2199 23.3463L19.0404 11.9266Z" fill="#0F3D6B"/>
<path d="M13.9858 22.9719L14.2199 23.3463L14.0797 23.4868L13.7053 23.3464L12.4416 19.9767L12.582 19.6022C12.5352 19.6022 13.9858 22.9719 13.9858 22.9719Z" fill="#3A8AC5"/>
<path d="M11.9266 18.0577L12.1606 18.4321L12.0202 18.5725H11.6458L10.1949 15.2028V14.7347L11.7394 18.3385L11.9266 18.0577Z" fill="#3584C2"/>
<path d="M13.3775 24.7504V24.5164L13.1435 24.2824L9.77379 22.9719L6.77847 15.5304L7.85491 13.0031L7.62079 12.535L6.40406 15.5304L9.53978 23.206L13.3775 24.7504Z" fill="url(#paint12_linear_1860_883)"/>
<path d="M7.6209 26.1076L6.54446 23.5803L7.62079 20.7254L7.38678 20.351L6.17005 23.7207L7.3869 26.482L15.0624 29.4773L18.666 28.0265L18.198 27.7925L15.0624 29.1029L7.6209 26.1076Z" fill="url(#paint13_linear_1860_883)"/>
<path d="M11.9267 29.337V28.9626L11.5523 28.7286V29.1966L12.6287 32.0515L15.7644 33.2684L23.2995 30.0391L23.1123 29.805L15.7644 32.894L13.0031 31.6771C13.0499 31.7239 11.9267 29.337 11.9267 29.337Z" fill="url(#paint14_linear_1860_883)"/>
<path d="M23.6739 33.4088L26.5289 32.1919L26.2949 31.9579L23.4399 33.0344L20.819 31.9579L20.6786 31.7239L20.2106 31.9579L20.351 32.0983L23.2059 33.4088H23.6739Z" fill="url(#paint15_linear_1860_883)"/>
<path d="M19.2745 7.85494L16.0454 9.30583L15.6708 9.07171L19.0405 7.62093L19.2745 7.85494Z" fill="#3277A8"/>
<path d="M27.5118 19.6021L25.9673 16.1388L25.7333 16.3728L27.1841 19.6021L23.1123 29.805L23.3464 30.0389L27.5118 19.6021Z" fill="url(#paint16_linear_1860_883)"/>
<path d="M24.6568 9.68019L19.0406 11.9735L18.8066 11.7395L24.6568 9.21217L27.7925 10.5226L28.2605 10.7566L27.7925 10.897C27.7457 10.8502 24.6568 9.68019 24.6568 9.68019Z" fill="url(#paint17_linear_1860_883)"/>
<path d="M29.571 11.365V10.9906L33.7832 12.9095L35 16.1388L34.6256 15.9984L33.4087 13.1435L29.571 11.365Z" fill="url(#paint18_linear_1860_883)"/>
<path d="M34.7192 24.2823L33.1748 20.351L32.9408 20.819L34.4852 24.6567L34.7192 24.7971C34.7192 24.7503 34.7192 24.2823 34.7192 24.2823Z" fill="url(#paint19_linear_1860_883)"/>
<path d="M26.5756 15.2965L26.4352 15.0625L26.8096 14.9221L30.1794 16.3729L33.3151 23.44V24.1888L32.0982 26.9501L31.8642 26.5757L33.0811 23.9548L29.9453 16.6537C29.8985 16.6069 26.5756 15.2965 26.5756 15.2965Z" fill="url(#paint20_linear_1860_883)"/>
<path d="M29.337 28.0266H28.869L29.0094 27.7925L31.8642 26.5757L32.0982 26.9501C32.0982 26.9033 29.337 28.0266 29.337 28.0266Z" fill="url(#paint21_linear_1860_883)"/>
<path d="M26.5756 15.2965L26.4352 15.0625L26.3415 15.2964L30.1793 24.5164L30.4133 24.376L26.5756 15.2965Z" fill="url(#paint22_linear_1860_883)"/>
<path d="M27.652 21.053V21.4274H27.886L29.1965 24.6567L26.3415 31.9578L26.5756 32.1918L29.5709 24.9843V24.5163L28.12 21.053H27.652Z" fill="url(#paint23_linear_1860_883)"/>
<path d="M33.4087 27.8862L34.7192 24.7504L34.4852 24.6567L33.1747 27.5118L28.7285 29.1966L26.9501 33.4088L24.0484 34.4852L19.6022 32.5664L15.5304 34.2512L12.5351 33.0344L11.0842 28.7286L6.63807 26.9501L5.32761 23.3464L5 23.3463L6.54446 27.2777L10.6162 28.8222L12.3011 33.362L15.5304 34.5788L19.6022 32.894L24.0484 34.9533L27.1841 33.6428L28.9626 29.571L33.4087 27.8862Z" fill="#0C2244"/>
<path d="M11.2245 10.8502L7.29318 12.3011H6.91876L6.96557 12.1607L11.1309 10.6162L11.3649 10.1482L11.2245 10.8502Z" fill="#347B97"/>
<path d="M13.5181 6.54446L12.9096 6.40406L16.1388 5L20.4447 6.91888V7.29329L16.139 5.46802L13.5181 6.54446Z" fill="#2B6A80"/>
<path d="M18.7599 13.3775L18.9939 13.6115L24.6101 15.9984L23.5337 18.3853L23.9081 18.5257L24.9845 16.1388V15.7644L19.3683 13.3775H18.7599Z" fill="#035985"/>
<path d="M23.1124 19.7425L17.5896 17.3557L17.3558 17.2152L17.8238 17.0748L23.3464 19.5085V20.1169L22.4104 22.2698L22.1764 22.1294C22.1296 22.1294 23.1124 19.7425 23.1124 19.7425Z" fill="url(#paint24_linear_1860_883)"/>
<path d="M22.3634 22.3635L22.1294 22.1295H21.8954L16.8408 19.9767L16.56 19.6022L16.3728 19.9767V20.1171L21.8954 22.504L22.3634 22.3635Z" fill="#3AA1D5"/>
<path d="M17.9172 16.1388L23.6738 18.6661L23.9081 18.5257L23.6738 18.2917L18.2916 15.9984L18.0576 15.7644L17.9172 16.1388Z" fill="#4BB6DF"/>
<path d="M14.8284 23.8144V23.5804L15.0624 23.1124L15.2028 23.5804L20.351 25.8737L20.585 25.7333L20.7254 26.1077L20.4446 26.3417L14.8284 23.8144Z" fill="#348DC6"/>
<path d="M21.4274 23.5803L15.9048 21.1934L16.0452 20.819L21.6614 23.3463V23.8143L20.7254 26.1077L20.585 25.7333L21.4274 23.5803Z" fill="url(#paint25_linear_1860_883)"/>
<path d="M24.1888 30.4134L20.819 31.9579L20.6786 31.7239L23.8144 30.273L24.1888 30.4134Z" fill="#0A4271"/>
<path d="M39.5 20C39.5 23.8567 38.3563 27.6269 36.2137 30.8336C34.071 34.0404 31.0255 36.5397 27.4623 38.0156C23.8992 39.4916 19.9784 39.8777 16.1957 39.1253C12.4131 38.3729 8.93855 36.5157 6.21143 33.7886C3.4843 31.0615 1.62711 27.5869 0.874696 23.8043C0.122284 20.0216 0.508449 16.1008 1.98436 12.5377C3.46027 8.97451 5.95963 5.92903 9.16639 3.78634C12.3731 1.64365 16.1433 0.5 20 0.5C25.1717 0.5 30.1316 2.55446 33.7886 6.21142C37.4455 9.86838 39.5 14.8283 39.5 20Z" stroke="black" stroke-opacity="0.02"/>
</g>
<defs>
<radialGradient id="paint0_radial_1860_883" cx="0" cy="0" r="1" gradientUnits="userSpaceOnUse" gradientTransform="translate(20.252 19.9922) rotate(-67.9699) scale(15.166 15.183)">
<stop offset="0.157" stop-color="#2599B3"/>
<stop offset="1" stop-color="#174772"/>
</radialGradient>
<linearGradient id="paint1_linear_1860_883" x1="10.5737" y1="35.4173" x2="19.8472" y2="3.90763" gradientUnits="userSpaceOnUse">
<stop stop-color="#6DCAF0"/>
<stop offset="0.302" stop-color="#C5EEFC"/>
<stop offset="0.663" stop-color="#52BCEC"/>
<stop offset="0.958" stop-color="#205EEA"/>
</linearGradient>
<linearGradient id="paint2_linear_1860_883" x1="38.639" y1="32.33" x2="28.6654" y2="2.05955" gradientUnits="userSpaceOnUse">
<stop offset="0.027" stop-color="#A3EEFE"/>
<stop offset="0.51" stop-color="#5EC5F0"/>
<stop offset="1" stop-color="#1E62F4"/>
</linearGradient>
<linearGradient id="paint3_linear_1860_883" x1="5.6819" y1="12.3333" x2="36.6635" y2="27.4471" gradientUnits="userSpaceOnUse">
<stop offset="0.092" stop-color="#1E62F4"/>
<stop offset="0.363" stop-color="#67CDF8"/>
<stop offset="0.666" stop-color="#D5FFFF"/>
<stop offset="0.88" stop-color="#67CDF8"/>
</linearGradient>
<linearGradient id="paint4_linear_1860_883" x1="26.3315" y1="4.78359" x2="15.5292" y2="33.2852" gradientUnits="userSpaceOnUse">
<stop offset="0.006" stop-color="#5EDCF9"/>
<stop offset="0.334" stop-color="#D1FAFA"/>
<stop offset="0.61" stop-color="#5EDCF9"/>
<stop offset="1" stop-color="#1E62F4"/>
</linearGradient>
<linearGradient id="paint5_linear_1860_883" x1="8.68551" y1="30.7937" x2="27.1058" y2="3.97758" gradientUnits="userSpaceOnUse">
<stop stop-color="#44C8FB"/>
<stop offset="0.287" stop-color="#C4FAFA"/>
<stop offset="0.629" stop-color="#47BDFB"/>
<stop offset="0.94" stop-color="#1E62F4"/>
</linearGradient>
<linearGradient id="paint6_linear_1860_883" x1="6.43398" y1="14.6431" x2="35.0925" y2="19.4098" gradientUnits="userSpaceOnUse">
<stop stop-color="#84DDFC"/>
<stop offset="0.586" stop-color="#45CAFC"/>
<stop offset="0.944" stop-color="#1563E8"/>
</linearGradient>
<linearGradient id="paint7_linear_1860_883" x1="17.9983" y1="8.2863" x2="20.1037" y2="34.557" gradientUnits="userSpaceOnUse">
<stop stop-color="#4CD0FA"/>
<stop offset="0.473" stop-color="#63BBF6"/>
<stop offset="0.922" stop-color="#165BF0"/>
</linearGradient>
<linearGradient id="paint8_linear_1860_883" x1="22.9796" y1="6.85301" x2="20.5438" y2="31.6171" gradientUnits="userSpaceOnUse">
<stop offset="0.225" stop-color="#ABEDFD"/>
<stop offset="0.679" stop-color="#4BC2F3"/>
<stop offset="1" stop-color="#136DFD"/>
</linearGradient>
<linearGradient id="paint9_linear_1860_883" x1="14.2011" y1="29.9594" x2="28.6076" y2="16.4798" gradientUnits="userSpaceOnUse">
<stop offset="0.329" stop-color="#C9F5FD"/>
<stop offset="1" stop-color="#65DDFA"/>
</linearGradient>
<linearGradient id="paint10_linear_1860_883" x1="21.8772" y1="5.37713" x2="16.1483" y2="28.8548" gradientUnits="userSpaceOnUse">
<stop offset="0.292" stop-color="#E9FBFC"/>
<stop offset="1" stop-color="#B7FBF9"/>
</linearGradient>
<linearGradient id="paint11_linear_1860_883" x1="23.2992" y1="11.2524" x2="14.5048" y2="23.7887" gradientUnits="userSpaceOnUse">
<stop offset="0.229" stop-color="#EAFCFD"/>
<stop offset="0.955" stop-color="#6EE5F9"/>
</linearGradient>
<linearGradient id="paint12_linear_1860_883" x1="20.0926" y1="5.03328" x2="20.0926" y2="31.7686" gradientUnits="userSpaceOnUse">
<stop stop-color="#1E557E"/>
<stop offset="0.613" stop-color="#2F7EBA"/>
</linearGradient>
<linearGradient id="paint13_linear_1860_883" x1="10.3946" y1="2.46042" x2="29.601" y2="25.769" gradientUnits="userSpaceOnUse">
<stop stop-color="#1E557E"/>
<stop offset="1" stop-color="#307FBB"/>
</linearGradient>
<linearGradient id="paint14_linear_1860_883" x1="5.37614" y1="19.8432" x2="34.1407" y2="19.9617" gradientUnits="userSpaceOnUse">
<stop stop-color="#2D70B0"/>
<stop offset="0.516" stop-color="#2B80AD"/>
</linearGradient>
<linearGradient id="paint15_linear_1860_883" x1="7.23556" y1="17.508" x2="35.2081" y2="17.9654" gradientUnits="userSpaceOnUse">
<stop offset="0.171" stop-color="#2A90CA"/>
<stop offset="0.673" stop-color="#2B6BA1"/>
</linearGradient>
<linearGradient id="paint16_linear_1860_883" x1="19.9745" y1="5.00908" x2="19.9745" y2="34.9583" gradientUnits="userSpaceOnUse">
<stop stop-color="#167B9F"/>
<stop offset="1" stop-color="#0F3D6B"/>
</linearGradient>
<linearGradient id="paint17_linear_1860_883" x1="34.9143" y1="17.7926" x2="7.90066" y2="18.0152" gradientUnits="userSpaceOnUse">
<stop stop-color="#4595DB"/>
<stop offset="0.642" stop-color="#1E7194"/>
</linearGradient>
<linearGradient id="paint18_linear_1860_883" x1="8.88862" y1="1.24468" x2="35.6866" y2="34.0637" gradientUnits="userSpaceOnUse">
<stop stop-color="#3D86B3"/>
<stop offset="0.641" stop-color="#336F7B"/>
</linearGradient>
<linearGradient id="paint19_linear_1860_883" x1="19.7474" y1="4.90541" x2="19.7474" y2="34.7704" gradientUnits="userSpaceOnUse">
<stop offset="0.174" stop-color="#387F95"/>
<stop offset="0.863" stop-color="#34707E"/>
</linearGradient>
<linearGradient id="paint20_linear_1860_883" x1="19.9388" y1="7.73892" x2="19.9388" y2="34.8903" gradientUnits="userSpaceOnUse">
<stop stop-color="#126393"/>
<stop offset="0.618" stop-color="#0F3D6B"/>
</linearGradient>
<linearGradient id="paint21_linear_1860_883" x1="32.2396" y1="10.1751" x2="2.61356" y2="15.1743" gradientUnits="userSpaceOnUse">
<stop offset="0.219" stop-color="#30709C"/>
<stop offset="1" stop-color="#3D93C6"/>
</linearGradient>
<linearGradient id="paint22_linear_1860_883" x1="19.8966" y1="10.3204" x2="19.8966" y2="34.9948" gradientUnits="userSpaceOnUse">
<stop stop-color="#4DB9E0"/>
<stop offset="0.846" stop-color="#3185BF"/>
</linearGradient>
<linearGradient id="paint23_linear_1860_883" x1="19.887" y1="5.00629" x2="19.887" y2="34.9696" gradientUnits="userSpaceOnUse">
<stop offset="0.27" stop-color="#0F5B8D"/>
<stop offset="1" stop-color="#0F3D6B"/>
</linearGradient>
<linearGradient id="paint24_linear_1860_883" x1="11.3637" y1="2.01493" x2="36.8598" y2="25.3563" gradientUnits="userSpaceOnUse">
<stop offset="0.204" stop-color="#0766A4"/>
<stop offset="1" stop-color="#0B66A2"/>
</linearGradient>
<linearGradient id="paint25_linear_1860_883" x1="5.92781" y1="3.21208" x2="36.5549" y2="26.492" gradientUnits="userSpaceOnUse">
<stop stop-color="#0F3D6B"/>
<stop offset="0.634" stop-color="#0B698B"/>
</linearGradient>
<clipPath id="clip0_1860_883">
<rect width="40" height="40" fill="white"/>
</clipPath>
</defs>
</svg>
