<svg xmlns="http://www.w3.org/2000/svg" width="40" height="40" viewBox="0 0 40 40">
  <g fill="none" fill-rule="evenodd">
    <g transform="translate(.002 .004)">
      <path fill="#6747ED" d="M-0.0021875,19.8964504 C0.0978125,8.89645036 8.9978125,-0.103549643 20.0978125,-0.00354964265 C31.0978125,0.0964503574 39.9978125,8.99645036 39.9978125,20.1964504 C39.8978125,31.0964504 30.9978125,39.9964504 19.9978125,39.9964504 C8.9978125,39.9964504 -0.0021875,30.9964504 -0.0021875,19.8964504 Z"/>
      <path fill="#FFF" d="M30.4166667,10.5832917 C30.4166667,11.3332917 29.8333333,11.916625 29.0833333,11.916625 C28.3333333,11.916625 27.75,11.3332917 27.75,10.5832917 C27.75,9.83329167 28.3333333,9.24995833 29.0833333,9.24995833 C29.7916667,9.24995833 30.4166667,9.83329167 30.4166667,10.5832917 M27.3333333,25.666625 C27.875,26.2082917 27.875,27.041625 27.3333333,27.541625 L22,32.8749583 C21.4583333,33.416625 20.625,33.416625 20.125,32.8749583 C19.5833333,32.3332917 19.5833333,31.4999583 20.125,30.9999583 L25.4583333,25.666625 C25.9583333,25.1249583 26.8333333,25.1249583 27.3333333,25.666625 M19.7083333,9.24995833 C24.125,9.24995833 27.7083333,12.8332917 27.7083333,17.2499583 C27.7083333,21.666625 24.125,25.2499583 19.7083333,25.2499583 C15.2916667,25.2499583 11.7083333,21.666625 11.7083333,17.2499583 C11.7083333,12.8332917 15.2916667,9.24995833 19.7083333,9.24995833 M19.7083333,22.5832917 C16.75,22.5832917 14.375,20.2082917 14.375,17.2499583 C14.375,14.291625 16.75,11.916625 19.7083333,11.916625 C22.6666667,11.916625 25.0416667,14.291625 25.0416667,17.2499583 C25.0416667,20.2082917 22.6666667,22.5832917 19.7083333,22.5832917"/>
    </g>
    <circle cx="20" cy="20" r="19.5" stroke="#000" stroke-opacity=".02"/>
  </g>
</svg>
