<svg width="40" height="40" viewBox="0 0 40 40" fill="none" xmlns="http://www.w3.org/2000/svg">
<g clip-path="url(#clip0_1837_811)">
<path d="M20 40C23.9556 40 27.8224 38.827 31.1114 36.6294C34.4004 34.4318 36.9638 31.3082 38.4776 27.6537C39.9913 23.9992 40.3874 19.9778 39.6157 16.0982C38.844 12.2186 36.9392 8.65492 34.1421 5.85787C31.3451 3.06082 27.7814 1.15601 23.9018 0.384303C20.0222 -0.387401 16.0009 0.00866568 12.3463 1.52242C8.69181 3.03617 5.56824 5.59962 3.37061 8.8886C1.17298 12.1776 0 16.0444 0 20C0 25.3043 2.10714 30.3914 5.85786 34.1421C9.60859 37.8929 14.6957 40 20 40Z" fill="#15EBB7"/>
<path fill-rule="evenodd" clip-rule="evenodd" d="M26.0602 15.3924C27.0063 16.7136 27.5063 18.3045 27.4928 19.9089C27.4928 21.4863 26.9792 23.0772 26.0602 24.358L28.0199 25.841C29.2633 24.1288 29.9525 22.0256 29.9525 19.9089C29.966 17.6709 29.2227 15.4733 27.8712 13.6936L26.7495 14.7048L26.0602 15.3924Z" fill="#0E0333"/>
<path fill-rule="evenodd" clip-rule="evenodd" d="M29.7768 27.1757L23.1815 22.1739C23.6546 21.5537 23.9249 20.8122 23.9654 20.0302C23.9924 19.2483 23.7897 18.4933 23.3707 17.8326L26.5332 14.9879L29.8309 11.9005C30.0471 11.6983 30.0607 11.3477 29.8444 11.132L29.3849 10.6736C27.0333 8.30079 23.8708 6.91213 20.5326 6.80428L20.5461 4.99768C20.5596 4.87634 20.5461 4.755 20.5191 4.63366C20.4785 4.51232 20.4245 4.40446 20.3434 4.31009C20.2623 4.21571 20.1677 4.1483 20.0461 4.09438C19.9379 4.04045 19.8163 4.01348 19.6947 4.01348C19.573 4.01348 19.4514 4.04045 19.3433 4.09438C19.2352 4.1483 19.127 4.21571 19.046 4.31009C18.9649 4.40446 18.8973 4.51232 18.8703 4.62018C18.8297 4.74152 18.8162 4.86285 18.8432 4.98419L18.8297 6.84472C18.0323 6.92562 17.2485 7.07392 16.4781 7.30311L16.4916 4.98419C16.5051 4.86285 16.4916 4.74152 16.4646 4.62018C16.424 4.49884 16.37 4.39098 16.2889 4.29661C16.2078 4.20223 16.1132 4.13482 15.9916 4.08089C15.8834 4.02697 15.7618 4 15.6402 4C15.5185 4 15.3969 4.02697 15.2888 4.08089C15.1807 4.13482 15.0725 4.20223 14.9915 4.29661C14.9104 4.39098 14.8428 4.49884 14.8158 4.60669C14.7752 4.72803 14.7617 4.84937 14.7887 4.97071L14.7482 7.93678C12.0317 9.15016 9.80171 11.2534 8.45021 13.8959C7.09871 16.5384 6.66623 19.5718 7.26089 22.484C7.85555 25.3961 9.42329 28.0251 11.7073 29.9261C13.9913 31.8271 16.87 32.9056 19.8298 32.9596L29.4255 33C29.7228 33 29.9661 32.7573 29.9661 32.4607V27.6206C29.9796 27.4454 29.912 27.2836 29.7768 27.1757ZM20.0325 30.6271C17.6674 30.6137 15.3699 29.8182 13.5048 28.3891C11.6397 26.9465 10.3018 24.9107 9.69359 22.6323C9.08541 20.3538 9.26111 17.927 10.1666 15.7564C11.0856 13.5858 12.6804 11.7657 14.7347 10.5793L14.7212 14.1116C14.7076 14.2329 14.7212 14.3543 14.7482 14.4756C14.7887 14.5969 14.8428 14.7048 14.9239 14.7992C15.005 14.8935 15.0996 14.9609 15.2212 15.0149C15.3293 15.0688 15.451 15.0958 15.5726 15.0958C15.6942 15.0958 15.8159 15.0688 15.924 15.0149C16.0321 14.9609 16.1402 14.8935 16.2213 14.7992C16.3024 14.7048 16.37 14.5969 16.397 14.4891C16.4376 14.3677 16.4511 14.2464 16.424 14.1251L16.4376 9.7973C17.6134 9.36588 18.8703 9.16365 20.1272 9.16365C22.4517 9.16365 24.7087 9.93212 26.5468 11.3208C26.6819 11.4286 26.6954 11.6174 26.5738 11.7387L21.5462 16.3361C21.0867 16.1474 20.5867 16.0395 20.1001 16.0395C19.546 16.0395 19.0054 16.1474 18.4918 16.3766C17.9783 16.6058 17.5323 16.9428 17.1809 17.3608C16.816 17.7787 16.5457 18.2775 16.3835 18.7899C16.2213 19.3292 16.1808 19.8819 16.2619 20.4212C16.343 20.974 16.5322 21.4998 16.8295 21.9582C17.1268 22.43 17.5323 22.821 17.9783 23.1311C18.4513 23.4277 18.9784 23.6299 19.519 23.7108C20.0731 23.7917 20.6272 23.7513 21.1543 23.5895L27.5739 28.4565C27.6415 28.5105 27.682 28.5914 27.682 28.6722L27.6685 30.3845C27.6685 30.5328 27.5469 30.6541 27.3982 30.6541L20.0325 30.6271ZM21.6003 19.8954C21.6003 20.192 21.5057 20.4886 21.3435 20.7448C21.1678 21.0009 20.938 21.1897 20.6542 21.311C20.3704 21.4324 20.0596 21.4593 19.7758 21.3919C19.4919 21.3245 19.2081 21.1897 18.9919 20.974C18.7757 20.7582 18.627 20.4886 18.5729 20.192C18.5189 19.8954 18.5459 19.5853 18.6675 19.3157C18.7892 19.0325 18.9784 18.8033 19.2352 18.6281C19.4919 18.4663 19.7893 18.3719 20.0866 18.3719C20.4921 18.3719 20.884 18.5337 21.1543 18.8303C21.4516 19.1 21.6003 19.4775 21.6003 19.8954Z" fill="#0E0333"/>
<path d="M39.5 20C39.5 23.8567 38.3563 27.6269 36.2137 30.8336C34.071 34.0404 31.0255 36.5397 27.4623 38.0156C23.8992 39.4916 19.9784 39.8777 16.1957 39.1253C12.4131 38.3729 8.93855 36.5157 6.21143 33.7886C3.4843 31.0615 1.62711 27.5869 0.874696 23.8043C0.122284 20.0216 0.508449 16.1008 1.98436 12.5377C3.46027 8.97451 5.95963 5.92903 9.16639 3.78634C12.3731 1.64365 16.1433 0.5 20 0.5C25.1717 0.5 30.1316 2.55446 33.7886 6.21142C37.4455 9.86837 39.5 14.8283 39.5 20Z" stroke="black" stroke-opacity="0.02"/>
</g>
<defs>
<clipPath id="clip0_1837_811">
<rect width="40" height="40" fill="white"/>
</clipPath>
</defs>
</svg>
