<svg width="40" height="40" viewBox="0 0 40 40" fill="none" xmlns="http://www.w3.org/2000/svg">
<g clip-path="url(#clip0_2615_16512)">
<path d="M20 40C31 40 40 31 40 20C40 9 31 0 20 0C9 0 0 9 0 20C0 31 9 40 20 40Z" fill="#F3F3F3"/>
<path d="M24.0072 7C21.7823 7.01241 19.6393 7.83793 17.984 9.32018C16.3287 10.8024 15.2762 12.8385 15.0257 15.0427C12.7349 15.2991 10.6292 16.419 9.13956 18.1729C7.64995 19.9269 6.8892 22.1823 7.01306 24.4772C7.13693 26.7722 8.13605 28.9331 9.80584 30.5176C11.4756 32.102 13.6898 32.9901 15.9949 33C18.2194 32.9871 20.3619 32.1613 22.0167 30.6791C23.6715 29.1969 24.7238 27.1611 24.9742 24.9573C27.2648 24.7009 29.3705 23.5812 30.8601 21.8275C32.3497 20.0738 33.1106 17.8187 32.987 15.5238C32.8634 13.229 31.8647 11.0681 30.1953 9.48349C28.5259 7.89887 26.3122 7.01041 24.0072 7V7ZM30.9243 17.023C30.6994 18.5023 30.0059 19.8711 28.9452 20.9294C27.8845 21.9878 26.5121 22.6802 25.0286 22.9055V17.023H30.9243ZM9.07564 22.977C9.30052 21.4977 9.99399 20.1289 11.0547 19.0706C12.1154 18.0122 13.4878 17.3198 14.9713 17.0945V22.9727L9.07564 22.977V22.977ZM22.9141 25.0137C22.674 26.672 21.8426 28.1885 20.5722 29.2854C19.3018 30.3823 17.6776 30.986 15.9971 30.986C14.3165 30.986 12.6923 30.3823 11.4219 29.2854C10.1515 28.1885 9.32011 26.672 9.07999 25.0137H22.9141ZM22.9902 17.023V22.977H17.0141V17.023H22.9902V17.023ZM30.9243 14.9863H17.0858C17.3292 13.3305 18.1619 11.8173 19.4319 10.7231C20.7019 9.62896 22.3244 9.02687 24.0029 9.02687C25.6813 9.02687 27.3038 9.62896 28.5738 10.7231C29.8438 11.8173 30.6765 13.3305 30.9199 14.9863H30.9243V14.9863Z" fill="#26DDF9"/>
<path d="M39.5 20C39.5 23.8567 38.3563 27.6269 36.2137 30.8336C34.071 34.0404 31.0255 36.5397 27.4623 38.0156C23.8992 39.4916 19.9784 39.8777 16.1957 39.1253C12.4131 38.3729 8.93855 36.5157 6.21143 33.7886C3.4843 31.0615 1.62711 27.5869 0.874696 23.8043C0.122284 20.0216 0.508449 16.1008 1.98436 12.5377C3.46027 8.97451 5.95963 5.92903 9.16639 3.78634C12.3731 1.64365 16.1433 0.5 20 0.5C25.1717 0.5 30.1316 2.55446 33.7886 6.21142C37.4455 9.86837 39.5 14.8283 39.5 20Z" stroke="black" stroke-opacity="0.02"/>
</g>
<defs>
<clipPath id="clip0_2615_16512">
<rect width="40" height="40" fill="white"/>
</clipPath>
</defs>
</svg>
