<svg width="40" height="40" viewBox="0 0 40 40" fill="none" xmlns="http://www.w3.org/2000/svg">
<g clip-path="url(#clip0_3665_51)">
<path d="M20 40C31 40 40 31 40 20C40 9 31 0 20 0C9 0 0 9 0 20C0 31 9 40 20 40Z" fill="#FDEE2D"/>
<path fill-rule="evenodd" clip-rule="evenodd" d="M28.5017 4.69105C28.6508 4.1604 27.8824 3.76242 27.5387 4.16388C26.4749 5.40522 25.4789 6.68334 24.6262 7.83302C25.2019 7.83829 25.7758 7.76679 26.3327 7.62039C27.0472 7.42752 27.6225 7.11518 27.947 6.69706C28.1346 6.00851 28.3229 5.32709 28.5017 4.69105ZM22.7695 10.433C23.088 9.9684 23.4768 9.41195 23.9207 8.79622L23.9252 8.79714L23.9458 8.80043C24.6796 8.89027 25.6731 8.84398 26.5949 8.59494C26.9142 8.51032 27.2251 8.39684 27.5239 8.25588C27.2791 9.16548 27.0482 10.0332 26.8553 10.7627C26.1991 11.3351 25.4476 11.3885 24.7248 11.2712C23.8986 11.1371 23.1451 10.7431 22.7695 10.433ZM19.4133 18.8981C19.4133 18.8181 19.4289 18.7389 19.4595 18.6651C19.49 18.5912 19.5349 18.5241 19.5914 18.4675C19.6479 18.411 19.715 18.3662 19.7889 18.3356C19.8627 18.305 19.9419 18.2892 20.0218 18.2892H21.3839C21.5435 18.292 21.6957 18.3574 21.8076 18.4713C21.9195 18.5851 21.9822 18.7383 21.9822 18.8979C21.9822 19.0576 21.9195 19.2108 21.8076 19.3246C21.6957 19.4386 21.5435 19.5039 21.3839 19.5066H20.0218C19.942 19.5066 19.8628 19.491 19.7889 19.4604C19.715 19.4298 19.6479 19.385 19.5914 19.3285C19.5349 19.272 19.4901 19.2049 19.4595 19.131C19.4289 19.0571 19.4133 18.9779 19.4133 18.8981ZM17.586 16.8463C17.7335 17.1592 18.0945 17.3037 18.3922 17.1708C18.8809 16.9514 19.6094 16.7654 20.3158 16.7501C21.0451 16.7342 21.5986 16.9017 21.9007 17.2119C22.1419 17.4592 22.5228 17.471 22.7512 17.2378C22.9796 17.0047 22.9697 16.6157 22.7286 16.3676C22.0514 15.6739 21.0654 15.5008 20.2217 15.5191C19.3545 15.5374 18.4772 15.761 17.8581 16.0386C17.5604 16.1719 17.4385 16.5333 17.586 16.8463ZM22.9825 11.7594C23.3604 11.9525 23.8769 12.1636 24.4712 12.269C24.7128 12.3122 24.9578 12.3342 25.2031 12.3347C25.6526 12.3332 26.0975 12.2435 26.5123 12.0707L26.5095 12.082L26.7257 12.1552L26.7324 12.1576L26.7507 12.1634L26.7663 12.1689L26.8176 12.1872C26.8761 12.2079 26.964 12.2392 27.0809 12.2822C27.3152 12.368 27.6689 12.5001 28.1498 12.6875C28.4042 12.7865 28.5983 12.9686 28.7414 13.1422C28.8904 13.3292 29.0189 13.5316 29.1246 13.746C29.343 14.1762 29.5255 14.6922 29.6706 15.1718C29.817 15.6558 29.9314 16.125 30.0089 16.4709C30.048 16.6446 30.078 16.7888 30.0982 16.89C30.1085 16.9407 30.1165 16.9806 30.1215 17.0085C30.1233 17.0177 30.1247 17.0258 30.126 17.0322L30.1271 17.0377V17.0404C30.127 17.0421 30.127 17.0436 30.1271 17.0452C30.1271 17.0465 30.1271 17.048 30.1271 17.0492V17.0527L30.157 17.2148L30.1007 17.3696C29.8344 18.1059 30.011 18.6201 30.3203 19.204C30.3675 19.2927 30.4239 19.3935 30.485 19.5007C30.6084 19.7203 30.747 19.9679 30.8521 20.1961C31.0227 20.5672 31.1632 20.9978 31.1548 21.4973C31.1485 21.8656 31.0847 22.6394 30.9497 23.6115C30.9341 23.7717 30.9099 23.9307 30.8805 24.0854C30.7186 25.1417 30.4794 26.3726 30.1486 27.5514C29.7974 28.8041 29.3294 30.0504 28.7093 30.9763C28.0972 31.8899 27.2271 32.6414 26.0683 32.5316L26.0428 32.5292L26.0176 32.5246C23.643 32.0953 20.9904 31.4049 18.8171 30.1971C16.6396 28.9853 14.8728 27.2101 14.4365 24.601L14.4342 24.5865L14.4323 24.5719L14.4246 24.506C14.4219 24.483 14.4186 24.4541 14.4146 24.4199C14.4111 24.39 14.4073 24.3561 14.4027 24.318C14.3939 24.2405 14.3831 24.1467 14.3707 24.0384C14.3568 23.9185 14.341 23.7808 14.3236 23.628C14.2578 23.0459 14.1685 22.2424 14.075 21.3573C13.8889 19.5927 13.6843 17.4851 13.6175 16.1647C13.5626 15.062 13.7136 14.0364 14.5141 13.2213C15.2792 12.4427 16.5417 11.9603 18.4136 11.6346C19.3629 11.4699 20.7472 11.2628 21.9975 11.2628H22.2043L22.2069 11.265V11.2637C22.4499 11.4523 22.7094 11.6184 22.9825 11.76V11.7594ZM26.6604 13.4256C26.886 13.5082 27.2306 13.637 27.7019 13.8205H27.703C27.7398 13.8474 27.7724 13.8795 27.7999 13.9158C27.8708 14.0018 27.9512 14.1285 28.0377 14.2972C28.209 14.6348 28.367 15.0728 28.5037 15.5241C28.546 15.664 28.5857 15.8031 28.6223 15.9383C28.4334 15.892 28.2421 15.8553 28.0494 15.8285C27.557 15.7614 27.0166 15.7577 26.5374 15.8926C26.0522 16.0291 25.5508 16.3359 25.3269 16.9356C25.1144 17.5039 25.2183 18.1679 25.5282 18.8818C25.5345 18.8963 25.5413 18.9105 25.5488 18.9244C26.2768 20.2939 26.8431 21.3518 27.2206 22.0534C27.2347 22.0809 27.2424 22.1112 27.2428 22.1422C27.2432 22.1731 27.2366 22.2037 27.2232 22.2317C27.2098 22.2595 27.1901 22.284 27.1657 22.303C27.1413 22.322 27.1129 22.335 27.0825 22.3412L24.5699 22.8079C24.242 22.8687 24.0154 23.1898 24.064 23.5251C24.1063 23.8164 24.3424 24.0224 24.6189 24.0315L24.5354 24.285C24.4773 24.4613 24.3651 24.6148 24.2147 24.7236C24.0643 24.8324 23.8833 24.891 23.6977 24.891H21.2248C21.0934 24.891 20.9636 24.8618 20.845 24.8053C20.7264 24.7488 20.6219 24.6665 20.5391 24.5645L19.549 23.3427C19.4987 23.2806 19.4366 23.229 19.3664 23.1908C19.2962 23.1527 19.2191 23.1288 19.1396 23.1205C19.06 23.1121 18.9797 23.1195 18.9031 23.1423C18.8265 23.165 18.755 23.2026 18.693 23.253C18.6308 23.3032 18.5793 23.3652 18.5411 23.4356C18.503 23.5058 18.479 23.5829 18.4707 23.6623C18.4624 23.7418 18.4699 23.8222 18.4925 23.8988C18.5153 23.9755 18.5529 24.0468 18.6032 24.109L19.5933 25.331C19.7901 25.5738 20.0387 25.7697 20.3208 25.9043C20.6031 26.0387 20.9118 26.1085 21.2244 26.1085H23.6966C24.1387 26.1086 24.5695 25.9691 24.9276 25.7101C25.2858 25.451 25.553 25.0855 25.6911 24.6657L25.7338 24.5359L25.9599 24.973C26.1369 25.3148 26.4044 25.6014 26.7333 25.8015C27.062 26.0016 27.4396 26.1075 27.8246 26.1075H28.9839C29.0773 26.1075 29.1704 26.1004 29.2628 26.0864C29.1764 26.465 29.0798 26.8464 28.9755 27.2223C28.6366 28.4299 28.2103 29.5312 27.6966 30.2983C27.4851 30.6143 27.2757 30.8492 27.0705 31.0139C27.0236 30.4339 26.9375 29.853 26.8534 29.3729C26.8089 29.1186 26.7645 28.889 26.7253 28.6977H26.9041C27.0637 28.695 27.2159 28.6297 27.3278 28.5158C27.4397 28.402 27.5023 28.2488 27.5023 28.0891C27.5023 27.9295 27.4397 27.7762 27.3278 27.6623C27.2159 27.5485 27.0637 27.4832 26.9041 27.4804H25.0318C24.951 27.479 24.8708 27.4937 24.7957 27.5237C24.7206 27.5537 24.6523 27.5982 24.5946 27.6549C24.537 27.7116 24.4912 27.7792 24.4599 27.8538C24.4287 27.9282 24.4125 28.0083 24.4125 28.0891C24.4125 28.17 24.4287 28.25 24.4599 28.3245C24.4912 28.3991 24.537 28.4667 24.5946 28.5233C24.6523 28.5799 24.7206 28.6246 24.7957 28.6545C24.8708 28.6845 24.951 28.6992 25.0318 28.6977H25.482L25.4895 28.7325C25.5345 28.9427 25.5948 29.2392 25.6542 29.5825C25.7434 30.0927 25.8294 30.6906 25.8679 31.2575C23.6464 30.8343 21.3029 30.1851 19.4076 29.1316C17.4199 28.0284 15.9944 26.5208 15.6382 24.4161V24.4146V24.4098V24.4032C15.6369 24.3933 15.6354 24.3811 15.6338 24.3667C15.6287 24.324 15.6213 24.261 15.612 24.1799C15.6041 24.1103 15.5937 24.0272 15.5836 23.9323V23.9288V23.9271C15.5692 23.8022 15.5525 23.6566 15.5341 23.4937C15.5106 23.2872 15.4843 23.0529 15.4557 22.7967C15.7286 22.9857 16.0488 23.0808 16.3809 23.0473C17.2279 22.9617 17.8317 22.0717 17.7295 21.0594C17.6272 20.0472 16.8576 19.2958 16.0105 19.3814C15.6726 19.4156 15.3732 19.5778 15.1421 19.8248C15.0056 18.4486 14.8825 17.0589 14.8351 16.1069C14.7866 15.1371 14.9363 14.5332 15.384 14.0772C15.8684 13.5845 16.8041 13.1534 18.6238 12.8368C19.5093 12.6827 20.7178 12.5038 21.8103 12.4846L21.8286 12.4967L21.8411 12.5049C21.9691 12.5883 22.1521 12.7001 22.3813 12.8196C22.8372 13.0575 23.4889 13.332 24.2604 13.469C24.8452 13.5752 25.4437 13.5813 26.0306 13.4873C26.1973 13.4603 26.3624 13.4233 26.5246 13.3764L26.6604 13.4256ZM26.6552 23.6687L27.0412 24.4151C27.1155 24.5588 27.2278 24.6793 27.366 24.7634C27.5041 24.8474 27.6628 24.8919 27.8246 24.892H28.9843C29.2534 24.892 29.4458 24.7399 29.5047 24.5543C29.5756 24.3329 29.6342 24.1075 29.68 23.8795C29.7307 23.5476 29.7731 23.2347 29.808 22.9493C29.2854 22.537 29.0309 21.7964 29.1127 20.9381C29.1464 20.5835 29.2807 20.3334 29.4553 20.1569L29.4477 20.1437C29.3852 20.0327 29.3182 19.9136 29.2452 19.7758C28.9028 19.1304 28.5895 18.3398 28.8476 17.3101C28.5268 17.1859 28.1926 17.0995 27.8518 17.0529C27.4468 16.998 27.0832 17.0085 26.8177 17.0829C26.559 17.156 26.4767 17.26 26.4445 17.3459C26.4015 17.4613 26.3696 17.751 26.617 18.3286L26.6995 18.4841L26.7479 18.5757L26.8 18.6741C26.8451 18.5608 26.9231 18.4635 27.0241 18.395C27.125 18.3265 27.2442 18.2898 27.3662 18.2898H28.0231C28.1827 18.2926 28.3347 18.3579 28.4466 18.4717C28.5586 18.5857 28.6213 18.7389 28.6213 18.8985C28.6213 19.0582 28.5586 19.2114 28.4466 19.3252C28.3347 19.4391 28.1827 19.5045 28.0231 19.5072H27.3662C27.3225 19.5071 27.279 19.5025 27.2362 19.4933C27.666 20.2985 28.0151 20.9508 28.2745 21.4329C28.734 22.2882 28.2104 23.3803 27.2569 23.5573L26.6552 23.6687ZM13.5924 10.4703C13.9844 9.16621 14.8506 7.96348 15.657 7.0568C16.1366 6.51793 16.4854 6.22553 16.6978 6.07273C16.8111 5.99185 16.9478 6.0698 16.954 6.20851C16.9849 6.91517 17.0726 8.83355 17.1862 10.8549C15.7589 11.1925 14.6014 11.693 13.7943 12.5144C12.7161 13.6112 12.5531 14.9632 12.6064 16.1619C11.5604 16.3785 10.4673 16.6757 9.47354 17.1134C8.25288 17.6509 7.12315 18.421 6.38116 19.5624C6.24869 18.5409 6.25765 17.297 6.62087 16.0279C7.2269 13.9052 10.1822 12.637 13.4461 11.8848C13.4532 11.3076 13.4944 10.8002 13.5924 10.4709V10.4703ZM22.2026 10.2553C22.4013 10.2553 22.5954 10.314 22.7608 10.4238C22.6877 8.69046 22.6328 7.13402 22.6112 6.49633C22.6063 6.35197 22.4631 6.27676 22.3531 6.37007C22.1645 6.53018 21.87 6.82057 21.4731 7.32963C20.8255 8.16037 20.1331 9.23831 19.7518 10.413C20.4654 10.3238 21.2484 10.2553 21.9966 10.2553H22.2026ZM25.8381 33.5184C23.4884 33.0935 20.7904 32.4051 18.5113 31.1806C18.5794 32.4403 18.8389 34.1114 19.7051 34.6618C20.3921 35.0982 21.0718 35.0232 21.9848 34.9227C22.8006 34.8327 23.8024 34.7216 25.1623 34.9372C25.7987 35.0384 26.4531 34.7456 26.7224 34.1602C26.8445 33.8948 26.9442 33.6688 27.0225 33.4721C26.6781 33.55 26.3233 33.572 25.9718 33.537L25.9464 33.5347C25.9175 33.532 25.8904 33.5281 25.8626 33.5232L25.8381 33.5184ZM20.8903 34.0513C20.7779 34.1263 20.6422 34.1585 20.508 34.1419C20.3738 34.1254 20.2501 34.061 20.1594 33.9608C20.0686 33.8607 20.0169 33.7312 20.0136 33.5961C20.0103 33.4609 20.0557 33.3291 20.1416 33.2247C20.2274 33.1201 20.3478 33.05 20.481 33.0269C20.6143 33.0039 20.7513 33.0294 20.8673 33.099C20.9831 33.1685 21.0702 33.2774 21.1125 33.4058C21.1549 33.5341 21.1497 33.6735 21.0979 33.7984C21.0553 33.9014 20.983 33.9894 20.8903 34.0513ZM13.3419 23.926C13.3263 23.7901 13.3109 23.6544 13.2957 23.5187C12.0095 23.7621 10.7751 24.1689 9.83566 24.7059C8.98004 25.195 8.44829 25.7468 8.27301 26.3011C8.1343 26.739 8.19121 27.2709 8.68197 27.9259C8.93063 28.258 9.37546 28.5781 9.83291 28.8528C12.23 30.2917 15.098 30.3598 16.8133 30.0981C15.1513 28.8369 13.8307 27.1123 13.4389 24.7695C13.4358 24.7512 13.4334 24.7338 13.4314 24.7161C13.4018 24.4527 13.372 24.1903 13.3421 23.9293V23.926H13.3419ZM13.0691 21.465C12.9238 20.0892 12.7656 18.4876 12.6711 17.2067C11.7291 17.4066 10.765 17.6761 9.875 18.0681C8.71985 18.5769 7.75242 19.2704 7.15298 20.2338C6.87851 20.6751 6.67412 21.1853 6.56854 21.7809C6.3625 23.1672 6.60019 24.6661 7.29406 26.0237C7.30192 25.9955 7.31034 25.9673 7.31913 25.9392C7.6011 25.048 8.37511 24.3449 9.30832 23.8114C10.3773 23.2003 11.7592 22.7526 13.1807 22.494C13.1429 22.1517 13.1057 21.8087 13.0691 21.465Z" fill="#131313"/>
<path d="M39.5 20C39.5 23.8567 38.3563 27.6269 36.2137 30.8336C34.071 34.0404 31.0255 36.5397 27.4623 38.0156C23.8992 39.4916 19.9784 39.8777 16.1957 39.1253C12.4131 38.3729 8.93855 36.5157 6.21143 33.7886C3.4843 31.0615 1.62711 27.5869 0.874696 23.8043C0.122284 20.0216 0.508449 16.1008 1.98436 12.5377C3.46027 8.97451 5.95963 5.92903 9.16639 3.78634C12.3731 1.64365 16.1433 0.5 20 0.5C25.1717 0.5 30.1316 2.55446 33.7886 6.21142C37.4455 9.86837 39.5 14.8283 39.5 20Z" stroke="black" stroke-opacity="0.02"/>
</g>
<defs>
<clipPath id="clip0_3665_51">
<path d="M0 20C0 8.95431 8.95431 0 20 0V0C31.0457 0 40 8.95431 40 20V20C40 31.0457 31.0457 40 20 40V40C8.95431 40 0 31.0457 0 20V20Z" fill="white"/>
</clipPath>
</defs>
</svg>
