<svg width="40" height="40" viewBox="0 0 40 40" fill="none" xmlns="http://www.w3.org/2000/svg">
<g clip-path="url(#clip0)">
<path fill-rule="evenodd" clip-rule="evenodd" d="M20 0C24 0 27.8 1.2 31.1 3.4C34.4 5.6 37 8.7 38.5 12.4C40 16 40.4 20 39.6 23.9C38.8 27.8 36.9 31.3 34.1 34.1C31.3 36.9 27.7 38.8 23.9 39.6C20 40.4 16 40 12.3 38.5C8.6 37 5.5 34.4 3.3 31.1C1.2 27.8 0 24 0 20C0 14.7 2.1 9.6 5.9 5.9C9.6 2.1 14.7 0 20 0Z" fill="black"/>
<path d="M28.3 29H25.7V23.4H14.4V29H11.8V11H14.4V16.6H25.6V11H28.2L28.3 29Z" fill="white"/>
<path d="M25.6 18.6H14.4V21.5H25.6V18.6Z" fill="black"/>
<circle cx="20" cy="20" r="19.5" stroke="black" stroke-opacity="0.04"/>
<mask id="mask0" mask-type="alpha" maskUnits="userSpaceOnUse" x="0" y="0" width="40" height="40">
<circle cx="20" cy="20" r="20" fill="white"/>
<circle cx="20" cy="20" r="19.5" stroke="white"/>
</mask>
<g mask="url(#mask0)">
</g>
</g>
<defs>
<clipPath id="clip0">
<rect width="40" height="40" fill="white"/>
</clipPath>
</defs>
</svg>
