<svg width="40" height="40" viewBox="0 0 40 40" fill="none" xmlns="http://www.w3.org/2000/svg">
<path fill-rule="evenodd" clip-rule="evenodd" d="M20 0C23.9556 0 27.8224 1.17298 31.1114 3.37061C34.4004 5.56824 36.9638 8.69181 38.4776 12.3463C39.9913 16.0009 40.3874 20.0222 39.6157 23.9018C38.844 27.7814 36.9392 31.3451 34.1421 34.1421C31.3451 36.9392 27.7814 38.844 23.9018 39.6157C20.0222 40.3874 16.0009 39.9913 12.3463 38.4776C8.69181 36.9638 5.56824 34.4004 3.37061 31.1114C1.17298 27.8224 0 23.9556 0 20C0 14.6957 2.10714 9.60859 5.85786 5.85786C9.60859 2.10714 14.6957 0 20 0V0Z" fill="#474DFF"/>
<path d="M20 39.5C30.7696 39.5 39.5 30.7696 39.5 20C39.5 9.23045 30.7696 0.5 20 0.5C9.23045 0.5 0.5 9.23045 0.5 20C0.5 30.7696 9.23045 39.5 20 39.5Z" stroke="black" stroke-opacity="0.02"/>
<path fill-rule="evenodd" clip-rule="evenodd" d="M24.5799 8.44001C23.8846 9.13813 23.4473 10.0308 23.2699 11C21.558 10.3677 19.7008 10.2392 17.9181 10.6295C16.1354 11.0199 14.5019 11.9129 13.211 13.2028C11.92 14.4927 11.0257 16.1255 10.6338 17.9079C10.242 19.6903 10.369 21.5476 10.9999 23.26C10.2448 23.4075 9.53476 23.7301 8.9269 24.2019C8.31904 24.6736 7.83029 25.2813 7.49992 25.9762C7.16955 26.6711 7.00677 27.4338 7.02464 28.203C7.04252 28.9723 7.24056 29.7266 7.60286 30.4054C7.96516 31.0842 8.48161 31.6685 9.11073 32.1115C9.73985 32.5545 10.4641 32.8438 11.2253 32.956C11.9865 33.0683 12.7634 33.0005 13.4936 32.7581C14.2239 32.5156 14.8871 32.1053 15.4299 31.56C16.1128 30.8569 16.5691 29.9652 16.7399 29C18.4515 29.6341 20.3091 29.7639 22.0923 29.3739C23.8754 28.984 25.5092 28.0906 26.7999 26.8C28.0906 25.5093 28.9839 23.8755 29.3738 22.0923C29.7638 20.3092 29.634 18.4516 28.9999 16.74C29.7561 16.5943 30.4676 16.2731 31.077 15.8022C31.6864 15.3314 32.1768 14.7241 32.5086 14.0292C32.8405 13.3342 33.0046 12.5711 32.9878 11.8012C32.9709 11.0313 32.7736 10.276 32.4116 9.59631C32.0496 8.91658 31.5331 8.33131 30.9037 7.8876C30.2742 7.44389 29.5494 7.15414 28.7876 7.04166C28.0257 6.92917 27.2481 6.9971 26.5173 7.23997C25.7865 7.48285 25.1229 7.89388 24.5799 8.44001ZM30.3399 9.55001C30.8191 10.0323 31.1449 10.6928 31.253 11.3641C31.361 12.0353 31.2558 12.7235 30.9522 13.3319C30.6486 13.9402 30.1619 14.438 29.5605 14.7552C28.9591 15.0724 28.1234 15.193 27.4499 15.1C27.0736 15.0525 26.6922 15.1346 26.3687 15.3327C26.0451 15.5308 25.7987 15.8332 25.6699 16.19C25.586 16.3912 25.5429 16.607 25.5429 16.825C25.5429 17.043 25.586 17.2588 25.6699 17.46C26.201 18.6146 26.3656 19.9042 26.1416 21.1552C25.9176 22.4062 25.3158 23.5586 24.4172 24.4572C23.5185 25.3559 22.3662 25.9577 21.1152 26.1817C19.8642 26.4057 18.5746 26.241 17.4199 25.71C17.221 25.6157 17.005 25.5626 16.7851 25.554C16.5651 25.5454 16.3456 25.5815 16.1399 25.66C15.7258 25.8121 15.3882 26.121 15.1999 26.52C15.0831 26.7768 15.0315 27.0585 15.0499 27.34C15.1427 27.8899 15.0925 28.6243 14.9041 29.1492C14.7156 29.674 14.3953 30.1415 13.9739 30.5067C13.5525 30.872 13.0443 31.1227 12.498 31.2346C11.9517 31.3466 11.3858 31.3162 10.8547 31.1463C10.3236 30.9763 9.8452 30.6726 9.46543 30.2642C9.08567 29.8559 8.81735 29.3567 8.6863 28.8147C8.55524 28.2727 8.56585 27.7061 8.7171 27.1693C8.86835 26.6326 9.15516 26.1438 9.54994 25.75C9.91451 25.3887 10.3583 25.1174 10.8461 24.9577C11.3339 24.798 11.8523 24.7543 12.3599 24.83C12.8241 24.8993 13.17 24.7794 13.3899 24.68C13.7883 24.4959 14.0975 24.1615 14.2499 23.75C14.3385 23.5448 14.3843 23.3236 14.3843 23.1C14.3843 22.8765 14.3385 22.6553 14.2499 22.45C13.7161 21.2957 13.5495 20.0054 13.7727 18.7534C13.9959 17.5014 14.5981 16.3481 15.4978 15.4494C16.3976 14.5507 17.5517 13.9499 18.8039 13.7283C20.0562 13.5066 21.3463 13.6748 22.4999 14.21C22.7792 14.3374 23.0881 14.3859 23.393 14.3501C23.6979 14.3143 23.9872 14.1957 24.2294 14.007C24.4716 13.8184 24.6575 13.567 24.7669 13.2802C24.8763 12.9934 24.905 12.682 24.8499 12.38C24.7344 11.7017 24.8378 11.0043 25.1452 10.3887C25.4525 9.77317 25.9479 9.27142 26.5594 8.95617C27.171 8.64092 27.867 8.52854 28.5467 8.63531C29.2264 8.74207 29.8545 9.06244 30.3399 9.55001ZM17.4699 17.46C16.9663 17.9634 16.6233 18.6049 16.4842 19.3032C16.3452 20.0016 16.4164 20.7255 16.6888 21.3835C16.9612 22.0414 17.4227 22.6037 18.0147 22.9994C18.6068 23.395 19.3029 23.6062 20.0149 23.6062C20.727 23.6062 21.4231 23.395 22.0152 22.9994C22.6072 22.6037 23.0686 22.0414 23.3411 21.3835C23.6135 20.7255 23.6847 20.0016 23.5456 19.3032C23.4066 18.6049 23.0636 17.9634 22.5599 17.46C21.8849 16.7852 20.9694 16.4062 20.0149 16.4062C19.0604 16.4062 18.145 16.7852 17.4699 17.46Z" fill="white"/>
</svg>
