<svg width="40" height="40" viewBox="0 0 40 40" fill="none" xmlns="http://www.w3.org/2000/svg">
<g clip-path="url(#clip0_2123_79)">
<path fill-rule="evenodd" clip-rule="evenodd" d="M20 0C31.0465 0 40 8.95353 40 20C40 31.0465 31.0465 40 20 40C8.95353 40 0 31.0465 0 20C0 8.95353 8.95353 0 20 0Z" fill="#F3F3F3"/>
<path d="M28.227 12C26.4393 12 24.4893 12.9714 22.4309 14.8864C21.4559 15.7883 20.6027 16.7597 19.9798 17.5368C19.9798 17.5368 20.9819 18.6886 22.0788 19.9236C22.6747 19.1742 23.5278 18.1612 24.5163 17.2454C26.3445 15.5386 27.5362 15.1917 28.227 15.1917C30.7999 15.1917 32.8854 17.3425 32.8854 20.0069C32.8854 22.6434 30.7999 24.7943 28.227 24.822C28.1049 24.822 27.9559 24.8082 27.78 24.7666C28.5247 25.1135 29.3373 25.3633 30.0957 25.3633C34.8083 25.3633 35.7289 22.1161 35.7831 21.8802C35.9185 21.2835 36 20.659 36 20.0208C35.9863 15.594 32.5062 12 28.227 12Z" fill="url(#paint0_linear_2123_79)"/>
<path d="M11.7731 28C13.5607 28 15.5107 27.0286 17.5691 25.1136C18.5441 24.2117 19.3973 23.2403 20.0202 22.4632C20.0202 22.4632 19.0181 21.3114 17.9211 20.0764C17.3253 20.8258 16.4721 21.8388 15.4836 22.7546C13.6555 24.4476 12.4502 24.8083 11.7731 24.8083C9.20011 24.8083 7.11464 22.6575 7.11464 19.9931C7.11464 17.3565 9.20011 15.2057 11.7731 15.178C11.895 15.178 12.0439 15.1918 12.22 15.2334C11.4752 14.8865 10.6627 14.6367 9.90431 14.6367C5.19169 14.6367 4.27082 17.8839 4.21667 18.1198C4.08126 18.7165 4 19.341 4 19.9792C4 24.4059 7.48029 28 11.7731 28Z" fill="url(#paint1_linear_2123_79)"/>
<path fill-rule="evenodd" clip-rule="evenodd" d="M15.3558 17.3148C14.8412 16.8152 12.3224 14.7753 9.9119 14.706C5.61625 14.5983 4.3535 17.716 4.24463 18.1181C5.06744 14.622 8.13451 12.0139 11.7807 12C14.7532 12 17.757 14.9097 19.9763 17.5357C19.98 17.5313 19.9835 17.527 19.9869 17.5229C19.9869 17.5229 20.9889 18.6746 22.0859 19.9096C22.0859 19.9096 23.3317 21.3806 24.6589 22.6711C25.1735 23.1707 27.6786 25.1828 30.0891 25.2522C34.504 25.3771 35.7227 22.0883 35.7903 21.8385C34.978 25.3493 31.9039 27.972 28.2474 27.9859C25.274 27.9859 22.2692 25.0743 20.0404 22.4475C20.036 22.4529 20.0318 22.4581 20.0277 22.463C20.0277 22.463 19.0257 21.3113 17.9287 20.0762C17.9287 20.0762 16.6829 18.6053 15.3558 17.3148ZM4.23779 18.1474C4.23901 18.1403 4.24127 18.1305 4.24463 18.1181C4.24233 18.1278 4.24006 18.1376 4.23779 18.1474Z" fill="#29ABE2"/>
<path d="M39.5 20C39.5 23.8567 38.3563 27.6269 36.2137 30.8336C34.071 34.0404 31.0255 36.5397 27.4623 38.0156C23.8992 39.4916 19.9784 39.8777 16.1957 39.1253C12.4131 38.3729 8.93855 36.5157 6.21143 33.7886C3.4843 31.0615 1.62711 27.5869 0.874696 23.8043C0.122284 20.0216 0.508449 16.1008 1.98436 12.5377C3.46027 8.97451 5.95963 5.92903 9.16639 3.78634C12.3731 1.64365 16.1433 0.5 20 0.5C25.1717 0.5 30.1316 2.55446 33.7886 6.21142C37.4455 9.86837 39.5 14.8283 39.5 20Z" stroke="black" stroke-opacity="0.02"/>
</g>
<defs>
<linearGradient id="paint0_linear_2123_79" x1="12.33" y1="13.3873" x2="23.8575" y2="32.8217" gradientUnits="userSpaceOnUse">
<stop offset="0.21" stop-color="#F15A24"/>
<stop offset="0.6841" stop-color="#FBB03B"/>
</linearGradient>
<linearGradient id="paint1_linear_2123_79" x1="27.6525" y1="26.6055" x2="16.1249" y2="7.17114" gradientUnits="userSpaceOnUse">
<stop offset="0.21" stop-color="#ED1E79"/>
<stop offset="0.8929" stop-color="#522785"/>
</linearGradient>
<clipPath id="clip0_2123_79">
<rect width="40" height="40" fill="white"/>
</clipPath>
</defs>
</svg>
