<svg width="40" height="40" viewBox="0 0 40 40" fill="none" xmlns="http://www.w3.org/2000/svg">
<path d="M20 40C31 40 40 31 40 20C40 9 31 0 20 0C9 0 0 9 0 20C0 31 9 40 20 40Z" fill="#32B8BB"/>
<path d="M28.8549 9.00154C30.0589 9.02158 31.0191 10.021 30.9997 11.2342C30.9997 11.244 30.9992 11.2532 30.9992 11.263C30.9553 12.487 29.935 13.4427 28.7208 13.3985C27.5444 13.3554 26.6102 12.3878 26.6 11.2018C26.5934 9.99275 27.5607 9.00668 28.7606 9C28.7922 9 28.8238 9.00051 28.8549 9.00154Z" fill="white"/>
<path d="M27.2829 14.6571C30.2904 18.6235 29.5125 24.2769 25.5459 27.2836C22.327 29.724 17.8766 29.7245 14.6571 27.2852L17.0946 24.8479C19.7144 26.5094 23.1854 25.7327 24.847 23.1131C26.012 21.2764 26.012 18.9326 24.847 17.096L27.2829 14.6571Z" fill="white"/>
<path d="M25.3429 12.6595L22.8841 15.1199C20.2116 13.5049 16.736 14.3623 15.1211 17.0344C14.0347 18.8323 14.0347 21.0846 15.1211 22.8825L12.6608 25.3429C9.68503 21.3146 10.5377 15.6359 14.5664 12.6601C17.7691 10.2944 22.1402 10.2944 25.3429 12.6595Z" fill="white"/>
<path d="M11.2217 26.6002C12.4366 26.612 13.4121 27.6068 13.3999 28.8215C13.3882 30.0367 12.3937 31.0116 11.1788 30.9999C9.96343 30.9877 8.98837 29.9933 9.0001 28.7786C9.0001 28.774 9.0001 28.77 9.0001 28.7654C9.00317 27.5665 9.97772 26.5972 11.1768 26.6002C11.1921 26.5997 11.2069 26.6002 11.2217 26.6002Z" fill="white"/>
<path d="M39.5 20C39.5 23.8567 38.3563 27.6269 36.2137 30.8336C34.071 34.0404 31.0255 36.5397 27.4623 38.0156C23.8992 39.4916 19.9784 39.8777 16.1957 39.1253C12.4131 38.3729 8.93855 36.5157 6.21143 33.7886C3.4843 31.0615 1.62711 27.5869 0.874696 23.8043C0.122284 20.0216 0.508449 16.1008 1.98436 12.5377C3.46027 8.97451 5.95963 5.92903 9.16639 3.78634C12.3731 1.64365 16.1433 0.5 20 0.5C25.1717 0.5 30.1316 2.55446 33.7886 6.21142C37.4455 9.86837 39.5 14.8283 39.5 20Z" stroke="black" stroke-opacity="0.02"/>
</svg>
