<svg width="40" height="40" viewBox="0 0 40 40" fill="none" xmlns="http://www.w3.org/2000/svg">
<g clip-path="url(#clip0_1860_3905)">
<path d="M20 40C23.9556 40 27.8224 38.827 31.1114 36.6294C34.4004 34.4318 36.9638 31.3082 38.4776 27.6537C39.9913 23.9992 40.3874 19.9778 39.6157 16.0982C38.844 12.2186 36.9392 8.65492 34.1421 5.85787C31.3451 3.06082 27.7814 1.15601 23.9018 0.384303C20.0222 -0.387401 16.0009 0.00866568 12.3463 1.52242C8.69181 3.03617 5.56824 5.59962 3.37061 8.8886C1.17298 12.1776 0 16.0444 0 20C0 25.3043 2.10714 30.3914 5.85786 34.1421C9.60859 37.8929 14.6957 40 20 40Z" fill="url(#paint0_linear_1860_3905)"/>
<path d="M20.015 9.49754C19.8695 13.9322 19.874 18.7057 20.015 23.1677C20.1398 18.7071 20.144 13.9324 20.015 9.49754ZM15.1142 32.9657L15.124 33C15.1667 32.979 15.2111 32.9606 15.253 32.9373C16.1276 32.4534 17.057 32.0976 18.0039 31.7884C19.2101 31.3948 20.4343 31.3514 21.6574 31.6889C22.7138 31.98 23.7352 32.3865 24.7034 32.901C24.7637 32.9328 24.8145 32.9965 24.9026 32.9781C24.8941 32.9617 24.8834 32.9467 24.8707 32.9333C23.3474 31.7586 21.8241 30.5836 20.3007 29.4084C20.0861 29.242 19.9127 29.259 19.7031 29.4227C18.1748 30.6077 16.645 31.7886 15.1142 32.9657ZM14.2092 16.1462C14.1096 16.2746 14.1563 16.3707 14.2531 16.4728C14.6195 16.863 14.8402 17.3333 14.9921 17.8395C15.1794 18.4632 15.251 19.1047 15.2805 19.7528C15.3258 20.7482 15.3117 21.7437 15.2934 22.7393C15.2688 24.0665 15.2621 25.3938 15.2731 26.721C15.2854 28.1854 15.0838 29.6114 14.618 31.0015C14.4363 31.5435 14.2549 32.0857 14 32.66C14.0411 32.6466 14.081 32.63 14.1195 32.6102C15.4489 31.5361 16.7726 30.4541 18.1577 29.4516C18.336 29.3227 18.3375 29.1605 18.2289 28.9941C18.1197 28.8276 18.0009 28.6676 17.8732 28.5149C17.5042 28.0734 17.3582 27.5578 17.3494 26.9938C17.3379 26.2556 17.3234 25.5175 17.3145 24.7798C17.2826 22.0593 17.303 19.3393 17.2702 16.6171C17.2283 13.1255 17.2278 9.63337 17.2094 6.14194V6.00182H17.1596C17.0067 7.38799 16.8506 8.7707 16.5864 10.1394C16.1724 12.2897 15.5527 14.362 14.2092 16.1462ZM22.7667 12.331C22.7243 15.4568 22.7617 18.5835 22.7119 21.7094C22.686 23.3344 22.6911 24.9605 22.696 26.5872C22.6985 27.4119 22.5292 28.1665 21.9434 28.7857C21.889 28.8477 21.8398 28.9144 21.7964 28.9847C21.6666 29.1778 21.6969 29.3302 21.8918 29.4709C23.2223 30.4351 24.4979 31.4704 25.7739 32.5042C25.8327 32.5539 25.884 32.6262 26 32.6117C25.5747 31.6541 25.2858 30.6705 25.0418 29.6701C24.9471 29.2838 24.8535 28.8961 24.8201 28.4984C24.7375 27.5223 24.7613 26.5428 24.7424 25.5648C24.7105 23.8904 24.7264 22.2151 24.7191 20.5376C24.713 19.9655 24.7478 19.3936 24.8231 18.8265C24.9287 18.0645 25.1095 17.3258 25.5836 16.6951C25.8934 16.2825 25.898 16.2842 25.5951 15.8491C24.5437 14.3364 23.972 12.6302 23.5794 10.8524C23.2264 9.25147 23.0342 7.62796 22.8712 6H22.8076C22.7865 8.11186 22.7951 10.2212 22.7667 12.331Z" fill="white"/>
<path d="M39.5 20C39.5 23.8567 38.3563 27.6269 36.2137 30.8336C34.071 34.0404 31.0255 36.5397 27.4623 38.0156C23.8992 39.4916 19.9784 39.8777 16.1957 39.1253C12.4131 38.3729 8.93855 36.5157 6.21143 33.7886C3.4843 31.0615 1.62711 27.5869 0.874696 23.8043C0.122284 20.0216 0.508449 16.1008 1.98436 12.5377C3.46027 8.97451 5.95963 5.92903 9.16639 3.78634C12.3731 1.64365 16.1433 0.5 20 0.5C25.1717 0.5 30.1316 2.55446 33.7886 6.21142C37.4455 9.86837 39.5 14.8283 39.5 20Z" stroke="black" stroke-opacity="0.02"/>
</g>
<defs>
<linearGradient id="paint0_linear_1860_3905" x1="20" y1="0" x2="20" y2="40" gradientUnits="userSpaceOnUse">
<stop stop-color="#662C83"/>
<stop offset="1" stop-color="#212853"/>
</linearGradient>
<clipPath id="clip0_1860_3905">
<rect width="40" height="40" fill="white"/>
</clipPath>
</defs>
</svg>
