<svg width="40" height="40" viewBox="0 0 40 40" fill="none" xmlns="http://www.w3.org/2000/svg">
<g clip-path="url(#clip0_1860_3906)">
<path d="M20 40C23.9556 40 27.8224 38.827 31.1114 36.6294C34.4004 34.4318 36.9638 31.3082 38.4776 27.6537C39.9913 23.9992 40.3874 19.9778 39.6157 16.0982C38.844 12.2186 36.9392 8.65492 34.1421 5.85787C31.3451 3.06082 27.7814 1.15601 23.9018 0.384303C20.0222 -0.387401 16.0009 0.00866568 12.3463 1.52242C8.69181 3.03617 5.56824 5.59962 3.37061 8.8886C1.17298 12.1776 0 16.0444 0 20C0 25.3043 2.10714 30.3914 5.85786 34.1421C9.60859 37.8929 14.6957 40 20 40Z" fill="#020D29"/>
<path d="M29.4239 10H31.9396L21.7261 21.3301C21.4617 21.6111 21.4542 22.0591 21.711 22.3477L27.6034 29H24.9745L19.5278 22.8337L19.2559 22.4996C18.999 22.211 19.0066 21.763 19.271 21.482L29.4239 10Z" fill="#17B5CB"/>
<path d="M23.7506 22.3553C23.5844 22.1654 23.524 21.9072 23.5844 21.6718C23.6298 21.5427 23.728 21.3984 23.8186 21.2997L24.4985 20.5707L32 29H29.6128C29.6128 29 25.2162 24.0183 23.7506 22.3553Z" fill="#17B5CB"/>
<path d="M10.6213 29H8L16.0378 19.9632C16.2946 19.6746 16.2946 19.2418 16.0378 18.9608L8.06043 10H10.5836L18.6062 19.0368C18.8102 19.3025 18.848 19.6898 18.6289 19.9404C16.5288 22.3021 10.6213 29 10.6213 29Z" fill="#17B5CB"/>
<path d="M15.0179 10H12.593L20.0264 18.3609C20.0264 18.3609 20.0491 18.3457 20.88 17.3965C21.1067 17.1383 21.152 16.8193 20.9027 16.5763C19.339 15.0196 15.0179 10 15.0179 10Z" fill="#17B5CB"/>
<path d="M22.255 15.8321L27.4145 10H24.9745L21.4995 13.9336C21.2351 14.2146 21.2276 14.6551 21.4844 14.9512C21.6808 15.1714 22.255 15.8321 22.255 15.8321Z" fill="#17B5CB"/>
<path d="M17.7753 23.1679L12.6158 29H15.0558L18.5308 25.0664C18.7952 24.7854 18.8027 24.345 18.5459 24.0488C18.3495 23.8286 17.7753 23.1679 17.7753 23.1679Z" fill="#17B5CB"/>
<path d="M39.5 20C39.5 23.8567 38.3563 27.6269 36.2137 30.8336C34.071 34.0404 31.0255 36.5397 27.4623 38.0156C23.8992 39.4916 19.9784 39.8777 16.1957 39.1253C12.4131 38.3729 8.93855 36.5157 6.21143 33.7886C3.4843 31.0615 1.62711 27.5869 0.874696 23.8043C0.122284 20.0216 0.508449 16.1008 1.98436 12.5377C3.46027 8.97451 5.95963 5.92903 9.16639 3.78634C12.3731 1.64365 16.1433 0.5 20 0.5C25.1717 0.5 30.1316 2.55446 33.7886 6.21142C37.4455 9.86837 39.5 14.8283 39.5 20Z" stroke="black" stroke-opacity="0.02"/>
</g>
<defs>
<clipPath id="clip0_1860_3906">
<rect width="40" height="40" fill="white"/>
</clipPath>
</defs>
</svg>
