<svg width="40" height="40" viewBox="0 0 40 40" fill="none" xmlns="http://www.w3.org/2000/svg">
<g clip-path="url(#clip0_1794_659)">
<path d="M20 40C23.9556 40 27.8224 38.827 31.1114 36.6294C34.4004 34.4318 36.9638 31.3082 38.4776 27.6537C39.9913 23.9992 40.3874 19.9778 39.6157 16.0982C38.844 12.2186 36.9392 8.65492 34.1421 5.85787C31.3451 3.06082 27.7814 1.15601 23.9018 0.384303C20.0222 -0.387401 16.0009 0.00866568 12.3463 1.52242C8.69181 3.03617 5.56824 5.59962 3.37061 8.8886C1.17298 12.1776 0 16.0444 0 20C0 25.3043 2.10714 30.3914 5.85786 34.1421C9.60859 37.8929 14.6957 40 20 40Z" fill="#020D29"/>
<path d="M9.3948 10.8393C9.56868 10.6208 9.75292 10.4105 9.93716 10.2002C9.94542 10.1898 9.96411 10.1877 9.97237 10.1772C9.98897 10.1565 10.0159 10.1439 10.0324 10.1231L10.049 10.1023C10.1775 9.98356 10.3141 9.85434 10.4717 9.74178C11.0292 9.31855 11.6077 8.99704 12.2178 8.7855C14.1745 8.09852 16.3526 8.52188 18.0607 10.1344C20.4457 12.37 20.2321 15.9715 18.3282 18.3652C15.9224 21.9337 11.7879 26.9123 17.5125 31.3722C18.5417 32.1741 19.3053 32.8352 22.5475 33.7722C20.427 34.1628 18.4609 34.0413 16.2724 33.4823C14.7244 32.6086 12.2906 30.7377 11.4626 28.2109C10.2111 24.3793 13.6659 18.6511 15.3356 16.445C17.628 13.3918 13.9187 10.0866 11.1879 13.7765C9.76041 15.6995 7.26309 21.1411 8.13095 25.1775C8.63838 27.4664 9.31472 29.1349 11.9964 31.4268C11.4991 31.1334 11.0162 30.8005 10.5478 30.4281C4.31699 24.6241 5.03986 15.65 9.3948 10.8393Z" fill="url(#paint0_linear_1794_659)"/>
<path d="M30.6052 29.1607C30.4313 29.3792 30.247 29.5895 30.0628 29.7998C30.0545 29.8102 30.0358 29.8123 30.0276 29.8228C30.011 29.8435 29.984 29.8561 29.9675 29.8769L29.9509 29.8977C29.8225 30.0165 29.6858 30.1457 29.5283 30.2582C28.9708 30.6815 28.3922 31.003 27.7822 31.2145C25.8255 31.9015 23.6473 31.4781 21.9393 29.8656C19.5543 27.63 19.7678 24.0285 21.6717 21.6348C24.0776 18.0663 28.212 13.0877 22.4875 8.62782C21.4582 7.82589 20.6946 7.16474 17.4524 6.22779C19.5729 5.83715 21.5391 5.95867 23.7275 6.51766C25.2755 7.3914 27.7093 9.26223 28.5373 11.789C29.7888 15.6207 26.334 21.3489 24.6644 23.555C22.372 26.6082 26.0812 29.9134 28.8121 26.2235C30.2395 24.3005 32.7369 18.8589 31.869 14.8225C31.3616 12.5336 30.6852 10.8651 28.0035 8.57315C28.5008 8.86659 28.9837 9.19944 29.4522 9.57185C35.683 15.3759 34.9601 24.35 30.6052 29.1607Z" fill="url(#paint1_linear_1794_659)"/>
<path d="M39.5 20C39.5 23.8567 38.3563 27.6269 36.2137 30.8336C34.071 34.0404 31.0255 36.5397 27.4623 38.0156C23.8992 39.4916 19.9784 39.8777 16.1957 39.1253C12.4131 38.3729 8.93855 36.5157 6.21143 33.7886C3.4843 31.0615 1.62711 27.5869 0.874696 23.8043C0.122284 20.0216 0.508449 16.1008 1.98436 12.5377C3.46027 8.97451 5.95963 5.92903 9.16639 3.78634C12.3731 1.64365 16.1433 0.5 20 0.5C25.1717 0.5 30.1316 2.55446 33.7886 6.21142C37.4455 9.86838 39.5 14.8283 39.5 20Z" stroke="black" stroke-opacity="0.02"/>
</g>
<defs>
<linearGradient id="paint0_linear_1794_659" x1="6" y1="18.646" x2="53.3788" y2="18.646" gradientUnits="userSpaceOnUse">
<stop stop-color="#0082FA"/>
<stop offset="1" stop-color="#00F2FE"/>
</linearGradient>
<linearGradient id="paint1_linear_1794_659" x1="5.99978" y1="20.0001" x2="33.9999" y2="20.0001" gradientUnits="userSpaceOnUse">
<stop stop-color="#0082FA"/>
<stop offset="1" stop-color="#00F2FE"/>
</linearGradient>
<clipPath id="clip0_1794_659">
<rect width="40" height="40" fill="white"/>
</clipPath>
</defs>
</svg>
