<svg viewBox="0 0 40 40" xmlns="http://www.w3.org/2000/svg">
  <g fill="none">
    <path d="M20 40C8.954 40 0 31.046 0 20S8.954 0 20 0s20 8.954 20 20-8.954 20-20 20z" fill="#2B2B2B"/>
    <circle stroke-opacity=".02" stroke="#000" cx="20" cy="20" r="19.5"/>
    <path d="M22.6278 12.6966c.289-.02.54.1972.5609.4874.0204.29-.1963.5427-.4848.5639-.2879.0211-.5392-.1976-.5603-.4878-.021-.2898.196-.542.4842-.5635m-1.1744-1.1334c.3404-.0244.6363.2318.6608.5743.0245.3417-.2311.6387-.571.6638-.34.0248-.6361-.232-.6602-.5739-.025-.3419.2305-.6386.5704-.6642m-1.6118-.9946c.3976-.029.7436.272.7726.672.0285.4-.2707.748-.668.7768-.3984.0292-.7442-.2716-.773-.671-.0292-.4009.2702-.748.6684-.7778m-2.0905-.7038c.4582-.0334.8571.3131.89.7742.0329.4607-.3112.8608-.7692.8948-.4588.0325-.857-.3136-.891-.7741-.0328-.4617.3112-.8616.7702-.8949m-2.5334-.252c.5303-.0384.9923.3625 1.0304.8955.0382.534-.36.9973-.892 1.0359-.5298.0394-.9911-.3625-1.029-.8947-.039-.534.3598-.9974.8906-1.0366m-2.9527.344c.6231-.0456 1.166.4247 1.2111 1.0522.0446.6266-.4245 1.1716-1.0473 1.2178-.6232.0455-1.166-.4261-1.2106-1.0525-.0445-.6277.4236-1.1727 1.0468-1.2175m9.5355 4.5895c.3183-.097.6513.084.7478.4023.0956.3198-.0837.6556-.4012.7519-.3173.096-.6511-.0844-.7472-.4033-.0954-.3194.084-.6557.4006-.7509m-1.6319-.9846c.3686-.1118.7581.0973.8704.4688.1114.3719-.0981.7636-.4672.8758-.3697.1123-.759-.0984-.8707-.4699-.1119-.3703.0973-.7626.4675-.8747m-2.0987-.7141c.429-.1305.8822.1133 1.0132.5465.1292.432-.114.8884-.5439 1.0192-.43.13-.8846-.1147-1.0133-.547-.13-.4328.1132-.889.544-1.0187m-2.5784-.2762c.5021-.1538 1.034.1326 1.1857.6388.152.5066-.1325 1.04-.6365 1.1931-.5024.1528-1.0346-.1335-1.1862-.6388-.1523-.5064.133-1.0401.637-1.1931m-2.9769.3542c.5953-.1807 1.222.1583 1.4027.756.1797.5987-.1579 1.2303-.7522 1.4115-.5956.18-1.2228-.1587-1.4036-.7568-.1788-.598.1575-1.2303.7531-1.4107m-3.3068 1.1795c.7027-.2128 1.4446.1872 1.6562.8937.2124.7065-.1856 1.4524-.888 1.6651-.7018.213-1.4439-.1868-1.6559-.893-.2125-.7068.185-1.4523.8877-1.6658m12.1167 2.7643a.7044.7044 0 01.9638.2602c.195.3396.0792.7734-.2588.969a.7036.7036 0 01-.9636-.2598c-.1944-.3396-.0782-.7732.2586-.9694m-2.133-.6867a.8193.8193 0 011.1224.3032c.2271.3948.0918.9007-.301 1.1278-.3927.2287-.8956.0932-1.1216-.3023-.2274-.3953-.0925-.9004.3001-1.1287m-2.5943-.2526c.4576-.2656 1.042-.1076 1.3058.3527.2647.4607.107 1.048-.3495 1.3136-.4581.2658-1.0433.1082-1.3078-.3532-.2638-.4595-.1065-1.0473.3515-1.313m-3.0273.3785c.5356-.3102 1.221-.1255 1.5298.4125.3087.5395.1248 1.2283-.41 1.5389-.5368.31-1.2204.1249-1.5298-.4136-.309-.538-.125-1.2268.41-1.5378m-3.3146 1.2093c.6327-.3682 1.4438-.1499 1.8087.4874.3649.6371.1481 1.4509-.4857 1.8184-.6333.3667-1.4433.1481-1.8085-.4874-.3655-.6377-.1474-1.4517.4855-1.8184M6.7822 19.76c.7483-.4338 1.704-.1757 2.1355.5763.4322.7519.1741 1.7134-.5731 2.1476-.7486.4332-1.7036.1749-2.1348-.5758-.4324-.753-.1745-1.7148.5725-2.1481m5.817 1.9086a.5314.5314 0 01.1376-.733.5235.5235 0 01.7287.1403c.1629.24.1011.5687-.138.7317a.5219.5219 0 01-.7283-.139m-.3863 1.5895c-.1917-.2835-.1195-.669.1632-.8622.2816-.1926.6652-.1186.857.1637.192.2843.1194.6712-.1633.8622a.6136.6136 0 01-.857-.1637m-.0485 1.9015c-.224-.332-.139-.783.1906-1.009a.7195.7195 0 011.0036.1918c.225.3315.1393.7841-.1914 1.009-.3295.226-.7782.1392-1.0028-.1918m.4416 2.1708c-.2584-.3817-.1598-.9016.2198-1.1614a.8283.8283 0 011.156.2212c.2591.3823.1601.9024-.2193 1.1626-.3806.2585-.8986.1609-1.1565-.2224m1.0533 2.3315c-.2996-.4424-.1853-1.0448.2548-1.3453.439-.3004 1.0387-.1863 1.3379.2552.2991.4424.185 1.0451-.2545 1.3455a.9598.9598 0 01-1.3382-.2554m1.7748 2.397c-.3502-.5198-.2175-1.228.2998-1.581.5172-.3543 1.221-.2192 1.5726.3005.3513.5195.2179 1.2275-.2992 1.5804-.5172.3542-1.2205.2194-1.5732-.2999m-.8288-10.5978c-.2418-.2272-.2544-.6091-.0277-.8522a.597.597 0 01.848-.0275.6048.6048 0 01.0273.8522.5963.5963 0 01-.8476.0275m-.0293 1.9144c-.2812-.265-.2953-.7094-.0323-.9925a.6963.6963 0 01.988-.0334c.2822.2654.2958.7097.0322.9932a.6963.6963 0 01-.9879.0327m.4376 2.1839c-.328-.308-.3449-.8257-.0377-1.1555.308-.3292.8212-.3469 1.149-.0382.3285.3092.345.8264.0383 1.1564a.81.81 0 01-1.1496.0373m1.0542 2.382c-.3833-.362-.403-.9677-.0438-1.3534a.9479.9479 0 011.3456-.044c.3838.3611.4035.9669.0437 1.3526-.3588.3857-.9615.4054-1.3455.0448m1.797 2.412c-.4538-.428-.4769-1.1435-.052-1.5998a1.1218 1.1218 0 011.591-.0527c.4534.4282.477 1.1436.0522 1.6-.4247.4563-1.1366.479-1.5912.0525m3.5811-.0263c.7342 0 1.3293.5983 1.3293 1.3365S22.1802 33 21.446 33c-.734 0-1.3293-.5983-1.3293-1.3365s.5953-1.3365 1.3293-1.3365m-4.6014-9.6164c-.3376-.1952-.4538-.6286-.2589-.9688a.7035.7035 0 01.9635-.2602c.3368.1956.453.6294.2588.9692-.1946.3386-.6262.4553-.9634.2598m.4777 2.2004c-.3934-.2283-.5286-.733-.302-1.1287a.8195.8195 0 011.1228-.3029c.3918.2276.5274.7328.3014 1.1272-.2265.3965-.7298.532-1.1222.3044m1.0826 2.3844c-.4572-.2658-.6149-.8535-.3513-1.3144.2646-.4597.8485-.6183 1.3073-.3527.4573.2654.6146.8531.3502 1.3138-.2634.4601-.8483.6183-1.3062.3533m1.843 2.4437c-.536-.3113-.7205-.9986-.4116-1.5383.3093-.5383.9938-.7236 1.5292-.4132.5355.3108.7207.9984.4114 1.5368a1.116 1.116 0 01-1.529.4147m2.702 2.278c-.6336-.3664-.8528-1.18-.4864-1.8177.3648-.6367 1.1735-.856 1.8087-.4891.6328.3667.8505 1.1816.4852 1.8183-.365.6373-1.174.8564-1.8076.4886m3.6702 1.897c-.7484-.4321-1.0057-1.3944-.5744-2.1465.4318-.7519 1.3866-1.0105 2.1355-.577.7478.4336 1.006 1.3948.575 2.1466-.4318.7525-1.3877 1.011-2.1361.5768m-1.2716-6.0123c-.126.2623-.4396.3722-.7004.2454-.2595-.1265-.3693-.4417-.2433-.7034.1258-.2618.4399-.3717.7002-.245a.5279.5279 0 01.2435.703m1.5621-.4565a.6143.6143 0 01-.8234.2879c-.307-.1486-.4355-.5205-.2868-.8285.1484-.308.517-.4373.8239-.288.3076.149.435.5194.2863.8286m1.6633-.9066a.721.721 0 01-.9644.3375c-.3592-.1745-.5094-.61-.3362-.9711.1745-.3608.6065-.5117.9647-.3375.3592.1749.5098.6096.3359.9711m1.651-1.4697a.83.83 0 01-1.1116.3883c-.413-.2009-.5863-.7006-.386-1.1173.2-.4155.6982-.59 1.1113-.388.4142.2012.5868.7013.3863 1.117m1.4826-2.0814c-.2327.482-.8069.683-1.286.4497-.4793-.2323-.6787-.8116-.4482-1.293.2327-.4813.8078-.682 1.2865-.4504.4798.2337.6801.8128.4477 1.2937m1.1794-2.7424c-.2724.566-.9497.8024-1.5117.5285-.5631-.2737-.798-.9544-.5253-1.5206.2717-.5649.9478-.8018 1.5111-.5285.5622.2742.7985.955.5259 1.5206m-8.7178 6.0127c-.0757.3245-.3987.5251-.7208.4498-.3227-.0765-.523-.4006-.4479-.7252.0759-.324.3984-.5254.7205-.4501.3228.0765.5231.4007.4482.7255m1.6627-.9304c-.0882.3771-.4632.6124-.839.5234-.3754-.088-.6084-.4661-.5209-.8443.0875-.3767.4637-.612.8394-.5228.3761.0882.6084.4655.5205.8437m1.6653-1.4712c-.1032.4403-.5398.7123-.9776.6096-.4371-.1036-.709-.5427-.6061-.9823.1015-.4395.5392-.7132.9768-.6096.4372.1028.7088.543.607.9823m1.5246-2.1074c-.1195.5141-.6314.8335-1.1435.7128-.5114-.1205-.829-.6344-.7094-1.1495.119-.5145.6321-.8335 1.1435-.7134.5115.1201.83.635.7094 1.1501m1.1824-2.7695c-.142.6085-.7472.9865-1.3535.8432-.6047-.1419-.9803-.7513-.8382-1.3594.141-.6083.7472-.9867 1.3512-.8437.606.143.9822.7514.8405 1.36m.6352-3.4703c-.1668.7188-.8821 1.1652-1.5974.9975-.7148-.1684-1.1586-.8872-.9908-1.606.1677-.7188.8822-1.1647 1.597-.9965.715.1685 1.1585.887.9912 1.605m-8.4354 9.1726c0 .3926-.3156.71-.7057.71-.3896 0-.705-.3174-.705-.71 0-.3917.3152-.709.705-.709.39-.0002.7057.3173.7057.709m1.6567-1.5137c0 .4564-.3674.8258-.8206.8258-.4544 0-.8225-.3694-.8225-.8258 0-.4563.3681-.8269.8225-.8269.4532 0 .8206.3706.8206.8269m1.515-2.1347c0 .5308-.4288.962-.9568.962-.5285 0-.9573-.4312-.9573-.962 0-.5307.4288-.9618.9573-.9618.528 0 .9567.4311.9567.9618m.066-3.9507c.6182 0 1.1194.5039 1.1194 1.1256 0 .6218-.5012 1.1257-1.1194 1.1257-.6186 0-1.1198-.504-1.1198-1.1257 0-.6217.5012-1.1256 1.1198-1.1256m.4106-3.6967c.7315 0 1.3247.5962 1.3247 1.3317 0 .7355-.5932 1.3317-1.3247 1.3317-.7314 0-1.3245-.5962-1.3245-1.3317 0-.7355.5931-1.3317 1.3245-1.3317m1.1266-2.8135c0 .8683-.6998 1.5718-1.5625 1.5718-.8644 0-1.5647-.7035-1.5647-1.5718 0-.8687.7003-1.5725 1.5647-1.5725.8627 0 1.5625.7038 1.5625 1.5725" fill="#FFF"/>
    <circle stroke-opacity=".02" stroke="#000" cx="20" cy="20" r="19.5"/>
  </g>
</svg>
