<svg width="40" height="40" viewBox="0 0 40 40" fill="none" xmlns="http://www.w3.org/2000/svg">
<path d="M20 40C31 40 40 31 40 20C40 9 31 0 20 0C9 0 0 9 0 20C0 31 9 40 20 40Z" fill="#F3F3F3"/>
<path d="M31.2374 28.2398L31.2461 31.2672L26.5703 33.9491L26.5617 30.9217L31.2374 28.2398Z" fill="#3C1A26"/>
<path d="M26.57 33.9491L18.3056 29.176L18.296 26.1486L26.5614 30.9217L26.57 33.9491Z" fill="#29121A"/>
<path d="M26.5617 30.9221L18.2963 26.1489L22.9721 23.467L31.2374 28.2401L26.5617 30.9221Z" fill="#421D2A"/>
<path d="M25.8782 31.2907L25.8868 34.3181L21.2121 37L21.2035 33.9726L25.8782 31.2907Z" fill="#3C1A26"/>
<path d="M21.2121 37L12.9467 32.2269L12.9381 29.1995L21.2035 33.9726L21.2121 37Z" fill="#29121A"/>
<path d="M21.2035 33.9726L12.9381 29.1995L17.6138 26.5175L25.8782 31.2907L21.2035 33.9726Z" fill="#421D2A"/>
<path d="M31.0873 23.0103L31.1003 27.3277L19.7551 33.8356L19.7434 29.5169L31.0876 23.01L31.0873 23.0103Z" fill="#DB5B54"/>
<path d="M19.7547 33.836L8.48524 27.328L8.47229 23.0106L19.7431 29.5176L19.7547 33.8363V33.836Z" fill="#A24741"/>
<path d="M19.7431 29.5176L8.47229 23.0103L19.8165 16.5024L31.0873 23.0103L19.7431 29.5172V29.5176Z" fill="#DB5B54"/>
<path d="M31.0285 14.3709L31.0541 23.006L19.7089 29.514L19.6843 20.8788L31.0285 14.3709Z" fill="#BD967F"/>
<path d="M19.7089 29.514L8.43808 23.006L8.4135 14.3719L19.6843 20.8788L19.7089 29.514Z" fill="#886B59"/>
<path d="M19.6843 20.8792L8.4135 14.3722L19.759 7.86397L31.0289 14.3709L19.6846 20.8788L19.6843 20.8792Z" fill="#B88D73"/>
<path d="M25.3697 19.8486L25.375 21.5751L23.8622 22.4437L23.8665 24.1703L25.3803 23.3027L22.3546 25.0378L22.344 21.5837L25.3697 19.8486Z" fill="white"/>
<path d="M25.375 21.5751L25.3803 23.3027L23.8665 24.1703L23.8622 22.4437L25.375 21.5751Z" fill="#493239"/>
<path d="M29.8196 17.2957L29.8249 19.0232L28.312 19.8908L28.3164 21.6174L29.8292 20.7498L26.8048 22.485L26.7952 19.0308L29.8196 17.2957Z" fill="white"/>
<path d="M29.8249 19.0232L29.8292 20.7498L28.3164 21.6174L28.312 19.8908L29.8249 19.0232Z" fill="#493239"/>
<path d="M12.9155 31.6388L12.9092 34.2296L9.12658 32.0602L9.13389 29.4694L12.9152 31.6388H12.9155Z" fill="#886B59"/>
<path d="M12.9158 31.6388L16.6726 29.4694L16.6663 32.0602L12.9092 34.2296L12.9155 31.6388H12.9158Z" fill="#BD967F"/>
<path d="M9.13422 29.4697L12.8913 27.3003L16.6726 29.4697L12.9155 31.6391L9.13422 29.4697Z" fill="#CAA390"/>
<path d="M14.0554 30.5627L14.0511 32.2902L12.9155 31.6388L8 28.8193L8.00531 27.0917L14.0554 30.563V30.5627Z" fill="#A24741"/>
<path d="M14.0554 30.5627L17.8124 28.3933L17.8081 30.1208L14.0511 32.2902L14.0554 30.5627Z" fill="#C4524C"/>
<path d="M8.00531 27.0917L11.762 24.9223L17.8121 28.3936L14.0551 30.563L8.00531 27.0917Z" fill="#DB5B54"/>
<path d="M31.0352 10.5079L31.0481 14.8253L19.7039 21.3332L19.691 17.0159L31.0352 10.5079Z" fill="#DB5B54"/>
<path d="M19.7036 21.3336L8.43276 14.8256L8.41981 10.5083L19.6906 17.0162L19.7036 21.3336Z" fill="#A24741"/>
<path d="M19.6906 17.0162L8.42014 10.5079L19.7654 4L31.0348 10.5079L19.6906 17.0159V17.0162Z" fill="#F2716A"/>
<path d="M28.97 18.1029C29.9129 17.5485 30.9325 17.135 31.9967 16.8753V18.6018C30.9329 18.8616 29.9132 19.2754 28.971 19.8304C27.8829 20.4644 26.8689 21.2161 25.9476 22.0718V20.3452C26.8689 19.4895 27.8826 18.7375 28.97 18.1029Z" fill="#DB5B54"/>
<path d="M25.9509 22.0721L22.1952 19.9037L22.1899 18.1761L25.9469 20.3456L25.9513 22.0721H25.9509Z" fill="#A24741"/>
<path d="M25.9466 20.3452L22.1899 18.1758C23.1116 17.3201 24.1255 16.5684 25.2133 15.9344C26.301 15.3002 28.2154 14.6633 28.2154 14.6633L32 16.8878C32 16.8878 30.058 17.4683 28.9703 18.1029C27.8826 18.7375 26.8686 19.4895 25.9469 20.3452H25.9466Z" fill="#F2716A"/>
<path d="M29.5084 26.4677L28.7578 26.0334L28.5585 25.8915L29.3101 26.3248L29.5084 26.4677Z" fill="#898989"/>
<path d="M28.0583 28.062L27.3067 27.6277L26.9134 27.2812L27.665 27.7145L28.0583 28.062Z" fill="#898989"/>
<path d="M20.4509 29.9591L19.6993 29.5258L19.6983 29.2483L20.4499 29.6826L20.4509 29.9591Z" fill="#888888"/>
<path d="M31.8698 21.8959L31.8728 23.1301L31.8738 23.4066L29.508 26.468L29.3098 26.3252L28.0583 28.0623L27.665 27.7148L26.1725 30.0093L24.6716 29.4321L24.2813 30.2297L23.0232 29.9321L22.8249 30.3017L20.4509 29.9595L20.4465 28.45L31.8698 21.8966V21.8959Z" fill="#D6D6D6"/>
<path d="M20.4499 29.6826L19.6983 29.2483L19.6949 28.0154L20.4465 28.4497L20.4499 29.6826Z" fill="#888888"/>
<path d="M20.4465 28.4497L19.6949 28.0154L31.1182 21.4629L31.8698 21.8962L20.4465 28.4497Z" fill="#FDFDFD"/>
<path d="M14.0853 22.5054L14.8369 22.0711L19.7036 28.0105L18.952 28.4438L14.0853 22.5057V22.5054Z" fill="#FDFDFD"/>
<path d="M18.952 28.4434L19.7036 28.0101L20.4595 28.4434L19.7089 28.8767L18.952 28.4434Z" fill="#FDFDFD"/>
<path d="M19.7089 28.8767L20.4595 28.4434L20.4552 29.9581L19.7046 30.3924L19.7089 28.8767Z" fill="#D6D6D6"/>
<path d="M14.0959 18.9599L14.0853 22.5051L18.952 28.4434L19.7089 28.8767L19.7046 30.3924L14.0723 26.9838L12.0649 25.8315L12.0692 24.3019L12.7451 21.7365L12.7558 18.1913L14.0959 18.9602V18.9599Z" fill="#898989"/>
<path d="M14.0959 18.9599L14.8475 18.5256L14.8369 22.0708L14.0853 22.5051L14.0959 18.9599Z" fill="#FDFDFD"/>
<path d="M12.7558 18.191L13.5074 17.7577L14.8475 18.5256L14.0959 18.9599L12.7558 18.191Z" fill="#DCDCDC"/>
<path d="M39.5 20C39.5 23.8567 38.3563 27.6269 36.2137 30.8336C34.071 34.0404 31.0255 36.5397 27.4623 38.0156C23.8992 39.4916 19.9784 39.8777 16.1957 39.1253C12.4131 38.3729 8.93855 36.5157 6.21143 33.7886C3.4843 31.0615 1.62711 27.5869 0.874696 23.8043C0.122284 20.0216 0.508449 16.1008 1.98436 12.5377C3.46027 8.97451 5.95963 5.92903 9.16639 3.78634C12.3731 1.64365 16.1433 0.5 20 0.5C25.1717 0.5 30.1316 2.55446 33.7886 6.21142C37.4455 9.86837 39.5 14.8283 39.5 20Z" stroke="black" stroke-opacity="0.02"/>
</svg>
