<svg width="40" height="40" viewBox="0 0 40 40" fill="none" xmlns="http://www.w3.org/2000/svg">
<g clip-path="url(#clip0_1721_292)">
<path fill-rule="evenodd" clip-rule="evenodd" d="M20 0C31.0465 0 40 8.95353 40 20C40 31.0465 31.0465 40 20 40C8.95353 40 0 31.0465 0 20C0 8.95353 8.95353 0 20 0Z" fill="#F3F3F3"/>
<path d="M19.0397 0.0054617L20.9812 0C22.1222 0.0722164 23.2545 0.224842 24.3779 0.457876C24.9106 0.568325 25.4941 0.730053 26.1286 0.943061C26.9363 1.21372 27.5447 1.43553 27.9537 1.60848C28.5118 1.84516 29.2826 2.24326 30.2661 2.80279C30.5824 3.02065 30.9196 3.24033 31.2778 3.46184C31.8746 3.83081 32.659 4.45709 33.631 5.34068L34.3009 5.98607C35.3577 7.08935 36.2942 8.2973 37.1105 9.60994C37.4722 10.2699 37.874 10.9308 38.1639 11.5971C38.5102 12.3936 38.8738 13.1756 39.1065 14.0349C39.3483 14.9233 39.5246 15.6115 39.6355 16.0994C39.8203 16.9083 39.9418 17.8463 40 18.9131V21.0104L39.8318 22.8447L39.7282 23.4627C39.5713 24.1631 39.4059 24.8449 39.2319 25.5082C39.0804 26.0895 38.8914 26.6651 38.6648 27.235C38.3363 28.0621 38.0888 28.6268 37.9222 28.929C37.6701 29.3842 37.408 29.8536 37.1359 30.3373C37.0668 30.4865 36.9747 30.6416 36.8596 30.8024C36.559 31.2212 36.2685 31.6338 35.9879 32.0404L35.6934 32.4127L34.4563 33.8401C33.6177 34.7139 32.7045 35.5089 31.7168 36.225L30.3443 37.1362L28.86 37.9446L28.6454 38.052C27.8447 38.4771 27.1157 38.7101 26.1767 39.0369C25.6671 39.2141 25.2108 39.3491 24.8079 39.442C23.4129 39.7636 21.9998 39.9496 20.5685 40L18.9324 39.9782C17.8375 39.915 16.7619 39.7752 15.7057 39.5585C15.2027 39.4547 14.6328 39.2988 13.996 39.0906C13.3149 38.8679 12.7565 38.6743 12.3208 38.5099C12.0396 38.4043 11.6633 38.2249 11.1919 37.9719C10.1763 37.4785 9.19854 36.8944 8.25869 36.2196L7.41973 35.5751C6.16962 34.5507 5.05253 33.4001 4.06844 32.1233L3.87393 31.8556C3.64487 31.5267 3.41006 31.1957 3.1695 30.8625C3.06951 30.7235 2.97135 30.5557 2.875 30.3591C2.03695 28.9791 1.43492 27.7074 1.06892 26.5441C0.693829 25.3534 0.415692 24.2841 0.234508 23.3362C0.0854411 22.5582 0.00848358 21.7232 0.00363587 20.8311L0 19.1516C0.0187849 17.9652 0.162399 16.8264 0.430841 15.7353C0.680801 14.7167 0.977117 13.5988 1.39069 12.5866C1.80244 11.5807 2.17693 10.7778 2.76138 9.8539L3.8712 8.14892L4.19842 7.72018C4.56564 7.25866 4.92467 6.7935 5.34279 6.36748C6.13539 5.56006 6.73075 4.96655 7.56789 4.31205C8.97494 3.20271 10.395 2.33308 11.8281 1.70315C12.3256 1.48468 12.9743 1.24133 13.7742 0.973101C14.4032 0.76252 14.9858 0.598364 15.5221 0.480634C16.7092 0.22029 17.8817 0.0618997 19.0397 0.0054617ZM36.9205 20.01C36.9205 15.506 35.1339 11.1865 31.9538 8.00165C28.7737 4.81684 24.4605 3.02763 19.9632 3.02763C15.4658 3.02763 11.1527 4.81684 7.97256 8.00165C4.79245 11.1865 3.00589 15.506 3.00589 20.01C3.00589 24.514 4.79245 28.8336 7.97256 32.0184C11.1527 35.2032 15.4658 36.9924 19.9632 36.9924C24.4605 36.9924 28.7737 35.2032 31.9538 32.0184C35.1339 28.8336 36.9205 24.514 36.9205 20.01Z" fill="black"/>
<path d="M35.4207 20.0091C35.4207 24.114 33.7925 28.0508 30.8941 30.9535C27.9958 33.8561 24.0648 35.4868 19.9659 35.4868C15.867 35.4868 11.936 33.8561 9.03771 30.9535C6.13937 28.0508 4.5111 24.114 4.5111 20.0091C4.5111 15.9041 6.13937 11.9673 9.03771 9.06471C11.936 6.16209 15.867 4.53141 19.9659 4.53141C24.0648 4.53141 27.9958 6.16209 30.8941 9.06471C33.7925 11.9673 35.4207 15.9041 35.4207 20.0091ZM18.5125 14.4381C17.8047 14.7713 17.0415 14.8274 16.2229 14.6065C15.6939 14.4645 15.3148 14.1832 14.9313 13.81C14.5883 13.4762 14.2559 13.1373 13.9341 12.7932C13.7687 12.6157 13.5742 12.4637 13.3988 12.2953C13.3777 12.275 13.3498 12.2633 13.3206 12.2626C13.2915 12.262 13.2632 12.2723 13.2415 12.2916C12.6949 12.7771 12.1996 13.2705 11.7554 13.7718C11.7081 13.8252 11.7093 13.8774 11.759 13.9283C12.2226 14.4005 12.6937 14.8781 13.1724 15.3611C13.5306 15.7225 13.9669 16.0684 14.4032 16.3524C14.9079 16.6808 15.5612 16.9068 16.3628 17.0306C17.5399 17.2127 18.9052 17.0179 19.9377 16.3488C20.3007 16.1133 20.5907 15.8937 20.8076 15.6898C21.3063 15.2194 21.8438 14.6866 22.4201 14.0913C22.9645 13.5287 23.5662 12.9762 24.118 12.3972C24.5161 11.9803 24.9406 11.6016 25.3332 11.1438C25.4138 11.0491 25.409 10.9617 25.3187 10.8816C25.1666 10.7463 25.0027 10.6416 24.827 10.5675C24.0053 10.221 23.2263 10.2778 22.4901 10.7378C22.1883 10.9262 21.8765 11.3122 21.5957 11.5907C20.9612 12.2206 20.3119 12.877 19.6478 13.5597C19.2369 13.9827 18.8585 14.2755 18.5125 14.4381ZM26.5903 19.8316L25.8568 19.0296C25.236 18.1921 25.0015 17.1699 25.3805 16.1877C25.5587 15.7259 25.8216 15.3177 26.1695 14.9633C26.6548 14.4694 27.1793 13.9505 27.7429 13.4067C27.7491 13.4006 27.7541 13.3932 27.7575 13.3851C27.7609 13.3769 27.7626 13.3682 27.7626 13.3594C27.7626 13.3506 27.7609 13.3419 27.7575 13.3338C27.7541 13.3256 27.7491 13.3183 27.7429 13.3121L26.1822 11.7682C26.1234 11.7106 26.0677 11.7133 26.015 11.7764C25.7774 12.0622 25.5275 12.3265 25.2651 12.5693C24.966 12.846 24.6997 13.1573 24.4116 13.4468C24.1928 13.6659 23.9968 13.9025 23.8235 14.1568C22.9927 15.3766 22.7049 16.7248 22.96 18.2012C23.0291 18.6042 23.1624 19.0108 23.3599 19.421C23.5956 19.9108 23.828 20.2879 24.0571 20.5525C24.5237 21.0926 25.2499 21.8312 26.2358 22.7682C26.4849 23.0058 26.6958 23.2788 26.953 23.5092C27.3865 23.8969 27.7665 24.3421 28.2028 24.7481C28.4367 24.9653 28.6594 25.2011 28.8709 25.4554C28.879 25.4652 28.8891 25.4732 28.9005 25.4789C28.912 25.4846 28.9244 25.4878 28.9372 25.4884C28.9499 25.489 28.9626 25.487 28.9745 25.4824C28.9864 25.4778 28.9973 25.4707 29.0063 25.4617C29.6104 24.853 29.8162 24.1324 29.6235 23.2998C29.4717 22.6489 28.9381 22.1091 28.4727 21.6685C27.8504 21.0787 27.2229 20.4664 26.5903 19.8316ZM13.0479 19.9299L14.2259 21.1551C14.8813 22.0518 15.1085 23.2488 14.5922 24.252C14.4165 24.593 14.2074 24.8916 13.965 25.1477C13.4064 25.7381 12.8525 26.2916 12.3035 26.808C12.2989 26.8122 12.2952 26.8173 12.2927 26.823C12.2901 26.8287 12.2887 26.8348 12.2887 26.8411C12.2886 26.8473 12.2898 26.8535 12.2922 26.8592C12.2946 26.865 12.2981 26.8702 12.3026 26.8745L13.8487 28.4138C13.9141 28.4793 13.9778 28.4775 14.0396 28.4083C14.3304 28.0834 14.6022 27.772 14.9222 27.4726C15.4906 26.9397 15.8784 26.5365 16.0856 26.2628C16.851 25.2554 17.2242 24.1193 17.2054 22.8547C17.1915 21.8897 16.9152 20.9779 16.3765 20.1192C16.1541 19.7642 15.7663 19.3145 15.213 18.7702C14.2805 17.8526 13.3285 16.9032 12.3571 15.9219C11.9563 15.5177 11.5454 15.1436 11.1737 14.7048C11.1682 14.6985 11.1615 14.6933 11.154 14.6896C11.1465 14.686 11.1383 14.6839 11.1299 14.6836C11.1216 14.6832 11.1132 14.6846 11.1054 14.6877C11.0976 14.6907 11.0905 14.6953 11.0846 14.7012C10.4635 15.3275 10.2529 16.0615 10.4529 16.9032C10.5638 17.3711 10.8228 17.6997 11.1564 18.0383C11.7812 18.6713 12.4117 19.3018 13.0479 19.9299ZM24.2943 25.6483C24.3634 25.6799 24.4288 25.723 24.4906 25.7776C24.9524 26.1799 25.426 26.5905 25.8422 27.0402C26.0871 27.3054 26.3561 27.5505 26.6494 27.7757C26.6767 27.7963 26.7024 27.7945 26.7267 27.7702L28.1819 26.3092C28.237 26.254 28.2376 26.1982 28.1837 26.1417C27.7301 25.6602 27.2429 25.1941 26.7785 24.708C26.3088 24.2165 25.7756 23.8141 25.1787 23.501C24.577 23.1854 23.8941 23.0182 23.13 22.9994C22.0629 22.9721 21.0085 23.0631 20.1168 23.6275C19.6932 23.8951 19.2606 24.2119 18.8997 24.5751C17.4024 26.0838 15.9478 27.5396 14.5359 28.9427C14.4813 28.9967 14.481 29.0513 14.535 29.1065C14.7549 29.3296 15.0585 29.4443 15.3485 29.5662C15.5206 29.6384 15.6851 29.6809 15.842 29.6937C16.7164 29.7656 17.3736 29.4825 17.9744 28.8626C18.8464 27.9644 19.7284 27.0742 20.6204 26.1918C21.0512 25.7658 21.532 25.4987 22.0629 25.3907C22.8367 25.2335 23.5805 25.3194 24.2943 25.6483Z" fill="black"/>
<path d="M39.5 20C39.5 23.8567 38.3563 27.6269 36.2137 30.8336C34.071 34.0404 31.0255 36.5397 27.4623 38.0156C23.8992 39.4916 19.9784 39.8777 16.1957 39.1253C12.4131 38.3729 8.93855 36.5157 6.21143 33.7886C3.4843 31.0615 1.62711 27.5869 0.874696 23.8043C0.122284 20.0216 0.508449 16.1008 1.98436 12.5377C3.46027 8.97451 5.95963 5.92903 9.16639 3.78634C12.3731 1.64365 16.1433 0.5 20 0.5C25.1717 0.5 30.1316 2.55446 33.7886 6.21142C37.4455 9.86837 39.5 14.8283 39.5 20Z" stroke="black" stroke-opacity="0.02"/>
</g>
<defs>
<clipPath id="clip0_1721_292">
<rect width="40" height="40" fill="white"/>
</clipPath>
</defs>
</svg>
