<svg width="40" height="40" viewBox="0 0 40 40" fill="none" xmlns="http://www.w3.org/2000/svg">
<g clip-path="url(#clip0_2045_71)">
<path fill-rule="evenodd" clip-rule="evenodd" d="M20 0C31.0465 0 40 8.95353 40 20C40 31.0465 31.0465 40 20 40C8.95353 40 0 31.0465 0 20C0 8.95353 8.95353 0 20 0Z" fill="#110F24"/>
<path d="M39.5 20C39.5 23.8567 38.3563 27.6269 36.2137 30.8336C34.071 34.0404 31.0255 36.5397 27.4623 38.0156C23.8992 39.4916 19.9784 39.8777 16.1957 39.1253C12.4131 38.3729 8.93855 36.5157 6.21143 33.7886C3.4843 31.0615 1.62711 27.5869 0.874696 23.8043C0.122284 20.0216 0.508449 16.1008 1.98436 12.5377C3.46027 8.97451 5.95963 5.92903 9.16639 3.78634C12.3731 1.64365 16.1433 0.5 20 0.5C25.1717 0.5 30.1316 2.55446 33.7886 6.21142C37.4455 9.86837 39.5 14.8283 39.5 20Z" stroke="black" stroke-opacity="0.02"/>
<path d="M9.48901 27.4478C10.5777 28.9758 11.9743 30.2541 13.5871 31.1993C15.1999 32.1444 16.9925 32.735 18.8474 32.9321C17.8931 31.4833 16.5059 30.1504 14.7742 29.1356C13.0424 28.1208 11.2085 27.5664 9.48901 27.4478Z" fill="url(#paint0_linear_2045_71)"/>
<path d="M17.1011 25.0948C13.7648 23.1391 10.1537 22.6408 7.56988 23.5212C7.81932 24.3529 8.14828 25.1583 8.55215 25.9259C10.7971 25.8734 13.2481 26.4885 15.5288 27.825C17.8096 29.1615 19.554 31.006 20.6214 33C21.4828 32.9733 22.3397 32.8626 23.18 32.6695C22.6575 29.9692 20.4367 27.0508 17.1011 25.0948Z" fill="url(#paint1_linear_2045_71)"/>
<path d="M33 17.157C32.5758 15.4162 31.8083 13.7795 30.7432 12.3447C29.6782 10.9098 28.3375 9.70618 26.8012 8.80566C25.2649 7.90515 23.5644 7.32622 21.8015 7.10344C20.0385 6.88066 18.2491 7.01859 16.5401 7.50901C19.3951 7.86152 22.5642 8.94287 25.6721 10.7645C28.7801 12.5862 31.2831 14.8277 33 17.157Z" fill="url(#paint2_linear_2045_71)"/>
<path d="M28.846 23.541C27.3846 21.0924 24.8812 18.7476 21.7972 16.9402C18.7133 15.1326 15.4551 14.1001 12.6254 14.0318C10.1359 13.9723 8.26748 14.7025 7.50053 16.0346C7.49617 16.0425 7.49005 16.05 7.48525 16.0579C7.41624 16.3078 7.35684 16.558 7.30268 16.8093C8.37361 16.3827 9.61443 16.1452 10.9941 16.1187C14.0623 16.0606 17.4961 17.0507 20.6648 18.908C23.8334 20.7654 26.3888 23.2855 27.8581 26.0025C28.5168 27.2266 28.9277 28.4318 29.0906 29.5832C29.2802 29.4122 29.4662 29.2355 29.6466 29.0518C29.6515 29.0434 29.6545 29.0346 29.6593 29.0258C30.4263 27.6924 30.1297 25.6936 28.846 23.541Z" fill="url(#paint3_linear_2045_71)"/>
<path d="M19.451 21.0144C14.7284 18.2463 9.50959 17.8127 7 19.7445C7.00493 20.3491 7.05075 20.9528 7.13714 21.5512C7.87538 21.3254 8.63623 21.1832 9.40564 21.1273C12.21 20.9144 15.3018 21.7028 18.1076 23.3481C20.9132 24.9935 23.125 27.314 24.3313 29.8754C24.6647 30.5772 24.9191 31.3144 25.0895 32.0734C25.6476 31.8526 26.1903 31.5939 26.7138 31.2992C27.1339 28.1423 24.1749 23.783 19.451 21.0144Z" fill="url(#paint4_linear_2045_71)"/>
<path d="M31.2751 19.4429C29.7972 16.9969 27.2719 14.6456 24.1661 12.8261C21.0603 11.0067 17.7894 9.95797 14.9506 9.8738C12.7865 9.81079 11.1102 10.34 10.241 11.3398C13.8499 10.7229 18.6101 11.7598 23.224 14.464C27.8379 17.1683 31.09 20.8274 32.3452 24.2958C32.7754 23.0395 32.4011 21.3082 31.2751 19.4429Z" fill="url(#paint5_linear_2045_71)"/>
</g>
<defs>
<linearGradient id="paint0_linear_2045_71" x1="48.1888" y1="-64.902" x2="-17.5412" y2="0.732325" gradientUnits="userSpaceOnUse">
<stop offset="0.0001" stop-color="#C7F284"/>
<stop offset="1" stop-color="#00BEF0"/>
</linearGradient>
<linearGradient id="paint1_linear_2045_71" x1="34.8895" y1="-21.4244" x2="-1.4219" y2="17.8067" gradientUnits="userSpaceOnUse">
<stop offset="0.0001" stop-color="#C7F284"/>
<stop offset="1" stop-color="#00BEF0"/>
</linearGradient>
<linearGradient id="paint2_linear_2045_71" x1="19.2803" y1="20.519" x2="-16.1662" y2="57.789" gradientUnits="userSpaceOnUse">
<stop offset="0.0001" stop-color="#C7F284"/>
<stop offset="1" stop-color="#00BEF0"/>
</linearGradient>
<linearGradient id="paint3_linear_2045_71" x1="26.4206" y1="4.07926" x2="3.50925" y2="30.7417" gradientUnits="userSpaceOnUse">
<stop offset="0.0001" stop-color="#C7F284"/>
<stop offset="1" stop-color="#00BEF0"/>
</linearGradient>
<linearGradient id="paint4_linear_2045_71" x1="29.7898" y1="-5.07795" x2="3.42608" y2="25.655" gradientUnits="userSpaceOnUse">
<stop offset="0.0001" stop-color="#C7F284"/>
<stop offset="1" stop-color="#00BEF0"/>
</linearGradient>
<linearGradient id="paint5_linear_2045_71" x1="24.3144" y1="12.2815" x2="12.2097" y2="32.9069" gradientUnits="userSpaceOnUse">
<stop offset="0.0001" stop-color="#C7F284"/>
<stop offset="1" stop-color="#00BEF0"/>
</linearGradient>
<clipPath id="clip0_2045_71">
<rect width="40" height="40" fill="white"/>
</clipPath>
</defs>
</svg>
