<svg width="41" height="40" viewBox="0 0 41 40" fill="none" xmlns="http://www.w3.org/2000/svg">
<g clip-path="url(#clip0_3288_585)">
<path d="M20.2578 40C31.2578 40 40.2578 31 40.2578 20C40.2578 9 31.2578 0 20.2578 0C9.25781 0 0.257812 9 0.257812 20C0.257812 31 9.25781 40 20.2578 40Z" fill="#70C7BA"/>
<path d="M24.8037 10L21.1413 10.5531L22.1864 17.7437L14.5116 11.7516L12.2578 14.743L18.9874 20.0023L12.2578 25.257L14.5162 28.2484L22.1864 22.2563L21.1413 29.4515L24.8037 30L26.2578 20.0023L24.8037 10Z" fill="white"/>
<path d="M39.7578 20C39.7578 23.8567 38.6142 27.6269 36.4715 30.8336C34.3288 34.0404 31.2833 36.5397 27.7201 38.0156C24.157 39.4916 20.2362 39.8777 16.4536 39.1253C12.6709 38.3729 9.19636 36.5157 6.46924 33.7886C3.74211 31.0615 1.88492 27.5869 1.13251 23.8043C0.380097 20.0216 0.766262 16.1008 2.24217 12.5377C3.71808 8.97451 6.21744 5.92903 9.4242 3.78634C12.631 1.64365 16.4011 0.5 20.2578 0.5C25.4295 0.5 30.3894 2.55446 34.0464 6.21142C37.7034 9.86837 39.7578 14.8283 39.7578 20Z" stroke="black" stroke-opacity="0.02"/>
</g>
<defs>
<clipPath id="clip0_3288_585">
<rect width="40" height="40" fill="white" transform="translate(0.257812)"/>
</clipPath>
</defs>
</svg>
