<svg width="40" height="40" viewBox="0 0 40 40" fill="none" xmlns="http://www.w3.org/2000/svg">
<g clip-path="url(#clip0_1287_2409)">
<path d="M20 40C31 40 40 31 40 20C40 9 31 0 20 0C9 0 0 9 0 20C0 31 9 40 20 40Z" fill="#0E1821"/>
<path d="M32 30.9999H23.6348L23.6293 30.996L23.5634 30.9476L13.1969 23.2411L17.4399 20L31.93 30.9476L32 30.9999Z" fill="#4A9079"/>
<path d="M32 9H23.6348L23.6294 9.00394L23.5635 9.05239L13.1969 16.7589L17.4399 20L31.93 9.05239L32 9Z" fill="#4A9079"/>
<path d="M13.1984 20.4885V23.2332V23.2424L13.1997 30.9477V31L13.1942 30.9961L13.1297 30.9477L8.0851 27.1501L8.07275 27.1408L8 27.0871V12.9129L8.07275 12.8592L8.0851 12.85L13.1297 9.05239L13.1942 9.00394L13.1997 9V9.05239L13.1984 16.7576V16.7668V20V20.4885Z" fill="#4A9079"/>
<path d="M39.5 20C39.5 23.8567 38.3563 27.6269 36.2137 30.8336C34.071 34.0404 31.0255 36.5397 27.4623 38.0156C23.8992 39.4916 19.9784 39.8777 16.1957 39.1253C12.4131 38.3729 8.93855 36.5157 6.21143 33.7886C3.4843 31.0615 1.62711 27.5869 0.874696 23.8043C0.122284 20.0216 0.508449 16.1008 1.98436 12.5377C3.46027 8.97451 5.95963 5.92903 9.16639 3.78634C12.3731 1.64365 16.1433 0.5 20 0.5C25.1717 0.5 30.1316 2.55446 33.7886 6.21142C37.4455 9.86838 39.5 14.8283 39.5 20Z" stroke="black" stroke-opacity="0.02"/>
</g>
<defs>
<clipPath id="clip0_1287_2409">
<rect width="40" height="40" fill="white"/>
</clipPath>
</defs>
</svg>
