<svg width="40" height="40" viewBox="0 0 40 40" fill="none" xmlns="http://www.w3.org/2000/svg">
<g clip-path="url(#clip0_1639_592)">
<path d="M20 40C23.9556 40 27.8224 38.827 31.1114 36.6294C34.4004 34.4318 36.9638 31.3082 38.4776 27.6537C39.9913 23.9992 40.3874 19.9778 39.6157 16.0982C38.844 12.2186 36.9392 8.65492 34.1421 5.85787C31.3451 3.06082 27.7814 1.15601 23.9018 0.384303C20.0222 -0.387401 16.0009 0.00866568 12.3463 1.52242C8.69181 3.03617 5.56824 5.59962 3.37061 8.8886C1.17298 12.1776 0 16.0444 0 20C0 25.3043 2.10714 30.3914 5.85786 34.1421C9.60859 37.8929 14.6957 40 20 40Z" fill="#F3F3F3"/>
<path d="M39.5 20C39.5 23.8567 38.3563 27.6269 36.2137 30.8336C34.071 34.0404 31.0255 36.5397 27.4623 38.0156C23.8992 39.4916 19.9784 39.8777 16.1957 39.1253C12.4131 38.3729 8.93855 36.5157 6.21143 33.7886C3.4843 31.0615 1.62711 27.5869 0.874696 23.8043C0.122284 20.0216 0.508449 16.1008 1.98436 12.5377C3.46027 8.97451 5.95963 5.92903 9.16639 3.78634C12.3731 1.64365 16.1433 0.5 20 0.5C25.1717 0.5 30.1316 2.55446 33.7886 6.21142C37.4455 9.86837 39.5 14.8283 39.5 20Z" stroke="black" stroke-opacity="0.02"/>
<path d="M13.0814 31.7099C12.7165 31.661 12.2238 31.4541 11.8966 31.2134C11.7047 31.0705 11.3925 30.7282 11.3248 30.5815C11.306 30.5401 11.2459 30.416 11.1894 30.3032C10.9826 29.8706 10.9938 30.1264 11.0051 24.7365C11.0164 19.907 11.0164 19.8468 11.0804 19.655C11.2082 19.2751 11.3775 19.0043 11.6634 18.7184C11.8138 18.568 12.0169 18.3987 12.1147 18.3385C12.4833 18.1241 12.9309 17.9887 13.2769 17.985H13.4424L13.4537 15.3709C13.465 12.8734 13.4688 12.7342 13.5327 12.4032C14.0029 9.93209 15.8647 8.05145 18.4412 7.44212C18.9941 7.30672 19.2987 7.28039 20.0472 7.28415C20.8108 7.28415 21.0816 7.318 21.7661 7.49102C22.9284 7.7844 24.0718 8.45391 24.8993 9.319C25.6515 10.1051 26.2007 11.1395 26.4226 12.17C26.5392 12.7305 26.5542 13.0163 26.5542 15.5364V17.985H26.7385C27.1109 17.985 27.6601 18.1768 28.0362 18.4288C28.5101 18.756 28.8787 19.3202 28.9727 19.8656C28.9953 20.0085 29.0028 21.5507 28.9991 24.9847L28.9916 29.9045L28.9201 30.085C28.7734 30.4687 28.6117 30.7282 28.3521 30.9877C28.0851 31.2585 27.8519 31.4127 27.4946 31.5557C27.0357 31.74 27.4043 31.7324 19.9946 31.7287C16.2484 31.7249 13.134 31.7174 13.0814 31.7099ZM26.8815 30.1753C27.0996 30.0925 27.2012 30.006 27.3065 29.8142L27.393 29.66L27.3893 24.8531V20.0424L27.314 19.8995C27.2275 19.734 27.0282 19.5647 26.8514 19.5158C26.7724 19.4932 24.5307 19.4857 19.9683 19.4857H13.2055L13.04 19.5685C12.8632 19.6587 12.7165 19.8205 12.6563 19.9935C12.6262 20.0725 12.6187 21.3476 12.6187 24.8794C12.6187 29.4531 12.6225 29.6637 12.6789 29.7879C12.709 29.8593 12.7955 29.9646 12.8707 30.0286C13.1415 30.258 12.5585 30.243 20.0096 30.243C26.6708 30.2392 26.716 30.2392 26.8815 30.1753ZM24.9369 15.4687C24.9369 13.8175 24.9256 12.8734 24.903 12.7267C24.8053 12.0685 24.5495 11.4253 24.1658 10.8574C23.9402 10.5264 23.2669 9.86438 22.9359 9.64247C21.9053 8.96168 20.6528 8.65325 19.453 8.78866C18.2343 8.92783 17.23 9.39799 16.4101 10.2217C15.7707 10.8574 15.3833 11.5494 15.1651 12.4371C15.0974 12.7154 15.0936 12.7794 15.0861 15.3558L15.0748 17.9887H20.0021H24.9331V15.4687H24.9369Z" fill="#007BFF"/>
<path d="M21.676 25.5977C21.676 26.5193 20.9275 27.2677 20.0059 27.2677C19.0844 27.2677 18.3359 26.5193 18.3359 25.5977C18.3359 24.9658 18.6895 24.4129 19.2086 24.1308V23.4087C19.2086 22.3518 19.2198 22.2916 19.438 22.0697C19.7539 21.75 20.2542 21.7462 20.5739 22.0621C20.7921 22.2803 20.7996 22.3179 20.7996 23.3673V24.1271C21.3224 24.4092 21.676 24.9621 21.676 25.5977Z" fill="#007BFF"/>
</g>
<defs>
<clipPath id="clip0_1639_592">
<rect width="40" height="40" fill="white"/>
</clipPath>
</defs>
</svg>
