<svg width="40" height="40" viewBox="0 0 40 40" fill="none" xmlns="http://www.w3.org/2000/svg">
<g clip-path="url(#clip0_1585_653)">
<path d="M20 40C23.9556 40 27.8224 38.827 31.1114 36.6294C34.4004 34.4318 36.9638 31.3082 38.4776 27.6537C39.9913 23.9992 40.3874 19.9778 39.6157 16.0982C38.844 12.2186 36.9392 8.65492 34.1421 5.85787C31.3451 3.06082 27.7814 1.15601 23.9018 0.384303C20.0222 -0.387401 16.0009 0.00866568 12.3463 1.52242C8.69181 3.03617 5.56824 5.59962 3.37061 8.8886C1.17298 12.1776 0 16.0444 0 20C0 25.3043 2.10714 30.3914 5.85786 34.1421C9.60859 37.8929 14.6957 40 20 40Z" fill="black"/>
<path d="M31.57 12.86C31.0988 12.4032 30.4982 12.1029 29.85 12C29.0561 12.0157 28.2897 12.2934 27.67 12.79C27.12 13.15 26.07 14.19 25.67 14.51C25.27 14.83 24.13 15.13 22.35 16.2C20.57 17.27 13.58 21.75 13.58 21.75H15.4L7.26002 26H8.07002L6.90002 26.89C7.54609 27.0375 8.22398 26.9376 8.80002 26.61V26.87C8.80002 26.87 18.45 23 20.32 24L19.18 24.33L21.11 24.45C21.1546 24.8302 21.2826 25.1958 21.4849 25.5208C21.6871 25.8458 21.9586 26.1221 22.28 26.33C23.39 27.06 23.41 27.46 23.41 27.46C23.41 27.46 22.83 27.69 22.83 27.99C23.3628 27.835 23.9152 27.7575 24.47 27.76C24.9886 27.7701 25.5033 27.8509 26 28C26 28 25.94 27.68 25.17 27.47C24.4026 27.1639 23.7323 26.656 23.23 26C23.0037 25.7093 22.8562 25.3651 22.8019 25.0007C22.7476 24.6363 22.7883 24.2641 22.92 23.92C23.18 23.23 24.11 22.85 26.02 21.87C28.27 20.7 28.79 19.87 29.1 19.16C29.41 18.45 29.89 17.16 30.16 16.52C30.3709 15.9223 30.745 15.3958 31.24 15C31.8404 14.6841 32.4619 14.4101 33.1 14.18C33.1 14.18 31.94 13.15 31.57 12.86Z" fill="white"/>
<path d="M39.5 20C39.5 23.8567 38.3563 27.6269 36.2137 30.8336C34.071 34.0404 31.0255 36.5397 27.4623 38.0156C23.8992 39.4916 19.9784 39.8777 16.1957 39.1253C12.4131 38.3729 8.93855 36.5157 6.21143 33.7886C3.4843 31.0615 1.62711 27.5869 0.874696 23.8043C0.122284 20.0216 0.508449 16.1008 1.98436 12.5377C3.46027 8.97451 5.95963 5.92903 9.16639 3.78634C12.3731 1.64365 16.1433 0.5 20 0.5C25.1717 0.5 30.1316 2.55446 33.7886 6.21142C37.4455 9.86837 39.5 14.8283 39.5 20Z" stroke="black" stroke-opacity="0.02"/>
</g>
<defs>
<clipPath id="clip0_1585_653">
<rect width="40" height="40" fill="white"/>
</clipPath>
</defs>
</svg>
