<svg width="40" height="40" viewBox="0 0 40 40" fill="none" xmlns="http://www.w3.org/2000/svg">
<g clip-path="url(#clip0_2058_603)">
<path d="M20 40C23.9556 40 27.8224 38.827 31.1114 36.6294C34.4004 34.4318 36.9638 31.3082 38.4776 27.6537C39.9913 23.9992 40.3874 19.9778 39.6157 16.0982C38.844 12.2186 36.9392 8.65492 34.1421 5.85787C31.3451 3.06082 27.7814 1.15601 23.9018 0.384303C20.0222 -0.387401 16.0009 0.00866568 12.3463 1.52242C8.69181 3.03617 5.56824 5.59962 3.37061 8.8886C1.17298 12.1776 0 16.0444 0 20C0 25.3043 2.10714 30.3914 5.85786 34.1421C9.60859 37.8929 14.6957 40 20 40Z" fill="#F69988"/>
<path fill-rule="evenodd" clip-rule="evenodd" d="M20.0093 5.85938L27.0249 16.8152L20.009 20.8942L12.9938 16.815L20.0093 5.85938ZM15.1414 16.297L20.0093 8.69508L24.8772 16.297L20.009 19.1273L15.1414 16.297Z" fill="white"/>
<path d="M19.999 23.3023L11.8606 18.57L11.6384 18.917C9.13186 22.8314 9.69163 27.9577 12.9843 31.242C16.859 35.1068 23.141 35.1068 27.0157 31.242C30.3083 27.9577 30.8681 22.8314 28.3616 18.917L28.1393 18.5699L19.999 23.3023Z" fill="white"/>
<path d="M39.5 20C39.5 23.8567 38.3563 27.6269 36.2137 30.8336C34.071 34.0404 31.0255 36.5397 27.4623 38.0156C23.8992 39.4916 19.9784 39.8777 16.1957 39.1253C12.4131 38.3729 8.93855 36.5157 6.21143 33.7886C3.4843 31.0615 1.62711 27.5869 0.874696 23.8043C0.122284 20.0216 0.508449 16.1008 1.98436 12.5377C3.46027 8.97451 5.95963 5.92903 9.16639 3.78634C12.3731 1.64365 16.1433 0.5 20 0.5C25.1717 0.5 30.1316 2.55446 33.7886 6.21142C37.4455 9.86838 39.5 14.8283 39.5 20Z" stroke="black" stroke-opacity="0.02"/>
</g>
<defs>
<clipPath id="clip0_2058_603">
<rect width="40" height="40" fill="white"/>
</clipPath>
</defs>
</svg>
