<svg width="40" height="40" viewBox="0 0 40 40" fill="none" xmlns="http://www.w3.org/2000/svg">
<g clip-path="url(#clip0_4102_1121)">
<path fill-rule="evenodd" clip-rule="evenodd" d="M40 20C40 23.9556 38.827 27.8224 36.6294 31.1114C34.4318 34.4004 31.3082 36.9638 27.6537 38.4776C23.9992 39.9913 19.9778 40.3874 16.0982 39.6157C12.2186 38.844 8.65492 36.9392 5.85787 34.1421C3.06082 31.3451 1.15601 27.7814 0.384303 23.9018C-0.387401 20.0222 0.00866568 16.0009 1.52242 12.3463C3.03617 8.69181 5.59962 5.56824 8.8886 3.37061C12.1776 1.17298 16.0444 0 20 0C25.3043 0 30.3914 2.10714 34.1421 5.85786C37.8929 9.60859 40 14.6957 40 20Z" fill="white"/>
<path fill-rule="evenodd" clip-rule="evenodd" d="M18.336 36C17.0048 34.9504 16.3392 33.8624 16.3392 32.736C16.3136 31.6992 16.6976 30.7008 17.4016 29.9456L32.544 14.8032C33.5808 15.6864 34.208 16.6976 34.4 17.8368C34.6048 18.9504 34.2464 20.1024 33.4272 20.896L18.3232 36H18.336ZM12.9344 30.5984C11.5904 29.5488 10.9376 28.4608 10.9376 27.3344C10.912 26.2976 11.2832 25.2992 12 24.544L27.1424 9.4016C28.1792 10.2848 28.8064 11.296 28.9984 12.4352C29.2032 13.5488 28.8448 14.7008 28.0256 15.4944L12.9216 30.5984H12.9344ZM7.53279 25.1968C6.18879 24.1472 5.53599 23.0592 5.53599 21.9328C5.51039 20.896 5.89439 19.8976 6.59839 19.1424L21.7408 4C22.7776 4.896 23.4048 5.8944 23.5968 7.0336C23.8016 8.1472 23.4432 9.2992 22.624 10.0928L7.51999 25.1968H7.53279Z" fill="url(#paint0_linear_4102_1121)"/>
<path opacity="0.02" d="M20 1C24.3957 1.0023 28.6545 2.52861 32.051 5.31888C35.4474 8.10914 37.7714 11.9907 38.6268 16.3023C39.4823 20.6139 38.8163 25.0887 36.7424 28.9643C34.6685 32.84 31.315 35.8766 27.2532 37.557C23.1915 39.2373 18.6727 39.4573 14.4669 38.1795C10.2611 36.9017 6.62844 34.2052 4.18786 30.5494C1.74727 26.8936 0.649757 22.5046 1.08231 18.1303C1.51485 13.756 3.4507 9.66703 6.56003 6.56C8.32534 4.79599 10.4209 3.39704 12.7269 2.44304C15.033 1.48904 17.5044 0.998695 20 1ZM20 4.56507e-07C15.3729 -0.000987762 10.8885 1.60248 7.31107 4.53718C3.73363 7.47188 1.28444 11.5562 0.380826 16.0943C-0.522786 20.6324 0.17509 25.3434 2.35554 29.4246C4.53599 33.5058 8.06411 36.7047 12.3387 38.4762C16.6133 40.2477 21.37 40.4822 25.7981 39.1398C30.2263 37.7974 34.0519 34.9611 36.6233 31.1142C39.1947 27.2673 40.3526 22.6478 39.8998 18.0428C39.447 13.4379 37.4114 9.13239 34.14 5.86C30.3902 2.10901 25.3039 0.0011332 20 4.56507e-07Z" fill="black"/>
</g>
<defs>
<linearGradient id="paint0_linear_4102_1121" x1="14.6517" y1="14.6093" x2="27.0933" y2="27.1277" gradientUnits="userSpaceOnUse">
<stop stop-color="#7EB5FF"/>
<stop offset="1" stop-color="#1A38F8"/>
</linearGradient>
<clipPath id="clip0_4102_1121">
<rect width="40" height="40" fill="white"/>
</clipPath>
</defs>
</svg>
