<svg viewBox="0 0 40 40" xmlns="http://www.w3.org/2000/svg">
  <g fill="none">
    <path d="M20 40C8.954 40 0 31.046 0 20S8.954 0 20 0s20 8.954 20 20-8.954 20-20 20z" fill="#2A5ADA"/>
    <circle stroke-opacity=".02" stroke="#000" cx="20" cy="20" r="19.5"/>
    <circle stroke-opacity=".02" stroke="#000" cx="20" cy="20" r="19.5"/>
    <path d="M20 7l-2.328 1.371-6.344 3.7568L9 13.5v13l2.328 1.371 6.4022 3.7568L20.0582 33l2.328-1.3722 6.2858-3.7568L31 26.5v-13l-2.328-1.3722-6.3434-3.7568L20 7zm-6.344 16.7563V16.243L20 12.4862l6.344 3.757v7.513L20 27.5139l-6.344-3.7575z" fill="#FFF"/>
  </g>
</svg>
