<svg width="40" height="40" viewBox="0 0 40 40" fill="none" xmlns="http://www.w3.org/2000/svg">
<g clip-path="url(#clip0_3540_771)">
<path d="M20 40C31 40 40 31 40 20C40 9 31 0 20 0C9 0 0 9 0 20C0 31 9 40 20 40Z" fill="black"/>
<path d="M34 20.561L32.1333 18.9485L29.9112 21.4295C29.6172 21.6643 28.7321 22.091 27.5413 21.926C26.3506 21.761 25.7034 22.133 25.5284 22.3392L18.159 30.3313L20 32C22.5931 29.195 27.9396 23.3938 28.5268 22.8148C29.261 22.091 29.9112 22.505 30.9597 22.6287C31.7981 22.7285 32.2593 22.4772 32.3853 22.3392L34 20.5625V20.561Z" fill="url(#paint0_linear_3540_771)"/>
<path d="M15.9244 28.274L14.0998 26.6615L19.699 20.6022C20.3492 19.8995 21.2507 20.4163 22.2571 20.4163C23.0621 20.4163 23.7388 20.0165 23.976 19.8162L28.1706 15.3298L29.9742 16.9633C28.8576 18.1778 27.7391 19.3908 26.6189 20.6022C25.9267 21.347 25.0672 21.0163 24.1658 20.8093C23.444 20.6443 22.7463 21.0717 22.4881 21.3057L15.9244 28.274Z" fill="url(#paint1_linear_3540_771)"/>
<path d="M20.0202 8L11.9236 16.7413C11.4118 17.2948 10.0149 17.2602 9.15933 17.087C8.47489 16.949 7.89389 17.3615 7.68933 17.585L6 19.3805L7.86511 21.0035C8.62578 20.1162 10.2786 18.2473 10.8051 17.8663C11.4631 17.39 12.4727 17.585 13.0871 17.8663C13.5787 18.0913 14.2133 17.7725 14.4692 17.585L21.9071 9.66575L20.0202 8Z" fill="url(#paint2_linear_3540_771)"/>
<path d="M11.9064 24.6875L10.0787 23.0262C11.075 21.9395 13.2497 19.5755 13.7747 19.0415C14.4311 18.3733 15.6157 18.7895 16.4844 18.7715C17.1798 18.7572 17.816 18.329 18.0478 18.1175L24.1207 11.6735L25.9142 13.367C24.3594 14.9585 21.1379 18.2945 20.6868 18.9005C20.2357 19.5073 19.559 19.541 19.2774 19.4818C18.8665 19.3925 18.4564 19.3 18.047 19.2042C17.3501 19.0422 16.7147 19.4735 16.4837 19.709L11.9064 24.6875Z" fill="url(#paint3_linear_3540_771)"/>
<path d="M39.5 20C39.5 23.8567 38.3563 27.6269 36.2137 30.8336C34.071 34.0404 31.0255 36.5397 27.4623 38.0156C23.8992 39.4916 19.9784 39.8777 16.1957 39.1253C12.4131 38.3729 8.93855 36.5157 6.21143 33.7886C3.4843 31.0615 1.62711 27.5869 0.874696 23.8043C0.122284 20.0216 0.508449 16.1008 1.98436 12.5377C3.46027 8.97451 5.95963 5.92903 9.16639 3.78634C12.3731 1.64365 16.1433 0.5 20 0.5C25.1717 0.5 30.1316 2.55446 33.7886 6.21142C37.4455 9.86837 39.5 14.8283 39.5 20Z" stroke="black" stroke-opacity="0.02"/>
</g>
<defs>
<linearGradient id="paint0_linear_3540_771" x1="31.1212" y1="11.6699" x2="12.1292" y2="31.4321" gradientUnits="userSpaceOnUse">
<stop offset="0.205" stop-color="#00C967"/>
<stop offset="0.325" stop-color="#15E882"/>
<stop offset="1" stop-color="#16EA84"/>
</linearGradient>
<linearGradient id="paint1_linear_3540_771" x1="29.3109" y1="14.0504" x2="10.8827" y2="32.1704" gradientUnits="userSpaceOnUse">
<stop offset="0.232" stop-color="#00C969"/>
<stop offset="0.416" stop-color="#09F183"/>
</linearGradient>
<linearGradient id="paint2_linear_3540_771" x1="25.2695" y1="24.0987" x2="15.6524" y2="34.246" gradientUnits="userSpaceOnUse">
<stop stop-color="#1BC775"/>
<stop offset="0.715" stop-color="#0DD976"/>
</linearGradient>
<linearGradient id="paint3_linear_3540_771" x1="23.2193" y1="14.9247" x2="13.0342" y2="25.0847" gradientUnits="userSpaceOnUse">
<stop offset="0.401" stop-color="#1BD27F"/>
<stop offset="0.609" stop-color="#2FE18B"/>
</linearGradient>
<clipPath id="clip0_3540_771">
<rect width="40" height="40" fill="white"/>
</clipPath>
</defs>
</svg>
