<svg width="40" height="40" viewBox="0 0 40 40" fill="none" xmlns="http://www.w3.org/2000/svg">
<g clip-path="url(#clip0_4410_163)">
<path fill-rule="evenodd" clip-rule="evenodd" d="M40 20C40 23.9556 38.827 27.8224 36.6294 31.1114C34.4318 34.4004 31.3082 36.9638 27.6537 38.4776C23.9992 39.9913 19.9778 40.3874 16.0982 39.6157C12.2186 38.844 8.65492 36.9392 5.85787 34.1421C3.06082 31.3451 1.15601 27.7814 0.384303 23.9018C-0.387401 20.0222 0.00866568 16.0009 1.52242 12.3463C3.03617 8.69181 5.59962 5.56824 8.8886 3.37061C12.1776 1.17298 16.0444 0 20 0C25.3043 0 30.3914 2.10714 34.1421 5.85786C37.8929 9.60859 40 14.6957 40 20Z" fill="#F3F3F3"/>
<path opacity="0.02" d="M20 1C24.3957 1.0023 28.6545 2.52861 32.051 5.31888C35.4474 8.10914 37.7714 11.9907 38.6268 16.3023C39.4823 20.6139 38.8163 25.0887 36.7424 28.9643C34.6685 32.84 31.315 35.8766 27.2532 37.557C23.1915 39.2373 18.6727 39.4573 14.4669 38.1795C10.2611 36.9017 6.62844 34.2052 4.18786 30.5494C1.74727 26.8936 0.649757 22.5046 1.08231 18.1303C1.51485 13.756 3.4507 9.66703 6.56003 6.56C8.32534 4.79599 10.4209 3.39704 12.7269 2.44304C15.033 1.48904 17.5044 0.998695 20 1V1ZM20 4.56507e-07C15.3729 -0.000987761 10.8885 1.60248 7.31107 4.53718C3.73363 7.47188 1.28444 11.5562 0.380826 16.0943C-0.522786 20.6324 0.17509 25.3434 2.35554 29.4246C4.53599 33.5058 8.06411 36.7047 12.3387 38.4762C16.6133 40.2477 21.37 40.4822 25.7981 39.1398C30.2263 37.7974 34.0519 34.9611 36.6233 31.1142C39.1947 27.2673 40.3526 22.6478 39.8998 18.0428C39.447 13.4379 37.4114 9.13239 34.14 5.86C30.3902 2.10901 25.3039 0.0011332 20 4.56507e-07V4.56507e-07Z" fill="black"/>
<path d="M7.58674 13.9991L7.6787 14.0358L8.54316 14.4222L9.49958 14.8455C10.5664 12.5821 12.3872 10.6868 14.7967 9.54595L14.3736 8.58908L13.7667 7.19059C13.0862 5.8289 11.8539 6.28893 11.4124 6.50974C9.46279 7.72422 7.84424 9.32513 6.63032 11.1836C6.61193 11.2021 6.61193 11.2205 6.61193 11.2572C5.83943 13.0606 7.20049 13.815 7.58674 13.9991Z" fill="#00934B"/>
<path d="M9.51802 14.8274L11.063 15.5082L12.4057 16.097L13.4725 16.5755C14.1162 15.269 15.183 14.1649 16.5624 13.4841L16.0842 12.4168L15.4957 11.0735L14.8151 9.52779C12.4057 10.6686 10.5848 12.5824 9.51802 14.8274Z" fill="#22D511"/>
<path d="M13.454 16.5763L17.7395 18.4532C18.0154 18.4348 18.2545 18.2508 18.3649 17.9932C18.4017 17.9012 18.42 17.8276 18.42 17.7355L17.5188 15.693L16.544 13.4664C15.1645 14.1657 14.0977 15.2698 13.454 16.5763Z" fill="#BEF000"/>
<path d="M35.6357 16.7042C34.9183 14.9193 33.4469 15.3241 33.0423 15.4897L32.932 15.5265L32.0307 15.8762L31.0559 16.2626C31.9571 18.7652 31.9019 21.4149 31.0559 23.7703L32.0307 24.1567L33.2814 24.6352C34.7344 25.2424 35.3414 24.2119 35.5621 23.6598C36.1139 21.4149 36.1507 19.0412 35.6357 16.7042Z" fill="#00934B"/>
<path d="M31.0742 16.2624L29.5109 16.8696L28.1314 17.4032L27.0463 17.8264C27.5428 19.2985 27.5244 20.8259 27.0463 22.2059L28.113 22.6291L29.4925 23.1628L31.0559 23.7703C31.9203 21.415 31.9755 18.7833 31.0742 16.2624Z" fill="#22D511"/>
<path d="M27.0647 17.827L24.8025 18.7102L22.7057 19.5383C22.5217 19.7407 22.4666 20.0351 22.5769 20.3112C22.6137 20.3848 22.6505 20.4584 22.7057 20.5136L24.8025 21.3232L27.0647 22.2065C27.5245 20.8264 27.5613 19.2991 27.0647 17.827Z" fill="#BEF000"/>
<path d="M7.95462 24.1568L8.92944 23.7704C8.0282 21.2678 8.08338 18.618 8.92944 16.2627L7.95462 15.8763L6.68552 15.3794C5.21411 14.7906 4.62554 15.8763 4.42322 16.4099C3.88984 18.618 3.85305 20.955 4.34966 23.2551C4.34966 23.2551 4.34966 23.2551 4.34966 23.2735C5.06697 25.1136 6.55678 24.6905 6.96142 24.5432L7.95462 24.1568Z" fill="#00934B"/>
<path d="M8.92944 23.7704L10.4928 23.1632L11.8539 22.6295L12.939 22.2063C12.4424 20.7342 12.4608 19.2069 12.939 17.8268L11.8539 17.4036L10.4928 16.8883L8.92942 16.2811C8.08335 18.6365 8.02819 21.2679 8.92944 23.7704Z" fill="#22D511"/>
<path d="M12.9574 22.2065L17.2981 20.5136C17.4821 20.3112 17.5372 20.0168 17.4269 19.7407C17.3901 19.6487 17.3349 19.5751 17.2797 19.5199L12.939 17.8268C12.4792 19.2253 12.4608 20.7528 12.9574 22.2065Z" fill="#BEF000"/>
<path d="M9.53634 25.2053L8.57992 25.6286L7.58671 26.0702C7.58671 26.0702 5.8394 27.0087 6.64869 28.8119V28.8304C7.91778 30.7993 9.59152 32.4002 11.5044 33.5779C12.001 33.8171 13.2517 34.222 13.877 32.6946L14.4104 31.4802L14.8334 30.5233C12.5896 29.4376 10.6767 27.6159 9.53634 25.2053Z" fill="#00934B"/>
<path d="M16.5808 26.567C15.2749 25.9229 14.1714 24.8557 13.4908 23.4756L12.4241 23.9356L11.0814 24.5244L9.53634 25.2053C10.6767 27.6158 12.5896 29.4376 14.8519 30.5048L15.5324 28.9591L16.5808 26.567Z" fill="#22D511"/>
<path d="M16.5808 26.549L17.5556 24.3225L18.4569 22.28C18.4385 22.0039 18.2729 21.7464 17.997 21.6359C17.9235 21.5991 17.8315 21.5807 17.7395 21.5807L15.6979 22.4824L13.4724 23.4576C14.1713 24.8561 15.2749 25.905 16.5808 26.549Z" fill="#BEF000"/>
<path d="M30.4857 14.8457L31.4421 14.4224L32.5089 13.944L32.4169 13.9624C32.8032 13.7784 34.1458 13.0423 33.3917 11.2758C32.1042 9.2517 30.3753 7.61399 28.3889 6.41791C26.991 5.70026 26.1266 7.33797 26.1266 7.33797L25.5932 8.57086L25.1702 9.52772C27.4325 10.595 29.3453 12.4167 30.4857 14.8457Z" fill="#00934B"/>
<path d="M23.9011 12.3984L23.4413 13.4656C24.7471 14.1097 25.8507 15.177 26.5497 16.5755L27.6164 16.1154L28.9591 15.5266L30.4857 14.8457C29.3453 12.4352 27.4325 10.595 25.1702 9.52772L24.4896 11.0735L23.9011 12.3984Z" fill="#22D511"/>
<path d="M23.4413 13.4656L22.4665 15.693L21.5652 17.7723C21.5836 18.0484 21.7491 18.2876 22.025 18.398C22.0986 18.4348 22.1905 18.4532 22.2825 18.4532L26.568 16.5763C25.8507 15.1778 24.7471 14.1281 23.4413 13.4656Z" fill="#BEF000"/>
<path d="M24.1402 32.051L23.7539 31.0758C21.2341 31.9774 18.6039 31.9223 16.2497 31.0758L15.8634 32.051L15.2381 33.6704C15.2381 33.6704 14.9254 34.9401 16.7647 35.6393C16.8015 35.6577 16.8382 35.6761 16.8751 35.6761C18.9902 36.1178 21.2157 36.1178 23.4044 35.6209C23.7171 35.5289 25.2437 35.0505 24.692 33.4495L24.1402 32.051Z" fill="#00934B"/>
<path d="M23.7724 31.0752L23.1654 29.5111L22.632 28.131L22.209 27.0637C20.7376 27.5605 19.211 27.5421 17.8315 27.0637L17.4085 28.131L16.8751 29.5111L16.2682 31.0752C18.6224 31.9216 21.2526 31.9768 23.7724 31.0752Z" fill="#22D511"/>
<path d="M22.1906 27.0647L20.4985 22.722C20.2961 22.5379 19.9834 22.4827 19.7076 22.5932C19.634 22.6299 19.5604 22.6668 19.5053 22.722L17.8132 27.0647C19.2109 27.5247 20.7192 27.5615 22.1906 27.0647Z" fill="#BEF000"/>
<path d="M15.8451 7.96349L16.2314 8.93875C18.7512 8.03709 21.3814 8.0923 23.7356 8.92035L24.1218 7.94509L24.5081 6.95142C24.6552 6.54659 25.0783 5.03769 23.239 4.33845C23.2206 4.33845 23.2206 4.32005 23.2022 4.32005C21.0135 3.87842 18.7144 3.87842 16.4521 4.41205C15.9371 4.57767 14.7232 5.16651 15.3669 6.7306L15.8451 7.96349Z" fill="#00934B"/>
<path d="M16.2314 8.93875L16.8383 10.5033L17.3717 11.865L17.7947 12.9506C19.2661 12.4538 20.7927 12.4723 22.1722 12.9506L22.5952 11.865L23.1286 10.5033L23.7356 8.93919C21.3813 8.09274 18.7511 8.0371 16.2314 8.93875Z" fill="#22D511"/>
<path d="M17.7947 12.9506L19.5052 17.33C19.7075 17.4956 20.0019 17.5508 20.2593 17.4404C20.3513 17.4036 20.4249 17.3484 20.48 17.2932L21.2893 15.1955L22.1722 12.9321C20.7927 12.4905 19.2661 12.4538 17.7947 12.9506Z" fill="#BEF000"/>
<path d="M32.4169 26.0341L32.3065 25.9972L31.4421 25.6108L30.4857 25.1876C29.4189 27.4509 27.598 29.3463 25.1702 30.5056L25.5932 31.4624L26.1266 32.6769C26.8255 34.3698 28.2602 33.7074 28.628 33.4865C30.5592 32.2721 32.141 30.6896 33.3365 28.8494C33.3549 28.8311 33.3549 28.8126 33.3734 28.7758C34.1642 26.9725 32.8032 26.218 32.4169 26.0341Z" fill="#00934B"/>
<path d="M30.4857 25.1876L28.9407 24.5068L27.5796 23.9179L26.5312 23.4579C25.8875 24.7644 24.8207 25.85 23.4413 26.5309L23.9011 27.5798L24.4896 28.9414L25.1702 30.4871C27.5796 29.3647 29.4189 27.451 30.4857 25.1876Z" fill="#22D511"/>
<path d="M26.5313 23.4757L24.3057 22.5005L22.2826 21.6172C22.209 21.6172 22.1171 21.6356 22.0435 21.6724C21.8595 21.746 21.7124 21.8933 21.6388 22.0772C21.602 22.1508 21.5837 22.2244 21.5837 22.3165L22.4665 24.3406L23.4413 26.5671C24.8208 25.8679 25.8875 24.7822 26.5313 23.4757Z" fill="#BEF000"/>
</g>
<defs>
<clipPath id="clip0_4410_163">
<rect width="40" height="40" fill="white"/>
</clipPath>
</defs>
</svg>
