<svg width="40" height="40" viewBox="0 0 40 40" fill="none" xmlns="http://www.w3.org/2000/svg">
<g clip-path="url(#clip0_3103_706)">
<path d="M20 40C31 40 40 31 40 20C40 9 31 0 20 0C9 0 0 9 0 20C0 31 9 40 20 40Z" fill="#F0F3FA"/>
<path d="M7.85742 21.4286L18.5717 32.1429C18.5717 32.1429 15.5717 27.0143 14.1431 25.5643C12.7146 24.1357 7.85742 21.4286 7.85742 21.4286Z" fill="#5496F8"/>
<path d="M16.4283 17.8572L8.07119 20.0286C7.9569 20.0572 7.89262 20.1429 7.8569 20.25C7.84262 20.3643 7.89262 20.4643 7.98548 20.5286L13.6283 24.1429C13.864 24.3072 14.1355 24.3215 14.414 24.2286C14.6855 24.1286 14.8569 23.9215 14.9212 23.6286L16.4283 17.8572Z" fill="#126BF9"/>
<path d="M22.1428 23.5714L20.0357 31.9286C20.0241 31.982 19.9965 32.0308 19.9567 32.0683C19.9169 32.1059 19.8667 32.1305 19.8126 32.139C19.7585 32.1475 19.7032 32.1395 19.6537 32.1159C19.6043 32.0924 19.5632 32.0545 19.5357 32.0071L15.8643 26.4143C15.7832 26.3019 15.7326 26.1705 15.7176 26.0327C15.7026 25.895 15.7236 25.7557 15.7786 25.6286C15.8786 25.3643 16.0857 25.1857 16.3643 25.1071L22.1428 23.5714Z" fill="#0037D1"/>
<path d="M16.7861 17.1428L19.2861 8.09997C19.2937 8.05979 19.2897 8.01827 19.2745 7.9803C19.2593 7.94233 19.2336 7.9095 19.2004 7.88568C19.1146 7.83568 19.0361 7.84997 18.9718 7.92139L7.91464 18.9643C7.84321 19.0285 7.84321 19.1071 7.87893 19.1928C7.92893 19.2714 8.0075 19.3071 8.09321 19.2714L16.7861 17.1428Z" fill="#5496F8"/>
<path d="M22.8576 23.5715L20.7147 31.9C20.7071 31.9402 20.7111 31.9817 20.7263 32.0197C20.7415 32.0577 20.7672 32.0905 20.8004 32.1143C20.8861 32.1643 20.9647 32.15 21.029 32.0786L32.0861 21.0357C32.1576 20.9715 32.1576 20.8929 32.1219 20.8072C32.0719 20.7286 31.9933 20.6929 31.9076 20.7286L22.8576 23.5715Z" fill="#0127AF"/>
<path d="M22.8574 22.8572L31.2146 20.0572C31.2668 20.0452 31.3146 20.0187 31.3525 19.9808C31.3903 19.9429 31.4168 19.8951 31.4289 19.8429C31.4366 19.7939 31.4283 19.7438 31.4051 19.7C31.3819 19.6562 31.3451 19.6211 31.3003 19.6L25.5717 16.55C25.4529 16.4843 25.3216 16.4439 25.1864 16.4316C25.0511 16.4193 24.9147 16.4353 24.786 16.4786C24.5146 16.5643 24.336 16.7643 24.2717 17.0215L22.8574 22.8572Z" fill="#2C4FF9"/>
<path d="M17.5 17.1428L19.7857 8.0857C19.8143 7.96427 19.8929 7.87141 20 7.85713C20.1071 7.84284 20.2143 7.89284 20.2571 7.99998L23.4357 14.25C23.5786 14.5143 23.6214 14.8071 23.5071 15.1071C23.4071 15.4071 23.2214 15.6 22.9571 15.6857L17.5 17.1428Z" fill="#78A8F9"/>
<path d="M17.1431 17.8572L22.9073 16.4572C22.9073 16.4572 23.7502 16.2215 23.5359 17.1429C23.3216 18.0572 22.1431 22.8572 22.1431 22.8572L16.4288 24.2715C16.4288 24.2715 15.5931 24.4572 15.7288 23.4858C15.8716 22.5358 17.1431 17.8572 17.1431 17.8572Z" fill="#126BF9"/>
<path d="M20.7139 7.85718L32.1424 19.2857C32.1424 19.2857 26.471 16.7143 25.0496 15.1786C23.6424 13.6357 20.7139 7.85718 20.7139 7.85718Z" fill="#0037D1"/>
<path d="M39.5 20C39.5 23.8567 38.3563 27.6269 36.2137 30.8336C34.071 34.0404 31.0255 36.5397 27.4623 38.0156C23.8992 39.4916 19.9784 39.8777 16.1957 39.1253C12.4131 38.3729 8.93855 36.5157 6.21143 33.7886C3.4843 31.0615 1.62711 27.5869 0.874696 23.8043C0.122284 20.0216 0.508449 16.1008 1.98436 12.5377C3.46027 8.97451 5.95963 5.92903 9.16639 3.78634C12.3731 1.64365 16.1433 0.5 20 0.5C25.1717 0.5 30.1316 2.55446 33.7886 6.21142C37.4455 9.86837 39.5 14.8283 39.5 20Z" stroke="black" stroke-opacity="0.02"/>
</g>
<defs>
<clipPath id="clip0_3103_706">
<rect width="40" height="40" fill="white"/>
</clipPath>
</defs>
</svg>
