<svg width="40" height="40" viewBox="0 0 40 40" fill="none" xmlns="http://www.w3.org/2000/svg">
<g clip-path="url(#clip0_1860_890)">
<path d="M20 40C23.9556 40 27.8224 38.827 31.1114 36.6294C34.4004 34.4318 36.9638 31.3082 38.4776 27.6537C39.9913 23.9992 40.3874 19.9778 39.6157 16.0982C38.844 12.2186 36.9392 8.65492 34.1421 5.85787C31.3451 3.06082 27.7814 1.15601 23.9018 0.384303C20.0222 -0.387401 16.0009 0.00866568 12.3463 1.52242C8.69181 3.03617 5.56824 5.59962 3.37061 8.8886C1.17298 12.1776 0 16.0444 0 20C0 25.3043 2.10714 30.3914 5.85786 34.1421C9.60859 37.8929 14.6957 40 20 40Z" fill="#0F0F0F"/>
<path d="M26.7793 31.9999L8.88644 18.9959C8.27626 18.5534 7.7781 17.9651 7.43416 17.2809C7.09023 16.5967 6.91066 15.8368 6.91066 15.0654C6.91066 14.2941 7.09023 13.5342 7.43416 12.85C7.7781 12.1658 8.27626 11.5775 8.88644 11.1349L13.2205 8L31.1133 21.0057C31.7232 21.4485 32.221 22.0368 32.5648 22.721C32.9085 23.4052 33.0879 24.165 33.0879 24.9362C33.0879 25.7074 32.9085 26.4672 32.5648 27.1514C32.221 27.8356 31.7232 28.4239 31.1133 28.8667L26.7793 31.9999ZM13.2189 10.0911L9.84066 12.538C9.44795 12.8225 9.12731 13.2009 8.90592 13.641C8.68454 14.0811 8.56895 14.57 8.56895 15.0663C8.56895 15.5625 8.68454 16.0514 8.90592 16.4916C9.12731 16.9317 9.44795 17.3101 9.84066 17.5946L26.7842 29.9089L30.1624 27.4636C30.5548 27.1789 30.8751 26.8004 31.0963 26.3603C31.3174 25.9202 31.4329 25.4315 31.4329 24.9354C31.4329 24.4393 31.3174 23.9505 31.0963 23.5104C30.8751 23.0703 30.5548 22.6918 30.1624 22.4071L13.2189 10.0911Z" fill="#4BC0C8"/>
<path d="M9.82924 27.445L13.2026 29.897L17.1144 27.0671L18.5547 28.1143L13.2075 31.9881L8.88484 28.8464C8.27466 28.4038 7.7765 27.8156 7.43257 27.1313C7.08863 26.4471 6.90906 25.6872 6.90906 24.9159C6.90906 24.1446 7.08863 23.3846 7.43257 22.7004C7.7765 22.0162 8.27466 21.4279 8.88484 20.9854L9.9169 20.2383L9.91455 20.2349L16.7191 15.3056L16.7233 15.3118L17.1209 15.0239L18.5612 16.0678L9.82924 22.3885C9.43686 22.6732 9.11652 23.0516 8.89537 23.4917C8.67421 23.9318 8.55874 24.4206 8.55874 24.9167C8.55874 25.4128 8.67421 25.9016 8.89537 26.3417C9.11652 26.7818 9.43686 27.1603 9.82924 27.445Z" fill="#02819B"/>
<path d="M26.7973 8.01184L31.1216 11.1535H31.115C31.7252 11.5961 32.2234 12.1844 32.5673 12.8686C32.9113 13.5528 33.0908 14.3127 33.0908 15.0841C33.0908 15.8554 32.9113 16.6153 32.5673 17.2995C32.2234 17.9837 31.7252 18.572 31.115 19.0146L22.8773 24.9811L21.437 23.9339L25.9781 20.65L25.9757 20.6464L29.2901 18.2435C29.292 18.246 29.294 18.2484 29.2959 18.2508L30.1706 17.6183C30.563 17.3335 30.8834 16.9551 31.1045 16.515C31.3257 16.0749 31.4411 15.5861 31.4411 15.09C31.4411 14.5939 31.3257 14.1051 31.1045 13.665C30.8834 13.2249 30.563 12.8465 30.1706 12.5617L26.7957 10.1097L22.8855 12.9362L21.4452 11.889L26.7973 8.01184Z" fill="#02819B"/>
<path d="M39.5 20C39.5 23.8567 38.3563 27.6269 36.2137 30.8336C34.071 34.0404 31.0255 36.5397 27.4623 38.0156C23.8992 39.4916 19.9784 39.8777 16.1957 39.1253C12.4131 38.3729 8.93855 36.5157 6.21143 33.7886C3.4843 31.0615 1.62711 27.5869 0.874696 23.8043C0.122284 20.0216 0.508449 16.1008 1.98436 12.5377C3.46027 8.97451 5.95963 5.92903 9.16639 3.78634C12.3731 1.64365 16.1433 0.5 20 0.5C25.1717 0.5 30.1316 2.55446 33.7886 6.21142C37.4455 9.86837 39.5 14.8283 39.5 20Z" stroke="black" stroke-opacity="0.02"/>
</g>
<defs>
<clipPath id="clip0_1860_890">
<rect width="40" height="40" fill="white"/>
</clipPath>
</defs>
</svg>
