<svg width="40" height="40" viewBox="0 0 40 40" fill="none" xmlns="http://www.w3.org/2000/svg">
<g clip-path="url(#clip0_1837_885)">
<path d="M20 40C23.9556 40 27.8224 38.827 31.1114 36.6294C34.4004 34.4318 36.9638 31.3082 38.4776 27.6537C39.9913 23.9992 40.3874 19.9778 39.6157 16.0982C38.844 12.2186 36.9392 8.65492 34.1421 5.85787C31.3451 3.06082 27.7814 1.15601 23.9018 0.384303C20.0222 -0.387401 16.0009 0.00866568 12.3463 1.52242C8.69181 3.03617 5.56824 5.59962 3.37061 8.8886C1.17298 12.1776 0 16.0444 0 20C0 25.3043 2.10714 30.3914 5.85786 34.1421C9.60859 37.8929 14.6957 40 20 40Z" fill="#F3F3F3"/>
<path d="M18.1469 30.9865C24.2928 30.9865 29.275 25.8408 29.275 19.4933C29.275 13.1457 24.2928 8 18.1469 8C12.001 8 7.01881 13.1457 7.01881 19.4933C7.01881 25.8408 12.001 30.9865 18.1469 30.9865Z" fill="#2EB6EA"/>
<path d="M18.0863 30.9865C7.01865 30.9865 2.65061 15.9486 12.4266 9.61119C11.264 22.1798 17.4486 22.4578 23.1877 22.1798C32.8043 21.7139 32.8108 30.9865 32.8108 30.9865H18.0863Z" fill="#1542CD"/>
<path fill-rule="evenodd" clip-rule="evenodd" d="M28.6656 23.2531C26.9914 27.6849 22.8743 30.854 18.0237 30.9951C18.1377 30.9983 18.2525 31 18.3679 31H33C33 31 32.9962 25.5652 28.6656 23.2531Z" fill="#745DDF"/>
<path d="M39.5 20C39.5 23.8567 38.3563 27.6269 36.2137 30.8336C34.071 34.0404 31.0255 36.5397 27.4623 38.0156C23.8992 39.4916 19.9784 39.8777 16.1957 39.1253C12.4131 38.3729 8.93855 36.5157 6.21143 33.7886C3.4843 31.0615 1.62711 27.5869 0.874696 23.8043C0.122284 20.0216 0.508449 16.1008 1.98436 12.5377C3.46027 8.97451 5.95963 5.92903 9.16639 3.78634C12.3731 1.64365 16.1433 0.5 20 0.5C25.1717 0.5 30.1316 2.55446 33.7886 6.21142C37.4455 9.86837 39.5 14.8283 39.5 20Z" stroke="black" stroke-opacity="0.02"/>
</g>
<defs>
<clipPath id="clip0_1837_885">
<rect width="40" height="40" fill="white"/>
</clipPath>
</defs>
</svg>
