<svg viewBox="0 0 40 40" xmlns="http://www.w3.org/2000/svg">
  <g fill="none">
    <circle fill="#A5A8A9" cx="20" cy="20" r="20"/>
    <circle stroke-opacity=".02" stroke="#000" cx="20" cy="20" r="19.5"/>
    <path d="M20.193 21.1058l-1.5902 5.366h8.506a.4362.4362 0 01.4178.5585l-.7396 2.5481a.5845.5845 0 01-.5622.4216H13.233l2.1967-7.4186L13 23.321l.5362-1.7345 2.4335-.7396 3.0843-10.4216A.5803.5803 0 0119.6124 10h3.2914a.4368.4368 0 01.4383.435.44.44 0 01-.0167.1197l-2.5887 8.813 2.4297-.7397-.5214 1.764-2.452.7138z" fill="#FFF"/>
  </g>
</svg>
