<svg width="40" height="40" viewBox="0 0 40 40" fill="none" xmlns="http://www.w3.org/2000/svg">
<g clip-path="url(#clip0_3390_108)">
<path fill-rule="evenodd" clip-rule="evenodd" d="M20 0C31.0465 0 40 8.95353 40 20C40 31.0465 31.0465 40 20 40C8.95353 40 0 31.0465 0 20C0 8.95353 8.95353 0 20 0Z" fill="#F0F3FA"/>
<path d="M33.5714 22.5714L20 9.28564L6.42856 22.5714L11.8357 27.8571L20 19.8571L28.1643 27.8571L33.5714 22.5714Z" fill="url(#paint0_linear_3390_108)"/>
<path d="M39.5 20C39.5 23.8567 38.3563 27.6269 36.2137 30.8336C34.071 34.0404 31.0255 36.5397 27.4623 38.0156C23.8992 39.4916 19.9784 39.8777 16.1957 39.1253C12.4131 38.3729 8.93855 36.5157 6.21143 33.7886C3.4843 31.0615 1.62711 27.5869 0.874696 23.8043C0.122284 20.0216 0.508449 16.1008 1.98436 12.5377C3.46027 8.97451 5.95963 5.92903 9.16639 3.78634C12.3731 1.64365 16.1433 0.5 20 0.5C25.1717 0.5 30.1316 2.55446 33.7886 6.21142C37.4455 9.86837 39.5 14.8283 39.5 20Z" stroke="black" stroke-opacity="0.02"/>
</g>
<defs>
<linearGradient id="paint0_linear_3390_108" x1="-10.4286" y1="18.5714" x2="41.4714" y2="18.5714" gradientUnits="userSpaceOnUse">
<stop offset="0.29" stop-color="#00CDDD"/>
<stop offset="0.8" stop-color="#9A1DB1"/>
</linearGradient>
<clipPath id="clip0_3390_108">
<rect width="40" height="40" fill="white"/>
</clipPath>
</defs>
</svg>
