<svg width="40" height="40" viewBox="0 0 40 40" fill="none" xmlns="http://www.w3.org/2000/svg">
<path d="M20 40C31 40 40 31 40 20C40 9 31 0 20 0C9 0 0 9 0 20C0 31 9 40 20 40Z" fill="#F3F3F3"/>
<path d="M20.0625 34.0571C27.829 34.0571 34.125 27.7252 34.125 19.9143C34.125 12.1034 27.829 5.77143 20.0625 5.77143C12.296 5.77143 6 12.1034 6 19.9143C6 27.7252 12.296 34.0571 20.0625 34.0571Z" fill="#F2E373"/>
<path fill-rule="evenodd" clip-rule="evenodd" d="M25.8683 18.9714L6.9375 24.85C7.80119 27.7148 9.5643 30.3577 12.2352 32.3113C18.8275 37.1244 27.0504 35.0767 32.2052 29.3294C32.3156 29.2058 32.2052 29.0012 32.056 29.0712C31.0872 29.545 29.9988 29.6859 28.948 29.4738C27.9714 29.28 27.0731 28.7855 26.3693 28.0544C25.6656 27.3233 25.1887 26.3891 25.0004 25.3728C24.7563 24.0866 24.9832 22.7519 25.6365 21.6311C26.2899 20.5103 27.3223 19.6844 28.5309 19.316L25.8683 18.9714Z" fill="url(#paint0_linear_2202_586)"/>
<path fill-rule="evenodd" clip-rule="evenodd" d="M23.8837 17.3726C24.2685 17.2155 24.6417 17.0319 25.0007 16.8231C26.7535 15.8231 28.7982 15.4513 30.7934 15.7699C32.7885 16.0886 34.6134 17.0783 35.9632 18.5738C35.9843 18.5987 35.997 18.6296 35.9995 18.6621C36.0021 18.6946 35.9943 18.727 35.9774 18.7549C35.9605 18.7828 35.9352 18.8047 35.9051 18.8175C35.875 18.8304 35.8416 18.8335 35.8096 18.8265C33.381 18.3179 30.7631 18.2179 28.7691 18.8663C26.3654 19.6503 24.6017 21.3516 23.3809 23.4626C21.5924 26.5576 20.856 27.4329 17.9668 28.5535C12.9321 30.5086 8.23487 28.7374 6.6529 24.2863C5.64711 21.0793 5.80743 17.6226 7.10581 14.5213C8.40418 11.42 10.7579 8.87151 13.755 7.32197C15.4992 6.40358 17.6142 5.6293 19.3854 5.11956C21.0928 4.63455 23.9984 3.93017 24.7477 2.102C24.7625 2.06794 24.7881 2.03967 24.8206 2.02154C24.8532 2.00342 24.8908 1.99645 24.9277 2.00171C24.9646 2.00697 24.9988 2.02417 25.0249 2.05065C25.051 2.07714 25.0676 2.11143 25.0721 2.14824C25.3716 4.30871 24.8742 5.2927 23.6275 6.4595C22.2758 7.72524 20.6073 8.30165 19.1108 9.21574C16.8281 10.7213 16.1047 13.4711 17.6186 15.7412C18.5182 17.0909 20.0505 17.8071 21.6605 17.8071C22.1545 17.8056 22.6464 17.745 23.1257 17.6264C23.3841 17.5596 23.6374 17.4748 23.8837 17.3726Z" fill="url(#paint1_linear_2202_586)"/>
<path d="M39.5 20C39.5 23.8567 38.3563 27.6269 36.2137 30.8336C34.071 34.0404 31.0255 36.5397 27.4623 38.0156C23.8992 39.4916 19.9784 39.8777 16.1957 39.1253C12.4131 38.3729 8.93855 36.5157 6.21143 33.7886C3.4843 31.0615 1.62711 27.5869 0.874696 23.8043C0.122284 20.0216 0.508449 16.1008 1.98436 12.5377C3.46027 8.97451 5.95963 5.92903 9.16639 3.78634C12.3731 1.64365 16.1433 0.5 20 0.5C25.1717 0.5 30.1316 2.55446 33.7886 6.21142C37.4455 9.86837 39.5 14.8283 39.5 20Z" stroke="black" stroke-opacity="0.02"/>
<defs>
<linearGradient id="paint0_linear_2202_586" x1="18.6847" y1="8.10729" x2="34.336" y2="28.4947" gradientUnits="userSpaceOnUse">
<stop stop-color="#F7D45C"/>
<stop offset="1" stop-color="#DE3633"/>
</linearGradient>
<linearGradient id="paint1_linear_2202_586" x1="11.0401" y1="8.25489" x2="24.0181" y2="22.9188" gradientUnits="userSpaceOnUse">
<stop stop-color="#F7D45C"/>
<stop offset="1" stop-color="#DE3633"/>
</linearGradient>
</defs>
</svg>
